<svg width="71" height="61" viewBox="0 0 71 61" fill="none" xmlns="http://www.w3.org/2000/svg">
<path d="M41.6879 60.7876C39.6976 60.0689 38.4914 57.8023 37.8279 53.4902C37.0439 48.2935 36.3201 46.9667 34.1489 46.9667C32.7617 46.9667 32.1586 47.4642 30.892 49.3992C30.0477 50.726 28.9621 51.9975 28.5399 52.1081C26.9718 52.6609 25.5846 51.0577 25.4037 48.5699C25.283 46.1374 25.283 46.1374 23.0515 46.1374C20.5184 46.1374 19.1312 44.8659 19.1312 42.4887C19.1312 40.5538 17.0203 39.0611 15.5125 39.7798C14.9094 40.0562 13.5825 41.6594 12.5572 43.3179C10.5066 46.7455 8.45598 48.2382 6.34506 47.9618C5.19913 47.8512 4.95789 47.5195 5.07851 45.861C5.13882 44.313 5.74194 43.4838 8.21473 41.4383C11.4716 38.7847 12.4969 36.9603 12.4969 33.975C12.4969 31.9295 12.0747 31.7084 7.43068 30.8791C1.70104 29.884 -0.108322 27.2857 3.20884 24.9084C4.47539 23.9686 5.68163 23.7475 8.99879 23.7475C13.6428 23.7475 16.7187 22.8077 18.1662 20.928C20.639 17.611 18.5281 14.294 11.8938 11.0322C5.07851 7.65991 3.08821 4.72987 5.86257 2.18682C8.33536 -0.0798176 13.4619 1.5787 17.0203 5.89083C18.2265 7.38349 20.1565 9.26314 21.3024 10.1477C23.1721 11.5298 23.7752 11.6956 26.429 11.4745C28.1177 11.3086 29.9271 10.8111 30.4095 10.3135C31.3142 9.48428 31.3142 9.15257 30.2889 6.11197C29.2636 3.01607 29.2636 2.68437 30.2286 1.35756C31.4349 -0.356236 33.6061 -0.466804 35.1742 1.13643C35.9583 1.9104 36.3201 3.23721 36.4408 5.61441C36.5614 8.65502 37.1645 9.87126 38.4914 9.92655C38.6723 9.92655 39.7579 9.37371 40.9038 8.65502C43.8591 6.83065 44.8844 6.55424 46.5732 7.27292C48.081 7.88105 49.2872 10.203 49.2872 12.4143C49.2872 15.5102 52.4837 15.5102 56.5246 12.4143C59.4799 10.1477 59.5402 10.1477 61.3496 11.4745C62.3749 12.1932 62.6162 12.8013 62.3146 13.6858C61.6512 15.4549 59.6609 16.45 55.9215 16.9476C53.0869 17.3346 52.6044 17.611 52.4234 18.6614C52.1822 20.2093 53.2678 21.5361 54.7153 21.5361C55.2581 21.5361 56.1628 21.9784 56.7056 22.5312C57.8515 23.6922 57.1278 25.2402 54.5947 27.0645C53.4487 27.8385 52.9059 28.7783 52.9059 29.8287C52.9059 31.8189 53.2678 32.0401 57.8515 32.5929C63.5811 33.3669 65.9333 36.1311 63.0987 38.7294C61.6512 40.0562 59.7815 39.8351 56.9468 38.0107C54.2931 36.2969 51.0363 35.3571 49.7697 35.9652C48.4428 36.6286 48.3825 39.0611 49.5888 41.2172C51.3981 44.4789 50.1919 46.8561 47.0557 46.1927C43.1957 45.3082 42.0498 45.1976 42.0498 45.7504C42.0498 46.0821 42.8941 48.2382 43.9194 50.5601C45.2463 53.6007 45.6685 55.4804 45.5479 57.3047C45.3669 60.1795 43.8591 61.5616 41.6879 60.7876Z" fill="#00696F"/>
<path d="M48.7448 52.2739C48.2019 51.6658 48.2623 51.3341 49.0463 50.5601C50.1922 49.5097 51.3382 50.1731 50.9763 51.7211C50.7351 52.9926 49.6494 53.269 48.7448 52.2739Z" fill="#00696F"/>
<path d="M64.5468 31.4869C61.2296 29.6626 62.1946 28.1699 66.5371 28.1699C69.4321 28.1699 71.0002 29.0545 71.0002 30.6024C71.0002 32.8138 67.7433 33.256 64.5468 31.4869Z" fill="#00696F"/>
<path d="M3.69181 19.2692C2.66651 18.9928 1.33964 18.2741 0.736524 17.666C-0.168156 16.7262 -0.228468 16.4497 0.495276 15.6758C2.1237 13.8514 8.87864 15.731 8.87864 18.053C8.87864 18.6058 6.22492 20.0985 5.68211 19.822C5.6218 19.822 4.71712 19.5456 3.69181 19.2692Z" fill="#00696F"/>
<path d="M55.9827 7.49385C55.078 6.55403 55.6811 5.06137 57.1889 4.67438C59.4205 4.01098 60.3855 5.78006 58.5761 7.38329C57.4302 8.48896 56.8874 8.48896 55.9827 7.49385Z" fill="#00696F"/>
</svg>
