<?xml version="1.0" encoding="utf-8"?>
<!DOCTYPE svg PUBLIC "-//W3C//DTD SVG 1.0//EN" "http://www.w3.org/TR/2001/REC-SVG-20010904/DTD/svg10.dtd">
<svg version="1.0" xmlns="http://www.w3.org/2000/svg" width="1060px" height="565px" viewBox="0 0 1060 565" preserveAspectRatio="xMidYMid meet">
 <g fill="#1c1c24">
  <path d="M885.9 546 c-4.1 -1.2 -7.5 -3.8 -8.8 -6.6 -1.8 -4 -0.4 -4.2 3.1 -0.5 5.6 6 10.8 6.3 15.3 0.9 2 -2.3 2.5 -4.1 2.5 -8.1 0 -2.9 -0.5 -5.9 -1 -6.7 -0.8 -1.3 -1.3 -1.3 -3.9 0.3 -6.2 3.7 -12.5 0.9 -12.3 -5.4 0.1 -4 1.5 -5.5 8.3 -8.9 4.5 -2.3 5.9 -2.7 6.8 -1.7 1.6 2 4.1 12.5 4.7 19.7 0.6 7.7 -1.2 12.2 -6.5 15.7 -3.6 2.5 -4.2 2.6 -8.2 1.3z m7 -24.4 c3.4 -3.6 2.5 -7 -1.8 -7.4 -5.5 -0.6 -10.2 5.3 -6.9 8.6 2 2 6.3 1.4 8.7 -1.2z"/>
  <path d="M671.5 540.8 c1.5 -4.8 7.7 -15.6 13.3 -23 18.4 -24.6 39.8 -41.7 56.1 -44.8 20.8 -3.9 38.2 3.1 52.7 21.1 2.6 3.3 5 5.6 5.2 5.1 0.7 -2.1 -5.2 -14.6 -8.2 -17.4 -1.7 -1.6 -5.5 -4.3 -8.3 -5.9 -2.9 -1.7 -5.3 -3.5 -5.3 -4 0 -1.3 1.2 -1.1 3.5 0.4 5.9 4 9.8 5.9 9 4.6 -1.9 -3.2 -12.1 -17.7 -15.3 -21.6 l-3.4 -4.3 -9.4 0 c-5.1 0 -9.6 -0.4 -9.9 -1 -0.4 -0.6 2.5 -1 7.9 -1 4.7 0 8.6 -0.4 8.6 -0.8 0 -1.8 -9.7 -10 -12.5 -10.6 -2.9 -0.6 -15.5 0.7 -18.9 2 -0.9 0.3 -1.6 0.2 -1.6 -0.4 0 -1.5 5.1 -3 13.1 -3.8 l7.1 -0.7 -4 -4 c-4 -4 -4 -4 -8.5 -2.8 -5.4 1.3 -7.7 1.4 -7.7 0.3 0 -0.5 2.1 -1.3 4.6 -1.8 4.8 -1 6.1 -3.1 1.6 -2.6 -2.6 0.2 -2.6 0.2 -0.8 -1.3 2.5 -1.9 0.9 -1.9 -3.7 0 -4.3 1.8 -4.7 1.8 -4.7 0.6 0 -0.5 1.6 -1.5 3.5 -2.2 1.9 -0.7 3.5 -1.7 3.5 -2.1 0 -1.1 -0.7 -1 -3 0.2 -2.5 1.3 -3.7 -0.5 -1.3 -1.9 1.7 -0.9 1.7 -1.1 -0.3 -3.1 -1.8 -1.9 -2.8 -2.1 -6.8 -1.5 -3.9 0.6 -4.8 1.2 -6.2 4 -6.2 13.1 -52.7 41.7 -85.5 52.5 -23.5 7.7 -37.8 7.2 -41.5 -1.5 -3 -7.3 -0.6 -16.6 6.3 -23.7 3.2 -3.2 3.5 -4 2.9 -7.2 -0.4 -2 -1 -3.6 -1.3 -3.6 -0.3 0 -3.5 1.6 -7 3.6 -7.6 4.2 -17.5 13.2 -24 21.8 -8.9 11.8 -19.3 37.5 -27.3 67.6 -1.9 6.9 -3.7 12.9 -4.2 13.4 -2 2.4 -0.4 -5.6 4.6 -22.6 10.3 -34.9 18.8 -53 31.2 -66.6 5.9 -6.5 17.3 -15.3 23.2 -17.7 1.7 -0.8 3.2 -2 3.2 -2.7 0 -0.7 -1.1 -4.7 -2.5 -8.9 l-2.6 -7.7 -10.8 0.6 c-9.1 0.4 -11.9 0.1 -17.7 -1.6 -13.2 -4 -19.7 -9.6 -26.8 -23.1 -2.7 -5 -5.6 -9.6 -6.4 -10.3 -1.3 -1.2 -1.4 -0.7 -0.8 4.2 0.4 3 1.8 8.8 3.2 12.9 1.4 4 2.2 7.6 2 7.9 -1.5 1.4 -13.4 -9.1 -18.3 -16.3 -4.2 -6.1 -3.6 -2.8 1.1 6 6 11.1 7.1 13 8.1 13.7 0.5 0.4 0.6 1 0.2 1.4 -1.3 1.3 -8.9 -2.9 -13.4 -7.4 -13.3 -13.3 -18.3 -27.6 -18.3 -51.9 0.1 -21.7 3.3 -40.5 11 -63.5 4.6 -13.6 5 -17.5 2 -18 -1.2 -0.2 -2 -0.7 -1.9 -1.3 0.1 -0.5 1 -0.9 2.1 -0.7 1 0.2 1.8 0 1.8 -0.5 -0.1 -1.5 -5.7 -22.3 -6.2 -22.8 -0.9 -1 -5.7 18.8 -8.7 36 -1.6 9.4 -4.3 23.5 -6 31.5 -3.6 16.7 -5.5 36.4 -4.6 46.5 1.4 15.2 6.3 29 13.8 38.8 2.2 2.7 3.1 4.7 2.4 4.7 -2.4 0 -9.5 -10.8 -12.8 -19.3 -7.6 -19.7 -7.7 -40.2 -0.3 -74.7 2 -9.1 4.6 -22.8 5.9 -30.5 1.3 -7.7 3.7 -18.7 5.3 -24.5 1.6 -5.8 3.4 -13.4 4 -17 1.5 -8.6 3 -20.4 2.7 -20.8 -0.2 -0.2 -2.3 3.9 -4.8 9 -5.4 10.9 -7 16.8 -9.8 35.5 -1.4 9.8 -3.6 18.6 -7.4 30.3 -6.8 21.1 -7.8 26.2 -7.8 38.8 0 7.4 -0.3 10 -1 9.3 -1.8 -1.8 -2 -13.1 -0.3 -22.6 0.8 -4.9 4 -16.4 6.9 -25.5 4.1 -12.3 6 -20.3 7.7 -31.5 3.2 -21.6 5.8 -29.1 16.4 -47 6.6 -11.2 37 -40.5 55.6 -53.6 9.1 -6.5 42.4 -24.9 44.9 -24.9 0.6 0 1.1 0.5 1.1 1 0 0.6 -0.5 1 -1.2 1 -2.6 0 -39 21 -47.8 27.6 -11.9 9 -35.7 30.8 -43 39.6 -6.1 7.2 -7.4 11 -8.6 23.7 l-0.7 6.8 3.7 2.2 c2 1.3 3.6 2.9 3.6 3.8 0 1.1 -0.6 1 -2.6 -0.6 -1.5 -1.2 -3.1 -2.1 -3.7 -2.1 -1.5 0 -0.1 10 3.1 21.6 l2.7 10.1 8 -2.3 c10 -2.9 16.3 -3 21.5 -0.4 l4 2 -0.1 -2.2 c0 -2.5 -1.7 -7 -1.8 -5 -0.1 2 -2 1.4 -6.5 -2.3 -8.6 -7 -13.4 -6.7 -18.8 1 -3.9 5.5 -5.5 5.9 -2.8 0.6 3.7 -7.4 9.9 -10.5 15.6 -7.8 l3.3 1.6 -0.9 -2.5 c-1.7 -4.3 -3.1 -6.7 -6.7 -11.2 -4.4 -5.4 -3.7 -6.7 0.9 -1.7 3.9 4.3 8.8 13.3 8.1 15 -0.2 0.7 1 2.3 2.6 3.5 1.7 1.2 3.1 1.8 3.1 1.4 0 -1.4 -7.2 -13.9 -10.1 -17.5 -4.4 -5.6 -3.4 -7 1.2 -1.9 2.2 2.5 3.5 3.5 3 2.3 -0.8 -1.5 -0.8 -2.4 -0.1 -2.8 1.5 -0.9 9.8 17.3 11.6 25.5 2.6 11.5 -0.2 21.4 -12.1 42.8 -4.8 8.7 -4.8 13.8 -0.2 18.5 4.2 4.2 9.3 6.6 16.8 8 6.2 1.2 7.9 2.7 3.1 2.7 -9 0 -20.9 -6.6 -24.2 -13.5 -2.7 -5.6 -1.8 -9.4 5 -20.9 5.4 -9.1 8.3 -16 9.4 -21.8 l0.7 -3.7 -5.8 2.1 c-4.2 1.4 -7.4 1.9 -11.7 1.6 -5.6 -0.4 -6.2 -0.7 -10 -5 -4.7 -5.1 -6.6 -5.2 -6.6 -0.2 0 1.9 -1.3 7.3 -3 12 -4.3 12.4 -6 21.9 -6 33.1 0 21 6.1 34.3 25 55.2 3.6 3.9 8.6 11 11.1 15.7 6 11 10.3 15.5 19.3 19.9 5.6 2.8 8.9 3.8 14.7 4.2 26.9 2 84 -16.2 109.6 -35 13.3 -9.8 26.3 -34.2 26.3 -49.4 0 -2.4 0.5 -4.3 1 -4.3 0.6 0 1 1.6 1 3.5 0 5.3 1.8 8.2 6.4 10 5.7 2.3 11.2 1.3 18.5 -3.6 11.1 -7.4 17.3 -16.5 23 -33.7 4.1 -12.7 5.7 -21 4.2 -22.5 -0.6 -0.6 -1.1 -1.8 -1.1 -2.6 0 -1.9 -4.6 -7.8 -7.1 -9.2 -1.5 -0.7 -2.4 -0.7 -3.4 0.1 -1.2 1 -1.2 1.7 0.4 4.9 3 5.8 4.1 13.7 3 22.1 -1.2 9.4 -3.2 16.3 -4.9 16.8 -0.9 0.3 -1.1 -0.1 -0.6 -1.4 4 -10.3 4.7 -26.4 1.6 -34.7 l-2 -5.4 -5.9 2 c-4.8 1.6 -6.1 2.5 -7.4 5.3 -0.9 1.9 -1.2 3.4 -0.7 3.4 0.5 0 2.5 1.4 4.4 3 4.7 4.2 6.2 10.6 3.6 16.4 -2.3 5.3 -6.5 9.2 -13.6 12.6 -4.7 2.2 -6.3 2.5 -8.1 1.7 -3.1 -1.4 -2.9 -3.1 0.9 -7.9 3 -3.7 3.3 -4.7 3.6 -12.1 0.3 -9.1 0.9 -12.7 2 -12.7 0.6 0 0.9 16.9 0.4 22.2 -0.1 0.9 -1.4 3.1 -2.8 4.8 -3.4 4 -2.5 4.8 2.8 2.4 7.9 -3.5 13.8 -10.2 13.8 -15.7 0 -2.6 -4.4 -7.3 -7.5 -7.9 -1.7 -0.3 -2 -1.1 -1.9 -4.9 0.1 -12.4 15.4 -22.3 24.4 -15.9 1.8 1.3 4.1 3.7 5.2 5.4 l2 3.1 -0.7 -3 c-2 -8.9 -7.3 -14.2 -15.1 -15.1 -4.6 -0.6 -5.3 -0.3 -11.7 4.1 -8.4 5.7 -14 7.8 -18.7 7 -4.1 -0.8 -15 -6.4 -15 -7.7 0 -1.1 -0.3 -1.2 7.2 2.5 7.6 3.8 12.9 3.9 19.6 0.2 6.8 -3.7 9.3 -6.4 3.7 -4 -6.8 2.9 -11.1 3.6 -16.2 2.5 -12.3 -2.8 -24.3 -13.1 -32.1 -27.6 -6.1 -11.4 -12.6 -19 -22.3 -26.1 -20.9 -15.2 -34.6 -34.7 -40.4 -57.8 -2.6 -10.2 -3.6 -21 -2 -21 0.6 0 0.9 0.4 0.7 0.8 -0.5 1.7 2.8 19.5 4.9 25.7 8.5 26.2 25.1 44.5 56.5 62.5 6.6 3.7 16.2 9.6 21.4 13 15.9 10.2 15.9 10.1 0.3 -1.6 -6.1 -4.7 -17.8 -14.3 -26 -21.3 -19.4 -16.9 -19.1 -16.6 -17.3 -16.6 0.8 0 8.5 6.1 17 13.6 16.9 14.8 39.6 32.2 50.3 38.6 3.7 2.2 6.7 4.4 6.7 4.8 0 1.1 9.9 5.2 11.7 4.8 2.2 -0.4 -38.8 -32.6 -62.7 -49.3 -17.4 -12 -30.3 -24.3 -38.7 -36.8 -8 -11.8 -16.8 -33 -16 -38.5 0.4 -3.1 0.5 -2.8 3.7 7.8 2.9 9.8 10.1 24.5 15.7 32.3 7.3 10 21.9 23.5 36.9 33.9 7.6 5.4 23.4 17 34.9 25.9 11.6 8.8 19.2 14.2 17 11.9 -7.2 -7.6 -45 -40.3 -58.1 -50.2 -8.5 -6.5 -18.7 -17.8 -16 -17.8 0.3 0 3.1 2.8 6.3 6.1 3.2 3.4 8.5 8.2 11.8 10.7 7 5.4 20.6 16.8 35.3 29.7 5.7 4.9 11.3 9.7 12.5 10.5 5.6 3.9 -17 -21.8 -36.7 -41.8 -12.1 -12.2 -21.6 -22.5 -21.2 -22.9 1.6 -1.7 43.3 41.9 60.3 63 10.4 13.1 22.3 26.4 22.3 25.1 0 -0.4 -4.7 -7.8 -10.5 -16.4 -10.5 -15.8 -19.3 -27.4 -29.2 -38.4 -2.9 -3.3 -5.3 -6.4 -5.3 -7 0 -3.3 20.6 21.2 32.2 38.4 8.6 12.7 10.2 14.5 5.8 6.5 -8.1 -14.7 -34.4 -50 -44.4 -59.4 -2 -1.9 -3.6 -4.2 -3.6 -5 0 -3.7 23.6 24.1 38.4 45.3 4.2 6 7.6 10.5 7.6 10.1 0 -1 -8.5 -16.6 -14.7 -26.9 -3 -4.8 -5.2 -9.1 -4.8 -9.4 0.7 -0.7 0.6 -0.9 7 9.3 3.1 5 9 15.7 13.1 23.9 4.1 8.2 7.4 14.7 7.4 14.3 0 -1.6 -5.6 -15.9 -10 -25.3 -9.4 -20 -16.2 -29.1 -42.9 -56.9 -14.2 -14.8 -20.6 -22.6 -17.3 -21.3 0.5 0.2 3 2.8 5.7 5.8 2.6 3 11.1 12.2 18.9 20.4 22.4 23.7 27 30 36.7 50 6.7 13.8 8.4 18.4 14.4 38.6 2.4 8 5 16.3 5.9 18.5 1 2.6 1.5 7.4 1.6 13.6 0 5.2 0.5 15.4 1.1 22.7 1.8 22.9 -0.9 52.3 -6.3 69.2 -2.8 8.8 -8.8 22 -10 22 -0.6 0 -0.8 -0.6 -0.5 -1.2 0.3 -0.7 2.4 -5.6 4.6 -11 4.7 -11.2 7.6 -22.4 9.1 -35.8 1.3 -11.6 1.4 -47.4 0.1 -51.5 -1.1 -3.5 -1 -5.4 -1.5 22.5 -0.7 31 -4.3 50.5 -13.3 70.2 -2 4.3 -3.9 7.5 -4.4 7.3 -0.4 -0.3 1.1 -4.7 3.3 -9.8 4.7 -10.8 8.4 -24.3 10.3 -38.2 1.9 -13.8 3.1 -41.5 1.7 -41.5 -1.6 0 -2.3 4.7 -1.6 10.8 1.6 14.8 -5.2 45.7 -14.6 65.7 -3.6 7.6 -11.5 19.5 -13.1 19.5 -1.5 0 -1.1 -0.7 2.8 -5.7 4.1 -5.5 12 -21.6 15.2 -31.3 4.6 -14.3 8.9 -40.9 7.5 -46.7 -1 -4 -2.4 -0.7 -2.4 5.9 0 7 -2.6 20.8 -4.1 22.2 -1.2 1.2 -1.2 1.2 1 -11.9 0.6 -3.3 1.1 -7.3 1.1 -8.8 0 -4.9 -1.7 -2 -2.9 4.8 -1.7 9.7 -5.6 22.2 -9.6 31.1 -3.9 8.6 -11.6 21.4 -14 23.4 -3 2.5 -2.4 0.3 1.4 -5 8 -11.3 17.7 -34.6 19.6 -47 1.1 -7.3 -2 -2.9 -3.5 4.9 -1.5 8.1 -6.8 23.1 -8.2 23.1 -0.6 0 -0.8 -0.8 -0.4 -1.7 0.3 -1 1.8 -5.6 3.4 -10.3 3.4 -9.9 4.8 -17 3 -15.2 -0.6 0.6 -2.2 4.9 -3.5 9.4 -4.5 15.5 -12.5 32.7 -19.1 40.8 -3.3 4.1 -3.4 1.8 -0.1 -3 5.2 -7.7 11.6 -21.3 15.4 -32.5 2 -5.9 3.4 -10.9 3.3 -11.1 -1.1 -1 -2.7 2.2 -5.1 10.5 -1.6 5.2 -4.3 12.4 -6.2 16 -3.4 6.9 -12.4 20 -13.7 20.1 -1.7 0.1 -0.6 -2.2 3.6 -7.7 6.4 -8.6 10.1 -15.7 13.6 -26.1 1.6 -5.2 3 -9.5 3 -9.7 0 -0.2 -0.8 -0.1 -1.9 0.2 -1.4 0.3 -2.3 2.4 -3.6 8.6 -1.6 6.9 -2.6 9.2 -6.7 14.4 -5.9 7.4 -16.3 17.2 -23.6 22.1 -2.9 1.9 -5.1 3.6 -5 3.8 0.4 0.3 10.4 -1.3 12.8 -2.1 4.9 -1.5 0.7 4.2 -7.4 10.3 l-2.9 2.2 3.6 0 c9 0 23.7 -7.2 32.5 -16 4.2 -4 11.6 -17.6 15.2 -27.7 1.3 -3.5 2.7 -6.3 3.2 -6.3 1.2 0 0 4.3 -3.7 13 -8.1 19.3 -22.7 38.7 -35.7 47.4 -2.7 1.9 -4.5 3.7 -4 4 1.6 1 17.1 -1.4 23.6 -3.5 8.8 -3 16.4 -7.3 23.9 -13.5 5.6 -4.6 6.9 -6.4 9.5 -12.6 1.7 -4 4.1 -10.8 5.4 -15 1.2 -4.3 2.6 -7.8 3.1 -7.8 1.3 0 0.8 2.6 -2.3 12 -3.6 10.9 -10.2 25 -16 33.8 l-4.1 6.4 4.7 -3.4 c2.6 -1.8 8.4 -6.8 13 -11.1 9 -8.5 9.9 -10.2 12.8 -24.7 5.3 -26.4 4.7 -63.5 -1.4 -94.1 -3.2 -15.7 -3.4 -16.9 -2.2 -16.9 0.8 0 5.6 21.2 7.4 33.5 1.7 11.1 1.7 57.6 0 68.5 -2.9 18.5 -5 24.8 -11.8 35 -3.4 5.2 -8.5 11.9 -11.2 14.8 -5.4 5.8 -3.4 6.4 2.7 0.8 11.9 -10.9 20.4 -27.6 24.6 -48 3.9 -19.5 4.2 -34.6 0.8 -54.3 -0.3 -1.9 -0.1 -3.3 0.5 -3.3 1.3 0 4.2 19.1 4.2 27.7 0 9.3 -1.6 21.6 -4.5 34.8 -2.8 12.2 -9.5 27.1 -16.5 36.3 -3.4 4.4 -3.6 5 -1.4 3.6 4 -2.6 11.2 -12.1 14.9 -19.5 9.7 -19.1 12.5 -50.2 7.2 -78.4 -1.4 -7.7 -3.5 -21 -4.6 -29.5 -1.9 -14.3 -4.4 -26 -6.1 -28.5 -1.1 -1.5 -2.1 -6.4 -2.5 -11.5 -0.8 -9.3 -6.7 -50.9 -8.6 -60.5 -2.7 -13.2 -10 -34.8 -15.5 -46.1 -4.6 -9.5 -5.1 -11 -3.3 -9.8 1.8 1.1 10.3 19.8 13.8 30.3 6.5 19.3 8.1 27.4 13.6 67.6 1.8 13.8 3.8 26.4 4.4 28 0.8 2.7 0.9 2.5 1 -2.5 0 -3 -0.6 -9.5 -1.4 -14.5 -0.9 -4.9 -2 -18.7 -2.5 -30.5 -1 -22.4 -2.9 -33.9 -8 -49 -3.7 -10.8 -15.4 -34 -21.4 -42.3 -5.4 -7.6 -7.2 -11.3 -4.2 -8.8 5.8 4.9 21.7 33.9 27.4 50.2 2.8 7.8 6.6 23.7 7.5 31.4 0.3 2.4 0.4 2.2 0.5 -1 0.2 -5.5 -2.4 -22.5 -4.8 -31.4 -1.2 -4.1 -4.3 -13 -7.1 -19.8 -5.5 -13.5 -6.2 -19.1 -0.9 -7.8 8.4 18.3 13.8 39.8 15.5 62 0.3 4.4 0.9 10.7 1.3 14 0.7 6 0.7 5.9 1.2 -4 1.5 -27.5 -4.4 -54.7 -16.7 -77 -7.6 -13.8 -16 -20.5 -26.2 -21.1 -2.9 -0.2 -5.4 -0.4 -5.5 -0.6 -3.4 -7.9 -7.3 -13.5 -13.6 -19.9 -4.1 -4.1 -8.6 -8.2 -10 -9.1 -1.4 -0.9 -2.2 -1.9 -1.8 -2.3 2.1 -2.2 18.7 13.7 23.8 22.8 2.9 5.2 3.4 5.6 5.8 4.9 6 -1.6 12.6 -0.7 20 2.7 7 3.3 10.1 5.6 9 6.7 -0.3 0.3 -2.8 -0.9 -5.4 -2.6 -5.4 -3.4 -13.1 -6 -17.8 -6 -3.8 0 -2.4 1.3 3.3 2.9 13.4 3.8 28.6 30.8 35.2 62.5 2.7 12.8 2.9 33.4 0.6 56.5 -0.9 9.1 -1.7 21.6 -1.7 27.8 0 12.7 3.7 43.5 7.7 64.6 5.9 31 2.1 65.1 -9.4 84.5 -4.7 7.9 -13.4 16.9 -19.9 20.4 -9.6 5.2 -21.2 6 -13 0.9 3.5 -2.2 10 -9.3 14.7 -16.1 2.2 -3.3 2 -3.2 -3.6 1.6 -7.8 6.6 -21.3 15.9 -22.1 15.2 -0.3 -0.4 1.9 -3.6 4.9 -7.2 2.9 -3.6 6.6 -9 8.2 -11.9 l2.8 -5.2 -2.9 2.6 c-4.5 4.1 -15.3 10.8 -19.6 12.1 l-3.8 1.1 18.8 19.1 c35.1 35.7 47.4 56.3 52.7 88.6 1.7 9.9 2 23 0.5 23 -0.5 0 -1 -1.2 -1 -2.7 0 -2.6 -6.1 -14.6 -8 -15.8 -0.6 -0.3 -1 -1.3 -1 -2.2 0 -2.4 2.6 0.1 5.8 5.6 2.3 3.9 2.7 4.3 3 2.4 0.4 -2.4 -4.5 -10.6 -9.8 -16.6 -2.3 -2.7 -2.8 -3.7 -1.6 -3.7 0.8 0 3.2 2.2 5.3 5 2 2.7 3.9 4.8 4.1 4.5 0.2 -0.2 0.1 -2.1 -0.3 -4.2 -0.5 -3 -2.3 -5.4 -8.7 -11.5 -4.4 -4.3 -7.4 -7.8 -6.7 -7.8 0.7 0 2.5 1.2 4.1 2.7 1.5 1.4 3 2.4 3.4 2.1 1.2 -1.2 -15.2 -16.3 -21.1 -19.5 -10.9 -5.7 -25.9 -6.8 -37.9 -2.7 -18.9 6.5 -46.9 34.1 -58.7 58 -3.9 7.8 -6.9 11.3 -5.4 6.2z m128.5 -39.3 c0 -0.3 -0.2 -0.5 -0.5 -0.5 -0.3 0 -0.5 0.2 -0.5 0.5 0 0.3 0.2 0.5 0.5 0.5 0.3 0 0.5 -0.2 0.5 -0.5z m-171.2 -32.5 c24.7 -7 63.5 -27.4 82.5 -43.6 4 -3.3 8.7 -9.1 8.7 -10.7 0 -0.4 -2 -0.5 -4.5 -0.1 -5.4 0.8 -11.5 -0.2 -11.5 -1.9 0 -0.7 3.2 -3.2 7.1 -5.7 6.1 -3.8 18.9 -16.4 18.9 -18.4 0 -0.4 -1.5 0.4 -3.3 1.8 -5.7 4.4 -15.9 8.5 -23.6 9.6 -11.5 1.6 -14.4 -0.2 -6.6 -4.1 2.4 -1.2 5.6 -3.4 7 -4.9 l2.6 -2.7 -5.6 0.9 c-10.1 1.8 -11.1 -0.4 -2.7 -6 3.1 -2.2 8.5 -6.6 12 -9.8 l6.3 -5.9 1.5 -11 c0.7 -6 1.8 -12.4 2.3 -14.1 0.8 -2.8 0.5 -3.3 -2.4 -5.7 l-3.2 -2.6 -1.2 5.3 c-2.2 10.1 -10.5 24.6 -18.9 33.2 -7 7.3 -22.7 16.7 -37 22.3 -2.9 1.2 -6.8 3.5 -8.5 5.2 -9.4 8.9 -36.9 28 -38.4 26.5 -0.4 -0.3 -0.4 -0.7 -0.2 -0.9 0.2 -0.1 4.5 -2.9 9.4 -6.1 10.4 -6.8 25.8 -18.6 25.2 -19.3 -1 -0.9 -7.7 2.7 -21.6 11.6 -7.9 5 -14.5 9.1 -14.7 9.1 -0.2 0 -0.4 -0.4 -0.4 -0.9 0 -0.5 4.6 -3.9 10.3 -7.5 5.6 -3.6 9.8 -6.6 9.4 -6.6 -0.4 0 -5.5 2.7 -11.2 6 -5.7 3.3 -10.7 6 -11.1 6 -0.3 0 -0.3 -0.8 0.1 -1.7 0.5 -1.5 0.4 -1.6 -0.6 -0.5 -1.5 1.4 -2.9 1.6 -2.9 0.3 0 -0.5 1.5 -1.9 3.3 -3 l3.2 -2.1 -4.5 0.6 c-2.5 0.4 -4.6 0.8 -4.8 0.9 -0.2 0.2 0.6 3 1.8 6.4 5.1 15.2 8.9 39.1 6.1 39.1 -0.6 0 -1.1 -1 -1.1 -2.2 -0.1 -1.9 -0.5 -1.5 -2.6 1.9 -1.4 2.4 -3 4 -3.5 3.7 -0.9 -0.5 3.7 -8.6 5.2 -9.2 0.5 -0.2 0.9 -0.8 0.9 -1.3 0 -1.9 -1.6 -0.7 -4.3 3.1 -1.6 2.2 -3.3 3.8 -3.8 3.5 -0.5 -0.4 0.9 -3 3.1 -5.9 2.2 -2.9 4 -6.1 4 -7.1 0 -2.8 -5.5 2.7 -8.1 8.3 -2.6 5.3 -2.3 13.3 0.8 16.3 4 4 16.7 4 31.1 -0.1z m-12.3 -59.8 c-0.4 -0.4 -9.5 4.8 -9.5 5.5 0 0.2 2.2 -0.8 4.9 -2.4 2.8 -1.5 4.8 -2.9 4.6 -3.1z m-92 -7.4 c-8.9 -14.4 -14.5 -33.6 -14.5 -49.7 0 -5 -0.8 -9.9 -2.1 -14.1 -1.2 -3.6 -2.4 -10.5 -2.8 -15.5 l-0.6 -9 -1.4 8 c-0.7 4.4 -1.5 14.8 -1.8 23 -0.8 23.3 2.3 36.1 11.9 48.9 4.2 5.6 11.7 12.6 13.5 12.6 0.2 0 -0.8 -1.9 -2.2 -4.2z m10.3 -7.5 c-1 -3.2 -2.2 -8.9 -2.5 -12.8 -0.6 -6.8 -0.7 -7 -7.5 -14.9 -3.9 -4.4 -8.2 -10.1 -9.6 -12.6 l-2.7 -4.5 -0.3 4.8 c-0.7 11.6 6.5 28.5 16.8 38.9 3.6 3.8 6.8 6.8 7.2 6.8 0.3 0 -0.3 -2.6 -1.4 -5.7z m187.7 -44.1 c1.8 -8.9 1.9 -11 0.4 -9.5 -0.5 0.5 -1.7 5 -2.4 9.9 -2.6 15.8 -1.1 15.5 2 -0.4z m2.9 6.1 c1.1 -2.3 4.6 -14.2 4.6 -15.9 0 -0.2 -0.8 -0.4 -1.8 -0.4 -1.5 0 -2 1.4 -3 7.3 -0.7 3.9 -1.5 8.2 -1.8 9.5 -0.9 3.1 0.3 2.8 2 -0.5z m17.6 -73.8 c0 -0.3 -0.2 -0.5 -0.5 -0.5 -0.3 0 -0.5 0.2 -0.5 0.5 0 0.3 0.2 0.5 0.5 0.5 0.3 0 0.5 -0.2 0.5 -0.5z m-203.6 -8.1 c1.4 -0.5 1.2 -1.1 -0.9 -3.6 -1.4 -1.6 -2.8 -4 -3.1 -5.4 -0.8 -3.2 -1.6 -3.1 -13.2 1.1 -1.6 0.6 1.7 5.3 5.1 7.2 2.3 1.3 9.5 1.7 12.1 0.7z m8.6 -5.9 c0 -0.3 -0.2 -0.5 -0.5 -0.5 -0.3 0 -0.5 0.2 -0.5 0.5 0 0.3 0.2 0.5 0.5 0.5 0.3 0 0.5 -0.2 0.5 -0.5z m185 -12.5 c1.1 -0.7 0.6 -1 -2.2 -1 -4.5 0 -14.7 -3.6 -21.4 -7.5 -2.7 -1.6 -7.7 -5.6 -11.1 -9 -4.7 -4.7 -5.8 -5.5 -4.6 -3.2 3.6 7.1 15.4 17.4 23.1 20.2 4.3 1.6 14 1.9 16.2 0.5z m10 -1.5 c0 -0.3 -0.2 -0.5 -0.5 -0.5 -0.3 0 -0.5 0.2 -0.5 0.5 0 0.3 0.2 0.5 0.5 0.5 0.3 0 0.5 -0.2 0.5 -0.5z m-1.6 -2.8 c1.6 -1.2 0.2 -1.8 -11.3 -5.6 -15.7 -5.2 -33 -14.5 -30.9 -16.7 0.4 -0.3 2.2 0.5 4 1.9 4.6 3.4 25.4 13.6 22.3 10.9 -1.7 -1.5 -30.7 -19.7 -36.7 -23.2 -3.2 -1.7 -5.8 -2.9 -5.8 -2.5 0 1.3 16 20.4 20 23.8 4.7 4 14.5 9.4 20.4 11.3 5.5 1.7 15.7 1.7 18 0.1z m13.6 -11.2 c0 -0.3 -0.2 -0.5 -0.5 -0.5 -0.3 0 -0.5 0.2 -0.5 0.5 0 0.3 0.2 0.5 0.5 0.5 0.3 0 0.5 -0.2 0.5 -0.5z m-32 -3 c0 -0.3 -0.2 -0.5 -0.5 -0.5 -0.3 0 -0.5 0.2 -0.5 0.5 0 0.3 0.2 0.5 0.5 0.5 0.3 0 0.5 -0.2 0.5 -0.5z m64.2 -35 l-0.9 -12 -0.2 10.5 c0 5.8 0.2 14.3 0.7 19 l0.7 8.5 0.3 -7 c0.1 -3.8 -0.2 -12.4 -0.6 -19z m-37.2 24 c0 -0.3 -0.2 -0.5 -0.5 -0.5 -0.3 0 -0.5 0.2 -0.5 0.5 0 0.3 0.2 0.5 0.5 0.5 0.3 0 0.5 -0.2 0.5 -0.5z"/>
  <path d="M612.7 437.3 c-1 -0.9 1 -2.1 20.5 -12.2 9.7 -5 17.9 -8.7 18.3 -8.2 0.3 0.5 -6.8 4.6 -15.7 9.1 -9 4.6 -17.7 9.1 -19.4 10.1 -1.7 1 -3.4 1.6 -3.7 1.2z"/>
  <path d="M611.5 434.1 c-0.3 -0.6 5 -4.2 11.7 -8.2 6.8 -3.9 15.8 -9.2 20.2 -11.8 4.3 -2.5 10.5 -7 13.7 -9.9 6.6 -6 9 -5.6 2.6 0.5 -5.5 5.2 -10.5 8.5 -27.8 18.4 -7.9 4.5 -15.6 9 -17.1 10 -1.5 1.1 -2.9 1.5 -3.3 1z"/>
  <path d="M625.2 420.9 c0.2 -0.7 4.7 -3.9 9.9 -7.2 5.2 -3.3 12.5 -8.4 16.3 -11.3 7.5 -5.9 10.6 -6.4 4.1 -0.7 -3.9 3.4 -23.5 16.7 -28.4 19.3 -1.9 1 -2.2 0.9 -1.9 -0.1z"/>
  <path d="M801.4 540.9 c-0.6 -0.8 -2.3 -3.6 -3.9 -6.4 -1.5 -2.7 -4.3 -6.9 -6.1 -9.2 -4.1 -5 -4.5 -8.1 -0.6 -3.8 3.9 4.3 12.5 18.2 12 19.6 -0.3 0.8 -0.7 0.7 -1.4 -0.2z"/>
  <path d="M629 540.6 c0 -2.8 18 -27.6 20 -27.6 1.6 0 1.1 1.6 -1.1 3.6 -2.7 2.4 -10.9 13.7 -14.4 19.7 -2.2 3.9 -4.5 6.1 -4.5 4.3z"/>
  <path d="M666 539.2 c0 -1.4 5 -13.2 8.5 -20.2 1.8 -3.6 6 -10.3 9.4 -15 6.5 -9.1 24.6 -27.9 25.7 -26.7 0.4 0.4 -2.6 4 -6.7 8 -14.6 14 -25.2 29.4 -32 46.5 -1.8 4.5 -3.7 8.2 -4.1 8.2 -0.4 0 -0.8 -0.4 -0.8 -0.8z"/>
  <path d="M792.1 536.3 c-1.7 -2 -2.8 -3.9 -2.6 -4.2 0.6 -0.6 7.5 6 7.5 7.1 0 1.8 -2 0.6 -4.9 -2.9z"/>
  <path d="M657.5 535.8 c1.4 -6.8 5.6 -18.1 9.9 -26.6 7.3 -14.5 21.4 -34.7 23.1 -33 0.4 0.4 -0.6 2.3 -2.3 4.3 -9.8 11.1 -22.3 34 -26.8 49.3 -1.5 5 -3.2 9.2 -3.7 9.2 -0.5 0 -0.6 -1.5 -0.2 -3.2z"/>
  <path d="M684 538.1 c0 -2.4 38.4 -40 39.7 -38.8 0.4 0.5 -38.4 39.6 -39.4 39.7 -0.2 0 -0.3 -0.4 -0.3 -0.9z"/>
  <path d="M642 537.1 c0 -1.5 18.1 -28.1 19.2 -28.1 1.3 0 1.4 -0.1 -8.7 15.2 -8.3 12.6 -10.5 15.3 -10.5 12.9z"/>
  <path d="M693.5 537.1 c-1.3 -2.2 16.4 -18.5 18.2 -16.7 0.4 0.3 0.4 0.7 0.2 0.9 -6.3 4.4 -12.3 9.6 -14.4 12.7 -3 4.4 -3.1 4.4 -4 3.1z"/>
  <path d="M909.6 528.9 c-0.3 -1.3 -0.8 -4.6 -1.1 -7.3 -0.4 -2.7 -1.2 -5.7 -1.8 -6.7 -0.8 -1.3 -0.8 -2.4 0.3 -4.4 1.2 -2.2 1.2 -4.2 -0.2 -14.3 -0.9 -6.4 -1.4 -11.9 -1.2 -12.1 1.3 -1.3 2.7 2.8 3.9 11.4 0.8 5.4 1.8 10.1 2.2 10.5 0.4 0.4 2.4 1.3 4.4 1.9 6.1 1.9 9.9 8 9.9 15.7 0 4.2 -1.8 5.4 -2.5 1.7 -2.3 -11.1 -3.6 -13.3 -8.1 -14.7 -3.6 -1.1 -4.7 1.5 -4.2 10.4 0.5 7.9 -0.5 12.9 -1.6 7.9z"/>
  <path d="M867.4 524.5 c-0.8 -2 0.5 -12.3 1.6 -13 1.3 -0.8 1.9 3.2 1.3 9.1 -0.6 5.3 -1.8 6.9 -2.9 3.9z"/>
  <path d="M943.8 525.4 c-0.5 -0.4 -0.8 -2.8 -0.8 -5.3 0 -7.8 -0.7 -9.1 -4.9 -9.1 -3.7 0 -7 -1.4 -5.5 -2.3 0.5 -0.2 2.8 -0.8 5.2 -1.2 l4.2 -0.7 0 -6 c0 -5.3 0.2 -5.9 1.5 -4.8 0.9 0.7 1.5 2.9 1.5 5.2 0 3.9 0.2 4.1 5.3 5.2 3.3 0.8 3.6 2.6 0.5 2.6 -4.2 0 -5 1.4 -5.7 9.5 -0.3 4.2 -0.9 7.3 -1.3 6.9z"/>
  <path d="M846.7 522.8 c-1.1 -4.6 -1.9 -15.7 -1.2 -16.8 0.5 -0.8 1.1 -0.8 2.1 0.1 1.1 0.9 2.3 0.8 5.3 -0.5 4.1 -1.9 8.2 -1.8 8.9 0.2 0.2 0.8 -0.7 1.2 -2.9 1.2 -1.9 0 -4.6 1 -6.6 2.6 -3.1 2.4 -3.3 2.8 -3.3 9 0 6.3 -1.3 8.6 -2.3 4.2z"/>
  <path d="M958.1 517.6 c-1.6 -1.9 0.2 -5.6 2.8 -5.6 2.8 0 4.7 2.8 3.4 4.8 -1.3 2.2 -4.7 2.7 -6.2 0.8z"/>
  <path d="M960.7 503.9 c-1.8 -10 -1.9 -15.5 -0.3 -19.2 1.8 -4.5 4 -5.5 6.7 -3.2 1.5 1.4 1.8 2.6 1.3 5.4 -0.9 5.9 -4.2 16.5 -5.7 18.5 -1.3 1.8 -1.5 1.7 -2 -1.5z"/>
  <path d="M869.6 499.3 c-1.1 -1.1 -0.6 -2.3 0.9 -2.3 0.8 0 1.5 0.4 1.5 0.9 0 1.3 -1.6 2.2 -2.4 1.4z"/>
  <path d="M452.3 498.3 c-12 -0.2 -19.3 -0.7 -19.3 -1.3 0 -0.7 7.4 -0.9 20.8 -0.8 13.1 0.2 20.6 0.7 20.5 1.3 -0.2 1.2 1.6 1.1 -22 0.8z"/>
  <path d="M391.6 494.1 c2.4 -2.3 57.4 -6.5 57.4 -4.4 0 0.6 -5.7 1.3 -13.7 1.7 -7.6 0.3 -19.6 1.3 -26.8 2.1 -15.4 1.7 -18.2 1.8 -16.9 0.6z"/>
  <path d="M219.4 491.8 c-0.8 -1.2 0.9 -1.5 11.4 -2.3 7.1 -0.4 10.2 -0.3 10.2 0.4 0 0.6 -1 1.1 -2.2 1.2 -1.3 0 -6 0.4 -10.6 0.8 -4.6 0.3 -8.6 0.3 -8.8 -0.1z"/>
  <path d="M592.6 489.5 c-11.5 -4.1 -15.9 -18.2 -9.8 -31.6 2.5 -5.4 10.5 -16.3 13.5 -18.4 4.3 -3 3.7 -1.4 -1.6 4.5 -10 11.1 -14.7 24.3 -11.8 33.2 2.2 6.8 10.9 12.4 17.1 11.1 3.2 -0.6 4.2 1 1.4 2.1 -2.3 0.9 -4.4 0.7 -8.8 -0.9z"/>
  <path d="M368.6 489.1 c-0.7 -1.1 1.6 -1.5 19.4 -3.6 20.4 -2.4 40.4 -4.3 41.3 -3.8 2.1 1.2 -1.1 2.1 -9.5 2.7 -10 0.7 -42.3 4.2 -47.5 5.1 -1.7 0.3 -3.4 0.1 -3.7 -0.4z"/>
  <path d="M621.4 487.9 c-0.3 -0.5 0.1 -1.1 0.8 -1.3 0.7 -0.1 4.4 -1 8.1 -1.9 10.5 -2.6 19 -6.3 33.7 -15 21.9 -12.9 36.9 -20.4 46.4 -23.1 9.1 -2.7 15.6 -3.3 15.6 -1.6 0 0.6 -1.5 1 -3.3 1 -9.2 0 -24.4 6.2 -45.7 18.5 -7.4 4.3 -16.8 9.8 -20.9 12.1 -11.8 6.8 -33.1 13.8 -34.7 11.3z"/>
  <path d="M203.5 485.2 c0.6 -0.6 4.6 -1.3 9 -1.7 5.6 -0.5 7.7 -0.4 7 0.3 -0.5 0.6 -4.6 1.4 -9 1.8 -5.5 0.4 -7.7 0.3 -7 -0.4z"/>
  <path d="M185 484.1 c0 -0.5 2.4 -1.6 5.3 -2.5 7.5 -2.1 8.2 -2.2 8.4 -1.1 0.2 0.6 -1.6 1.5 -4 2.1 -2.3 0.6 -5.4 1.4 -6.9 1.7 -1.6 0.4 -2.8 0.3 -2.8 -0.2z"/>
  <path d="M334 483.2 c0 -0.6 1.2 -1.3 2.8 -1.6 4.1 -0.9 44.8 -4.6 50.4 -4.6 8.5 0 4.3 1.7 -5.9 2.4 -13.7 0.9 -41.2 3.6 -44.5 4.2 -1.6 0.3 -2.8 0.1 -2.8 -0.4z"/>
  <path d="M309.6 479.1 c1.3 -1.2 28.4 -2.5 28.4 -1.3 0 0.5 -2.8 1.2 -6.1 1.6 -9.1 0.9 -23.5 0.8 -22.3 -0.3z"/>
  <path d="M170 478.1 c0 -0.6 1.5 -1.3 3.3 -1.6 1.7 -0.3 5.3 -0.9 8 -1.4 2.6 -0.5 5 -0.5 5.2 0 0.7 1 -0.7 1.4 -12.7 3.4 -2.3 0.3 -3.8 0.2 -3.8 -0.4z"/>
  <path d="M146.6 475.1 c0.9 -1 26.9 -7.1 29.9 -7.1 0.8 0 1.5 0.3 1.5 0.8 0 0.6 -29 7.3 -31.4 7.2 -0.6 0 -0.6 -0.3 0 -0.9z"/>
  <path d="M126 470.3 c0 -0.6 3 -1.3 6.8 -1.6 9.5 -1 12.8 -0.9 11.7 0.2 -1.4 1.4 -18.5 2.6 -18.5 1.4z"/>
  <path d="M500.5 470 c0.3 -0.5 4 -1 8.1 -1 4.3 0 7.4 0.4 7.4 1 0 0.6 -3.4 1 -8.1 1 -5.1 0 -7.8 -0.4 -7.4 -1z"/>
  <path d="M709 469.1 c0 -4.6 32.8 -18.7 34.2 -14.7 0.2 0.4 -2.9 1.6 -6.9 2.6 -9.3 2.4 -16.7 5.6 -22 9.7 -4.6 3.5 -5.3 3.8 -5.3 2.4z"/>
  <path d="M779.6 468.8 c-1.1 -0.6 -5.1 -1.9 -8.9 -2.9 -3.8 -1 -7.4 -2.2 -8 -2.8 -1.6 -1.6 0.2 -1.4 9 1 8.7 2.4 11.3 3.5 11.3 4.9 0 1.3 -1 1.2 -3.4 -0.2z"/>
  <path d="M483 466.2 c0 -0.7 14.9 -3.7 16.5 -3.3 3.5 0.8 -7.4 3.9 -14.2 4.1 -1.3 0 -2.3 -0.4 -2.3 -0.8z"/>
  <path d="M912.6 465.3 c0.4 -1 3.1 -7.5 6 -14.4 3 -6.9 5.4 -13.1 5.4 -13.6 0 -0.6 -2 -4 -4.5 -7.6 -2.5 -3.7 -4.5 -7.1 -4.5 -7.7 0 -2.2 1.9 -0.8 5.6 4 2.2 2.9 4.5 4.9 5.4 4.8 0.8 -0.2 2.6 -3.1 4 -6.5 2.9 -7.2 4.6 -9.2 3.7 -4.5 -1.2 6.3 -18.5 46.7 -20.1 47 -1.2 0.3 -1.4 -0.2 -1 -1.5z"/>
  <path d="M466 464.1 c0 -0.5 5 -2.1 11 -3.5 12.6 -3 12 -2.9 12 -1.7 0 0.5 -4.8 2.1 -10.7 3.5 -12.1 2.9 -12.3 3 -12.3 1.7z"/>
  <path d="M265.5 460.4 c-23 -3.3 -36.7 -6.6 -51.8 -12.3 -19.6 -7.4 -42.2 -19.9 -59 -32.9 -5.6 -4.2 -6.1 -4.4 -10.8 -3.9 -2.7 0.3 -4.9 0.2 -4.9 -0.2 0 -1.1 2.5 -2.1 5.3 -2.1 2.2 -0.1 2.2 -0.1 0.3 -1.5 -1.2 -0.9 -4.2 -1.5 -7.8 -1.5 -3.2 0 -5.8 -0.4 -5.8 -1 0 -0.5 2.1 -1 4.7 -1 2.5 0 4.3 -0.3 3.9 -0.7 -0.4 -0.4 -4.5 -0.6 -9.1 -0.5 -5 0.1 -8.5 -0.2 -8.5 -0.8 0 -1.4 4.3 -2.3 9.5 -1.8 l4.6 0.3 -2.3 -1.9 c-1.9 -1.5 -3.5 -1.8 -9.6 -1.4 -11.2 0.8 -10.6 -1.5 0.8 -2.6 2.5 -0.2 -0.6 -0.3 -6.7 -0.1 -6.2 0.1 -11.3 -0.1 -11.3 -0.5 0 -1.3 4.1 -2 11.6 -2 l7.2 0 -10.8 -10.7 c-22.6 -22.7 -44.4 -49.9 -58.5 -73 -5 -8.4 -7 -8.4 -7.9 -0.2 -1 10.4 -0.8 12.7 1.4 13.9 2.8 1.5 2.6 5.8 -0.2 6.9 -1.3 0.5 -5.5 1.2 -9.3 1.6 -5.5 0.5 -8 0.3 -11.3 -1 -4 -1.6 -4.3 -1.6 -7.5 0.4 -1.9 1.2 -4 2.1 -4.7 2.1 -2.2 0 0.6 -2.5 5 -4.5 2.2 -1 4 -2.3 4 -2.8 0 -0.6 0.6 -1.8 1.4 -2.6 0.9 -1 1.5 -4.6 1.8 -10.1 l0.3 -8.5 -5.2 -0.3 c-5.8 -0.3 -8.3 -2.5 -8.3 -7.2 0 -4.8 2.6 -7 8.1 -7 5.4 0 6.4 -1.6 3.2 -5.2 -1.5 -1.7 -1.5 -2 0.4 -4.1 1.2 -1.2 2.4 -3.6 2.7 -5.3 0.4 -1.7 1.8 -4.2 3.1 -5.4 1.3 -1.2 2.1 -2.8 1.8 -3.6 -0.7 -1.9 1.5 -4.4 3.9 -4.4 1.8 0 2.7 1.2 3.2 4.4 0.1 0.9 1.2 2.6 2.3 3.8 1.2 1.3 2.5 3.6 2.9 5.3 0.4 1.6 1.8 3.8 3.1 4.8 2.8 2.3 2.9 4.3 0.3 5.9 -2.6 1.6 -2.6 3.5 0 4.3 1.1 0.4 5.4 5.7 9.4 12 6.9 10.5 7.6 11.2 10.1 10.7 2 -0.3 2.6 -0.2 2 0.7 -0.4 0.7 -1.3 1 -2.1 0.7 -0.8 -0.3 -1.4 -0.2 -1.4 0.2 0 2.1 27.3 33.9 46 53.5 29.6 31.2 71.5 59.8 104 71.2 26.5 9.2 43.8 11.1 75.5 8.1 23.4 -2.2 50.2 -9.1 64.5 -16.7 12.1 -6.4 23 -17.6 23 -23.6 0 -6.8 -9.2 -15.5 -25.1 -23.7 -14.3 -7.4 -17.2 -9.5 -19.8 -14.9 -6.3 -13 2.7 -24.7 24.6 -31.7 10.3 -3.3 35.5 -7.3 42.9 -6.8 6.9 0.5 3.8 1.4 -9.6 2.7 -31.5 3.2 -52 11.2 -56.4 22.1 -2.1 5.3 -2 8.2 0.4 13 2.5 5 5.9 7.4 19.8 14.5 16.8 8.5 25.2 17 25.2 25.4 0 6.5 -13.2 19.5 -26.4 25.9 -7.7 3.8 -28.5 10.4 -40.8 13.1 -11.3 2.4 -31.7 4.2 -48.8 4.3 -27.7 0.1 -59 -10.3 -91 -30.2 -24.9 -15.5 -53.2 -38.9 -68.9 -57.1 -3.6 -4.1 -7 -7.8 -7.5 -8.4 -8.9 -8.4 -30.3 -34.5 -38.7 -47.2 -6.1 -9.3 -7.9 -11.1 -7.9 -7.8 0 1.8 12.4 20.8 21.5 33 26.6 35.7 62.3 70 95.5 91.7 27.5 18 57.3 29 90.7 33.2 20.8 2.7 40.7 1.5 63.2 -3.9 11.8 -2.9 14.6 -4.5 22.3 -13 1.5 -1.6 3 -2.6 3.4 -2.2 0.4 0.4 -1.4 3 -4.2 5.8 -4.2 4.4 -4.5 4.9 -1.9 3.6 1.7 -0.9 5.4 -4 8.4 -7.1 3 -3 5.9 -5.3 6.4 -4.9 0.5 0.3 -1 2.5 -3.4 4.9 -2.4 2.4 -3.9 4.4 -3.4 4.4 2.4 0 7.3 -4.2 11 -9.3 2.2 -3.1 4.6 -5.7 5.4 -5.7 0.9 0 1 0.4 0.4 1.3 -0.5 0.6 -2.4 3.1 -4.2 5.5 l-3.3 4.3 2.7 -1.3 c1.5 -0.7 5 -4.5 7.7 -8.6 5.6 -8.2 7.9 -9.1 2.9 -1.1 -1.7 2.8 -3 5.3 -2.9 5.5 1 0.9 7.1 -5.4 9.8 -10.1 1.7 -3 3.6 -5.5 4.1 -5.5 1.3 0 1.2 0.4 -1.2 4.7 -2.1 3.7 -2 3.7 2.8 -1.3 8.9 -9.3 11.6 -18.9 7 -25.1 -5.8 -7.8 -20.2 -18.2 -37.3 -26.6 -2.8 -1.4 -6.5 -4.2 -8.2 -6.2 -5.2 -5.9 -4.1 -9.7 4 -14.3 9.2 -5.2 20.7 -8.3 39.2 -10.8 12.8 -1.6 17.4 -1.8 16.1 -0.5 -0.6 0.5 -5.5 1.4 -11 2.1 -19.4 2.2 -32.2 5.3 -41.9 10.2 -5.5 2.7 -7.6 4.7 -7.6 7.1 0 4.2 4 7.5 18 14.7 14.7 7.6 25 15.3 30 22.2 6 8.3 3 19 -8.8 30.6 -8.5 8.3 -19.5 14.7 -36.2 20.7 -6.9 2.5 -13.2 4.9 -14 5.2 -0.8 0.3 -2.4 0.8 -3.4 1 -1.1 0.2 -4.5 1 -7.5 1.8 -12.7 3.2 -24.4 4.6 -40.6 5 -9.3 0.2 -18.3 0.1 -20 -0.1z m-217.7 -133 c2.5 -0.5 3 -2.9 0.6 -3.8 -0.9 -0.3 -5.8 -0.6 -11.1 -0.6 -9.2 0 -9.4 0.1 -9.1 2.2 0.2 1.6 1.2 2.5 3.3 2.9 2.9 0.6 11.7 0.2 16.3 -0.7z m-1.4 -15.6 c0.3 -5 0.6 -12.6 0.6 -16.8 l0 -7.7 -4.6 -0.7 c-8.8 -1.2 -11.2 -0.8 -11.6 1.7 -0.3 1.9 -1 2.3 -5.8 2.7 -4.8 0.4 -5.6 0.8 -6.4 3.2 -0.6 1.8 -0.6 3.5 0.2 5 1 2.1 1.1 2 1.1 -1.4 0.1 -4.8 2.1 -5 2.1 -0.3 0 4.3 1.8 4.6 2.7 0.5 0.7 -3.7 2.3 -4 2.3 -0.4 0 1.7 0.6 2.8 2 3.1 2.8 0.7 3.3 3.4 2.5 12.4 l-0.7 7.9 7.4 0 7.5 0 0.7 -9.2z m6.2 -17.1 c-0.3 -1.4 -1.3 -2.7 -2.1 -3.1 -1.2 -0.4 -1.5 0.3 -1.5 3.3 0 4.5 0.9 5.7 2.8 3.7 0.9 -0.9 1.2 -2.4 0.8 -3.9z m-2.3 -11.4 c0.4 -0.3 0.2 -1.2 -0.4 -2 -0.8 -0.9 -3.8 -1.3 -10.3 -1.3 -9.8 0 -13.2 1 -10 2.9 2 1.1 19.6 1.5 20.7 0.4z m-4.4 -8.2 c-2.6 -7.3 -8.8 -9 -12.2 -3.2 -3.2 5.4 -2.6 6.1 5.7 6.1 l7.5 0 -1 -2.9z m-5.9 -10.6 c0 -0.8 -0.7 -1.5 -1.5 -1.5 -1.6 0 -2 1.2 -0.8 2.3 1.1 1.2 2.3 0.8 2.3 -0.8z"/>
  <path d="M36.6 300.4 c-2.1 -2.1 -2 -5.7 0.2 -7.7 3.7 -3.3 7.9 -1.8 8.8 3.1 0.5 2.8 0.3 3.8 -1.1 4.9 -2.5 1.8 -6 1.7 -7.9 -0.3z m7.2 -2.9 c0.4 -3.2 -1.3 -4.9 -4.2 -4.1 -1.9 0.5 -2.6 1.3 -2.6 3 0 3 0.9 3.8 4 3.4 1.6 -0.2 2.6 -1 2.8 -2.3z"/>
  <path d="M39.6 297.1 c-0.4 -0.5 -0.2 -1.2 0.3 -1.5 0.5 -0.4 1.2 -0.2 1.5 0.3 0.4 0.5 0.2 1.2 -0.3 1.5 -0.5 0.4 -1.2 0.2 -1.5 -0.3z"/>
  <path d="M447.2 458 c0.2 -0.7 3.6 -2.2 7.6 -3.5 8.1 -2.6 9.6 -1.2 1.6 1.5 -9.3 3.2 -9.7 3.3 -9.2 2z"/>
  <path d="M762.3 457.3 c-5.7 -0.2 -10.3 -0.8 -10.3 -1.3 0 -1.1 17.8 -1.4 20.4 -0.4 1.6 0.6 2.3 2.6 0.9 2.2 -0.5 -0.1 -5.4 -0.4 -11 -0.5z"/>
  <path d="M430 454.2 c0 -0.9 17.2 -5.2 20.5 -5.2 4 0 -0.3 1.8 -9.3 3.9 -10.4 2.3 -11.2 2.4 -11.2 1.3z"/>
  <path d="M414.2 452.8 c0.4 -1.2 12.7 -5.2 13.6 -4.4 0.9 1 -0.3 1.6 -7.2 3.6 -4.1 1.1 -6.6 1.5 -6.4 0.8z"/>
  <path d="M395.6 449.1 c0.8 -0.8 14.3 -4.1 16.7 -4.1 2.7 0 -1.3 2 -6.9 3.4 -6.9 1.8 -11.3 2.1 -9.8 0.7z"/>
  <path d="M742.6 445.1 c1.1 -1.1 14.4 -3.4 15.2 -2.6 0.9 0.9 -0.3 1.5 -5.8 2.5 -6.6 1.2 -10.7 1.3 -9.4 0.1z"/>
  <path d="M128.6 443.1 c1.3 -1.2 25.4 -2.5 25.4 -1.3 0 1 -10.3 2.2 -19.9 2.2 -3.9 0 -6.1 -0.4 -5.5 -0.9z"/>
  <path d="M848.4 439 c-4.2 -1.7 -4 -3.3 0.3 -2.5 3.1 0.5 4.4 0.2 5.8 -1.1 1.7 -1.7 1.7 -1.9 -0.5 -3.4 -4.1 -2.8 -7 -5.9 -7 -7.5 0 -3 4.8 -6.7 8.2 -6.3 4.6 0.4 4.7 2.6 0.2 3 -4.6 0.4 -6.9 3.4 -4 5.2 4.3 2.6 7.6 5.9 7.6 7.5 0 3.8 -6.4 6.9 -10.6 5.1z"/>
  <path d="M942.4 439 c-4.2 -1.7 -4 -3.3 0.3 -2.5 3.1 0.5 4.4 0.2 5.8 -1.1 1.7 -1.7 1.7 -1.9 -0.5 -3.4 -4.1 -2.8 -7 -5.9 -7 -7.5 0 -3 4.8 -6.7 8.2 -6.3 4.6 0.4 4.7 2.6 0.2 3 -4.6 0.4 -6.9 3.4 -4 5.2 4.3 2.6 7.6 5.9 7.6 7.5 0 3.8 -6.4 6.9 -10.6 5.1z"/>
  <path d="M96.6 438.1 c1.1 -1.2 26.3 -5.5 27.2 -4.7 1 1.1 -0.3 1.5 -12.4 3.5 -13.6 2.4 -16.3 2.6 -14.8 1.2z"/>
  <path d="M876.8 438.4 c-0.5 -0.4 -0.8 -2.8 -0.8 -5.3 0 -7.8 -0.7 -9.1 -4.9 -9.1 -3.7 0 -7 -1.4 -5.5 -2.3 0.5 -0.2 2.8 -0.8 5.2 -1.2 l4.2 -0.7 0 -6 c0 -5.3 0.2 -5.9 1.5 -4.8 0.9 0.7 1.5 2.9 1.5 5.2 0 3.9 0.2 4.1 5.3 5.2 3.3 0.8 3.6 2.6 0.5 2.6 -4.2 0 -5 1.4 -5.7 9.5 -0.3 4.2 -0.9 7.3 -1.3 6.9z"/>
  <path d="M77 435 c0 -0.5 0.2 -1 0.5 -1 0.3 0 7.5 -1.6 15.9 -3.5 16.6 -3.8 17.6 -3.9 17.6 -2.7 0 0.7 -30.6 8.2 -33.3 8.2 -0.4 0 -0.7 -0.4 -0.7 -1z"/>
  <path d="M521 435.1 c0 -0.9 2.3 -1.4 12.8 -2.5 3.8 -0.4 6 0.9 3 1.8 -3.3 1 -15.8 1.5 -15.8 0.7z"/>
  <path d="M905.5 434 c-0.7 -2.4 -2.3 -2.5 -4.9 -0.5 -3.3 2.5 -6.4 1.9 -8.2 -1.6 -2.6 -5.2 0.7 -11.9 6 -11.9 1.6 0 2.6 -0.7 3 -2.2 0.6 -2.2 0.7 -2.2 2.1 -0.4 1.3 1.7 4.5 13.7 4.5 17 0 2.3 -1.8 2 -2.5 -0.4z m-5.3 -3.7 c2.8 -2.5 2.3 -6.1 -0.9 -6.9 -3 -0.8 -5.3 1.5 -5.3 5.1 0 3.9 3 4.7 6.2 1.8z"/>
  <path d="M54.4 433.9 c-0.5 -0.8 5.3 -2.7 24.5 -7.9 10.1 -2.7 13.6 -3.2 11.9 -1.5 -1.1 1.2 -35.9 10.1 -36.4 9.4z"/>
  <path d="M499 432.2 c0 -1.3 3.3 -1.9 14.8 -2.8 5.9 -0.4 9.2 -0.3 9.2 0.4 0 0.5 -3.7 1.3 -8.2 1.6 -4.6 0.4 -10 0.9 -12 1.2 -2.3 0.4 -3.8 0.2 -3.8 -0.4z"/>
  <path d="M45.2 431 c0.4 -1.3 21.7 -6.8 26.8 -6.9 5.2 -0.2 0 1.8 -12 4.4 -6.8 1.5 -13.1 3 -13.8 3.3 -0.9 0.3 -1.3 0 -1 -0.8z"/>
  <path d="M473 427.3 c0 -1.4 7.4 -2.3 18.1 -2.3 5.3 0 8.9 0.4 8.9 1 0 0.6 -3.1 1 -7.4 1 -4 0 -10.1 0.3 -13.5 0.6 -3.8 0.4 -6.1 0.3 -6.1 -0.3z"/>
  <path d="M437 422.1 c0 -0.6 0.6 -1.1 1.3 -1.1 0.6 0 7.1 -0.7 14.2 -1.5 14.8 -1.7 23.4 -1.9 22 -0.6 -0.6 0.4 -6.8 1.4 -14 2 -7.1 0.6 -15.4 1.4 -18.2 1.8 -3.7 0.4 -5.3 0.2 -5.3 -0.6z"/>
  <path d="M299.9 416.7 c0.7 -0.7 9.1 -1.3 23.4 -1.5 14.5 -0.3 21.9 -0.1 21.2 0.6 -0.6 0.5 -10.8 1.2 -23.3 1.5 -16.2 0.3 -22.1 0.2 -21.3 -0.6z"/>
  <path d="M142.5 415 c0.3 -0.5 2.4 -1 4.6 -1 2.1 0 3.9 0.5 3.9 1 0 0.6 -2.1 1 -4.6 1 -2.7 0 -4.3 -0.4 -3.9 -1z"/>
  <path d="M266 413.3 c0 -1.4 9.4 -2.3 58.7 -5.8 7.7 -0.5 11.2 1 4.1 1.9 -2.4 0.3 -14.9 1.2 -27.8 2.1 -12.9 0.9 -26.1 1.8 -29.2 2.2 -3.6 0.4 -5.8 0.2 -5.8 -0.4z"/>
  <path d="M240 412.1 c0 -1 12.9 -2.3 14.4 -1.4 0.6 0.4 0 1 -1.4 1.4 -3.6 1 -13 1 -13 0z"/>
  <path d="M501.2 409 c-4.6 -3.3 -11.4 -11.4 -14.3 -17.1 -1 -2.1 -4.1 -6 -6.7 -8.7 -5.5 -5.4 -8.4 -12 -10.9 -24.2 -2.5 -12.9 0.4 -39.2 7.7 -67.8 2.2 -9 5.4 -24.1 7 -33.5 1.6 -9.5 3.6 -19.2 4.4 -21.6 2 -5.5 2.1 -5.1 -1.2 -5.1 -1.5 0 -3.8 -0.7 -5 -1.6 -2.1 -1.4 -2.2 -2.2 -2.2 -15.7 0 -24.4 3 -34.3 11.6 -38.9 3.4 -1.8 4.6 -2 5.6 -1 0.9 0.9 0.8 1.2 -0.5 1.2 -3.1 0 -7.4 2.9 -9.6 6.3 -3.1 5 -2.6 5.6 1.4 1.7 5.6 -5.4 5.3 -2.5 -0.3 3.4 -6.3 6.6 -7.4 11.1 -1.3 5.2 2.2 -2.1 4.4 -3.7 5.1 -3.4 0.6 0.2 -1.4 2.7 -4.4 5.7 -3.1 2.9 -5.6 6 -5.6 6.9 0 1.1 1.2 0.4 4 -2.3 5.7 -5.5 6.3 -3.4 0.7 2.3 -2.6 2.6 -4.7 5.4 -4.7 6.2 0 0.8 2 -0.5 4.5 -3 2.4 -2.4 4.8 -4.1 5.2 -3.7 0.4 0.4 -1.7 3.2 -4.7 6.2 -5.5 5.5 -6.5 8.2 -1.7 4.4 3.7 -2.8 3.4 -1 -0.3 2.6 -2.6 2.5 -3 3.6 -3 8.1 0 5.7 0.5 6.3 5.5 7.4 l3.3 0.7 1.5 -5.6 c0.9 -3.1 2.1 -10.1 2.8 -15.6 2 -17.4 9.6 -36.5 22.1 -55.2 12.7 -19 27.9 -32.9 58.3 -53.2 18 -11.9 28.7 -17.6 42 -22 26.7 -8.9 48 -7.8 70.8 3.6 9 4.5 8.6 6 -0.5 1.8 -24.3 -11.2 -42.7 -12.1 -68.8 -3.5 -13.3 4.3 -20.6 7.8 -34 16.3 -12.4 7.8 -12.7 8.1 -3.9 4.7 8.4 -3.2 24.9 -6.9 35.3 -7.7 9 -0.8 8.2 1.2 -0.9 2.1 -33 3.4 -59.8 16.9 -83.6 42.3 -16.7 17.8 -32.5 49.2 -34.4 68.3 l-0.6 6.5 1.9 -3 c1.1 -1.6 3.7 -7.9 5.7 -14 10.1 -29.8 24.9 -48.1 51.8 -63.9 11.2 -6.6 25.2 -12.9 27.5 -12.3 1.1 0.2 0.1 1 -2.8 2.2 -8.7 3.6 -27.2 13.4 -33.8 18.1 -15.3 10.8 -29.3 27.8 -36 43.9 -4.5 10.6 -4.9 12.8 -1.6 8 11.6 -16.8 28.2 -33.4 42 -42.1 8.6 -5.3 15.7 -8.3 32.3 -13.4 6.9 -2.1 16.6 -5.5 21.5 -7.6 7.2 -3 8.5 -3.9 7.1 -4.7 -3 -1.6 -19.4 -0.3 -24.7 2.1 -2.6 1.1 -5 1.7 -5.3 1.2 -1.5 -2.4 11.9 -6 21.4 -5.9 23 0.4 17.9 4.7 -19.9 17 -18 5.8 -28.1 10.3 -36.1 16.1 -13.8 10 -27.1 24.4 -38.3 41.5 -12.9 19.6 -19.1 36.2 -23.6 62.8 -1.6 9.4 -4.9 25.1 -7.3 35 -7.1 28.7 -9.7 54.4 -6.8 68 1.7 7.6 6.1 17.4 9.1 20 1.9 1.6 2.2 1.7 1.7 0.4 -2.1 -6 -4.8 -15.8 -6.6 -24.6 -2.3 -11.3 -2.5 -13.3 -1.2 -13.3 0.5 0 1.4 3 2 6.8 5.2 30 15.4 51.2 28.6 58.8 1.2 0.6 1.5 1.3 0.8 1.7 -0.6 0.4 -2.9 -0.7 -5.1 -2.3z"/>
  <path d="M214 408.1 c0 -1.1 1.7 -1.5 15.4 -3.6 8.9 -1.5 11.9 -1.4 10.4 0 -0.3 0.3 -4.7 1.2 -9.9 2 -5.2 0.8 -10.9 1.7 -12.6 2 -1.9 0.3 -3.3 0.2 -3.3 -0.4z"/>
  <path d="M195 404.3 c0 -0.6 1.4 -1.3 3.1 -1.7 4.9 -1 13.9 -0.7 13.9 0.4 0 0.6 -2.1 1 -4.7 1 -2.7 0 -6.5 0.3 -8.5 0.6 -2.3 0.4 -3.8 0.3 -3.8 -0.3z"/>
  <path d="M180 399 c0 -0.5 1 -1.2 2.3 -1.4 17.5 -3.5 22.4 -4 20.5 -2 -0.4 0.4 -20.8 4.4 -22.5 4.4 -0.2 0 -0.3 -0.4 -0.3 -1z"/>
  <path d="M456.6 397.1 c1.3 -1.2 16.4 -2.4 16.4 -1.3 0 1.2 -5.9 2.2 -12.4 2.2 -2.9 0 -4.6 -0.4 -4 -0.9z"/>
  <path d="M442 393.2 c0 -1.1 11.7 -2.8 12.7 -1.8 1.1 1 -0.1 1.4 -6.5 2.2 -4 0.4 -6.2 0.3 -6.2 -0.4z"/>
  <path d="M98 388 c0 -0.6 2.8 -1 6.4 -1 3.6 0 6.8 0.5 7.1 1 0.4 0.6 -2 1 -6.4 1 -4.1 0 -7.1 -0.4 -7.1 -1z"/>
  <path d="M429.4 387.9 c-0.7 -1.1 2.3 -1.8 9.3 -2 6.5 -0.3 9.4 0.6 5.2 1.5 -4.5 0.9 -14 1.3 -14.5 0.5z"/>
  <path d="M291.8 383.3 c-2.1 -0.2 -3.8 -0.9 -3.8 -1.5 0 -0.8 2.4 -0.9 7.7 -0.4 4.2 0.3 8.7 0.6 10 0.6 1.2 0 2.3 0.5 2.3 1 0 1 -8.3 1.1 -16.2 0.3z"/>
  <path d="M412.5 382.2 c1.2 -1.3 23.7 -3.2 24.9 -2.1 1.3 1.1 -2 1.7 -14.4 2.4 -7.8 0.5 -11.2 0.4 -10.5 -0.3z"/>
  <path d="M75.4 381.2 c0.8 -1.3 15.1 -2.2 21.8 -1.5 10 1 5.1 2.3 -8.8 2.3 -7.4 0 -13.3 -0.4 -13 -0.8z"/>
  <path d="M265.4 381.1 c-0.2 -0.2 -0.1 -0.8 0.2 -1.2 0.7 -1.2 13.4 -1.1 13.4 0 0 0.9 -12.8 2 -13.6 1.2z"/>
  <path d="M776.7 379.4 c-0.3 -0.5 0.5 -4.9 1.6 -9.9 1.9 -7.9 2.1 -12.1 2.2 -33.5 0 -22.5 -0.3 -25.8 -2.8 -40.5 -7.5 -42.2 -20.9 -81.1 -43.4 -125.3 -7.8 -15.4 -10.2 -21.2 -6.7 -16.7 2.3 3.1 16.5 31.5 22.9 46 15.6 35.3 26.5 73.3 31.1 108.5 2.1 16.5 1.5 49.7 -1.1 61.5 -1.8 8.5 -2.9 11.3 -3.8 9.9z"/>
  <path d="M235 378.3 c0 -0.6 2.1 -1.3 4.6 -1.7 7.2 -0.9 17.4 -0.7 17.4 0.4 0 0.6 -2.2 1 -4.9 1 -2.6 0 -7.6 0.3 -11 0.6 -3.8 0.4 -6.1 0.3 -6.1 -0.3z"/>
  <path d="M42 373.6 c0.5 -0.5 8.3 -1.4 17.3 -1.9 15.9 -1 26.8 -0.4 25.1 1.3 -1.3 1.2 -43.6 1.8 -42.4 0.6z"/>
  <path d="M207 374.1 c0 -0.6 1 -1.3 2.3 -1.6 5.5 -1.2 23.2 -3.4 23.6 -2.9 1.1 1.1 -2.4 2.1 -11.7 3.3 -5.3 0.7 -10.7 1.5 -11.9 1.8 -1.3 0.3 -2.3 0 -2.3 -0.6z"/>
  <path d="M926.9 372 c-4.1 -1.2 -7.5 -3.8 -8.8 -6.6 -1.8 -4 -0.4 -4.2 3.1 -0.5 5.6 6 10.8 6.3 15.3 0.9 2 -2.3 2.5 -4.1 2.5 -8.1 0 -2.9 -0.5 -5.9 -1 -6.7 -0.8 -1.3 -1.3 -1.3 -3.9 0.3 -6.2 3.7 -12.5 0.9 -12.3 -5.4 0.1 -4 1.5 -5.5 8.3 -8.9 4.5 -2.3 5.9 -2.7 6.8 -1.7 1.6 2 4.1 12.5 4.7 19.7 0.6 7.7 -1.2 12.2 -6.5 15.7 -3.6 2.5 -4.2 2.6 -8.2 1.3z m7 -24.4 c3.4 -3.6 2.5 -7 -1.8 -7.4 -5.5 -0.6 -10.2 5.3 -6.9 8.6 2 2 6.3 1.4 8.7 -1.2z"/>
  <path d="M179 371.2 c0 -1.1 13.7 -2.8 14.7 -1.8 1.2 1.1 -0.3 1.5 -7.5 2.2 -4.8 0.5 -7.2 0.3 -7.2 -0.4z"/>
  <path d="M557.3 368.6 c-6.7 -2.2 -12.9 -6.3 -15.2 -10 -2.3 -3.7 -2.5 -4.6 -1.2 -4.6 0.5 0 1.3 0.9 1.6 2 1 3.1 9.3 8.9 15.4 10.7 8.2 2.4 17.9 0.8 28.8 -4.7 9.3 -4.7 12.1 -4.9 4.6 -0.3 -11.1 6.9 -25.3 9.8 -34 6.9z"/>
  <path d="M31.5 367.2 c2.2 -2.3 55.5 -5.6 56.8 -3.5 0.4 0.6 -8.6 1.4 -23.6 2.2 -13.3 0.7 -26.4 1.5 -29.2 1.8 -3.4 0.3 -4.7 0.2 -4 -0.5z"/>
  <path d="M141.6 366.1 c-0.4 -0.6 0.3 -1.3 1.6 -1.6 2.8 -0.6 19.2 -2.2 30.8 -3 4.7 -0.3 11.1 -0.8 14.3 -1.1 3.6 -0.4 5.7 -0.2 5.7 0.4 0 1.3 -2.6 1.6 -28.8 3.7 -11.2 0.9 -20.9 1.8 -21.7 2.1 -0.7 0.3 -1.6 0.1 -1.9 -0.5z"/>
  <path d="M454.5 364.1 c0.8 -1.3 7.3 -3.4 8.8 -2.8 0.6 0.3 -0.5 1.2 -2.5 2.1 -4.1 1.8 -7.2 2.1 -6.3 0.7z"/>
  <path d="M433 361.2 c0 -0.6 3.3 -2.2 7.3 -3.5 6.9 -2.5 7.1 -2.5 3.2 -2.6 -2.2 -0.1 -7.5 1.2 -11.8 2.8 -4.2 1.6 -7.9 2.5 -8.2 2.1 -0.3 -0.5 2.2 -1.9 5.4 -3.1 l6 -2.3 -4.7 -1.2 c-2.6 -0.7 -5.1 -0.9 -5.7 -0.5 -1.8 1.4 -14.8 6.1 -15.4 5.6 -0.8 -0.9 1.2 -2.1 7.7 -4.5 3.4 -1.2 6.2 -2.7 6.2 -3.2 0 -1.1 -2.3 -0.5 -12.2 3.7 -4.3 1.8 -8 2.9 -8.3 2.4 -0.3 -0.4 0.9 -1.5 2.7 -2.2 10.9 -4.6 14.3 -6.1 14.6 -6.3 0.2 -0.1 -0.8 -1.8 -2.1 -3.8 -1.4 -2 -3.5 -6.9 -4.8 -11.1 l-2.3 -7.5 -15.1 -0.2 -15 -0.3 0 -11.5 0 -11.5 4.3 0.3 c3.3 0.3 4.2 0 4.2 -1.2 0 -3.8 3.1 -36.1 4.4 -45.6 0.8 -5.8 1.7 -13.2 2.1 -16.5 0.6 -5.7 4 -29 7.1 -48 3.1 -19.1 6.2 -24.3 16.2 -27.1 l6 -1.7 0.6 -10.1 c0.3 -5.6 0.7 -13.4 0.9 -17.4 l0.3 -7.3 -5.6 0.2 -5.5 0.3 -0.3 -7.9 c-0.2 -4.3 0.1 -8.2 0.5 -8.6 0.4 -0.4 11 -1.5 23.5 -2.5 l22.6 -1.8 0.6 -3.8 c0.4 -2.2 1.9 -5.3 3.6 -7.1 1.6 -1.8 8.5 -10.8 15.5 -20 9.9 -13.1 12.1 -16.7 10.3 -16.3 -1.3 0.3 -7.7 1.7 -14.3 3.2 -6.6 1.4 -16 3.6 -21 4.9 -16.6 4.3 -21 4.2 -23.5 -0.6 -1 -1.8 -0.9 -2.6 0.7 -4.8 2.7 -3.5 7.3 -4.6 26 -6.6 27.4 -2.8 34.5 -4.1 36.5 -6.7 1.5 -2.1 2.7 -2.3 11.1 -2.6 7.7 -0.3 9.7 -0.1 11 1.3 3.6 3.5 1.3 10 -4.3 12.3 l-4 1.7 0 8.5 0 8.5 13.5 -0.3 c8.3 -0.2 13.5 0.1 13.5 0.7 0 0.5 -5.4 1.1 -12.9 1.3 -7.1 0.2 -13.3 0.7 -13.8 1.1 -0.4 0.5 -1 5.6 -1.1 11.3 l-0.4 10.5 7.4 -0.6 c4 -0.4 11.1 -1 15.7 -1.3 l8.4 -0.7 -0.2 -18.3 c-0.2 -12.4 0.1 -18.2 0.8 -18.2 0.7 0 1.1 3.9 1.1 11.3 0 6.1 0.3 14.2 0.7 18 1.1 12.6 2.3 6.8 2.3 -11.8 0 -11.7 0.4 -18.5 1 -18.5 0.6 0 1 2.8 1 6.5 l0 6.4 9 0.3 c5.4 0.2 8.9 0.7 8.8 1.3 -0.2 0.6 -3.7 0.9 -9 0.6 l-8.8 -0.3 0 11.1 0 11 9.8 -0.6 c6.8 -0.4 9.4 -0.2 8.7 0.5 -0.7 0.8 -139.3 12.3 -147.2 12.2 -0.9 0 -1.3 2 -1.3 6.5 l0 6.5 4.3 0 c2.3 0 30 -0.9 61.6 -2 31.6 -1.1 57.7 -1.8 57.9 -1.5 0.3 0.3 0.3 0.8 -0.1 1.1 -0.3 0.3 -25.4 1.5 -55.8 2.5 -30.4 1.1 -55.5 2.2 -55.8 2.5 -0.3 0.3 -0.7 7.8 -0.9 16.7 l-0.3 16.2 39.5 0 c25.7 0 39.6 0.4 39.6 1 0 0.6 -13.1 1 -37.3 1 -45.4 0.1 -52 0.9 -57.8 7.4 -1.9 2.2 -4.1 5.8 -4.8 8 -2.8 9.6 -13.9 90.6 -12.6 92 0.4 0.3 7.4 0.8 15.6 1.1 11.7 0.4 15.2 0.9 15.9 2 1.4 2.2 1.2 13.3 -0.3 15.4 -1.1 1.4 -3.6 1.8 -17.4 2.3 l-16.2 0.6 -0.6 4.9 c-0.4 2.7 -0.5 5.2 -0.2 5.5 0.3 0.2 17.7 0.7 38.6 1 25.1 0.4 37.8 0.9 37.4 1.6 -0.4 0.7 -14.9 0.8 -43 0.4 l-42.3 -0.6 0 9.4 0 9.5 15.3 0 c27.7 0 69.7 1.3 69.7 2.2 0 0.4 -1 0.8 -2.1 0.8 -1.2 0 -5.9 3.2 -10.6 7.3 -4.7 3.9 -9.2 7.7 -10 8.4 -0.9 0.7 -1.3 1.9 -0.9 2.9 0.6 1.5 1.8 0.7 6.9 -4.4 8.8 -8.7 10.7 -7.8 2.2 1 -7.1 7.3 -5 6.1 3.7 -2.1 2.6 -2.5 5.1 -4.1 5.5 -3.7 0.5 0.4 -2.5 3.8 -6.6 7.5 -6.1 5.5 -7.1 6.9 -5.7 7.4 3.4 1.3 5.1 0.7 9.3 -3.5 2.3 -2.3 4.6 -3.8 5 -3.4 0.4 0.4 -1.1 2.5 -3.4 4.7 l-4.2 3.9 3.9 0 c2.2 0 4 0.5 4 1 0 0.6 -2.8 1 -6.4 1 -3.5 0 -6.6 0.3 -6.8 0.8 -0.1 0.4 -3.7 1.8 -7.8 3.1 -4.1 1.3 -8.1 2.6 -8.7 2.8 -0.7 0.3 -1.3 0.1 -1.3 -0.5z m8.4 -10.1 c2.7 -3 0.9 -4.7 -2 -2 -1.3 1.2 -2.1 2.6 -1.8 3 0.8 1.4 1.9 1.1 3.8 -1z m5.3 0.8 c-1.4 -0.8 -2.2 -0.8 -3 0 -0.8 0.8 -0.3 1.1 1.9 1.1 2.5 -0.1 2.7 -0.2 1.1 -1.1z m-9.3 -3.8 c2.1 -2.1 3.3 -4.1 2.8 -4.5 -1 -0.6 -9.2 6.3 -9.2 7.7 0 1.8 2.9 0.4 6.4 -3.2z m-3.7 -2.3 c3.6 -3.6 5 -5.7 4.4 -6.6 -0.6 -1 -2.2 0.2 -5.9 4.5 -2.9 3.2 -5.2 6.1 -5.2 6.6 0 1.7 1.9 0.4 6.7 -4.5z m-2.9 -3.5 c4.3 -4.6 5.9 -7 5.2 -7.7 -0.8 -0.8 -3 1.1 -7.4 5.9 -5.7 6.3 -6.9 8.5 -4.8 8.5 0.4 0 3.5 -3 7 -6.7z m6.6 -11 c0.8 0.3 2.4 -0.5 3.7 -1.9 l2.2 -2.4 -3.9 0 c-3.5 0 -4.7 0.8 -12.1 8.1 -5.3 5.2 -8 8.6 -7.6 9.5 0.4 1.1 2.7 -0.6 8.4 -6.2 4.8 -4.6 8.5 -7.4 9.3 -7.1z m13.2 3.5 c7.9 -6.7 10 -8.9 7.2 -7.2 -2.5 1.4 -13.3 10.2 -15.2 12.3 -3.8 4.2 -0.3 2 8 -5.1z m-19.8 -7.7 c-1.3 -0.4 -12.8 11.4 -12.8 13.3 0 0.6 3.2 -2.1 7 -5.9 4 -4 6.5 -7.2 5.8 -7.4z m22.3 0.1 c-1.2 -0.4 -13.1 9.7 -13.1 11.1 0 0.4 3.2 -1.8 7 -5 3.9 -3.2 6.6 -5.9 6.1 -6.1z m-31.2 5.1 c3.9 -4.6 4.8 -6.9 1.6 -4.3 -2.7 2.3 -7.7 9 -6.7 9 0.6 0 2.9 -2.1 5.1 -4.7z m25.6 -5.2 c-0.7 -0.6 -8.5 7 -8.5 8.3 0 0.6 2 -1 4.5 -3.4 2.4 -2.4 4.2 -4.6 4 -4.9z m-28.4 2.7 l2.3 -3.1 -3.2 2.3 c-1.8 1.3 -3.2 3 -3.2 3.7 0 1.9 1.5 0.9 4.1 -2.9z m-2.1 -2.9 c0 -0.5 -0.9 -0.9 -2 -0.9 -2.2 0 -2.3 0.1 -1.4 2.4 0.5 1.3 0.9 1.4 2 0.5 0.8 -0.6 1.4 -1.5 1.4 -2z m7.2 -39.3 c0.4 -0.6 0.8 -3.6 0.8 -6.7 0 -5.5 -0.1 -5.7 -3.1 -6.3 -1.7 -0.3 -8.9 -0.6 -16 -0.6 l-12.9 0 0 4.9 c0 2.7 -0.3 6.3 -0.6 8 l-0.7 3.2 15.9 -0.7 c9.7 -0.4 16.2 -1.1 16.6 -1.8z m52.1 -184.6 c-0.4 -8.1 -9.7 -8 -11.6 0.1 -0.9 3.6 -0.1 4 6.3 3.7 l5.5 -0.3 -0.2 -3.5z m26.5 1.3 l4.2 -0.5 0 -7.8 c0 -4.2 0.3 -13 0.6 -19.6 0.6 -13 0 -15.1 -3.7 -14 -2.4 0.7 -6.6 5.3 -21 23.3 l-7.7 9.6 1.9 3.1 c1 1.7 1.9 4.2 1.9 5.5 l0 2.3 9.8 -0.6 c5.3 -0.4 11.6 -0.9 14 -1.3z m-25.1 -15.5 c2.6 -3.5 9 -11.1 14 -17.1 5.1 -5.9 9.5 -11.8 9.9 -13.1 0.9 -3.6 0.1 -7 -1.7 -7.4 -1.2 -0.2 -1.8 0.7 -2.2 3.8 -0.4 3.3 -3 7.4 -13.1 20.8 -11 14.4 -14 19.2 -12.2 19.2 0.3 0 2.6 -2.8 5.3 -6.2z m-38.2 -26.6 c-1 -1.1 -4 1.4 -4.3 3.7 -0.2 1.5 0.4 2.4 2 3 2.1 0.8 2.3 0.5 2.6 -2.6 0.2 -1.9 0.1 -3.8 -0.3 -4.1z m3.2 0.6 c-0.2 -1.3 -0.4 -0.3 -0.4 2.2 0 2.5 0.2 3.5 0.4 2.3 0.2 -1.3 0.2 -3.3 0 -4.5z m5.3 1.1 c0 -2.8 -0.4 -3.9 -1.5 -3.9 -1.6 0 -2.1 4.3 -0.9 7.4 1 2.7 2.4 0.7 2.4 -3.5z m4 -0.5 c0 -2.7 -0.4 -4.3 -1 -3.9 -0.5 0.3 -1 2.4 -1 4.6 0 2.1 0.5 3.9 1 3.9 0.6 0 1 -2.1 1 -4.6z m4.5 2.6 c0.9 -1.4 -0.4 -7 -1.6 -7 -0.5 0 -0.9 1.8 -0.9 4 0 3.8 1.2 5.2 2.5 3z m5.5 -4.5 c0 -2.9 -0.3 -3.2 -2.1 -2.8 -1.2 0.4 -1.8 1.1 -1.5 2 0.3 0.8 0.6 2.3 0.6 3.4 0 1.2 0.5 1.6 1.5 1.3 0.9 -0.4 1.5 -1.9 1.5 -3.9z m4.2 -0.5 c-0.2 -1.6 -0.8 -3 -1.3 -3 -0.5 0 -0.9 1.4 -0.9 3 0 1.8 0.5 3 1.3 3 0.9 0 1.2 -1 0.9 -3z m18.1 -1.1 c6.7 -1.4 11.1 -2.8 11.4 -3.6 0.3 -0.8 0.4 -1.6 0.2 -1.8 -0.5 -0.5 -27 3.2 -27.6 3.9 -0.3 0.2 -0.2 1.4 0.2 2.6 0.5 1.6 1.2 2 2.8 1.6 1.2 -0.3 7.1 -1.5 13 -2.7z m31.2 -2.4 c2.5 -2.5 3 -4.1 1.9 -6.9 -0.5 -1.3 -2.2 -1.6 -8 -1.6 -6.8 0 -9 0.9 -6.4 2.5 0.6 0.3 1 2.4 1 4.6 l0 3.9 4.5 0 c3.5 0 5.2 -0.6 7 -2.5z"/>
  <path d="M447 361.1 c0 -0.6 1.5 -1.7 3.3 -2.5 5.6 -2.3 7.7 -2.8 7.7 -1.8 0 0.8 -1.9 1.8 -9.7 4.9 -0.7 0.3 -1.3 0 -1.3 -0.6z"/>
  <path d="M626 357.5 c-0.1 -0.5 -0.3 -3.7 -0.4 -7 -0.1 -7.6 -1.9 -10 -11.1 -15.4 -8.2 -4.9 -18.5 -13.6 -18.5 -15.8 0 -0.9 2.7 1 6.6 4.6 3.7 3.3 9.4 7.6 12.8 9.5 9.5 5.3 12.6 9.6 12.5 16.8 0 4 -1.5 9.6 -1.9 7.3z"/>
  <path d="M852.8 354.8 c-4.7 -1.3 -6.8 -3.7 -7.5 -8.7 -0.5 -3.6 -0.2 -4.4 3 -7.6 1.9 -1.9 4.2 -3.5 5.1 -3.5 2.5 0 3.6 -4.3 3.6 -14 0 -8.6 1.1 -12.3 2.4 -7.7 0.3 1.2 0.6 6.4 0.6 11.5 0 6.6 0.5 10.4 1.6 12.9 1.4 2.8 1.5 3.8 0.4 5.7 -0.6 1.3 -1.1 4.1 -1 6.2 0.5 7.1 0 7.4 -8.2 5.2z m4.8 -5.2 c0.3 -1.3 0.2 -4.3 -0.3 -6.7 -1.1 -5.5 -4 -6.4 -7.2 -2.3 -2.9 3.6 -2.8 8.8 0.2 10.2 3.9 1.9 6.6 1.4 7.3 -1.2z"/>
  <path d="M390.5 354 c0.6 -0.9 16 -6 18.3 -6 0.7 0 1.2 0.3 1.2 0.8 0 0.6 -17.3 6.2 -19.3 6.2 -0.5 0 -0.5 -0.4 -0.2 -1z"/>
  <path d="M549.7 353.1 c-3.2 -1.1 -7.7 -3.2 -10 -4.7 -2.3 -1.5 -5 -2.7 -5.9 -2.7 -2.1 0.2 -2.2 -0.7 -0.7 -4.1 1.2 -2.5 3.3 -2.7 2.3 -0.3 -0.3 0.9 1.6 1.2 7.3 1.2 4.3 0.1 9.5 0.5 11.6 0.9 2.5 0.6 6.3 0.4 10.8 -0.4 7.1 -1.4 6.9 -1.4 26.7 2.6 2.8 0.6 14.4 -1.3 17.8 -2.8 2.3 -1.1 2.4 -1.3 0.9 -2.4 -0.9 -0.7 -1.2 -1.5 -0.7 -1.8 1.4 -0.9 7.6 3.7 8.1 5.9 0.3 1.9 0.3 1.9 -1.7 0.2 -1.9 -1.8 -2.1 -1.8 -6.3 0.4 -7.9 4 -15.3 6 -28.4 7.6 -20 2.5 -25.2 2.5 -31.8 0.4z m27.8 -2 c19.6 -2.6 18.4 -2.3 15 -3.1 -1.6 -0.4 -7.1 -1.5 -12.2 -2.5 -8.6 -1.6 -9.6 -1.6 -16.6 -0.1 -6.8 1.5 -7.9 1.6 -11.2 0.1 -4.3 -1.7 -13.5 -2.1 -13.5 -0.4 0 1.1 10.9 6.4 15 7.2 3.2 0.7 12.2 0.2 23.5 -1.2z"/>
  <path d="M871.9 350.2 c-2.9 -2.6 -3.4 -3.7 -3.4 -7.5 0 -8.1 6.8 -12.5 11.5 -7.5 3.6 3.9 2.3 5.4 -6.2 7.2 -3.1 0.7 -3.6 2.7 -1.2 5 1 1 3.3 1.6 6.7 1.6 4.5 0 5 0.2 3.7 1.5 -0.9 0.8 -2.9 1.7 -4.6 2.1 -2.6 0.5 -3.8 0 -6.5 -2.4z m5.9 -11.6 c0.8 -0.9 -1 -2.6 -2.7 -2.6 -1.8 0 -4.1 1.8 -4.1 3.3 0 0.9 5.8 0.2 6.8 -0.7z"/>
  <path d="M892.4 352 c-4.2 -1.7 -4 -3.3 0.3 -2.5 3.1 0.5 4.4 0.2 5.8 -1.1 1.7 -1.7 1.7 -1.9 -0.5 -3.4 -4.1 -2.8 -7 -5.9 -7 -7.5 0 -3 4.8 -6.7 8.2 -6.3 4.6 0.4 4.7 2.6 0.2 3 -4.6 0.4 -6.9 3.4 -4 5.2 4.3 2.6 7.6 5.9 7.6 7.5 0 3.8 -6.4 6.9 -10.6 5.1z"/>
  <path d="M908.4 350.5 c-0.8 -2 0.5 -12.3 1.6 -13 1.3 -0.8 1.9 3.2 1.3 9.1 -0.6 5.3 -1.8 6.9 -2.9 3.9z"/>
  <path d="M965.6 350.3 c-0.3 -1 -1 -3.7 -1.6 -6 -1.3 -5 -3.3 -7.3 -6.5 -7.3 -3.1 0 -5.3 3.3 -6.1 9.2 -0.7 5.1 -2.1 6.3 -2.8 2.6 -0.8 -4.4 -2.4 -19.3 -2.1 -19.7 0.9 -0.9 2.5 1.3 3.1 4.4 0.7 4 1 4.1 3.5 1.9 5.9 -5.4 14.9 3.4 14.9 14.5 0 2.6 -1.7 2.8 -2.4 0.4z"/>
  <path d="M456.3 345.4 c3.2 -3.1 6.1 -5.4 6.4 -5 1 0.9 -8.8 10.6 -10.7 10.6 -0.9 0 0.9 -2.4 4.3 -5.6z"/>
  <path d="M14 345 c0 -0.6 11.3 -1 32 -1 20.7 0 32 0.4 32 1 0 0.6 -11.3 1 -32 1 -20.7 0 -32 -0.4 -32 -1z"/>
  <path d="M102.5 344 c-2.7 -0.4 -4.8 -0.8 -4.5 -0.8 0.3 -0.1 36.7 -0.4 81 -0.6 44.3 -0.2 99.3 -0.9 122.3 -1.6 27.6 -0.8 42.2 -0.9 42.8 -0.3 2.8 2.8 -223 5.8 -241.6 3.3z"/>
  <path d="M526.5 340.3 c0.8 -5.4 3.2 -10.6 4.5 -9.8 0.4 0.3 0.2 1.8 -0.5 3.3 -0.7 1.5 -1.6 4.6 -2 7 -0.4 2.3 -1.1 4.2 -1.7 4.2 -0.7 0 -0.8 -1.7 -0.3 -4.7z"/>
  <path d="M49 333 c0 -0.6 4.2 -1 10.5 -1 6.3 0 10.5 0.4 10.5 1 0 0.6 -4.2 1 -10.5 1 -6.3 0 -10.5 -0.4 -10.5 -1z"/>
  <path d="M118 333 c-14 -0.3 -24.8 -0.8 -24 -1.2 1.9 -1 273 -1.5 273 -0.6 0 0.4 -2.4 0.9 -5.2 1.2 -7 0.7 -211.3 1.2 -243.8 0.6z"/>
  <path d="M16 326.1 c0 -1.1 5.9 -3.6 6.6 -2.8 0.3 0.3 -0.8 1.3 -2.5 2.1 -3.5 1.8 -4.1 1.9 -4.1 0.7z"/>
  <path d="M482.6 325.8 c-1 -2.3 0.9 -16.7 2.8 -21.3 2.1 -4.9 3.7 -4.4 1.9 0.7 -0.8 2.2 -2 8.2 -2.7 13.2 -0.8 5.9 -1.5 8.5 -2 7.4z"/>
  <path d="M578 326 c0 -0.5 0.4 -1 0.9 -1 1.6 0 5.1 -6.6 5.1 -9.5 0 -1.5 -0.9 -4 -2.1 -5.7 -2.9 -4 -1.8 -4.6 1.5 -0.8 4 4.8 3.4 10.2 -1.7 15.8 -2.2 2.3 -3.7 2.9 -3.7 1.2z"/>
  <path d="M559.2 324.8 c0.5 -1.5 12.7 -3.8 13.4 -2.6 0.3 0.5 -1 1.5 -3 2.3 -4.4 1.8 -10.9 2 -10.4 0.3z"/>
  <path d="M910.6 325.3 c-1.1 -1.1 -0.6 -2.3 0.9 -2.3 0.8 0 1.5 0.4 1.5 0.9 0 1.3 -1.6 2.2 -2.4 1.4z"/>
  <path d="M15.2 321.8 c0.5 -1.4 8.6 -4.3 9.5 -3.4 1 0.9 -0.2 1.6 -5.2 3.1 -3.3 1 -4.5 1.1 -4.3 0.3z"/>
  <path d="M6.6 319.1 c-0.7 -1 1.6 -1.7 9.3 -2.7 3.8 -0.5 5.2 -0.4 4.7 0.4 -0.3 0.6 -2.8 1.4 -5.4 1.7 -2.6 0.4 -5.4 0.9 -6.4 1.1 -0.9 0.3 -1.9 0.1 -2.2 -0.5z"/>
  <path d="M77.9 316.5 c-4.1 -2.3 -5.2 -6.3 -4.7 -17.1 0.5 -9.2 0.4 -9.7 -1.9 -12 -1.4 -1.4 -2.2 -3.1 -1.9 -3.9 0.3 -0.8 0.2 -1.5 -0.3 -1.5 -0.5 0 -1.6 -1.6 -2.6 -3.6 -1.4 -2.9 -1.6 -5.7 -1.3 -13.8 0.4 -11.1 1.5 -14.1 7.4 -20.5 2.6 -2.9 3.1 -4 2 -4.4 -0.8 -0.3 -2 -2.2 -2.7 -4.1 -1.1 -3 -1.8 -3.6 -4.1 -3.6 -1.7 0 -3.1 -0.7 -3.5 -1.6 -0.7 -1.8 1 -3.2 5 -4.1 1.5 -0.3 2.7 -1.1 2.7 -1.8 0 -1.9 4.8 -7.3 7.1 -8 3.5 -1.1 7.6 1.3 9.3 5.5 1.1 2.9 2.2 3.9 4.6 4.3 1.7 0.4 3.3 1.3 3.6 2.2 0.8 2 -1.3 4.5 -3.7 4.5 -1.1 0 -1.9 0.7 -1.9 1.5 0 0.8 -0.7 3 -1.7 4.9 -1.5 3.2 -1.5 3.7 0 5.9 0.8 1.3 2.2 4.8 3.1 7.7 2.1 7.2 2.2 26.6 0.1 31.7 -1 2.3 -1.5 6.9 -1.5 13.4 0 8.7 0.3 10.1 2 11.6 1.1 1 2 2.5 2 3.5 0 1.7 -0.6 2 -7.5 3.2 -1.6 0.3 -3.9 0.8 -5 1.1 -1.1 0.2 -3.2 -0.2 -4.6 -1z m5.6 -4.6 c-1.2 -2.3 -1.6 -5.3 -1.3 -12.5 l0.3 -9.4 -3.1 0 c-2.8 0 -3.2 0.4 -3.8 3.8 -1.1 6.6 -0.6 15.2 0.9 18.2 1.3 2.5 2.2 3 5.1 3 l3.5 0 -1.6 -3.1z m9.5 1.3 c0 -0.4 -0.9 -1.5 -2 -2.5 -1.8 -1.5 -2 -2.9 -2 -11.7 0 -8.1 -0.3 -10 -1.5 -10 -2.7 0 -3.7 4 -3.3 13.2 0.2 7.5 0.6 9.2 2.2 10.4 2.1 1.5 6.6 1.9 6.6 0.6z m-3 -27.7 c1.2 -1.3 1.5 -4.4 1.5 -16.4 l0 -14.8 -3.7 -7.2 c-2.5 -4.9 -3.2 -7.1 -2.2 -7.1 1.5 0 3.4 -3 3.4 -5.3 0 -1.1 -2 -1.6 -7.6 -2.2 -4.1 -0.4 -7.8 -0.5 -8 -0.2 -1.2 1.2 1.9 6 4.6 7 3.5 1.3 3.9 2.7 1 2.7 -2.8 0 -6.7 4.3 -9.6 10.5 -1.9 4.1 -2.4 6.7 -2.4 13.8 0 8.5 1.7 14.7 3.9 14.7 2.3 0 3.4 -3.7 3.9 -14 0.3 -6.1 0.9 -11.3 1.5 -11.7 0.6 -0.4 0.8 3.5 0.5 11.1 -0.4 9.9 -0.7 12 -2.6 14.6 -2.8 3.7 -2.8 4.8 0.1 6 3.1 1.4 13.8 0.3 15.7 -1.5z m4.4 -55.4 c0.4 -0.5 -0.7 -1.2 -2.3 -1.6 -3.4 -0.7 -4.6 -1.9 -5.5 -5.7 -0.7 -3.3 -3.9 -5.2 -7.1 -4.4 -2.5 0.6 -5.6 4.7 -5.8 7.6 -0.1 1.3 -1.3 2 -4.2 2.6 -3.6 0.8 -3.3 0.9 4.5 1.4 14.2 1 19.9 1 20.4 0.1z"/>
  <path d="M172.6 314.2 c-0.3 -0.6 0.1 -1.3 1 -1.6 2.4 -0.9 5.4 -0.7 5.4 0.4 0 0.6 -0.6 1 -1.4 1 -0.8 0 -2.1 0.3 -2.9 0.6 -0.8 0.3 -1.8 0.1 -2.1 -0.4z"/>
  <path d="M200.6 313 c-3.5 -1.7 -4.1 -1.8 -6.7 -0.5 -3.7 2 -8.4 1.9 -10.4 -0.1 -1.5 -1.5 -1.4 -1.8 0.2 -4.3 1.6 -2.3 1.9 -5.8 2.3 -29.1 0.3 -14.6 0.9 -26.4 1.4 -26.2 0.5 0.1 0.8 11.8 0.7 25.9 -0.2 20.1 -0.5 26.2 -1.7 28.4 -0.8 1.5 -1.4 3.3 -1.4 3.9 0 1.4 5 1.2 7.9 -0.3 2.3 -1.2 2.4 -1.5 2.5 -14.2 0.1 -7.9 0.5 -13 1.1 -13 0.6 0 0.9 3.9 0.7 10.5 -0.4 12.5 0.5 15.6 5.3 17.5 4 1.7 4.5 1.8 6.4 0.6 1.2 -0.8 0.9 -1.6 -1.7 -4.6 l-3.2 -3.6 0 -24.9 c0 -16 0.4 -25 1 -25 0.6 0 1 3 1.1 6.8 0 3.7 0.4 9 0.8 11.7 l0.7 5 1.8 -6 c3.3 -10.7 1.2 -22.7 -6 -34.2 -3.2 -5.1 -3.3 -5.3 -1.9 -8.7 3.5 -8.3 0.3 -17.5 -6.1 -17.6 -1.1 0 -2.8 0.8 -3.7 1.8 -2.3 2.5 -2.2 10.8 0.1 14.7 l1.8 3 -3.4 4.5 c-1.9 2.5 -4.7 7 -6.1 10 -2.3 4.8 -2.6 6.8 -2.6 16 0 8.4 0.4 11.1 1.8 13.3 1.8 2.8 2.2 4.7 0.9 4.7 -2 0 -4.5 -7.9 -5 -15.7 -0.6 -10.4 2.1 -19.8 7.7 -27.3 3.8 -5.1 3.9 -5.3 2.5 -8.6 -2.1 -5.1 -1.8 -12.6 0.7 -15.8 2.9 -3.7 7.6 -3.6 11.5 0.5 2.6 2.7 2.9 3.7 2.9 9.8 0 4 -0.5 7.4 -1.3 8.3 -1 1.3 -0.6 2.4 2.3 6.8 8.1 12 9.8 29.1 4.1 39.7 -2.6 4.8 -2.9 6.1 -3 16.5 -0.1 11.1 0 11.4 2.7 14 3.4 3.4 3.4 5.6 0.1 6.8 -3.5 1.4 -4.4 1.3 -8.8 -1z"/>
  <path d="M237.6 312.7 c-1.5 -1.1 -1.7 -2.1 -1.2 -4.8 0.4 -1.9 1 -7.7 1.5 -12.9 0.6 -8.3 0.5 -9.7 -1 -11 -2.9 -2.6 -4.1 -6 -4 -12.3 0 -5.3 0.6 -7.5 4.6 -15.3 4.4 -8.7 4.5 -9.2 3 -12 -5.6 -10.8 6.4 -22.3 13.9 -13.3 3 3.6 3.4 8.4 1.1 13.3 -1.5 3.2 -1.5 3.4 1.9 9 3 5.1 5.6 12.9 5.6 17.1 0 3.4 -2.3 11.7 -3.6 13 -1.1 1 -1.6 4.2 -1.7 10.8 -0.2 7.6 0.2 10 1.7 12.9 2.7 5 1.7 6.8 -3.7 6.8 -7.3 0 -8.7 -2.2 -8.7 -13.5 0 -5.1 0.3 -10 0.6 -10.9 1.4 -3.7 1.9 -1 1.6 9.1 -0.4 12 0.2 13.3 6.5 13.3 3.7 0 4 -0.9 1.7 -4.5 -1.8 -2.7 -2.1 -8.1 -1.6 -27.2 0.1 -6.7 0.6 -11.3 1.2 -11.3 0.6 0 1 2.8 1.1 6.3 0 5.2 0.2 5.8 1.1 3.7 1.6 -3.8 1.2 -15.1 -0.6 -19.5 -0.9 -2.1 -2.8 -5.4 -4.3 -7.3 -2.4 -3.2 -2.5 -3.8 -1.3 -6.6 2.3 -5.7 2.4 -9.9 0 -12.9 -3.1 -3.9 -7.4 -3.7 -10 0.6 -2.5 4 -2.5 6.3 -0.1 11.1 l2 3.8 -2.9 4 c-6 8.3 -8.7 20.9 -5.8 27.3 1.9 4.3 2.8 2.8 2.8 -4.7 0 -6.7 1.1 -11.2 2.2 -9.2 0.8 1.7 -1.1 33.9 -2.3 39.2 -1.5 6.3 -0.5 7.6 5.1 6.7 3.3 -0.5 3.4 -0.4 1.6 1 -2.4 1.9 -5.6 1.9 -8 0.2z"/>
  <path d="M226 311 c0 -0.5 1.8 -1 4.1 -1 2.4 0 3.8 0.4 3.4 1 -0.3 0.6 -2.2 1 -4.1 1 -1.9 0 -3.4 -0.4 -3.4 -1z"/>
  <path d="M271.5 311.1 c-0.3 -0.2 -0.2 -0.8 0.1 -1.2 0.7 -1.2 8.4 -1.2 8.4 0 0 0.9 -7.7 2 -8.5 1.2z"/>
  <path d="M170 310.2 c0 -1.1 8.8 -2.7 9.8 -1.8 1 1 -0.3 1.6 -5.1 2.2 -3 0.4 -4.7 0.3 -4.7 -0.4z"/>
  <path d="M282.6 309.4 c-1.3 -1.2 -1.6 -2.6 -1.2 -4.8 0.4 -1.7 0.9 -7.7 1.3 -13.3 0.5 -8.7 0.4 -10.3 -0.9 -10.3 -0.8 0 -2.1 -1.2 -2.9 -2.7 -2.9 -5.3 -0.4 -19.1 5.2 -29 2.9 -5 2.9 -5.3 1.4 -8.2 -1.5 -3.1 -2 -8.7 -0.9 -11.6 0.8 -2 5.6 -4.5 8.6 -4.5 3.6 0 6.6 2.7 7.9 7 1 3.3 0.9 4.7 -0.5 8.4 l-1.7 4.5 3.1 4.2 c6.4 8.9 7.3 19.9 2.4 30.5 -3.4 7.1 -3.5 21 -0.2 25.4 1.8 2.5 1.9 3.2 0.8 4.5 -1.1 1.3 -2.4 1.5 -5.9 1.1 -6.1 -0.8 -8 -0.8 -11.7 -0.1 -2.2 0.5 -3.6 0.2 -4.8 -1.1z m7.3 -1.3 c1.2 -0.8 1.4 -3.1 1.2 -11 -0.2 -6.7 0.1 -10.1 0.8 -10.1 0.7 0 1.1 3.2 1.1 9 0 10.2 1.5 13 7 13 3.3 0 3.8 -1.4 1.5 -4.4 -1.2 -1.6 -1.5 -5.7 -1.5 -20.4 0 -11.9 0.3 -18.1 1 -17.7 0.6 0.3 1 3.4 1.1 6.8 l0.1 6.2 1.5 -3.5 c0.8 -1.9 1.5 -6.4 1.5 -10 0.1 -7.1 -2.4 -13.7 -6.8 -18.5 l-2.5 -2.7 2.1 -4.4 c1.9 -3.8 2 -4.9 1 -7.9 -1.8 -5.6 -7.2 -7.3 -11 -3.5 -2.6 2.6 -2.6 7.6 0.1 11.9 1.8 3 1.8 3.5 0.5 5 -5.3 5.9 -10 23.3 -8.2 30.5 1.1 4.5 2.3 2.8 3 -4.4 0.4 -3.8 1.1 -7.2 1.6 -7.5 1.2 -0.7 0.2 31.7 -1.2 37.9 -0.8 3.9 -0.8 5 0.3 5.7 1.8 1.1 4 1.1 5.8 0z"/>
  <path d="M109.5 309 c-0.5 -0.9 2.4 -1.5 4.9 -1.1 0.5 0.1 0.5 -0.6 0.1 -1.6 -1.6 -3.7 -2.6 -13 -2.1 -18.2 0.3 -3.9 0.1 -5.8 -0.9 -6.8 -4.6 -4.6 -4 -16.9 1.4 -27.8 2.6 -5.1 2.8 -6.2 1.6 -7.5 -2.8 -3.1 -3.6 -6.9 -2.1 -10.5 1.7 -4 4.2 -5.5 9 -5.5 6.6 0 10 8.7 5.6 14.3 l-2 2.5 2.9 5.5 c1.6 3 3.4 8.6 4.1 12.4 1.1 6 1 8 -0.5 14.9 -2.7 12.1 -3 18 -1 22.4 2.2 4.9 1.7 7.6 -1.5 7.3 -10.3 -0.8 -14.2 -0.8 -14.6 -0.1 -0.7 1.1 -4.2 1 -4.9 -0.2z m10.9 -6.2 c-0.7 -5.3 0.7 -15 2.2 -15.5 0.7 -0.2 0.8 1.3 0.3 4.9 -1.6 11.4 -0.5 14.8 4.7 14.8 2.9 0 2.9 -0.2 0.7 -4.3 -1.8 -3.6 -2.1 -12.7 -0.4 -17 0.6 -1.5 1.5 -5.4 2 -8.7 1.6 -9.9 -1.8 -23.9 -6.9 -28.5 -1.8 -1.7 -1.8 -1.8 1.1 -4.2 3.3 -2.8 3.8 -6.6 1.3 -10.1 -1.8 -2.7 -6.9 -3 -9.6 -0.5 -3.4 3.1 -1.3 12.3 2.9 12.3 1.5 0 1.5 0.2 0 1.8 -0.9 1 -3.1 4.9 -4.8 8.7 -2.5 5.5 -3.2 8.4 -3.2 13.5 -0.1 3.6 0.4 7.4 1 8.4 1 1.8 1.1 1.7 1.6 -1 0.3 -1.6 0.9 -5 1.2 -7.6 0.3 -2.7 1.1 -4.8 1.7 -4.8 0.7 0 0.8 1.4 0.4 3.9 -3.5 22.2 -2.5 38.1 2.4 38.1 1.7 0 1.9 -0.5 1.4 -4.2z"/>
  <path d="M223 307.1 c0 -1 8.9 -2.1 10.4 -1.3 0.4 0.2 0.2 0.8 -0.5 1.3 -1.8 1.2 -9.9 1.1 -9.9 0z"/>
  <path d="M269 307 c0 -0.5 2.3 -1 5 -1 2.8 0 5 0.5 5 1 0 0.6 -2.2 1 -5 1 -2.7 0 -5 -0.4 -5 -1z"/>
  <path d="M103.5 305 c-0.4 -0.6 1.2 -1 3.9 -1 2.5 0 4.6 0.5 4.6 1 0 0.6 -1.8 1 -3.9 1 -2.2 0 -4.3 -0.4 -4.6 -1z"/>
  <path d="M713 304.4 c0 -0.7 1.1 -3.6 2.4 -6.5 2.1 -4.8 2.9 -8.1 5.1 -22.1 0.3 -2.1 1 -3.8 1.5 -3.8 0.6 0 1 0.3 1 0.8 0 2.9 -3.2 19.1 -4.5 23 -1.5 4.7 -5.4 10.7 -5.5 8.6z"/>
  <path d="M710.7 285.3 c-0.4 -8.7 -1 -17 -1.3 -18.5 -0.8 -3.4 1.1 -3.8 2 -0.5 1.2 4 2 34.7 0.9 34.7 -0.6 0 -1.3 -6.4 -1.6 -15.7z"/>
  <path d="M435.8 296.3 c-0.9 -1.8 1 -40 2 -42 0.9 -1.7 2.5 -2.2 8.8 -2.8 9.4 -0.9 32.4 0.4 32.4 1.7 0 0.7 -6.2 0.8 -17.9 0.3 -17.4 -0.7 -17.9 -0.7 -20 1.4 -1.2 1.2 -2.1 3 -2.1 4.1 0 1.9 0.7 2 19 2 12 0 19 0.4 19 1 0 0.6 -7 1 -18.9 1 -20.2 0 -20.1 0 -20.1 5.1 0 1.8 0.9 1.9 17.5 1.9 11 0 17.5 0.4 17.5 1 0 0.6 -6.5 1 -17.5 1 l-17.5 0 0 3 0 3 15.9 0 c15.9 0 19.6 0.4 18.5 2.1 -0.3 0.5 -8 0.6 -17.4 0.2 l-17 -0.6 0 3.6 0 3.7 16.5 0 c10.3 0 16.5 0.4 16.5 1 0 0.6 -6.2 1 -16.5 1 l-16.5 0 0 2.5 0 2.5 16.5 0.2 c9.9 0.2 16.6 0.7 16.8 1.3 0.2 1.2 -35 2 -35.5 0.8z"/>
  <path d="M714.8 293.5 c-0.2 -0.3 -0.1 -2.6 0.3 -5.3 0.4 -2.6 0.8 -8.6 0.8 -13.4 0.1 -5.9 0.5 -8.8 1.2 -8.8 0.8 0 1 3.7 0.7 13 -0.4 11.6 -1.3 16.1 -3 14.5z"/>
  <path d="M705.2 281.2 c-0.9 -9.8 -2.8 -18.9 -5.9 -28.4 -0.3 -1 0 -1.8 0.5 -1.8 2.5 0 8.2 25.4 8.2 36.2 0 9.1 -1.7 5.5 -2.8 -6z"/>
  <path d="M1026.6 291.3 c0.4 -1 3.1 -7.5 6 -14.4 3 -6.9 5.4 -13.1 5.4 -13.6 0 -0.6 -2 -4 -4.5 -7.6 -2.5 -3.7 -4.5 -7.1 -4.5 -7.7 0 -2.2 1.9 -0.8 5.6 4 2.2 2.9 4.5 4.9 5.4 4.8 0.8 -0.2 2.6 -3.1 4 -6.5 2.9 -7.2 4.6 -9.2 3.7 -4.5 -1.2 6.3 -18.5 46.7 -20.1 47 -1.2 0.3 -1.4 -0.2 -1 -1.5z"/>
  <path d="M161 286.8 c-7.4 -0.5 -15.9 -0.7 -18.7 -0.5 -4.2 0.3 -5.3 0 -5.3 -1.1 0 -1.3 2.4 -1.4 17.8 -0.8 19.3 0.8 25.2 1.4 25.2 2.7 0 1 0.3 1 -19 -0.3z"/>
  <path d="M367.3 286.3 c-3.5 -0.2 -6.3 -0.8 -6.3 -1.3 0 -1.1 9.4 -1.3 16.3 -0.4 5.4 0.8 5.3 2.5 -0.1 2.2 -2 -0.1 -6.5 -0.3 -9.9 -0.5z"/>
  <path d="M309 285 c0 -0.6 7 -1 18.9 -1 l18.8 0 0.8 -10.1 c0.7 -10.9 -0.4 -70.9 -1.4 -70.9 -0.3 0 -27.6 -0.9 -60.6 -2 -33 -1.1 -61 -2 -62.2 -2 l-2.3 0 0 42 0 42 5.4 0 c3 0 5.8 0.5 6.1 1 0.4 0.6 -3.5 1 -11 1 -7.5 0 -11.4 -0.4 -11 -1 0.3 -0.5 2.4 -1 4.6 -1 l3.9 0 0 -43.3 0 -43.3 -20 -13.8 -20.1 -13.8 -27.7 14 -27.7 14 -0.3 13.6 c-0.2 10.9 -0.5 13.6 -1.7 13.6 -0.7 0 -2.1 1 -2.9 2.2 -2.8 4 -3 0.9 -0.2 -3.2 1.5 -2.3 2.5 -4.7 2.3 -5.3 -0.5 -1.5 -5.7 6.2 -5.7 8.5 0 0.9 -0.5 2 -1.1 2.3 -0.7 0.5 -0.9 -3.9 -0.7 -13.8 0.3 -13.1 0.1 -14.6 -1.5 -15.7 -2.8 -1.7 -1.7 -5.2 2.3 -7.5 l3.5 -2 0.2 -16.5 c0.1 -9.1 0.4 -18.9 0.8 -21.7 l0.6 -5.3 9.1 0 9 0 -0.4 16.5 c-0.2 10.9 0 16.5 0.7 16.5 0.5 0 10 -4.8 21 -10.5 l20 -10.5 9 6.1 c5 3.4 14.3 9.7 20.7 14 l11.7 8 52.3 0.6 52.3 0.5 9.2 4.4 c5 2.3 11.4 5.2 14.2 6.5 5.1 2.1 6.8 4.9 3.1 4.9 -1.9 0 -1.9 0.6 -1.3 30.8 0.3 16.9 0.3 35.5 -0.2 41.5 l-0.7 10.7 -19.9 0 c-12.6 0 -19.9 -0.4 -19.9 -1z m-190.4 -69 c1.5 -2.2 2.5 -4.3 2.2 -4.5 -0.5 -0.5 -5.8 6.9 -5.8 8 0 1.3 1.2 0.2 3.6 -3.5z m-0.2 -6 c1.4 -2.2 2.6 -4.3 2.6 -4.7 0 -0.4 -0.6 0.1 -1.3 1.2 -3.3 4.8 -4.9 7.5 -4.4 7.5 0.2 0 1.6 -1.8 3.1 -4z m0 -5.1 c1.5 -2.2 2.6 -4.3 2.3 -4.5 -0.4 -0.5 -5.7 6.8 -5.7 7.9 0 1.4 0.8 0.6 3.4 -3.4z m-0.4 -5 c0 -0.6 -0.4 -0.7 -1 -0.4 -0.5 0.3 -1 1.1 -1 1.6 0 0.6 0.5 0.7 1 0.4 0.6 -0.3 1 -1.1 1 -1.6z m218.2 -4.9 l-12.2 -5.9 -50.5 -0.3 c-30.4 -0.2 -50.6 0.1 -50.8 0.6 -0.2 0.5 -10 -5.7 -21.9 -13.7 -11.9 -8.1 -22.2 -14.7 -22.8 -14.7 -0.7 0 -4.9 2 -9.3 4.4 -4.5 2.4 -12.9 6.8 -18.7 9.8 -5.8 3.1 -16.7 8.8 -24.3 12.8 -12.8 6.7 -15.5 9 -11.4 9.8 1.4 0.3 60.1 -28.4 63.3 -30.9 0.7 -0.6 8.6 4.3 21.5 13.2 11.2 7.7 21.1 14.6 21.9 15.4 1.3 1.2 44.6 3.1 123 5.4 4.4 0.1 4.2 -0.1 -7.8 -5.9z m-215.2 -8.2 c0 -0.5 0.9 -2.3 2.1 -3.9 1.1 -1.6 1.9 -3.5 1.6 -4.2 -0.2 -0.6 -1.6 1.1 -3 4 -2.9 5.7 -3.2 6.7 -1.7 5.8 0.6 -0.3 1 -1.1 1 -1.7z m3.5 -0.8 c0.3 -0.5 0.4 -1 0.1 -1 -0.3 0 -0.8 0.5 -1.1 1 -0.3 0.6 -0.4 1 -0.1 1 0.3 0 0.8 -0.4 1.1 -1z m9.9 -12.4 c0.3 -4.4 0.6 -12 0.6 -16.8 l0 -8.8 -3.4 0 -3.3 0 -0.7 9.2 c-0.3 5 -0.6 13.3 -0.6 18.4 l0 9.4 3.4 -1.6 c3.3 -1.6 3.3 -1.8 4 -9.8z m-9.4 -3.1 c0 -1.1 -1.4 0.9 -3 4.3 -1.7 3.5 -3 6.9 -3 7.5 0.1 2 5.9 -9.6 6 -11.8z m-0.1 -8 c0 -1.2 -1.2 0.2 -2.9 3.5 -1.6 3 -2.9 6.4 -2.9 7.5 0 1.2 1.2 -0.2 2.9 -3.5 1.6 -3 2.9 -6.4 2.9 -7.5z m-3.5 -0.1 c0.3 -0.8 0.2 -1.2 -0.4 -0.9 -0.6 0.3 -1 1 -1 1.6 0 1.4 0.7 1.1 1.4 -0.7z m1.6 -2.9 c0 -0.3 -0.2 -0.5 -0.5 -0.5 -0.3 0 -0.5 0.2 -0.5 0.5 0 0.3 0.2 0.5 0.5 0.5 0.3 0 0.5 -0.2 0.5 -0.5z m0.4 -6.2 c1.5 -2.5 2.4 -4.8 2.1 -5.1 -0.6 -0.6 -0.6 -0.7 -3.3 4.1 -2.1 3.6 -2.7 5.7 -1.8 5.7 0.2 0 1.6 -2.1 3 -4.7z m2.6 2.1 c0 -2 -0.7 -1.7 -2 0.6 -0.9 1.6 -0.8 1.8 0.5 1.4 0.8 -0.4 1.5 -1.2 1.5 -2z m-4.3 -7.1 c-0.4 -0.3 -0.7 0 -0.7 0.7 0 0.7 0.3 1 0.7 0.7 0.3 -0.4 0.3 -1 0 -1.4z"/>
  <path d="M629 285.2 c0 -1 13 -5.6 13.7 -4.8 0.3 0.3 -1.8 1.7 -4.8 3.1 -5.4 2.5 -8.9 3.2 -8.9 1.7z"/>
  <path d="M951.9 285 c-4.1 -1.2 -7.5 -3.8 -8.8 -6.6 -1.8 -4 -0.4 -4.2 3.1 -0.5 5.6 6 10.8 6.3 15.3 0.9 2 -2.3 2.5 -4.1 2.5 -8.1 0 -2.9 -0.5 -5.9 -1 -6.7 -0.8 -1.3 -1.3 -1.3 -3.9 0.3 -6.2 3.7 -12.5 0.9 -12.3 -5.4 0.1 -4 1.5 -5.5 8.3 -8.9 4.5 -2.3 5.9 -2.7 6.8 -1.7 1.6 2 4.1 12.5 4.7 19.7 0.6 7.7 -1.2 12.2 -6.5 15.7 -3.6 2.5 -4.2 2.6 -8.2 1.3z m7 -24.4 c3.4 -3.6 2.5 -7 -1.8 -7.4 -5.5 -0.6 -10.2 5.3 -6.9 8.6 2 2 6.3 1.4 8.7 -1.2z"/>
  <path d="M265 284 c0 -0.6 3 -1 7 -1 4 0 7 0.4 7 1 0 0.6 -3 1 -7 1 -4 0 -7 -0.4 -7 -1z"/>
  <path d="M55.3 282.5 c0.5 -1.3 8.8 -1.3 8.5 -0.1 -0.2 0.6 -2.2 1 -4.6 1.1 -2.5 0 -4.1 -0.4 -3.9 -1z"/>
  <path d="M523.4 282.6 c-3.3 -1.5 -5.3 -3.6 -3.4 -3.6 0.6 0 2.5 0.7 4.2 1.6 3.1 1.6 5.2 1.6 15.8 -0.1 l3.5 -0.6 -2.9 1.7 c-4 2.2 -13.3 2.8 -17.2 1z"/>
  <path d="M97 282 c0 -0.5 2 -1 4.5 -1 2.5 0 4.5 0.5 4.5 1 0 0.6 -2 1 -4.5 1 -2.5 0 -4.5 -0.4 -4.5 -1z"/>
  <path d="M355.4 281.9 c-0.6 -1.1 3.8 -1.7 17.9 -2.4 7.2 -0.4 11.7 -0.2 11.7 0.4 0 1.4 -28.7 3.4 -29.6 2z"/>
  <path d="M12.4 280.8 c-0.8 -1.3 1.5 -1.8 5.5 -1.2 2.3 0.4 4.1 1.1 4.1 1.6 0 1 -9 0.7 -9.6 -0.4z"/>
  <path d="M136 281.3 c0 -1.7 6.5 -2.3 25.2 -2.3 10.7 0 17.9 0.4 18.3 1 0.4 0.7 -5.2 1 -16.2 1 -9.2 0 -19.2 0.3 -22 0.6 -3.3 0.4 -5.3 0.3 -5.3 -0.3z"/>
  <path d="M626.5 280 c-0.4 -0.6 0.2 -1.3 1.2 -1.5 1 -0.3 5.1 -2.2 9.1 -4.2 8.1 -3.9 10.5 -3.9 4.4 0.2 -5.3 3.5 -13.9 6.7 -14.7 5.5z"/>
  <path d="M524.8 278.9 c-3.1 -1.7 -1.9 -3 1.2 -1.4 1.7 0.9 3 1.8 3 2 0 0.8 -2.4 0.5 -4.2 -0.6z"/>
  <path d="M374.6 277.1 c-0.3 -0.5 1.2 -2 3.4 -3.5 2.1 -1.4 4.1 -2.2 4.4 -1.7 0.3 0.5 -1.2 2 -3.4 3.5 -2.1 1.4 -4.1 2.2 -4.4 1.7z"/>
  <path d="M366 276.5 c0 -0.5 10.7 -7.4 12.7 -8.2 0.7 -0.3 1.3 -0.1 1.3 0.5 0 0.5 -2.7 2.6 -6.1 4.6 -5.6 3.4 -7.9 4.3 -7.9 3.1z"/>
  <path d="M605.1 275.2 c-3.6 -1 -6.6 -2.3 -6.9 -3.1 -0.3 -1 0.2 -1.1 1.9 -0.6 10.6 3.4 19.8 4.3 25.9 2.6 l2.5 -0.7 -3.1 -1.7 c-2 -1 -4.1 -3.4 -5.4 -6.2 -2.1 -4.3 -2.4 -4.6 -5.4 -3.9 -1.7 0.3 -6.9 2.4 -11.5 4.5 -4.6 2.2 -8.6 3.7 -8.9 3.4 -1.8 -1.7 15 -9 23.9 -10.4 3.9 -0.6 8.7 -0.7 12.4 -0.2 7.2 1.1 26.6 6.1 27.9 7.3 1.4 1.1 -3.1 1 -7.6 -0.2 -3.5 -1 -4.1 -0.8 -10.3 3.4 -11 7.6 -21.9 9.4 -35.4 5.8z"/>
  <path d="M140.4 274.9 c-0.9 -1.6 -0.6 -69.1 0.3 -70 0.4 -0.4 6.2 -0.9 12.8 -1 l12 -0.1 -0.4 35.1 -0.3 35.1 2.2 0 c1.1 0 1.8 0.5 1.5 1 -0.9 1.4 -27.2 1.3 -28.1 -0.1z m22.6 -15.2 c0 -7.9 0.3 -23.2 0.7 -34 l0.6 -19.7 -11.1 0 -11.2 0 0 33.3 c0 18.4 0.3 33.7 0.7 34 0.3 0.4 5.1 0.7 10.5 0.7 l9.8 0 0 -14.3z"/>
  <path d="M360 275.1 c0 -0.4 2.8 -3 6.3 -5.7 3.4 -2.6 8.8 -7.3 12 -10.3 5.9 -5.6 9.3 -6.4 4.1 -1 -3.4 3.6 -20.8 17.9 -21.7 17.9 -0.4 0 -0.7 -0.4 -0.7 -0.9z"/>
  <path d="M783 268.3 c-2.4 -8.3 -5.7 -27 -6.5 -37.8 -1.2 -16.6 -2.8 -28.3 -5 -39 -2.5 -11.5 -7.6 -31 -9.4 -35.8 -1.3 -3.4 -1.4 -4.7 -0.3 -4.7 1.1 0 4.4 10.4 9.1 29 4.3 16.9 5.3 23.1 7.6 48 1.5 15.6 5.3 37.6 7.5 43.5 1.2 3.3 1.2 3.5 0 3.5 -0.5 0 -1.8 -3 -3 -6.7z"/>
  <path d="M355 273.1 c0 -0.9 9.2 -8.1 10.4 -8.1 1.7 0 0.1 2 -4.3 5.3 -5 3.8 -6.1 4.3 -6.1 2.8z"/>
  <path d="M352 271.1 c0 -1.3 9.1 -9.4 9.8 -8.7 0.3 0.4 -1.4 2.7 -3.8 5.1 -4.3 4.4 -6 5.4 -6 3.6z"/>
  <path d="M584 267.1 c0 -2 2 -6.1 2.9 -6.1 0.6 0 0.6 1.1 -0.1 3 -1 3 -2.8 5 -2.8 3.1z"/>
  <path d="M972 267.2 c0 -0.5 0.9 -1.7 2 -2.7 1.4 -1.2 2 -3.1 2 -5.7 0 -2.7 0.4 -3.8 1.3 -3.6 2 0.7 1.9 6.1 -0.3 9.6 -1.8 2.9 -5 4.4 -5 2.4z"/>
  <path d="M405.5 265.6 c-2.5 -1.8 -2.7 -8.8 -0.4 -11.2 2.2 -2.1 20.2 -2.6 23 -0.6 2.3 1.6 2.7 9.3 0.5 11.4 -2 2 -20.4 2.4 -23.1 0.4z m22.3 -5.9 l-0.3 -4.2 -10.5 0 -10.5 0 -0.3 3.3 c-0.6 5.7 -0.4 5.7 11.2 5.4 l10.7 -0.3 -0.3 -4.2z"/>
  <path d="M849.7 264.5 c-0.6 -1.4 -4.7 -18.3 -4.7 -19.1 0 -0.2 0.4 -0.4 0.9 -0.4 0.6 0 2 2.8 3.2 6.1 l2.3 6.1 2.7 -3.3 c3 -3.7 3 -3.7 5.3 0.9 2.1 4 2.9 4 4.4 -0.1 1.5 -4.1 3.8 -7.4 4.7 -6.6 0.8 0.8 -5.3 16.9 -6.4 16.9 -0.4 0 -1.6 -1.8 -2.6 -4 -1 -2.2 -2.4 -4 -3 -4 -0.7 0 -2 1.8 -2.8 3.9 -1.8 4.5 -3.2 5.7 -4 3.6z"/>
  <path d="M897.5 263.5 c-2.8 -2.8 -3.1 -5.1 -1.1 -9.9 2.7 -6.5 8.8 -8.5 13.1 -4.1 3.8 3.7 3.4 8.8 -0.9 13.1 -4.1 4.1 -7.7 4.4 -11.1 0.9z m9 -3 c2.7 -2.6 3 -4.1 1.5 -7.9 -1.9 -5.2 -10 -1.2 -10 5 0 5.9 4.2 7.3 8.5 2.9z"/>
  <path d="M935.6 263.3 c-0.3 -1 -1 -3.7 -1.6 -6 -1.3 -5 -3.3 -7.3 -6.5 -7.3 -3.1 0 -5.3 3.3 -6.1 9.2 -0.7 5.1 -2.1 6.3 -2.8 2.6 -0.8 -4.4 -2.4 -19.3 -2.1 -19.7 0.9 -0.9 2.5 1.3 3.1 4.4 0.7 4 1 4.1 3.5 1.9 5.9 -5.4 14.9 3.4 14.9 14.5 0 2.6 -1.7 2.8 -2.4 0.4z"/>
  <path d="M998.5 263.7 c-0.8 -1.9 0 -15.5 0.9 -16.4 0.3 -0.3 1 -0.2 1.7 0.3 1.4 0.8 6.6 1.4 12.5 1.5 5 0 7.2 2.1 8.1 7.2 0.6 4.2 -0.3 9 -1.7 8.2 -0.6 -0.3 -1 -2.8 -1 -5.4 0 -6.6 -2.2 -8.5 -4.8 -4.1 -2.6 4.2 -3.2 4.2 -4.6 0 -2 -6.2 -6.9 -4.5 -8.1 2.8 -0.4 2 -1 4.6 -1.5 5.7 -0.7 1.9 -0.8 1.9 -1.5 0.2z"/>
  <path d="M874.7 261.8 c-1.1 -4.6 -1.9 -15.7 -1.2 -16.8 0.5 -0.8 1.1 -0.8 2.1 0.1 1.1 0.9 2.3 0.8 5.3 -0.5 4.1 -1.9 8.2 -1.8 8.9 0.2 0.2 0.8 -0.7 1.2 -2.9 1.2 -1.9 0 -4.6 1 -6.6 2.6 -3.1 2.4 -3.3 2.8 -3.3 9 0 6.3 -1.3 8.6 -2.3 4.2z"/>
  <path d="M594.6 262.2 c-0.7 -1.2 6 -7.4 10.3 -9.7 1.7 -0.8 3.1 -1.1 3.1 -0.6 0 0.6 -1 1.5 -2.2 2.2 -1.3 0.6 -4.2 2.9 -6.4 5.1 -2.3 2.2 -4.4 3.5 -4.8 3z"/>
  <path d="M639 255.5 c-6.1 -4.7 -15.9 -7.9 -24 -7.9 -6.9 0 -10.4 1.3 -15.9 6 -2.2 1.9 -3.1 2.2 -3.1 1.1 0 -2 8.3 -7.4 13.4 -8.8 8.4 -2.4 28.1 3.7 34.5 10.5 3.6 3.8 0.5 3.2 -4.9 -0.9z"/>
  <path d="M363.6 256.1 c-1.1 -1.7 1.1 -9.1 3.8 -12.9 1.4 -2 4.4 -5.2 6.5 -6.9 2.2 -1.8 5 -4.7 6.3 -6.5 l2.3 -3.3 -3.5 2.7 c-1.9 1.4 -5.8 3.7 -8.6 5.1 -2.8 1.4 -6.3 4 -7.8 5.8 -3.5 4.1 -4.6 2.9 -1.3 -1.4 1.4 -1.9 5.7 -5 9.5 -7 6.4 -3.4 13.2 -9.4 13.2 -11.7 0 -0.6 0.5 -1 1 -1 0.6 0 1 0.9 1 2 0 3.7 -4.1 10.2 -10 15.9 -6.5 6.3 -10 11.5 -10 14.9 0 2.7 -0.2 2.7 6.5 -0.2 3 -1.4 7.1 -4.2 9 -6.3 2.4 -2.6 3.5 -3.3 3.5 -2.1 0 2.7 -6.7 8.6 -12.3 10.7 -2.9 1 -5.9 2.2 -6.8 2.6 -1 0.3 -2 0.2 -2.3 -0.4z"/>
  <path d="M772.7 250.6 c-1.5 -3.5 -4 -12.8 -5.6 -20.7 -5 -24.3 -9 -41.5 -10.7 -46.6 -2.7 -8.3 -10.1 -23.1 -14.9 -30 -4.2 -6 -5.2 -8.4 -2.7 -6.9 1.2 0.7 7 9.4 10.5 15.7 7.8 14.1 10.2 22.1 18.2 59.4 2.6 12.1 5.8 24.7 7.1 28.1 2.7 6.7 2.8 7.4 1.5 7.4 -0.5 0 -2 -2.9 -3.4 -6.4z"/>
  <path d="M319.5 232.1 c-0.4 -11 -0.4 -20.4 0 -21 0.7 -1.2 8.5 -1.5 13.4 -0.5 l3.1 0.7 -0.2 20.1 -0.3 20.1 -7.6 0.3 -7.6 0.3 -0.8 -20z m14.5 -0.5 l0 -18.5 -5.5 -0.6 c-3.1 -0.4 -5.9 -0.4 -6.3 -0.1 -0.7 0.8 -0.8 4.1 -0.4 23.9 l0.2 13.7 6 0 6 0 0 -18.4z"/>
  <path d="M266 231.1 l0 -20.1 -8 0 -7.9 0 -0.3 6.8 c-0.4 9.3 -2.3 8.5 -2.3 -1 0 -9.1 -0.1 -9 12.6 -8.7 l7.9 0.2 0.2 15.3 c0.4 26.5 0.4 26.7 -0.9 27.2 -1 0.3 -1.3 -4.1 -1.3 -19.7z"/>
  <path d="M669.9 247.4 c-0.7 -0.9 -2.5 -2.1 -3.9 -2.7 -2.5 -1.1 -2.5 -1.1 -0.2 -1.5 2.1 -0.3 7.1 3.2 7.2 5.1 0 1.2 -1.7 0.8 -3.1 -0.9z"/>
  <path d="M403 245.2 c0 -0.6 8 -1.2 20.8 -1.6 11.4 -0.3 27.8 -0.9 36.5 -1.2 10.4 -0.4 15.7 -0.3 15.7 0.4 0 1.4 -10.8 2 -44.7 2.8 -18.6 0.4 -28.3 0.3 -28.3 -0.4z"/>
  <path d="M530.1 241.6 c-1.2 -1.8 -4.1 -5.2 -6.6 -7.5 -4.6 -4.3 -5.2 -5.1 -3.5 -5.1 2.3 0 14 12.8 14 15.4 0 1.7 -2.1 0.2 -3.9 -2.8z"/>
  <path d="M27.6 241.4 c-0.8 -2 -0.8 -33.2 0 -36.1 0.6 -2.2 1.2 -2.3 9.4 -2.3 7.1 0 8.9 0.3 9.4 1.6 0.3 0.9 0.6 9.6 0.6 19.3 l0 17.8 -5.2 0.7 c-9.1 1 -13.5 0.8 -14.2 -1z m12.2 -1 l5.2 -0.7 0 -17.3 0 -17.4 -7.4 0 c-6.8 0 -7.4 0.2 -8 2.3 -0.8 3 -0.8 32.2 0.1 33 0.8 0.9 3.3 0.9 10.1 0.1z"/>
  <path d="M576.5 238.5 c-1 -2.5 -1.4 -5.2 -1 -6.2 0.5 -1.4 1 -0.7 2 2.7 0.6 2.5 1.5 5.3 2 6.3 0.4 1 0.3 1.7 -0.3 1.7 -0.6 0 -1.8 -2 -2.7 -4.5z"/>
  <path d="M580.5 239.7 c-0.8 -4 0.9 -11 3 -12.7 2.5 -2 2.6 -0.7 0.5 3.6 -1.6 2.9 -1.9 4.9 -1.4 8.2 0.8 5.1 -1.2 5.9 -2.1 0.9z"/>
  <path d="M660.8 241.3 c-1 -0.2 -1.8 -0.9 -1.8 -1.5 0 -0.6 1 -0.8 2.3 -0.4 1.2 0.3 2.5 0.6 3 0.6 0.4 0 0.7 0.5 0.7 1 0 1 -1.2 1.1 -4.2 0.3z"/>
  <path d="M519.1 234.9 c-6.8 -6.2 -7 -7.8 -0.5 -3 5 3.7 8.8 7.8 7.7 8.4 -0.4 0.3 -3.7 -2.2 -7.2 -5.4z"/>
  <path d="M585 237.6 c0 -2 1.1 -5.9 2.5 -8.6 2.6 -5.2 4 -6.6 4.9 -5.1 0.4 0.5 0.1 1.3 -0.5 1.7 -1.5 0.9 -4.9 8.4 -4.9 10.8 0 1.1 1.1 -0.3 2.5 -3.1 2.6 -5.2 8.6 -10.8 10.8 -10 0.6 0.2 -0.1 1.2 -1.7 2.2 -2.8 1.9 -8.6 9 -8.6 10.6 0 0.4 2.6 -1.9 5.8 -5.1 5.4 -5.3 16.2 -12.2 16.2 -10.2 0 0.5 -2.6 2.5 -5.8 4.5 -3.2 2 -7.9 5.8 -10.3 8.4 -2.4 2.6 -5 4.7 -5.6 4.5 -0.7 -0.2 -1.3 0.3 -1.3 0.9 0 0.7 -0.3 0.9 -0.7 0.6 -0.3 -0.4 -1.2 -0.2 -2 0.4 -1 0.9 -1.3 0.4 -1.3 -2.5z"/>
  <path d="M652 237 c0 -0.5 2 -1 4.4 -1 2.5 0 4.8 0.5 5.1 1 0.4 0.6 -1.3 1 -4.4 1 -2.8 0 -5.1 -0.4 -5.1 -1z"/>
  <path d="M595 236.1 c0 -1.2 11.3 -9.7 16 -12.1 5.3 -2.7 13.9 -5 14.5 -3.9 0.7 1 -0.1 1.3 -5 2.4 -4.6 1 -12.1 5 -18.6 10 -6.2 4.7 -6.9 5.1 -6.9 3.6z"/>
  <path d="M610.5 235 c-0.8 -1.3 15.1 -8.8 20.3 -9.6 6.1 -1 5.3 1 -1.1 2.5 -2.9 0.6 -8.2 2.7 -11.9 4.6 -3.7 1.9 -7 3 -7.3 2.5z"/>
  <path d="M641.6 235.2 c-0.3 -0.5 0.1 -1.3 1 -1.6 2.5 -1 11.2 -0.7 11.9 0.4 0.4 0.6 -1.1 1 -3.7 1 -2.4 0 -5.3 0.3 -6.4 0.6 -1.2 0.3 -2.4 0.1 -2.8 -0.4z"/>
  <path d="M619.8 233.8 c3.1 -3.8 28.2 -9.9 28.2 -6.8 0 0.6 -1.9 1 -4.2 1 -2.4 0 -8.1 1.4 -12.8 3.1 -13.1 4.6 -12.7 4.5 -11.2 2.7z"/>
  <path d="M628 234 c0 -1.5 6.9 -3.2 15.9 -3.7 6.1 -0.4 8.2 -0.3 7.7 0.6 -0.4 0.6 -3.3 1.1 -6.4 1.1 -3.1 0 -8.2 0.7 -11.2 1.5 -6.6 1.8 -6 1.7 -6 0.5z"/>
  <path d="M355.3 230.3 c1 -5.9 6.1 -15.1 12.8 -23.3 7.2 -8.7 9.2 -12.8 11.3 -22.6 2 -9.9 5.8 -16.8 12.9 -23.8 6.5 -6.3 8.6 -6.2 4.2 0.1 -3.6 5.4 -5.4 12.3 -6.4 24.9 -0.9 13.1 -2.2 15.8 -12.1 26.4 -3.8 4.1 -8 9.6 -9.3 12.3 -2 4.4 -3.7 6 -3.7 3.7 0 -2.7 4.4 -9.2 11.5 -17 9.5 -10.6 11.5 -14.8 11.5 -24.5 0 -8.3 1.5 -16.5 3.8 -21 l1.5 -3 -2.3 2 c-4 3.6 -7 10.1 -9.6 20.5 -2.7 10.9 -4.8 15 -12.6 24.3 -5.5 6.6 -10.3 15.5 -11.3 21 -1 4.9 -3 4.9 -2.2 0z"/>
  <path d="M605 233.3 c0.1 -2.5 19.7 -11.3 25.2 -11.3 3.9 0 1.5 1.8 -3.9 2.9 -3.1 0.6 -8.9 2.9 -12.9 5.1 -7.6 4.2 -8.4 4.5 -8.4 3.3z"/>
  <path d="M414.3 231.2 c-2.9 -0.4 -5.3 -3.8 -5.3 -7.5 0 -5.1 3.2 -24.7 5.4 -33 3 -11.7 3 -11.7 33.4 -12.4 21.5 -0.5 24 -0.4 25.5 1.2 2.3 2.2 2.2 3.9 -1.8 26.9 -3 17.7 -3.7 20.2 -6 22.5 l-2.5 2.6 -23.3 0 c-12.7 0 -24.2 -0.1 -25.4 -0.3z m48.9 -2.7 c2.2 -0.9 3.3 -4.7 5.8 -20 1 -6.6 2.2 -14 2.6 -16.5 0.4 -2.5 0.8 -6.1 0.8 -8 l0.1 -3.5 -24 0.4 c-13.1 0.2 -25.1 0.7 -26.5 1.1 -1.4 0.3 -3.1 1.9 -3.8 3.4 -1.8 3.6 -4.8 18.3 -6.2 30.2 -1.7 13.7 -2.2 13.3 15.8 13.7 17.9 0.5 33.1 0.1 35.4 -0.8z"/>
  <path d="M442.2 218.8 c0.6 -1.8 7.7 -7.2 8.5 -6.5 0.3 0.4 -1.1 2.3 -3.3 4.2 -4 3.5 -5.9 4.4 -5.2 2.3z"/>
  <path d="M435 218.2 c0 -1.4 7.9 -8.6 8.7 -7.8 0.4 0.4 -1 2.5 -3.2 4.6 -3.9 3.9 -5.5 4.8 -5.5 3.2z"/>
  <path d="M429 214.1 c0 -1.4 15.8 -15.2 16.4 -14.2 0.5 0.8 -14.5 15.1 -15.8 15.1 -0.3 0 -0.6 -0.4 -0.6 -0.9z"/>
  <path d="M426 208.3 c0 -1.5 15.9 -16.7 16.6 -16 0.4 0.4 -0.6 2.1 -2.2 3.8 -4.6 4.9 -14.4 13.2 -14.4 12.2z"/>
  <path d="M424 201.4 c0 -1 8.4 -11.4 9.2 -11.4 1.5 0 0.8 1.3 -3.3 6.7 -3.7 4.7 -5.9 6.5 -5.9 4.7z"/>
  <path d="M302.7 225.3 c-0.4 -0.3 -0.7 -3.3 -0.7 -6.5 l0 -5.8 -5.2 0 c-2.9 0 -6.3 -0.3 -7.5 -0.6 -2.2 -0.6 -2.3 -0.4 -2.3 5.5 0 3.4 -0.4 6.1 -1 6.1 -0.6 0 -1 -3 -1 -6.9 l0 -6.9 9.5 0.1 9.5 0.2 0 7.8 c0 7.7 -0.1 8.3 -1.3 7z"/>
  <path d="M771 218.7 c0 -12.5 -3.5 -32.9 -8.2 -47.7 -4.8 -14.9 -14.1 -32 -25.8 -47.2 -3.4 -4.5 -0.5 -3.2 3.5 1.4 13.7 16 26.2 44.7 30.4 70.3 2.1 12.3 2.8 28.5 1.4 28.5 -0.9 0 -1.3 -1.7 -1.3 -5.3z"/>
  <path d="M69 211.6 c0 -3.6 0.4 -6.8 1 -7.1 0.5 -0.3 5.5 -0.3 11 0.1 l10 0.7 0 5.9 c0 3.7 -0.4 5.7 -1 5.3 -0.5 -0.3 -1 -2.6 -1 -5.1 l0 -4.4 -3.7 0 c-2.1 0 -6.2 -0.3 -9 -0.6 l-5.3 -0.7 0 6.2 c0 3.4 -0.4 6.1 -1 6.1 -0.6 0 -1 -2.8 -1 -6.4z"/>
  <path d="M356.4 206.7 c6.5 -4.1 6.9 -4.9 7.6 -14.9 0.4 -5.3 1.1 -10.2 1.5 -10.9 0.5 -0.8 -0.4 -0.3 -2 1.1 -3.4 3.1 -7.2 8.9 -8.1 12.4 -0.7 2.9 -2.4 3.5 -2.4 0.9 0 -4.8 11.6 -19.3 15.3 -19.3 1.1 0 1 1.1 -0.4 5.3 -1 2.8 -1.8 8 -1.9 11.5 0 7.4 -1.8 11.5 -6 13.7 -3.4 1.8 -6.4 1.9 -3.6 0.2z"/>
  <path d="M506 205.6 c0 -1.8 5.7 -10.3 12.6 -18.8 8.4 -10.1 19 -19.8 30 -27 11.1 -7.4 31.2 -18.8 33.2 -18.8 3 0 0.5 1.9 -9.3 6.9 -27.8 14.3 -49.8 33.3 -62.7 54.4 -3.1 5 -3.8 5.6 -3.8 3.3z"/>
  <path d="M942.9 197 c-4.1 -1.2 -7.5 -3.8 -8.8 -6.6 -1.8 -4 -0.4 -4.2 3.1 -0.5 5.6 6 10.8 6.3 15.3 0.9 2 -2.3 2.5 -4.1 2.5 -8.1 0 -2.9 -0.5 -5.9 -1 -6.7 -0.8 -1.3 -1.3 -1.3 -3.9 0.3 -6.2 3.7 -12.5 0.9 -12.3 -5.4 0.1 -4 1.5 -5.5 8.3 -8.9 4.5 -2.3 5.9 -2.7 6.8 -1.7 1.6 2 4.1 12.5 4.7 19.7 0.6 7.7 -1.2 12.2 -6.5 15.7 -3.6 2.5 -4.2 2.6 -8.2 1.3z m7 -24.4 c3.4 -3.6 2.5 -7 -1.8 -7.4 -5.5 -0.6 -10.2 5.3 -6.9 8.6 2 2 6.3 1.4 8.7 -1.2z"/>
  <path d="M1005.9 197 c-4.1 -1.2 -7.5 -3.8 -8.8 -6.6 -1.8 -4 -0.4 -4.2 3.1 -0.5 5.6 6 10.8 6.3 15.3 0.9 2 -2.3 2.5 -4.1 2.5 -8.1 0 -2.9 -0.5 -5.9 -1 -6.7 -0.8 -1.3 -1.3 -1.3 -3.9 0.3 -6.2 3.7 -12.5 0.9 -12.3 -5.4 0.1 -4 1.5 -5.5 8.3 -8.9 4.5 -2.3 5.9 -2.7 6.8 -1.7 1.6 2 4.1 12.5 4.7 19.7 0.6 7.7 -1.2 12.2 -6.5 15.7 -3.6 2.5 -4.2 2.6 -8.2 1.3z m7 -24.4 c3.4 -3.6 2.5 -7 -1.8 -7.4 -5.5 -0.6 -10.2 5.3 -6.9 8.6 2 2 6.3 1.4 8.7 -1.2z"/>
  <path d="M75.5 195.8 c-7.7 -0.5 -25.7 -0.7 -39.9 -0.4 -18.6 0.4 -25.6 0.2 -24.9 -0.5 2.8 -2.8 91.8 -1.7 94.8 1.2 1.1 1.1 -10.2 1 -30 -0.3z"/>
  <path d="M633.7 185.3 c-3.7 -3.2 -9.2 -9.1 -12.2 -13 -6.2 -8 -12.5 -20.6 -12.5 -24.9 0 -3.8 1.3 -2 3.3 4.7 3.1 10.1 13.6 24.6 23.8 32.6 5.5 4.2 7.1 6.3 5.1 6.3 -0.5 0 -3.8 -2.6 -7.5 -5.7z"/>
  <path d="M96.5 184.3 c-9.6 -0.8 -31.6 -1.4 -50.2 -1.5 -18.3 0 -33.3 -0.4 -33.3 -0.8 0 -1.2 39.5 -2.3 53.3 -1.6 25.3 1.4 45.3 2.7 47.5 3.2 1.3 0.2 2 0.9 1.7 1.4 -0.3 0.6 -0.9 0.9 -1.3 0.9 -0.4 -0.1 -8.3 -0.8 -17.7 -1.6z"/>
  <path d="M328.5 181.1 c-1 -3.1 0.3 -7.8 4.3 -15.4 3 -6 3.6 -8.1 4.2 -16.7 0.5 -8.4 1 -10.4 3.3 -13.8 1.5 -2.1 4 -4.8 5.7 -6 4.5 -3.4 6.5 -2.7 3.5 1.2 -2.4 3.2 -2.8 9.7 -1 17.2 0.9 3.8 1.8 7.7 2 8.7 0.6 3 -1.5 8.8 -5.1 14 -2 2.9 -3.4 6.2 -3.4 7.9 0 1.7 -0.4 2.7 -1 2.3 -2.1 -1.3 -0.9 -6.2 3 -12 4.6 -6.9 5.1 -11 2.4 -20.3 -1.1 -3.6 -1.5 -7.4 -1.1 -10.9 0.3 -2.9 0.4 -5.3 0.1 -5.3 -0.2 0 -1.6 1.8 -3.1 4.1 -2.2 3.4 -2.8 5.6 -3.3 13.7 -0.6 8.6 -1.1 10.5 -4.4 16.8 -2.1 4 -3.9 8.9 -4.1 11.3 -0.3 4.9 -1.1 6.1 -2 3.2z"/>
  <path d="M632.2 176.8 c-4.8 -6.4 -9.7 -15.9 -12.8 -25.2 -2.6 -7.5 -2.8 -8.6 -1.6 -8.6 0.4 0 1.8 3 3 6.8 3.4 9.8 8.6 20 13.2 26 2.2 2.9 4 5.5 4 5.7 0 1.7 -2.3 -0.2 -5.8 -4.7z"/>
  <path d="M876.6 179.9 c-0.3 -1.3 -0.8 -4.6 -1.1 -7.3 -0.4 -2.7 -1.2 -5.7 -1.8 -6.7 -0.8 -1.3 -0.8 -2.4 0.3 -4.4 1.2 -2.2 1.2 -4.2 -0.2 -14.3 -0.9 -6.4 -1.4 -11.9 -1.2 -12.1 1.3 -1.3 2.7 2.8 3.9 11.4 0.8 5.4 1.8 10.1 2.2 10.5 0.4 0.4 2.4 1.3 4.4 1.9 6.1 1.9 9.9 8 9.9 15.7 0 4.2 -1.8 5.4 -2.5 1.7 -2.3 -11.1 -3.6 -13.3 -8.1 -14.7 -3.6 -1.1 -4.7 1.5 -4.2 10.4 0.5 7.9 -0.5 12.9 -1.6 7.9z"/>
  <path d="M965.4 177 c-4.2 -1.7 -4 -3.3 0.3 -2.5 3.1 0.5 4.4 0.2 5.8 -1.1 1.7 -1.7 1.7 -1.9 -0.5 -3.4 -4.1 -2.8 -7 -5.9 -7 -7.5 0 -3 4.8 -6.7 8.2 -6.3 4.6 0.4 4.7 2.6 0.2 3 -4.6 0.4 -6.9 3.4 -4 5.2 4.3 2.6 7.6 5.9 7.6 7.5 0 3.8 -6.4 6.9 -10.6 5.1z"/>
  <path d="M1027.5 175.5 c-2.8 -2.8 -3.1 -5.1 -1.1 -9.9 2.7 -6.5 8.8 -8.5 13.1 -4.1 3.8 3.7 3.4 8.8 -0.9 13.1 -4.1 4.1 -7.7 4.4 -11.1 0.9z m9 -3 c2.7 -2.6 3 -4.1 1.5 -7.9 -1.9 -5.2 -10 -1.2 -10 5 0 5.9 4.2 7.3 8.5 2.9z"/>
  <path d="M857.8 176.4 c-0.5 -0.4 -0.8 -2.8 -0.8 -5.3 0 -7.8 -0.7 -9.1 -4.9 -9.1 -3.7 0 -7 -1.4 -5.5 -2.3 0.5 -0.2 2.8 -0.8 5.2 -1.2 l4.2 -0.7 0 -6 c0 -5.3 0.2 -5.9 1.5 -4.8 0.9 0.7 1.5 2.9 1.5 5.2 0 3.9 0.2 4.1 5.3 5.2 3.3 0.8 3.6 2.6 0.5 2.6 -4.2 0 -5 1.4 -5.7 9.5 -0.3 4.2 -0.9 7.3 -1.3 6.9z"/>
  <path d="M897.4 175.5 c-0.8 -2 0.5 -12.3 1.6 -13 1.3 -0.8 1.9 3.2 1.3 9.1 -0.6 5.3 -1.8 6.9 -2.9 3.9z"/>
  <path d="M926.6 175.3 c-0.3 -1 -1 -3.7 -1.6 -6 -1.3 -5 -3.3 -7.3 -6.5 -7.3 -3.1 0 -5.3 3.3 -6.1 9.2 -0.7 5.1 -2.1 6.3 -2.8 2.6 -0.8 -4.4 -2.4 -19.3 -2.1 -19.7 0.9 -0.9 2.5 1.3 3.1 4.4 0.7 4 1 4.1 3.5 1.9 5.9 -5.4 14.9 3.4 14.9 14.5 0 2.6 -1.7 2.8 -2.4 0.4z"/>
  <path d="M256.5 171.4 c-1.7 -2.7 -1.7 -4.1 0.1 -17.1 0.5 -3.4 0.1 -5.1 -2 -8.9 -4.4 -7.8 -4.7 -10.5 -2.6 -20.8 2 -9.2 2.3 -16.7 1.1 -22.1 l-0.8 -3 -1.2 4.5 c-0.7 2.5 -3.2 7.8 -5.6 11.9 -5.1 8.5 -6.2 13.9 -4.6 21.7 1.2 6.3 0.1 13.4 -3.1 19.7 -2.8 5.7 -3.3 3.8 -0.8 -3 2 -5.2 2.1 -7 1.5 -16.3 -0.7 -11.8 -0.3 -13.5 6 -24.5 4.6 -8.2 5.7 -15.7 3.1 -21.9 -3.2 -7.8 0.9 -5.3 5 2.9 3.4 7.1 4.2 18.3 2 27.8 -2.5 10.6 -2.1 14.6 2 22.5 l3.6 6.9 -1.6 5.6 c-2 6.8 -2 10.7 -0.1 13.3 1.7 2.2 1.9 3.4 0.6 3.4 -0.5 0 -1.6 -1.2 -2.6 -2.6z"/>
  <path d="M691 168.7 c-11.5 -9.1 -26.4 -27.2 -34.5 -41.9 -2 -3.7 -3.5 -7.5 -3.3 -8.5 0.3 -1.3 0.9 -0.6 2.2 2.2 4.9 11.5 30 43.6 32.7 41.9 0.5 -0.3 0.9 0.2 0.9 1 0 0.8 2 2.9 4.5 4.6 4.1 2.8 5.7 5 3.8 5 -0.5 0 -3.3 -1.9 -6.3 -4.3z"/>
  <path d="M314.2 162.7 c0.3 -3.9 1.7 -8.9 3.6 -13.3 4.3 -9.7 4.7 -13.3 2.7 -25.1 -2.6 -15.4 -0.4 -22.4 9.5 -30.7 10.4 -8.8 17 -18.2 17 -24.1 0 -4.8 2.8 -2.8 4 2.8 1.9 9.3 -0.6 16.3 -10.1 27.7 -5.3 6.5 -7.2 10.8 -7.4 16.8 -0.1 2.9 -0.5 5.5 -0.8 5.8 -1.1 1.1 -2 -4.6 -1.3 -8.8 0.9 -5.3 2.5 -8.3 8.7 -16 6.7 -8.3 8.9 -13 8.9 -19.8 l0 -5.5 -1.9 4 c-2.6 5.5 -7.5 11.4 -14.8 17.5 -10.2 8.6 -12.3 16 -9.2 33.4 1.4 8.3 0.9 11.9 -3.6 23.4 -2.2 5.6 -3.5 10.9 -3.5 13.7 0 2.7 -0.5 4.5 -1.1 4.5 -0.8 0 -1 -2 -0.7 -6.3z"/>
  <path d="M292.2 166.8 c-2.4 -3.2 -4.2 -8 -4.2 -11.8 0 -4.6 1 -6.9 7.7 -17.2 6 -9.2 8.3 -15.5 8.3 -22.3 0 -3 0.4 -5.5 0.8 -5.5 1 0 4.3 4.4 6.5 8.6 4.6 8.9 3.8 16.8 -2.5 26.5 -4.7 7.4 -5.6 11.4 -3.4 15.7 1.9 3.6 2 4.2 0.6 4.2 -1.5 0 -4 -5.6 -4 -9.2 0 -2.2 1.7 -6.2 5.1 -11.8 4.9 -8.2 5 -8.7 4.6 -15 -0.2 -4.6 -1 -7.6 -2.8 -10.5 l-2.4 -4 -0.6 5 c-0.7 5.7 -4 12.6 -10.7 22.8 -4.2 6.3 -4.7 7.6 -4.7 12.8 0 4.4 0.5 6.4 2.3 8.8 1.2 1.6 2.2 3.3 2.2 3.6 0 1 -1.7 0.5 -2.8 -0.7z"/>
  <path d="M363.6 164.9 c-2.1 -10.5 0 -16.3 9.6 -26.6 10 -10.8 13.9 -16.5 14.5 -21.4 1 -7.4 4.3 -3.3 4.3 5.3 0 6.6 -2.3 11.6 -8.7 19.1 -4.8 5.5 -7.3 10.9 -7.3 15.6 0 1.1 -0.4 2.1 -1 2.1 -1.5 0 -1.2 -5.6 0.6 -9.8 0.8 -2 3.4 -5.9 5.7 -8.7 5.5 -6.5 8.7 -13 8.7 -17.4 l0 -3.6 -2.8 4.7 c-1.5 2.5 -6.2 8.3 -10.4 12.8 -10.2 10.8 -12.3 15.1 -11.5 24.1 0.6 7 -0.5 9.5 -1.7 3.8z"/>
  <path d="M209.4 165.6 c-0.3 -0.9 -0.4 -4.3 -0.2 -7.5 0.4 -6.1 0.6 -6.4 9.3 -18.4 3.8 -5.3 5.3 -9.5 6.2 -17.4 0.3 -2.9 1 -5.3 1.4 -5.3 1.6 0 5.9 9.9 5.9 13.6 0 1.9 -1.4 7.8 -3.2 13 -3.3 9.8 -3.3 9.5 -0.3 16.7 1.2 2.9 -1.3 1.9 -3 -1.3 -2.1 -4.1 -1.9 -6.3 1.5 -16.3 1.7 -4.9 3 -10.3 3 -12 -0.1 -3.5 -2.8 -10.4 -2.9 -7.4 -0.2 4.5 -4.6 14.7 -8.6 19.9 -6.5 8.4 -7.7 11.2 -7.4 17.4 0.3 5.5 -0.6 8 -1.7 5z"/>
  <path d="M97.8 162.9 c-5.4 -6.9 -6.2 -14.5 -2.8 -24.4 2.1 -6 2.5 -10.2 1.3 -14.4 -0.5 -2 -0.8 -1.6 -2 3 -0.8 3 -3.4 8.5 -5.9 12.2 -5.7 8.4 -6.4 12.6 -3.5 19.2 2.5 5.7 2 7.1 -0.8 2.4 -4.6 -7.6 -4 -12.4 2.9 -23.4 5.1 -8.1 6.7 -13.8 5.5 -19.4 -1 -4.8 1.1 -3.8 4 1.9 3 5.9 3.1 10.4 0.5 18.8 -3.1 9.9 -2.2 18 2.6 23.4 0.9 0.9 1.4 2.2 1.2 2.9 -0.3 0.8 -1.5 -0.2 -3 -2.2z"/>
  <path d="M658.6 156.9 c-4.5 -5.3 -11 -18.6 -13 -26.5 -1.8 -7.1 -2.1 -12.8 -0.6 -11.9 0.6 0.3 1 1.9 1 3.5 0 6.6 7.8 25.8 13.2 32.6 4.6 5.7 5 6.4 4 6.4 -0.6 0 -2.6 -1.9 -4.6 -4.1z"/>
  <path d="M186.6 155.3 c0.4 -1 0.8 -6.1 0.9 -11.3 0.1 -5.7 0.6 -10.5 1.4 -12 0.8 -1.4 5.1 -6.3 9.6 -11 4.5 -4.7 9 -10 10 -11.9 2.3 -4.5 3.4 -13.4 2.5 -20.1 -0.4 -3 -0.4 -5.9 0 -6.3 1 -1.1 6.7 11.1 8.5 18.1 2 7.5 0.6 13.1 -5.9 23.4 -6 9.4 -8.1 14.8 -7.2 18.5 0.5 1.8 0.3 2.4 -0.6 2.1 -3.6 -1.2 -1.7 -9.6 4.2 -18.6 6.8 -10.5 8 -13.6 8 -19.9 0 -3.4 -0.8 -7.4 -1.9 -9.8 l-1.8 -4 -0.7 5.5 c-1.3 9.1 -4.7 15.1 -14.5 25.5 -9.8 10.2 -9.6 9.7 -9.2 21.5 0.3 6.8 -1 12 -3 12 -0.7 0 -0.8 -0.6 -0.3 -1.7z"/>
  <path d="M447.5 152.5 c-0.4 -2.5 -0.4 -7.4 0 -10.9 l0.6 -6.5 10.7 -0.3 c5.9 -0.2 10.8 -0.3 10.8 -0.3 0.1 0 0.3 5 0.5 11 l0.4 11 -11.2 0.3 -11.2 0.3 -0.6 -4.6z m20.5 -6.5 l0 -9 -8.9 0 -8.8 0 -0.7 6.1 c-0.7 7.2 0 10.6 2.2 11.2 1 0.3 5 0.5 9 0.6 l7.2 0.1 0 -9z"/>
  <path d="M61.4 153.4 c-2.6 -3.9 -1.9 -8.4 2.3 -15.5 4.1 -6.9 4.5 -10.3 2.8 -26.2 l-0.7 -6.8 5.3 -10.5 c5.9 -11.7 6.1 -13 4.5 -31.4 -1 -11.3 0 -16 4.7 -22.1 4.1 -5.4 6.4 -6.4 5.1 -2.3 -0.5 1.6 -0.9 6.1 -0.9 9.9 0 5.7 0.6 8.2 3 13.5 4.2 9.1 4.1 16.6 -0.5 27.5 -3.4 8.4 -4.4 16.6 -2.7 23.3 0.6 2.1 0.5 3.2 -0.2 3.2 -1.8 0 -3.4 -8.2 -2.7 -14.3 0.3 -3.2 2 -9.1 3.8 -13 4.2 -9.6 4.3 -17.5 0.4 -26.2 -1.7 -3.6 -3.1 -8.9 -3.5 -13 l-0.8 -7 -2.3 5 c-2.1 4.5 -2.2 5.6 -1.4 14.5 1.7 19.2 1.4 21.3 -4.4 32.9 -5.7 11.4 -6.2 14.3 -3.7 23.6 1.8 7.1 1.2 10.2 -3.6 19.2 -4.1 7.7 -5 13.1 -2.4 15.3 1.7 1.4 2 3 0.5 3 -0.5 0 -1.7 -1.2 -2.6 -2.6z"/>
  <path d="M495 144.5 l0 -10.5 10 0 10 0 0 3.5 c0 1.9 -0.4 3.5 -1 3.5 -0.5 0 -1 -1.1 -1 -2.5 0 -2.5 -0.1 -2.5 -8 -2.5 l-8 0 0 8.5 0 8.5 6.9 0 c3.9 0 7.3 0.5 7.6 1 0.4 0.6 -2.5 1 -7.9 1 l-8.6 0 0 -10.5z"/>
  <path d="M48.6 151.1 c-3 -5.7 -3 -10.2 -0.1 -18.2 4.2 -11.4 4.2 -14.1 0.1 -25.2 -4.2 -11.2 -4.5 -16.7 -1.5 -24.7 3.4 -8.9 3.6 -18 0.6 -27.3 -1.4 -4.2 -2.1 -7.9 -1.7 -8.2 1.5 -1 10 11.6 11.6 17.3 1.6 5.3 1.6 6.4 -0.1 17.4 -1.8 11.2 -1.8 12 -0.1 15.4 2.1 4.5 1.5 5.4 -1.3 1.8 -2.5 -3.2 -2.6 -6.9 -0.6 -18.4 0.9 -4.8 1.3 -10.3 0.9 -12.5 -0.6 -3.9 -5.2 -14.1 -5.9 -13.3 -0.2 0.2 0.1 2.4 0.6 4.8 1.4 6 0.5 16.1 -2.1 23.5 -2.7 7.6 -2.2 14.3 1.9 24.5 3.7 9.1 3.8 14.2 0.7 21.8 -3.6 9.1 -3.9 12.3 -1.7 18.6 2.1 5.9 1.2 7.6 -1.3 2.7z"/>
  <path d="M899.6 150.3 c-1.1 -1.1 -0.6 -2.3 0.9 -2.3 0.8 0 1.5 0.4 1.5 0.9 0 1.3 -1.6 2.2 -2.4 1.4z"/>
  <path d="M149.6 147.2 c-1 -1.7 0.2 -9.9 1.9 -13.2 0.8 -1.4 3.7 -5.2 6.5 -8.5 7.5 -8.6 10 -14.4 10 -23 0 -10 1.2 -11 4.5 -3.9 4.3 9.5 4.4 14.2 0.1 26.5 -4 11.6 -4.4 14.8 -2 18.4 1.4 2.1 1.4 2.5 0.2 2.5 -1.9 0 -3.8 -4.2 -3.8 -8.5 0 -1.9 1.4 -6.9 3 -11.1 3.8 -9.5 4.6 -15.1 3 -20.9 -1.4 -5 -3 -5.1 -3 -0.1 0 5.3 -2.8 11.8 -7.5 17.6 -8.1 9.9 -9.8 13 -11 19.3 -0.7 3.9 -1.4 5.7 -1.9 4.9z"/>
  <path d="M278.2 144.3 c-1.8 -4.5 -0.6 -12.8 3.1 -20.9 4.6 -10.2 4.8 -15.6 1 -30.7 -2.3 -9.5 -2.5 -11.4 -1.6 -16 0.6 -2.9 0.9 -5.4 0.7 -5.6 -0.2 -0.2 -1.6 2.2 -3 5.4 -2.5 5.4 -2.6 6.2 -1.9 16.5 0.8 13.2 -0.1 16.9 -6.6 27 -2.7 4.2 -5.2 9.1 -5.5 10.8 -0.7 3.3 0.9 8.4 3.4 11.5 1.6 1.9 1.1 3.4 -0.8 2.2 -1.8 -1.1 -5 -8.6 -5 -11.7 0 -3.5 1.6 -7.2 5.7 -12.9 6.2 -8.7 6.7 -11 6.8 -26.9 0 -13.9 0.1 -14.7 2.7 -19 2.9 -5 7.4 -9.7 8.4 -8.7 0.3 0.3 -0.1 2.5 -0.9 4.9 -3 8.3 -3 11.2 0.3 24.5 3 11.7 3.1 13.1 2 18.7 -0.6 3.3 -2.5 8.5 -4 11.6 -3.6 7 -4.5 11.7 -3.2 16.4 1.1 3.8 -0.2 6.2 -1.6 2.9z"/>
  <path d="M14.6 139.1 c-0.9 -8 1.2 -13.6 8.9 -24 7.5 -9.9 9.1 -14.6 8.1 -23.9 -0.4 -3.7 -0.8 -7.8 -0.9 -9.1 -0.4 -5 1.9 -2.7 6.2 6.1 3.9 8.3 4.3 9.6 3.9 15.3 -0.3 4.7 -1.4 8.1 -4.5 14.6 -5 10 -6.5 15.5 -5.7 19.8 0.4 1.9 0.2 3.1 -0.4 3.1 -1.8 0 -2.5 -6.3 -1.2 -10.9 0.6 -2.3 3.1 -8.3 5.5 -13.3 5.3 -10.8 5.8 -16.5 2.3 -23.8 l-2.2 -4.5 -0.6 7.5 c-0.7 8.6 -1.9 11.1 -10.1 22.2 -3.2 4.4 -6.2 9.2 -6.5 10.6 -0.3 1.5 -0.8 3.4 -1 4.2 -0.2 0.8 0 3.9 0.5 6.8 0.6 3.9 0.5 5.2 -0.4 5.2 -0.8 0 -1.5 -2.3 -1.9 -5.9z m19.4 -51.6 c0 -0.3 -0.2 -0.5 -0.5 -0.5 -0.3 0 -0.5 0.2 -0.5 0.5 0 0.3 0.2 0.5 0.5 0.5 0.3 0 0.5 -0.2 0.5 -0.5z"/>
  <path d="M359.9 142.5 c-0.4 -0.3 0.1 -2.5 0.9 -4.9 1.5 -4.1 1.5 -5.1 -0.2 -13.5 -3.4 -16.7 -1.2 -21.7 17.4 -40.2 11 -10.9 14.3 -14.8 17 -20.2 2.9 -5.9 3.2 -7.4 2.7 -12.5 -0.3 -3.1 -0.7 -6.2 -0.8 -6.9 -0.2 -0.6 0.1 -1.2 0.6 -1.3 1.6 -0.3 4.3 8 5.5 16.9 1.9 14.1 -2 24.8 -12.1 33.3 -15.4 12.7 -18.9 17.8 -17.3 24.3 0.4 1.5 0.2 2.5 -0.5 2.5 -1.8 0 -2.4 -5 -1.1 -9.3 1.2 -4.3 5.8 -9.3 17.3 -19 3.1 -2.6 6.9 -6.9 8.4 -9.5 2.5 -4.2 2.8 -5.8 3 -15.2 l0.3 -10.5 -2.5 5.5 c-3.2 6.8 -7.6 12 -21 25.1 -15.5 15.1 -18.4 22.6 -14.6 38 0.8 3.5 1.1 7.4 0.7 10.1 -0.7 4.6 -2.7 8.4 -3.7 7.3z"/>
  <path d="M123.6 136.2 c-0.3 -0.5 0.6 -2 2 -3.3 3.7 -3.4 6.4 -9.2 6.4 -13.5 0 -2.1 -0.7 -6.7 -1.6 -10.2 -2.2 -8.9 -1.5 -16.2 2.4 -24.7 3.7 -7.9 10 -16.5 12 -16.5 0.7 0 1.2 0.3 1 0.8 -0.2 0.4 -1.6 3.1 -3.1 6.1 -3.7 7 -5.8 17.1 -4.8 22.5 0.5 2.3 1.9 6.6 3.1 9.6 1.2 3 2.6 7.3 3.1 9.5 0.8 4.4 -0.5 12.3 -2.6 15.1 -2.1 2.9 -2.7 1.1 -1 -2.9 2.4 -5.9 1.9 -12.9 -1.6 -21.5 -3.4 -8.3 -4.2 -17.9 -2 -23.6 2.2 -5.5 0.1 -3.9 -2.6 2 -3.4 7.4 -4 15 -1.9 23 2.1 8.3 2 13.9 -0.4 18.9 -2.3 4.7 -7.5 10.1 -8.4 8.7z m15.4 -57.7 c0 -0.3 -0.2 -0.5 -0.5 -0.5 -0.3 0 -0.5 0.2 -0.5 0.5 0 0.3 0.2 0.5 0.5 0.5 0.3 0 0.5 -0.2 0.5 -0.5z"/>
  <path d="M116 132.6 c0 -0.2 0.9 -2.3 2 -4.7 2.7 -6.1 2.5 -8.4 -1.5 -16.8 -4.4 -9.2 -4.4 -12.5 0.1 -24.1 4.5 -11.9 5.2 -17.2 2.9 -24.4 -1 -3.1 -2.1 -5.8 -2.4 -6 -0.3 -0.2 -0.6 2.8 -0.6 6.8 -0.1 8.9 -2.3 13.8 -10.7 23.2 -7.5 8.6 -9.1 12 -8.2 18.2 0.5 4 0.4 4.5 -0.7 3.4 -0.9 -0.8 -1.4 -3.4 -1.4 -6.6 0.1 -4.5 0.7 -6.1 3.7 -10.2 2 -2.7 5.1 -6.2 6.8 -7.9 7.5 -7 10.6 -18.7 7.6 -28.7 -3 -10.6 -1.5 -10.6 4.5 -0.1 4.2 7.5 4.4 8.1 4.3 15.8 0 6.8 -0.6 9.4 -3.7 17.2 -2 5.1 -3.7 10.7 -3.7 12.5 0 1.8 1.6 6.6 3.5 10.5 1.9 4 3.5 8.6 3.5 10.2 0 3.5 -3.5 12.1 -5 12.1 -0.5 0 -1 -0.2 -1 -0.4z"/>
  <path d="M712.5 124.6 c-8.1 -8.4 -15.4 -13.9 -25.5 -19.1 -6.9 -3.6 -8.1 -4.5 -7.5 -5.6 0.6 -0.8 10.9 4.7 20.5 11 5.5 3.6 22 19.4 22 21.2 0 1.9 -1.7 0.5 -9.5 -7.5z"/>
  <path d="M550 126.9 c9.9 -9.1 23.8 -16.3 41.4 -21.3 9.2 -2.7 12.6 -3.2 12.6 -1.8 0 0.5 -2.6 1.5 -5.7 2.2 -18.9 4.2 -39.7 14.3 -48.2 23.4 -1.4 1.4 -3.2 2.6 -4 2.6 -1 -0.1 0.6 -2.1 3.9 -5.1z"/>
  <path d="M700 126.5 c-2.9 -3.1 -13.9 -10.4 -20.8 -13.9 -2.9 -1.5 -5 -3.1 -4.7 -3.5 1.3 -2.2 29.5 15.9 29.5 18.9 0 1.7 -1.6 1.1 -4 -1.5z"/>
  <path d="M674 118.9 c-2.5 -2.2 -6.4 -5.2 -8.7 -6.6 -3.7 -2.1 -5.6 -4.3 -3.8 -4.3 2.2 0 18.5 12.4 18.5 14.1 0 1.6 -1.4 0.9 -6 -3.2z"/>
  <path d="M630 119.5 c2.4 -2.9 17.7 -12.5 26.1 -16.4 18.5 -8.6 47.9 -16 47.9 -12.1 0 0.6 -1.5 1 -3.2 1 -4.4 0 -21.4 4.2 -30.8 7.5 -10.4 3.8 -22.1 9.8 -31.3 16.1 -7.8 5.4 -11.2 6.9 -8.7 3.9z"/>
  <path d="M185.8 111.8 c0.3 -5.7 -0.1 -8.9 -1.8 -14.6 -3.7 -12.2 -2 -18 8.4 -29.3 8.3 -9 11.1 -14.7 11.2 -22.8 0.1 -3.6 0.5 -6.6 1 -6.8 1.5 -0.5 4.9 11.9 4.9 17.8 -0.1 4.9 -0.9 7.3 -5.8 16.9 -4.4 8.6 -5.7 12.2 -5.7 15.6 0 2.4 -0.4 4.4 -1 4.4 -1.3 0 -1.3 -8.1 0.1 -11.7 0.5 -1.5 2.8 -5.7 4.9 -9.3 4.6 -7.6 6.6 -15.8 5.2 -21 l-0.9 -3.5 -1.1 4 c-1.5 5.3 -5.5 11.4 -13 19.8 -7.8 8.8 -9.5 14.5 -6.8 23.4 2.6 8.6 3.6 14.2 3.1 16.9 -0.3 1.3 -0.7 3.5 -1 4.9 -1.1 5.2 -2.2 2.2 -1.7 -4.7z"/>
  <path d="M615 116.7 c-3 -0.4 -9.9 -0.7 -15.3 -0.4 -7.1 0.3 -9.5 0.1 -8.7 -0.7 1.5 -1.5 26.8 -1.4 29.4 0 2.8 1.7 0.7 2.1 -5.4 1.1z"/>
  <path d="M742.9 110.3 c-2.8 -2.7 -6.7 -5.9 -8.6 -7.1 -4.5 -3.1 -13.8 -7.2 -16.3 -7.2 -1.1 0 -2 -0.4 -2 -1 0 -4.3 18 4.4 27.5 13.3 7.9 7.5 7.4 9.2 -0.6 2z"/>
  <path d="M706.5 107.4 c-2.2 -2 -6.6 -5 -9.8 -6.8 -6.7 -3.8 -6.6 -5.6 0.2 -2.1 8.1 4 17.9 12.7 14.4 12.5 -0.5 -0.1 -2.6 -1.7 -4.8 -3.6z"/>
  <path d="M720.6 105.5 c-2.7 -1.9 -7.8 -4.6 -11.3 -6.1 -3.5 -1.5 -6.3 -3.1 -6.3 -3.6 0 -1.1 0.2 -1.1 6.2 1.3 5.9 2.3 17.8 9.7 17.8 11 0 1.5 -1.3 1 -6.4 -2.6z"/>
  <path d="M634 107 c-1.4 -0.4 -5.9 -0.8 -9.9 -0.9 -5.7 -0.1 -7.2 -0.4 -6.3 -1.3 2.3 -2.3 20 -0.5 21.7 2.2 0.7 1.2 -1.9 1.1 -5.5 0z"/>
  <path d="M641.2 101.3 c-4.3 -0.2 -7 -0.8 -6.7 -1.3 0.7 -1.1 12.4 -1.4 14.9 -0.4 1.9 0.7 2.2 2.5 0.4 2.2 -0.7 -0.1 -4.6 -0.4 -8.6 -0.5z"/>
  <path d="M147 95.5 c0 -5.4 2.4 -11.7 8.2 -21.6 7.5 -12.8 8.3 -15.3 8.1 -25.1 0 -4.9 0.3 -8.8 0.8 -8.8 0.5 0 0.9 0.6 0.9 1.4 0 0.8 1.9 5 4.1 9.4 5.6 10.8 5.6 15.7 0 27.9 -2.2 4.9 -4.2 10.4 -4.4 12.3 -0.2 1.9 -0.7 3.5 -1.3 3.5 -1.9 0 -0.3 -7.5 3.3 -15.1 4.8 -10.4 5.5 -17.9 2.2 -24.8 l-2.3 -4.9 -1.2 6.2 c-0.8 3.6 -3.1 9.4 -5.4 13.4 -8.3 14.6 -10.5 19.9 -10.5 25.4 0 3.6 -0.4 5.3 -1.2 5.3 -0.9 0 -1.3 -1.6 -1.3 -4.5z"/>
  <path d="M729.9 94.2 c-12.4 -9 -28.3 -15.7 -45.4 -19.2 -8.1 -1.6 -8.7 -1.9 -8.1 -2.9 1.3 -2 25.1 4.6 37.5 10.5 8.9 4.2 20.3 11.5 23 14.8 2.5 2.9 -0.4 1.6 -7 -3.2z"/>
  <path d="M233.5 94.7 c-3.6 -8.6 -0.8 -18.5 7.9 -28.6 8.1 -9.3 9.3 -15 5.2 -23.6 l-2.4 -5 -0.1 3.7 c-0.1 5.9 -2.9 11.5 -10.4 20.7 -7.7 9.5 -10.6 15 -10.7 19.9 0 1.7 -0.4 3.2 -1 3.2 -1.5 0 -1.2 -6.6 0.5 -10.7 0.9 -2.1 4.2 -6.9 7.4 -10.8 10.5 -12.7 11.6 -14.9 11.6 -22.9 0 -3.9 -0.3 -7.6 -0.5 -8.2 -0.3 -0.7 0 -1.3 0.5 -1.5 1.7 -0.4 8.7 12.8 9.2 17.5 0.7 6.1 -1.1 10.7 -7.3 18.4 -8.7 10.9 -10.8 17.2 -8.4 25.7 1.6 5.6 0.6 7.1 -1.5 2.2z"/>
  <path d="M550.9 95.6 c2 -2.4 9.1 -6.9 9.8 -6.2 0.3 0.3 0.4 0.7 0.2 0.9 -0.2 0.2 -2.3 1.8 -4.5 3.5 -4.4 3.3 -7.7 4.4 -5.5 1.8z"/>
  <path d="M560 96.2 c0 -1.4 5.9 -6.6 6.7 -5.9 0.3 0.4 -0.6 2.1 -2.2 3.7 -2.8 3 -4.5 3.8 -4.5 2.2z"/>
  <path d="M594.4 94.9 c-0.6 -1 3.1 -2.6 9.9 -4.1 2.9 -0.7 4.3 -1.4 3.5 -1.9 -2 -1.2 -0.4 -2 7.9 -4 8.7 -2.1 33.3 -3.7 33.3 -2.2 0 0.5 -6.6 1.4 -14.7 2.1 -14 1.1 -25 2.9 -24 3.8 0.2 0.3 5.7 -0.1 12.2 -0.7 7.2 -0.7 12 -0.8 12.6 -0.2 0.6 0.6 -4.8 1.6 -13.8 2.6 -8.2 0.9 -17.4 2.5 -20.6 3.5 -3.1 1.1 -6 1.6 -6.3 1.1z"/>
  <path d="M658 94.9 c-1.4 -0.4 -4.7 -0.7 -7.3 -0.8 -3.3 -0.1 -4.6 -0.5 -4.1 -1.2 0.8 -1.4 13.1 -0.6 14.6 0.9 1.4 1.4 -0.3 2 -3.2 1.1z"/>
  <path d="M898.6 92.9 c-0.3 -1.3 -0.8 -4.6 -1.1 -7.3 -0.4 -2.7 -1.2 -5.7 -1.8 -6.7 -0.8 -1.3 -0.8 -2.4 0.3 -4.4 1.2 -2.2 1.2 -4.2 -0.2 -14.3 -0.9 -6.4 -1.4 -11.9 -1.2 -12.1 1.3 -1.3 2.7 2.8 3.9 11.4 0.8 5.4 1.8 10.1 2.2 10.5 0.4 0.4 2.4 1.3 4.4 1.9 6.1 1.9 9.9 8 9.9 15.7 0 4.2 -1.8 5.4 -2.5 1.7 -2.3 -11.1 -3.6 -13.3 -8.1 -14.7 -3.6 -1.1 -4.7 1.5 -4.2 10.4 0.5 7.9 -0.5 12.9 -1.6 7.9z"/>
  <path d="M577.9 93.8 c-0.4 -2.5 -0.3 -61.8 0.2 -61.8 1.9 0 2.8 60.3 0.9 61.5 -0.5 0.3 -1 0.5 -1.1 0.3z"/>
  <path d="M743.5 90.8 c-0.4 -1.8 -2.4 -7 -4.5 -11.5 -4 -8.6 -4.3 -12.1 -0.4 -5.4 2.8 5 7.4 16.4 7.4 18.5 0 2.9 -1.8 1.7 -2.5 -1.6z"/>
  <path d="M550 90.3 c0 -0.5 1.9 -1.9 4.3 -3.3 5.5 -3.3 5.7 -3.3 5.7 -2.1 0 0.5 -2 2.2 -4.3 3.6 -4.6 2.6 -5.7 3 -5.7 1.8z"/>
  <path d="M672 87.9 c-5.9 -3.9 -14.2 -6.9 -19 -6.9 -4.2 0 -6.2 -1.5 -3.1 -2.5 3.9 -1.2 15 2.6 24.5 8.5 2 1.2 3.6 2.6 3.6 3.1 0 1.4 -1.1 1 -6 -2.2z"/>
  <path d="M923.9 88.2 c-2.9 -2.6 -3.4 -3.7 -3.4 -7.5 0 -8.1 6.8 -12.5 11.5 -7.5 3.6 3.9 2.3 5.4 -6.2 7.2 -3.1 0.7 -3.6 2.7 -1.2 5 1 1 3.3 1.6 6.7 1.6 4.5 0 5 0.2 3.7 1.5 -0.9 0.8 -2.9 1.7 -4.6 2.1 -2.6 0.5 -3.8 0 -6.5 -2.4z m5.9 -11.6 c0.8 -0.9 -1 -2.6 -2.7 -2.6 -1.8 0 -4.1 1.8 -4.1 3.3 0 0.9 5.8 0.2 6.8 -0.7z"/>
  <path d="M873.7 86.3 c-1.3 -2.1 -3.4 -5.7 -4.6 -8 -1.2 -2.4 -2.4 -4.3 -2.6 -4.3 -0.3 0 -1.9 3.1 -3.6 6.9 -2.9 6.5 -5.2 9.1 -6.3 7.2 -1.3 -2 -11.3 -37.7 -10.9 -38.4 1.1 -1.8 2.6 1.7 7 15.9 2.4 8.2 4.9 15.3 5.3 15.8 0.5 0.5 2.3 -2 4.2 -5.8 1.8 -3.6 3.7 -6.5 4.3 -6.3 0.5 0.2 2.7 3.2 4.7 6.8 2 3.5 4.1 6.5 4.6 6.7 0.5 0.1 2.5 -5.3 4.6 -12 6.2 -20.2 6.7 -21.8 7.7 -22.3 1.9 -1.2 0.8 4.8 -3.6 20.1 -4.2 14.3 -6.8 21.4 -8 21.4 -0.3 0 -1.5 -1.7 -2.8 -3.7z"/>
  <path d="M960.6 88.3 c-0.3 -1 -1 -3.7 -1.6 -6 -1.3 -5 -3.3 -7.3 -6.5 -7.3 -3.1 0 -5.3 3.3 -6.1 9.2 -0.7 5.1 -2.1 6.3 -2.8 2.6 -0.8 -4.4 -2.4 -19.3 -2.1 -19.7 0.9 -0.9 2.5 1.3 3.1 4.4 0.7 4 1 4.1 3.5 1.9 5.9 -5.4 14.9 3.4 14.9 14.5 0 2.6 -1.7 2.8 -2.4 0.4z"/>
  <path d="M593.4 56.3 c0.4 -11.9 0.9 -21.9 1.1 -22.2 1.5 -1.4 1.7 2.9 1 22.3 -0.5 13.8 -1.1 21.6 -1.8 21.6 -0.7 0 -0.8 -7 -0.3 -21.7z"/>
  <path d="M517 65.6 c0 -0.1 2.2 -1.7 5 -3.4 6.8 -4.2 9.2 -8.3 8.7 -14.5 -0.3 -3.8 -1.1 -5.6 -3.7 -8.2 -1.9 -1.9 -4.2 -3.7 -5.2 -4.1 -2 -0.6 -2.5 -2.4 -0.6 -2.4 1.9 0 7.8 5 9.9 8.4 4.2 6.9 0.7 17.3 -7.5 22.1 -3.8 2.2 -6.6 3.1 -6.6 2.1z"/>
  <path d="M528.7 65.3 c-0.4 -0.3 0.5 -1.4 1.9 -2.5 4.1 -3.3 6.7 -9.5 6.2 -15 -0.5 -4.7 0.4 -6.4 1.6 -3.2 1.2 3.1 0.6 8.9 -1.5 13.1 -2 4.2 -7 8.8 -8.2 7.6z"/>
  <path d="M539 63.1 c0 -0.6 0.5 -1.3 1 -1.6 0.6 -0.4 1.9 -2.4 3 -4.5 2.4 -4.7 2.6 -12.6 0.6 -17.5 -1.6 -3.7 -0.4 -5.9 1.4 -2.5 3.5 6.5 2.8 16.6 -1.6 23.3 -2.3 3.5 -4.4 4.8 -4.4 2.8z"/>
  <path d="M551 62.8 c0 -0.9 0.7 -2.1 1.6 -2.9 4.4 -3.7 7.5 -15.2 5.6 -20.8 -1.4 -3.9 0.4 -4.2 1.9 -0.3 2.5 6.2 -1.1 18.3 -7 23.6 -1.7 1.6 -2.1 1.6 -2.1 0.4z"/>
  <path d="M460.7 47.2 c0.5 -4.2 0.2 -5.2 -2.2 -8 -1.5 -1.8 -2.4 -3.6 -2 -4 0.9 -1 5.3 4.3 6.1 7.4 0.8 2.9 -0.3 9.4 -1.6 9.4 -0.5 0 -0.7 -2.2 -0.3 -4.8z"/>
 </g>
</svg>