<?xml version="1.0" encoding="utf-8"?>
<!DOCTYPE svg PUBLIC "-//W3C//DTD SVG 1.0//EN" "http://www.w3.org/TR/2001/REC-SVG-20010904/DTD/svg10.dtd">
<svg version="1.0" xmlns="http://www.w3.org/2000/svg" width="319px" height="88px" viewBox="0 0 319 88" preserveAspectRatio="xMidYMid meet">
 <g fill="#000000">
  <path d="M126.75 80.45 c-14.85 -0.15 -44.70 -0.35 -66.30 -0.40 -44.65 -0.05 -41.10 0.30 -46.05 -4.45 -6.60 -6.30 -9.70 -15.05 -9.25 -26.35 0.35 -9 1.35 -13.85 4.65 -22 3.90 -9.80 10.15 -15.15 19.55 -16.80 2.55 -0.45 18.35 -0.50 64.40 -0.25 33.55 0.15 91.60 0.45 129 0.60 37.40 0.20 68.25 0.50 68.50 0.65 0.30 0.20 1.50 0.70 2.75 1.05 6.50 2 11.95 6.60 14.90 12.45 1.85 3.70 2.10 4.30 3.15 8.05 2 7.05 2.65 17.95 1.40 22.70 -0.30 1.10 -0.75 2.95 -1.05 4.05 -1.60 6.15 -4.85 12.60 -8.20 16.25 -4.90 5.30 4.05 4.75 -78.20 4.75 -39.75 0 -84.40 -0.15 -99.25 -0.30z m163.70 -2.75 c0.35 -0.30 -3.50 -4.70 -8 -9.25 l-4.30 -4.30 -12.20 -0.35 c-6.70 -0.20 -29.65 -0.60 -50.95 -0.85 -21.30 -0.25 -55.60 -0.70 -76.25 -0.95 -20.60 -0.25 -52.05 -0.65 -69.85 -0.80 l-32.30 -0.35 -3.10 2.95 c-3.80 3.60 -10.50 12.35 -9.95 12.95 0.60 0.55 30.30 0.90 105.70 1.20 78.80 0.30 160.75 0.15 161.20 -0.25z m12.90 -4.45 c3.10 -4 5.90 -10.40 7.05 -16 1.40 -6.70 1.65 -8.75 1.10 -9.70 -0.25 -0.55 -0.50 -1.55 -0.50 -2.25 0 -1.55 -0.95 -5.70 -1.55 -6.90 -0.25 -0.50 -0.45 -1.25 -0.45 -1.65 0 -0.40 -0.20 -1.15 -0.45 -1.65 -0.25 -0.45 -1.40 -2.85 -2.55 -5.35 -1.60 -3.45 -2.55 -4.80 -4 -5.85 l-1.90 -1.30 -0.30 8.55 c-0.50 14.65 -1.80 24.70 -3.40 26.60 -0.20 0.25 -0.40 2.70 -0.40 5.50 0 5 0.30 6.40 2.70 11.90 0.80 1.85 0.85 1.85 1.95 1 0.65 -0.45 1.85 -1.75 2.70 -2.90z m-280.90 0.40 c0.95 -1.60 2.35 -3.65 3.15 -4.55 0.75 -0.90 1.40 -1.90 1.40 -2.15 0 -0.30 0.55 -1.70 1.25 -3.05 0.70 -1.40 1.20 -2.60 1.15 -2.65 -0.10 -0.05 -1.40 -0.45 -2.90 -0.85 -1.50 -0.45 -3.10 -0.95 -3.55 -1.10 -0.60 -0.25 -0.90 0.25 -1.40 2.30 -0.35 1.45 -1.80 4.80 -3.15 7.40 l-2.45 4.75 1.55 1.40 c2.25 2 3.05 1.75 4.95 -1.50z m271.50 -1.40 c-0.25 -1.90 -0.55 -5 -0.75 -6.85 l-0.35 -3.30 -1.55 0.95 c-1.15 0.70 -2.50 0.95 -5.30 0.95 l-3.75 0 6 5.95 c3.30 3.30 6 5.95 6.05 5.90 0 -0.05 -0.15 -1.65 -0.35 -3.60z m-278.60 -3.60 c2.75 -6 3.25 -9.70 3.65 -27.40 0.25 -8.50 0.55 -16.95 0.75 -18.75 0.35 -2.95 0.30 -3.15 -0.40 -2.55 -1.55 1.25 -4.60 6.20 -8.20 13.30 -3.95 7.75 -4.80 18.80 -2.25 28.25 0.90 3.20 4.20 10 4.90 10 0.10 0 0.80 -1.30 1.55 -2.85z m276.20 -8.65 c1.45 -0.80 3.10 -4.40 3.55 -7.75 0.20 -1.65 0.60 -4.55 0.90 -6.50 1 -6.85 1.15 -11.45 0.55 -16.45 -0.75 -6 -1.30 -8.35 -2.70 -11.05 -2 -3.90 2.05 -3.55 -45.70 -3.95 -23.60 -0.15 -70 -0.35 -103.15 -0.45 -33.15 -0.05 -73.05 -0.20 -88.65 -0.35 -28 -0.25 -28.45 -0.25 -29.35 0.75 -3 3.20 -4.35 11.55 -4.80 29.65 l-0.30 10.65 1.80 1.70 1.80 1.70 18.65 0.20 c10.20 0.15 50.10 0.50 88.60 0.85 124.70 1 157.50 1.30 157.65 1.40 0.10 0.05 0.60 -0.15 1.15 -0.40z"/>
  <path d="M164.70 55.35 c-0.15 -0.40 0.35 -2.05 1.05 -3.70 0.75 -1.60 1.80 -4.10 2.30 -5.60 1.05 -3.05 1.15 -2.70 -2.85 -8.65 -1.50 -2.20 -2.65 -4.25 -2.55 -4.60 0.45 -1.30 2.05 -0.35 4.50 2.70 1.45 1.80 2.95 3.25 3.35 3.25 0.45 0 1.50 -1.80 2.70 -4.60 1.10 -2.55 2.15 -4.65 2.40 -4.65 1.75 0 0.30 4.85 -5.30 17.85 -3.50 8.10 -4.80 10 -5.60 8z"/>
  <path d="M64.75 43.95 c-3.25 -2.85 -3.50 -7.80 -0.45 -10.80 2.55 -2.60 5.20 -2.15 7.20 1.10 1.25 2.05 0.90 2.95 -1.40 3.50 -5.60 1.35 -6.05 1.80 -4.10 3.75 0.80 0.80 1.65 1 4.30 1 3.70 0 4.05 0.65 1.15 2.10 -2.60 1.35 -4.65 1.15 -6.70 -0.65z m3.25 -8.65 c0 -0.95 -1.05 -1.30 -2.10 -0.70 -1.40 0.70 -1.05 1.40 0.60 1.40 0.95 0 1.50 -0.25 1.50 -0.70z"/>
  <path d="M92.75 43.95 c-3.25 -2.85 -3.50 -7.80 -0.45 -10.80 1.65 -1.70 3.45 -2.10 5.20 -1.15 1.15 0.60 3.15 3.80 2.80 4.45 -0.35 0.50 -2.35 1.30 -5.15 2.05 -2.40 0.60 -2.70 1.45 -1.15 3 0.80 0.80 1.65 1 4.30 1 3.70 0 4.05 0.65 1.15 2.10 -2.60 1.35 -4.65 1.15 -6.70 -0.65z m3.25 -8.65 c0 -0.95 -1.05 -1.30 -2.10 -0.70 -1.40 0.70 -1.05 1.40 0.60 1.40 0.95 0 1.50 -0.25 1.50 -0.70z"/>
  <path d="M122.75 45.15 c-1.20 -0.30 -2.75 -1.60 -2.75 -2.30 0 -0.30 0.95 -0.35 2.35 -0.20 2.45 0.25 4.65 -0.40 4.65 -1.45 0 -0.35 -1.10 -1.30 -2.50 -2.15 -3.60 -2.20 -4 -5.40 -1 -7.65 1.55 -1.15 5.05 -1.40 6.25 -0.40 0.80 0.65 0.80 0.75 -0.05 1.35 -0.50 0.35 -1.60 0.65 -2.45 0.65 -1.40 0 -3.25 1.20 -3.25 2.10 0 0.15 1.15 1 2.50 1.90 2.75 1.75 3.50 2.75 3.50 4.65 0 2.45 -4 4.40 -7.25 3.50z"/>
  <path d="M143.55 44.60 c-0.60 -1.10 -0.65 -4.70 -0.15 -9.10 0.35 -2.55 0.45 -2.75 1.60 -2.60 0.70 0.05 2 0.10 2.85 0.10 0.90 0 2.30 0.30 3.10 0.70 1.15 0.60 1.80 0.65 3.05 0.25 3.30 -1.15 5.50 1.50 5.50 6.70 0 2.50 -1 5 -1.75 4.25 -0.20 -0.15 -0.45 -1.30 -0.55 -2.50 -0.70 -6.15 -1.20 -6.70 -3.25 -3.50 -0.65 1 -1.45 1.85 -1.70 1.85 -0.25 0 -0.80 -0.90 -1.15 -2 -0.35 -1.10 -0.90 -2.15 -1.25 -2.35 -2 -1.25 -3.55 0.60 -4.15 5 -0.15 1.45 -0.60 2.95 -0.95 3.45 -0.55 0.75 -0.65 0.75 -1.20 -0.25z"/>
  <path d="M206.75 43.95 c-3.25 -2.85 -3.50 -7.80 -0.45 -10.80 2.55 -2.60 5.20 -2.15 7.20 1.10 1.25 2.05 0.90 2.95 -1.40 3.50 -5.60 1.35 -6.05 1.80 -4.10 3.75 0.80 0.80 1.65 1 4.30 1 3.70 0 4.05 0.65 1.15 2.10 -2.60 1.35 -4.65 1.15 -6.70 -0.65z m3.25 -8.65 c0 -1 -1.15 -1.30 -2.15 -0.55 -1.25 0.90 -1.05 1.25 0.65 1.25 0.95 0 1.50 -0.25 1.50 -0.70z"/>
  <path d="M219.75 45.15 c-1.20 -0.30 -2.75 -1.60 -2.75 -2.30 0 -0.30 0.95 -0.35 2.35 -0.20 2.45 0.25 4.65 -0.40 4.65 -1.45 0 -0.35 -1.10 -1.30 -2.50 -2.15 -3.60 -2.20 -4 -5.40 -1 -7.65 1.55 -1.15 5.05 -1.40 6.20 -0.45 1.20 1 0.10 2.05 -2.20 2.05 -1.60 0 -3.50 1.10 -3.50 2.10 0 0.15 1.25 1.10 2.75 2.10 3.90 2.60 4.30 5.35 1.10 7.35 -1.55 0.90 -3.05 1.10 -5.10 0.60z"/>
  <path d="M232 43.60 c-2.20 -2.20 -2.40 -3.30 -1.50 -8.15 0.50 -2.70 1.20 -3.90 1.80 -3.30 0.20 0.20 0.50 2.40 0.65 4.90 0.25 3.70 0.50 4.70 1.20 5.15 1.40 0.85 3.15 -1.55 3.90 -5.20 0.30 -1.65 0.80 -3.15 1.05 -3.30 1.75 -1.10 2.05 4.50 0.50 7.65 -1.20 2.35 -2.45 3.45 -4.25 3.90 -1.15 0.30 -1.65 0.05 -3.35 -1.65z"/>
  <path d="M243.50 44.80 c-0.50 -0.65 -0.60 -2.05 -0.30 -6.15 0.30 -5.65 0.75 -6.75 2.20 -5.85 0.45 0.30 1.55 0.45 2.40 0.35 0.90 -0.15 2.25 0.10 3.10 0.55 1.20 0.60 1.85 0.65 3.10 0.25 3.30 -1.15 5.50 1.50 5.50 6.70 0 2.50 -1 5 -1.75 4.25 -0.20 -0.15 -0.45 -1.30 -0.55 -2.50 -0.50 -4.45 -0.75 -5.40 -1.45 -5.40 -0.40 0 -1.05 0.65 -1.45 1.40 -0.40 0.80 -1.05 1.70 -1.50 2.05 -0.65 0.55 -0.90 0.25 -1.90 -1.80 -2.05 -4.35 -4.40 -3.10 -5.20 2.75 -0.15 1.45 -0.60 2.95 -0.90 3.40 -0.55 0.70 -0.65 0.70 -1.30 0z"/>
  <path d="M265.50 44.65 c-1.75 -1.20 -2.40 -2.15 -3 -4.30 -0.75 -2.70 -0.10 -5.30 1.80 -7.20 2.55 -2.60 5.70 -2 7.50 1.40 0.90 1.80 0.40 2.65 -1.70 3.20 -5.60 1.35 -6.05 1.80 -4.10 3.75 0.80 0.80 1.65 1 4.25 1 3.85 0 4.40 0.95 1.25 2.20 -2.60 1.05 -4.45 1 -6 -0.05z m2.50 -9.35 c0 -1 -1.15 -1.30 -2.15 -0.55 -1.25 0.90 -1.05 1.25 0.65 1.25 0.95 0 1.50 -0.25 1.50 -0.70z"/>
  <path d="M58.10 44.15 c-0.25 -0.50 -0.60 -2.10 -0.75 -3.60 -0.20 -1.45 -0.40 -2.80 -0.55 -2.90 -0.10 -0.15 -2.80 -0.05 -5.95 0.15 l-5.70 0.35 -0.30 2.75 c-0.30 2.95 -1 4.15 -1.85 3.30 -0.30 -0.30 -0.65 -5.45 -0.85 -12.10 -0.30 -10.60 -0.25 -11.60 0.55 -11.90 0.45 -0.20 0.95 -0.20 1.10 -0.05 0.20 0.15 0.40 3.55 0.55 7.50 l0.30 7.25 1.50 0.25 c0.85 0.10 3.60 0.10 6.20 -0.05 l4.65 -0.25 0 -7.40 c0 -4.05 0.20 -7.50 0.40 -7.65 1.60 -1 2.05 2.15 2.15 15.20 0.05 9.45 -0.25 11.50 -1.45 9.15z"/>
  <path d="M114.50 44.25 c-0.65 -0.80 -0.30 -6.95 0.55 -9.20 0.40 -0.95 0.60 -1.05 1.20 -0.55 0.55 0.45 0.75 1.70 0.75 4.75 0 2.30 -0.15 4.50 -0.30 4.95 -0.40 1 -1.40 1.05 -2.20 0.05z"/>
  <path d="M77.35 43.85 c-0.15 -0.35 -0.55 -3.15 -0.90 -6.25 -0.70 -6.30 -0.40 -7.50 1.80 -6.50 0.95 0.40 1.60 0.30 3.35 -0.55 2.45 -1.15 4.90 -1.35 5.80 -0.45 1.10 1.10 0.60 1.80 -1.60 2.10 -2.60 0.40 -5.25 2.05 -6.15 3.80 -0.45 0.85 -0.55 2.40 -0.35 4.90 0.30 3.40 0.30 3.60 -0.70 3.60 -0.55 0 -1.10 -0.30 -1.25 -0.65z"/>
  <path d="M190.30 43.75 c-0.15 -0.40 -0.55 -3.20 -0.85 -6.25 -0.70 -6.20 -0.35 -7.40 1.80 -6.40 0.95 0.45 1.65 0.30 3.45 -0.55 2.55 -1.15 4.80 -1.35 5.70 -0.45 1.10 1.10 0.60 1.80 -1.60 2.10 -2.60 0.40 -5.25 2.05 -6.15 3.80 -0.45 0.85 -0.55 2.40 -0.35 4.90 0.30 3.40 0.30 3.60 -0.70 3.60 -0.55 0 -1.10 -0.35 -1.30 -0.75z"/>
  <path d="M115.50 26.50 c-0.45 -0.80 -0.40 -1.05 0.25 -1.30 1.15 -0.45 2.35 0.20 2.15 1.15 -0.25 1.30 -1.75 1.40 -2.40 0.15z"/>
 </g>
</svg>