<?xml version="1.0" encoding="utf-8"?>
<!DOCTYPE svg PUBLIC "-//W3C//DTD SVG 1.0//EN" "http://www.w3.org/TR/2001/REC-SVG-20010904/DTD/svg10.dtd">
<svg version="1.0" xmlns="http://www.w3.org/2000/svg" width="39px" height="101px" viewBox="0 0 39 101" preserveAspectRatio="xMidYMid meet">
 <g fill="#000000">
  <path d="M4.8 93.3 c-0.4 -1.9 1.8 -65.4 2.8 -79.1 0.3 -4.6 0.9 -8.2 1.4 -8 0.4 0.2 3.4 5.5 6.7 11.8 5.2 9.9 13.6 24.4 18.8 32.4 1.5 2.3 1.2 2.9 -11 19.1 -7 9.2 -13.6 18.7 -14.8 21.1 -2.3 4.7 -3.2 5.4 -3.9 2.7z m11.5 -17.8 c2.9 -3.8 7.8 -10.3 10.9 -14.3 3.2 -4 5.8 -7.7 5.8 -8.2 0 -0.4 -3.3 -6.4 -7.3 -13.2 -4.1 -6.7 -9.2 -15.8 -11.4 -20.1 l-4 -7.8 -0.7 3.8 c-1.3 7.9 -0.9 9 3.5 10.7 2.2 0.9 3.7 2.1 3.4 2.6 -0.4 0.6 -1.7 0.4 -3.5 -0.5 -3.9 -2 -4 -2 -4 1.4 0 2.6 0.5 3.1 5 4.6 2.8 0.9 5 2.1 5 2.6 0 1.3 -1.5 1.1 -5.7 -0.6 -4.6 -1.9 -4.3 -2 -4.3 1.9 0 3.3 0.2 3.5 6.5 5.6 3.6 1.2 6.5 2.6 6.5 3.1 0 1.2 0.2 1.2 -6.5 -1.1 -3.2 -1.1 -6.2 -2 -6.7 -2 -0.4 0 -0.8 1.7 -0.8 3.9 0 3.7 0.1 3.9 4.8 5.1 12.5 3.3 15.2 4.2 15.2 5.1 0 0.6 -0.8 0.8 -1.7 0.5 -1 -0.3 -4.7 -1.2 -8.3 -2.1 -3.6 -0.9 -7.3 -1.8 -8.3 -2.1 -1.6 -0.5 -1.8 -0.1 -1.5 2.7 0.3 3 0.7 3.4 5.1 4.5 5.1 1.3 6.4 2 5.4 3 -0.3 0.3 -2.8 -0.1 -5.6 -0.9 l-5.1 -1.5 0 2.9 c0 2.2 0.7 3.2 2.5 4.1 2.5 1.1 3.7 3.5 1.3 2.5 -5.1 -2.1 -4.8 -2.6 -4.8 7.9 l0 9.9 2.1 -3.5 c1.2 -1.9 4.4 -6.6 7.2 -10.5z"/>
 </g>
 <g fill="#ffffff">
 </g>
</svg>