<svg width="71" height="61" viewBox="0 0 71 61" fill="none" xmlns="http://www.w3.org/2000/svg">
<path d="M41.6884 60.7876C39.6981 60.0689 38.4918 57.8023 37.8284 53.4902C37.0444 48.2935 36.3206 46.9667 34.1494 46.9667C32.7622 46.9667 32.1591 47.4642 30.8925 49.3992C30.0482 50.726 28.9625 51.9975 28.5404 52.1081C26.9723 52.6609 25.5851 51.0577 25.4041 48.5699C25.2835 46.1374 25.2835 46.1374 23.052 46.1374C20.5189 46.1374 19.1317 44.8659 19.1317 42.4887C19.1317 40.5538 17.0208 39.0611 15.513 39.7798C14.9099 40.0562 13.583 41.6594 12.5577 43.3179C10.5071 46.7455 8.45647 48.2382 6.34555 47.9618C5.19962 47.8512 4.95837 47.5195 5.079 45.861C5.13931 44.313 5.74243 43.4838 8.21522 41.4383C11.4721 38.7847 12.4974 36.9603 12.4974 33.975C12.4974 31.9295 12.0752 31.7084 7.43117 30.8791C1.70153 29.884 -0.107834 27.2857 3.20933 24.9084C4.47588 23.9686 5.68212 23.7475 8.99928 23.7475C13.6433 23.7475 16.7192 22.8077 18.1667 20.928C20.6395 17.611 18.5286 14.294 11.8943 11.0322C5.079 7.65991 3.0887 4.72987 5.86305 2.18682C8.33585 -0.0798176 13.4624 1.5787 17.0208 5.89083C18.227 7.38349 20.157 9.26314 21.3029 10.1477C23.1726 11.5298 23.7757 11.6956 26.4294 11.4745C28.1182 11.3086 29.9275 10.8111 30.41 10.3135C31.3147 9.48428 31.3147 9.15257 30.2894 6.11197C29.2641 3.01607 29.2641 2.68437 30.2291 1.35756C31.4353 -0.356236 33.6066 -0.466804 35.1747 1.13643C35.9587 1.9104 36.3206 3.23721 36.4412 5.61441C36.5619 8.65502 37.165 9.87126 38.4918 9.92655C38.6728 9.92655 39.7584 9.37371 40.9043 8.65502C43.8596 6.83065 44.8849 6.55424 46.5737 7.27292C48.0815 7.88105 49.2877 10.203 49.2877 12.4143C49.2877 15.5102 52.4842 15.5102 56.5251 12.4143C59.4804 10.1477 59.5407 10.1477 61.3501 11.4745C62.3754 12.1932 62.6166 12.8013 62.3151 13.6858C61.6516 15.4549 59.6614 16.45 55.922 16.9476C53.0873 17.3346 52.6049 17.611 52.4239 18.6614C52.1827 20.2093 53.2683 21.5361 54.7158 21.5361C55.2586 21.5361 56.1633 21.9784 56.7061 22.5312C57.852 23.6922 57.1283 25.2402 54.5951 27.0645C53.4492 27.8385 52.9064 28.7783 52.9064 29.8287C52.9064 31.8189 53.2683 32.0401 57.852 32.5929C63.5816 33.3669 65.9338 36.1311 63.0991 38.7294C61.6517 40.0562 59.782 39.8351 56.9473 38.0107C54.2936 36.2969 51.0367 35.3571 49.7702 35.9652C48.4433 36.6286 48.383 39.0611 49.5893 41.2172C51.3986 44.4789 50.1924 46.8561 47.0561 46.1927C43.1962 45.3082 42.0503 45.1976 42.0503 45.7504C42.0503 46.0821 42.8946 48.2382 43.9199 50.5601C45.2468 53.6007 45.669 55.4804 45.5484 57.3047C45.3674 60.1795 43.8596 61.5616 41.6884 60.7876Z" fill="#B48C52"/>
<path d="M48.7449 52.2739C48.2021 51.6658 48.2624 51.3341 49.0464 50.5601C50.1924 49.5097 51.3383 50.1731 50.9764 51.7211C50.7352 52.9926 49.6496 53.269 48.7449 52.2739Z" fill="#B48C52"/>
<path d="M64.5466 31.4869C61.2294 29.6626 62.1944 28.1699 66.5369 28.1699C69.4319 28.1699 71 29.0545 71 30.6024C71 32.8138 67.7431 33.256 64.5466 31.4869Z" fill="#B48C52"/>
<path d="M3.69181 19.2692C2.66651 18.9928 1.33964 18.2741 0.736524 17.666C-0.168156 16.7262 -0.228468 16.4497 0.495276 15.6758C2.1237 13.8514 8.87864 15.731 8.87864 18.053C8.87864 18.6058 6.22492 20.0985 5.68211 19.822C5.6218 19.822 4.71712 19.5456 3.69181 19.2692Z" fill="#B48C52"/>
<path d="M55.9823 7.49385C55.0776 6.55403 55.6808 5.06137 57.1886 4.67438C59.4201 4.01098 60.3851 5.78006 58.5757 7.38329C57.4298 8.48896 56.887 8.48896 55.9823 7.49385Z" fill="#B48C52"/>
</svg>
