<?xml version="1.0" encoding="utf-8"?>
<!DOCTYPE svg PUBLIC "-//W3C//DTD SVG 1.0//EN" "http://www.w3.org/TR/2001/REC-SVG-20010904/DTD/svg10.dtd">
<svg version="1.0" xmlns="http://www.w3.org/2000/svg" width="253px" height="83px" viewBox="0 0 253 83" preserveAspectRatio="xMidYMid meet">
 <g fill="#1c1c24">
  <path d="M108 76 c-8.40 -0.15 -30.80 -0.20 -49.80 -0.10 -40.10 0.30 -37.05 0.65 -42.35 -4.85 -6.45 -6.65 -9.10 -14.60 -8.70 -25.80 0.35 -9 1.35 -13.85 4.65 -22 3.15 -7.90 6.85 -12 13.70 -15.10 2.25 -1.05 2.35 -1.05 100.25 -1.05 53.90 0 98.25 0.15 98.50 0.35 0.30 0.20 1.40 0.65 2.50 1 6.70 2.10 12.55 7 15.35 12.80 1.85 3.85 2.45 5.65 4.35 13.05 0.70 2.70 0.70 14.75 0 17.40 -0.30 1.10 -0.75 2.95 -1.05 4.05 -1.60 6.15 -4.85 12.60 -8.25 16.25 -1.55 1.70 -3.15 3.25 -3.60 3.50 -1 0.50 -104.10 0.95 -125.55 0.50z m115.50 -2.40 c0 -0.20 -1.85 -2.50 -4.15 -5.05 -4.40 -4.90 -9 -9.05 -10.10 -9.05 -0.35 0 -0.75 -0.25 -0.85 -0.50 -0.10 -0.30 -10.25 -0.60 -28.40 -0.80 -15.55 -0.15 -29.15 -0.40 -30.25 -0.55 -1.10 -0.15 -17.05 -0.35 -35.50 -0.50 -18.45 -0.15 -34.50 -0.25 -35.75 -0.30 -1.25 -0.05 -10.80 0 -21.20 0.05 l-18.95 0.10 -3.60 3.65 c-1.95 1.95 -4.20 4.50 -5.05 5.60 -2.30 3.15 -4.25 6.35 -4 6.60 0.80 0.80 197.80 1.55 197.80 0.75z m-199.80 -2.80 c0.45 -0.95 1.80 -3.05 3.05 -4.70 1.25 -1.65 2.25 -3.15 2.25 -3.35 0 -0.20 0.55 -1.50 1.25 -2.85 0.70 -1.40 1.20 -2.60 1.15 -2.65 -0.10 -0.05 -1.40 -0.45 -2.90 -0.85 -1.50 -0.45 -3.15 -0.95 -3.60 -1.15 -0.65 -0.25 -0.90 -0.10 -0.90 0.60 0 1.45 -1.65 5.65 -3.95 9.95 l-2.10 3.95 1.50 1.35 c2.10 1.85 3.25 1.80 4.25 -0.30z m211.95 -0.75 c3.30 -3.75 6.45 -10.50 7.75 -16.80 1.40 -6.60 1.65 -8.75 1.10 -9.70 -0.25 -0.55 -0.50 -1.55 -0.50 -2.25 0 -0.70 -0.35 -2.55 -0.80 -4.15 -0.45 -1.60 -0.95 -3.60 -1.15 -4.45 -0.25 -0.85 -1.45 -3.75 -2.75 -6.50 -1.85 -3.85 -2.80 -5.25 -4.30 -6.30 l-1.90 -1.30 -0.30 8.55 c-0.50 14.65 -1.80 24.70 -3.40 26.60 -0.20 0.25 -0.40 2.70 -0.40 5.50 0 4.95 0.15 5.65 2.55 11.65 0.35 0.85 0.95 1.60 1.25 1.60 0.35 0 1.60 -1.10 2.85 -2.45z m-8.70 -1.80 c-0.25 -1.90 -0.55 -5 -0.75 -6.85 l-0.35 -3.35 -1.80 1 c-1.25 0.65 -2.80 0.95 -5.30 0.95 l-3.50 0 6 6 c3.25 3.25 6 5.90 6 5.85 0.05 -0.05 -0.10 -1.65 -0.30 -3.60z m-209.95 -3.35 c0 -0.50 0.20 -0.90 0.45 -0.90 0.25 0 0.55 -0.50 0.70 -1.10 0.15 -0.65 0.55 -2.05 0.85 -3.15 1.35 -4.70 1.65 -7.85 2.05 -22.75 0.20 -8.65 0.55 -16.95 0.70 -18.35 0.25 -1.65 0.15 -2.65 -0.15 -2.65 -0.70 0 -3.60 4.05 -5.70 8 -1 1.80 -2.45 4.50 -3.25 6.05 -1.65 3 -1.80 3.65 -2.85 11.30 -0.55 4.25 -0.55 5.90 0 9.75 0.95 7.05 1.70 9.30 4.30 13.70 1.40 2.35 1.65 2.55 2.25 1.80 0.35 -0.45 0.65 -1.25 0.65 -1.70z m207.55 -8.90 c1.40 -0.75 3.10 -4.35 3.50 -7.50 0.25 -1.50 0.70 -4.65 1.05 -7 1 -7.20 0.70 -17.95 -0.70 -23.25 -0.60 -2.25 -2.25 -5.65 -3.30 -6.70 -0.35 -0.40 -1.30 -0.75 -2 -0.85 -0.75 -0.10 -44.50 -0.40 -97.30 -0.70 -77.65 -0.40 -96.05 -0.40 -96.70 0.10 -2.90 2.45 -4.45 11.70 -4.90 29.80 l-0.30 10.65 1.85 1.75 1.80 1.70 13.85 0 c7.60 0 21.95 0.25 31.85 0.50 9.90 0.30 30.70 0.65 46.25 0.80 57.45 0.50 103.75 1 103.90 1.10 0.10 0.05 0.60 -0.15 1.15 -0.40z"/>
  <path d="M75.45 42.45 c-1.20 -1.50 -3.80 -4.25 -5.80 -6.20 -2.20 -2.10 -3.65 -3.90 -3.65 -4.50 0 -0.75 1.20 -1.85 4.15 -3.75 2.25 -1.50 5.35 -3.65 6.85 -4.80 3.60 -2.70 5 -3.40 5.55 -2.85 0.80 0.80 0.05 1.85 -2.65 3.65 -1.40 0.95 -3.25 2.25 -4.10 2.90 -0.85 0.60 -2.30 1.60 -3.15 2.15 -0.90 0.60 -1.65 1.25 -1.65 1.50 0 0.25 3 0.45 6.65 0.45 6.60 0 17.80 0.75 20.60 1.45 1.60 0.35 2.30 1.75 1.10 2.20 -0.35 0.15 -2.35 0.05 -4.40 -0.20 -5.90 -0.70 -17.35 -1.45 -21.55 -1.45 l-3.85 0 4.15 4.15 c4.90 4.85 5.55 5.85 4.60 7.10 -0.55 0.80 -0.80 0.60 -2.85 -1.80z m2.55 -10.45 c0 -0.25 -0.65 -0.50 -1.50 -0.50 -0.80 0 -1.50 0.25 -1.50 0.50 0 0.30 0.70 0.50 1.50 0.50 0.85 0 1.50 -0.20 1.50 -0.50z"/>
  <path d="M114.30 44.15 c0.70 -1.60 0.80 -7.20 0.25 -13.90 -0.60 -6.45 -0.85 -7.20 -2.75 -7.90 -0.40 -0.15 -0.35 -0.45 0.10 -0.90 1.05 -1.10 7.40 -0.85 9.85 0.35 2.70 1.30 3.45 2.90 2.75 6 l-0.55 2.40 1.95 1.65 c2.80 2.30 3.45 4.05 2.35 6.35 -0.50 1 -1.75 2.50 -2.85 3.35 -2.15 1.75 -7.05 3.45 -9.75 3.45 -1.50 0 -1.70 -0.15 -1.35 -0.85z m6.85 -2.45 c2.55 -0.85 5.35 -3.60 5.35 -5.25 0 -1.65 -0.85 -2.80 -2.55 -3.40 -2.10 -0.75 -5.60 -0.70 -6.35 0.05 -0.65 0.65 -0.80 5.25 -0.30 7.85 0.35 1.80 0.65 1.85 3.85 0.75z m0.35 -13.15 c1.65 -1.20 1.80 -2.65 0.40 -4.30 -1.15 -1.35 -4.75 -2.45 -5.85 -1.80 -0.30 0.20 -0.35 1.55 -0.05 3.80 0.25 1.95 0.45 3.80 0.50 4.15 0 0.75 2.95 -0.35 5 -1.85z"/>
  <path d="M156 43.90 c-0.05 -0.35 -0.15 -2.25 -0.30 -4.20 -0.15 -1.95 0 -4.15 0.25 -4.90 0.30 -0.70 0.70 -4.80 0.85 -9.05 0.30 -6 0.50 -7.75 1.05 -7.75 0.50 0 0.65 1.50 0.65 7.20 0 4.35 0.20 7.35 0.50 7.55 0.30 0.20 1.85 -0.50 3.45 -1.45 3.30 -2 3.55 -2.10 3.55 -1.10 0 0.40 -1.60 1.80 -3.60 3.10 -1.95 1.35 -3.65 2.70 -3.75 3 -0.10 0.30 1.60 1.50 3.75 2.60 6.80 3.55 6.60 5 -0.25 2 -2 -0.85 -3.75 -1.45 -3.90 -1.30 -0.15 0.15 -0.45 1.25 -0.65 2.40 -0.35 2 -1.55 3.45 -1.60 1.90z"/>
  <path d="M147.65 42.55 c-1.90 -1.20 -3.15 -3.40 -3.15 -5.60 0 -3.15 4.80 -6.25 6.50 -4.20 0.85 1 0.15 1.80 -1.25 1.45 -1.55 -0.40 -3.25 1.30 -3.25 3.25 0 2.15 2.55 4.55 4.85 4.55 1.15 0 1.65 0.20 1.55 0.65 -0.35 1 -3.50 0.95 -5.25 -0.10z"/>
  <path d="M139.95 41.90 c-0.30 -0.65 -0.65 -1.20 -0.70 -1.30 -0.10 -0.10 -1.05 0.30 -2.20 0.85 -2.55 1.35 -3.15 1.30 -4.45 -0.10 -2.40 -2.55 -0.60 -7.85 2.65 -7.85 0.85 0 1.45 -0.40 1.85 -1.25 1.10 -2.45 1.90 -1.30 3.40 4.85 0.55 2.30 1 4.55 1 5.05 0 1.20 -0.85 1.05 -1.55 -0.25z m-2.95 -3 c0.65 -1.10 0.80 -1.85 0.50 -2.45 -1.15 -2.15 -3.65 -1.25 -4.25 1.60 -0.40 1.80 0 2.45 1.55 2.45 0.85 0 1.50 -0.50 2.20 -1.60z"/>
 </g>
</svg>