<svg width="4114" height="2215" viewBox="0 0 4114 2215" fill="none" xmlns="http://www.w3.org/2000/svg">
<path d="M2702.73 272.618C2632.02 191.663 2627.1 348.753 2571.19 359.938C2545.66 365.068 2550.47 380.996 2537.38 389.713" stroke="#1C1C25" stroke-width="9" stroke-miterlimit="1.5" stroke-linecap="round" stroke-linejoin="round"/>
<path d="M2478.71 456.938C2482.02 488.872 2483.96 499.594 2515.74 515.485" stroke="#1C1C25" stroke-width="9" stroke-miterlimit="1.5" stroke-linecap="round" stroke-linejoin="round"/>
<path d="M2659.25 1102.46C2659.65 1103.81 2686.27 1149.94 2692.11 1154.68C2705.78 1165.79 2715.08 1141.15 2708.08 1134.16" stroke="#1C1C25" stroke-width="9" stroke-miterlimit="1.5" stroke-linecap="round" stroke-linejoin="round"/>
<path d="M2128.97 1741.78C2138.84 1750.22 2138.16 1750.8 2148.59 1758.36C2149.11 1758.75 2164.41 1775.18 2184.74 1772.63C2207.09 1769.86 2230.41 1802.91 2261.14 1809.43C2266.56 1810.58 2298.47 1823.2 2375.27 1807.85C2379.39 1807 2381.2 1803.91 2382.25 1803.41" stroke="#1C1C25" stroke-width="9" stroke-miterlimit="1.5" stroke-linecap="round" stroke-linejoin="round"/>
<path d="M2637.65 1115.04C2639.54 1123.4 2675.8 1188.93 2685.73 1149.21" stroke="#1C1C25" stroke-width="9" stroke-miterlimit="1.5" stroke-linecap="round" stroke-linejoin="round"/>
<path d="M2142.69 1705.06C2142.63 1704.9 2114.54 1756.63 2131.47 1770.74C2152.4 1788.17 2187.3 1811.82 2189.81 1799.28C2192.26 1786.98 2193.65 1787.1 2194.56 1787.56C2196.36 1788.44 2195.21 1790.1 2215.48 1801.48C2223.1 1805.76 2244.67 1834.92 2360.05 1822.12C2383.82 1819.45 2401.95 1788.83 2360.05 1781.85C2343.47 1779.07 2306.14 1755.93 2296.65 1745.36C2292.72 1741.01 2291.85 1742.12 2290.31 1739.04" stroke="#1C1C25" stroke-width="9" stroke-miterlimit="1.5" stroke-linecap="round" stroke-linejoin="round"/>
<path d="M2574.08 1070.3C2575.95 1071.42 2582.07 1095.98 2603.72 1115.85C2612.65 1124.02 2616.2 1120.28 2625.76 1136.98C2648.52 1176.82 2662.83 1162.51 2665.42 1159.93" stroke="#1C1C25" stroke-width="9" stroke-miterlimit="1.5" stroke-linecap="round" stroke-linejoin="round"/>
<path d="M2586.4 355.387C2583.34 380.842 2590.04 384.815 2568.48 399.162C2556.25 407.339 2549.92 401.515 2536.02 415.4" stroke="#1C1C25" stroke-width="9" stroke-miterlimit="1.5" stroke-linecap="round" stroke-linejoin="round"/>
<path d="M2778.15 1730.86C2786.4 1758.86 2797.31 1804.1 2809.41 1801.67C2810.45 1801.44 2810.27 1801.75 2822.63 1800.21C2826.09 1799.78 2858.02 1786.09 2861.07 1784.78C2873.18 1779.57 2877.97 1780.07 2875.27 1771.05C2873.26 1764.38 2873.8 1764.42 2872.74 1757.63C2909.2 1747.25 2928.29 1754.85 2951.16 1743.4C2953.08 1742.43 2962.98 1742.01 2974.18 1733.87C2977.07 1731.75 3055.74 1694.88 3029.51 1686.12C3006.98 1678.6 2903.87 1686.01 2899.51 1672.89" stroke="#1C1C25" stroke-width="9" stroke-miterlimit="1.5" stroke-linecap="round" stroke-linejoin="round"/>
<path d="M2795.62 1782.7C2800.69 1782.54 2830.65 1785.32 2857.99 1768.62C2866.51 1763.41 2867.82 1765.61 2873.19 1760.25" stroke="#1C1C25" stroke-width="9" stroke-miterlimit="1.5" stroke-linecap="round" stroke-linejoin="round"/>
<path d="M3022.81 1686.66C3019.53 1686.93 3021.26 1690.25 2987.73 1708.3C2941.14 1733.37 2898.19 1751.27 2894.73 1752.96" stroke="#1C1C25" stroke-width="9" stroke-miterlimit="1.5" stroke-linecap="round" stroke-linejoin="round"/>
<path d="M2426 1016.03C2425.72 1017.53 2394.23 1142.77 2375.97 1197.57C2353.63 1264.57 2359.48 1265.99 2337.14 1333.03C2334.85 1339.89 2328.6 1379.81 2315.95 1406.27C2291.06 1458.33 2250.04 1513.26 2211.82 1608.83C2210.53 1612.03 2210.07 1611.76 2193.72 1648.09C2192.1 1651.72 2174.01 1691.91 2172.98 1693.1" stroke="#1C1C25" stroke-width="9" stroke-miterlimit="1.5" stroke-linecap="round" stroke-linejoin="round"/>
<path d="M2402.44 989.725C2384 1045.03 2390.08 1046.65 2378.61 1075.31C2372.87 1089.66 2356.73 1095.13 2350.81 1104" stroke="#1C1C25" stroke-width="9" stroke-miterlimit="1.5" stroke-linecap="round" stroke-linejoin="round"/>
<path d="M2588.41 1266.11C2594.58 1273.9 2675.15 1464.51 2705.76 1510.44C2712.42 1520.43 2727.97 1557.46 2752.6 1599.03C2760.75 1612.76 2780.32 1651.91 2782.64 1656.58C2784.3 1659.86 2786.27 1658.58 2806.57 1696.27" stroke="#1C1C25" stroke-width="9" stroke-miterlimit="1.5" stroke-linecap="round" stroke-linejoin="round"/>
<path d="M2531.11 1189.12C2533.73 1190.9 2541.04 1195.76 2566.24 1206.94C2604.24 1223.84 2604.55 1222.29 2615.13 1222.76" stroke="#1C1C25" stroke-width="9" stroke-miterlimit="1.5" stroke-linecap="round" stroke-linejoin="round"/>
<path d="M2520.51 515.871C2512.93 474.95 2555.03 485.364 2556.31 453.275C2557.96 412.045 2554.81 411.505 2561.73 404.601C2568.73 397.581 2574.11 398.97 2576.6 396.463" stroke="#1C1C25" stroke-width="9" stroke-miterlimit="1.5" stroke-linecap="round" stroke-linejoin="round"/>
<path d="M2549.95 1139.26C2552.53 1136.67 2566.58 1122.6 2572.36 1099.53" stroke="#1C1C25" stroke-width="9" stroke-miterlimit="1.5" stroke-linecap="round" stroke-linejoin="round"/>
<path d="M2536.17 1163.36C2557.05 1157.85 2555.62 1155.45 2573.89 1143.81C2582.09 1138.6 2583.39 1140.41 2588.14 1132.12" stroke="#1C1C25" stroke-width="9" stroke-miterlimit="1.5" stroke-linecap="round" stroke-linejoin="round"/>
<path d="M2616.58 1023.47C2616.47 1023.67 2648.72 1045.19 2651.53 1047.04C2669.45 1058.99 2674.91 1050.86 2691.2 1071.22C2694.85 1075.77 2707.19 1095.52 2708.53 1097.68C2727.91 1128.69 2722.49 1148.94 2710.36 1135.05C2700.64 1123.94 2681.88 1083.33 2677.98 1079.44C2677.78 1079.24 2677.14 1078.66 2677.06 1078.51" stroke="#1C1C25" stroke-width="9" stroke-miterlimit="1.5" stroke-linecap="round" stroke-linejoin="round"/>
<path d="M2651.81 977.924C2676.81 1013.83 2734.31 1045.19 2711.27 1091.28" stroke="#1C1C25" stroke-width="9" stroke-miterlimit="1.5" stroke-linecap="round" stroke-linejoin="round"/>
<path d="M2510.54 1202.24C2521.1 1215.08 2625.18 1373.75 2666.48 1497.64C2669.25 1505.97 2753.05 1733.83 2765.49 1731.75C2767.35 1731.44 2848.56 1695.38 2855.76 1692.18C2861.19 1689.75 2922.72 1662.4 2919.24 1653.72C2910.91 1632.9 2877.85 1605.01 2864.5 1576.86C2861.3 1570.11 2789.86 1460.61 2785.87 1453.36C2784.32 1450.54 2752.7 1410.16 2741.61 1369.51C2706.14 1239.46 2662.94 1139.41 2671.72 1165.1" stroke="#1C1C25" stroke-width="9" stroke-miterlimit="1.5" stroke-linecap="round" stroke-linejoin="round"/>
<path d="M2374.71 955.322C2373.27 957.945 2352.98 1032.38 2352 1040.25C2344.54 1099.88 2356.64 1108.83 2336.28 1210.65C2303.09 1376.57 2268.96 1424.36 2257.67 1440.17C2229.61 1479.47 2113.03 1690.13 2135.06 1702.36C2139.86 1705.02 2140.85 1701.51 2197.94 1730.05C2212.02 1737.07 2295.54 1752 2297.92 1728.16C2307.75 1629.85 2343.78 1590.43 2352 1528.84C2356.51 1494.98 2403.56 1435.12 2465.81 1289.87C2506.77 1194.29 2529.77 1154.07 2536.24 1142.73C2539.1 1137.75 2538.42 1138.06 2540.64 1133.32" stroke="#1C1C25" stroke-width="9" stroke-miterlimit="1.5" stroke-linecap="round" stroke-linejoin="round"/>
<path d="M2525.29 674.387C2523.52 733.86 2505.04 740.686 2531.71 762.902C2533.52 764.406 2544.35 780.721 2563.79 773.432C2583.85 765.911 2585.57 743.579 2585.81 740.417C2588.21 709.292 2590.36 698.492 2591.08 694.906" stroke="#1C1C25" stroke-width="9" stroke-miterlimit="1.5" stroke-linecap="round" stroke-linejoin="round"/>
<path d="M2557.26 707.363C2557.16 708.135 2557.19 708.096 2556.13 736.56" stroke="#1C1C25" stroke-width="9" stroke-miterlimit="1.5" stroke-linecap="round" stroke-linejoin="round"/>
<path d="M2569.25 662.16C2562.34 649.586 2547.97 670.336 2562.83 675.273C2566.8 676.623 2580.04 675.967 2570.02 660.925" stroke="#1C1C25" stroke-width="9" stroke-miterlimit="1.5" stroke-linecap="round" stroke-linejoin="round"/>
<path d="M2522.37 671.842C2538.68 678.321 2552.19 695.677 2569.54 693.942C2579.42 692.977 2591.77 675.892 2598.75 672.42" stroke="#1C1C25" stroke-width="9" stroke-miterlimit="1.5" stroke-linecap="round" stroke-linejoin="round"/>
<path d="M2523.1 666.211C2522.9 664.436 2520.67 644.304 2524.06 644.149C2529.91 643.918 2581.09 641.874 2597.31 643.687" stroke="#1C1C25" stroke-width="9" stroke-miterlimit="1.5" stroke-linecap="round" stroke-linejoin="round"/>
<path d="M2613.28 954.936C2613.2 957.944 2610.99 995.471 2610.71 998.441" stroke="#1C1C25" stroke-width="9" stroke-miterlimit="1.5" stroke-linecap="round" stroke-linejoin="round"/>
<path d="M2602.62 952.273C2599.33 956.632 2597.49 992.54 2597.3 996.049" stroke="#1C1C25" stroke-width="9" stroke-miterlimit="1.5" stroke-linecap="round" stroke-linejoin="round"/>
<path d="M2583.68 946.529C2581.6 971.638 2581.78 971.406 2581.51 973.566" stroke="#1C1C25" stroke-width="9" stroke-miterlimit="1.5" stroke-linecap="round" stroke-linejoin="round"/>
<path d="M2626.52 975.956C2634.58 974.607 2648.06 973.103 2650.93 968.783" stroke="#1C1C25" stroke-width="9" stroke-miterlimit="1.5" stroke-linecap="round" stroke-linejoin="round"/>
<path d="M2629.87 961.107C2619.83 951.079 2637.02 963.999 2649.5 957.751" stroke="#1C1C25" stroke-width="9" stroke-miterlimit="1.5" stroke-linecap="round" stroke-linejoin="round"/>
<path d="M2624.6 990.304C2625.78 990.073 2649.75 982.822 2649.98 982.166C2654.18 969.593 2650.74 969.592 2649.5 943.404" stroke="#1C1C25" stroke-width="9" stroke-miterlimit="1.5" stroke-linecap="round" stroke-linejoin="round"/>
<path d="M2550.87 936.694C2589.1 937.697 2588.73 934.766 2627 936.231C2627.1 941.245 2627.86 982.475 2622.64 998.751C2614.23 1002.11 2614.28 1001.95 2613.59 1002.3" stroke="#1C1C25" stroke-width="9" stroke-miterlimit="1.5" stroke-linecap="round" stroke-linejoin="round"/>
<path d="M2387.49 907.151C2385.78 904.258 2365.29 912.434 2382.34 925.201C2391.78 932.297 2365 934.92 2375.64 954.397C2378.43 959.527 2421.71 983.401 2445.06 986.023" stroke="#1C1C25" stroke-width="9" stroke-miterlimit="1.5" stroke-linecap="round" stroke-linejoin="round"/>
<path d="M2482.15 1027.91C2483.84 1032.92 2526.84 1089.62 2531.72 1090.39C2538.69 1091.43 2550.4 1080.79 2581.03 1061.66C2606 1046.04 2629.95 1003.73 2614.54 1002.76C2590.54 1001.26 2598.38 987.989 2578.16 974.529C2574.49 972.06 2576.28 970.518 2545.12 930.484C2522.69 901.634 2508.66 863.837 2492.46 847.638C2487.58 842.779 2502.22 842.74 2498.2 834.717C2468.97 776.247 2528.08 530.449 2428.78 535.964C2425.67 536.157 2402.93 537.391 2391.91 548.422" stroke="#1C1C25" stroke-width="9" stroke-miterlimit="1.5" stroke-linecap="round" stroke-linejoin="round"/>
<path d="M2426.05 493.809C2405.11 503.721 2354.13 548.19 2347.39 581.938C2343.93 599.217 2337.49 631.383 2354.57 802.166C2354.88 805.251 2366.23 877.567 2380.42 898.857C2397.75 924.852 2396.67 925.161 2415.37 950.115C2418.77 954.627 2443.44 987.526 2459.9 1005.15C2466.75 1012.48 2474.84 1036.01 2510.17 1027.17C2514.79 1026.02 2535.17 1020.93 2562.84 999.406C2562.84 999.406 2565.48 996.321 2565.71 996.051" stroke="#1C1C25" stroke-width="9" stroke-miterlimit="1.5" stroke-linecap="round" stroke-linejoin="round"/>
<path d="M2646.96 891.914C2658.63 905.992 2659.75 925.083 2656.2 935.728C2653.34 944.328 2639.24 943.48 2632.73 946.759" stroke="#1C1C25" stroke-width="9" stroke-miterlimit="1.5" stroke-linecap="round" stroke-linejoin="round"/>
<path d="M2620.78 561.844C2621.73 562.808 2639.13 607.818 2643.75 635.548C2660.66 737.023 2630.69 739.375 2653.8 839.5C2664.04 883.892 2642.49 895.232 2635.13 913.244" stroke="#1C1C25" stroke-width="9" stroke-miterlimit="1.5" stroke-linecap="round" stroke-linejoin="round"/>
<path d="M2570.02 545.299C2574.84 562.269 2608.2 606.777 2610.71 647.043C2613.31 688.582 2622.77 724.373 2610.71 820.833C2605.15 865.303 2614.2 922.886 2610.23 934.765" stroke="#1C1C25" stroke-width="9" stroke-miterlimit="1.5" stroke-linecap="round" stroke-linejoin="round"/>
<path d="M2611.9 490.068C2610.83 510.355 2620.22 507.231 2641.48 549.618C2638.69 550.505 2617.61 557.216 2613.59 573.299C2612.59 577.311 2615.66 577.311 2609.76 624.557" stroke="#1C1C25" stroke-width="9" stroke-miterlimit="1.5" stroke-linecap="round" stroke-linejoin="round"/>
<path d="M2593 551.778C2598.18 520.653 2605.79 522.543 2607.36 490.955" stroke="#1C1C25" stroke-width="9" stroke-miterlimit="1.5" stroke-linecap="round" stroke-linejoin="round"/>
<path d="M2539.27 484.551C2542.42 486.711 2582.51 521.731 2590.13 544.603C2597.29 566.047 2594.31 582.862 2597.31 594.857" stroke="#1C1C25" stroke-width="9" stroke-miterlimit="1.5" stroke-linecap="round" stroke-linejoin="round"/>
<path d="M2509.86 526.516C2512.13 529.987 2537.38 568.363 2541.29 567.553C2552.17 565.393 2558.89 545.415 2575.76 539.784" stroke="#1C1C25" stroke-width="9" stroke-miterlimit="1.5" stroke-linecap="round" stroke-linejoin="round"/>
<path d="M2607.97 216.307C2560.59 207.359 2560.29 240.027 2520.64 271.769" stroke="#1C1C25" stroke-width="9" stroke-miterlimit="1.5" stroke-linecap="round" stroke-linejoin="round"/>
<path d="M2614.25 236.709C2606.86 240.18 2568.67 258.076 2537.87 304.281C2512.86 341.809 2491.53 355.153 2485.23 380.377" stroke="#1C1C25" stroke-width="9" stroke-miterlimit="1.5" stroke-linecap="round" stroke-linejoin="round"/>
<path d="M2637.56 413.238C2622.56 418.021 2623.62 422.919 2619.23 438.308" stroke="#1C1C25" stroke-width="9" stroke-miterlimit="1.5" stroke-linecap="round" stroke-linejoin="round"/>
<path d="M2599.33 363.6C2589.83 390.983 2630.79 415.243 2595.78 421.067" stroke="#1C1C25" stroke-width="9" stroke-miterlimit="1.5" stroke-linecap="round" stroke-linejoin="round"/>
<path d="M2670.44 336.834C2664.49 342.774 2669.44 355.27 2674.75 347.826C2675.26 347.132 2680.42 339.919 2674.27 336.834" stroke="#1C1C25" stroke-width="9" stroke-miterlimit="1.5" stroke-linecap="round" stroke-linejoin="round"/>
<path d="M2694.08 316.971C2692.35 317.357 2690.06 327.732 2682.88 320.558C2673.15 310.839 2648.68 323.065 2646.03 324.376" stroke="#1C1C25" stroke-width="9" stroke-miterlimit="1.5" stroke-linecap="round" stroke-linejoin="round"/>
<path d="M2650.46 334.945C2651.84 340.345 2665.54 346.284 2670.92 351.684" stroke="#1C1C25" stroke-width="9" stroke-miterlimit="1.5" stroke-linecap="round" stroke-linejoin="round"/>
<path d="M2686.28 335.831C2677.02 331.781 2648.86 330.238 2645.55 336.834" stroke="#1C1C25" stroke-width="9" stroke-miterlimit="1.5" stroke-linecap="round" stroke-linejoin="round"/>
<path d="M2663.74 418.215C2680 417.405 2680.19 419.063 2694.37 411.967" stroke="#1C1C25" stroke-width="9" stroke-miterlimit="1.5" stroke-linecap="round" stroke-linejoin="round"/>
<path d="M2675.28 403.404C2645.48 412.237 2650.14 432.755 2635.5 447.372" stroke="#1C1C25" stroke-width="9" stroke-miterlimit="1.5" stroke-linecap="round" stroke-linejoin="round"/>
<path d="M2598.88 482.855C2583.57 478.921 2556.07 410.539 2566.59 400.01" stroke="#1C1C25" stroke-width="9" stroke-miterlimit="1.5" stroke-linecap="round" stroke-linejoin="round"/>
<path d="M2611.57 489.991C2600.93 492.112 2593.67 461.604 2590.52 452.193" stroke="#1C1C25" stroke-width="9" stroke-miterlimit="1.5" stroke-linecap="round" stroke-linejoin="round"/>
<path d="M2623.54 493.345C2607.84 487.444 2610.57 484.011 2607.27 467.504" stroke="#1C1C25" stroke-width="9" stroke-miterlimit="1.5" stroke-linecap="round" stroke-linejoin="round"/>
<path d="M2694.72 390.406C2693.17 399.084 2707.57 406.374 2689.11 418.677C2671.25 430.595 2707.38 457.323 2669.01 491.417C2665.82 494.233 2624.85 510.856 2617.32 473.213" stroke="#1C1C25" stroke-width="9" stroke-miterlimit="1.5" stroke-linecap="round" stroke-linejoin="round"/>
<path d="M2689 259.465C2699.49 282.529 2702.75 298.844 2703.46 302.392C2707.63 323.257 2705.37 323.296 2698.94 337.798C2706.77 355.038 2733.05 395.265 2699.15 391.871C2698.98 391.871 2693.04 382.924 2689.58 393.299C2686.28 403.211 2669.76 390.29 2681.92 384.196" stroke="#1C1C25" stroke-width="9" stroke-miterlimit="1.5" stroke-linecap="round" stroke-linejoin="round"/>
<path d="M2457.36 457.092C2444.81 504.223 2493.56 501.639 2503.58 511.667" stroke="#1C1C25" stroke-width="9" stroke-miterlimit="1.5" stroke-linecap="round" stroke-linejoin="round"/>
<path d="M2434.03 456.59C2435.59 458.673 2427.3 461.758 2445.4 487.098C2458.26 505.109 2477.25 504.839 2487.33 507.385" stroke="#1C1C25" stroke-width="9" stroke-miterlimit="1.5" stroke-linecap="round" stroke-linejoin="round"/>
<path d="M2412.81 445.482C2414.32 465.77 2412.93 495.39 2458.93 501.986" stroke="#1C1C25" stroke-width="9" stroke-miterlimit="1.5" stroke-linecap="round" stroke-linejoin="round"/>
<path d="M2704.5 270.149C2706.78 168.057 2476.34 139.015 2435.94 340.999C2420.67 417.327 2335.78 442.782 2425.11 493.847C2427.62 495.274 2426.82 497.549 2429.17 495.197" stroke="#1C1C25" stroke-width="9" stroke-miterlimit="1.5" stroke-linecap="round" stroke-linejoin="round"/>
<path d="M3512.57 464.55C3498.39 455.641 3521.28 441.794 3505.06 436.395C3487.21 430.417 3473.05 457.338 3477.13 468.214C3488.62 498.876 3510.42 489.157 3517.41 496.138" stroke="#1C1C25" stroke-width="9" stroke-miterlimit="1.5" stroke-linecap="round" stroke-linejoin="round"/>
<path d="M3492.66 453.982C3494.47 450.511 3497.69 458.572 3497.91 459.112C3501.13 467.173 3502.04 467.096 3510.26 466.247" stroke="#1C1C25" stroke-width="9" stroke-miterlimit="1.5" stroke-linecap="round" stroke-linejoin="round"/>
<path d="M3607.7 346.725C3604.04 387.029 3575 391.117 3560.09 406.814C3550.38 417.035 3546.6 441.951 3557.33 463.163" stroke="#1C1C25" stroke-width="9" stroke-miterlimit="1.5" stroke-linecap="round" stroke-linejoin="round"/>
<path d="M3558.32 465.63C3536.47 454.676 3531.53 422.934 3532.99 418.846C3521.84 442.99 3531.13 460.654 3530.09 466.363C3527.97 463.007 3506.97 450.125 3514.81 426.637" stroke="#1C1C25" stroke-width="9" stroke-miterlimit="1.5" stroke-linecap="round" stroke-linejoin="round"/>
<path d="M3575.87 400.641C3579.84 401.953 3601.54 409.203 3614.2 364.927C3611.9 380.971 3612.36 380.779 3607.4 395.975C3626.52 382.051 3623.3 379.351 3624.74 355.67C3625.11 356.75 3635.13 368.128 3626.27 401.104C3693.97 324.198 3535.93 243.937 3429.71 332.452C3390.91 364.773 3402.93 444.764 3408.92 504.584C3410.95 524.91 3429.83 539.142 3432.62 541.224C3428.59 519.433 3424.78 519.356 3430.35 502.656C3431.15 520.976 3431.01 520.821 3438.8 537.522C3438.8 536.519 3440.61 474.886 3447.24 527.957C3447.28 528.265 3447.8 528.342 3447.89 528.612C3448.03 528.998 3447.89 528.613 3446.35 533.511C3458.03 523.329 3459.93 523.752 3460.88 508.479C3461.41 522.017 3462.72 521.901 3458.94 535.13C3456.62 543.23 3495.14 534.398 3482.33 483.14" stroke="#1C1C25" stroke-width="9" stroke-miterlimit="1.5" stroke-linecap="round" stroke-linejoin="round"/>
<path d="M3632.67 396.477C3629.87 415.067 3621.03 419.888 3640.01 447.001C3656.26 470.22 3639.81 478.859 3627.71 471.608C3627.15 472.534 3620.08 484.568 3615.1 477.085C3612.13 472.65 3614.99 470.991 3617.69 467.366" stroke="#1C1C25" stroke-width="9" stroke-miterlimit="1.5" stroke-linecap="round" stroke-linejoin="round"/>
<path d="M3628.65 473.074C3626.86 473.923 3632.91 501.924 3626.1 503.621C3614.15 506.591 3611.22 498.568 3603.45 508.48" stroke="#1C1C25" stroke-width="9" stroke-miterlimit="1.5" stroke-linecap="round" stroke-linejoin="round"/>
<path d="M3622.51 504.777C3621.63 505.163 3627.9 514.651 3622.21 521.092C3617.77 526.106 3609.36 528.651 3613.8 534.976C3626.34 552.911 3578.76 568.724 3554.93 549.209C3545.47 541.495 3543.16 544.04 3537.14 533.357C3536.87 532.894 3536.49 532.508 3536.16 532.084" stroke="#1C1C25" stroke-width="9" stroke-miterlimit="1.5" stroke-linecap="round" stroke-linejoin="round"/>
<path d="M3616.72 412.714C3616.21 412.213 3611.28 411.942 3596.34 416.918C3589.03 419.348 3589.77 420.235 3584.37 425.673" stroke="#1C1C25" stroke-width="9" stroke-miterlimit="1.5" stroke-linecap="round" stroke-linejoin="round"/>
<path d="M3594.52 435.546C3593.72 434.35 3599.75 439.21 3607.66 423.396" stroke="#1C1C25" stroke-width="9" stroke-miterlimit="1.5" stroke-linecap="round" stroke-linejoin="round"/>
<path d="M3605.16 429.994C3606.58 439.173 3610.29 441.488 3601.84 445.73" stroke="#1C1C25" stroke-width="9" stroke-miterlimit="1.5" stroke-linecap="round" stroke-linejoin="round"/>
<path d="M3452.77 531.352C3446.9 544.156 3319.1 635.525 3317.47 723.038C3315.38 836.391 3321.22 836.198 3313.12 949.59C3309.26 1003.55 3328.75 1000.46 3344.24 1108.92C3344.84 1113.16 3349.37 1144.86 3352.41 1161.68C3380.34 1165.11 3423.47 1145.75 3464.17 1139.31C3459.02 1126.81 3457.77 1123.73 3445.07 971.382C3435.66 858.53 3520.83 644.088 3420.17 634.021" stroke="#1C1C25" stroke-width="9" stroke-miterlimit="1.5" stroke-linecap="round" stroke-linejoin="round"/>
<path d="M3427.76 559.777C3474.53 624.92 3465.73 656.122 3509.59 638.882C3504.4 647.328 3501.76 647.251 3505.44 656.431C3510.19 668.31 3507.02 668.155 3502.07 679.61C3510.66 696.735 3542.17 743.827 3555.23 790.263C3556.58 795.046 3569.85 842.216 3576.4 848.773" stroke="#1C1C25" stroke-width="9" stroke-miterlimit="1.5" stroke-linecap="round" stroke-linejoin="round"/>
<path d="M3459.38 535.709C3489.78 581.297 3521.96 623.954 3544.65 684.43C3574.37 763.688 3572.53 832.071 3577.02 850.006" stroke="#1C1C25" stroke-width="9" stroke-miterlimit="1.5" stroke-linecap="round" stroke-linejoin="round"/>
<path d="M3459.83 535.672C3466.22 546.895 3494.85 566.681 3498.19 568.995C3525.23 587.74 3541.02 590.285 3543.04 592.291" stroke="#1C1C25" stroke-width="9" stroke-miterlimit="1.5" stroke-linecap="round" stroke-linejoin="round"/>
<path d="M3567.99 557.539C3559.91 576.939 3552.79 572.812 3546.08 592.945C3541.53 606.598 3550.02 645.244 3533.94 650.605" stroke="#1C1C25" stroke-width="9" stroke-miterlimit="1.5" stroke-linecap="round" stroke-linejoin="round"/>
<path d="M3547.09 592.944C3548.32 633.711 3553.27 636.719 3561.92 649.254C3565.66 634.328 3570.67 633.904 3561.25 599.346C3559.1 591.478 3557.89 589.241 3550.46 592.944" stroke="#1C1C25" stroke-width="9" stroke-miterlimit="1.5" stroke-linecap="round" stroke-linejoin="round"/>
<path d="M3553.3 584.383C3554.6 586.813 3555.9 589.204 3557.2 591.595" stroke="#1C1C25" stroke-width="9" stroke-miterlimit="1.5" stroke-linecap="round" stroke-linejoin="round"/>
<path d="M3561.92 647.561C3561.92 652.767 3561.92 680.807 3567.65 712.318C3571.41 732.952 3568.64 755.938 3572.04 786.485" stroke="#1C1C25" stroke-width="9" stroke-miterlimit="1.5" stroke-linecap="round" stroke-linejoin="round"/>
<path d="M3565.37 642.312C3575.11 691.025 3586.68 688.556 3591.97 762.492C3596.72 829.139 3598.37 828.753 3598.37 895.477C3598.37 1078.33 3610.96 1095.22 3613.2 1122.96C3615.14 1122.49 3613.69 1123.84 3605.14 1125.89C3605.14 1125.89 3622.23 1119.25 3590.66 1131.36" stroke="#1C1C25" stroke-width="9" stroke-miterlimit="1.5" stroke-linecap="round" stroke-linejoin="round"/>
<path d="M3577.07 845.34C3571.81 851.357 3583.57 852.129 3576.21 945.233C3573.99 973.234 3566.7 1019.71 3573.41 1061.09C3582.72 1118.64 3606.78 1170.86 3599.47 1190.03C3581.44 1195.24 3512.23 1203.41 3466.28 1194.23" stroke="#1C1C25" stroke-width="9" stroke-miterlimit="1.5" stroke-linecap="round" stroke-linejoin="round"/>
<path d="M3313.19 923.209C3311.56 944.692 3310.68 944.421 3275.25 1157.05C3270.85 1183.39 3279.96 1186.36 3325.98 1188.56C3353.64 1189.87 3373.04 1192.15 3383.12 1193" stroke="#1C1C25" stroke-width="9" stroke-miterlimit="1.5" stroke-linecap="round" stroke-linejoin="round"/>
<path d="M3390.05 1158.36C3375.77 1176.37 3391.31 1245.18 3387.55 1254.55C3377.4 1279.97 3386.89 1295.86 3392.97 1281.67C3393.26 1280.97 3410.83 1245.61 3411.2 1246.69" stroke="#1C1C25" stroke-width="9" stroke-miterlimit="1.5" stroke-linecap="round" stroke-linejoin="round"/>
<path d="M3396.53 1273.99C3391.23 1287.57 3401.69 1298.14 3409.23 1287.57C3410.98 1285.1 3422.77 1268.63 3427.45 1254.55" stroke="#1C1C25" stroke-width="9" stroke-miterlimit="1.5" stroke-linecap="round" stroke-linejoin="round"/>
<path d="M3409.89 1289.5C3401.21 1295.51 3422.14 1308.28 3433.32 1288.69C3442.39 1272.83 3443.57 1273.22 3445.22 1255.09" stroke="#1C1C25" stroke-width="9" stroke-miterlimit="1.5" stroke-linecap="round" stroke-linejoin="round"/>
<path d="M3425.27 1296.05C3461.78 1322.82 3478.62 1231.61 3459.56 1183.39C3455.49 1173.1 3447.54 1146.6 3442.77 1142.78" stroke="#1C1C25" stroke-width="9" stroke-miterlimit="1.5" stroke-linecap="round" stroke-linejoin="round"/>
<path d="M3588.26 719.873C3592.31 727.587 3589.79 728.706 3634.5 818.108C3656.07 861.266 3651.79 862.616 3666.54 908.358C3669.64 917.962 3683.74 938.712 3697.54 982.41C3710.51 1023.49 3721.57 1027.42 3705.81 1039.26C3703.18 1041.23 3701.91 1038.99 3670.67 1060.59C3635.32 1085.08 3631.07 1073.51 3629.33 1067.15C3627.4 1060.05 3605.12 1020.4 3600.75 994.135" stroke="#1C1C25" stroke-width="9" stroke-miterlimit="1.5" stroke-linecap="round" stroke-linejoin="round"/>
<path d="M3714.48 1031.82C3727.07 1054.15 3747.12 1054.88 3745.77 1103.32C3745.65 1107.45 3739.38 1139.69 3717.87 1143.28C3707.89 1144.94 3702.91 1143.55 3707.54 1134.33C3708.84 1131.71 3708.72 1131.79 3710.98 1129.86" stroke="#1C1C25" stroke-width="9" stroke-miterlimit="1.5" stroke-linecap="round" stroke-linejoin="round"/>
<path d="M3716.76 1071.04C3716.34 1076.29 3725.81 1136.26 3704.78 1121.22C3693.15 1112.93 3706.76 1103.02 3695.48 1086.08C3692.37 1081.46 3677.56 1071.58 3675.5 1059.24" stroke="#1C1C25" stroke-width="9" stroke-miterlimit="1.5" stroke-linecap="round" stroke-linejoin="round"/>
<path d="M3687.42 1083.73C3664.32 1091.48 3675.4 1102.63 3679.63 1103.33C3681.14 1103.6 3693.51 1105.64 3698.58 1100.59" stroke="#1C1C25" stroke-width="9" stroke-miterlimit="1.5" stroke-linecap="round" stroke-linejoin="round"/>
<path d="M3682.98 1104.44C3675.39 1106.45 3676.06 1116.36 3679.98 1118.83C3687.05 1123.26 3698.87 1114.47 3698.92 1114.35" stroke="#1C1C25" stroke-width="9" stroke-miterlimit="1.5" stroke-linecap="round" stroke-linejoin="round"/>
<path d="M3695.27 1118.06C3678.62 1124.81 3688.23 1136.8 3689.27 1138.11C3695.3 1145.64 3704.21 1135.07 3708.56 1129.86" stroke="#1C1C25" stroke-width="9" stroke-miterlimit="1.5" stroke-linecap="round" stroke-linejoin="round"/>
<path d="M3710.86 1129.51C3711.18 1129.05 3711.49 1129.43 3715.46 1124" stroke="#1C1C25" stroke-width="9" stroke-miterlimit="1.5" stroke-linecap="round" stroke-linejoin="round"/>
<path d="M3717.87 1071.28C3732.61 1100.78 3724.64 1112.81 3717.87 1124.35" stroke="#1C1C25" stroke-width="9" stroke-miterlimit="1.5" stroke-linecap="round" stroke-linejoin="round"/>
<path d="M3515.27 333.573C3527.68 314.944 3509.56 347.612 3498.82 352.973C3483.37 360.725 3482.03 364.042 3481.39 365.662" stroke="#1C1C25" stroke-width="9" stroke-miterlimit="1.5" stroke-linecap="round" stroke-linejoin="round"/>
<path d="M3562.43 337.311C3547.8 344.137 3551.65 347.917 3542.64 361.416C3533.49 375.146 3532.98 374.26 3521.52 385.714" stroke="#1C1C25" stroke-width="9" stroke-miterlimit="1.5" stroke-linecap="round" stroke-linejoin="round"/>
<path d="M3469.79 381.975C3459.7 402.146 3454.99 398.058 3444.43 412.135C3425.18 437.783 3439.04 456.566 3443.9 468.098" stroke="#1C1C25" stroke-width="9" stroke-miterlimit="1.5" stroke-linecap="round" stroke-linejoin="round"/>
<path d="M3320.33 1193.92C3268.46 1375.46 3150.13 1535.45 3116.29 1636.96C3113.6 1645.02 3099.68 1657.98 3120.88 1665.04C3139.85 1671.36 3159.66 1688.68 3252.13 1694.85C3252.32 1694.85 3252.13 1694.85 3254.42 1695.43" stroke="#1C1C25" stroke-width="9" stroke-miterlimit="1.5" stroke-linecap="round" stroke-linejoin="round"/>
<path d="M3418.34 1335.35C3420.06 1357.3 3332.38 1494.03 3328.35 1503.44C3313.13 1538.96 3297.82 1567.31 3277.92 1636.96C3274.48 1648.99 3266.96 1666.54 3265.88 1669.05C3260.14 1682.47 3259.22 1690.61 3255.56 1694.27" stroke="#1C1C25" stroke-width="9" stroke-miterlimit="1.5" stroke-linecap="round" stroke-linejoin="round"/>
<path d="M3433.32 1317.92C3433.83 1316.69 3439.62 1302.3 3439.62 1302.3" stroke="#1C1C25" stroke-width="9" stroke-miterlimit="1.5" stroke-linecap="round" stroke-linejoin="round"/>
<path d="M3552.74 1198.05C3553.91 1196.81 3590.52 1310.17 3594.3 1321.51C3605.34 1354.64 3616.68 1362.08 3642.27 1438.87C3645.25 1447.78 3656.41 1481.3 3709.95 1534.83C3751.33 1576.21 3765.41 1607.11 3776.77 1612.78C3778.83 1613.82 3821.87 1659.45 3751.07 1683.05C3703.82 1698.79 3689.77 1765.55 3637.99 1690.76C3628.06 1676.42 3628.6 1676.22 3525.76 1504.86C3511.05 1480.33 3451.43 1340.95 3439.23 1304.38" stroke="#1C1C25" stroke-width="9" stroke-miterlimit="1.5" stroke-linecap="round" stroke-linejoin="round"/>
<path d="M3526.25 863.852C3521.16 866.166 3506.36 895.748 3504.9 898.679C3492.83 922.785 3488.35 918.928 3471.35 940.141" stroke="#1C1C25" stroke-width="9" stroke-miterlimit="1.5" stroke-linecap="round" stroke-linejoin="round"/>
<path d="M3394.79 1322.39C3394.29 1323.28 3394.78 1322.55 3322.15 1413.34" stroke="#1C1C25" stroke-width="9" stroke-miterlimit="1.5" stroke-linecap="round" stroke-linejoin="round"/>
<path d="M3537.62 1403.89C3544.68 1416.93 3575.4 1437.41 3579.06 1439.84C3582.45 1442.11 3583.45 1438.1 3625.84 1460.12" stroke="#1C1C25" stroke-width="9" stroke-miterlimit="1.5" stroke-linecap="round" stroke-linejoin="round"/>
<path d="M3281.35 1792.98C3270.6 1799.61 3245.95 1809.8 3215.38 1777.2C3187.34 1747.28 3147.43 1757.69 3132.36 1754.14C3119.05 1751.06 3112.36 1748.12 3107.19 1743.26C3102.06 1738.44 3099.16 1729.65 3097.67 1719.39C3096.84 1713.68 3098.18 1707.24 3100.79 1700.61C3102.55 1696.1 3105.62 1690 3110.14 1686.07C3116.91 1680.17 3122.54 1674.42 3139.39 1672.22" stroke="#1C1C25" stroke-width="9" stroke-miterlimit="1.5" stroke-linecap="round" stroke-linejoin="round"/>
<path d="M3282.35 1791.4C3299.28 1807.94 3326.47 1802.43 3332.17 1792.48C3341.81 1775.58 3312.21 1775.55 3309.23 1775.28" stroke="#1C1C25" stroke-width="9" stroke-miterlimit="1.5" stroke-linecap="round" stroke-linejoin="round"/>
<path d="M3307.36 1772.65C3317.53 1775.78 3329.28 1769.14 3322.5 1762.36C3319.23 1759.12 3301.76 1758.23 3297.05 1757.69" stroke="#1C1C25" stroke-width="9" stroke-miterlimit="1.5" stroke-linecap="round" stroke-linejoin="round"/>
<path d="M3311.4 1758.54C3327.15 1756.53 3314.79 1749.63 3314.25 1749.47C3305.42 1746.5 3305.57 1746.74 3296.33 1746.23" stroke="#1C1C25" stroke-width="9" stroke-miterlimit="1.5" stroke-linecap="round" stroke-linejoin="round"/>
<path d="M3301.33 1746.62C3276.14 1745.96 3275.59 1746.39 3254.4 1732.27C3235.16 1719.43 3232.78 1702.77 3228.95 1698.91" stroke="#1C1C25" stroke-width="9" stroke-miterlimit="1.5" stroke-linecap="round" stroke-linejoin="round"/>
<path d="M3846.96 1702.13C3840.1 1704.67 3766.82 1706.72 3756.55 1682.77" stroke="#1C1C25" stroke-width="9" stroke-miterlimit="1.5" stroke-linecap="round" stroke-linejoin="round"/>
<path d="M3871.57 1711.96C3871.02 1714.16 3877.49 1733.52 3853.46 1745.56C3832.68 1755.93 3839.79 1791.22 3775.07 1784.74C3736.71 1780.93 3713.15 1796.2 3694.04 1774.56C3690.6 1770.63 3686.07 1765.57 3686.3 1756.47C3686.56 1746.79 3691.43 1732.98 3682.56 1727.35C3681.24 1726.51 3683.25 1730.86 3683.17 1730.75" stroke="#1C1C25" stroke-width="9" stroke-miterlimit="1.5" stroke-linecap="round" stroke-linejoin="round"/>
<path d="M3819.2 1739.31C3828.34 1753.93 3812.88 1750.42 3806.69 1750.19" stroke="#1C1C25" stroke-width="9" stroke-miterlimit="1.5" stroke-linecap="round" stroke-linejoin="round"/>
<path d="M3824.19 1730.4C3825.25 1730.63 3835.5 1732.71 3830.74 1742.28C3827.02 1749.68 3820.37 1739.73 3819.87 1738.96" stroke="#1C1C25" stroke-width="9" stroke-miterlimit="1.5" stroke-linecap="round" stroke-linejoin="round"/>
<path d="M3835.55 1719.33C3834.61 1718.79 3844.79 1724.58 3836.66 1732.71C3832.21 1737.15 3826.41 1731.37 3825.79 1730.75" stroke="#1C1C25" stroke-width="9" stroke-miterlimit="1.5" stroke-linecap="round" stroke-linejoin="round"/>
<path d="M3855.57 1709.5C3860.55 1713.28 3850.26 1725.39 3838.64 1721.53" stroke="#1C1C25" stroke-width="9" stroke-miterlimit="1.5" stroke-linecap="round" stroke-linejoin="round"/>
<path d="M3843.59 1703.29C3861.57 1701.01 3869.74 1683.69 3875.2 1691.87C3879.84 1698.85 3875.1 1714.82 3857.41 1712.31" stroke="#1C1C25" stroke-width="9" stroke-miterlimit="1.5" stroke-linecap="round" stroke-linejoin="round"/>
<path d="M3418.83 1301.37C3417.84 1301.8 3419.32 1309.28 3419.36 1312.17C3419.44 1317.19 3418.96 1338.98 3419.92 1344.22C3426.5 1344.49 3426.63 1345.07 3431.96 1341.56C3431.84 1338.05 3430.78 1307.74 3429.49 1297.4" stroke="#1C1C25" stroke-width="9" stroke-miterlimit="1.5" stroke-linecap="round" stroke-linejoin="round"/>
<path d="M3204.02 1767.1C3210.35 1774.35 3223.69 1790.36 3255.66 1836.06C3370.52 2000.13 3371.18 1999.55 3377.16 2011.47" stroke="#1C1C25" stroke-width="9" stroke-miterlimit="1.5" stroke-linecap="round" stroke-linejoin="round"/>
<path d="M3044.02 1545.79C3052.01 1563.88 3081.35 1604.41 3112.33 1645.41" stroke="#1C1C25" stroke-width="9" stroke-miterlimit="1.5" stroke-linecap="round" stroke-linejoin="round"/>
<path d="M3156.42 1546.45C3108.88 1546.02 3068.56 1545.68 3045.67 1545.68" stroke="#1C1C25" stroke-width="9" stroke-miterlimit="1.5" stroke-linecap="round" stroke-linejoin="round"/>
<path d="M3482.65 1549.3C3449.4 1549.34 3382.45 1548.76 3309.78 1548.03" stroke="#1C1C25" stroke-width="9" stroke-miterlimit="1.5" stroke-linecap="round" stroke-linejoin="round"/>
<path d="M3484.44 1551.77C3492.42 1565.38 3598.29 1680.24 3644.5 1729.95C3661.74 1748.54 3708.95 1805.55 3831.68 1943.12C3841.59 1954.23 3862.57 1979.57 3897.21 2014.21" stroke="#1C1C25" stroke-width="9" stroke-miterlimit="1.5" stroke-linecap="round" stroke-linejoin="round"/>
<path d="M635.838 1550.3C625.613 1564.46 561.326 1629.64 487.604 1710.9C458.087 1743.42 357.833 1856.73 347.397 1865.76C346.135 1866.87 278.824 1947.14 274.921 1951.23C257.464 1969.47 248.057 1986.44 224.105 2010.39" stroke="#1C1C25" stroke-width="9" stroke-miterlimit="1.5" stroke-linecap="round" stroke-linejoin="round"/>
<path d="M742.138 2009.46C741.768 2009.04 741.787 2009.19 596.28 2011.74C579.633 2012.05 224.228 2010.39 224 2010.62" stroke="#1C1C25" stroke-width="9" stroke-miterlimit="1.5" stroke-linecap="round" stroke-linejoin="round"/>
<path d="M741.688 2008.34C752.699 2001.02 916.743 1767.95 927.827 1749.24C929.86 1745.81 949.696 1724.63 980.444 1678.5C984.968 1671.72 986.827 1673.45 1040.98 1596.47C1043.6 1592.77 1043.05 1592.54 1072.1 1548.95C1072.37 1548.57 1075.49 1543.86 1075.49 1543.86" stroke="#1C1C25" stroke-width="9" stroke-miterlimit="1.5" stroke-linecap="round" stroke-linejoin="round"/>
<path d="M636.359 1551.11C688.644 1548.84 686.758 1550.53 738.711 1548.68C781.546 1547.18 1072.11 1543.01 1073.79 1543.86" stroke="#1C1C25" stroke-width="9" stroke-miterlimit="1.5" stroke-linecap="round" stroke-linejoin="round"/>
<path d="M3897.9 2012.86C3779.49 2009.16 3384.04 2017.72 3377.83 2011.47" stroke="#1C1C25" stroke-width="9" stroke-miterlimit="1.5" stroke-linecap="round" stroke-linejoin="round"/>
<path d="M1404.74 1548.15C1400.46 1560.91 1393.74 1570.52 1392.49 1572.29C1384.86 1583.21 1353.33 1664.08 1321.02 1721.13C1308.24 1743.69 1313.08 1746.04 1179.66 2012.86" stroke="#1C1C25" stroke-width="9" stroke-miterlimit="1.5" stroke-linecap="round" stroke-linejoin="round"/>
<path d="M1403.48 1549.49C1410.57 1545.94 1692.9 1549.69 1698.35 1549.88C1708.18 1550.26 1816.11 1550.65 1818.76 1550.92" stroke="#1C1C25" stroke-width="9" stroke-miterlimit="1.5" stroke-linecap="round" stroke-linejoin="round"/>
<path d="M1821.21 1552.35C1817.22 1556.21 1810.57 1591.23 1799.23 1638.55C1769.63 1762.13 1722.62 1976.68 1716.1 1992.96C1711.38 2004.76 1711.69 2010.59 1713.32 2010.12" stroke="#1C1C25" stroke-width="9" stroke-miterlimit="1.5" stroke-linecap="round" stroke-linejoin="round"/>
<path d="M1712.54 2010.58C1704.81 2010.12 1519.17 2008.34 1434.15 2009.04C1354.92 2009.66 1319.89 2011.51 1243.65 2010.39C1238.94 2010.31 1188.01 2008.92 1184.76 2009.73" stroke="#1C1C25" stroke-width="9" stroke-miterlimit="1.5" stroke-linecap="round" stroke-linejoin="round"/>
<path d="M2363.73 1822.83C2383.95 1904.98 2402.08 1977.49 2405.59 1991.53C2408.27 2002.25 2408.59 2001.67 2410.4 2012.59" stroke="#1C1C25" stroke-width="9" stroke-miterlimit="1.5" stroke-linecap="round" stroke-linejoin="round"/>
<path d="M2318.39 1635.46C2327.96 1676.23 2340.37 1727.49 2352.82 1778.36" stroke="#1C1C25" stroke-width="9" stroke-miterlimit="1.5" stroke-linecap="round" stroke-linejoin="round"/>
<path d="M2685.21 1548.1C2617.1 1547.76 2445.32 1548.1 2348.42 1550.69" stroke="#1C1C25" stroke-width="9" stroke-miterlimit="1.5" stroke-linecap="round" stroke-linejoin="round"/>
<path d="M2833.36 1796.76C2866.99 1869.69 2912.6 1951.42 2931.87 1999.59C2932.04 2000.02 2936.2 2010.74 2937.78 2012.59" stroke="#1C1C25" stroke-width="9" stroke-miterlimit="1.5" stroke-linecap="round" stroke-linejoin="round"/>
<path d="M2937.06 2012.59C2904 2020.34 2416.48 2007.15 2411.01 2012.59" stroke="#1C1C25" stroke-width="9" stroke-miterlimit="1.5" stroke-linecap="round" stroke-linejoin="round"/>
</svg>
