<?xml version="1.0" encoding="utf-8"?>
<!DOCTYPE svg PUBLIC "-//W3C//DTD SVG 1.0//EN" "http://www.w3.org/TR/2001/REC-SVG-20010904/DTD/svg10.dtd">
<svg version="1.0" xmlns="http://www.w3.org/2000/svg" width="349px" height="524px" viewBox="0 0 349 524" preserveAspectRatio="xMidYMid meet">
 <g fill="#000000">
  <path d="M33.50 514.45 c-3.30 -0.65 -4.90 -1.35 -8.35 -3.75 -5.40 -3.80 -12.05 -12.30 -13.30 -16.90 -0.60 -2.25 -1.25 -8.35 -1.45 -13.30 -0.05 -2.35 0.05 -103.80 0.30 -225.45 l0.45 -221.20 1.20 -3.30 c2.65 -7.30 7.65 -13 14.25 -16.25 6.50 -3.20 6.05 -3.20 40.15 -3.30 58.45 -0.20 241.50 0.35 243.90 0.75 1.30 0.20 2.35 0.50 2.35 0.70 0 0.20 1.05 0.65 2.40 1 5.40 1.60 11.05 5 15.65 9.55 3.20 3.15 6.60 9.60 7.25 13.75 0.35 2.25 0.30 149.80 -0.05 153.45 -0.10 0.85 -0.20 68 -0.20 149.20 -0.05 162.90 0.20 149.80 -3.25 156.85 -2.05 4.15 -7.15 10.30 -10.70 12.90 -2.95 2.20 -7.55 4.30 -9.80 4.55 -0.85 0.10 -1.95 0.35 -2.45 0.55 -0.50 0.20 -2 0.25 -3.35 0.15 -1.40 -0.15 -2.50 -0.05 -2.50 0.15 0 0.60 -269.60 0.45 -272.50 -0.10z m277.50 -2.45 c7.95 -1.20 14 -4.95 18.50 -11.55 2.55 -3.70 5 -8.55 5 -9.90 0 -0.55 0.15 -1.05 0.40 -1.05 0.40 0 0.30 -43.30 -0.10 -44.35 -0.15 -0.35 -1.20 -1.30 -2.40 -2.15 -3.20 -2.35 -7.45 -6.55 -7.25 -7.20 0.40 -1.25 1.80 -0.65 5.30 2.45 2.05 1.80 3.90 3.25 4.15 3.25 0.20 0 0.40 -1.10 0.40 -2.40 0 -2.35 -0.05 -2.45 -3.35 -5.15 -1.80 -1.50 -4.35 -3.60 -5.65 -4.70 -1.30 -1.10 -3.05 -2.60 -3.95 -3.35 -1.70 -1.45 -1.95 -2.30 -0.80 -2.70 0.70 -0.30 2.75 1.15 7.55 5.30 1.15 0.95 3 2.50 4.15 3.40 l2.05 1.65 0 -2.20 c0 -2.05 -0.15 -2.30 -2.85 -4.50 -6.15 -4.95 -16.75 -14.05 -17.55 -15 -0.40 -0.45 -0.55 -1.05 -0.35 -1.35 0.60 -1 1.90 -0.50 4.25 1.65 1.30 1.15 4.20 3.70 6.50 5.60 2.30 1.95 5.10 4.30 6.20 5.25 3.95 3.45 3.80 3.40 3.80 0.90 0 -2.15 -0.10 -2.25 -4.60 -6.15 -2.50 -2.20 -6.05 -5.35 -7.90 -7 -1.80 -1.65 -5.60 -5 -8.40 -7.50 -4.40 -3.90 -5 -4.55 -4.35 -5.20 0.90 -0.90 1.65 -0.40 6.60 4.05 1.90 1.70 5.70 5.05 8.40 7.40 2.70 2.35 6.10 5.35 7.60 6.70 l2.65 2.45 0 -2.75 0 -2.80 -9.50 -9.20 c-5.20 -5.10 -9.50 -9.50 -9.50 -9.75 0 -0.30 0.35 -0.70 0.80 -0.85 0.60 -0.20 3.30 2.05 9.50 8 l8.70 8.30 0 -4.20 0 -4.20 -4.15 -4 c-2.25 -2.15 -5.20 -4.90 -6.50 -6.05 -2.35 -2.10 -2.65 -3.15 -0.90 -3.15 0.50 0 3.25 2.15 6.15 4.70 5.15 4.65 5.30 4.70 5.55 3.40 0.15 -0.75 0.20 -2.35 0.10 -3.55 -0.15 -2.40 -0.45 -2.75 -6.65 -7.95 -2.65 -2.20 -3.20 -3.40 -1.80 -3.95 0.50 -0.15 1.45 0.35 2.60 1.45 2.65 2.50 5.10 4.40 5.65 4.40 0.25 0 0.45 -1.45 0.45 -3.20 l0 -3.20 -3.05 -2.45 c-4.40 -3.45 -4.95 -4.05 -4.65 -4.90 0.45 -1.15 1 -0.95 4.20 1.50 1.60 1.25 3.05 2.25 3.20 2.25 0.15 0 0.30 -0.90 0.30 -1.95 0 -2.10 0.20 -1.85 -7.15 -8.10 -1.50 -1.30 -1.55 -2.45 -0.05 -2.45 0.40 0 2.20 1.15 3.95 2.55 l3.25 2.55 0.05 -40.30 c0.05 -22.15 0.10 -41.15 0.15 -42.15 0.10 -1.05 0.20 -57.70 0.25 -125.90 l0.15 -124 -1.25 -3.35 c-2.20 -5.70 -4.75 -8.80 -10.85 -13 -5.05 -3.40 -10.30 -5.40 -14.35 -5.40 -1.05 0 -2.15 -0.20 -2.40 -0.45 -0.45 -0.45 -131.15 -1.10 -227.25 -1.15 -41.05 -0.05 -44.90 0.10 -49.75 1.80 -6.10 2.15 -12.95 8.65 -14.80 14.05 -0.35 1.10 -0.90 2.30 -1.20 2.70 -0.60 0.85 -1.10 47 -1.20 113.30 l-0.05 47.50 2.40 -2.70 c1.50 -1.70 2.65 -2.60 3 -2.35 0.35 0.20 0.60 0.60 0.60 0.85 0 0.75 -4.45 6.30 -5.30 6.65 -0.50 0.20 -0.70 1.10 -0.70 3.05 l0 2.75 3.30 -3.50 c3.25 -3.45 4.70 -4.25 4.70 -2.70 0 0.80 -6.95 9.20 -7.60 9.20 -0.25 0 -0.40 1.15 -0.40 2.50 0 1.40 0.25 2.50 0.50 2.50 0.30 0 0.50 -0.20 0.50 -0.40 0 -0.20 1.50 -2 3.30 -4 2.65 -2.90 3.55 -3.60 4.75 -3.60 0.80 0 1.45 0.25 1.45 0.55 0 0.25 -1.35 1.75 -3.05 3.30 -1.65 1.55 -4.05 4.15 -5.25 5.70 -1.95 2.55 -2.20 3.20 -2.20 5.40 0 1.40 0.10 2.55 0.20 2.55 0.15 0 2.75 -2.60 5.85 -5.75 4.95 -5.10 5.75 -5.70 6.35 -5.05 0.65 0.65 0.40 1.15 -2.30 4.15 -1.65 1.85 -4.60 4.95 -6.55 6.90 l-3.55 3.45 0 4.30 0.05 4.25 1 -1.25 c2.15 -2.65 7.30 -8.80 9.45 -11.25 1.25 -1.40 3.35 -3.85 4.65 -5.45 2 -2.30 2.60 -2.75 3.15 -2.25 0.40 0.30 0.70 0.75 0.70 0.95 0 0.35 -2.35 3.20 -10.50 12.75 -8.30 9.80 -8.50 10.05 -8.50 12.50 0 1.25 0.25 2.25 0.50 2.25 0.30 0 0.50 -0.25 0.50 -0.55 0 -0.30 1.95 -2.60 4.40 -5.15 2.40 -2.50 5.65 -6.10 7.30 -7.95 2.85 -3.30 3.90 -3.85 4.20 -2.20 0.15 0.80 -1.80 3.20 -10.80 13.05 -2.05 2.25 -4.20 4.65 -4.90 5.40 -0.95 1.05 -1.20 1.90 -1.20 3.85 0 1.40 0.15 2.55 0.40 2.55 0.20 0 1 -0.90 1.80 -2 2.30 -3.10 11.05 -11.50 12 -11.50 2 0 1.10 1.60 -3.70 6.30 -2.80 2.70 -6.30 6.45 -7.80 8.30 -2.55 3.10 -2.75 3.50 -2.60 5.60 l0.15 2.25 5.25 -5.95 c4.85 -5.55 6.45 -6.75 7.25 -5.50 0.15 0.25 -2.15 3.30 -5.10 6.75 -8.10 9.30 -7.70 8.70 -7.55 12.30 l0.15 3.15 2.10 -2.75 c1.15 -1.50 4.10 -4.85 6.55 -7.45 3.95 -4.20 4.55 -4.65 5.30 -4.05 0.85 0.70 0.65 1.05 -7.45 10.10 -6.65 7.45 -6.75 7.60 -6.75 10.55 l0.05 2.65 1.85 -2.05 c1 -1.10 3.40 -3.85 5.35 -6.10 1.90 -2.25 3.70 -4.05 4 -3.95 1.35 0.45 0.60 2.30 -2.10 5.45 -1.60 1.80 -4 4.60 -5.35 6.15 -1.45 1.70 -2.70 2.70 -3.10 2.55 -0.55 -0.20 -0.70 0.45 -0.70 3.35 l0.05 3.60 1.60 -1.80 c0.85 -1 2.90 -3.45 4.50 -5.40 2.80 -3.35 4.85 -4.60 4.85 -2.85 0 0.75 -4.85 6.95 -8.90 11.35 l-2.15 2.35 0.15 3.70 0.15 3.65 2.35 -3.50 c2.85 -4.35 3.65 -5.10 4.60 -4.30 0.60 0.50 0.25 1.35 -2.35 5.15 -1.65 2.50 -3.45 4.65 -3.95 4.80 -0.85 0.20 -0.90 2.20 -1 43.80 -0.10 23.95 -0.15 66.50 -0.10 94.55 0.05 55.05 0 53.65 2.65 58.80 2.85 5.45 9 11.75 14.10 14.45 l3.20 1.65 135.75 0.20 c74.65 0.10 136 0.30 136.25 0.40 0.30 0.10 1.20 0.10 2 -0.05 0.85 -0.15 2.75 -0.45 4.25 -0.70z"/>
  <path d="M160.80 504.60 c-0.10 -0.20 -0.30 -1.95 -0.35 -3.85 -0.20 -5.45 -0.30 -5.75 -2.25 -5.75 -0.90 0 -1.75 -0.20 -1.95 -0.45 -0.40 -0.70 2.45 -1.15 6.25 -0.95 3.55 0.15 4.25 1.05 1 1.30 l-2 0.15 0.15 4.75 c0.20 4.25 -0.10 5.95 -0.85 4.80z"/>
  <path d="M202.25 503.50 c-0.70 -1.35 -1.05 -1.50 -3 -1.50 -1.95 0 -2.25 0.15 -2.25 1 0 0.55 -0.35 1.15 -0.80 1.35 -0.85 0.30 -4.20 -2.80 -6.55 -6.05 l-1.05 -1.50 0.30 3.60 c0.15 2.20 0.05 3.60 -0.25 3.60 -0.80 0 -2.30 -10.45 -1.50 -10.50 0.20 0 1.80 1.70 3.50 3.85 2.95 3.65 3.10 3.80 3.25 2.50 0.10 -0.75 -0.05 -2.40 -0.30 -3.65 -0.50 -2.30 -0.30 -4.20 0.40 -4.20 0.45 0 0.80 1.35 1.25 5.40 0.35 2.75 0.95 3.35 1.50 1.50 0.65 -2.35 1.95 -4.90 2.35 -4.80 0.75 0.25 2.15 3.20 3.45 7.05 0.65 1.80 1.40 2.45 1.50 1.25 0 -0.35 0.10 -2.55 0.20 -4.85 0.10 -2.30 0.35 -4.30 0.50 -4.45 0.70 -0.70 1.15 1.35 1 4.45 -0.20 4.35 0.10 4.80 2.60 4.05 1.20 -0.35 2.05 -0.40 2.35 -0.10 0.75 0.75 0.15 1.05 -3.40 1.65 -2.10 0.35 -3.30 0.80 -3.30 1.20 0 1.15 -0.95 0.70 -1.75 -0.85z m-1.75 -3.35 c-0.05 -2.25 -1.55 -3.50 -2.20 -1.85 -0.60 1.55 -0.30 2.20 0.95 2.20 0.70 0 1.25 -0.15 1.25 -0.35z"/>
  <path d="M225.85 504.65 c-0.20 -0.15 -0.35 -1.70 -0.35 -3.40 0 -1.75 -0.15 -3.85 -0.30 -4.70 -0.30 -1.35 -0.50 -1.55 -2 -1.55 -0.95 0 -1.70 -0.20 -1.70 -0.50 0 -0.75 1.95 -1.05 5.75 -0.90 3.75 0.15 4.60 1.05 1.25 1.30 l-2 0.15 0.10 4.75 c0.05 4.60 -0.10 5.55 -0.75 4.85z"/>
  <path d="M145.95 502.10 c-1.20 -1.30 -2.70 -3 -3.25 -3.80 l-1.05 -1.35 0.25 3.50 c0.35 4.85 -0.60 4.60 -1.35 -0.30 -0.35 -2.15 -0.80 -4.35 -1.05 -4.95 -0.45 -1.20 0.20 -2.70 0.90 -1.95 0.20 0.30 1.70 2.15 3.30 4.15 1.60 2 3.10 3.70 3.30 3.85 0.30 0.20 -0.15 -4.45 -0.80 -7.35 -0.15 -0.70 -0.05 -1.45 0.25 -1.60 0.65 -0.40 1.55 1.30 1.55 2.90 0 1.65 0.80 1.70 1.20 0.05 0.40 -1.55 1.90 -2.35 3.95 -2.15 1.10 0.10 1.65 0.45 1.75 1.05 0.15 0.80 -0.05 0.90 -1.40 0.60 -2.30 -0.50 -3.50 0.75 -3.50 3.75 0 3.15 1.10 4.20 4.05 3.75 l2.20 -0.35 -0.95 1.05 c-1.20 1.35 -3.55 1.35 -4.65 0.05 -1.10 -1.25 -1.65 -1.25 -1.65 -0.05 0 1.80 -0.85 1.55 -3.05 -0.85z"/>
  <path d="M49.15 502.50 c-0.75 -1.30 -1.15 -1.50 -2.95 -1.50 -1.80 0 -2.15 0.15 -2.40 1.25 -0.20 0.70 -0.70 1.25 -1.10 1.25 -0.55 0 -0.70 -0.25 -0.50 -0.80 0.15 -0.45 0.45 -1.40 0.60 -2.10 0.15 -0.75 0.45 -1.80 0.70 -2.35 1.55 -3.95 2.20 -5.25 2.60 -5.25 0.40 0 1.60 2.40 3.85 7.70 0.60 1.35 1.05 2.60 1.05 2.85 0 0.95 -1 0.40 -1.85 -1.05z m-1.85 -3.80 c-0.15 -0.45 -0.30 -1.10 -0.30 -1.50 0 -0.95 -1.30 -0.90 -1.70 0.10 -0.60 1.55 -0.30 2.20 1 2.20 1 0 1.25 -0.20 1 -0.80z"/>
  <path d="M52.75 499.55 c0 -2.90 -0.25 -4.70 -0.70 -5.20 -0.95 -1.15 -0.25 -1.85 1.85 -1.85 2.65 0 4.30 1.25 3.95 3 -0.20 0.95 0 1.70 0.70 2.40 0.50 0.60 0.95 1.50 0.95 2 0 1.55 -3.50 4.10 -5.60 4.10 -1.10 0 -1.15 -0.15 -1.15 -4.45z m4 1.65 c1.60 -1.05 1.60 -2.10 -0.05 -2.70 -1.70 -0.65 -2.20 -0.30 -2.20 1.80 0 1.90 0.45 2.10 2.25 0.90z m-1.05 -5.15 c1.05 -1.15 0.70 -2.05 -0.75 -2.05 -0.70 0 -0.95 0.35 -0.95 1.50 0 1.75 0.50 1.90 1.70 0.55z"/>
  <path d="M90.80 503.65 c-0.15 -0.15 -0.30 -1.70 -0.30 -3.40 0 -1.75 -0.15 -3.85 -0.30 -4.70 -0.30 -1.35 -0.55 -1.55 -2 -1.55 -0.90 0 -1.75 -0.20 -1.95 -0.45 -0.40 -0.70 2.45 -1.15 6.25 -0.95 3.55 0.15 4.25 1.05 1.05 1.30 l-2 0.15 0.15 4.75 c0.10 4.45 -0.10 5.65 -0.90 4.85z"/>
  <path d="M122.80 503.40 c-0.60 -1.85 -0.85 -3.90 -0.80 -5.95 0.05 -2 -0.10 -2.35 -1.10 -2.65 -1.10 -0.30 -1.10 -0.35 -0.25 -1 1.30 -1 7.85 -2.05 8.80 -1.45 0.55 0.35 0.90 1.70 1.15 4.15 0.50 4.60 1.20 5.75 3.45 5.70 2.45 -0.05 3.25 -1.90 2.65 -5.75 -0.30 -1.60 -0.35 -3.30 -0.15 -3.80 0.55 -1.65 1.50 1.05 1.60 4.80 0.10 3.05 -0.05 3.60 -1.10 4.75 -1.60 1.70 -4 1.75 -5.85 0.10 -1.25 -1 -1.40 -1.60 -1.65 -5 -0.15 -2.10 -0.50 -3.85 -0.80 -3.85 -0.25 -0.05 -1.55 0.10 -2.85 0.25 -2.25 0.30 -2.40 0.45 -2.40 1.80 0 2.50 0.40 2.95 2 2.35 0.80 -0.30 1.60 -0.40 1.80 -0.20 0.50 0.45 0.05 0.85 -1.25 1.10 -1.75 0.35 -2.05 0.70 -2.05 2.75 0 1.90 -0.80 3.20 -1.20 1.90z"/>
  <path d="M168.25 503.25 c0.55 -0.45 1.25 -1 1.60 -1.15 0.45 -0.25 0.50 -1.40 0.30 -3.95 l-0.30 -3.60 -1.40 0.30 c-1.85 0.35 -1.90 -0.60 -0.05 -1.55 1.70 -0.85 6.60 -1.55 6.60 -0.95 0 0.30 -0.90 0.80 -2 1.15 -1.80 0.60 -2 0.80 -1.80 1.95 0.15 0.70 0.40 2.35 0.60 3.70 l0.30 2.35 1.70 -0.30 c2.10 -0.40 2.35 0.60 0.35 1.30 -0.80 0.30 -1.75 0.70 -2.15 0.90 -0.40 0.20 -1.65 0.45 -2.75 0.50 -1.90 0.10 -1.95 0.10 -1 -0.65z"/>
  <path d="M213.25 503.20 c0.55 -0.40 1.30 -0.95 1.65 -1.15 0.45 -0.25 0.55 -1.25 0.30 -3.90 l-0.35 -3.55 -1.65 0.25 c-0.95 0.15 -1.70 0.05 -1.70 -0.20 0 -0.70 3.40 -2.05 6.15 -2.45 2.95 -0.40 3.20 0.50 0.35 1.35 -1.95 0.60 -2 0.60 -1.70 2.65 0.75 5.70 0.60 5.40 2.50 5.10 2.05 -0.35 2.30 0.50 0.35 1.20 -0.80 0.30 -1.80 0.75 -2.25 1 -0.50 0.30 -1.75 0.50 -2.75 0.50 -1.80 -0.05 -1.85 -0.05 -0.90 -0.80z"/>
  <path d="M235.85 503.65 c-0.10 -0.25 -0.40 -1.50 -0.60 -2.90 -0.20 -1.35 -0.60 -2.85 -0.95 -3.25 -0.35 -0.40 -1.20 -1.70 -1.95 -2.85 -1.90 -3 -0.45 -2.90 1.70 0.10 0.90 1.25 1.85 2.25 2.20 2.25 0.30 0 0.90 -0.60 1.35 -1.40 1 -1.70 2.80 -3.35 3.20 -3 0.30 0.35 -0.75 2.30 -2.55 4.85 -0.85 1.15 -1.25 2.35 -1.25 3.85 0 1.95 -0.65 3.25 -1.15 2.35z"/>
  <path d="M259 502.80 c-0.45 -1.25 -1.25 -4.20 -1.70 -6.30 -0.15 -0.70 -0.45 -1.90 -0.65 -2.75 -0.25 -1.30 -0.20 -1.40 0.45 -0.90 0.40 0.35 1 2.10 1.40 3.85 0.35 1.80 0.85 3.15 1.05 3.05 0.15 -0.15 0.75 -1.75 1.20 -3.60 0.90 -3.35 1.50 -4.60 2 -4.10 0.20 0.25 -0.15 2.10 -1.75 9.35 -0.65 2.80 -1.25 3.30 -2 1.40z"/>
  <path d="M295.25 502.50 c-0.70 -1.30 -1.05 -1.50 -2.95 -1.50 -1.90 0 -2.25 0.15 -2.50 1.25 -0.20 0.70 -0.70 1.25 -1.10 1.25 -0.45 0 -0.70 -0.30 -0.60 -0.60 0.15 -0.35 0.65 -1.90 1.10 -3.40 1.30 -4.20 2.40 -6.55 3 -6.35 0.45 0.15 4.80 9.60 4.80 10.45 0 0.95 -1.05 0.25 -1.75 -1.10z m-1.75 -3.35 c-0.05 -2.25 -1.55 -3.50 -2.20 -1.85 -0.60 1.55 -0.30 2.20 0.95 2.20 0.70 0 1.25 -0.15 1.25 -0.35z"/>
  <path d="M179.45 502.95 c-2.40 -0.90 -3.70 -5.70 -2.35 -8.70 0.30 -0.75 1.35 -1.65 2.25 -2 1.40 -0.60 1.90 -0.60 3.35 0 0.95 0.40 1.90 1.20 2.05 1.80 0.20 0.65 0.60 0.90 1.10 0.75 0.55 -0.25 0.65 -0.10 0.45 0.50 -0.15 0.40 -0.30 1.60 -0.30 2.65 0 1.30 -0.40 2.30 -1.35 3.45 -1.55 1.75 -3.25 2.30 -5.20 1.55z m3.75 -2.20 c1.75 -1.60 1.75 -4.10 0 -6.20 -1.50 -1.85 -2.10 -1.90 -3.90 -0.50 -1.75 1.35 -1.85 5.05 -0.20 6.80 1.40 1.45 2.45 1.45 4.10 -0.10z"/>
  <path d="M30 501.95 c-1.70 -1.05 -2.35 -2.35 -2.70 -5.50 -0.25 -2.40 0.10 -5.05 0.70 -4.70 0.20 0.10 0.50 1.70 0.70 3.50 0.50 4.75 1.05 5.75 3.30 5.75 2.60 0 3.35 -1.75 2.60 -6.15 -0.25 -1.70 -0.30 -3.30 -0.10 -3.55 0.75 -0.80 1.50 1.70 1.60 5.20 0.05 3 -0.10 3.70 -1.05 4.70 -1.50 1.60 -3.20 1.85 -5.05 0.75z"/>
  <path d="M62.25 502.20 c0.55 -0.40 1.25 -0.95 1.60 -1.10 0.45 -0.25 0.50 -1.40 0.30 -3.95 l-0.30 -3.55 -1.65 0.25 c-0.95 0.15 -1.70 0.05 -1.70 -0.20 0 -0.70 3.40 -2.05 6.15 -2.45 2.90 -0.40 3.10 0.40 0.35 1.30 -1.95 0.65 -2 0.70 -1.70 2.70 0.75 5.70 0.55 5.35 2.50 5 2.25 -0.40 2.25 0.55 -0.05 1.35 -0.95 0.35 -1.75 0.85 -1.75 1.05 0 0.20 -1.05 0.40 -2.35 0.40 -2.25 -0.05 -2.35 -0.10 -1.40 -0.80z"/>
  <path d="M70.30 502.55 c-0.30 -0.50 0.15 -10.15 0.50 -10.50 0.60 -0.60 0.90 0.85 0.90 4.40 0.05 2.20 0.20 4.15 0.45 4.35 0.20 0.20 1.20 0.10 2.20 -0.20 2.05 -0.65 3.30 -0.05 2.25 1 -0.35 0.35 -0.60 0.45 -0.60 0.30 0 -0.30 -2.20 0.10 -4.35 0.80 -0.60 0.20 -1.20 0.15 -1.35 -0.15z"/>
  <path d="M77.80 502.55 c-0.15 -0.15 0.40 -0.60 1.20 -1 1.45 -0.60 1.45 -0.70 1.35 -4.30 l-0.10 -3.70 -1.85 0.30 c-1.10 0.15 -1.90 0.05 -1.90 -0.20 0 -0.70 3.40 -2.05 6.15 -2.45 2.90 -0.40 3.10 0.40 0.35 1.30 -1.95 0.65 -2 0.70 -1.70 2.70 0.75 5.70 0.55 5.35 2.50 5 2.25 -0.40 2.25 0.55 -0.05 1.35 -0.95 0.35 -1.75 0.80 -1.75 1 0 0.45 -3.90 0.50 -4.20 0z"/>
  <path d="M100.85 502.70 c-0.15 -0.25 -0.40 -1.55 -0.55 -2.85 -0.20 -1.55 -0.95 -3.30 -2.05 -4.90 -2 -2.80 -2.45 -4.75 -0.75 -3.20 0.60 0.50 1.50 1.70 2.05 2.60 1.25 2.05 2 2.10 3.10 0.15 1.05 -1.75 2.25 -3 2.90 -3 0.80 0 0.50 0.80 -1.55 3.80 -1.40 2.05 -2 3.50 -2 4.70 0 1.80 -0.70 3.40 -1.15 2.70z"/>
  <path d="M265.25 502.20 c0.55 -0.40 1.30 -0.95 1.65 -1.15 0.45 -0.25 0.55 -1.25 0.30 -3.95 l-0.35 -3.60 -1.75 0.30 c-1.25 0.25 -1.65 0.20 -1.40 -0.25 0.60 -0.95 2.95 -1.90 5.70 -2.30 3.15 -0.40 3.55 0.40 0.60 1.30 -1.80 0.55 -2 0.75 -1.80 1.90 0.15 0.70 0.40 2.35 0.55 3.70 0.35 2.50 0.80 2.75 3.40 1.60 0.55 -0.20 1.15 -0.15 1.50 0.20 0.80 0.80 2.60 0.70 3.35 -0.20 0.50 -0.60 0.30 -0.90 -1.20 -1.80 -1 -0.60 -2.05 -1.45 -2.30 -1.95 -1.15 -2.15 1.45 -4.60 3.65 -3.40 l1.10 0.65 -1.25 0.15 c-2.75 0.40 -3.30 2.15 -1 3.10 0.80 0.35 1.80 1.15 2.25 1.80 0.75 1.15 0.70 1.30 -0.45 2.45 -1.40 1.40 -3.35 1.60 -4.50 0.50 -0.40 -0.40 -0.85 -0.55 -1 -0.30 -0.20 0.25 -1 0.60 -1.80 0.80 -0.85 0.20 -1.50 0.55 -1.50 0.80 0 0.25 -1.05 0.45 -2.35 0.45 -2.25 -0.05 -2.35 -0.10 -1.40 -0.80z"/>
  <path d="M281.90 501.80 c-1.70 -1.15 -2.90 -4.25 -2.70 -6.95 0.10 -0.90 0.20 -2 0.25 -2.50 0.15 -2.10 0.95 -0.10 1.25 3.25 0.45 4.30 1.20 5.55 3.35 5.60 1.30 0.05 1.70 -0.20 2.35 -1.55 0.65 -1.40 0.70 -2.15 0.20 -4.75 -0.30 -1.70 -0.40 -3.30 -0.15 -3.55 0.85 -0.85 1.60 1.20 1.65 4.85 0.10 3.30 -0.05 3.95 -1.05 5 -1.60 1.70 -3.30 1.90 -5.15 0.60z"/>
  <path d="M297.20 497.45 c0.15 -2.80 0.35 -5.20 0.50 -5.30 0.80 -0.85 1.30 0.90 1.30 4.65 l0 4.25 2.40 -0.35 c1.30 -0.20 2.50 -0.60 2.70 -0.90 0.25 -0.40 0.65 -0.40 1.40 0.10 1.30 0.80 2.75 0.75 3.50 -0.10 0.45 -0.60 0.20 -0.95 -1.40 -2 -2.45 -1.55 -2.70 -1.90 -2.35 -3.45 0.45 -1.65 2.45 -2.55 3.90 -1.75 l1.10 0.65 -1.25 0.15 c-2.90 0.45 -3.25 2.05 -0.75 3.25 2.30 1.10 2.90 3.15 1.25 4.45 -1.40 1.10 -3.15 1.15 -4.25 0.05 -0.60 -0.55 -0.95 -0.65 -1.20 -0.25 -0.35 0.60 -4.05 1.55 -5.95 1.60 -1.15 0 -1.20 0 -0.90 -5.05z"/>
  <path d="M37.30 501.20 c-0.45 -0.40 -0.80 -1 -0.80 -1.25 0 -0.60 0.85 -0.60 1.25 0.05 0.45 0.75 2.55 0.60 3.25 -0.20 0.45 -0.60 0.20 -1 -1.60 -2.10 -1.20 -0.75 -2.25 -1.40 -2.30 -1.50 -0.10 -0.05 -0.05 -0.80 0.15 -1.60 0.40 -2 2.90 -3.15 4.15 -1.90 0.75 0.75 0.70 0.80 -0.50 0.80 -0.70 0 -1.60 0.35 -1.95 0.80 -0.55 0.70 -0.50 0.95 0.55 1.75 3.35 2.45 3.60 3.10 2 4.85 -1.20 1.30 -3.10 1.45 -4.20 0.30z"/>
  <path d="M165.25 486 c-2.25 -0.35 -3.25 -0.60 -7.25 -1.80 -2.15 -0.65 -6.65 -3.20 -9.45 -5.35 -5.50 -4.25 -9.90 -11.25 -11.10 -17.75 l-0.65 -3.35 -5 -0.25 c-5.10 -0.25 -10.15 -0.25 -23.20 -0.10 l-7.10 0.10 -0.55 1.40 c-4.05 10.95 -13.60 18.65 -26.45 21.40 -7.65 1.65 -16.70 0 -24.90 -4.60 -3.15 -1.75 -10.35 -8.45 -11.70 -10.90 -0.95 -1.65 -3 -5.90 -3.40 -7.05 -0.25 -0.55 -0.70 -1.80 -1.05 -2.75 -0.45 -1.20 -0.65 -4 -0.65 -8.75 0.05 -6.30 0.20 -7.35 1.40 -10.50 0.75 -1.90 2.10 -4.75 3 -6.30 1.35 -2.30 1.65 -3.20 1.50 -5.25 -0.05 -1.35 -0.30 -24.40 -0.50 -51.20 -0.20 -33.60 -0.15 -52.70 0.25 -61.50 0.35 -8.25 0.60 -47.50 0.65 -111.50 0.05 -106.20 -0.05 -100.95 2.65 -106.90 5.20 -11.35 16.25 -20.10 27 -21.35 3.70 -0.45 198.45 -0.40 202.25 0.05 10.30 1.15 21.65 9.05 26.65 18.60 4.10 7.75 4.30 9.95 4.30 42.60 0 15 0.30 70 0.60 122.25 0.35 55.15 0.40 109.70 0.20 130 -0.25 19.25 -0.40 35.85 -0.35 36.90 0.05 1.30 0.65 2.65 2 4.50 2.50 3.40 4.35 6.65 5.35 9.70 4.10 12.05 1.40 23.95 -7.50 32.95 -2.20 2.20 -4.80 4.40 -5.75 4.90 -8.55 4.45 -10.50 5 -18.75 5 -7.50 0 -11.65 -0.85 -16.80 -3.50 -7.55 -3.80 -14.90 -11.35 -17.40 -17.85 l-0.75 -1.85 -17.80 0 -17.80 0 -0.65 3.60 c-2.30 12.50 -10.85 21.30 -25.10 25.85 -2.30 0.70 -12.95 1.10 -16.20 0.55z m14.65 -2.75 c1.15 -0.20 2.25 -0.55 2.40 -0.80 0.15 -0.25 0.60 -0.45 1 -0.45 1.25 0 5.30 -2.10 9.10 -4.70 3.30 -2.25 6.20 -5.30 8.65 -9.30 1.50 -2.40 2.95 -7.30 2.95 -10.05 0 -4.95 -1.40 -4.65 20.25 -4.30 21.55 0.35 19.95 0 22.55 5.05 5.70 11.05 17.90 18.30 30.80 18.30 3.80 0 5.15 -0.20 10.15 -1.65 9.25 -2.65 17.80 -11.25 20.30 -20.45 0.90 -3.30 1.10 -10.75 0.40 -13.90 -0.75 -3.45 -3.35 -9.15 -5.50 -12.30 -0.90 -1.35 -1.70 -2.75 -1.75 -3.20 -0.05 -0.40 -0.35 -2.40 -0.70 -4.40 -0.45 -2.80 -0.55 -15.70 -0.35 -52.40 l0.25 -48.70 -56.10 0 c-30.80 0 -56.50 -0.15 -57.10 -0.30 -1 -0.25 -1.05 -0.05 -1.40 4.40 -0.50 7.10 -0.55 7.20 -3.50 8.65 l-2.55 1.20 -55 -0.10 c-44.75 -0.10 -55.25 -0.20 -56.30 -0.75 -2.35 -1.25 -4.45 -5.75 -4.45 -9.70 l0 -2.40 -11.45 0 -11.40 0 -0.35 25.40 c-0.20 13.95 -0.30 36.40 -0.25 49.85 0.15 31.15 0.10 31.70 -2.35 36.65 -2.25 4.65 -2.70 6.50 -3.05 12.35 -0.30 5.60 0.35 8.65 3.20 14.65 1.80 3.85 2.90 5.35 6.10 8.55 4.10 4 9.60 7.30 14.55 8.60 3.25 0.90 14.30 1.15 16.75 0.45 8.35 -2.50 13.60 -5.75 17.90 -11.10 2.30 -2.85 5.35 -8.45 5.35 -9.85 0 -0.45 0.25 -1.10 0.55 -1.40 0.50 -0.50 39.35 -0.40 39.90 0.10 0.10 0.15 0.30 1.65 0.40 3.35 0.25 3.50 1.70 8.20 3.45 11 1.60 2.50 6.20 7.05 8.85 8.75 2.65 1.70 6 3.30 8.60 4 1.10 0.30 2.80 0.80 3.75 1.10 1.80 0.50 11.60 0.35 15.40 -0.20z m-0.95 -152.55 c0.90 -0.15 2.20 -0.85 2.85 -1.55 1.15 -1.25 1.20 -1.60 1.20 -8.60 0 -7.25 -0.60 -10.85 -1.90 -12.15 -0.50 -0.50 -11.75 -0.65 -55 -0.65 -51 0 -54.45 0.05 -55.95 0.90 -2.20 1.15 -3 2.90 -3.70 8 -0.65 4.65 -0.15 9.05 1.40 12.10 1.05 2.05 0.90 1.95 3.80 2.25 3.15 0.35 104.90 0.05 107.30 -0.30z m-122.60 -12.70 l7.65 0 0 -1.90 c0 -2.75 1.35 -6.40 3.05 -8.05 3.20 -3.20 1.20 -3.10 59.70 -2.95 43.30 0.10 53.30 0.25 54.65 0.85 1.85 0.75 3.60 3.65 3.60 5.90 0 0.75 0.15 2.20 0.30 3.20 l0.30 1.80 52.10 0.35 c28.60 0.15 54.50 0.15 57.50 0 l5.45 -0.35 -0.30 -68.55 c-0.20 -37.70 -0.45 -77.55 -0.60 -88.55 -0.15 -11 -0.35 -28.70 -0.45 -39.35 -0.20 -18.45 -0.25 -19.50 -1.35 -23 -1.55 -4.95 -4 -9.05 -7.65 -12.80 -5.35 -5.55 -11.55 -8.95 -18.35 -10.05 -2.25 -0.40 -34.65 -0.55 -103.50 -0.55 l-100.15 0 -3.55 1.10 c-1.90 0.60 -4.85 1.90 -6.50 2.85 -5.95 3.45 -12.75 11.80 -15.25 18.60 -1.20 3.25 -1.30 10.30 -1.80 138.15 l-0.30 83.95 3.85 -0.30 c2.15 -0.20 7.35 -0.35 11.60 -0.35z"/>
  <path d="M62.05 462.45 c-1.20 -1.15 -1.55 -2 -1.55 -3.40 0 -1.90 0.55 -2.95 3.35 -6.25 0.90 -1.10 1.65 -2.30 1.65 -2.65 0 -0.35 -0.65 -1.60 -1.50 -2.75 -2 -2.70 -1.95 -4.35 0.20 -6.60 2.25 -2.40 4.55 -2.50 6.75 -0.25 1.85 1.80 2.05 4.35 0.70 7.20 -0.80 1.70 -0.80 1.95 0 4.20 1.65 4.70 0.80 8.55 -2.45 10.75 -2.70 1.85 -5.15 1.75 -7.15 -0.25z m6.25 -2.65 c1.35 -1.35 1.70 -2.10 1.70 -3.70 0 -1.25 -0.35 -2.40 -1 -3.15 l-1 -1.20 -1.70 1.90 c-3.20 3.60 -4.05 6.95 -1.90 7.50 1.75 0.45 2.25 0.30 3.90 -1.35z m1.45 -14 c0.95 -1.40 0.45 -2.90 -1.30 -3.85 -2.15 -1.15 -3.90 2.20 -2.10 4.15 1.10 1.25 2.50 1.15 3.40 -0.30z"/>
  <path d="M170.50 463.15 c0 -1.50 2.40 -10.35 4.55 -16.75 1.05 -3.25 1.95 -6.15 1.95 -6.45 0 -0.40 -1.85 -0.45 -6.80 -0.20 -6.35 0.35 -6.80 0.30 -6.60 -0.55 0.20 -1.15 1.80 -1.55 8.35 -1.95 6.45 -0.45 8.05 -0.15 8.05 1.35 0 1.10 -2.30 8.80 -5.65 18.90 -1.55 4.55 -2.35 6.30 -2.95 6.40 -0.60 0.10 -0.90 -0.15 -0.90 -0.75z"/>
  <path d="M279 462.65 c0 -0.50 0.45 -3.35 1 -6.40 1.60 -8.60 1.55 -7.90 0.05 -7.55 -4.25 0.95 -5.80 0.90 -6.75 -0.15 -0.70 -0.80 -0.90 -1.55 -0.70 -3.30 0.55 -4.70 4.65 -8.35 8.35 -7.45 1.55 0.40 1.90 0.75 2.50 2.65 0.60 1.95 0.55 3.10 -0.65 11.30 -0.70 5.05 -1.50 9.75 -1.80 10.45 -0.55 1.45 -2 1.75 -2 0.45z m-0.75 -15.95 c2.15 -1 3.35 -2.85 3.15 -4.85 -0.15 -1.40 -0.35 -1.60 -1.70 -1.75 -2.20 -0.20 -4.70 2.75 -4.70 5.50 0 2.15 0.60 2.35 3.25 1.10z"/>
  <path d="M156.45 422.95 c-1 -0.40 -1.45 -0.95 -1.70 -2.35 -0.30 -1.70 -0.20 -1.95 1.45 -3.35 1.70 -1.40 1.80 -1.65 1.80 -4.60 0 -3.10 0.75 -4.70 1.20 -2.55 0.25 1.10 0.75 6.75 0.80 8.55 0 0.70 -0.15 1.85 -0.45 4.35 -0.05 0.60 -1.35 0.60 -3.10 -0.05z m1.85 -2.55 c-0.15 -0.65 -0.30 -1.60 -0.30 -2.15 0 -0.90 -0.10 -0.85 -1.35 0.35 -1.10 1.15 -1.20 1.45 -0.65 2.10 0.35 0.45 1.05 0.80 1.60 0.80 0.80 0 0.95 -0.25 0.70 -1.10z"/>
  <path d="M152.55 421.85 c-0.35 -0.45 -0.55 -1.40 -0.40 -2.10 0.10 -0.70 0.10 -1.15 -0.05 -1 -0.15 0.15 -0.65 -0.10 -1.15 -0.55 -1.15 -1.05 -1.85 -0.55 -2.25 1.55 -0.50 2.65 -1.10 2.55 -1.45 -0.10 -0.15 -1.35 -0.40 -2.90 -0.55 -3.50 -0.25 -1.40 0.60 -1.50 1.05 -0.15 0.25 0.75 0.55 0.90 1.10 0.60 2.20 -1.25 4.85 1.35 4.55 4.50 -0.15 1.40 -0.20 1.50 -0.85 0.75z"/>
  <path d="M179.10 421.50 c-1.35 -2.20 0 -5 2.35 -5 1.85 0 2.50 0.85 2.30 2.90 -0.25 2.75 -3.35 4.15 -4.65 2.10z m3.30 -1.95 c0.10 -0.65 -0.05 -1.40 -0.35 -1.70 -0.75 -0.75 -2.05 0.50 -2.05 2 0 1 0.20 1.20 1.15 1.05 0.70 -0.10 1.15 -0.55 1.25 -1.35z"/>
  <path d="M197.15 422.15 c-0.90 -0.35 -0.80 -1.50 0.20 -1.85 1.20 -0.50 2.05 0.55 1.15 1.40 -0.40 0.35 -1.05 0.60 -1.35 0.45z"/>
  <path d="M171.50 416.25 l0 -5.75 -2.55 0 c-1.55 0 -2.40 -0.20 -2.20 -0.50 0.15 -0.30 2.50 -0.50 5.25 -0.50 2.75 0 5.10 0.20 5.25 0.50 0.20 0.30 -0.65 0.50 -2.20 0.50 l-2.55 0 0 5.75 c0 3.50 -0.20 5.75 -0.50 5.75 -0.30 0 -0.50 -2.25 -0.50 -5.75z"/>
  <path d="M189.50 416.25 l0 -5.75 -2.55 0 c-1.55 0 -2.40 -0.20 -2.20 -0.50 0.15 -0.30 2.50 -0.50 5.25 -0.50 2.75 0 5.10 0.20 5.25 0.50 0.20 0.30 -0.65 0.50 -2.20 0.50 l-2.55 0 0 5.75 c0 3.50 -0.20 5.75 -0.50 5.75 -0.30 0 -0.50 -2.25 -0.50 -5.75z"/>
  <path d="M141 419.95 c-0.80 -1.45 -0.20 -3.30 1.15 -3.75 0.60 -0.20 1.25 -0.60 1.50 -0.90 0.55 -0.85 1.65 0.90 2.05 3.30 0.35 2.15 0.05 3.10 -0.65 1.95 -0.35 -0.50 -0.65 -0.50 -1.45 -0.10 -1.50 0.80 -2 0.70 -2.60 -0.50z m2.35 -0.90 c0.65 -1.05 0.40 -1.55 -0.85 -1.55 -0.70 0 -0.95 1.15 -0.55 2.40 0.15 0.40 0.90 -0.05 1.40 -0.85z"/>
  <path d="M221.50 408.60 c0 -0.30 0.80 -2.35 1.75 -4.60 0.95 -2.25 1.75 -4.30 1.75 -4.60 0 -0.30 -0.70 -1.40 -1.55 -2.45 -1.95 -2.45 -1.40 -3.85 0.60 -1.50 1.55 1.90 2.15 1.75 3.30 -0.85 1.25 -2.85 1.45 -0.65 0.20 2.50 -2.25 5.95 -4.85 11.60 -5.45 11.80 -0.30 0.10 -0.60 -0.05 -0.60 -0.30z"/>
  <path d="M258.90 405.45 c-0.80 -0.55 -1.40 -1.35 -1.40 -1.75 0 -1 0.70 -0.85 1.75 0.30 1 1.10 3.20 1.35 4.15 0.40 0.35 -0.35 0.60 -1.55 0.60 -2.70 l0 -2.10 -1.50 0.55 c-2 0.75 -3.20 0 -3.40 -2.05 -0.15 -1.65 0.95 -2.75 3.45 -3.35 1.20 -0.30 1.40 -0.15 1.90 1.35 0.95 3.05 1.20 6.70 0.50 7.95 -1.35 2.60 -3.70 3.15 -6.05 1.40z m3.30 -6.75 c0.95 -0.35 1.10 -2.20 0.15 -2.20 -0.35 0 -1.15 0.35 -1.75 0.80 -1.70 1.20 -0.55 2.20 1.60 1.40z"/>
  <path d="M100.35 400.95 c-2.50 -0.95 -2.45 -4.60 0.15 -6.05 1 -0.60 1.50 -1.25 1.55 -2.15 0.05 -0.70 0.15 -1.45 0.20 -1.75 0.05 -0.25 0.15 -1.30 0.20 -2.35 0.10 -3.05 0.80 -1.30 1.15 3 0.70 7.45 0.50 9.55 -0.85 9.70 -0.55 0.05 -1.60 -0.15 -2.40 -0.40z m1.85 -1.85 c0.10 -0.20 0.05 -1.15 -0.15 -2.10 l-0.35 -1.70 -1.10 1.45 c-0.85 1.05 -0.95 1.55 -0.55 2.05 0.65 0.75 1.75 0.90 2.15 0.30z"/>
  <path d="M278.55 399 c-1.05 -1.90 -1.25 -2 -3.55 -2 -2.20 0 -2.45 0.10 -2.95 1.50 -0.50 1.55 -1.55 2.05 -1.55 0.75 0 -0.40 0.70 -2.80 1.55 -5.35 1.50 -4.35 2.60 -6.40 3.15 -5.85 0.15 0.15 1.40 2.90 2.80 6.20 2.45 5.80 2.80 8.75 0.55 4.75z m-2.80 -6.45 c-0.95 -1.90 -1.55 -1.95 -1.90 -0.15 -0.15 0.75 -0.45 1.75 -0.60 2.20 -0.25 0.65 0 0.85 1.35 1 2 0.20 2.35 -0.75 1.15 -3.05z"/>
  <path d="M53.30 399.90 c-0.70 -2.20 -0.70 -3.35 0 -4.30 0.85 -1.20 3.10 -1.50 4.10 -0.50 0.95 0.95 0.70 3.25 -0.50 4.40 -1.20 1.10 -3.35 1.35 -3.60 0.40z m3.20 -2.30 c0 -1.25 -0.80 -2.30 -1.50 -1.85 -0.90 0.55 -1.45 2.45 -0.90 3.10 0.65 0.85 2.40 -0.10 2.40 -1.25z"/>
  <path d="M59.95 399.70 c-0.65 -0.75 -0.55 -0.85 0.95 -0.60 1.95 0.25 2 -0.05 0.35 -1.80 -1.45 -1.55 -1.45 -1.55 -0.75 -2.85 0.55 -1 3.50 -1.40 3.50 -0.45 0 0.30 -0.55 0.50 -1.25 0.50 -0.70 0 -1.25 0.25 -1.25 0.55 0 0.30 0.55 1 1.25 1.55 1.50 1.15 1.60 2.65 0.30 3.40 -1.40 0.70 -2.30 0.65 -3.10 -0.30z"/>
  <path d="M69.30 399.70 c-0.15 -0.45 -0.30 -1.55 -0.30 -2.50 0 -1.60 -0.10 -1.70 -1.75 -1.70 -0.95 0 -1.75 -0.20 -1.75 -0.45 0 -0.55 1.25 -1.05 2.60 -1.05 0.80 0 0.95 -0.25 0.70 -1.20 -0.35 -1.40 0.10 -2.90 0.75 -2.50 0.25 0.15 0.45 0.80 0.45 1.50 0 0.85 0.40 1.35 1.25 1.70 1.50 0.55 1.60 1.30 0.25 1.65 -0.80 0.20 -1 0.70 -1 2.50 0 2.35 -0.65 3.45 -1.20 2.05z"/>
  <path d="M73.95 399.70 c-0.65 -0.75 -0.55 -0.85 0.95 -0.60 1.95 0.30 2 -0.15 0.35 -1.75 -1.10 -1 -1.20 -1.35 -0.80 -2.50 0.40 -1.05 0.85 -1.35 2.05 -1.35 0.80 0 1.50 0.25 1.50 0.50 0 0.30 -0.55 0.50 -1.25 0.50 -0.70 0 -1.25 0.25 -1.25 0.55 0 0.30 0.55 1 1.25 1.55 1.50 1.15 1.60 2.65 0.30 3.40 -1.40 0.70 -2.30 0.65 -3.10 -0.30z"/>
  <path d="M96.50 399.55 c-0.25 -0.55 -0.50 -1.30 -0.50 -1.70 0 -0.95 -1.80 -2.55 -2.45 -2.15 -0.30 0.20 -0.65 1.10 -0.85 2.05 -0.35 1.90 -1.10 2.75 -1.40 1.65 -0.60 -1.85 -0.75 -6.40 -0.25 -6.40 0.30 0 0.65 0.45 0.80 1 0.30 1.05 0.90 1.30 1.35 0.55 0.55 -0.85 2.85 0.10 3.55 1.45 0.60 1.15 0.90 4.50 0.45 4.50 -0.10 0 -0.40 -0.45 -0.70 -0.95z"/>
  <path d="M111.70 399.90 c-0.60 -0.95 -0.35 -12.45 0.25 -13.05 0.40 -0.40 0.55 -0.10 0.60 1.20 0.15 3.40 0.35 3.90 2.05 5.55 1.50 1.40 1.75 1.90 1.50 3.30 -0.15 1.20 -0.70 1.95 -1.80 2.65 -1.80 1.10 -2.10 1.15 -2.60 0.35z m2.90 -2.65 c0.40 -0.95 0.40 -1.40 -0.10 -2 -1.05 -1.25 -1.50 -0.85 -1.50 1.25 0 2.25 0.75 2.60 1.60 0.75z"/>
  <path d="M117.25 399.65 c-0.50 -1.15 -0.30 -3.75 0.35 -4.50 0.65 -0.80 3 -0.85 3.80 -0.05 0.95 0.95 0.70 3.25 -0.50 4.40 -1.35 1.25 -3.15 1.30 -3.65 0.15z m3.15 -2.10 c0.10 -0.65 -0.05 -1.40 -0.35 -1.70 -0.75 -0.75 -2.05 0.50 -2.05 2 0 1 0.20 1.20 1.15 1.05 0.70 -0.10 1.15 -0.55 1.25 -1.35z"/>
  <path d="M124.10 399.50 c-1.35 -2.15 0 -5 2.35 -5 1.70 0 2.55 0.85 2.55 2.60 0 2.70 -3.60 4.50 -4.90 2.40z m3.30 -1.95 c0.10 -0.65 -0.05 -1.40 -0.35 -1.70 -0.80 -0.80 -2.70 1.20 -2.25 2.35 0.50 1.30 2.40 0.80 2.60 -0.65z"/>
  <path d="M130.95 399.70 c-0.65 -0.75 -0.55 -0.85 0.95 -0.60 1.95 0.30 2.15 -0.65 0.35 -1.80 -1.35 -0.90 -1.60 -2.25 -0.65 -3.20 0.70 -0.70 3.40 -0.80 3.40 -0.10 0 0.30 -0.30 0.50 -0.60 0.50 -0.35 0 -1 0.20 -1.40 0.50 -0.60 0.35 -0.45 0.65 0.65 1.50 1.60 1.25 1.75 2.75 0.40 3.50 -1.40 0.70 -2.30 0.65 -3.10 -0.30z"/>
  <path d="M139.30 399.40 c-0.15 -0.65 -0.35 -1.70 -0.40 -2.40 -0.10 -1 -0.45 -1.30 -1.75 -1.40 -2.55 -0.25 -1.75 -1.60 0.95 -1.60 0.80 0 0.95 -0.25 0.70 -1.20 -0.35 -1.40 0.10 -2.90 0.75 -2.50 0.25 0.15 0.45 0.80 0.45 1.50 0 0.80 0.40 1.40 1.25 1.80 1.50 0.70 1.60 1.20 0.25 1.55 -0.80 0.20 -1 0.70 -1 2.50 0 2.45 -0.80 3.60 -1.20 1.75z"/>
  <path d="M148.95 399.65 c-0.65 -0.75 -0.55 -0.80 0.90 -0.50 1.50 0.30 1.55 0.25 1.45 -1.05 -0.10 -0.95 -0.45 -1.35 -1.10 -1.35 -1.10 0 -1.50 -1.50 -0.70 -2.50 0.70 -0.85 3.50 -1 3.50 -0.25 0 0.30 -0.45 0.50 -0.95 0.50 -1.55 0 -1.65 0.75 -0.30 2 1.50 1.40 1.60 2.80 0.30 3.50 -1.40 0.70 -2.30 0.60 -3.10 -0.35z"/>
  <path d="M155.30 399.55 c-0.60 -0.65 -0.80 -1.60 -0.70 -2.85 0.20 -2.55 1.10 -2.65 1.30 -0.10 0.05 1.10 0.25 2.25 0.40 2.50 0.40 0.60 1.45 -0.95 1.90 -2.70 0.40 -1.70 1.30 -1.85 1.30 -0.25 0 1.45 -1.80 4.35 -2.65 4.35 -0.40 0 -1.10 -0.45 -1.55 -0.95z"/>
  <path d="M160.95 399.70 c-0.65 -0.75 -0.55 -0.85 0.90 -0.60 1.45 0.20 1.55 0.10 1.40 -1.05 -0.10 -0.90 -0.40 -1.25 -0.95 -1.15 -0.45 0.10 -0.85 -0.10 -0.85 -0.40 -0.05 -0.25 -0.10 -0.80 -0.15 -1.10 -0.20 -1.10 0.75 -1.90 2.25 -1.90 1.80 0 1.90 0.80 0.15 1.20 l-1.35 0.35 1.35 1.40 c1.55 1.60 1.65 2.80 0.35 3.55 -1.40 0.70 -2.30 0.65 -3.10 -0.30z"/>
  <path d="M170.30 399.70 c-0.15 -0.45 -0.30 -1.55 -0.30 -2.50 0 -1.60 -0.10 -1.70 -1.75 -1.70 -0.95 0 -1.75 -0.20 -1.75 -0.45 0 -0.55 1.25 -1.05 2.55 -1.05 0.75 0 0.95 -0.30 0.85 -1.55 -0.20 -2.05 0.85 -2.45 1.25 -0.50 0.20 0.85 0.70 1.60 1.35 1.80 1.30 0.40 1.30 1.05 0 1.40 -0.80 0.20 -1 0.70 -1 2.50 0 2.35 -0.65 3.45 -1.20 2.05z"/>
  <path d="M180.95 398.65 c-0.25 -2.40 0 -3.75 0.60 -3.40 0.55 0.40 0.60 3.75 0 4.70 -0.30 0.45 -0.50 0.05 -0.60 -1.30z"/>
  <path d="M189.55 399.25 c-1.55 -3.40 -1.75 -3.80 -2.50 -3.65 -0.45 0.10 -1 1 -1.30 2.05 -0.30 1.05 -0.75 1.95 -1 2 -0.50 0.10 -1.45 -6.15 -1 -6.55 0.60 -0.60 1.25 0.70 1.05 2.05 -0.25 1.45 -0.25 1.50 0.25 0.50 1.70 -3.30 5.85 -0.45 5.35 3.65 l-0.20 1.45 -0.65 -1.50z"/>
  <path d="M199.75 399.90 c-0.20 -0.65 -0.70 -4.60 -0.75 -5.65 0 -0.25 0.10 -1.85 0.30 -3.50 0.50 -5.20 1.05 -5.65 1.55 -1.20 0.25 2.20 0.60 2.95 2 4.30 1.15 1.05 1.65 1.90 1.45 2.45 -0.15 0.40 -0.30 1.10 -0.30 1.50 0 0.40 -0.75 1.15 -1.60 1.70 -1.90 1.15 -2.35 1.20 -2.65 0.40z m2.85 -2.65 c0.40 -0.95 0.40 -1.40 -0.10 -2 -1.05 -1.25 -1.50 -0.85 -1.50 1.25 0 2.25 0.75 2.60 1.60 0.75z"/>
  <path d="M205.85 400.15 c-0.50 -0.45 -0.40 -3.75 0.10 -4.60 0.55 -0.85 0.90 -0.20 0.95 1.95 0.05 1.85 -0.50 3.25 -1.05 2.65z"/>
  <path d="M210.75 398.85 c-0.35 -1.75 0.10 -4.20 0.65 -3.65 0.35 0.40 0.30 4.75 -0.05 5.15 -0.15 0.15 -0.45 -0.55 -0.60 -1.50z"/>
  <path d="M217.30 400.15 c-0.15 -0.15 -0.30 -1.30 -0.30 -2.50 0 -2.15 0 -2.15 -1.75 -2.15 -2.25 0 -2.25 -0.85 0 -1.30 1.55 -0.30 1.75 -0.45 1.60 -1.85 -0.05 -0.85 0.15 -1.60 0.55 -1.70 0.35 -0.15 0.60 0.20 0.60 0.95 0 1.40 0.50 2.15 1.45 2.15 1.15 0 1.20 1.10 0.05 1.40 -0.80 0.20 -1 0.65 -1 2.50 0 2.20 -0.50 3.20 -1.20 2.50z"/>
  <path d="M235.30 399.55 c-1 -1.10 -0.95 -4.60 0.10 -4.95 0.40 -0.10 0.60 0.50 0.60 2.10 0 1.25 0.20 2.30 0.45 2.30 0.70 0 1.45 -1.15 1.65 -2.45 0.05 -0.70 0.45 -1.35 0.85 -1.45 1 -0.35 0.40 3.20 -0.75 4.45 -1.10 1.20 -1.80 1.20 -2.90 0z"/>
  <path d="M241 399.75 c-0.55 -0.65 -0.40 -0.75 0.95 -0.75 1.85 0 2 -0.60 0.30 -1.70 -1.35 -0.90 -1.60 -2.25 -0.65 -3.20 0.70 -0.70 3.40 -0.80 3.40 -0.10 0 0.30 -0.30 0.50 -0.60 0.50 -0.35 0 -1 0.20 -1.40 0.50 -0.60 0.35 -0.45 0.65 0.65 1.50 1.60 1.25 1.75 2.75 0.40 3.50 -1.35 0.70 -2.30 0.65 -3.05 -0.25z"/>
  <path d="M246.85 400.15 c-0.45 -0.40 -0.45 -3.30 -0.05 -4.35 0.50 -1.30 1.20 -0.35 1.20 1.60 0 1.95 -0.60 3.35 -1.15 2.75z"/>
  <path d="M255.55 399.25 c-1.50 -3.40 -1.75 -3.75 -2.35 -3.75 -0.80 0 -1.30 0.75 -1.70 2.70 -0.30 1.65 -1.20 1.90 -1.30 0.40 -0.05 -0.45 -0.20 -1.95 -0.40 -3.30 -0.30 -1.90 -0.25 -2.35 0.30 -2.20 0.40 0.15 0.60 0.90 0.50 1.95 -0.15 1.70 -0.10 1.70 0.65 0.60 0.55 -0.75 1.30 -1.15 2.25 -1.15 1.80 0 3.15 2.20 2.90 4.65 l-0.20 1.60 -0.65 -1.50z"/>
  <path d="M48.55 398.20 c-0.60 -0.75 -1.05 -1.75 -1.05 -2.25 0 -1.10 2.35 -3 3.30 -2.60 1.10 0.40 0.85 0.90 -0.85 1.50 -1.50 0.60 -1.55 0.65 -0.85 1.75 0.40 0.65 1.25 1.35 1.80 1.65 1.45 0.65 1.40 1.25 -0.10 1.25 -0.75 0 -1.65 -0.55 -2.25 -1.30z"/>
  <path d="M179.10 398.70 c-0.35 -0.65 -0.65 -0.65 -1.80 -0.10 -1.25 0.55 -1.50 0.50 -2.10 -0.35 -0.40 -0.50 -0.70 -1.35 -0.70 -1.80 0 -1.05 1.30 -2.45 2.25 -2.45 0.35 0 0.75 -0.30 0.90 -0.60 0.40 -1.20 1.45 0.40 2.10 3.30 0.65 2.65 0.30 3.70 -0.65 2z m-1.70 -2.35 c0.25 -1.20 -1.20 -1.05 -1.55 0.20 -0.20 0.75 -0.05 0.95 0.55 0.85 0.45 -0.10 0.90 -0.55 1 -1.05z"/>
  <path d="M208.80 397.95 c-0.50 -2.55 -0.35 -9.95 0.20 -9.95 0.50 0 0.60 1.10 0.80 7.90 0.10 3.70 -0.45 4.80 -1 2.05z"/>
  <path d="M283 399.15 c0 -0.25 0.75 -0.80 1.65 -1.20 1.75 -0.75 1.80 -0.95 1.30 -6.90 l-0.20 -2.65 -2.10 0.30 c-1.20 0.15 -2.15 0.15 -2.15 0.05 0 -0.85 9.25 -3.70 9.85 -3.05 0.40 0.40 0.25 0.50 -2.10 1.40 l-2 0.80 0.15 4.65 c0.20 4.75 0.35 5.65 1 4.60 0.45 -0.70 3.05 -1.05 3 -0.40 -0.10 1.05 -8.40 3.40 -8.40 2.40z"/>
  <path d="M84 397.95 c-0.65 -1.20 -0.25 -3.45 0.60 -3.45 0.30 0 1 -0.40 1.55 -0.85 0.90 -0.85 0.95 -0.85 1.60 0.05 0.80 1.10 1.50 4.75 1 5.20 -0.20 0.20 -0.50 0.10 -0.60 -0.25 -0.15 -0.45 -0.60 -0.45 -1.45 -0.10 -1.80 0.65 -2.10 0.60 -2.70 -0.60z m2.50 -1.65 c0 -0.90 -0.25 -1.20 -0.90 -1.15 -0.70 0.05 -0.85 0.35 -0.70 1.20 0.30 1.55 1.60 1.50 1.60 -0.05z"/>
  <path d="M192 398 c-0.80 -1.50 -0.15 -3.15 1.65 -4.15 1.45 -0.85 1.60 -0.85 2.15 -0.10 0.80 1.05 1.45 4.70 0.95 5.15 -0.20 0.20 -0.50 0.10 -0.60 -0.25 -0.15 -0.45 -0.60 -0.45 -1.45 -0.10 -1.75 0.65 -2.10 0.60 -2.70 -0.55z m2.50 -1.80 c0 -1.55 -1.15 -1.40 -1.40 0.20 -0.10 0.75 0.10 1.10 0.60 1.10 0.55 0 0.80 -0.45 0.80 -1.30z"/>
  <path d="M206 391.50 c0 -0.25 0.35 -0.50 0.75 -0.50 0.40 0 0.75 0.25 0.75 0.50 0 0.30 -0.35 0.50 -0.75 0.50 -0.40 0 -0.75 -0.20 -0.75 -0.50z"/>
  <path d="M92.85 384.65 c-0.20 -0.15 -0.35 -1.10 -0.35 -2.10 -0.05 -1.80 -1.10 -7.10 -1.75 -8.65 -0.70 -1.70 3.90 -2.65 5.45 -1.10 1.25 1.25 0.95 2.70 -1 4.45 -1.70 1.55 -1.75 1.80 -1.65 4.45 0.15 2.75 -0.05 3.60 -0.70 2.95z m2.65 -10.25 c0 -0.50 -0.20 -0.90 -0.45 -0.90 -0.25 0 -0.80 -0.15 -1.25 -0.30 -0.65 -0.25 -0.80 0.10 -0.80 2.10 l0 2.35 1.25 -1.15 c0.70 -0.65 1.25 -1.60 1.25 -2.10z"/>
  <path d="M100.85 384.65 c-0.20 -0.15 -0.35 -1.10 -0.35 -2.10 -0.05 -1.80 -1.10 -7.10 -1.75 -8.65 -0.75 -1.80 3.90 -2.65 5.45 -0.95 1.15 1.25 0.60 3.25 -1.30 4.60 -1.35 1 -1.45 1.25 -1.35 4 0.10 2.90 -0.05 3.75 -0.70 3.10z m2.80 -10.65 c-0.20 -0.20 -0.90 -0.55 -1.50 -0.75 -1.10 -0.30 -1.15 -0.20 -1.15 2.10 l0.05 2.40 1.50 -1.70 c0.85 -0.90 1.35 -1.85 1.10 -2.05z"/>
  <path d="M164.85 384.65 c-0.20 -0.15 -0.35 -1.10 -0.35 -2.10 -0.05 -1.80 -1.10 -7.10 -1.75 -8.65 -0.65 -1.65 3.90 -2.70 5.40 -1.20 1.10 1.10 0.45 3.65 -1.25 4.85 -1.35 1 -1.45 1.25 -1.35 4 0.10 2.90 -0.05 3.75 -0.70 3.10z m2.65 -10.25 c0 -0.50 -0.20 -0.90 -0.45 -0.90 -0.25 0 -0.80 -0.15 -1.25 -0.30 -0.65 -0.25 -0.80 0.10 -0.80 2.10 l0 2.35 1.25 -1.15 c0.70 -0.65 1.25 -1.60 1.25 -2.10z"/>
  <path d="M119.80 379.15 c-0.15 -0.15 -0.30 -1.15 -0.30 -2.20 0 -1.05 -0.25 -2.05 -0.50 -2.20 -0.30 -0.20 -0.35 -0.55 -0.20 -0.85 0.45 -0.75 0.55 -6.85 0.10 -6.55 -0.25 0.10 -0.40 -0.35 -0.40 -1.05 0 -1.40 0.70 -1.75 1.20 -0.55 0.15 0.40 0.40 1.90 0.60 3.30 0.30 2.30 0.50 2.65 2.05 3.30 1.85 0.75 3.35 3.35 3.05 5.35 -0.15 1.10 -1 1.25 -1.20 0.20 -0.30 -1.70 -1.80 -4.40 -2.45 -4.40 -0.55 0 -0.75 0.65 -0.75 2.70 0 2.55 -0.45 3.70 -1.20 2.95z"/>
  <path d="M146.85 379.15 c-0.20 -0.15 -0.35 -1.15 -0.35 -2.20 0 -1.05 -0.20 -2 -0.45 -2.15 -0.25 -0.15 -0.25 -1.05 -0.05 -2 0.20 -0.90 0.15 -2.95 -0.10 -4.50 -0.30 -1.60 -0.40 -3 -0.25 -3.15 0.65 -0.65 1.25 0.55 1.60 3.10 0.30 2.75 1.20 4.25 2.50 4.25 1.05 0 2.25 2.05 2.40 4.05 0.15 2.40 -0.75 2.10 -1.65 -0.55 -0.45 -1.35 -1.10 -2.30 -1.60 -2.40 -0.90 -0.15 -1.10 0.85 -1.05 5.05 0 0.90 -0.45 1.10 -1 0.50z"/>
  <path d="M259.50 378.85 c-0.70 -0.35 -1.40 -1.35 -1.70 -2.30 -0.45 -1.60 -0.35 -1.80 1.30 -3.25 1.65 -1.40 1.85 -1.85 2.15 -5 0.50 -5.15 1.15 -3.10 1.35 4.45 0.15 6.20 0.10 6.50 -0.85 6.65 -0.55 0.05 -1.55 -0.20 -2.25 -0.55z m1.80 -2.70 c0.05 -0.60 -0.15 -1.35 -0.35 -1.75 -0.60 -0.95 -2.60 1.10 -2.15 2.30 0.50 1.25 2.45 0.85 2.50 -0.55z"/>
  <path d="M58.60 376.95 c-1.10 -3.45 -1.25 -5.10 -0.55 -4.85 0.40 0.15 0.75 0.70 0.85 1.30 0.20 1.15 1.30 1.50 1.90 0.50 0.25 -0.35 0.55 -0.25 1.05 0.40 0.70 0.95 0.75 0.95 1.40 0 0.40 -0.50 0.80 -1.20 0.90 -1.50 0.10 -0.30 0.40 -0.40 0.60 -0.20 0.45 0.40 -0.40 3.65 -1.25 4.90 -0.45 0.65 -0.60 0.65 -1.20 -0.10 -0.85 -1.15 -1.20 -1.15 -2.30 0.20 l-0.85 1.10 -0.55 -1.75z"/>
  <path d="M67.50 377.50 c-1.75 -1.75 -1 -5.50 1.15 -5.50 2.55 0.05 3.25 2.45 0.85 3 -2 0.45 -1.55 1.70 0.75 2 1.90 0.25 1.95 0.30 0.90 0.90 -1.55 0.85 -2.50 0.75 -3.65 -0.40z"/>
  <path d="M73.85 378.15 c-0.20 -0.15 -0.35 -1.40 -0.35 -2.70 0 -1.30 -0.25 -2.55 -0.50 -2.70 -0.35 -0.20 -0.35 -0.60 0 -1.25 0.25 -0.50 0.50 -2.20 0.50 -3.70 0 -1.55 0.20 -2.80 0.45 -2.80 0.65 0 1.05 1.30 1.05 3.50 0 1.45 0.30 2.05 1.25 2.70 0.65 0.45 1.45 1.25 1.70 1.75 0.75 1.40 -0.30 3.95 -2 4.80 -1.60 0.85 -1.65 0.85 -2.10 0.40z m2.75 -2.90 c0.40 -0.95 0.40 -1.40 -0.10 -2 -1.05 -1.25 -1.50 -0.85 -1.50 1.25 0 2.25 0.75 2.60 1.60 0.75z"/>
  <path d="M114.30 377.70 c-0.15 -0.45 -0.30 -1.55 -0.30 -2.50 0 -1.60 -0.10 -1.70 -1.75 -1.70 -0.95 0 -1.75 -0.20 -1.75 -0.45 0 -0.55 1.25 -1.05 2.55 -1.05 0.75 0 0.95 -0.30 0.85 -1.55 -0.10 -0.95 0.10 -1.70 0.50 -1.80 0.35 -0.15 0.60 0.20 0.60 0.95 0 1.20 0.65 2.50 1.20 2.45 1.60 -0.20 1.85 0.70 0.30 1.10 -0.80 0.20 -1 0.70 -1 2.50 0 2.35 -0.65 3.45 -1.20 2.05z"/>
  <path d="M136.30 377.70 c-0.15 -0.45 -0.30 -1.55 -0.30 -2.50 0 -1.60 -0.10 -1.70 -1.75 -1.70 -2.25 0 -2.25 -0.85 0 -1.30 1.70 -0.30 1.75 -0.40 1.45 -2 -0.25 -1.35 -0.15 -1.70 0.50 -1.70 0.50 0 0.80 0.45 0.80 1.15 0 1.15 0.65 2.45 1.20 2.40 1.60 -0.20 1.85 0.70 0.30 1.10 -0.80 0.20 -1 0.70 -1 2.50 0 2.35 -0.65 3.45 -1.20 2.05z"/>
  <path d="M154.85 377.85 c-1.20 -0.85 -1.55 -3.85 -0.65 -5 1.05 -1.35 3.90 -0.70 3.70 0.80 -0.10 0.65 -0.65 1.15 -1.40 1.35 -2 0.45 -1.55 1.70 0.75 2 1.90 0.25 1.95 0.30 0.90 0.90 -1.40 0.75 -2.25 0.75 -3.30 -0.05z"/>
  <path d="M169.95 377.70 c-0.65 -0.75 -0.55 -0.85 0.95 -0.60 1.95 0.30 2.15 -0.65 0.35 -1.80 -1.35 -0.90 -1.65 -2.35 -0.60 -3.20 0.95 -0.80 3 -0.95 3.20 -0.20 0.15 0.35 -0.25 0.60 -1.05 0.60 -1.65 0 -1.65 0.80 -0.05 2.10 1.65 1.25 1.60 2.80 -0.05 3.40 -1.70 0.65 -1.95 0.65 -2.75 -0.30z"/>
  <path d="M181.85 378.15 c-0.20 -0.15 -0.35 -1.40 -0.35 -2.70 0 -1.30 -0.25 -2.55 -0.50 -2.70 -0.35 -0.20 -0.35 -0.60 0 -1.25 0.25 -0.50 0.50 -2.20 0.50 -3.75 0 -3.70 1.20 -3.55 1.40 0.10 0.10 2.05 0.40 2.70 1.35 3.35 0.65 0.45 1.45 1.25 1.70 1.75 0.75 1.40 -0.30 3.95 -2 4.80 -1.60 0.85 -1.65 0.85 -2.10 0.40z m2.85 -3.05 c0.65 -1.30 0.65 -1.45 -0.30 -2.05 -1.30 -0.80 -1.80 -0.15 -1.50 1.95 0.25 1.90 0.85 1.90 1.80 0.10z"/>
  <path d="M188.30 377.55 c-1 -1.10 -0.95 -4.60 0.10 -4.95 0.40 -0.10 0.60 0.50 0.60 2.15 0 3.20 0.95 2.90 2.40 -0.75 0.45 -1.15 0.50 -1.20 0.90 -0.30 0.45 1.15 -1.20 4.45 -2.35 4.70 -0.40 0.05 -1.15 -0.30 -1.65 -0.85z"/>
  <path d="M194 377.75 c-0.55 -0.65 -0.40 -0.75 0.95 -0.75 1.85 0 1.90 -0.30 0.35 -1.75 -0.70 -0.65 -1.15 -1.55 -1.10 -2.05 0.15 -1.05 2.50 -2.45 3.30 -1.95 0.70 0.45 0.60 1.25 -0.10 1.25 -0.35 0 -1 0.20 -1.40 0.50 -0.60 0.35 -0.45 0.65 0.65 1.50 1.60 1.25 1.75 2.75 0.40 3.50 -1.35 0.70 -2.30 0.65 -3.05 -0.25z"/>
  <path d="M199.85 378.20 c-0.70 -0.70 -0.40 -4.60 0.40 -4.90 0.60 -0.20 0.75 0.15 0.70 1.60 -0.05 2.15 -0.60 3.80 -1.10 3.30z"/>
  <path d="M207.65 377.65 c-0.35 -0.60 -0.65 -1.40 -0.65 -1.75 -0.05 -1.15 -1.35 -2.45 -2.15 -2.10 -0.45 0.15 -0.95 1.05 -1.15 2 -0.65 3.50 -1.40 2.50 -1.85 -2.45 -0.25 -2.55 0.55 -3.10 1.20 -0.80 0.20 0.65 0.35 0.95 0.40 0.65 0.10 -0.90 1.40 -1.20 2.80 -0.70 1.45 0.55 2.35 2.55 2.15 4.70 -0.15 1.50 -0.15 1.50 -0.75 0.45z"/>
  <path d="M210.85 377.85 c-1.20 -0.85 -1.60 -3.85 -0.70 -5.10 0.65 -0.80 1 -0.90 2.20 -0.50 1.80 0.65 1.90 2.35 0.15 2.75 -2 0.45 -1.55 1.70 0.75 2 1.90 0.25 1.95 0.30 0.90 0.90 -1.40 0.75 -2.25 0.75 -3.30 -0.05z"/>
  <path d="M217 377.75 c-0.55 -0.65 -0.40 -0.75 0.95 -0.75 1.85 0 2 -0.60 0.30 -1.70 -1.35 -0.90 -1.60 -2.25 -0.65 -3.20 0.70 -0.70 3.40 -0.80 3.40 -0.10 0 0.30 -0.30 0.50 -0.60 0.50 -0.35 0 -1 0.20 -1.40 0.50 -0.60 0.35 -0.45 0.65 0.65 1.50 1.60 1.25 1.75 2.75 0.40 3.50 -1.35 0.70 -2.30 0.65 -3.05 -0.25z"/>
  <path d="M222.95 377.70 c-0.65 -0.75 -0.55 -0.85 0.95 -0.60 1.95 0.30 2.15 -0.65 0.35 -1.80 -1.35 -0.90 -1.60 -2.25 -0.65 -3.20 0.70 -0.70 3.40 -0.80 3.40 -0.10 0 0.30 -0.30 0.50 -0.60 0.50 -0.35 0 -1 0.20 -1.40 0.50 -0.60 0.35 -0.45 0.65 0.65 1.50 1.60 1.25 1.75 2.75 0.40 3.50 -1.40 0.70 -2.30 0.65 -3.10 -0.30z"/>
  <path d="M229.50 377.50 c-1.75 -1.75 -1 -5.50 1.15 -5.50 2.55 0.05 3.25 2.45 0.85 3 -2 0.45 -1.55 1.70 0.75 2 1.90 0.25 1.95 0.30 0.90 0.90 -1.55 0.85 -2.50 0.75 -3.65 -0.40z"/>
  <path d="M234.95 377.70 c-0.65 -0.75 -0.55 -0.85 0.95 -0.60 1.85 0.25 2.25 -0.70 0.65 -1.60 -1.25 -0.65 -1.80 -2.35 -1.05 -3.25 0.70 -0.85 3.50 -1 3.50 -0.25 0 0.30 -0.30 0.50 -0.60 0.50 -0.35 0 -1 0.20 -1.40 0.50 -0.60 0.35 -0.45 0.65 0.65 1.50 1.60 1.25 1.75 2.75 0.40 3.50 -1.40 0.70 -2.30 0.65 -3.10 -0.30z"/>
  <path d="M252.50 377.40 c-1.30 -1.40 -1.30 -3.50 0 -4.65 0.85 -0.75 1.20 -0.80 2.30 -0.30 1.60 0.70 1.40 2.15 -0.30 2.55 -2 0.45 -1.55 1.70 0.75 2 1.90 0.25 1.95 0.30 0.90 0.90 -1.55 0.85 -2.45 0.75 -3.65 -0.50z"/>
  <path d="M265.35 377.60 c-0.95 -1 -0.90 -4.65 0.05 -5 0.40 -0.10 0.60 0.55 0.60 2.10 0 1.25 0.20 2.30 0.40 2.30 0.75 0 1.60 -1.20 1.60 -2.30 0 -1.55 1 -2.05 1.05 -0.60 0.10 1.85 -0.10 2.60 -0.90 3.55 -1 1.10 -1.80 1.10 -2.80 -0.05z"/>
  <path d="M277.50 377.50 c-1.85 -1.85 -0.90 -5.50 1.40 -5.50 2.35 0.05 2.85 2.45 0.60 3 -2 0.45 -1.55 1.70 0.75 2 1.90 0.25 1.95 0.30 0.90 0.90 -1.55 0.85 -2.50 0.75 -3.65 -0.40z"/>
  <path d="M245.10 376.85 c-0.90 -2.05 -0.80 -5.35 0.15 -5.35 0.40 0 0.75 0.25 0.75 0.55 0 0.30 0.35 0.15 0.80 -0.25 0.95 -0.95 3.40 -1.10 3.10 -0.15 -0.15 0.30 -0.70 0.65 -1.25 0.75 -1.55 0.25 -2.55 1.60 -2.75 3.85 l-0.20 2 -0.60 -1.40z"/>
  <path d="M159.80 375.95 c-0.50 -2.55 -0.35 -9.95 0.20 -9.95 0.30 0 0.50 1.90 0.55 4.65 0 2.50 0.10 5.10 0.25 5.75 0.10 0.60 0 1.10 -0.25 1.10 -0.25 0 -0.55 -0.70 -0.75 -1.55z"/>
  <path d="M271.55 376.20 c-1.35 -1.70 -1.30 -2.35 0.10 -3.95 0.75 -0.90 1.40 -1.20 2 -1 1.20 0.50 1.05 1.20 -0.40 1.55 -0.75 0.20 -1.25 0.65 -1.25 1.20 0 1.05 1.55 2.50 2.70 2.50 0.45 0 0.70 0.25 0.55 0.50 -0.60 0.95 -2.65 0.50 -3.70 -0.80z"/>
  <path d="M84 376 c-0.80 -1.50 -0.15 -3.15 1.65 -4.15 1.45 -0.85 1.60 -0.85 2.15 -0.10 0.80 1.05 1.45 4.70 0.95 5.15 -0.20 0.20 -0.50 0.10 -0.60 -0.25 -0.15 -0.45 -0.60 -0.45 -1.45 -0.10 -1.75 0.65 -2.10 0.60 -2.70 -0.55z m2.45 -1.15 c0.60 -0.75 0.25 -1.35 -0.80 -1.35 -0.35 0 -0.65 0.45 -0.65 1 0 1.15 0.65 1.30 1.45 0.35z"/>
  <path d="M127 375.95 c-0.80 -1.45 -0.20 -3.30 1.15 -3.75 0.60 -0.20 1.25 -0.60 1.50 -0.90 0.55 -0.85 1.65 0.90 2.05 3.30 0.35 2.15 0.05 3.10 -0.65 1.95 -0.35 -0.50 -0.65 -0.50 -1.45 -0.10 -1.50 0.80 -2 0.70 -2.60 -0.50z m2.40 -1.60 c0.10 -0.50 -0.15 -0.85 -0.60 -0.85 -0.50 0 -0.80 0.45 -0.80 1.05 0 1.20 1.15 1.05 1.40 -0.20z"/>
  <path d="M216.50 364.60 c0 -0.30 0.80 -2.35 1.75 -4.60 0.95 -2.25 1.75 -4.30 1.75 -4.55 0 -0.25 -0.70 -1.40 -1.55 -2.55 -1.75 -2.45 -1 -3.45 0.85 -1.15 1.30 1.60 1.95 1.35 2.95 -1.10 0.50 -1.15 0.95 -1.65 1.25 -1.35 0.30 0.30 0 1.55 -0.80 3.45 -0.70 1.65 -1.45 3.55 -1.75 4.25 -2 5.05 -3.30 7.70 -3.80 7.90 -0.35 0.10 -0.65 -0.05 -0.65 -0.30z"/>
  <path d="M208.90 361.45 c-0.80 -0.55 -1.40 -1.35 -1.40 -1.75 0 -1 0.70 -0.85 1.75 0.30 1 1.10 3.35 1.35 4.15 0.40 0.50 -0.65 0.75 -2.30 0.65 -4 -0.05 -0.70 -0.25 -0.75 -1.55 -0.25 -2 0.75 -3.20 0 -3.40 -2.05 -0.15 -1.65 0.95 -2.75 3.45 -3.35 1.20 -0.30 1.40 -0.15 1.90 1.35 1.45 4.60 1.30 7.65 -0.55 9.40 -1.40 1.25 -3.25 1.25 -5 -0.05z m3.95 -7.75 c0.35 -1 -0.10 -1.35 -1.25 -1 -1.10 0.35 -1.80 1.60 -1.30 2.35 0.35 0.60 2.15 -0.40 2.55 -1.35z"/>
  <path d="M288.90 361.45 c-0.80 -0.55 -1.40 -1.35 -1.40 -1.75 0 -0.95 0.70 -0.90 1.70 0.25 1.90 2.10 4.60 1.30 4.80 -1.45 0.25 -2.80 0.15 -2.95 -1.50 -2.35 -2.10 0.80 -3.25 0 -3.25 -2.20 0 -1.45 0.25 -1.80 1.75 -2.55 0.95 -0.45 2 -0.85 2.35 -0.90 1.10 0 2.55 6.40 1.95 8.70 -0.75 3.05 -3.90 4.15 -6.40 2.25z m3.20 -6.80 c0.50 -0.45 0.90 -1.10 0.90 -1.50 0 -0.85 -1.25 -0.85 -2.15 0.10 -0.40 0.40 -0.85 0.55 -1.05 0.40 -0.15 -0.20 -0.30 -0.10 -0.30 0.15 0 0.50 1 1.70 1.45 1.70 0.10 0 0.65 -0.35 1.15 -0.85z"/>
  <path d="M46.75 356 c0.15 -0.25 0 -0.35 -0.45 -0.20 -0.95 0.35 -2.80 -2.50 -2.80 -4.30 0.05 -3.30 3.75 -8 6.30 -8 1.65 0 3.20 0.85 3.20 1.80 0 0.65 -0.20 0.65 -1.50 -0.05 -1.85 -0.95 -3.75 -0.20 -4.80 1.85 -0.40 0.80 -0.90 1.35 -1.10 1.20 -0.20 -0.10 -0.40 0.70 -0.45 1.80 -0.25 4.35 2.90 6.90 5.35 4.30 1.40 -1.50 1.25 -1.90 -0.60 -1.90 -2.05 0 -3.55 -0.80 -2.40 -1.25 1.10 -0.40 3.95 0 4.55 0.60 0.90 0.90 0 3.65 -1.40 4.20 -1.60 0.60 -4.30 0.60 -3.90 -0.05z"/>
  <path d="M61.50 355.50 c-1.85 -1.85 -0.90 -5.50 1.40 -5.50 2.35 0.05 2.85 2.45 0.60 3 -2 0.45 -1.55 1.70 0.75 2 1.90 0.25 1.95 0.30 0.90 0.90 -1.55 0.85 -2.50 0.75 -3.65 -0.40z"/>
  <path d="M68.50 355.50 c-1.95 -1.95 -0.70 -5.95 1.70 -5.30 0.60 0.15 1.25 0.30 1.45 0.30 0.25 0 0.35 0.50 0.25 1.10 -0.10 0.70 -0.60 1.20 -1.40 1.40 -2 0.45 -1.55 1.70 0.75 2 1.90 0.25 1.95 0.30 0.90 0.90 -1.55 0.85 -2.50 0.75 -3.65 -0.40z"/>
  <path d="M79.55 355.25 c-0.35 -0.80 -0.90 -2 -1.20 -2.65 -0.75 -1.65 -2 -1.15 -2.60 1.05 -0.30 1.05 -0.75 1.95 -1 2 -0.50 0.10 -1.45 -6.15 -1 -6.55 0.65 -0.65 1.25 0.75 1.05 2.30 -0.15 1 -0.15 1.40 0.05 0.85 1.15 -3.95 6 -1.40 5.55 2.90 l-0.20 1.60 -0.65 -1.50z"/>
  <path d="M90.30 355.55 c-0.60 -0.65 -0.80 -1.60 -0.70 -2.85 0.20 -2.20 1.20 -2.90 1.20 -0.85 0.05 3.75 0.10 3.90 1.15 2.95 0.50 -0.45 1.05 -1.55 1.25 -2.35 0.30 -1.55 1.30 -1.60 1.30 -0.05 0 1.25 -1.85 4.10 -2.65 4.10 -0.40 0 -1.10 -0.45 -1.55 -0.95z"/>
  <path d="M98.95 355.70 c-0.65 -0.75 -0.55 -0.85 0.95 -0.60 1.95 0.30 2.15 -0.65 0.35 -1.80 -1.35 -0.90 -1.60 -2.25 -0.65 -3.20 0.70 -0.70 3.40 -0.80 3.40 -0.10 0 0.30 -0.30 0.50 -0.60 0.50 -0.35 0 -1 0.20 -1.40 0.50 -0.60 0.35 -0.45 0.65 0.65 1.50 1.60 1.25 1.75 2.75 0.40 3.50 -1.40 0.70 -2.30 0.65 -3.10 -0.30z"/>
  <path d="M105.50 355.50 c-2.50 -2.50 0.05 -6.90 2.90 -5.05 1 0.60 0.55 2.25 -0.65 2.45 -0.55 0.10 -1.30 0.45 -1.65 0.75 -0.90 0.70 0.15 1.35 2.30 1.35 1.05 0 1.55 0.20 1.35 0.55 -0.20 0.30 -0.70 0.40 -1.10 0.25 -0.40 -0.15 -0.55 -0.05 -0.40 0.20 0.60 0.95 -1.75 0.50 -2.75 -0.50z"/>
  <path d="M115.85 356.15 c-0.50 -0.50 -0.40 -3.80 0.15 -4.65 0.35 -0.55 0.50 0.10 0.50 2.15 0 2.90 -0.05 3.10 -0.65 2.50z"/>
  <path d="M118.95 355.70 c-0.65 -0.75 -0.55 -0.85 0.95 -0.60 1.95 0.30 2.15 -0.65 0.30 -1.80 -0.85 -0.60 -1.20 -1.25 -1.10 -1.95 0.15 -1.20 2.15 -2.40 3.20 -2 0.85 0.30 0.90 1.15 0.10 1.15 -0.35 0 -1 0.20 -1.40 0.50 -0.60 0.35 -0.45 0.65 0.65 1.50 1.60 1.25 1.75 2.75 0.40 3.50 -1.40 0.70 -2.30 0.65 -3.10 -0.30z"/>
  <path d="M140 355.75 c-0.55 -0.65 -0.40 -0.75 0.95 -0.75 1.85 0 2 -0.60 0.30 -1.70 -1.35 -0.90 -1.65 -2.35 -0.60 -3.20 0.95 -0.80 3 -0.95 3.20 -0.20 0.15 0.30 -0.05 0.60 -0.45 0.60 -0.35 0 -1 0.20 -1.40 0.50 -0.60 0.35 -0.45 0.65 0.65 1.50 1.60 1.25 1.75 2.75 0.40 3.50 -1.35 0.70 -2.30 0.65 -3.05 -0.25z"/>
  <path d="M171.30 355.70 c-0.15 -0.45 -0.30 -1.55 -0.30 -2.50 0 -1.60 -0.10 -1.70 -1.75 -1.70 -2.25 0 -2.25 -0.85 0 -1.30 1.55 -0.30 1.75 -0.45 1.60 -1.85 -0.05 -0.85 0.15 -1.60 0.55 -1.70 0.35 -0.15 0.60 0.25 0.60 1.05 0 0.90 0.40 1.50 1.25 1.90 1.50 0.70 1.60 1.20 0.25 1.55 -0.80 0.20 -1 0.70 -1 2.50 0 2.35 -0.65 3.45 -1.20 2.05z"/>
  <path d="M181.50 355.50 c-1.95 -1.95 -0.70 -5.95 1.70 -5.30 0.60 0.15 1.25 0.30 1.45 0.30 0.90 0 0.05 2.25 -0.90 2.40 -0.55 0.10 -1.30 0.45 -1.65 0.75 -0.90 0.75 0.15 1.35 2.40 1.35 1.65 0.05 1.70 0.05 0.80 0.75 -1.35 1 -2.60 0.95 -3.80 -0.25z"/>
  <path d="M192.60 355.25 c-1.75 -4.30 -2.95 -4.80 -3.85 -1.65 -0.95 3.40 -1.35 3 -2 -2.20 -0.20 -1.65 -0.15 -2.40 0.25 -2.40 0.35 0 0.70 0.45 0.85 1 0.20 0.70 0.50 0.85 1 0.55 2.25 -1.25 4.90 1.45 4.55 4.60 l-0.20 1.60 -0.60 -1.50z"/>
  <path d="M195.90 356 c-0.95 -0.60 -1.60 -3.05 -1.15 -4.45 0.35 -1.20 1.45 -1.65 3.05 -1.25 1.65 0.45 1.45 2.30 -0.30 2.70 -2 0.45 -1.55 1.70 0.75 2 1.90 0.25 1.95 0.30 0.90 0.90 -1.30 0.70 -2.10 0.75 -3.25 0.10z"/>
  <path d="M239.25 355.65 c-1.20 -2.75 -0.20 -5.15 2.15 -5.15 1.75 0 2.60 0.85 2.60 2.60 0 2.60 -3.85 4.65 -4.75 2.55z m3.25 -2.40 c0 -1.45 -0.80 -2.05 -1.75 -1.25 -0.75 0.65 -1 2.55 -0.45 3.15 0.65 0.65 2.20 -0.70 2.20 -1.90z"/>
  <path d="M250.50 355.55 c-0.25 -0.55 -0.50 -1.30 -0.50 -1.70 0 -0.95 -1.80 -2.55 -2.45 -2.15 -0.30 0.20 -0.65 1.10 -0.85 2.05 -0.30 1.60 -1.15 2.90 -1.25 1.90 -0.05 -0.40 -0.25 -2 -0.65 -5 -0.25 -1.80 0.60 -2.30 1.05 -0.65 0.20 0.70 0.50 0.85 1 0.55 1.15 -0.60 3.10 -0.05 3.75 1.10 0.50 1 1 4.85 0.60 4.85 -0.10 0 -0.40 -0.45 -0.70 -0.95z"/>
  <path d="M252.80 354.55 c-0.30 -2.10 0.05 -3.70 0.75 -3.30 0.40 0.30 0.30 4.55 -0.15 5.05 -0.15 0.10 -0.40 -0.65 -0.60 -1.75z"/>
  <path d="M259.30 355.70 c-0.15 -0.45 -0.30 -1.55 -0.30 -2.50 0 -1.60 -0.10 -1.70 -1.75 -1.70 -2.25 0 -2.25 -0.85 0 -1.30 1.70 -0.30 1.75 -0.40 1.45 -2 -0.25 -1.35 -0.15 -1.70 0.50 -1.70 0.50 0 0.80 0.45 0.80 1.25 0 0.85 0.40 1.45 1.25 1.85 1.50 0.70 1.60 1.20 0.25 1.55 -0.80 0.20 -1 0.70 -1 2.50 0 2.35 -0.65 3.45 -1.20 2.05z"/>
  <path d="M264 355.55 c-1.20 -2.30 0.15 -5.05 2.45 -5.05 1.70 0 2.55 0.85 2.55 2.60 0 2.70 -3.85 4.60 -5 2.45z m3.40 -2 c0.30 -1.85 -0.80 -2.50 -1.90 -1.15 -1.15 1.40 -0.80 2.70 0.70 2.50 0.65 -0.10 1.10 -0.60 1.20 -1.35z"/>
  <path d="M277.75 355.85 c-0.50 -1.15 -0.05 -4 0.60 -4.20 0.40 -0.15 0.50 0.45 0.30 2.20 -0.25 2.70 -0.50 3.15 -0.90 2z"/>
  <path d="M285.60 355.25 c-1.15 -2.80 -1.75 -3.75 -2.40 -3.75 -0.80 0 -1.70 1.55 -1.70 2.95 0 0.55 -0.20 1.10 -0.45 1.25 -0.50 0.30 -1.80 -6.15 -1.30 -6.60 0.45 -0.45 0.85 0.25 0.95 1.65 0.05 1.05 0.15 1.15 0.60 0.50 0.30 -0.40 1.25 -0.75 2.10 -0.75 1.25 0 1.75 0.30 2.35 1.55 0.45 0.80 0.75 2.25 0.65 3.10 l-0.20 1.60 -0.60 -1.50z"/>
  <path d="M55.10 354.85 c-0.35 -0.80 -0.60 -2.30 -0.60 -3.40 0 -1.70 0.15 -1.95 1.15 -1.95 0.60 0 1.65 -0.05 2.35 -0.10 1.45 -0.15 2 0.80 0.55 1 -1.45 0.25 -2.45 1.65 -2.65 3.85 l-0.20 2 -0.60 -1.40z"/>
  <path d="M83.25 352.35 c-0.20 -2 -0.30 -3.95 -0.25 -4.35 0.35 -2.35 -0.05 -4.45 -0.85 -4.65 -1.30 -0.30 1.45 -1.35 3.55 -1.35 2.10 0 2.80 0.75 2.80 3 0 1.85 -1.25 3.50 -3.10 4.15 -0.75 0.25 -0.90 0.90 -0.90 3.30 0 4.30 -0.85 4.20 -1.25 -0.10z m3.20 -5.05 c1.55 -1.65 1.10 -4.05 -0.70 -4.20 -1.20 -0.10 -1.25 0.05 -1.25 2.65 0 1.50 0.20 2.75 0.40 2.75 0.25 0 0.95 -0.55 1.55 -1.20z"/>
  <path d="M145.50 353.20 l0 -2.80 3.40 0.35 c1.85 0.20 3.50 0.60 3.70 0.95 0.55 0.85 0.45 4.30 -0.10 4.30 -0.25 0 -0.50 -0.90 -0.50 -2.05 l0 -2.05 -0.90 1.10 c-1 1.20 -2.10 1 -2.10 -0.35 0 -0.50 -0.30 -0.65 -0.80 -0.45 -0.45 0.15 -0.90 0.30 -1 0.30 -0.10 0 -0.20 0.45 -0.20 0.95 0 1.30 -0.50 2.55 -1.05 2.55 -0.25 0 -0.45 -1.25 -0.45 -2.80z"/>
  <path d="M161.40 355.50 c-0.65 -1.50 -0.70 -6 0 -6 0.30 0 0.60 0.25 0.60 0.55 0 0.30 0.35 0.15 0.80 -0.30 0.85 -0.85 2.75 -0.85 2.75 0 0 0.30 -0.45 0.55 -1 0.65 -1.45 0.25 -2.45 1.65 -2.65 3.85 -0.10 1.20 -0.30 1.70 -0.50 1.25z"/>
  <path d="M202.10 354.85 c-0.35 -0.80 -0.60 -2.30 -0.60 -3.40 0 -1.70 0.15 -1.95 1.15 -1.95 0.60 0 1.65 -0.05 2.35 -0.10 1.45 -0.15 2 0.80 0.55 1 -1.45 0.25 -2.45 1.65 -2.65 3.85 l-0.20 2 -0.60 -1.40z"/>
  <path d="M229.50 353.20 l0 -2.80 3.40 0.35 c1.85 0.20 3.50 0.60 3.70 0.95 0.60 0.85 0.50 4.40 -0.10 4.05 -0.25 -0.15 -0.50 -1.10 -0.50 -2.10 l0 -1.75 -0.90 1.10 c-1 1.20 -2.10 1 -2.10 -0.35 0 -0.50 -0.30 -0.65 -0.80 -0.45 -0.45 0.15 -0.90 0.30 -1 0.30 -0.10 0 -0.20 0.45 -0.20 0.95 0 1.30 -0.50 2.55 -1.05 2.55 -0.25 0 -0.45 -1.25 -0.45 -2.80z"/>
  <path d="M271.10 354.85 c-0.35 -0.80 -0.60 -2.30 -0.60 -3.40 0 -1.70 0.15 -1.95 1.15 -1.95 0.60 0 1.65 -0.05 2.35 -0.10 1.45 -0.15 2 0.80 0.55 1 -1.45 0.25 -2.45 1.65 -2.65 3.85 l-0.20 2 -0.60 -1.40z"/>
  <path d="M95.80 354 c-0.45 -2.50 -0.35 -10 0.15 -10 0.30 0 0.55 2.40 0.65 5.30 0.15 5.40 -0.20 7.55 -0.80 4.70z"/>
  <path d="M129 353.95 c-0.80 -1.45 -0.20 -3.30 1.15 -3.75 0.60 -0.20 1.25 -0.60 1.50 -0.90 0.55 -0.85 1.65 0.90 2.05 3.30 0.30 1.90 -0.10 3.35 -0.55 2.05 -0.15 -0.45 -0.60 -0.45 -1.45 -0.10 -1.80 0.65 -2.10 0.60 -2.70 -0.60z m2.65 -2.30 c-0.15 -0.35 -0.45 -0.65 -0.70 -0.65 -0.70 0 -1.10 1.35 -0.75 2.35 0.30 0.75 0.40 0.70 1 -0.15 0.40 -0.50 0.60 -1.20 0.45 -1.55z"/>
  <path d="M155.05 354.05 c-0.80 -1.40 -0.20 -3.45 1.10 -3.85 0.60 -0.20 1.25 -0.55 1.40 -0.85 0.55 -0.80 1.45 0.10 1.45 1.40 0 0.65 0.25 1.35 0.50 1.50 0.65 0.40 0.65 2.75 -0.05 2.75 -0.25 0 -0.35 -0.25 -0.15 -0.60 0.25 -0.40 0.10 -0.45 -0.50 -0.25 -2.45 0.95 -3.20 0.95 -3.75 -0.10z m2.45 -2.15 c0 -0.50 -0.25 -0.90 -0.50 -0.90 -0.75 0 -1.15 1.35 -0.80 2.35 0.30 0.75 0.40 0.75 0.80 0.15 0.30 -0.40 0.50 -1.15 0.50 -1.60z"/>
  <path d="M101.90 326.90 c-1.45 -1.10 -1.40 -4.15 0.10 -5.80 2.05 -2.15 5 -0.80 5 2.25 0 2.80 -3.15 5 -5.10 3.55z m2.85 -1.90 c0.60 -0.65 0.75 -1.35 0.55 -2.25 -0.35 -1.45 -1.10 -1.60 -2.40 -0.40 -1.05 0.95 -1.15 2.20 -0.30 3.05 0.80 0.80 1.10 0.75 2.15 -0.40z"/>
  <path d="M136.95 327 c-1.75 -1 -1.60 -4.30 0.30 -6.15 1.80 -1.80 4.75 -0.40 4.75 2.25 0 2 -0.50 2.85 -2.05 3.65 -1.65 0.85 -1.90 0.90 -3 0.25z m2.80 -2 c1 -1.10 0.70 -3.50 -0.45 -3.50 -1.20 0 -2.45 1.85 -2.10 3.25 0.40 1.50 1.30 1.60 2.55 0.25z"/>
  <path d="M109.75 326.40 c-0.15 -0.35 -0.45 -2.20 -0.70 -4.15 -0.55 -3.90 0.05 -5.55 1 -2.85 0.45 1.30 0.70 1.50 1.20 1.10 1.10 -0.90 3.30 -0.35 4.35 1.05 1.20 1.60 1.90 5.70 0.90 5.35 -0.35 -0.10 -0.95 -1.20 -1.30 -2.40 -0.60 -2.10 -1.35 -3 -2.50 -3 -0.70 0 -1.70 2.20 -1.70 3.75 0 1.35 -0.90 2.15 -1.25 1.15z"/>
  <path d="M119 326.25 c-0.55 -0.65 -0.35 -0.75 1.15 -0.75 2.35 0 2.65 -0.60 0.85 -1.95 -2.60 -1.90 -1.75 -4.55 1.40 -4.55 2.15 0 1.90 1.05 -0.45 1.65 l-1.70 0.45 1.90 1.50 c1 0.80 1.85 1.90 1.85 2.45 0 1.75 -3.75 2.70 -5 1.20z"/>
  <path d="M132.65 326.25 c-0.35 -1.05 0.15 -4.25 0.85 -4.95 0.35 -0.35 0.50 0.45 0.50 2.60 0 2.95 -0.65 4.10 -1.35 2.35z"/>
  <path d="M144.20 325.75 c-0.60 -0.95 -0.75 -1.80 -0.50 -3.50 0.45 -3 1.10 -2.85 1.40 0.25 0.15 1.40 0.40 2.65 0.60 2.85 0.55 0.55 1.90 -1.15 2.25 -2.80 0.45 -2.25 1.30 -1.90 1.25 0.45 -0.05 3.60 -3.30 5.40 -5 2.75z"/>
  <path d="M151 326.25 c-0.55 -0.65 -0.35 -0.75 1.15 -0.75 2.35 0 2.65 -0.60 0.85 -1.95 -2.60 -1.90 -1.75 -4.55 1.40 -4.55 1.80 0 2.05 1.10 0.30 1.40 -1.90 0.35 -2 1.10 -0.30 2.40 0.85 0.70 1.60 1.70 1.60 2.20 0 1.80 -3.75 2.75 -5 1.25z"/>
  <path d="M93.70 325.50 c-1.60 -0.65 -3.60 -3.35 -4 -5.25 -0.95 -5.20 2.35 -9.75 6.55 -8.95 1.70 0.30 3.15 1.45 2.60 2 -0.15 0.15 -1.10 0.05 -2.10 -0.30 -2.60 -0.85 -4.25 0.40 -5.20 3.95 -0.65 2.30 -0.60 2.80 0.10 4.30 0.45 0.95 1.40 2.10 2.10 2.55 1.15 0.75 1.45 0.75 3.25 0.05 1.85 -0.70 2.50 -0.65 2.50 0.20 0 0.60 -2.75 1.95 -3.85 1.90 -0.50 0 -1.35 -0.20 -1.95 -0.45z"/>
  <path d="M127.45 325.50 c-0.45 -0.25 -1.10 -1.15 -1.45 -2 -0.55 -1.40 -0.55 -1.70 0.35 -2.90 0.65 -0.85 1.50 -1.35 2.35 -1.35 1.60 0 1.95 0.95 0.40 1.15 -0.60 0.10 -1.35 0.60 -1.60 1.15 -0.45 0.75 -0.30 1.20 0.70 2.20 0.70 0.70 1.60 1.25 2.05 1.25 0.40 0 0.75 0.25 0.75 0.50 0 0.65 -2.50 0.65 -3.55 0z"/>
  <path d="M133.50 316.75 c0 -0.40 0.25 -0.75 0.50 -0.75 0.30 0 0.50 0.35 0.50 0.75 0 0.40 -0.20 0.75 -0.50 0.75 -0.25 0 -0.50 -0.35 -0.50 -0.75z"/>
  <path d="M325.45 178.40 c0 -0.10 -0.15 -21.20 -0.30 -46.90 -0.25 -56.90 -0.75 -86.40 -1.50 -87.75 -0.30 -0.55 -1.05 -2 -1.65 -3.25 -1.35 -2.65 -4.65 -6.25 -6.70 -7.35 -4.30 -2.25 1.75 -2.15 -140.10 -2.25 -141 -0.10 -136.05 -0.15 -141.45 2.05 -3.70 1.50 -8.10 6.35 -8.95 9.80 -1.45 5.90 -1.55 10.65 -1.20 40.25 0.25 16.65 0.35 44.75 0.30 62.50 -0.15 28.30 -0.25 32.25 -0.90 32.25 -0.60 0 -0.85 -1.10 -1.10 -5.25 -0.65 -8.90 -0.75 -125.95 -0.10 -128.25 2.40 -8.85 8.50 -14.15 17.95 -15.50 2.95 -0.45 181.10 -0.40 234.90 0.05 26.10 0.25 37.90 0.50 39 0.90 4.10 1.50 8.50 5.45 10.60 9.65 2.75 5.55 2.75 5.30 2.80 34.40 0 14.85 0.20 44.20 0.40 65.25 0.20 23.50 0.20 38.50 -0.10 38.90 -0.40 0.50 -1.75 0.85 -1.90 0.50z m0.40 -55.50 c-0.10 -1.45 -0.15 -0.30 -0.15 2.60 0 2.90 0.05 4.05 0.15 2.65 0.10 -1.45 0.10 -3.85 0 -5.25z m-254.20 -93.75 c-0.90 -0.10 -2.40 -0.10 -3.25 0 -0.90 0.10 -0.20 0.20 1.60 0.20 1.80 0 2.50 -0.10 1.65 -0.20z"/>
  <path d="M108 64.50 c-2.45 -0.50 -3.65 -1.70 -5.45 -5.25 -2.70 -5.40 0.25 -14.20 6.15 -18.20 3.10 -2.10 5.55 -2.80 7.75 -2.10 2.30 0.65 4.30 2.70 3.85 3.85 -0.30 0.75 -0.40 0.75 -1.45 0 -3.70 -2.75 -5.70 -2.70 -9.35 0.25 -2.25 1.80 -5.20 7.15 -5.75 10.35 -0.40 2.50 1.20 6.55 3.35 8.35 2 1.70 5.55 1.70 7.95 0.10 1.40 -0.95 1.75 -1.50 1.85 -3.15 l0.15 -2.05 -4.05 -0.45 c-2.20 -0.25 -4.05 -0.65 -4 -0.95 0 -1.55 7.35 -1.50 9.05 0.05 1.10 1 1.30 4.40 0.35 6.45 -1.15 2.50 -5.70 3.70 -10.40 2.75z"/>
  <path d="M141.20 64.50 c-0.55 -0.20 -1.65 -1.10 -2.35 -2 -3.05 -3.60 -0.90 -10.50 3.30 -10.50 1.60 0 4.35 2.35 4.35 3.75 0 0.85 -2.75 2.25 -4.40 2.25 -0.50 0 -1.30 0.30 -1.80 0.65 -0.75 0.55 -0.80 0.85 -0.25 2 0.70 1.50 2.85 2.15 5.70 1.70 2.55 -0.40 2.65 0.55 0.15 1.65 -2.35 1.05 -3.10 1.15 -4.70 0.50z m1.20 -8.50 c0.85 0 0.75 -1.45 -0.10 -1.80 -1 -0.40 -2.80 0.65 -2.80 1.65 0 0.55 0.30 0.70 1.15 0.45 0.60 -0.15 1.40 -0.30 1.75 -0.30z"/>
  <path d="M154.20 64.50 c-0.55 -0.20 -1.65 -1.10 -2.35 -2 -1.10 -1.25 -1.35 -2.10 -1.35 -4.20 0 -5.55 4.30 -8.25 7.55 -4.75 0.80 0.85 1.45 1.90 1.45 2.30 0 0.75 -2.85 2.15 -4.40 2.15 -0.50 0 -1.30 0.30 -1.80 0.65 -0.75 0.55 -0.80 0.85 -0.25 2 0.70 1.50 2.90 2.15 5.65 1.65 2.60 -0.50 2.70 0.55 0.20 1.70 -2.35 1.05 -3.10 1.15 -4.70 0.50z m1.20 -8.50 c0.85 0 0.75 -1.45 -0.10 -1.80 -1 -0.40 -2.80 0.65 -2.80 1.65 0 0.55 0.30 0.70 1.15 0.45 0.60 -0.15 1.40 -0.30 1.75 -0.30z"/>
  <path d="M230.25 64.50 c-2.75 -1.10 -4.45 -5.20 -3.55 -8.65 0.50 -2 2.55 -3.85 4.30 -3.85 1.75 0 4.50 2.30 4.50 3.75 0 0.85 -2.75 2.25 -4.40 2.25 -0.50 0 -1.30 0.30 -1.80 0.65 -0.75 0.55 -0.80 0.85 -0.25 2 0.70 1.50 2.85 2.15 5.70 1.70 2.55 -0.40 2.65 0.55 0.15 1.65 -2.35 1.05 -3.15 1.15 -4.65 0.50z m1.15 -8.50 c0.85 0 0.75 -1.45 -0.10 -1.80 -1 -0.40 -2.80 0.65 -2.80 1.65 0 0.55 0.30 0.70 1.15 0.45 0.60 -0.15 1.40 -0.30 1.75 -0.30z"/>
  <path d="M175.50 63.20 c-0.30 -0.70 -0.50 -1.55 -0.50 -1.90 0 -1.65 -1.75 -5.45 -2.85 -6.15 -2.55 -1.65 -4.65 0.75 -5.40 6.25 -0.40 3 -1.55 3.55 -1.95 1 -0.45 -2.60 -1.30 -10.55 -1.30 -11.75 0 -1.55 0.90 -1.45 1.50 0.10 0.30 0.70 0.75 1.85 1 2.55 l0.50 1.25 1.30 -1 c1.70 -1.35 3.50 -1.35 5.55 0.10 1.90 1.25 3 3.30 3.60 6.60 0.70 3.70 -0.35 5.85 -1.45 2.95z"/>
  <path d="M198.70 62.95 c-1.35 -1.40 -1.45 -1.80 -1.35 -4.70 0.25 -6.35 2.10 -7.65 2.15 -1.50 0 4.80 0.75 6.20 2.80 5.40 0.90 -0.35 2.70 -4.20 2.70 -5.80 0 -0.60 0.25 -1.45 0.50 -1.85 0.45 -0.65 0.55 -0.65 1 0 1.15 1.80 0.15 6.20 -1.95 8.45 -1.95 2.05 -3.85 2.05 -5.85 0z"/>
  <path d="M215.40 63.95 c-1.80 -1 -1.05 -1.80 1.50 -1.60 1.65 0.15 2.65 0 3.35 -0.55 1 -0.80 1 -0.80 -0.20 -1.70 -2.55 -1.85 -4.55 -4.05 -4.55 -5.05 0 -2.95 4.90 -5.25 7.50 -3.55 0.65 0.45 0.65 0.55 0 1 -0.40 0.25 -1.45 0.50 -2.30 0.50 -0.95 0 -1.90 0.40 -2.50 1.05 -0.95 1.05 -0.95 1.10 0.50 2.15 3.45 2.45 4.45 3.60 4.45 5.05 0 2.05 -1.70 3.25 -4.60 3.25 -1.25 0 -2.70 -0.25 -3.15 -0.55z"/>
  <path d="M124.30 63.15 c-0.35 -1.25 -0.85 -6.50 -0.90 -9 0 -2.70 0.35 -3.30 1.65 -2.60 0.80 0.40 1.60 0.25 3.70 -0.60 1.70 -0.70 3.10 -0.95 3.95 -0.75 1.90 0.45 1.60 1.65 -0.55 2.05 -2.35 0.40 -4.10 1.35 -5.40 2.75 -0.80 0.90 -0.95 1.70 -0.85 5.05 0.10 3.15 -0.05 3.95 -0.60 3.95 -0.40 0 -0.85 -0.40 -1 -0.85z"/>
  <path d="M184.20 62.90 c-0.25 -0.35 -0.45 -5.25 -0.50 -10.90 0 -13.95 0.10 -13 -1.75 -13 -2.10 0 -1.65 -1 1.10 -2.35 5.30 -2.65 10.65 -0.75 11.60 4.15 0.70 3.60 -1.40 6.75 -5.75 8.70 -1.35 0.55 -2.40 1.10 -2.45 1.15 -0.05 0.05 -0.20 2.75 -0.40 5.95 -0.30 5.70 -0.95 7.75 -1.85 6.30z m6.60 -17.10 c2.35 -2.35 2.65 -3.50 1.45 -5.85 -0.85 -1.60 -2.45 -2.45 -4.80 -2.45 l-1.45 0 0 4.15 c0 2.25 0.15 4.60 0.30 5.25 0.50 1.70 2.10 1.35 4.50 -1.10z"/>
  <path d="M210.25 62.15 c-0.20 -0.50 -0.50 -5.70 -0.65 -11.50 -0.20 -9.35 -0.15 -10.65 0.55 -10.65 0.60 0 0.80 0.90 1.05 4.15 0.60 7.95 0.60 18.50 0 18.70 -0.30 0.10 -0.75 -0.20 -0.95 -0.70z"/>
 </g>
</svg>