<?xml version="1.0" encoding="utf-8"?>
<!DOCTYPE svg PUBLIC "-//W3C//DTD SVG 1.0//EN" "http://www.w3.org/TR/2001/REC-SVG-20010904/DTD/svg10.dtd">
<svg version="1.0" xmlns="http://www.w3.org/2000/svg" width="547px" height="487px" viewBox="0 0 547 487" preserveAspectRatio="xMidYMid meet">
 <g fill="#1e1e26">
  <path d="M243.5 481.3 c-31.9 -1.5 -48.4 -3.3 -82.3 -8.9 -21.7 -3.5 -32.9 -6.7 -36.5 -10.2 -2.7 -2.7 -1.7 -6.2 3.4 -11.7 6.3 -6.9 20.6 -11.8 43.2 -15 7.6 -1.1 62.3 -4.5 72.4 -4.5 0.8 0 3.3 -4.9 3.3 -6.6 0 -0.2 -51.9 -0.5 -115.4 -0.6 l-115.5 -0.3 -2.8 -2.1 c-1.5 -1.2 -3.6 -3.5 -4.7 -5.3 -1.8 -3.1 -1.8 -9.1 -1.6 -180.9 0.2 -97.7 0.4 -184.7 0.5 -193.4 0.2 -18 0.6 -19.2 8.2 -22.9 l4.8 -2.4 254 -0.3 c286.2 -0.3 259.2 -1 264.2 7.5 l2.5 4.4 -0.4 193.3 c-0.4 183.6 -0.5 193.4 -2.2 196 -3.8 5.8 1.6 5.6 -123.5 5.6 -63.2 0 -115.2 0.3 -115.4 0.8 -0.2 0.4 0 2.2 0.5 3.9 1.1 4 1 4 21.8 4.7 35.4 1.2 69.9 4.8 79.8 8.3 6.3 2.2 17.9 10.5 19.4 13.8 2.7 6 -3.6 11.5 -17.1 15 -8 2 -42 6.9 -62.6 8.9 -29.3 2.8 -73.5 4.1 -98 2.9z m63.5 -4.8 c32.6 -1.7 40.4 -2.4 69.7 -6.5 23.4 -3.3 28.8 -4.4 35 -7.2 7.1 -3.3 7.9 -6.4 2.7 -10.2 -2.5 -1.8 -2.6 -1.8 -5.2 0.7 -5.6 5.4 -20.4 9.8 -39.2 11.6 -33.6 3.3 -128.6 4 -160 1.2 -16.8 -1.5 -50 -5.9 -58 -7.7 -7.5 -1.7 -17 -5.8 -17 -7.3 0 -1.9 -3.1 0.2 -5.5 3.7 -1.8 2.7 -2.2 3.9 -1.4 4.9 2.3 2.7 17.5 6.3 43 10.2 51.1 7.8 83 9.4 135.9 6.6z m48.5 -14.4 c26.3 -2.1 36.8 -4.1 46.3 -8.7 15.7 -7.6 -4.9 -12.8 -65.8 -16.3 -25.7 -1.6 -32 -1.7 -32 -1 0 1 5.8 6.7 8.7 8.6 7 4.6 4.2 8.5 -7.3 10.2 -14.4 2 -23.7 2.3 -46.9 1.3 -32.3 -1.4 -33.7 -2.2 -23 -13.3 3.7 -3.8 6.6 -7.2 6.3 -7.4 -0.8 -0.9 -58.2 2.5 -69.8 4 -17.2 2.4 -33 6.9 -33 9.5 0 3.8 38.7 10.6 74.5 13 8.8 0.6 16.7 1.3 17.5 1.5 3.1 0.8 112 -0.4 124.5 -1.4z m-59.5 -10.1 c5.2 -0.6 11 -1.3 12.7 -1.6 l3.3 -0.6 -6.4 -6.2 c-6.3 -6.1 -6.9 -7.1 -10.2 -19.3 -0.3 -1 -5.5 -1.3 -21.8 -1.3 -20.3 0 -21.6 0.1 -22.6 1.9 -0.9 1.9 -0.6 2 4.7 2.3 4.4 0.2 5.8 0.7 5.8 1.8 0 1.1 -1.5 1.6 -6 1.8 -3.3 0.2 -6.4 0.8 -7 1.4 -0.7 0.7 1.5 0.8 7.3 0.3 6.9 -0.6 8.2 -0.5 8.2 0.8 0 2 -1.7 2.5 -11 3.3 -4.4 0.4 -8 1 -8 1.4 0 1.3 7.8 1.8 15.7 0.9 8 -0.9 10.9 -0.1 8.5 2.4 -0.9 0.8 -5.7 1.3 -14.5 1.5 -7.3 0.2 -13.6 0.8 -14.2 1.4 -0.7 0.7 5.2 0.9 17.9 0.6 13.4 -0.2 19 0 19.3 0.8 0.9 2.6 -2.3 2.9 -43.1 3.4 -0.6 0 -0.5 0.5 0.2 1.2 0.8 0.8 7.6 1.4 19.9 1.8 29.4 1 31.2 1 41.3 0z m234.6 -33.6 c1.8 -0.2 3.6 -1 4.2 -1.7 0.6 -0.8 1.2 -70.3 1.6 -195.4 l0.6 -194.3 -2.9 -3.2 -2.9 -3.3 -228.1 -0.3 -228 -0.2 -0.3 2.7 c-0.4 3.7 -3.2 3.7 -3.6 0.1 -0.3 -2.3 -0.8 -2.8 -3.2 -2.8 -2.5 0 -2.9 0.4 -3.2 3.3 -0.2 2 -0.8 3.2 -1.8 3.2 -1 0 -1.6 -1.2 -1.8 -3.2 -0.2 -2.1 -0.9 -3.3 -1.8 -3.3 -0.9 0 -1.4 1.1 -1.4 3.3 0 1.7 -0.4 3.8 -0.9 4.6 -1.5 2.3 -3.1 0.2 -3.1 -4 0 -5.3 -2.7 -5.5 -3.2 -0.1 -0.4 5.1 -3.2 5.1 -3.6 0 -0.3 -3 -0.7 -3.8 -2.3 -3.8 -1.6 0 -1.9 0.7 -1.9 4.3 0 2.3 -0.4 4.8 -0.9 5.6 -1.6 2.5 -3.1 0.1 -3.1 -5 0 -2.7 -0.4 -4.9 -1 -4.9 -0.5 0 -1.1 5.9 -1.2 14.3 -0.3 11.8 -0.5 14.2 -1.8 14.2 -1.2 0 -1.6 -2.4 -2 -14 -0.4 -12.2 -0.7 -14 -2.2 -14.3 -1.6 -0.3 -1.8 1.1 -2 15.5 -0.3 13.3 -0.5 15.8 -1.8 15.8 -1.3 0 -1.5 -2.6 -1.8 -15.8 -0.2 -13.9 -0.4 -15.8 -1.8 -15.3 -0.9 0.3 -2 0.6 -2.5 0.6 -0.5 0 -0.9 3.5 -0.9 7.8 0 20.2 -1.3 42.2 -2.5 42.2 -2.2 0 -2.6 -4.7 -1.9 -26.8 0.7 -21.6 0.7 -21.7 -1.3 -19.9 -1.9 1.6 -2 3.5 -2.6 37 -1.2 62.3 -0.9 351.5 0.3 353.8 2.8 5.2 -11.7 4.9 261.5 4.3 139.7 -0.3 255.4 -0.7 257.1 -1z"/>
  <path d="M45.6 389.8 c-1.4 -16.1 -2.7 -173.6 -2.1 -253.3 0.4 -47.8 0.9 -87.3 1.2 -87.7 0.6 -1.1 459.5 -1 461.1 0 1 0.7 1 26.8 0.1 130.3 -1.5 178.1 -2 213.1 -3 215.2 -0.9 1.6 -12.8 1.7 -228.9 1.7 l-227.8 0 -0.6 -6.2z m453.9 1 c0.2 -0.7 0.9 -60 1.5 -131.8 0.5 -71.8 1.3 -147.7 1.7 -168.7 l0.6 -38.3 -227.5 0 -227.5 0 -0.6 100.3 c-0.5 73.9 0.3 219.2 1.3 239 0 0.4 101.3 0.7 225 0.7 179.2 0 225.1 -0.3 225.5 -1.2z"/>
 </g>
</svg>