<?xml version="1.0" encoding="utf-8"?>
<!DOCTYPE svg PUBLIC "-//W3C//DTD SVG 1.0//EN" "http://www.w3.org/TR/2001/REC-SVG-20010904/DTD/svg10.dtd">
<svg version="1.0" xmlns="http://www.w3.org/2000/svg" width="512px" height="758px" viewBox="0 0 512 758" preserveAspectRatio="xMidYMid meet">
 <g fill="#1c1c24">
  <path d="M398 749.3 c-4.2 -0.8 -10.8 -7 -12.1 -11.2 -1.4 -4.9 0.1 -9.7 7.6 -24.5 2.9 -5.8 5.9 -13.1 6.6 -16.1 1.2 -5.4 1.1 -5.6 -1.3 -8.3 -2.3 -2.5 -2.7 -4.1 -4.7 -23.7 -1.1 -11.5 -2.6 -28.2 -3.2 -37 -1.9 -29.9 -5.6 -58.1 -9.7 -76 -2.2 -9.3 -5 -21.6 -6.2 -27.3 -1.3 -5.6 -2.5 -10 -2.8 -9.7 -0.3 0.3 -0.9 5 -1.3 10.4 -0.4 5.5 -2 14.4 -3.5 19.8 -2.6 9.6 -2.7 10.2 -2.5 37.3 0.2 30.5 -1 54 -3.6 73.3 -1.6 12 -1.6 13.3 0 23.5 2 12.5 1.5 15.1 -3.5 18.2 -4.2 2.5 -15.2 5 -22.4 5 -4.6 0 -7.1 0.7 -12.5 3.5 -8.3 4.3 -16.2 6.2 -29.4 7.1 -12 0.8 -19.5 -0.9 -24.4 -5.5 -2.6 -2.4 -3.1 -3.7 -3.1 -7.3 0 -8.7 7 -14.5 26.3 -21.8 2.6 -1 6.8 -3.3 9.2 -5.2 3.9 -2.9 4.4 -3.8 4.5 -7.1 0 -2.1 1.2 -8 2.7 -13 l2.6 -9.2 -1.2 -34 c-1.2 -33.8 -1.6 -38.6 -4.5 -54.1 -1.7 -9 -3.1 -30 -4.6 -66.9 -0.6 -13.7 -1.7 -30.8 -2.6 -38 -2.6 -20.8 -2.3 -36.8 0.9 -50.2 3.6 -14.7 3.9 -32.1 0.6 -38.4 -2.4 -4.8 -2.9 -15.9 -1.5 -33.3 l0.8 -10.9 -2.3 1.7 c-1.3 0.9 -3.5 1.6 -5 1.6 -2.1 0 -4.5 2 -11 9.1 -4.5 4.9 -9.4 9.6 -10.9 10.4 -3.9 2 -17.8 5.5 -29.5 7.4 -9.9 1.7 -10 1.7 -10.3 4.6 -0.4 3.1 -3.7 7.5 -5.7 7.5 -0.7 0 -2.4 1.7 -3.8 3.8 -2.4 3.5 -2.6 4.6 -3.4 24.2 -1.1 22.5 -1.4 23.5 -7.3 26.9 -3.7 2.1 -3.7 2.1 -6.3 15.3 -1.5 7.3 -3.8 20.9 -5.2 30.3 -1.4 9.3 -4.6 26 -7.1 37 -4.7 21.1 -12.6 73.4 -14.3 94.5 -0.6 6.9 -1.3 21.4 -1.6 32.2 -0.3 10.9 -1 21.2 -1.6 23 -1.1 4.1 -0.4 4.8 14.6 12.4 14 7.2 19.1 10.9 22.1 16 4.8 8.2 1.9 15.6 -7.4 18.9 -2.6 0.9 -8.8 1.9 -13.8 2.2 -11.4 0.7 -17.2 -0.9 -31.3 -8.4 -7.9 -4.2 -11.7 -5.6 -16 -6 -10.5 -0.9 -16.3 -4.3 -19.4 -11.2 -2 -4.4 -2.1 -6.4 -2.1 -47.6 0 -46.9 0.9 -64.2 5.4 -104.3 1.7 -14.5 3 -27.1 2.9 -28 -0.2 -4.3 -11.8 42.3 -22.9 92.3 -6 27 -6.6 30.9 -8 51 -1.4 20.2 -3.4 32.5 -6.5 39.4 -1.4 2.9 -2.5 5.9 -2.5 6.5 0 2.4 6.9 15.3 11.2 21.1 6.8 9 8.8 13.6 8.8 20 0 10.9 -4.6 16.2 -15 17.4 -19.3 2.3 -39.5 -6.8 -45.5 -20.4 -1.3 -2.8 -3.9 -7 -5.8 -9.3 -2 -2.4 -3.9 -5.9 -4.3 -7.8 -0.8 -4.4 0.5 -20.5 1.8 -22.1 1.5 -1.9 1.3 -8.1 -0.6 -14.8 -2.9 -10.9 -3.8 -33.5 -3.1 -81.5 0.7 -50.6 2 -95.5 3.5 -116 0.5 -7.4 1.2 -20.6 1.6 -29.3 l0.6 -15.8 -2.6 -2 c-1.5 -1.2 -3.7 -4 -4.9 -6.2 -2.1 -4 -2.2 -5.6 -2.5 -31.2 -0.4 -29.4 0.6 -43.9 4.4 -66.7 l2.5 -14.6 -3.6 -6.5 c-4.7 -8.6 -11.4 -28.7 -17.5 -52.5 -4.6 -17.8 -5 -20.2 -5 -31 0 -8.4 -0.6 -14.5 -2.1 -21.2 -3.1 -13.6 -3 -26.8 0 -33.8 4.1 -9.2 11.3 -13.8 35.7 -23 7.2 -2.7 17.7 -7.3 23.3 -10.2 9.7 -5 10.3 -5.5 14.7 -12.3 3.9 -6 4.5 -7.6 4 -10.5 -0.3 -2 -1.8 -4.8 -3.3 -6.4 -2.3 -2.4 -2.9 -4.1 -3.5 -10.1 -0.4 -4 -1 -9.3 -1.4 -11.8 -0.6 -4.5 0.5 -7 3.7 -8.1 1 -0.3 1 -1.2 0.1 -3.8 -1.6 -4.5 -1.5 -14.5 0.2 -20.1 4 -13.1 10.8 -20.7 23.1 -25.8 20.8 -8.7 35.4 -8.1 42.2 1.8 1.7 2.4 3.6 4 4.9 4.1 2.5 0 7.5 5.2 10.2 10.5 3.7 7.5 4.4 13.8 4.5 37 0 23.3 -0.7 27.8 -4.3 29 -1.2 0.4 -2 2 -2.5 5.1 -0.3 2.5 -2.2 7.4 -4 11 l-3.4 6.5 5.2 4 c6.4 5.1 11.6 7.7 26.5 13.5 6.4 2.5 13.6 5.6 15.9 6.9 8.2 4.8 13.4 15.5 14.9 30.4 0.4 4.8 1.1 7.1 2 7.1 1.9 0 5.3 4.8 6 8.7 0.4 1.9 1.3 3.7 2 4 0.8 0.3 2.9 2.6 4.9 5.2 2.9 4.1 3.8 4.7 6.2 4.4 1.9 -0.3 3.7 0.2 5.3 1.5 l2.4 2 5.7 -2.9 c6.4 -3.3 9.4 -3.6 14.7 -1.3 3.2 1.3 7.5 1.4 32 0.8 l28.2 -0.7 0 -7.7 c0 -4.3 0.2 -9.3 0.5 -11.1 0.4 -2.5 0.3 -2.9 -0.3 -1.4 -0.5 1.1 -1.5 5.3 -2.2 9.3 -1.3 8.2 -3.1 9.2 -4.1 2.2 -0.8 -6 0.5 -12.3 4.4 -20.5 3.1 -6.4 3.2 -7.3 2.1 -10 -0.7 -1.6 -1.3 -5.5 -1.2 -8.5 0.1 -3 -0.6 -10.3 -1.6 -16.2 -0.9 -6.2 -1.4 -12.6 -1 -15 1 -6.7 5.3 -14.9 10.4 -19.8 7.3 -7.1 25.4 -18.9 30.1 -19.6 3.2 -0.5 3.8 -0.9 2.5 -1.6 -1.8 -1 -2.2 -3.8 -0.6 -3.8 0.6 0 3.3 1.1 6.1 2.5 l5 2.6 -0.3 -2.8 c-0.4 -4 2.1 -3.6 5 0.7 2.2 3.2 2.7 3.5 7.6 3.6 6.7 0.1 13.3 3.2 17.4 8.3 4.7 5.8 12.8 21.3 16.9 32.1 4.6 12.3 5.4 23.1 2.8 39.9 -1.4 9.6 -1.5 12.4 -0.5 16 1.6 5.8 5.7 9.9 10.9 10.7 4.8 0.8 4.8 2.1 0.1 4.8 -2.7 1.6 -3.9 1.8 -7.1 0.9 -4.2 -1.1 -4.4 -0.8 -3.3 3.5 0.8 2.8 5 5 16.4 8.7 12.1 3.8 21.5 9.1 29.1 16.2 9.9 9.4 12.6 15.7 25.4 60.7 4.2 14.7 8.4 28.9 9.4 31.5 2.3 5.7 1.7 7.1 -4.5 10.7 -4.5 2.6 -4.6 2.8 -4 6.8 2.2 16.2 1.9 21.5 -2.3 40.6 -3.9 17.5 -10.6 39.1 -15.7 50.9 -2.8 6.2 -3 8.1 -0.9 8.1 0.8 0 1.5 0.2 1.5 0.4 0 1.7 -2.3 5.9 -4.8 8.7 -2.9 3.3 -3 3.8 -3.4 14.9 -0.3 10.4 -0.6 12.1 -3.5 18.3 -4.4 9.2 -6.9 12.6 -10.1 13.3 -1.5 0.4 -4.4 2.2 -6.5 4 -2 1.9 -4.5 3.4 -5.6 3.4 -1.7 0 -1.9 1.3 -2.5 18.3 -0.3 10 -0.9 23.8 -1.2 30.7 -0.5 9.1 -0.1 18.1 1.4 33 2.7 26.9 3.7 64.1 2.2 83.5 -1.4 17.6 -2.3 21.9 -5.2 23.9 l-2.1 1.5 2.2 5 c2.8 6.5 2.7 12.9 -0.3 23.8 -1.4 4.8 -2.7 10 -3.1 11.6 -0.7 3.6 -6.7 10.2 -12.2 13.3 -7.6 4.5 -18.9 6.4 -28.3 4.7z m23 -7.4 c3 -1.4 7.9 -4.8 10.8 -7.5 l5.2 -4.9 2 -12 c2.4 -14.6 2.5 -17.3 0.4 -22.5 -1.8 -4.6 -3.8 -5.6 -2.1 -1 0.8 2.2 0.8 4 -0.1 7.2 -0.6 2.4 -1.4 9 -1.7 14.8 -0.7 11.8 -1.4 13.5 -7.7 17.8 -10 6.8 -23.1 9.2 -31.2 5.8 -2.1 -1 -4 -1.5 -4.3 -1.3 -0.5 0.6 4.7 4.3 7.8 5.7 4.2 1.7 14.9 0.7 20.9 -2.1z m-32 -4.4 c0 -0.3 -0.2 -0.5 -0.5 -0.5 -0.3 0 -0.5 0.2 -0.5 0.5 0 0.3 0.2 0.5 0.5 0.5 0.3 0 0.5 -0.2 0.5 -0.5z m-314 -1 c0 -0.3 -0.2 -0.5 -0.5 -0.5 -0.3 0 -0.5 0.2 -0.5 0.5 0 0.3 0.2 0.5 0.5 0.5 0.3 0 0.5 -0.2 0.5 -0.5z m25.2 -2.7 c4.7 -2.7 6.2 -6.3 5.5 -13.4 -0.6 -5.9 -0.7 -6.1 -11.3 -21.7 -4 -5.8 -7.5 -11.9 -7.9 -13.6 -0.4 -1.7 -1.1 -3.1 -1.6 -3.1 -2.2 0 2.3 9.6 10.9 23.5 4.9 7.9 5.6 9.8 6 15.2 0.4 6 0.3 6.4 -3 9.7 -4 4 -9.9 5.3 -16.3 3.7 -10.8 -2.7 -13.4 -3.7 -18.1 -7.2 -6.2 -4.6 -8.9 -7.8 -10.5 -12.7 -0.6 -2 -3 -8.2 -5.2 -13.7 -2.9 -7.1 -4.2 -12.2 -4.7 -17.5 l-0.6 -7.5 -0.8 6 c-1 7 -0.5 9.6 5.5 24.9 4.6 11.9 8.2 17.3 14.7 22.3 4 3 13.6 6.5 20.7 7.6 5.2 0.8 12.8 -0.3 16.7 -2.5z m316.8 -0.4 c4.5 -1.8 6.9 -4.9 5.1 -6.7 -0.7 -0.7 -2.4 -0.3 -5.5 1.4 -4.2 2.2 -4.8 2.3 -9.3 1 -9.5 -2.7 -11.6 -2.6 -9.5 0.5 1.5 2.4 7.9 5.4 11.4 5.4 2.1 0 5.6 -0.7 7.8 -1.6z m-24 -5 c1.2 -3.6 0.8 -6.4 -0.9 -6.4 -1.4 0 -4.4 8.7 -3.7 10.6 0.9 2.3 3.2 0.2 4.6 -4.2z m-333 1.1 c0 -0.3 -0.2 -0.5 -0.5 -0.5 -0.3 0 -0.5 0.2 -0.5 0.5 0 0.3 0.2 0.5 0.5 0.5 0.3 0 0.5 -0.2 0.5 -0.5z m12 -3.6 c-3.6 -1.7 -7.8 -4.1 -9.5 -5.3 -5.3 -4 -6.1 -4 -2.5 -0.1 3.8 4.1 12.1 8.5 16 8.5 1.8 0 0.7 -0.9 -4 -3.1z m351.7 -3.4 c-1.1 -0.7 -2.5 -1.1 -3.3 -0.8 -2.2 0.8 -0.6 2.3 2.4 2.3 2.5 -0.1 2.6 -0.2 0.9 -1.5z m-330.4 -1.7 c0.9 -0.5 1.7 -1.5 1.7 -2.3 0 -1.7 -9.2 -3 -15.5 -2.1 -4.1 0.7 -4.4 0.9 -3.5 2.6 1.9 3.5 12 4.5 17.3 1.8z m319.2 0.1 c1.5 -1.5 -1.3 -2.9 -5.7 -2.9 -4.4 0 -5.9 1.7 -3.2 3.7 2 1.5 7 1.1 8.9 -0.8z m18 0.1 c1.3 -2.1 -2.3 -5.7 -6.7 -6.8 -4.5 -1 -20.8 -0.5 -20.8 0.8 0 0.4 2.8 1 6.3 1.3 3.5 0.3 9.2 1.7 12.8 3.1 7.5 2.9 7.6 2.9 8.4 1.6z m-29.5 -5.3 c0 -0.6 -1.1 0 -2.5 1.3 -1.4 1.3 -2.5 2.8 -2.5 3.3 0 0.6 1.1 0 2.5 -1.3 1.4 -1.3 2.5 -2.8 2.5 -3.3z m-3 -1.2 c0 -0.3 -0.2 -0.5 -0.5 -0.5 -0.3 0 -0.5 0.2 -0.5 0.5 0 0.3 0.2 0.5 0.5 0.5 0.3 0 0.5 -0.2 0.5 -0.5z m36 0 c0 -0.3 -0.2 -0.5 -0.5 -0.5 -0.3 0 -0.5 0.2 -0.5 0.5 0 0.3 0.2 0.5 0.5 0.5 0.3 0 0.5 -0.2 0.5 -0.5z m-354.1 -4.8 c9.2 -3.5 11.9 -6 5.4 -5 -5.3 0.8 -13.8 4.1 -16.5 6.3 l-2.3 1.9 2.5 0 c1.4 0 6.3 -1.4 10.9 -3.2z m352 -7.4 l-0.1 -10.8 -1.4 7.4 c-0.7 4 -1.5 7.6 -1.8 7.8 -0.3 0.3 -2.5 -0.9 -5 -2.7 -4 -2.9 -5.3 -3.3 -12.3 -3.5 -4.3 -0.2 -7 -0.1 -6.1 0.2 0.9 0.2 2 1.3 2.3 2.4 0.5 1.5 1 1.7 2 0.9 0.8 -0.6 1.6 -0.7 1.9 -0.2 0.3 0.5 2.3 1.2 4.4 1.6 2.2 0.3 4.5 1.3 5.2 2.2 1.5 1.8 7.9 5.3 9.8 5.4 0.9 0 1.2 -2.7 1.1 -10.7z m-14.4 8.8 c3.8 -0.6 3.9 -0.8 1.8 -1.9 -3.4 -1.9 -10.4 -1.4 -13.3 0.8 l-2.5 2 5 -0.1 c2.8 0 6.8 -0.3 9 -0.8z m-348.1 -3 c5.5 -3 9.8 -4.5 15.9 -5.6 4.5 -0.7 4.6 -3.2 0.1 -2.7 -7.5 0.9 -22.4 7.7 -22.4 10.2 0 1.5 0.9 1.3 6.4 -1.9z m211.6 2.4 c0 -0.3 -0.2 -0.5 -0.5 -0.5 -0.3 0 -0.5 0.2 -0.5 0.5 0 0.3 0.2 0.5 0.5 0.5 0.3 0 0.5 -0.2 0.5 -0.5z m117 0 c0 -0.3 -0.2 -0.5 -0.5 -0.5 -0.3 0 -0.5 0.2 -0.5 0.5 0 0.3 0.2 0.5 0.5 0.5 0.3 0 0.5 -0.2 0.5 -0.5z m8.4 -3.4 c0.3 -0.5 -0.2 -1.9 -1.2 -3.1 l-1.9 -2.3 -1.6 4.2 c-0.9 2.3 -1.7 4.4 -1.7 4.6 0 0.8 5.8 -2.3 6.4 -3.4z m-362.8 -6.7 l-3.5 -8.9 -0.1 5.1 c0 4.4 0.5 5.8 3.3 9.2 1.7 2.2 3.3 3.8 3.5 3.7 0.1 -0.1 -1.3 -4.2 -3.2 -9.1z m262.9 7.5 c2.2 -0.6 7.2 -2.8 11 -4.9 3.9 -2.1 12.6 -5.5 19.5 -7.5 11 -3.2 20.6 -7.2 19.7 -8.2 -0.2 -0.2 -2.8 0.5 -5.8 1.5 -3 1.1 -9 2.7 -13.4 3.7 -5.4 1.2 -11.8 3.7 -19.8 7.9 l-11.8 6.1 -10.2 -0.1 c-7.5 -0.1 -11.8 -0.7 -16.4 -2.3 -7 -2.4 -8.3 -2.5 -8.3 -1.1 0 1.6 7.5 4.9 13.2 5.9 5.9 1.1 16.1 0.6 22.3 -1z m-248.1 0.3 c0.2 -0.4 -0.2 -1.6 -1 -2.7 -1.3 -1.8 -1.4 -1.8 -1.4 0.8 0 2.5 1.3 3.6 2.4 1.9z m3.6 0.3 c0 -0.3 -0.2 -0.5 -0.5 -0.5 -0.3 0 -0.5 0.2 -0.5 0.5 0 0.3 0.2 0.5 0.5 0.5 0.3 0 0.5 -0.2 0.5 -0.5z m-11.1 -14.9 c-3.1 -6.4 -4.9 -8.9 -4.9 -6.6 0 0.5 1.7 5.4 3.8 10.8 3.4 8.9 3.7 9.4 4 6.1 0.2 -2.5 -0.7 -5.7 -2.9 -10.3z m20.6 7.8 c6.2 -3.1 7.9 -4.3 5.5 -3.9 -1.9 0.4 -5.2 1.6 -7.2 2.6 -7.2 3.6 -8.4 2.8 -14.8 -10 -2.2 -4.5 -4.3 -8.1 -4.5 -7.9 -0.7 0.7 1.5 8.8 3.7 13.6 2.8 6.1 5.6 10.2 7.1 10.2 0.7 0 5.3 -2.1 10.2 -4.6z m354.9 0.4 c-3.4 -5.9 -4.6 -6.8 -8.8 -6.8 -2.3 0 -5.1 0.7 -6.2 1.5 -1.8 1.4 -1.7 1.4 1.6 1.5 1.9 0 5.8 1.1 8.5 2.4 6.1 3 5.8 2.9 4.9 1.4z m2.5 -7 c0.1 -1.3 -0.7 -1.8 -2.4 -1.8 -3 0 -3 0.3 -0.8 4.1 1.5 2.6 1.9 2.7 2.5 1.2 0.3 -1 0.7 -2.6 0.7 -3.5z m-357.8 2.5 c1.8 -0.9 5.7 -1.9 8.6 -2.1 4.8 -0.4 5.1 -0.6 4.2 -2.3 -0.5 -1.1 -2 -1.9 -3.5 -1.9 -4.6 0 -13.4 4.7 -13.4 7.2 0 1.1 0.2 1.1 4.1 -0.9z m203.3 -3.2 c3.7 -3.4 7.3 -5.5 11.7 -7 8.3 -2.8 9.7 -3.7 8.3 -5.1 -2.6 -2.6 -22.2 7.8 -24.9 13.1 -2.8 5.4 -2 5.2 4.9 -1z m22.9 2.1 c5.4 -1.7 5.6 -1.9 3.4 -2.9 -1.7 -0.8 -3.2 -0.7 -5.8 0.4 -2.4 1.1 -5.3 1.3 -10.1 0.9 -4.4 -0.4 -6.8 -0.3 -6.8 0.4 0 3.2 10.8 3.8 19.3 1.2z m21.2 -0.2 c0.8 -1.3 -4.2 -4.3 -6 -3.6 -1.3 0.4 -1.4 1 -0.5 2.6 1.1 2.1 5.4 2.8 6.5 1z m-135.8 -0.6 c-0.3 -0.3 -1.2 -0.4 -1.9 -0.1 -0.8 0.3 -0.5 0.6 0.6 0.6 1.1 0.1 1.7 -0.2 1.3 -0.5z m221.3 -1.9 c0 -0.3 -0.2 -0.5 -0.5 -0.5 -0.3 0 -0.5 0.2 -0.5 0.5 0 0.3 0.2 0.5 0.5 0.5 0.3 0 0.5 -0.2 0.5 -0.5z m2 0 c0 -0.3 -0.2 -0.5 -0.5 -0.5 -0.3 0 -0.5 0.2 -0.5 0.5 0 0.3 0.2 0.5 0.5 0.5 0.3 0 0.5 -0.2 0.5 -0.5z m29 0 c0 -0.3 -0.2 -0.5 -0.5 -0.5 -0.3 0 -0.5 0.2 -0.5 0.5 0 0.3 0.2 0.5 0.5 0.5 0.3 0 0.5 -0.2 0.5 -0.5z m-361.9 -2.5 c2.4 -1.1 5.6 -2 7.2 -2 2.9 0 3.6 -2 1.4 -3.9 -3.3 -2.7 -19.3 3.5 -17.3 6.7 1 1.7 3.8 1.5 8.7 -0.8z m131.6 -0.8 c5.6 -2.9 8.4 -7.8 4.4 -7.8 -1 0 -1.8 0.7 -1.7 1.6 0.1 0.8 -1.8 2.5 -4.4 3.8 -3.5 1.7 -6.1 2.2 -12.6 2.2 -11.7 0 -21.9 -2.9 -33.6 -9.6 -5.4 -3.1 -13.2 -6.7 -17.4 -8 -4.1 -1.2 -9.1 -3.2 -11 -4.3 -4.5 -2.7 -5.3 -2.6 -2.6 0.2 2.5 2.6 6.3 4.6 15.2 8.1 3.6 1.4 11 5 16.5 8.1 14.1 7.8 16.7 8.5 31 8.2 10.1 -0.2 12.7 -0.6 16.2 -2.5z m100.1 -0.1 c-1.3 -1.6 -3.3 -3.1 -4.5 -3.4 -3.6 -0.7 -2.7 1.6 1.7 4.6 4 2.7 5.5 2.1 2.8 -1.2z m122.3 0.8 c3.8 -0.7 7.3 -1.7 7.8 -2.3 1.9 -2.3 3.1 -22.5 3.1 -53 0 -24.7 -0.4 -34.6 -2 -48.1 -3.2 -26.9 -3.5 -37.9 -1.6 -57 2.3 -24.2 2.4 -29.4 0.7 -30 -0.8 -0.3 -2.2 0.2 -3.2 1.1 -3.6 3.2 -9.9 1.1 -9.9 -3.3 0 -0.7 1.8 -5.3 4 -10.2 2.2 -4.9 4 -9.2 4 -9.7 0 -0.4 -1.2 0.4 -2.7 1.8 -3.8 3.5 -6.7 4.3 -8.7 2.3 -2.3 -2.4 -2 -5.1 1.3 -10.9 1.6 -2.8 3.6 -7.5 4.5 -10.5 2.1 -7.2 3.6 -9.3 10 -14 9.4 -7 9 -5.9 8.2 -20.1 -0.4 -6.9 -1.4 -17.1 -2.2 -22.7 l-1.6 -10.1 -4.8 5.6 c-8.1 9.6 -24.1 24 -32.1 29 -2.8 1.7 -3.8 3.1 -4.4 6 -1 5.4 -6.3 14.8 -11.1 19.8 -7.8 8 -19.3 9.1 -43.4 4.4 -15.7 -3.1 -22 -6.9 -25.8 -15.7 -2.1 -5 -7.2 -28.4 -7.2 -33.2 0 -1.5 -1.5 -5.5 -3.4 -9 l-3.3 -6.3 -2.4 9.4 c-2.8 11.3 -3 26.5 -0.5 45.8 0.9 6.9 2.1 23.1 2.6 36 1.7 39.1 3 59 4.4 68.5 1.3 8.5 4.8 19.9 6.7 22 1.1 1.2 1.2 3.5 0.1 3.5 -0.5 0 -1.4 -1 -2.1 -2.2 -0.9 -1.9 -1 -0.6 -0.6 6.7 0.2 5 0.8 20.7 1.1 35.1 0.7 24.6 0.6 26.4 -1.4 33 -2.7 9.1 -3.5 13.8 -2.8 16.2 0.7 2 7.1 5 15.1 7.1 5.4 1.4 18.2 1.2 22.5 -0.3 4.3 -1.6 4.6 -2.7 5.4 -24.5 0.4 -9.1 1.1 -24.2 1.7 -33.6 0.5 -9.3 1.4 -26 1.9 -37 0.6 -13.2 1.8 -24.8 3.5 -34 2.9 -16.1 5.5 -36.8 5.5 -43.9 l0 -5 -10.5 10.5 c-5.8 5.7 -11.2 10.6 -12.2 10.8 -0.9 0.1 3.3 -4.6 9.4 -10.5 11.2 -11.1 15.4 -16.5 11.7 -14.9 -3.5 1.5 -16.9 5.3 -21.1 6 -6.5 1 -5.2 -1 1.5 -2.4 3.1 -0.7 8.2 -2 11.2 -3 l5.5 -1.7 -5.8 -2.7 c-6.7 -3 -14.6 -8.9 -12.8 -9.5 0.6 -0.2 2.6 0.9 4.4 2.4 3.9 3.3 12.3 7.2 17.5 8 l3.9 0.6 4.1 12.7 c2.3 6.9 4.6 14.4 5.2 16.6 1.5 5.9 10.7 46.4 11.4 50.5 1.4 8.4 4.7 41.8 6.1 62.7 1.8 26.3 4.7 51 6.4 54.1 2.1 4 13.6 5.3 27.2 3.1z m-109.1 -0.6 c0 -1.2 -3.3 -4.3 -4.7 -4.3 -2 0 -1.6 1.7 0.9 3.4 2.4 1.7 3.8 2 3.8 0.9z m-9.2 -2.7 c-1 -2.4 -3.6 -4.1 -4.6 -3.2 -0.8 0.9 2.8 5.6 4.3 5.6 1.2 0 1.2 -0.5 0.3 -2.4z m133 -0.9 c3.8 -4.5 4.8 -70 1.5 -97.7 -1.9 -16.4 -2.2 -39.8 -0.9 -69.9 l0.9 -20.3 -2.1 1.1 c-1.6 0.8 -2.2 2.4 -2.6 6.3 -4.3 45.7 -4.3 47.8 -0.5 80.7 1.9 15.6 2 21.5 1.6 56 -0.3 21.2 -0.8 40.1 -1.2 41.9 -0.6 2.5 -0.4 3.2 0.8 3.2 0.8 0 1.9 -0.6 2.5 -1.3z m-83.1 -9.8 c-0.9 -5.5 -1.2 -6 -2.4 -4.3 -1.3 1.8 -1.8 8 -0.7 10.8 0.4 1.1 1.1 1.3 2.3 0.6 1.6 -0.8 1.7 -1.6 0.8 -7.1z m-283.4 5.6 c4.2 -0.8 8.8 -2.2 10.1 -3 5.4 -3.6 8 -14 10.1 -40.6 0.8 -10.7 2 -22.5 2.6 -26.4 2.7 -18.8 27.5 -122.3 32 -134.3 2.4 -6.3 2.5 0.9 0.3 20.8 -4.5 41.8 -5.4 50.7 -6.4 68.1 -0.6 9.7 -1.2 31.5 -1.3 48.5 -0.2 34.9 -0.2 35.3 7 37.3 4.8 1.4 22.6 1.4 31.8 0.1 10.9 -1.6 10.7 -1.3 11.7 -24.7 1.3 -32.1 2.6 -47.4 6.3 -73.8 4.2 -29.7 5.4 -36.4 10.5 -59.6 2.2 -9.6 4.9 -23.8 6 -31.5 2.1 -13.7 6.6 -39.3 7.6 -42.6 0.4 -1.5 -0.1 -1.6 -4.6 -1.1 -4 0.5 -5.4 0.2 -7.1 -1.2 -2.8 -2.7 -5.7 -9.6 -8.2 -20 l-2.1 -9 -0.8 5.5 c-0.5 3 -1.5 9.6 -2.4 14.6 -2.5 14.6 -8.1 22.4 -18.8 26 -2.5 0.9 -4.6 2.1 -4.6 2.8 0 0.7 -3.1 11.1 -6.9 23.1 -7.5 23.9 -12.6 41.8 -13.7 47.8 -0.6 3.8 -2.4 5.2 -2.4 1.9 0 -2.9 4.8 -20.6 10.7 -39.2 6.7 -21.3 10.5 -34.2 10.1 -34.4 -0.2 0 -10 0.1 -21.8 0.4 l-21.5 0.5 -0.3 5 c-0.1 2.8 -1.3 13.1 -2.7 23 -1.3 9.9 -3.2 24.1 -4 31.5 -0.9 7.4 -1.8 14.3 -2.1 15.3 -0.9 2.8 -2.6 2 -2 -1 0.3 -1.6 1.7 -11.8 3.1 -22.8 1.4 -11 3.2 -24.7 4 -30.5 0.8 -5.8 1.5 -12.8 1.5 -15.7 l0 -5.1 -7.7 -0.7 c-20.3 -1.7 -40.8 -6.2 -50.5 -11.1 -5.9 -3 -6.4 -1.4 -1.2 3.7 5.3 5 11.7 12.9 11.1 13.5 -0.3 0.3 -3.7 -2.7 -7.6 -6.8 -6.5 -6.7 -7 -7.1 -7.1 -4.6 0 1.8 1.8 4.7 5.5 9.1 3 3.5 5.5 6.7 5.5 7.1 0 1.7 -2 0.1 -6.2 -4.9 l-4.6 -5.5 -0.7 6.1 -0.7 6.1 5.9 6.2 c10.2 10.7 12.7 13.6 11.6 13.6 -0.5 0 -4.7 -3.7 -9.1 -8.2 -7.7 -7.8 -8.2 -8.1 -8.2 -5.5 0 2.3 2.6 5.6 13.2 16.8 13.3 13.9 15.7 16.9 14 16.9 -0.6 0 -6.7 -6.3 -13.8 -14 -7 -7.6 -13.1 -13.7 -13.6 -13.4 -2.2 1.4 -0.2 5.5 6.3 12.9 10.5 11.9 13 15.3 12.1 15.9 -0.5 0.3 -4.9 -4.3 -9.8 -10.1 l-8.9 -10.5 -0.3 4.2 c-0.3 3.9 0.1 4.8 7.8 14.1 4.5 5.5 8 10.5 7.8 11 -0.2 0.6 -4 -3.2 -8.3 -8.6 l-8 -9.7 -0.3 3.6 c-0.3 3.9 -0.2 4.1 11.2 17 3.2 3.7 5.6 7 5.2 7.4 -0.4 0.4 -1.9 -0.6 -3.3 -2.3 -1.5 -1.6 -5 -5.6 -7.8 -8.9 -4.9 -5.5 -5.3 -5.7 -5.7 -3.4 -0.4 1.9 0.8 3.8 5.4 8.8 3.2 3.4 5.6 6.5 5.3 6.8 -0.3 0.3 -3 -1.9 -6 -4.8 l-5.5 -5.4 0 3.7 c0 2.9 0.7 4.3 3.2 6.6 1.8 1.6 3 3.3 2.5 3.7 -0.4 0.4 -1.8 -0.3 -3.1 -1.5 l-2.4 -2.2 -0.8 28.8 c-1.3 48.3 -0.9 108.3 0.9 119 2.6 16.1 6.8 21.4 18.7 23.9 7.3 1.6 7.3 1.6 16.3 -0.1z m227.2 0.5 c0.9 -1.5 -4.4 -4.5 -5.7 -3.2 -0.8 0.8 -0.8 1.5 0.2 2.7 1.4 1.7 4.6 2 5.5 0.5z m8.7 -2.5 c-1.7 -1.4 -3.4 -2.5 -4 -2.5 -0.5 0 -1.5 -0.7 -2.2 -1.5 -1.4 -1.7 -3 -1.1 -3 1.1 0 2 5.9 5.4 9.3 5.4 l2.9 0 -3 -2.5z m14.8 0.5 l3.5 -1.9 -3.1 -0.1 c-1.8 0 -4.2 0.9 -5.5 2 -2.3 1.8 -2.3 1.9 -0.4 1.9 1.1 0 3.6 -0.8 5.5 -1.9z m-140.7 -1 c0.3 -1.1 0.1 -2 -0.4 -2 -0.4 0 -1.3 0.9 -1.9 2 -0.8 1.6 -0.8 2 0.3 2 0.8 0 1.7 -0.9 2 -2z m14.1 1.1 c1 -1.5 -2.2 -3.3 -6.9 -3.9 -4 -0.4 -4.5 -0.2 -4.5 1.5 0 1.1 0.3 2.3 0.7 2.6 1 1 10.1 0.8 10.7 -0.2z m121.6 -3.3 c0 -0.5 -0.9 -0.8 -2 -0.8 -1.3 0 -2 0.7 -2 2 0 1.8 0.2 1.9 2 0.8 1.1 -0.7 2 -1.6 2 -2z m-149 0.3 c0 -0.4 -2.1 -2 -4.7 -3.5 -2.7 -1.5 -7 -4.3 -9.7 -6.2 -3.2 -2.3 -6 -3.4 -8.3 -3.4 -4.5 0 -3.9 1.9 1.1 3.6 2.1 0.8 6.1 3.1 8.9 5.1 7 5.2 12.7 7.2 12.7 4.4z m8.4 0 c0.9 -1 3.4 -2.6 5.6 -3.6 4.1 -1.8 5.2 -3.5 2.5 -3.5 -2.9 0 -8 2.7 -10.9 5.9 -2.7 2.8 -2.8 3.1 -0.9 3.1 1.1 0 2.7 -0.8 3.7 -1.9z m29.6 1.2 c0 -1.9 -5.7 -7.6 -10.9 -10.7 -6.8 -4.1 -7.1 -4.2 -7.1 -1.8 0 1 1.8 3 4.3 4.5 2.3 1.5 5.8 4.1 7.7 5.7 3.3 2.8 6 3.8 6 2.3z m105 -1.2 c0 -1.9 -6.7 -6.7 -7.8 -5.6 -0.6 0.6 5.8 7.5 7 7.5 0.4 0 0.8 -0.9 0.8 -1.9z m-113 -0.6 c0 -0.3 -0.2 -0.5 -0.5 -0.5 -0.3 0 -0.5 0.2 -0.5 0.5 0 0.3 0.2 0.5 0.5 0.5 0.3 0 0.5 -0.2 0.5 -0.5z m-30 -3 c0 -0.3 -0.2 -0.5 -0.5 -0.5 -0.3 0 -0.5 0.2 -0.5 0.5 0 0.3 0.2 0.5 0.5 0.5 0.3 0 0.5 -0.2 0.5 -0.5z m7.5 -3.5 c2.5 -2.6 2.6 -3 1.1 -3.6 -1.9 -0.7 -6.6 3 -6.6 5.3 0 2.2 2.5 1.5 5.5 -1.7z m177.4 -2.8 c3.5 -8.9 6.7 -57.3 5.8 -88.7 -0.6 -20.7 -0.4 -22.7 3.2 -36 1.2 -4.5 2.6 -14.1 3.2 -21.8 0.9 -12.3 0.9 -14.3 -0.8 -19 l-1.8 -5.2 -0.8 11.5 c-0.4 6.3 -2.3 21 -4.3 32.5 -2.6 15.8 -3.7 26.2 -4.4 42 -0.6 11.6 -1.4 28.4 -1.9 37.5 -0.6 9.1 -1.3 24.3 -1.7 33.8 -0.6 15.2 -0.5 17.2 0.9 16.6 0.8 -0.3 2 -1.7 2.6 -3.2z m-184.5 -1.3 c1.4 -1.1 2.6 -2.7 2.6 -3.5 0 -1.3 -0.4 -1.3 -2.8 0 -1.5 0.8 -3.6 2.3 -4.6 3.5 -1.9 2.1 -1.9 2.1 0.1 2.1 1.1 0 3.2 -0.9 4.7 -2.1z m-3.4 -3.8 c1.9 -1.6 3.2 -3.2 2.8 -3.6 -1 -1 -6.6 2.3 -7.8 4.5 -1.6 3 0.8 2.5 5 -0.9z m8 2.4 c0 -0.3 -0.2 -0.5 -0.5 -0.5 -0.3 0 -0.5 0.2 -0.5 0.5 0 0.3 0.2 0.5 0.5 0.5 0.3 0 0.5 -0.2 0.5 -0.5z m12.5 -0.5 c0.5 -0.8 -6.2 -5 -8 -5 -1.7 0 -0.1 3.2 2.3 4.4 3.2 1.8 4.9 2 5.7 0.6z m-48.6 -2.2 c-1.5 -3 -4 -5.8 -5.1 -5.8 -1.6 0 -0.8 2.7 1.7 5.4 3 3.3 5 3.5 3.4 0.4z m-14.5 -2.2 c0.3 -1.4 0.1 -3.7 -0.5 -5.3 -0.9 -2.5 -1.1 -2.6 -2.1 -1 -1.1 2 -0.2 8.7 1.1 8.7 0.5 0 1.2 -1.1 1.5 -2.4z m18.6 1 c0 -1.6 -2.6 -4.6 -4.1 -4.6 -1.3 0 -1.1 0.8 0.9 3.5 1.9 2.8 3.2 3.2 3.2 1.1z m19.1 -1.1 c3.2 -1.7 3.1 -3.5 -0.2 -3.5 -2.9 0 -5.9 1.8 -5.9 3.5 0 1.9 2.3 1.9 6.1 0z m14.9 -1.4 c0 -1.1 -5 -4.4 -5.7 -3.8 -0.2 0.3 0.2 1.4 0.9 2.6 1.3 2.1 4.8 3 4.8 1.2z m-19 -3.6 c0 -0.3 -0.2 -0.5 -0.5 -0.5 -0.3 0 -0.5 0.2 -0.5 0.5 0 0.3 0.2 0.5 0.5 0.5 0.3 0 0.5 -0.2 0.5 -0.5z m273.3 -158.4 c3 -3.3 7.7 -13.2 7.7 -16.1 0 -0.6 0.5 -1 1.1 -1 1.7 0 0.3 5.4 -3.1 12.2 -3.5 6.9 -3.5 6.8 -1.1 6.8 2.7 0 8.2 -6.6 11.1 -13.2 2.4 -5.4 4 -7.3 4 -4.5 -0.1 1.8 -3.6 9.4 -6 12.7 -2.3 3.2 -1.2 4.7 1.9 3 3.2 -1.7 6.9 -7.2 8.2 -12.3 1.3 -4.7 2.9 -6.3 2.9 -2.8 0 1 -0.7 3.5 -1.5 5.5 -1.3 3.1 -1.3 3.6 -0.1 3.6 2.6 0 8.6 -9.8 11 -18.1 1 -3.1 1.6 -9.1 1.6 -14.7 l0 -9.4 -3.5 0.6 c-4.4 0.9 -8.9 -1.4 -11.5 -5.7 -1.1 -1.7 -3.4 -3.8 -5.1 -4.7 l-3.2 -1.7 -5.2 5.1 c-2.9 2.8 -7.3 6.9 -9.8 9.1 -3.8 3.3 -4.8 5.2 -6.6 11.2 -1.2 4 -2.6 7.5 -3.1 7.8 -0.6 0.4 -0.2 1.7 1 3.2 1.9 2.5 1.9 2.7 0.4 5.2 l-1.7 2.6 2.8 -2.5 c3.3 -3 5 -6.3 5.9 -11.2 0.4 -2.1 1.2 -3.8 1.8 -3.8 2.9 0 -1.2 16 -7.9 30.8 -0.3 0.7 0 1 0.9 0.7 1.5 -0.6 5.6 2 4.7 2.9 -0.3 0.4 -1.9 0.2 -3.4 -0.4 -3.1 -1.2 -4 -0.8 -3.2 1.5 1.1 2.8 5.3 1.7 9 -2.4z m-11.3 -18.6 c0.7 -0.8 0.9 -2.3 0.5 -3.2 -0.6 -1.7 -0.7 -1.7 -2.1 0.1 -2.6 3.6 -1.2 6.4 1.6 3.1z m-43.1 -21 c4.1 -2.1 10.6 -9.5 13.6 -15.2 2.8 -5.4 4.3 -15 3.1 -19.7 -0.6 -2.3 -0.9 -2.4 -3.2 -1.4 -1.8 0.8 -2.3 1.6 -1.7 2.7 1.3 2.7 0.5 11.3 -1.1 12.9 -1.2 1.3 -1.8 1.3 -3 0.2 -1.8 -1.4 -2 -5 -0.7 -9.6 l0.9 -3.2 -5.7 2.3 c-3.1 1.3 -8.4 2.9 -11.9 3.5 -15.1 3 -40.4 -3.1 -52.9 -12.6 -4.1 -3.1 -4.1 -3 -0.7 12.4 3 13.6 4 15.8 8.8 20 5.3 4.7 12.4 6.5 36.1 9.6 5.1 0.7 15.6 -0.4 18.4 -1.9z m91.5 -12.4 c1 -0.9 2.7 -3.3 3.8 -5.4 1.8 -3.6 1.8 -4 0.3 -5.7 -2 -2.2 -7.6 -5 -10 -5 -0.9 0 -3 1.3 -4.6 2.9 -5 5.1 -3.4 13 3.1 15.4 2 0.7 5.1 -0.2 7.4 -2.2z m6.8 -3.4 c2 -3.8 0 -2.6 -2.7 1.5 -2.4 3.7 -2.5 4 -0.6 2.3 1.3 -1.1 2.7 -2.8 3.3 -3.8z m-21.9 -5.4 c0.2 -1 0.8 -2.5 1.1 -3.3 0.5 -1.1 -0.5 -2.3 -3.4 -3.9 -4.3 -2.4 -4.2 -2.4 -5.4 3.1 -0.5 2.3 -0.1 3 2.1 4.2 3.7 2 5 2 5.6 -0.1z m-297.2 -2.2 c14 -4.4 18.5 -14.7 20.9 -47.7 l1.1 -15.5 -2.5 -2 c-1.4 -1.1 -2.6 -2.6 -2.6 -3.2 0 -0.7 -1.3 -1.9 -2.9 -2.9 -1.9 -1 -3.3 -2.9 -4 -5.2 -0.5 -2 -2 -4.5 -3.3 -5.5 l-2.3 -1.9 -3.5 6.4 c-1.9 3.6 -5.5 8.5 -7.9 10.9 -4 4.2 -4.6 4.4 -6.5 3.2 -2.3 -1.6 -5.3 -3.2 -48.6 -27.7 -33.6 -19 -40.6 -23.6 -49.1 -32.1 -3.2 -3.2 -6.1 -5.5 -6.3 -5 -0.3 0.4 -1.7 8.6 -3.2 18.2 -2.2 15 -2.7 21.7 -3.1 48.3 -0.6 35.9 -0.2 39.7 5.5 45.4 8 8 28.7 14.5 54.6 17.2 11.5 1.2 59.3 0.5 63.7 -0.9z m231.4 -3.1 c0.8 -4.8 -0.6 -8 -1.6 -3.5 -1 4.6 -1 7.5 0 7.5 0.5 0 1.2 -1.8 1.6 -4z m93.6 -15.3 c3.1 -8.9 3.6 -10.9 2.4 -11.4 -2.2 -0.8 -1.8 -2.5 0.4 -1.8 1.6 0.5 2.2 -0.5 4.1 -7.6 3.3 -12.3 3.6 -14.9 1.6 -14.9 -0.9 0 -1.6 -0.5 -1.6 -1.1 0 -0.6 0.9 -0.9 1.9 -0.6 1.4 0.3 2 -0.2 2.4 -1.9 0.3 -2 0 -2.4 -1.9 -2.4 -3.3 0 -3 -1.8 0.3 -2.2 2.4 -0.3 2.9 -0.9 4 -5.3 1.5 -6.6 1.6 -17.8 0.1 -25.1 -0.6 -3.2 -1.2 -6 -1.3 -6.2 -0.1 -0.1 -3.6 1.1 -7.7 2.7 -10 4.1 -18.2 6.1 -24.1 6.1 -4.3 0 -4.8 0.2 -4.2 1.8 2.8 7.3 2.9 10.1 0.7 18.9 -2.8 11.1 -3.9 17.9 -5.3 32.2 -0.6 6.3 -1.9 14.9 -3 19 -1 4.1 -1.9 7.8 -1.9 8.2 0 0.5 1.8 2 4 3.4 3.8 2.4 4.2 2.4 6.3 1 3.2 -2.2 6.8 -1.8 11.7 1.4 l4.5 2.8 1.4 -3.1 c0.7 -1.7 3 -8 5.2 -13.9z m-31.1 -12.7 c3.2 -25.7 4.4 -33.1 6.1 -38.5 2.3 -7.4 2.3 -8.5 0.2 -15.5 -1.4 -4.7 -2.2 -5.9 -4.7 -6.8 -1.7 -0.7 -3.3 -0.8 -3.7 -0.4 -0.4 0.4 -1.7 3.6 -2.9 7.1 -1.7 5.1 -2 7.7 -1.5 12.7 0.8 7 -0.4 12.1 -3.5 14.9 -2.6 2.4 -2.6 9.6 -0.1 24.7 1.1 6.2 2.3 15.8 2.7 21.3 l0.7 10 2.8 -10.5 c1.6 -5.8 3.4 -14.3 3.9 -19z m-73.5 22.3 c9.1 -3.3 16.4 -7.4 15.8 -8.9 -0.3 -0.8 -2.3 -0.1 -6.2 2.2 -7.1 4.2 -16.7 6.4 -28.6 6.4 -15.7 0 -27.7 -3.7 -41.4 -12.9 -7.1 -4.7 -8.2 -3.3 -1.9 2.4 7.2 6.5 22.2 12.2 36.8 13.9 6.9 0.8 18.5 -0.6 25.5 -3.1z m27.2 -1.6 c7.4 -5.5 23.4 -20.7 28.5 -27 2.1 -2.7 3.8 -5.9 3.8 -7.3 l0 -2.3 -4.5 3 c-2.5 1.7 -4.5 3.4 -4.5 3.9 0 1.4 -26.2 15.9 -33 18.2 -0.6 0.2 -0.4 2.3 0.5 5.2 0.8 2.7 1.5 6.2 1.5 7.8 0 1.5 0.4 2.8 0.9 2.8 0.5 0 3.5 -1.9 6.8 -4.3z m-33.8 -1.7 c6.9 -1 18.9 -6.2 19.8 -8.7 1.3 -3.3 -1.5 -3.8 -26 -4.4 l-24.2 -0.5 -10.7 -3.7 c-5.8 -2 -11.3 -3.7 -12 -3.7 -2.1 0 -6.5 4.9 -5.2 5.8 6.5 4.4 16.7 10.4 19.9 11.6 10.4 4.2 25.2 5.5 38.4 3.6z m-165.3 -6.9 c3.4 -1.6 6.4 -3.7 6.9 -4.7 0.4 -1.1 1.1 -9.1 1.6 -17.9 1.2 -22.9 1.1 -25.5 -0.4 -25.5 -0.7 0 -3.9 2.5 -7 5.5 -4.4 4.2 -6.4 5.5 -8.7 5.5 -3.2 0 -9 -2.5 -9 -3.9 0 -0.7 -7.1 -3.3 -7.6 -2.8 -0.5 0.5 -0.7 12.4 -0.2 13.3 0.3 0.5 1.8 5.8 3.2 11.8 5.5 22.5 8.2 24.9 21.2 18.7z m204.2 -12.3 c6.2 -3.3 11.2 -6.2 11 -6.4 -0.2 -0.2 -3.1 0.5 -6.3 1.5 -3.3 1 -10.3 2.4 -15.5 3.1 -5.2 0.6 -10.8 1.5 -12.5 2 -2.9 0.9 -13.9 0.7 -36.5 -0.4 -14 -0.8 -27.7 -5.1 -37.2 -11.8 -2.9 -2.1 -3.2 0 -0.4 3.3 1.8 2.2 5 4 9.4 5.6 19.4 6.9 17 6.5 43.4 7.2 18 0.4 25 0.9 26 1.9 2 2 6.1 0.6 18.6 -6z m-97.2 -0.9 l2.3 -2.2 -4.2 -4.8 c-2.3 -2.7 -5 -6.3 -5.9 -8.1 l-1.8 -3.3 0 4.1 c0 3.8 5.2 16.4 6.8 16.4 0.3 0 1.6 -1 2.8 -2.1z m66 -2.4 c-0.3 -1.1 -0.6 -2.7 -0.6 -3.6 0 -1.3 -1.9 -1.8 -9.5 -2.5 l-9.5 -0.9 0 4.2 c0 4 0.2 4.2 3.3 4.6 1.7 0.2 6.3 0.4 10 0.3 6.3 0 6.8 -0.2 6.3 -2.1z m6 1 c1 -2.4 -0.5 -8.5 -2.1 -8.5 -2.1 0 -2.6 1.5 -1.9 5.9 0.7 4.2 2.9 5.6 4 2.6z m-28.1 -5 c0 -4.3 -0.3 -5 -2.1 -5.3 -2.3 -0.3 -3.4 1.9 -3.4 6.9 0 3.2 0.8 4.1 3.5 3.7 1.7 -0.3 2 -1 2 -5.3z m-7.3 0 c0.3 -4.4 0.3 -4.5 -3.1 -5.1 -1.9 -0.4 -4 -0.3 -4.7 0.2 -0.6 0.5 -2.6 1.9 -4.3 3.2 l-3.1 2.3 -2.9 -4.7 c-2.4 -3.8 -4.2 -5.1 -8.8 -7.1 -3.2 -1.3 -6.2 -2.5 -6.7 -2.6 -1 -0.2 -2.8 5.3 -2.2 6.8 0.6 1.6 14.5 8.3 20.7 9.9 3 0.8 7.5 1.5 10 1.5 l4.7 0.1 0.4 -4.5z m60.8 1.4 c9.2 -2.2 12 -3.9 12 -7.7 0 -1.9 -0.4 -2.3 -1.7 -1.6 -3.3 1.4 -18.7 4.4 -26 5 l-7.3 0.7 0 3.5 0 3.5 7.3 -0.7 c4 -0.3 11.1 -1.5 15.7 -2.7z m16.8 -8.2 c-0.2 -2.8 -0.8 -4.3 -1.9 -4.5 -1.2 -0.2 -1.5 0.8 -1.5 5.2 0.1 4.9 0.3 5.3 1.9 4.4 1.4 -0.7 1.7 -1.9 1.5 -5.1z m-85 -2.2 c3.7 -4 6.6 -8 7.3 -10.4 1.1 -3.8 1.1 -4.1 -1.8 -6.5 -5.2 -4.4 -20.4 -21.4 -19.5 -22 0.4 -0.2 5.6 4.7 11.5 11 6 6.4 10.9 10.9 11.1 10.2 1.4 -4.3 4 -31.2 5.1 -53.3 l0.6 -12 -8.7 -13.8 c-4.8 -7.6 -9.1 -13.4 -9.6 -12.9 -0.5 0.5 -1.3 3.6 -1.9 6.9 l-1.1 6.1 9.2 12.3 c9.4 12.4 10.9 14.9 9.3 14.9 -0.4 0 -4.6 -5.2 -9.3 -11.5 -4.6 -6.3 -8.7 -11.5 -9 -11.5 -0.3 0 -1.2 4.8 -1.8 10.8 -0.7 5.9 -1.5 11.9 -1.9 13.5 -0.4 1.9 -0.1 2.7 0.8 2.8 0.8 0 3.7 2.8 6.4 6.2 2.8 3.3 7.1 8.7 9.8 11.8 2.6 3.2 4.3 6 3.8 6.3 -0.4 0.3 -5.3 -4.8 -10.7 -11.4 -5.4 -6.6 -10.1 -12 -10.4 -12 -0.3 0 -1.8 5.9 -3.3 13 -3.4 15.3 -4.4 12.4 10.2 29.2 5.5 6.4 10.1 11.9 10.1 12.2 0 1.9 -2.8 -0.7 -12.5 -12 -12.4 -14.4 -12.6 -14.4 -12.9 -0.4 -0.1 7.3 0 7.7 5.7 18.3 3.2 5.9 6.2 10.7 6.6 10.7 0.5 0 3.6 -2.9 6.9 -6.5z m36.2 4.6 c2.2 -0.6 1.9 -0.8 -2 -1.5 -2.5 -0.4 -7.6 -1.6 -11.4 -2.7 -8 -2.4 -16.9 -2.8 -19.2 -0.8 -1.5 1.2 -1.3 1.4 1.2 2.1 1.6 0.5 4.1 0.5 5.6 0.2 1.5 -0.3 3.7 0 5 0.7 1.3 0.7 5.2 1.6 8.8 1.9 8.5 0.9 9.1 0.9 12 0.1z m30.4 -2.6 c8.2 -1.7 13.2 -3.3 12.5 -4 -0.3 -0.2 -3.8 0.4 -7.9 1.5 -4.1 1 -12.3 2.1 -18.2 2.5 -7.1 0.5 -10.6 1.1 -10.2 1.7 0.9 1.4 13.4 0.4 23.8 -1.7z m25.9 -1.9 c1.6 -1.2 2.7 -2.9 2.7 -4.3 l0 -2.4 -4 2.3 c-3.2 1.8 -4 2.9 -4 5.1 0 3 0.2 3 5.3 -0.7z m-123 -0.3 c1.6 -5.8 1.6 -7.2 0.1 -8.7 -0.8 -0.9 -2 -1.6 -2.5 -1.6 -1 0 -1.2 7.9 -0.3 10.4 0.8 2.1 2.1 2 2.7 -0.1z m74.2 0.8 l3 -0.7 -3.2 -0.8 c-3.7 -0.8 -5.4 -2.6 -2.6 -2.6 1 0 3.6 0.7 5.8 1.5 5.6 2 13.6 1.8 23.3 -0.5 4.6 -1.1 10.4 -2 13 -2 3.4 0 6 -0.8 9.9 -3.2 6.8 -4.1 8.7 -8.3 7.8 -17.7 -0.6 -5.6 -0.3 -7.7 1.9 -13.7 3.2 -8.7 3.2 -8.6 0.2 -16 -1.2 -3.2 -2.6 -6.7 -3 -7.8 -0.5 -1.5 -2.1 0.4 -7.6 9.1 -6.5 10.3 -11.3 16.3 -9.8 12.2 0.4 -0.9 4.1 -7 8.4 -13.5 l7.7 -11.9 -2.2 -9 c-1.2 -4.9 -2.9 -9.9 -3.7 -11 -3 -3.9 -10.5 -19.7 -10.2 -21.3 0.3 -1 2 1.6 4 6 6 12.9 6.3 13 6.5 3 0 -4.8 0.8 -12.1 1.7 -16.2 1.9 -9 7.2 -24.7 9.2 -27.4 2.5 -3.5 2.5 -1 0 4.5 -7.4 16.1 -10.4 39 -7.1 54.9 2.6 12.9 9.2 32.3 11.8 35.2 5 5.4 21.6 4.3 37.1 -2.6 7.7 -3.4 17.6 -9.5 17.6 -10.8 0 -0.5 -2.1 -7.4 -4.6 -15.3 l-4.6 -14.3 -5.3 5.6 c-2.9 3.1 -5.6 5.4 -6 5.1 -0.3 -0.4 1.9 -3.4 5 -6.7 3.8 -4.1 5.5 -6.8 5.3 -8.2 -0.2 -1.7 -1.8 -0.3 -8.3 6.9 -4.4 4.9 -8.6 9 -9.4 9 -1.4 0.1 1.4 -3.4 11 -13.6 5 -5.3 5.7 -6.5 5 -8.8 -0.6 -2.6 -1 -2.4 -8.6 7 -4.3 5.4 -8.1 9.2 -8.3 8.6 -0.2 -0.7 1.4 -3.4 3.7 -6.2 2.3 -2.7 6 -7.2 8.3 -9.9 2.9 -3.5 3.8 -5.4 3.1 -6.1 -0.7 -0.7 -4 2.4 -10.9 10.5 -5.4 6.3 -10.2 11.2 -10.7 10.9 -0.5 -0.3 0 -1.5 1.1 -2.7 10.6 -11.9 19.2 -22.6 19.2 -23.9 0 -3.5 -2.1 -2.4 -7.9 4 -3.3 3.7 -6.3 6.4 -6.7 6 -0.4 -0.3 2 -3.6 5.2 -7.3 7.7 -8.6 7.8 -8.8 7 -10.9 -0.6 -1.6 -1.8 -0.7 -8.1 5.5 -9.5 9.4 -9.9 7.3 -0.5 -2.4 7.3 -7.5 7.6 -8.1 6 -10.6 -0.8 -1.2 -2.9 0.4 -11 8.5 -5.5 5.5 -10 9.3 -10 8.6 0 -0.8 4.4 -5.9 9.9 -11.5 8.6 -8.8 11 -12.6 8.1 -12.6 -0.4 0 -4.2 3.5 -8.3 7.7 -4.2 4.3 -7.9 7.4 -8.3 7 -0.5 -0.4 2.9 -4.5 7.4 -9 7.6 -7.6 9.5 -10.8 7.4 -12.1 -0.5 -0.3 -3.1 1.7 -5.7 4.4 -2.7 2.8 -5.6 5 -6.4 5 -0.9 0 1.2 -2.7 4.6 -6.2 5.4 -5.5 6.1 -6.6 5.1 -8.3 -5.8 -10.4 -20.1 -20.3 -36.4 -25 -3.2 -0.9 -7.9 -2.7 -10.4 -4 l-4.7 -2.4 -1.2 4.9 c-1.5 5.8 -6.6 12.9 -11.9 16.5 -4.9 3.4 -5.3 1.6 -1.3 -6.4 4 -7.9 3.9 -8.8 -0.3 -2.6 -3.5 5.3 -10.9 12.5 -12.7 12.5 -0.7 0 -0.9 -1 -0.6 -2.5 0.5 -2.9 1.3 -3.4 -9.6 5.9 -3.7 3.2 -7.3 5.6 -8.1 5.3 -0.7 -0.3 -3.3 -3.7 -5.7 -7.6 -2.4 -3.9 -4.6 -7.1 -4.9 -7.1 -0.3 0 -1.9 2.6 -3.6 5.8 -3.1 5.7 -3.1 5.7 -2.2 14.7 1.4 13.1 0.4 29.2 -2.7 41.5 -1.7 6.8 -2.9 15.6 -3.5 25 -2.5 38.1 -5.1 60.3 -7.7 65.3 -0.8 1.6 -1.3 3 -1.1 3.1 0.2 0.2 3 0.7 6.3 1.3 5.1 0.9 6.6 0.8 10.3 -0.8 5.1 -2.2 5.2 -2.2 5.2 -0.8 0 0.5 -1.4 1.5 -3.1 2.1 -3.7 1.3 -3.3 1.7 3.3 3.4 5.9 1.4 9.8 1.5 14.3 0.5z m-60.6 -6.6 c-1.6 -2.6 -2.8 -3.5 -4.7 -3.5 -1.5 0 -3.8 -0.3 -5.2 -0.7 -2.3 -0.6 -2.4 -0.5 -1 1.2 1.3 1.6 10.2 6.3 12.2 6.4 0.4 0.1 -0.2 -1.5 -1.3 -3.4z m-19.3 -6.1 c-1.1 -2.9 -2.6 -1.2 -2.6 3 0 5.5 2.3 7 2.8 1.8 0.2 -1.9 0.1 -4 -0.2 -4.8z m-105.1 0.6 c0.3 -0.6 -0.1 -1.3 -0.9 -1.6 -0.9 -0.3 -1.3 -1 -1 -1.5 0.3 -0.5 1.3 -0.5 2.4 0.1 1 0.5 2.1 1 2.4 1 1.2 0 0.5 -3.8 -0.9 -5 -1.2 -1 -2 -0.7 -4.6 1.4 -1.7 1.4 -3.7 2.6 -4.4 2.6 -2.5 0 -2.7 2 -0.3 2.9 3.1 1.3 6.5 1.3 7.3 0.1z m120.3 -3.1 c-1.5 -4.4 -0.4 -13.6 4.2 -34.2 3.5 -16.1 4.6 -22.7 8.1 -49.2 1.4 -10.4 2.3 -13 11.8 -32.7 7.7 -15.8 8 -16.8 7.4 -21.7 l-0.6 -5.2 -3.7 3.6 c-2 1.9 -3.9 3.2 -4.3 2.9 -0.4 -0.4 -0.7 -3.6 -0.7 -7.1 l0 -6.4 -4.9 5 c-2.7 2.8 -5.4 5.1 -5.9 5.1 -1.9 0 -2.1 -1.4 -0.6 -4.2 l1.6 -3 -2.3 1.6 c-2.9 2 -5.9 2.1 -5.9 0.2 0 -1.1 -0.7 -1.3 -3.1 -0.6 -3.1 0.9 -5.9 0.4 -5.9 -1 0 -0.4 1.4 -1.7 3.2 -2.8 l3.1 -2 -3.8 0 c-2.4 0 -4.3 -0.6 -5 -1.6 -1.1 -1.4 -1.7 -1.2 -5.6 1.3 -5.6 3.5 -13.1 11.7 -24.4 26.5 -4.9 6.5 -12.4 16.2 -16.7 21.5 -11.9 15.1 -14.1 20.8 -10.5 27.7 1.6 3.1 18 17.1 24.6 21.1 5.5 3.2 12 3.9 14.8 1.5 2.1 -1.9 2.1 -2.1 1.2 -21.3 -0.8 -15 -1.4 -20.4 -2.8 -23.9 -2.4 -5.8 -5.1 -14.8 -5.1 -17.2 0 -3.9 1.8 -1.5 2.9 4 0.6 3.1 2 7.5 3.1 9.7 l1.9 4 -0.6 -18.4 c-0.5 -13.9 -0.3 -18.2 0.5 -17.7 0.8 0.5 1.2 4.2 1.3 10.4 0.1 5.3 0.4 10.8 0.8 12.2 0.6 2.1 1.1 1.1 2.6 -5.2 2 -8.2 3 -10.6 4 -9.6 0.4 0.3 -1.1 6.6 -3.1 14 -3 10.6 -3.8 14.9 -3.7 21.3 0 4.4 0.2 24.2 0.4 44 l0.4 36 3.2 4.6 c4.4 6.3 9.9 9.5 17 9.8 2 0.1 2.1 -0.1 1.1 -3z m-125.8 -2.6 c0.3 -0.3 -0.1 -0.8 -0.7 -1 -2.4 -0.8 -1.3 -2.2 1.5 -2 2 0.2 2.7 -0.2 2.7 -1.7 0 -1 -0.8 -2.4 -1.8 -3 -1.5 -0.9 -2.2 -0.7 -3.5 1.3 -0.9 1.3 -3 3.7 -4.7 5.4 l-3 3 4.5 -0.7 c2.4 -0.4 4.7 -1 5 -1.3z m-44 -5.5 c4.9 -6.2 21 -38.6 21 -42.3 0 -0.6 -32.2 -17.5 -39.3 -20.6 -4.9 -2.1 -11.4 -6.3 -17.5 -11.1 -5.3 -4.3 -12.7 -9.4 -16.4 -11.3 -5.9 -3.1 -6.9 -4.1 -7.8 -7.4 -1.5 -5.7 -4.5 -7.8 -14.1 -10 -10.2 -2.4 -19.9 -5.9 -19.9 -7.2 0 -1.2 0.2 -1.2 5.9 1.1 5 1.9 17 5 19.7 5 1.1 0 0.9 -1.1 -1 -4.7 -3 -5.7 -3.7 -8.6 -8.1 -31.6 -1.9 -9.8 -4 -18.6 -4.7 -19.4 -0.6 -0.8 -3.7 -3.1 -6.8 -5 -3 -2 -7.5 -5.2 -10 -7.3 -2.5 -2 -6.7 -5.2 -9.4 -7 -2.8 -1.9 -4.5 -3.5 -3.8 -3.8 1.2 -0.4 6.2 2.9 19.7 12.9 4.4 3.2 8.3 5.9 8.8 5.9 0.4 0 -0.4 -2.3 -1.9 -5.2 -8.7 -17.1 -25.1 -36.6 -35 -41.4 -5.3 -2.6 -6.7 -5.2 -1.8 -3.4 10.2 3.9 27.9 23.3 36.3 39.8 1.2 2.3 2.3 4.2 2.5 4.2 0.5 0 -4.8 -20.4 -6.3 -24.2 -0.6 -1.7 -0.7 -2.9 -0.1 -3.3 0.6 -0.4 1.4 0.4 1.9 1.7 3.1 8.3 9.4 36.2 14.6 64.7 2.8 15.4 6.5 25.4 11.4 30.6 1.6 1.7 3.4 4.6 4 6.6 1 3.1 2.2 4.2 7.6 6.9 3.6 1.8 10.2 6.4 14.7 10.2 6.3 5.3 12.2 8.8 24.3 14.8 8.8 4.4 20.3 10.2 25.5 13 10.6 5.7 12.6 5.9 22.9 1.9 4.1 -1.5 6 -1.7 8.6 -1 2.5 0.7 4.5 0.5 7.9 -0.7 3.7 -1.4 5 -1.5 6.6 -0.4 1.1 0.6 2.1 1.2 2.2 1.2 0.2 0 0.5 -19.9 0.6 -44.3 l0.4 -44.2 -3.2 -21.5 c-6.3 -43.1 -6.8 -46.5 -6.5 -46.9 1 -0.9 2.5 1.3 2.5 3.7 0 1.5 0.7 7 1.5 12.2 3.7 23.6 7.5 50.8 7.5 54.3 0 2 0.2 3.7 0.4 3.7 0.5 0 10.4 -10.3 13.5 -14 1.7 -2.1 2 -2.2 2.1 -0.7 0 0.9 -3.6 5.5 -8.1 10.1 l-8 8.4 0.3 5.9 0.3 5.8 8.4 2.2 c9.2 2.4 20.7 3.9 37.6 4.8 l11 0.6 7.5 -9.8 c6.7 -8.8 7.5 -10.2 7.2 -13.5 -0.4 -3.6 1.4 -20.3 2.4 -24 0.5 -1.6 -0.5 -1.8 -10.6 -1.8 -7.6 0 -12.2 -0.5 -14.7 -1.5 -5.1 -2.2 -7.6 -1.9 -14.4 1.6 l-6.1 3 -2.4 -2.2 c-1.7 -1.6 -3 -2 -4.9 -1.5 -2.8 0.7 -2.9 0.6 -9.9 -7.9 l-2.5 -3 -0.1 4.4 c0 7.1 -1.8 3.5 -2.2 -4.6 -0.3 -5.2 -0.9 -7.7 -2.2 -9.2 -2.9 -3.2 -3.8 -2.5 -3.4 2.7 0.1 2.6 -0.1 4.9 -0.7 5.2 -0.6 0.3 -1.2 -3.9 -1.6 -11 -0.7 -14.4 -2.4 -21.8 -6.3 -28.3 -3.9 -6.4 -8.4 -9.5 -21.6 -14.5 -5.8 -2.2 -13 -5.1 -16.1 -6.5 l-5.5 -2.4 8.8 8.9 c9.1 9.2 10.7 12.6 7.1 14.7 -1.6 0.9 -1.2 1.6 3.4 6.3 6.1 6.2 6.3 6.7 8.9 32.3 2.8 27.9 0.9 60.3 -4.7 81.5 -1.1 4.2 -2.4 8.2 -2.9 9 -2 3.2 -1.8 0 0.5 -8.5 6.3 -23.5 7.9 -53.4 4.6 -85.5 -2.3 -22.4 -2.4 -22.4 -10.2 -29.9 -2.7 -2.6 -4.9 -5 -4.9 -5.3 0 -0.3 1.1 -0.9 2.5 -1.2 1.4 -0.4 2.5 -1.3 2.5 -2.2 0 -1.5 -24.9 -27.8 -25.7 -27.1 -0.3 0.4 2.4 9.9 10.2 36.2 8.2 27.5 11.4 39.8 13.6 52.5 2.9 16.8 3.4 39.6 1.5 63 -0.9 10.8 -1.6 23.3 -1.6 27.8 0 5 -0.4 8.2 -1 8.2 -0.7 0 -1 -4.5 -0.8 -12.7 0.3 -12.3 0.2 -12.8 -2.1 -15.3 -3.2 -3.4 -12.5 -16 -32.6 -44 -20.1 -28.1 -32.8 -44.1 -45.3 -57.2 -10.3 -10.7 -10.1 -10 -4.6 -17.4 l2.4 -3 -5.3 -1.7 c-3 -0.9 -6.4 -2.9 -7.8 -4.3 -2.3 -2.5 -2.4 -3.2 -2.7 -18.8 l-0.4 -16.3 -10.1 5.1 c-5.6 2.9 -16 7.4 -23.2 10 -23.7 8.8 -32.1 14.6 -34.6 23.8 -1.7 6.3 -1.3 19 1 29.8 1.1 5.6 2.2 15.5 2.5 24 0.3 8.6 1.2 16.7 2.1 20 0.9 3 3.1 11.4 5 18.5 4.6 17.9 11.7 37.4 16.2 44.8 4.7 7.8 14.8 17.8 23.8 23.8 6.5 4.3 24.5 14.6 63 36.2 8.8 4.9 16.9 9.6 18 10.3 3.1 2.2 4.1 1.7 8.5 -3.8z m35 3.5 c0.2 -0.2 -0.1 -1.2 -0.8 -2.3 -1.6 -2.7 0.3 -3.5 2.1 -0.9 l1.5 2.1 1.2 -2.1 c0.6 -1.2 0.8 -3.1 0.5 -4.1 -0.9 -3 -4.9 -2.5 -8.3 1 -1.7 1.7 -4 3 -5.1 3 -2.8 0 -1.7 2.6 1.7 3.9 2.4 0.8 5.9 0.6 7.2 -0.6z m23.4 -0.1 c1.5 -1.8 1.4 -2.1 -1.9 -5.1 -1.9 -1.7 -3.5 -3.6 -3.5 -4.2 0 -0.6 2.1 0.8 4.6 3 5.1 4.5 6.8 4.9 9.6 2.4 2.5 -2.3 2.3 -3 -2.2 -7.9 -6.1 -6.6 -4.8 -8.2 1.5 -1.7 5.4 5.5 5.5 5.6 7.5 3.8 4.4 -4 1.9 -9.6 -9.1 -20.9 l-7 -7.1 -2.7 3.1 c-3.7 4.3 -6.7 5.8 -9.2 4.4 -4.6 -2.5 -5.3 -8.8 -1.5 -14.4 1.4 -2 2.5 -3.8 2.5 -4 0 -1.5 -5.4 -1 -11.6 1 -4.1 1.3 -8.5 2.4 -9.9 2.4 -1.6 0 -2.6 0.7 -3 2.3 -0.4 1.2 -2.9 7 -5.7 12.9 -5 10.4 -5.1 10.8 -3.4 12.7 1.6 1.7 2.7 1.9 8.1 1.4 5.9 -0.5 6.5 -0.4 9 2.1 1.6 1.6 3.7 2.6 5.4 2.6 1.6 0 3.4 0.7 4.1 1.5 0.7 0.8 2.4 1.5 3.7 1.5 1.7 0 3.8 1.4 6.4 4.2 2.2 2.4 3.9 4.6 3.9 5 0 1.5 2.7 0.8 4.4 -1z m-31.4 -6.1 c0 -0.5 -0.9 -1.3 -2 -1.6 -1.1 -0.3 -2 -1.1 -2 -1.6 0 -1.2 0.6 -1.1 4.1 0.6 2.7 1.4 3 1.4 3.6 -0.1 0.9 -2.5 -3.2 -5.4 -7.7 -5.4 -2.5 0 -4 0.5 -4.4 1.6 -0.9 2.5 -0.7 3.3 1.4 5.4 2 2 7 2.8 7 1.1z m61.6 -14.2 c3.2 -0.5 10.9 -2.2 16.9 -3.6 l11 -2.5 9.3 -9.6 9.4 -9.5 -5.4 -2.9 c-2.9 -1.6 -9.3 -6.2 -14.3 -10.3 -8.8 -7.4 -8.9 -7.5 -11.5 -5.8 -6.3 4.1 -15 11.8 -14.6 12.9 0.3 0.7 -0.5 1.2 -1.7 1.2 -1.2 0 -5.8 1.5 -10.3 3.4 -7.9 3.3 -8 3.4 -6.6 5.6 2 3.1 0.6 4.2 -1.6 1.1 -3.5 -5.1 -8.5 -9.9 -10.8 -10.5 -2.4 -0.6 -11.4 3.8 -11.4 5.5 0 0.4 0.9 1.6 2 2.6 2.7 2.4 2.5 5.1 -0.4 8 -1.4 1.4 -2.1 2.7 -1.6 3 1.7 1 4.8 -1.4 8.2 -6.3 2.9 -4.1 3.3 -4.4 3.6 -2.5 0.2 1.3 1.6 3.2 3.3 4.3 1.6 1.2 5.3 5 8.3 8.6 3 3.5 5.8 5.9 6.1 5.4 1.2 -2 2.6 -1 1.5 1 -1 1.8 -0.8 2 1.8 2 1.5 0 5.5 -0.5 8.8 -1.1z m-40.2 -19.6 c-0.6 -0.9 -1.6 -1.9 -2.2 -2.1 -1.4 -0.4 -2.7 4.2 -1.8 6.5 0.6 1.5 0.9 1.4 2.9 -0.5 1.7 -1.7 1.9 -2.6 1.1 -3.9z m35.6 -12.1 c1.4 -0.8 5.7 -4.1 9.7 -7.3 4 -3.1 8.2 -6.4 9.3 -7.2 2.1 -1.5 2.1 -1.6 0.4 -4.2 -2.2 -3.4 -2.2 -10 0 -14.6 0.9 -2 5.3 -8.1 9.6 -13.5 l7.9 -9.9 -9.7 -0.7 c-19 -1.4 -30.4 -2.9 -38.3 -5.2 l-7.9 -2.3 -0.2 19.1 c-0.6 43.1 -0.5 47.9 1.5 50.3 l1.9 2.1 6.6 -2.5 c3.7 -1.3 7.8 -3.2 9.2 -4.1z m124.8 -36.5 c-0.7 -0.8 -4 -5.5 -7.3 -10.5 -3.3 -5.1 -6.3 -9.2 -6.6 -9.2 -0.4 0 -1.6 2.3 -2.8 5.1 l-2.2 5.1 6.5 10 c6.1 9.3 7.4 11.8 6.1 11.8 -0.2 0 -3.2 -4.2 -6.6 -9.2 -7.3 -11 -6.8 -10.3 -7.4 -9.6 -0.3 0.3 3.4 6.7 8.2 14.2 l8.8 13.7 2.3 -10 c2 -8.4 2.1 -10.3 1 -11.4z m-182.4 -5.7 c-0.6 -0.8 -2.1 -4 -3.2 -7 -2.9 -7.9 -15.1 -35.6 -21.2 -48.4 -9.5 -19.8 -20.6 -38.1 -39.5 -65.1 -15.2 -21.7 -20.1 -30.1 -23.5 -39.9 l-1.6 -4.9 -3.5 5.4 -3.4 5.4 0 16 c0 8.8 0.3 17.2 0.8 18.7 0.5 2.1 1.9 3.1 6.2 4.7 7.2 2.7 7.7 2.7 9.8 -0.9 1 -1.6 2.5 -3 3.2 -3 0.9 0 -0.8 3.2 -4.3 8.3 -3.2 4.5 -6.1 8.7 -6.4 9.3 -0.4 0.6 2.6 4.4 6.5 8.5 11.6 11.9 26.1 29.8 42.6 52.9 19.3 26.9 27.4 37.9 33.1 45.3 l4.5 5.8 0.5 -4.8 c0.3 -2.9 0.1 -5.4 -0.6 -6.3z m179.9 -17.8 c-5.9 -8 -6 -8.1 -7.2 -5.6 -0.6 1.4 -1.1 2.9 -1.1 3.4 0 0.4 2.5 4.4 5.5 8.8 3 4.4 5.5 8.3 5.5 8.6 0 2.1 -2.5 -0.5 -7.4 -7.6 -3.1 -4.5 -5.6 -7.8 -5.6 -7.2 0 0.5 3.3 5.8 7.2 11.7 l7.3 10.8 0.9 -7.4 0.8 -7.4 -5.9 -8.1z m-178.7 -0.4 c-0.5 -2.7 -1.3 -4.8 -1.7 -4.8 -0.5 0 -0.9 0.5 -0.9 1 0 0.6 -0.4 1 -1 1 -1.6 0 -1.1 -3 0.6 -3.7 0.8 -0.3 1.3 -1.2 1 -2 -0.3 -0.8 -3.1 -11.1 -6.1 -22.9 -7.3 -28 -11.5 -40.1 -21.1 -60.4 l-4.5 -9.6 -3.5 0.4 -3.4 0.4 -0.2 7.7 c-0.2 4.2 -0.1 11.2 0 15.6 0.3 7.5 0.6 8.6 5.2 16.5 7.8 13.8 15.3 29.4 24.8 51.6 4.9 11.5 9.3 22 9.8 23.4 1.3 3.7 2.2 -8.1 1 -14.2z m183.6 -6.2 l-0.7 -8.9 -3.3 -0.1 c-1.9 -0.1 -3.6 0.2 -3.9 0.7 -0.2 0.4 1.1 2.9 2.9 5.5 4.7 6.5 5.1 7.2 3.9 7.2 -0.5 0 -2.4 -2 -4.2 -4.5 -1.7 -2.4 -3.5 -4.2 -4 -4 -0.4 0.3 1.6 3.7 4.4 7.5 2.9 3.9 5.3 6.7 5.4 6.3 0.2 -0.5 0 -4.8 -0.5 -9.7z m-182.7 -10.8 c-1.4 -23.8 -4.7 -39.5 -16 -76.3 -3 -9.9 -5.3 -16.4 -5 -14.5 1.5 11.6 1.7 14 0.8 14 -0.5 0 -1.5 -1 -2 -2.3 -0.6 -1.3 -2.9 -4.5 -5.2 -7 l-4 -4.8 -0.7 2.6 c-0.5 2 0.7 5.7 4.9 14.8 9 19.8 13.4 32.5 20.2 58.7 3.6 13.6 6.5 25 6.5 25.4 0 0.3 0.3 0.6 0.6 0.6 0.3 0 0.3 -5.1 -0.1 -11.2z m215.6 -10.4 c7.5 -6.2 10 -10 12.4 -18.4 0.6 -2.4 0.6 -2.4 -1.8 0.5 -3.4 4.1 -4.5 2.6 -4.9 -6.3 l-0.3 -7.2 -9 7.3 c-4.9 4.1 -12 9.4 -15.7 11.9 l-6.7 4.5 4.5 7.4 c2.6 4.1 5.3 8.4 6.1 9.7 l1.4 2.3 3.2 -2.7 c1.8 -1.5 6.6 -5.6 10.8 -9z m-34 8.6 c2.7 -2.2 1.3 -2.6 -2.5 -0.9 -1.4 0.7 -2.3 1.6 -2 2 0.8 1.4 2 1.1 4.5 -1.1z m2.6 -5.6 c2.2 -1.4 5 -5.4 3.8 -5.4 -0.4 0 -3.5 1.4 -7.1 3.1 -4.5 2.2 -6.4 3.7 -6.4 5 0 1.8 0.2 1.9 3.8 0.4 2 -0.9 4.7 -2.3 5.9 -3.1z m-65.5 -4.7 c5.8 -5.7 9.3 -8.3 17.1 -12.1 14 -7 13.4 -7.9 -5.7 -7.4 -8.5 0.1 -15.8 0.6 -16.1 1 -1.3 1.3 -4.2 25.8 -3 25.8 0.2 0 3.7 -3.3 7.7 -7.3z m54.8 -0.9 l6.3 -6.8 -4 -4.3 c-2.3 -2.4 -4.6 -5.4 -5.3 -6.6 -1.5 -2.9 -1.7 -2.6 -3.5 4.3 -1.6 5.9 -2.1 22.7 -0.7 21.1 0.5 -0.6 3.7 -4 7.2 -7.7z m14.7 -4 c-0.2 -3.2 -5.8 -2.3 -9.4 1.5 -5.6 5.9 -4.9 6.8 2.7 3.4 4.9 -2.3 6.8 -3.7 6.7 -4.9z m-27.1 -0.3 c1.2 -2.2 3 -6.5 3.8 -9.5 0.8 -3 1.7 -6.2 2.1 -7.1 0.4 -1 -0.7 -3.7 -2.8 -7 -1.8 -3 -4.6 -8.7 -6.2 -12.7 -2.8 -7.3 -4.8 -10.1 -5.9 -8.4 -1.7 2.8 -3.6 13.6 -3.6 20.7 0 10.1 -1.4 15.1 -5.2 18.7 -2.3 2.1 -2.6 2.8 -1.3 2.8 4.5 0 9.5 -9 9.5 -17.2 0 -4.7 2.1 -13.8 3.2 -13.8 1.1 0 1 1.7 -0.1 5.8 -0.5 1.7 -1.1 6 -1.2 9.4 -0.2 7.5 -2.4 12.3 -7.9 17.8 -4.4 4.4 -4.4 4.6 0.4 2.6 3.7 -1.5 6.7 -6.8 8.7 -15.1 2.7 -11.9 3.2 -13.6 4 -12.8 0.4 0.4 0.4 2.8 -0.1 5.3 -0.5 2.5 -1.4 7.1 -2 10.3 -0.8 3.8 -2.3 7.3 -4.6 10.2 -4.3 5.6 -2.8 5.9 2 0.4 2.4 -2.9 4 -6.3 5.3 -11 1.7 -6.8 3.3 -9.1 3.3 -4.6 -0.1 2.3 -2 8.1 -5.9 17.7 l-2.2 5.4 2.1 -1.9 c1.2 -1.1 3.3 -3.8 4.6 -6z m71 -4.6 c4.2 -7 4.5 -13.2 1 -23.5 l-2.4 -6.9 -0.3 7.3 c-0.2 3.9 -0.1 7.2 0.4 7.2 2.3 0 -1.1 12.1 -6.4 22.5 l-3.1 6 3.7 -3.5 c2 -1.9 5.2 -6 7.1 -9.1z m9.2 1.1 c2.2 -3.7 2.7 -5.7 2.6 -11.1 0 -5.7 -0.5 -7.3 -3.2 -11.6 -1.8 -2.8 -4.3 -8.1 -5.5 -11.8 -2 -5.9 -2.5 -6.5 -3.6 -5.1 -1.2 1.4 -0.8 3 2.2 11 3.1 7.9 3.7 10.8 3.8 18.2 0.2 7.2 -0.2 9.8 -1.9 13.8 -1.2 2.7 -2.2 5.1 -2.2 5.4 0 1.4 5.5 -4.8 7.8 -8.8z m-46 -3.4 c2.8 -1.8 9.8 -7.3 15.6 -12.1 10.3 -8.4 10.6 -8.8 10.6 -12.7 l0 -4.1 -3.7 5.2 c-3.9 5.2 -11.6 11.6 -18.8 15.4 -3.3 1.8 -5.7 2.2 -13.7 2.2 -6.4 0 -10.1 -0.4 -10.9 -1.2 -2.9 -2.9 -2.9 -1 0 2.9 6.4 8.7 12.6 10 20.9 4.4z m-54.2 0.9 c2.5 -1.9 1.5 -1.9 -2.7 0 -2.5 1 -2.9 1.4 -1.3 1.5 1.1 0 2.9 -0.7 4 -1.5z m86.5 -14.3 c1.6 -8 0.4 -21.4 -2.2 -23 -1.8 -1.2 -1.9 -0.8 -1.9 15.5 0.1 14.8 0.2 16.6 1.5 14.9 0.8 -1 1.9 -4.4 2.6 -7.4z m-29 3 c8.2 -4 16.1 -11.2 19.6 -18.1 1.9 -3.5 3.3 -7.8 3.3 -9.7 0 -3.8 0.8 -4.2 3.2 -1.5 0.8 1 2.6 1.8 3.9 1.7 1.9 -0.1 3.1 -1.5 6.1 -7.6 4.1 -8.4 4.5 -10.6 2.2 -13.8 -2.9 -4.1 -7.6 -2.5 -11.9 4.2 -2.3 3.5 -3.1 2.7 -3.4 -3.6 -0.5 -11.2 -3.8 -19.8 -10.8 -27.8 -4.9 -5.6 -10 -13.1 -11.7 -17.1 l-1.3 -3.1 -3.7 5.2 c-5.5 7.6 -10.3 11.8 -19.1 16.6 -7.4 4.1 -7.8 4.4 -4.6 4.4 2.6 0 3.2 0.3 2.7 1.6 -0.3 0.9 -0.6 1.9 -0.6 2.4 0 0.5 -2.4 0.6 -5.3 0.3 -3.9 -0.4 -6.2 -0.1 -8.6 1.2 l-3.3 1.7 0.5 16.6 c0.4 15 0.7 17.5 3.2 24.5 3.8 10.7 9.8 19.5 15.5 22.5 3.9 2 5.5 2.3 12.1 2 5 -0.3 9 -1.2 12 -2.6z m55.8 -5.9 c2.2 -0.6 2 -0.8 -2 -2.7 -5 -2.4 -10.5 -9.9 -13.4 -18.1 -2.7 -7.5 -3.8 -8 -3.2 -1.3 0.6 6.3 5.3 17.8 7.2 17.8 0.7 0 1.9 0.7 2.6 1.6 1.1 1.4 4.3 3.2 5.9 3.3 0.3 0.1 1.6 -0.2 2.9 -0.6z m-107 -19.7 c1.2 -1.9 2.6 -3.6 3.2 -3.8 0.6 -0.2 0.4 -1.1 -0.4 -2.2 -1.3 -1.7 -1.6 -1.3 -4.5 5.7 -1.8 4.2 -3.2 8.6 -3.1 9.9 0 1.6 0.4 1 1.3 -1.9 0.8 -2.3 2.3 -5.7 3.5 -7.7z m-191.2 -10.2 l0.2 -13.5 -2.7 -2.4 c-3.3 -2.8 -4.2 -2.2 -6.6 4.4 -1 2.9 -2.4 5.1 -3.2 5.1 -0.9 0 1.2 3.9 5.2 10 3.7 5.5 6.7 10 6.8 10 0.1 0 0.2 -6.1 0.3 -13.6z m192.3 13.1 c0 -0.3 -0.2 -0.5 -0.5 -0.5 -0.3 0 -0.5 0.2 -0.5 0.5 0 0.3 0.2 0.5 0.5 0.5 0.3 0 0.5 -0.2 0.5 -0.5z m94.9 -21 c-1.4 -7.7 -6.7 -23.1 -10.7 -31.5 -2.5 -5 -5.7 -9.5 -9.7 -13.5 -7.6 -7.6 -16.5 -15.7 -16.5 -14.9 0 1.1 4.3 6.7 12.1 15.6 4.2 4.9 9 11.4 10.7 14.6 2.8 5.2 7.7 20.2 6.6 20.2 -0.2 0 0.5 0.9 1.6 2 2.9 2.9 3.5 6.6 1.8 10.9 -1.4 3.5 -1.4 4.3 0.5 10.2 l2.1 6.4 1.2 -7.5 c0.8 -4.9 0.9 -9.2 0.3 -12.5z m-89.9 5.6 c-0.7 -6.7 -1.8 -9 -4.3 -9.1 -1.7 0 -1.8 3.2 -0.3 7.8 1.5 4.5 4.4 9.7 5.1 9 0.2 -0.2 0 -3.6 -0.5 -7.7z m-207.6 -11.6 c1.3 -3 3.9 -7.5 5.6 -10 l3.1 -4.5 -4.4 0 c-9.3 0 -15.9 -3.8 -28.5 -16.3 -7.9 -7.7 -8.3 -8 -6.8 -4.3 4.1 9.9 25.2 40.6 28 40.6 0.2 0 1.6 -2.5 3 -5.5z m298.1 -17 c-0.8 -3.8 -3.2 -10.4 -5.3 -14.9 -4.2 -8.9 -10.1 -15.1 -20.9 -22 -3.2 -2.1 -7.7 -5.1 -10.1 -6.7 -4 -2.7 -6.2 -3.6 -6.2 -2.4 0 0.8 12 12.6 19.5 19.1 8.9 7.7 15.1 18.4 20.3 34.6 l3.7 11.8 0.3 -6.4 c0.2 -3.5 -0.4 -9.4 -1.3 -13.1z m-91.1 15.4 c0.3 -1.7 0.6 -5.3 0.6 -7.8 0 -4 0.4 -5 2.8 -6.7 1.5 -1.1 3.5 -2.3 4.5 -2.7 0.9 -0.3 1.7 -1.5 1.7 -2.6 0 -1 1.1 -2.6 2.4 -3.4 1.3 -0.9 5.9 -5.1 10.3 -9.4 4.3 -4.3 10.6 -10.2 14.1 -13.1 6.9 -5.9 8.6 -9.3 2 -3.9 -2.4 1.9 -8.3 6.1 -13.3 9.3 -10.4 6.8 -18.6 14.8 -23.3 22.6 -4.7 7.8 -6.8 20.8 -3.4 20.8 0.5 0 1.2 -1.4 1.6 -3.1z m74.2 -6.1 c-1.6 -5.7 -6 -13 -14.5 -24.1 -5.8 -7.8 -9.5 -14.6 -10.6 -19.7 -1.1 -5.3 -1.4 -5.4 -5 -0.7 -1.8 2.3 -5.7 6.2 -8.6 8.4 -3 2.3 -9 7.9 -13.4 12.3 l-8 8.2 7.4 -3.7 c7.9 -3.9 14.9 -10.3 19.7 -17.9 1.6 -2.5 3.4 -4.6 3.9 -4.6 0.6 0 2 2.4 3.3 5.3 1.2 2.9 5.6 9.6 9.7 14.8 7.6 9.5 11 16.4 12.1 24.2 1 7 1.2 7.3 3.5 5 2 -2 2.1 -2.3 0.5 -7.5z m-251 -2.5 c-0.8 -4.8 -2 -11.2 -2.7 -14.1 l-1.1 -5.3 -2.9 3.9 c-1.6 2.1 -4.7 5.1 -6.9 6.7 l-4 2.8 4.3 2.7 c2.3 1.4 6.5 5.1 9.2 8.2 2.8 3 5.1 5.2 5.3 4.7 0.2 -0.4 -0.4 -4.7 -1.2 -9.6z m-12 7.9 c3.5 -2.4 1.9 -7.4 -3.3 -10.1 l-3.9 -1.9 -2.2 3.4 c-2.7 4.1 -2.7 4.2 0 7.1 2.1 2.3 7.1 3.1 9.4 1.5z m269.4 -2.4 c0 -2.5 -2.7 -11.4 -4.8 -15.9 -2.5 -5.4 -7.5 -12.2 -14.1 -19.2 -2.5 -2.7 -5.9 -6.9 -7.5 -9.3 -1.6 -2.5 -3.1 -4.3 -3.3 -4.1 -1.3 1.3 4.7 12.6 11.3 21.2 7.6 10 12.1 17.8 14.3 24.8 1.2 3.4 4.1 5.3 4.1 2.5z m-81.5 -13.8 c4 -7.9 14.4 -18.1 27 -26.6 11.7 -7.9 19.3 -13.7 12.5 -9.5 -1.9 1.2 -6.2 3.6 -9.5 5.3 -21.2 10.9 -32.6 23.4 -33.9 36.9 -0.4 3.8 -0.3 4.5 0.3 2.4 0.4 -1.6 2 -5.5 3.6 -8.5z m-0.6 -9.4 c3.8 -6.1 13.7 -14.1 26.1 -21.1 6.6 -3.7 12 -6.9 12 -7.1 0 -0.8 -11.4 3.2 -18 6.3 -10.2 4.9 -19.8 14.4 -22.9 22.8 -2.9 7.8 -4 14 -1.3 7.3 1.1 -2.6 2.9 -6.3 4.1 -8.2z m-192.9 9.2 c2.1 -1.4 4.9 -5.2 7.4 -9.8 2.5 -4.6 4.2 -6.8 4.4 -5.8 0.2 0.9 -0.2 2.7 -0.8 4 -1.1 2.2 -1.1 2.2 0.5 0.3 0.9 -1.1 3.5 -5.8 5.8 -10.4 l4.2 -8.4 0.3 -28.4 c0.3 -30.8 0 -33.9 -5.5 -44.6 -1.5 -3 -1.9 -4.7 -1.2 -4.5 1.9 0.6 6.5 10.3 7.9 16.8 0.7 3 1.3 10.8 1.3 17.3 0 6.4 0.3 11.7 0.6 11.7 3 -0.1 3.3 -2 2.9 -17.1 -0.6 -17.4 -1.8 -22.2 -7.4 -28.8 -3.8 -4.4 -5.4 -5 -7.4 -2.6 -1.9 2.3 -3 1.8 -2.4 -1.3 0.7 -3.5 -3.3 -8.8 -8.3 -10.8 -10.8 -4.6 -37.7 3.4 -46.9 13.9 -8.3 9.4 -11.5 24.8 -7.5 36.2 1.2 3.2 2.1 6.5 2.1 7.2 0 2.1 -1.7 1.5 -2.3 -0.8 -0.4 -1.3 -1.2 -1.9 -2.4 -1.7 -2 0.4 -2.1 1.8 -0.6 15.6 0.6 5.5 1.4 8.8 2.6 9.9 1.6 1.6 1.7 1.6 1.7 -1.4 0 -1.8 0.4 -3.4 0.9 -3.7 0.4 -0.3 1.1 3.2 1.3 7.7 0.6 9.8 2.7 14.4 10.2 23 13.9 15.8 29.6 22.5 38.6 16.5z m207 -1.3 c0 -0.3 -0.2 -0.5 -0.5 -0.5 -0.3 0 -0.5 0.2 -0.5 0.5 0 0.3 0.2 0.5 0.5 0.5 0.3 0 0.5 -0.2 0.5 -0.5z m-9.5 -21 c6.6 -6.6 17.9 -12.9 29.5 -16.5 l6.5 -2 -7.5 0.5 c-13.4 0.9 -22 4.6 -30.3 13.3 -5.2 5.5 -8.7 12.1 -8.7 16.7 0 2.9 0.1 2.8 2.3 -1.5 1.2 -2.4 4.9 -7.2 8.2 -10.5z m-242.5 1 c0 -0.3 -0.2 -0.5 -0.5 -0.5 -0.3 0 -0.5 0.2 -0.5 0.5 0 0.3 0.2 0.5 0.5 0.5 0.3 0 0.5 -0.2 0.5 -0.5z m315.4 -11.2 c-2 -3.2 -4.4 -6.6 -5.3 -7.7 -3.4 -3.8 -12.7 -7.1 -16.3 -5.7 -1.4 0.5 0 1.7 6 5.3 4.2 2.6 10.2 6.7 13.2 9.2 3 2.5 5.6 4.5 5.8 4.6 0.1 0 -1.4 -2.6 -3.4 -5.7z m-243 -9.1 c0.3 -1 0.6 -3.9 0.6 -6.7 0.1 -2.7 0.2 -6.5 0.3 -8.4 0.1 -2 -0.3 -3.6 -1 -3.8 -2.1 -0.7 -3.3 4.3 -3.3 13.2 0 7 0.3 8.3 1.5 7.9 0.8 -0.3 1.7 -1.3 1.9 -2.2z m199 -0.9 l8.9 -0.6 -2.7 -2.4 c-1.5 -1.2 -3.7 -2.3 -4.9 -2.3 -2.5 0 -11.1 3.9 -14.2 6.4 -1.9 1.5 -1.9 1.6 1 0.5 1.7 -0.6 7 -1.3 11.9 -1.6z m15 -2.6 c1.5 -1.1 1.6 -1.7 0.5 -4.2 l-1.3 -3 -0.4 2.8 c-0.4 3.3 -0.5 3.3 -5.1 0.5 l-3.6 -2.2 3 3.6 c3.3 4 4.3 4.4 6.9 2.5z"/>
  <path d="M417.2 680 c-5.5 -1.2 -15.2 -5.6 -15.2 -6.9 0 -1.5 0.2 -1.4 5.7 1.3 5.3 2.7 15.8 4.8 19.3 3.9 1.7 -0.4 2.1 -0.2 1.8 0.8 -0.5 1.7 -5.7 2.1 -11.6 0.9z"/>
  <path d="M414 664.9 c-8 -4.4 -10.2 -5.9 -8.2 -5.9 1.7 0 16.9 7.7 17.7 9 1.2 2 -2.1 0.9 -9.5 -3.1z"/>
  <path d="M331.4 662.6 c-7 -1.7 -16.4 -5.6 -16.4 -6.8 0 -0.6 0.8 -0.7 1.8 -0.3 8 3.3 16.9 5.7 23 6.2 3.9 0.3 7.2 1 7.2 1.4 0 1.3 -9.6 0.9 -15.6 -0.5z"/>
  <path d="M330.5 649.1 c-6.4 -3.8 -11.2 -7.7 -10.4 -8.6 0.4 -0.3 3.1 1.2 6 3.4 3 2.3 6.9 4.7 8.7 5.3 1.7 0.7 3.2 1.6 3.2 2 0 1.5 -2.5 0.8 -7.5 -2.1z"/>
  <path d="M413.9 600.3 c-5.3 -2.7 -20.8 -16.7 -19.7 -17.8 0.3 -0.4 3.6 2.3 7.2 5.9 4.1 4 9.1 7.7 13.1 9.7 3.6 1.7 6.5 3.6 6.5 4 0 1.4 -1.2 1.1 -7.1 -1.8z"/>
  <path d="M413.6 588.1 c-0.4 -0.5 1.5 -1.2 4.1 -1.6 2.7 -0.3 6.3 -1.3 8.1 -2.1 3.9 -1.7 4.2 -1.7 4.2 -0.4 0 2.5 -15.1 6.3 -16.4 4.1z"/>
  <path d="M327 578.1 c0 -1.4 16.8 -11.3 18.2 -10.9 1 0.4 -16.2 11.8 -17.7 11.8 -0.3 0 -0.5 -0.4 -0.5 -0.9z"/>
  <path d="M378 495.3 c-2.5 -0.3 -4.9 -0.9 -5.5 -1.5 -0.7 -0.7 1.5 -0.9 7.5 -0.4 4.7 0.3 10.7 0.6 13.3 0.6 3 0 4.6 0.4 4.2 1 -0.6 1 -10 1.1 -19.5 0.3z"/>
  <path d="M378 486.2 c1.9 -1.4 5.9 -5 8.8 -8 5.8 -5.8 8.1 -6.3 3.9 -0.9 -3 4 -12.8 11.7 -14.8 11.7 -0.8 -0.1 0.2 -1.3 2.1 -2.8z"/>
  <path d="M74.4 659.9 c-2.7 -1.7 -6.9 -5 -9.2 -7.2 -5.3 -5.1 -14.5 -18.4 -13.3 -19.1 0.5 -0.3 2.7 2.2 5 5.7 5.4 8.3 12.2 15.2 18.7 18.9 3 1.6 5.4 3.4 5.4 3.9 0 1.5 -1.4 1 -6.6 -2.2z"/>
  <path d="M72.7 637.3 c1.4 -22 9.6 -82 16.3 -119.3 2.2 -12.4 4.7 -29.5 5.6 -38 2 -20.2 2.3 -22 3.5 -22 0.5 0 0.7 2.2 0.4 5.3 -2.2 22.3 -4.1 36.6 -7.1 53.1 -6.9 38.5 -16.4 108.4 -16.4 121.4 0 4.6 -0.4 6.2 -1.4 6.2 -1.1 0 -1.3 -1.5 -0.9 -6.7z"/>
  <path d="M144.8 639 c-6.6 -1.1 -14.8 -4 -14.8 -5.1 0 -0.6 1 -0.7 2.3 -0.3 11.1 3.5 22.5 4.4 30 2.3 5 -1.3 6.1 -0.4 1.6 1.5 -4.5 1.8 -13.3 2.5 -19.1 1.6z"/>
  <path d="M150 633.1 c0 -0.6 1 -1.6 2.2 -2.2 1.2 -0.7 4.6 -3.5 7.5 -6.2 3.3 -3.1 5.3 -4.4 5.3 -3.4 0 1.7 -8 9.1 -12.2 11.3 -1.6 0.8 -2.8 1 -2.8 0.5z"/>
  <path d="M163.5 603 c3.6 -51.5 17.7 -153.8 21.7 -157.5 0.8 -0.7 0.9 0 0.4 2.5 -6.5 33.5 -15.4 101.3 -19.1 144.5 -0.8 9.8 -2 18.4 -2.6 19 -0.8 0.7 -0.9 -1.7 -0.4 -8.5z"/>
  <path d="M50.2 453.5 c-7 -7.6 -6.7 -9.4 0.4 -2.4 3.1 3.1 5.5 6.2 5.2 6.9 -0.2 0.7 -2.6 -1.2 -5.6 -4.5z"/>
  <path d="M440 475.2 c0 -1.3 3.9 -4.6 4.6 -3.9 0.3 0.3 0.3 1 -0.1 1.6 -0.9 1.5 -4.5 3.3 -4.5 2.3z"/>
  <path d="M452 474 c0.6 -1.1 1.3 -2 1.5 -2 0.3 0 0.5 0.9 0.5 2 0 1.1 -0.7 2 -1.5 2 -1.3 0 -1.4 -0.4 -0.5 -2z"/>
  <path d="M458.7 458.3 c-0.4 -0.6 -0.3 -2.1 0.1 -3.4 0.5 -1.3 1.1 -1.8 1.5 -1.2 0.4 0.6 0.3 2.1 -0.1 3.4 -0.5 1.3 -1.1 1.8 -1.5 1.2z"/>
  <path d="M453 454.2 c0 -1.8 1.2 -4.2 2.1 -4.2 1.4 0 1 2.6 -0.6 4 -0.9 0.8 -1.5 0.8 -1.5 0.2z"/>
  <path d="M340.3 448 c-4.4 -1 -9.5 -2.5 -11.1 -3.4 -3.5 -1.8 -5.4 -6.3 -4.3 -10.3 1 -3.6 3.5 -3.6 15.6 0.1 5 1.5 12.8 3 17.5 3.3 4.7 0.3 9.3 1 10.3 1.5 2 1 2.4 7.7 0.5 9.6 -1.8 1.8 -18.9 1.3 -28.5 -0.8z m27.2 -4 l0 -3.5 -9.5 -0.7 c-5.4 -0.4 -13.4 -1.8 -18.5 -3.4 -4.9 -1.4 -9.8 -2.9 -10.7 -3.1 -1.5 -0.5 -1.8 0.1 -1.8 3.6 0 3.5 0.4 4.3 3.2 5.7 5.4 2.8 19.6 5.3 28.8 5.1 l8.5 -0.2 0 -3.5z"/>
  <path d="M359.5 445 c-0.4 -0.6 -1.6 -1 -2.8 -0.9 -4.3 0.4 -6.9 -0.1 -6.5 -1.3 0.3 -0.9 7 -1.5 9.6 -0.7 0.4 0.1 1.8 0.2 3.2 0.3 1.6 0.1 2.6 0.8 2.8 2.1 0.3 1.6 0.1 1.7 -0.9 0.8 -0.8 -0.8 -1.8 -0.9 -3 -0.3 -1.2 0.7 -2 0.6 -2.4 0z"/>
  <path d="M342.2 443.2 c-1.3 -0.2 -2.6 -1 -2.9 -1.8 -0.4 -1.1 -0.9 -1.2 -1.9 -0.3 -0.9 0.8 -1.8 0.8 -2.6 0.2 -0.7 -0.6 -2.6 -1.3 -4.2 -1.7 -1.8 -0.4 -2.5 -1.1 -2 -1.6 0.6 -0.6 2.2 -0.6 4.2 0 1.8 0.5 4 0.6 4.9 0.3 0.8 -0.3 1.9 0 2.3 0.7 0.5 0.8 1.6 1.5 2.5 1.6 2 0.3 2.8 1 2.4 2.1 -0.2 0.4 -1.4 0.7 -2.7 0.5z"/>
  <path d="M460.1 442.4 c-2.6 -3.2 -2.6 -3.1 -0.1 -7.1 1.5 -2.5 2.7 -3.3 4.9 -3.3 6.5 0 9.1 3.1 6.6 8 -2.8 5.5 -8.1 6.6 -11.4 2.4z m8.1 -1.1 c2.2 -2 2.4 -5.9 0.2 -6.7 -3.1 -1.2 -5.4 -0.6 -7 1.9 -1.6 2.4 -1.6 2.7 0.1 4.5 2.2 2.4 4.3 2.5 6.7 0.3z"/>
  <path d="M46.4 412.8 c-5.1 -6.2 -5.8 -9.1 -5.6 -24.3 0.2 -7.7 0.7 -14.4 1.2 -14.9 0.7 -0.7 1 4.4 1 14.3 0 16.5 0.7 19.6 5.6 24.2 1.3 1.2 2.4 2.6 2.4 3.1 0 1.7 -1.9 0.7 -4.6 -2.4z"/>
  <path d="M166 406.6 c0 -0.8 0.7 -4.1 1.5 -7.2 0.8 -3.1 2 -9.4 2.6 -14 1.4 -9.8 3.4 -11.6 2.4 -2.1 -0.9 8.2 -4.4 23.5 -5.6 24.3 -0.5 0.3 -0.9 -0.2 -0.9 -1z"/>
  <path d="M473.5 427 c-0.3 -0.5 0.3 -1 1.4 -1 1.1 0 2.3 0.5 2.6 1 0.3 0.6 -0.3 1 -1.4 1 -1.1 0 -2.3 -0.4 -2.6 -1z"/>
  <path d="M472.7 421.4 c-0.4 -0.4 -0.4 -1 -0.2 -1.4 0.6 -1 4.5 0 4.5 1.1 0 1 -3.3 1.2 -4.3 0.3z"/>
  <path d="M473.2 413.8 c-1.4 -1.4 -1.6 -2.8 -0.3 -2.8 0.9 0 2.4 3 1.8 3.6 -0.2 0.2 -0.9 -0.2 -1.5 -0.8z"/>
  <path d="M476.9 407.4 c-1.2 -1.4 -1.1 -1.6 0.5 -1.3 1.1 0.2 2.1 1 2.4 1.7 0.5 1.7 -1.3 1.5 -2.9 -0.4z"/>
  <path d="M478.1 399.6 c-0.8 -0.9 -1.1 -1.9 -0.7 -2.3 0.9 -0.9 2.9 1.3 2.4 2.7 -0.2 0.8 -0.8 0.7 -1.7 -0.4z"/>
  <path d="M484 397 c-0.8 -0.5 -1.2 -1.2 -0.8 -1.5 0.9 -0.9 4.8 0.4 4.8 1.6 0 1.2 -2.1 1.1 -4 -0.1z"/>
  <path d="M484.3 389.3 c-1.4 -0.5 -1.8 -2.3 -0.5 -2.3 0.5 0 1.7 0.7 2.8 1.5 1.4 1.1 1.5 1.4 0.4 1.4 -0.8 0 -2.1 -0.3 -2.7 -0.6z"/>
  <path d="M486.3 384.7 c-2.2 -1 -3.1 -2.7 -1.5 -2.7 1.2 0 4.8 2.8 4.2 3.3 -0.3 0.2 -1.5 0 -2.7 -0.6z"/>
  <path d="M482.8 357.9 c1.9 -1.7 3.6 -2.8 4 -2.5 0.9 0.9 -4 5.6 -5.7 5.6 -1.1 0 -0.5 -1.1 1.7 -3.1z"/>
  <path d="M471 359.2 c0 -0.7 10.2 -6.2 11.5 -6.2 0.3 0 0.5 0.5 0.5 1 0 0.6 -2.4 2.1 -5.4 3.5 -6 2.7 -6.6 2.9 -6.6 1.7z"/>
  <path d="M377.3 413.7 c0.2 -0.7 2.3 -1.3 4.8 -1.5 5.3 -0.4 4.2 1.3 -1.4 2.1 -2.7 0.4 -3.7 0.3 -3.4 -0.6z"/>
  <path d="M322.3 407.4 c-1.8 -0.8 -3.3 -1.9 -3.3 -2.4 0 -0.6 0.2 -1 0.4 -1 0.8 0 9.6 4.1 9.6 4.5 0 0.9 -3.5 0.3 -6.7 -1.1z"/>
  <path d="M343 328.8 c-4.9 -5.6 -9 -10.8 -9 -11.7 0 -0.9 0.3 -1.1 0.9 -0.6 13.3 14.7 19.5 22.5 17.6 22.5 -0.2 0 -4.5 -4.6 -9.5 -10.2z"/>
  <path d="M346.9 314.4 c-10.2 -13.9 -11.1 -15.4 -10.7 -16.5 0.2 -0.7 4.3 4.3 9.2 11 4.8 6.7 8.6 12.6 8.4 13.3 -0.2 0.6 -3.3 -2.9 -6.9 -7.8z"/>
  <path d="M403.1 378.6 c2.9 -2.6 29.5 -19.6 30.2 -19.3 2.1 0.7 -26 19.7 -29.2 19.7 -0.8 0 -1.2 -0.2 -1 -0.4z"/>
  <path d="M355 377.3 c0.1 -0.5 2.4 -2.6 5.2 -4.8 7.9 -6.1 8.8 -6.7 8.8 -5.6 0 1.1 -11.9 11.1 -13.2 11.1 -0.5 0 -0.8 -0.3 -0.8 -0.7z"/>
  <path d="M391.2 368.9 c0.5 -1.8 17.6 -13.5 18.4 -12.6 0.6 0.5 -8.5 7.5 -15.8 12.1 -2.3 1.5 -3 1.6 -2.6 0.5z"/>
  <path d="M386.4 345.9 c-8.4 -5.3 -15.3 -11 -17.4 -14.4 -2.3 -3.7 -2.6 -11.3 -1 -23 0.9 -6.5 4 -21.6 4.6 -22.4 0.1 -0.1 2.6 0.5 5.4 1.4 4.5 1.5 7.5 1.6 22.6 1 21.6 -0.9 22.4 -0.6 22.4 8.3 0 10.4 -2.4 36.2 -3.3 36.2 -0.6 0 -0.8 -3.8 -0.4 -9.7 0.4 -5.4 0.9 -14.6 1.3 -20.4 0.9 -13.8 1.9 -13.2 -20.9 -12.3 -13.8 0.5 -18 0.3 -21.4 -0.8 l-4.1 -1.5 -1.2 4.4 c-1.7 7.1 -4 23.3 -4 29.1 0 2.9 0.7 6.6 1.5 8.2 1.5 2.8 12.3 11.6 19.3 15.6 3 1.7 4.2 3.4 2.4 3.4 -0.4 0 -3 -1.4 -5.8 -3.1z"/>
  <path d="M394.4 338.7 c1 -0.7 5.2 -3.6 9.3 -6.4 7.4 -5.3 10.8 -6.8 8.3 -3.8 -2.1 2.6 -16.1 11.5 -17.8 11.4 -1.5 0 -1.4 -0.2 0.2 -1.2z"/>
  <path d="M384 338 c0 -1.2 0.9 -1.6 5.8 -2.4 3.9 -0.7 4.3 1.1 0.5 2 -1.6 0.3 -3.6 0.8 -4.5 1.1 -1 0.2 -1.8 -0.1 -1.8 -0.7z"/>
  <path d="M453.3 331 c-3.6 -1.5 -2.8 -3 0.9 -1.9 7.2 2 18.3 0.7 33.6 -4.2 9.3 -2.9 13.4 -3.7 11.6 -2 -1.4 1.3 -15.9 5.9 -23.9 7.6 -7.8 1.6 -18.8 1.9 -22.2 0.5z"/>
  <path d="M395.1 323.2 c0.5 -1.3 13.8 -11.2 15.1 -11.2 1.6 0 -0.2 1.9 -5.5 5.9 -6.3 4.6 -10.1 6.7 -9.6 5.3z"/>
  <path d="M394.5 305.3 c-7.4 -1.7 -15.5 -4.6 -15.5 -5.4 0 -0.6 0.8 -0.8 1.7 -0.5 0.9 0.4 5.4 1.6 10 2.8 4.6 1.1 8.3 2.4 8.3 2.9 0 0.9 -1.1 1 -4.5 0.2z"/>
  <path d="M409 303.1 c0 -1.1 6.1 -3.4 6.8 -2.6 0.9 0.8 -1 2.2 -4 2.9 -1.6 0.3 -2.8 0.2 -2.8 -0.3z"/>
  <path d="M454.5 237 c-0.3 -0.5 1.4 -2.2 3.7 -3.8 6.1 -4.1 6.8 -4.4 6.8 -3.4 0 1.5 -9.8 8.3 -10.5 7.2z"/>
  <path d="M440.2 224.7 c-6.9 -1.7 -11.9 -3.4 -11.4 -3.9 0.8 -0.8 21 3.5 24 5.1 3.6 2 -1.2 1.5 -12.6 -1.2z"/>
  <path d="M314.7 350.7 c-1.5 -2.6 -3.9 -6.7 -5.3 -9.2 -3.9 -6.9 -2.3 -7.7 1.8 -0.9 5.1 8.5 7 12.4 6.5 13.7 -0.2 0.6 -1.6 -1 -3 -3.6z"/>
  <path d="M282.6 307.3 c-10.9 -7.3 -23.1 -20.2 -21.1 -22.1 0.4 -0.4 1.4 0.4 2.3 1.8 2.8 4.5 14.9 15.7 21.1 19.5 3.4 2.1 6.1 4.2 6.1 4.6 0 1.6 -1.4 0.9 -8.4 -3.8z"/>
  <path d="M137.5 361 c-1 -1.1 -2.6 -2 -3.6 -2 -1 0 -2.1 -0.5 -2.4 -1 -0.4 -0.6 -2.2 -1.7 -4.1 -2.5 -3.7 -1.5 -4.5 -4.3 -1.9 -6.5 1.3 -1.1 2.5 -0.8 7 1.5 3 1.5 5.5 3.1 5.5 3.6 0 0.5 0.3 0.8 0.8 0.7 1.7 -0.5 5.2 1.5 5.7 3.3 1.4 4.4 -3.7 6.5 -7 2.9z m5.1 -1.1 c0.9 -1.6 -1.2 -3.3 -3.1 -2.5 -1.4 0.5 -1.5 0.9 -0.5 2.1 1.5 1.8 2.6 1.9 3.6 0.4z m-6.6 -4.4 c0 -0.8 -0.9 -1.5 -2 -1.5 -2 0 -2.6 1.1 -1.3 2.3 1.2 1.3 3.3 0.7 3.3 -0.8z m-6 -2.9 c0 -2.1 -2 -3 -3.3 -1.7 -0.9 0.9 -0.8 1.4 0.3 2.1 2.1 1.4 3 1.2 3 -0.4z"/>
  <path d="M132 341.5 c0 -0.6 8.7 -5 11.8 -5.9 4.7 -1.5 1.9 1.3 -3.9 3.8 -5.9 2.5 -7.9 3.1 -7.9 2.1z"/>
  <path d="M123.5 340 c-0.3 -0.4 1.6 -1.5 4.2 -2.4 5.5 -1.9 5.3 -1.9 5.3 -0.7 0 1.3 -8.8 4.2 -9.5 3.1z"/>
  <path d="M84.7 312.5 c-6 -0.7 -11.1 -1.6 -11.5 -1.9 -1.4 -1.5 1.2 -1.6 8.9 -0.5 11.5 1.6 29.8 1.4 38.9 -0.4 4.1 -0.8 7.9 -1.2 8.4 -0.7 0.9 0.9 -0.7 1.5 -8.5 2.9 -10.2 1.8 -25 2.1 -36.2 0.6z"/>
  <path d="M93 305.1 c0 -0.4 4.6 -1.1 10.3 -1.4 5.6 -0.3 11.2 -0.9 12.5 -1.2 1.2 -0.4 2.2 -0.3 2.2 0.3 0 0.5 -2 1.5 -4.4 2.1 -5.3 1.3 -20.6 1.5 -20.6 0.2z"/>
  <path d="M184.1 299.6 c-1.7 -2 -1 -6.7 1.2 -8 1.5 -0.9 2.1 -0.7 3.3 0.8 2 2.8 1.8 6.3 -0.5 7.6 -2.5 1.3 -2.6 1.3 -4 -0.4z m3.4 -3.6 c0 -1.3 -0.6 -2.5 -1.2 -2.7 -0.9 -0.3 -1.3 0.6 -1.3 2.7 0 2.1 0.4 3 1.3 2.8 0.6 -0.3 1.2 -1.5 1.2 -2.8z"/>
  <path d="M57.5 294.1 c-0.3 -0.6 1.1 -1.3 3.2 -1.6 7.1 -1.2 13.8 -3.7 20.6 -7.7 7.4 -4.3 11.3 -4.8 5 -0.6 -6.8 4.5 -14 7.8 -20.5 9.3 -7.5 1.8 -7.5 1.8 -8.3 0.6z"/>
  <path d="M55.4 280.1 c0.3 -0.4 2.9 -1.1 5.8 -1.5 8.4 -1.1 12.2 -2.6 17.4 -6.7 2.7 -2.1 5 -3.6 5.3 -3.3 0.8 0.8 -5.3 6.5 -8.9 8.4 -5.9 3 -21 5.4 -19.6 3.1z"/>
  <path d="M203.4 263 c0.4 -2.5 0.9 -9.4 1.3 -15.3 0.3 -5.9 1 -11 1.4 -11.3 1.3 -0.8 1.1 14.8 -0.2 22.5 -1.3 7.6 -3.6 11.3 -2.5 4.1z"/>
  <path d="M61.5 264 c-4.4 -0.4 -8.9 -1.5 -12 -3.1 -5.3 -2.6 -20.5 -16.3 -19.3 -17.4 0.4 -0.4 3.6 2.2 7.2 5.8 8.2 8.2 15.6 12 24.6 12.5 6 0.4 9.3 1.4 7.3 2.4 -0.4 0.2 -3.9 0.1 -7.8 -0.2z"/>
  <path d="M69.6 246.1 c-0.4 -0.5 -5.5 -3.6 -11.4 -6.9 -11.6 -6.5 -23.2 -14.6 -23.2 -16.2 0 -1.5 1.6 -1.2 3.1 0.6 2 2.5 11.4 8.6 21.3 13.9 9.9 5.4 15.2 9.4 12.4 9.5 -0.9 0 -1.9 -0.4 -2.2 -0.9z"/>
  <path d="M257 245.1 c0 -1.5 9.2 -14.1 10.2 -14.1 1.4 0 0.9 1 -3.8 7.6 -4.7 6.6 -6.4 8.3 -6.4 6.5z"/>
  <path d="M235 243 c0 -0.5 1.3 -1.9 2.9 -3.1 3.4 -2.5 10.7 -11.5 17.1 -20.9 2.4 -3.5 4.5 -5.9 4.7 -5.3 0.7 1.9 -9.4 16.1 -16.5 23.6 -6.3 6.4 -8.2 7.8 -8.2 5.7z"/>
  <path d="M265.5 241.8 c1.8 -5.4 8.5 -18.8 9.5 -18.8 0.7 0 1 0.4 0.8 0.8 -2.7 6.9 -9.4 20.2 -10 20.2 -0.5 0 -0.6 -1 -0.3 -2.2z"/>
  <path d="M223.7 241.4 c-0.3 -0.4 1.1 -2.9 3.3 -5.8 3.6 -4.7 9.8 -16.5 11.5 -21.8 0.6 -1.9 0.8 -2 1.2 -0.6 0.7 2.6 -5 15 -10.1 22.3 -5 6.9 -4.9 6.8 -5.9 5.9z"/>
  <path d="M60.4 216.9 c-1.1 -1.2 -7.1 -4.6 -13.4 -7.6 -12.6 -6.1 -26.2 -14.4 -24.4 -15 0.7 -0.2 3.1 0.9 5.5 2.5 6 3.9 14.1 8.2 21.9 11.5 7 3 15 9 13.3 10 -0.6 0.4 -1.9 -0.3 -2.9 -1.4z"/>
  <path d="M198 216 c0 -1 3.6 -2.9 8.8 -4.4 4.2 -1.3 2.2 1.1 -2.5 3 -2.7 1.1 -5.1 2.1 -5.5 2.2 -0.5 0.2 -0.8 -0.1 -0.8 -0.8z"/>
  <path d="M218.4 210.3 c0.3 -2.1 0.9 -6.4 1.3 -9.5 0.6 -6.1 2.3 -8 2.3 -2.7 0 5.1 -2.3 15.9 -3.3 15.9 -0.6 0 -0.7 -1.6 -0.3 -3.7z"/>
  <path d="M224 211.1 c0 -1.2 4.1 -6.3 4.7 -5.7 0.6 0.6 -2.9 6.6 -3.9 6.6 -0.4 0 -0.8 -0.4 -0.8 -0.9z"/>
  <path d="M198 205 c0 -1 8 -5 10.1 -5 2.3 0 0.5 1.7 -3.8 3.5 -2.6 1.1 -5.1 2.2 -5.5 2.3 -0.4 0.2 -0.8 -0.1 -0.8 -0.8z"/>
  <path d="M41 191 c-0.8 -0.5 -3.5 -1.8 -6 -2.8 -5 -2.1 -17 -10.8 -17 -12.3 0 -1.2 0.9 -0.7 7.9 4.4 2.9 2.2 8.2 5.2 11.7 6.8 3.5 1.6 6.4 3.4 6.4 3.9 0 1.2 -1 1.2 -3 0z"/>
  <path d="M218 345.6 c0 -0.8 0.5 -1.8 1 -2.1 0.6 -0.3 1 0.1 1 0.9 0 0.8 -0.4 1.8 -1 2.1 -0.5 0.3 -1 -0.1 -1 -0.9z"/>
  <path d="M214 344.3 c0 -0.5 0.4 -1.5 1 -2.3 1.1 -1.8 2.5 -0.7 1.7 1.5 -0.6 1.5 -2.7 2.1 -2.7 0.8z"/>
  <path d="M233 340.1 c0 -1 4.2 -2.3 4.9 -1.5 0.7 0.6 -2 2.4 -3.6 2.4 -0.7 0 -1.3 -0.4 -1.3 -0.9z"/>
  <path d="M230 338.1 c0 -0.8 4.3 -4.1 5.5 -4.1 1.6 0 0.1 2.2 -2.5 3.5 -1.6 0.9 -3 1.1 -3 0.6z"/>
  <path d="M270.5 318 c-2.5 -2.7 -1 -3.9 1.6 -1.3 1.2 1.1 1.7 2.3 1.1 2.7 -0.5 0.3 -1.7 -0.3 -2.7 -1.4z"/>
  <path d="M176 260.3 c0 -1.9 1.1 -4.3 2.1 -4.3 1.3 0 1.1 1.4 -0.6 3.6 -0.8 1 -1.5 1.4 -1.5 0.7z"/>
  <path d="M171 243.2 c0 -1.1 2.2 -3.2 3.2 -3.2 0.5 0 0.4 0.9 -0.2 2 -1.1 2 -3 2.8 -3 1.2z"/>
  <path d="M169 239.1 c0 -1.7 3 -7.4 3.6 -6.8 0.8 0.8 -0.7 5.6 -2.2 6.8 -1.1 0.9 -1.4 0.9 -1.4 0z"/>
  <path d="M167.1 228 c0.6 -1.6 1.5 -3 2 -3 1.2 0 1.1 1.7 -0.1 4.1 -1.7 3 -3 2.2 -1.9 -1.1z"/>
  <path d="M163 224 c0 -1.9 3.3 -7.5 3.7 -6.3 0.2 0.6 -0.3 2.5 -1.2 4.2 -1.6 3.2 -2.5 3.9 -2.5 2.1z"/>
  <path d="M160 220.1 c0 -1.7 4.3 -10.1 5.2 -10.1 1.2 0 1 0.6 -1.2 5.5 -2 4.3 -4 6.6 -4 4.6z"/>
  <path d="M159 212.6 c0 -1.9 4.2 -9.6 5 -9.1 1 0.6 -2.8 9.5 -4.2 9.5 -0.4 0 -0.8 -0.2 -0.8 -0.4z"/>
  <path d="M155.7 206.4 c-0.6 -1.1 4.1 -9.4 5.4 -9.4 1.4 0 1.1 0.6 -2 5.6 -1.5 2.6 -3.1 4.2 -3.4 3.8z"/>
  <path d="M152.1 202.8 c2.8 -5.2 6.2 -9.7 7 -9.2 1 0.6 -5.9 11.4 -7.3 11.4 -0.5 0 -0.3 -1 0.3 -2.2z"/>
  <path d="M150 194.5 c0 -1.5 5.2 -10.6 5.7 -10.1 0.8 0.8 -3.8 10.6 -4.9 10.6 -0.4 0 -0.8 -0.2 -0.8 -0.5z"/>
  <path d="M147 191.2 c0 -1.3 5 -10.1 6.1 -10.7 1.7 -1.1 0.9 1.6 -1.7 6.1 -2.6 4.4 -4.4 6.3 -4.4 4.6z"/>
  <path d="M145.6 179.3 c2.5 -5.8 4 -8 4.8 -7.2 0.7 0.7 -5.2 12.9 -6.3 12.9 -0.6 0 0.1 -2.6 1.5 -5.7z"/>
  <path d="M141 179.5 c0 -1.5 7.4 -14.8 7.7 -13.9 0.5 1.5 -5.5 14.4 -6.7 14.4 -0.6 0 -1 -0.2 -1 -0.5z"/>
  <path d="M139 171.5 c0 -1.5 6.4 -12.8 6.7 -11.9 0.5 1.4 -4.6 12.4 -5.8 12.4 -0.5 0 -0.9 -0.2 -0.9 -0.5z"/>
  <path d="M140 161.9 c0 -0.9 0.9 -2.7 2 -4 1.5 -1.9 1.9 -2 2 -0.8 0 0.9 -0.9 2.7 -2 4 -1.5 1.9 -1.9 2 -2 0.8z"/>
  <path d="M359 192 c0 -0.5 0.9 -1 2 -1 1.1 0 2 0.5 2 1 0 0.6 -0.9 1 -2 1 -1.1 0 -2 -0.4 -2 -1z"/>
  <path d="M354 188.3 c0 -1 13.1 -2.5 13.9 -1.7 1.1 1.1 -1.5 1.8 -7.4 2.2 -3.9 0.3 -6.5 0 -6.5 -0.5z"/>
  <path d="M347.6 183.1 c-0.7 -1.1 2.1 -2.9 6.5 -4.1 3 -0.9 18.4 0.7 21.2 2.1 2.8 1.6 2 3 -1 1.8 -3.5 -1.4 -23.2 -1.2 -24.9 0.2 -0.8 0.6 -1.4 0.7 -1.8 0z"/>
  <path d="M355 174 c0 -0.7 0.3 -1 0.7 -0.7 0.3 0.4 0.3 1 0 1.4 -0.4 0.3 -0.7 0 -0.7 -0.7z"/>
  <path d="M366 169.4 c0 -0.4 0.7 -1.2 1.6 -1.9 1.5 -1.1 1.5 -1.4 -0.1 -3.9 -2.3 -3.4 -1.2 -4.6 1.4 -1.5 2.3 2.8 2.6 5 0.9 6.7 -1.3 1.3 -3.8 1.6 -3.8 0.6z"/>
  <path d="M408.6 169.2 c-0.9 -1.5 0.4 -4.1 2.7 -5.3 1.5 -0.9 1.7 -1.3 0.7 -1.9 -0.7 -0.5 -1.9 -0.6 -2.7 -0.3 -2 0.8 -1.6 -2.1 0.8 -5.1 2.5 -3.1 4 -3.3 6.4 -0.6 2.3 2.5 1.2 3.9 -1.3 1.7 -1.4 -1.3 -2.1 -1.4 -3 -0.5 -0.9 0.9 -0.7 1.7 1.1 3.6 l2.2 2.4 -2.1 1.6 c-1.1 1 -2.5 2.6 -3.1 3.6 -0.6 1.1 -1.3 1.4 -1.7 0.8z"/>
  <path d="M350 167 c-2.7 -2.7 -2.5 -4.4 1 -9.4 3.6 -5 5.1 -9.8 4.3 -13.7 -0.6 -3.3 1.2 -4.1 2.2 -0.9 1.2 3.6 -0.6 9.7 -4.1 14.7 -4 5.6 -4.1 6.6 -1.2 8.5 1.4 1 1.8 1.7 1 2.2 -0.6 0.4 -2 -0.2 -3.2 -1.4z"/>
  <path d="M358 168.2 c0 -1.1 6 -3.5 6.8 -2.7 0.9 0.9 -1.1 2.3 -4 3 -1.7 0.4 -2.8 0.3 -2.8 -0.3z"/>
  <path d="M394 168.2 c0 -0.5 0.9 -1.7 2 -2.7 1.6 -1.4 2 -1.5 2 -0.4 0 1.6 -1.9 3.9 -3.2 3.9 -0.4 0 -0.8 -0.4 -0.8 -0.8z"/>
  <path d="M345 154 c0 -0.5 0.7 -1 1.6 -1 0.8 0 1.2 0.5 0.9 1 -0.3 0.6 -1 1 -1.6 1 -0.5 0 -0.9 -0.4 -0.9 -1z"/>
  <path d="M373.1 152.6 c-1.9 -2.3 0.4 -2.8 2.4 -0.6 1.5 1.7 1.6 2 0.3 2 -0.9 0 -2.1 -0.6 -2.7 -1.4z"/>
  <path d="M378.1 152.1 c-0.7 -0.5 -0.9 -1.1 -0.5 -1.4 1.3 -0.8 6.4 0.4 6.4 1.4 0 1.1 -4.1 1.1 -5.9 0z"/>
  <path d="M343 150 c0 -0.5 1.1 -1 2.5 -1 1.4 0 2.5 0.5 2.5 1 0 0.6 -1.1 1 -2.5 1 -1.4 0 -2.5 -0.4 -2.5 -1z"/>
  <path d="M345.9 146.9 c-1.9 -1.9 -1.9 -2.2 -0.5 -3.8 3.4 -3.8 1.1 -4.2 -3.2 -0.6 -3.6 3 -4.6 3.2 -3.2 0.5 2.8 -5.3 9.6 -6.1 12.6 -1.4 3 4.4 -2 9 -5.7 5.3z m3.1 -1.9 c0 -0.5 -0.4 -1 -1 -1 -0.5 0 -1 0.5 -1 1 0 0.6 0.5 1 1 1 0.6 0 1 -0.4 1 -1z"/>
  <path d="M363.7 147.3 c-0.7 -1.1 1 -4 1.8 -3.1 0.4 0.4 0.3 1.4 -0.3 2.4 -0.5 0.9 -1.2 1.2 -1.5 0.7z"/>
  <path d="M377.4 146.6 c-0.4 -1 -1.7 -1.2 -4.7 -0.8 l-4.2 0.5 1.6 -2.4 c2.6 -3.9 8 -7.1 10.9 -6.4 3.1 0.8 7 4.3 7 6.4 0 1.1 -0.7 0.8 -2.5 -1.2 -3.3 -3.5 -7.4 -3.6 -11.2 -0.2 l-2.8 2.6 3.6 -2.1 c2.9 -1.6 4.2 -1.8 6.3 -1 1.4 0.5 2.6 1.5 2.6 2.3 0 3.2 -5.5 5.2 -6.6 2.3z m2.8 -2.8 c-0.7 -0.7 -1.2 -0.8 -1.2 -0.2 0 1.4 1.2 2.6 1.9 1.9 0.2 -0.3 -0.1 -1.1 -0.7 -1.7z"/>
  <path d="M386 136.6 c-4.2 -1.5 -12 -2.7 -12 -1.8 0 1.4 -7.1 0.6 -8 -0.8 -2.4 -3.8 -0.2 -5.1 6.5 -3.8 12.9 2.4 18.5 4.5 18.5 6.9 0 1.1 -0.7 1.1 -5 -0.5z"/>
  <path d="M137 147.9 c-1.3 -2.4 -0.4 -4.1 1 -1.9 1 1.6 1.3 4 0.5 4 -0.2 0 -0.9 -0.9 -1.5 -2.1z"/>
  <path d="M140.3 147.3 c-0.3 -1 -0.8 -2.1 -1 -2.5 -0.2 -0.5 0.2 -0.8 1 -0.8 1.7 0 3 3.7 1.6 4.6 -0.5 0.3 -1.2 -0.3 -1.6 -1.3z"/>
  <path d="M120.5 124.9 c-2.7 -1.1 -6.2 -3 -7.6 -4.3 -3.4 -3 -6.5 -7.6 -5.1 -7.6 0.6 0 1.6 0.9 2.2 2 1.5 2.8 8.9 7.6 13.9 9 7 1.9 13.4 0.5 17.5 -3.8 2 -2 3.9 -3.3 4.3 -2.9 0.3 0.4 -0.9 2.3 -2.7 4.2 -5.6 5.7 -13.6 6.9 -22.5 3.4z"/>
  <path d="M125.8 108.3 c-5.3 -0.8 -2.8 -2.2 3.7 -2.1 6.6 0.1 8.4 1.1 4.3 2.2 -2.4 0.6 -3.4 0.6 -8 -0.1z"/>
  <path d="M154.2 108.3 c0.2 -0.5 1.2 -3.2 2.3 -6 1.9 -5.2 3.5 -6.9 3.5 -3.8 0 2.3 -4.1 10.5 -5.2 10.5 -0.5 0 -0.8 -0.3 -0.6 -0.7z"/>
  <path d="M118 101.8 c-4.1 -0.5 -7.7 -1.1 -7.9 -1.4 -1.4 -1.3 2 -1.4 12.2 -0.3 10.2 1.1 12.3 1 17.5 -0.5 5.8 -1.6 9.8 -1.4 8.6 0.5 -0.3 0.5 -0.9 0.7 -1.4 0.4 -0.4 -0.2 -3 0.2 -5.6 1 -5.4 1.6 -12.1 1.7 -23.4 0.3z"/>
  <path d="M152 99.6 c0 -2.3 -0.6 -3.8 -1.7 -4.5 -2.5 -1.4 -0.9 -2.5 1.6 -1.1 1.5 0.8 2.1 2 2.1 4.5 0 1.8 -0.4 3.7 -1 4 -0.6 0.4 -1 -0.8 -1 -2.9z"/>
  <path d="M98.1 100.2 c-1.3 -2.5 -1.5 -7.2 -0.2 -7.2 0.9 0 2.5 7.9 1.7 8.7 -0.2 0.3 -0.9 -0.4 -1.5 -1.5z"/>
  <path d="M104 97.7 c0 -1.7 4.8 -6.3 5.6 -5.4 0.3 0.3 -0.4 1.4 -1.5 2.4 -1.2 0.9 -2.1 2.3 -2.1 3 0 0.7 -0.4 1.3 -1 1.3 -0.5 0 -1 -0.6 -1 -1.3z"/>
  <path d="M127 93.1 c-0.8 -0.5 -3.3 -1.3 -5.5 -1.8 -3.6 -0.7 -4 -1.1 -4 -3.7 0 -1.6 0.6 -3.1 1.3 -3.4 0.9 -0.3 1.1 0.3 0.7 2.1 -0.6 2.2 -0.3 2.6 2.7 3.2 1.8 0.3 4.3 1.1 5.5 1.7 1.7 0.8 3 0.8 4.8 0 1.4 -0.7 3.7 -1.2 5.1 -1.2 2.2 0 2.4 -0.3 1.8 -2.7 -0.7 -2.6 -0.6 -2.7 1 -1.4 3 2.5 1.6 5.5 -2.9 6.4 -7.8 1.6 -9 1.7 -10.5 0.8z"/>
  <path d="M124 84.8 c0 -1.9 1.8 -4.3 2.5 -3.6 0.9 0.9 -0.4 4.8 -1.6 4.8 -0.5 0 -0.9 -0.6 -0.9 -1.2z"/>
  <path d="M85.7 84.4 c-0.3 -0.6 -0.2 -1.6 0.3 -2.4 0.5 -0.8 0.4 -2.2 -0.2 -3.3 -1.1 -2.1 -0.3 -3.6 1.1 -2.1 1.7 1.8 2.1 5 0.8 6.9 -0.8 1 -1.7 1.4 -2 0.9z"/>
  <path d="M132.6 79.5 c-0.3 -0.9 -0.6 -3.7 -0.6 -6.2 0 -4.1 0.5 -5.1 4.1 -8.5 2.2 -2.1 4.4 -3.6 5 -3.3 0.5 0.3 -1 2.3 -3.2 4.5 -3.8 3.6 -4 4.1 -3.8 8.9 0.3 5.3 -0.4 7.4 -1.5 4.6z"/>
  <path d="M143.8 78.3 c-3.2 -0.8 -2 -2.6 1.3 -1.9 1.7 0.3 3.5 0.6 4 0.6 0.5 0 0.9 0.5 0.9 1 0 1 -3 1.2 -6.2 0.3z"/>
  <path d="M110.3 77.4 c-2.5 -1.1 -1.2 -2 2.7 -1.9 2.2 0 3.8 0.5 3.7 1 -0.4 1.1 -4.5 1.7 -6.4 0.9z"/>
  <path d="M156 75.5 c0 -0.8 0.7 -1.5 1.5 -1.5 0.8 0 1.5 0.4 1.5 0.9 0 0.5 -0.7 1.1 -1.5 1.5 -0.9 0.3 -1.5 0 -1.5 -0.9z"/>
  <path d="M85.1 73.7 c-0.6 -0.8 -0.8 -1.7 -0.4 -2 0.7 -0.8 3.3 1.1 3.3 2.4 0 1.3 -1.6 1.1 -2.9 -0.4z"/>
  <path d="M94 74 c0 -1.3 2.8 -2.5 3.8 -1.6 0.3 0.4 0 1.1 -0.8 1.6 -2 1.3 -3 1.2 -3 0z"/>
  <path d="M144.7 71.9 c-1.4 -2 -1.6 -2 -2.5 -0.2 -1.2 2.1 -2.5 1.3 -1.6 -1.1 0.9 -2.3 5.2 -3.1 8.8 -1.6 1.7 0.7 4.4 1.3 5.9 1.3 1.6 0 2.6 0.5 2.4 1.1 -0.2 0.6 -2.2 1.1 -4.5 1.1 -2.2 0 -4.4 0.3 -4.8 0.8 -1.2 1.2 -2.2 0.8 -3.7 -1.4z"/>
  <path d="M125 71 c0 -0.8 -0.7 -2.7 -1.4 -4.2 -0.9 -1.7 -1.1 -3 -0.5 -3.4 1.5 -0.9 4.3 6.6 3 7.9 -0.8 0.8 -1.1 0.7 -1.1 -0.3z"/>
  <path d="M98 70 c-0.8 -0.5 -1.2 -1.2 -0.9 -1.5 0.8 -0.8 3.9 0.5 3.9 1.6 0 1.1 -1.1 1.1 -3 -0.1z"/>
  <path d="M105 70 c0 -1.5 6.1 -5 8.6 -5 2.5 0 7.2 3.5 6.2 4.5 -0.4 0.4 -1.5 0 -2.4 -1 -1.7 -1.6 -1.8 -1.6 -2.6 0.4 -0.8 2.3 -4.3 2.9 -5.1 0.9 -0.4 -1 -0.7 -1 -1.8 0 -1.6 1.5 -2.9 1.6 -2.9 0.2z"/>
  <path d="M137.7 68.5 c1 -1.3 2.4 -2.5 3.1 -2.5 0.9 0 0.8 0.7 -0.5 2.5 -1 1.3 -2.4 2.5 -3.1 2.5 -0.9 0 -0.8 -0.7 0.5 -2.5z"/>
  <path d="M100.1 66.6 c-1.3 -0.7 -2 -1.6 -1.5 -1.9 0.5 -0.3 2 0 3.3 0.7 1.3 0.7 2 1.6 1.5 1.9 -0.5 0.3 -2 0 -3.3 -0.7z"/>
  <path d="M151.5 65 c-0.4 -0.6 -3 -2.2 -5.8 -3.7 -3.4 -1.8 -4.6 -2.8 -3.5 -3.1 2.8 -0.6 11.8 4.7 11.8 7 0 1.1 -1.8 1 -2.5 -0.2z"/>
  <path d="M91.4 63.5 c0.3 -0.8 0.9 -2.3 1.2 -3.2 0.5 -1.7 0.5 -1.7 -0.6 0 -0.6 0.9 -1.6 1.5 -2.1 1.2 -1 -0.7 2.6 -6.5 4.1 -6.5 0.4 0 1 0.7 1.4 1.5 0.7 1.8 -2.1 8.5 -3.5 8.5 -0.6 0 -0.8 -0.7 -0.5 -1.5z"/>
  <path d="M107.2 61.4 c1.9 -2 4 -2.8 7.6 -3.2 6 -0.5 8.1 1.4 2.5 2.3 -2.1 0.3 -5.3 1.3 -7.1 2.1 -4.9 2.1 -6 1.7 -3 -1.2z"/>
  <path d="M87.7 55.3 c-0.6 -0.5 7.8 -9.3 8.9 -9.3 0.3 0 -0.3 1.4 -1.3 3.1 -2 3.4 -6.7 7.2 -7.6 6.2z"/>
  <path d="M139 50.3 c-5.9 -1.7 -11.2 -2.5 -17.2 -2.5 -9.4 -0.1 -11.6 -1.3 -4.4 -2.3 7.2 -1.1 30.3 3.6 32.1 6.5 0.9 1.4 -0.8 1.1 -10.5 -1.7z"/>
  <path d="M88 50.4 c0 -1.6 7.4 -12.3 8.2 -11.8 0.5 0.3 0 2 -1.2 3.7 -1.1 1.8 -2.8 4.4 -3.7 5.9 -1.7 2.6 -3.3 3.7 -3.3 2.2z"/>
  <path d="M132 43.1 c-2.5 -0.3 -4.3 -1 -4 -1.6 0.3 -0.5 1 -0.9 1.5 -0.8 0.6 0.1 3.6 0.4 6.8 0.8 3.1 0.3 5.7 1.1 5.7 1.6 0 1 -2.7 1 -10 0z"/>
  <path d="M94 34.1 c6.8 -7.8 10.4 -8.8 21.6 -6.1 12.5 3 19.2 3.4 24.4 1.6 2.4 -0.8 4.6 -1.3 4.9 -1 1 1 -1.8 2.5 -7.1 3.6 -4.7 1 -6.9 0.9 -14.4 -0.7 -4.9 -1 -11.8 -2.1 -15.3 -2.3 l-6.3 -0.4 -5.2 5.6 c-6.9 7.5 -9.1 7.2 -2.6 -0.3z"/>
  <path d="M134 28.1 c0 -1.3 -8.1 -5.1 -10.8 -5.1 -1.2 0 -2.2 -0.4 -2.2 -1 0 -2.4 9.4 0.2 13.2 3.7 2 1.8 2.3 3.3 0.8 3.3 -0.5 0 -1 -0.4 -1 -0.9z"/>
  <path d="M137.9 25.3 c-5.4 -5.8 -14.6 -7.7 -22.9 -4.8 -2.3 0.8 -5.8 1.5 -7.7 1.5 -2.3 0 -4.2 0.8 -5.9 2.5 -2.9 2.9 -3.4 3.1 -3.4 1 0 -2 5.8 -5.5 9 -5.5 1.4 0 5.4 -0.9 8.9 -2 6.9 -2.2 10.8 -1.8 18.1 2 4.2 2.2 8.5 6.6 7.2 7.4 -0.5 0.3 -2 -0.6 -3.3 -2.1z"/>
  <path d="M114.3 25.7 c-4.3 -1 -5.9 -2.8 -2.5 -2.6 3 0.1 13 2.4 13.8 3.2 1 1 -6.3 0.7 -11.3 -0.6z"/>
  <path d="M141.8 22.6 c-1 -1.3 -3.1 -3 -4.8 -3.7 -1.6 -0.8 -3 -2 -3 -2.7 0 -0.9 1.1 -0.7 3.9 0.8 3.7 1.8 7.1 5.4 7.1 7.2 0 1.5 -1.5 0.7 -3.2 -1.6z"/>
  <path d="M146 22.4 c0 -0.9 -1.4 -2.9 -3.1 -4.5 -3.6 -3.3 -3.3 -4.9 0.4 -2.5 3.4 2.3 6.1 8.6 3.7 8.6 -0.5 0 -1 -0.7 -1 -1.6z"/>
 </g>
 <g fill="#ffffff">
 </g>
</svg>