<?xml version="1.0" encoding="utf-8"?>
<!DOCTYPE svg PUBLIC "-//W3C//DTD SVG 1.0//EN" "http://www.w3.org/TR/2001/REC-SVG-20010904/DTD/svg10.dtd">
<svg version="1.0" xmlns="http://www.w3.org/2000/svg" width="50px" height="49px" viewBox="0 0 50 49" preserveAspectRatio="xMidYMid meet">
 <g fill="#1c1c24">
  <path d="M9.6 35.9 c-3.9 -3.1 -4.8 -6 -3.5 -12.2 1.6 -7.3 4.4 -12.4 8.2 -14.7 4 -2.5 4.3 -2.5 6.4 0 2.1 2.4 7.3 2.7 7.3 0.5 0 -2.6 4.7 -1.7 8.5 1.6 4.3 3.8 6.1 7.1 7.6 13.8 1.3 6.2 0.3 8.3 -5.1 11.1 -4.7 2.4 -7.8 2.6 -8.6 0.5 -0.5 -1.1 -2.2 -1.5 -6.4 -1.5 -4.2 0 -5.9 0.4 -6.4 1.5 -0.8 2.2 -4.9 1.8 -8 -0.6z m6.4 -0.7 c0 -0.4 -0.5 -1.3 -1.2 -2 -1.8 -1.8 -0.4 -2.3 3.1 -1.1 2 0.7 5.7 0.9 9.3 0.5 5 -0.5 5.9 -0.4 5.4 0.9 -0.9 2.5 1.1 2.7 5.4 0.5 3.4 -1.8 4 -2.5 4 -5.3 0 -5.5 -2.9 -12.4 -6.6 -15.7 -4 -3.5 -5 -3.7 -5.6 -1.2 -0.4 1.4 -1.4 1.6 -5.6 1.4 -3.6 -0.3 -5.2 -0.8 -5.2 -1.8 0 -1.8 -2 -1.8 -4.7 0.1 -2.7 1.9 -6.3 11.3 -6.3 16.5 0 3 0.6 4.3 2.6 5.9 2.7 2.1 5.4 2.8 5.4 1.3z"/>
  <path d="M16 28 c-2.5 -2.5 -2.5 -4.2 -0.1 -6.4 4.6 -4.1 10.7 1.8 6.6 6.4 -2.3 2.5 -4 2.5 -6.5 0z m5 -3.5 c0 -2.6 -1.8 -3.3 -3.7 -1.4 -1.6 1.6 -0.5 3.9 1.8 3.9 1.4 0 1.9 -0.7 1.9 -2.5z"/>
  <path d="M27.6 27.4 c-2.1 -2.1 -2 -3.7 0.3 -5.8 3.9 -3.5 8.5 0.1 6.3 4.8 -1.3 2.9 -4.3 3.4 -6.6 1z m4.8 -2.1 c0.9 -2.4 -0.9 -3.9 -2.9 -2.3 -1.2 1 -1.3 1.6 -0.4 2.6 1.5 1.9 2.5 1.8 3.3 -0.3z"/>
 </g>
</svg>