<svg width="268" height="428" viewBox="0 0 268 428" fill="none" xmlns="http://www.w3.org/2000/svg">
<path d="M84.865 2.61599C84.19 2.93299 75.737 -0.0510039 60.303 10.238C47.227 18.955 39.153 29.922 26.992 40.866C10.797 55.442 9.57601 71.058 8.43701 74.475" stroke="#1C1C25" stroke-width="2" stroke-miterlimit="1.5" stroke-linecap="round" stroke-linejoin="round"/>
<path d="M67.681 28.898C32.929 30.636 -12.211 79.488 4.64496 130.058C5.98396 134.074 4.91296 134.351 18.292 181.179C25.924 207.89 43.376 227.217 55.767 256.128C59.192 264.121 79.488 275.771 83.927 281.689C84.292 282.176 95.845 290.896 98.873 291.653C110.302 294.511 109.146 283.903 120.752 273.458C127.904 267.02 130.919 266.965 141.931 222.917C146.526 204.537 151.923 180.961 156.71 133.09C159.698 103.203 149.372 75.601 131.799 60.957C130.613 59.969 131.383 59.219 118.152 47.311C115.287 44.732 100.45 36.489 98.873 35.613C87.986 29.565 67.058 27.488 63.334 29.35" stroke="#1C1C25" stroke-width="2" stroke-miterlimit="1.5" stroke-linecap="round" stroke-linejoin="round"/>
<path d="M61.866 43.127C58.219 45.002 56.081 40.032 32.295 56.385C22.314 63.247 12.819 84.405 11.51 89.641" stroke="#1C1C25" stroke-width="2" stroke-miterlimit="1.5" stroke-linecap="round" stroke-linejoin="round"/>
<path d="M13.479 120.272C14.101 124.936 20.773 156.701 27.92 172.781C32.879 183.94 39.482 203.749 40.391 206.475C42.989 214.27 54.541 232.124 55.925 234.262C59.149 239.244 66.386 253.813 83.492 266.643C97.145 276.882 102.119 286.83 103.184 288.959" stroke="#1C1C25" stroke-width="2" stroke-miterlimit="1.5" stroke-linecap="round" stroke-linejoin="round"/>
<path d="M61.4199 43.26C95.4049 38.405 111.407 61.161 126.778 74.073C127.31 74.519 140.474 86.855 145.44 104.237C147.475 111.36 147.257 149.46 142.899 171.25C139.902 186.235 139.922 195.561 135.356 210.173C130.905 224.418 132.237 223.251 127.377 237.344C123.5 248.589 107.337 281.237 101.38 285.208" stroke="#1C1C25" stroke-width="2" stroke-miterlimit="1.5" stroke-linecap="round" stroke-linejoin="round"/>
<path d="M35.93 54.077C33.415 55.334 34.585 59.557 21.794 75.545C21.106 76.405 21.282 76.505 13.781 86.733C6.77104 96.293 9.54804 97.958 9.54804 109.637C9.54804 116.569 16.733 122.909 17.712 123.773C17.742 123.799 20.618 127.563 20.736 127.779C25.423 136.371 25.23 138.925 25.271 138.966" stroke="#1C1C25" stroke-width="2" stroke-miterlimit="1.5" stroke-linecap="round" stroke-linejoin="round"/>
<path d="M51.2081 114.27C47.8091 114.91 36.8381 122.297 36.3721 122.763" stroke="#1C1C25" stroke-width="2" stroke-miterlimit="1.5" stroke-linecap="round" stroke-linejoin="round"/>
<path d="M29.663 131.453C29.624 131.437 26.8541 134.31 25.8931 137.387C23.4221 145.292 25.8021 156.029 27.4551 159.15C31.1951 166.216 41.13 163.398 42.271 163.018C42.795 162.843 49.34 161.462 50.727 159.15" stroke="#1C1C25" stroke-width="2" stroke-miterlimit="1.5" stroke-linecap="round" stroke-linejoin="round"/>
<path d="M48.5879 151.624C48.2139 154.27 49.3538 158.901 53.1108 160.512C54.9668 161.307 55.0258 161.123 77.8128 165.68C92.5718 168.632 105.774 160.275 107.416 159.572" stroke="#1C1C25" stroke-width="2" stroke-miterlimit="1.5" stroke-linecap="round" stroke-linejoin="round"/>
<path d="M35.6809 164.248C43.5509 179.092 73.9049 179.965 79.2349 177.3C81.1079 176.363 88.5239 174.138 89.3409 173.893C91.7919 173.158 94.4539 173.01 94.9049 172.985" stroke="#1C1C25" stroke-width="2" stroke-miterlimit="1.5" stroke-linecap="round" stroke-linejoin="round"/>
<path d="M45.74 173.769C47.33 173.922 44.08 176.296 54.935 191.494C56.755 194.042 64.095 201.296 63.905 201.486" stroke="#1C1C25" stroke-width="2" stroke-miterlimit="1.5" stroke-linecap="round" stroke-linejoin="round"/>
<path d="M51.9119 187.244C54.2619 229.662 83.8269 266.653 83.9449 266.83" stroke="#1C1C25" stroke-width="2" stroke-miterlimit="1.5" stroke-linecap="round" stroke-linejoin="round"/>
<path d="M132.434 187.277C131.904 187.807 118.142 216.249 117.281 224.856C117.113 226.541 114.577 239.344 113.644 241.676" stroke="#1C1C25" stroke-width="2" stroke-miterlimit="1.5" stroke-linecap="round" stroke-linejoin="round"/>
<path d="M66.681 211.635C66.206 213.97 71.733 228.71 72.277 230.16C72.804 231.566 73.641 233.797 80.308 247.131" stroke="#1C1C25" stroke-width="2" stroke-miterlimit="1.5" stroke-linecap="round" stroke-linejoin="round"/>
<path d="M40.618 105.508C40.365 103.562 39.626 104.001 38.379 102.466C38.257 102.316 36.5319 101.136 36.3689 101.025C34.8429 99.98 29.922 98.519 28.417 98.403C19.779 97.739 17.994 99.308 13.125 101.986C13.099 102 10.2479 104.201 10.0229 104.651" stroke="#1C1C25" stroke-width="2" stroke-miterlimit="1.5" stroke-linecap="round" stroke-linejoin="round"/>
<path d="M40.5959 105.532C39.5849 104.864 27.4189 110.412 20.2909 108.714C14.5129 107.339 12.6889 103.692 12.3389 102.991" stroke="#1C1C25" stroke-width="2" stroke-miterlimit="1.5" stroke-linecap="round" stroke-linejoin="round"/>
<path d="M27.757 100.104C27.347 98.307 22.537 97.9551 23.524 101.243C24.499 104.493 30.246 101.662 27.587 99.8891" stroke="#1C1C25" stroke-width="2" stroke-miterlimit="1.5" stroke-linecap="round" stroke-linejoin="round"/>
<path d="M19.5178 99.49C18.6318 99.922 18.4178 103.725 19.0668 105.132C20.4498 108.127 20.9758 107.695 21.6008 108.321" stroke="#1C1C25" stroke-width="2" stroke-miterlimit="1.5" stroke-linecap="round" stroke-linejoin="round"/>
<path d="M34.3819 100.429C34.1389 100.369 35.7619 102.531 35.1889 105.394C35.1649 105.514 34.9559 106.559 34.7959 106.879" stroke="#1C1C25" stroke-width="2" stroke-miterlimit="1.5" stroke-linecap="round" stroke-linejoin="round"/>
<path d="M21.706 108.179C22.198 108.916 32.738 107.91 34.488 106.185C33.842 106.287 33.868 106.397 26.46 107.744C23.32 108.315 21.945 107.729 20.864 107.391C22.715 107.15 28.049 109.134 34.283 105.571C35.004 105.159 34.173 103.082 34.093 102.882C33.771 102.077 34.001 101.38 33.224 100.492C33.99 101.154 33.789 101.273 34.093 102.23C34.307 102.904 34.422 102.844 34.555 103.534C34.219 100.181 31.685 99.8449 31.675 99.8399C31.373 99.6809 29.25 98.5689 27.547 98.7309C28.124 99.2339 30.304 100.495 28.552 102.122C25.978 104.511 21.378 103.211 23.495 98.8089C19.346 98.9879 19.668 99.9569 19.615 100.546C19.032 106.953 21.038 106.955 22.06 106.93C24.039 106.88 29.393 107.922 33.387 105.354C33.663 105.176 33.92 104.293 33.949 104.194C29.777 106.36 24.534 106.59 22.548 106.142C21.152 105.826 20.215 105.425 20.919 105.816C22.296 106.581 29.329 107.441 33.088 104.756C33.947 104.143 33.499 103.382 32.843 103.67C32.131 103.983 31.047 105.049 31.784 104.865C33.223 104.505 34.16 102.696 33.224 101.687C33.137 101.594 31.727 99.6009 29.023 99.4269C29.192 99.7629 31.67 103.459 25.944 104.24C25.801 104.26 24.787 104.398 24.151 104.105C24.069 104.066 24.155 103.938 23.2 103.48H23.146C26.262 104.464 26.986 103.968 28.552 102.909C25.707 104.174 23.738 104.736 22.793 102.611C22.183 101.238 22.475 99.6329 22.521 99.3779C21.072 99.6539 20.12 99.3009 20.022 102.23C20.014 102.492 19.991 103.183 20.715 105.435C22.119 105.505 31.947 106.569 33.514 103.411C31.077 104.144 31.188 104.384 28.823 105.354C32.082 103.724 32.48 103.7 33.409 102.348C31.311 103.375 31.349 103.411 29.149 104.132C29.311 104.067 29.504 104.115 29.665 104.05C30.745 103.616 35.62 101.046 33.332 102.067C32.246 102.552 30.114 103.666 29.068 103.561C28.712 103.526 29.146 103.356 33.115 101.66C32.814 101.782 27.954 103.757 29.231 102.828C29.344 102.745 36.601 99.7109 31.078 101.823C28.24 102.908 31.59 100.764 31.675 100.709C30.549 101.007 30.078 101.029 29.937 101.035C30.182 100.725 30.427 100.415 30.672 100.106C30.593 100.137 29.422 100.886 30.211 99.7459C30.206 101.221 31.14 107.318 21.761 104.974C23.362 104.828 25.194 104.749 28.823 104.023C28.297 104.182 24.445 105.35 22.005 104.892C20.476 104.606 22.342 104.097 22.413 104.077C21.327 104.465 21.323 104.378 20.593 104.512C22.482 104.179 22.472 104.296 24.368 104.403C24.133 104.482 22.04 105.18 21.272 104.648C21.143 104.559 20.503 103.888 22.657 103.262C21.969 103.398 21.281 103.534 20.593 103.67C20.735 103.55 21.524 102.886 22.847 103.127C23.663 103.275 19.785 104.515 20.756 103.181C21.319 102.406 21.502 102.749 22.576 102.638C22.422 102.678 20.646 103.148 20.593 102.773C20.499 102.115 22.173 101.798 22.331 101.768C20.617 102.111 20.468 102.057 20.538 101.931C20.99 101.128 21.113 101.251 21.951 100.899C21.863 100.958 20.832 101.645 20.674 101.225C20.588 100.996 21.754 100.463 21.859 100.415C21.497 100.721 21.509 100.78 21.027 100.736C20.189 100.66 21.11 100.434 22.114 99.8129C22.035 99.8649 21.866 99.8989 21.706 100.111" stroke="#1C1C25" stroke-width="2" stroke-miterlimit="1.5" stroke-linecap="round" stroke-linejoin="round"/>
<path d="M46.1301 100.531C45.9141 100.679 43.8711 107.16 39.6241 111.672C38.4291 112.942 37.8531 113.777 37.1851 114.111" stroke="#1C1C25" stroke-width="2" stroke-miterlimit="1.5" stroke-linecap="round" stroke-linejoin="round"/>
<path d="M14.9849 111.905C15.2939 112.539 19.5479 117.027 25.1839 115.853C31.5999 114.516 30.9849 113.229 33.4299 111.517" stroke="#1C1C25" stroke-width="2" stroke-miterlimit="1.5" stroke-linecap="round" stroke-linejoin="round"/>
<path d="M37.7659 91.58C41.1339 93.825 43.4589 98.473 43.8059 99.167" stroke="#1C1C25" stroke-width="2" stroke-miterlimit="1.5" stroke-linecap="round" stroke-linejoin="round"/>
<path d="M34.751 94.147C31.15 90.3849 16.947 89.4489 11.375 100.594" stroke="#1C1C25" stroke-width="2" stroke-miterlimit="1.5" stroke-linecap="round" stroke-linejoin="round"/>
<path d="M33.838 83.286C31.227 80.705 24.286 82.441 23.481 82.642C18.737 83.828 17.2271 85.2 16.8521 85.45" stroke="#1C1C25" stroke-width="2" stroke-miterlimit="1.5" stroke-linecap="round" stroke-linejoin="round"/>
<path d="M33.729 72.8099C38.502 74.4509 39.365 78.0969 39.683 79.0519" stroke="#1C1C25" stroke-width="2" stroke-miterlimit="1.5" stroke-linecap="round" stroke-linejoin="round"/>
<path d="M38.7629 68.557C41.4079 69.438 46.3169 74.865 46.4959 78.269" stroke="#1C1C25" stroke-width="2" stroke-miterlimit="1.5" stroke-linecap="round" stroke-linejoin="round"/>
<path d="M62.714 91.558C62.37 92.346 63.299 92.548 60.443 102.067C59.733 104.434 57.623 108.494 57.083 108.926" stroke="#1C1C25" stroke-width="2" stroke-miterlimit="1.5" stroke-linecap="round" stroke-linejoin="round"/>
<path d="M139.154 107.581C135.256 108.556 131.829 99.5759 117.073 98.6819C102.274 97.7849 94.392 106.139 92.95 107.581" stroke="#1C1C25" stroke-width="2" stroke-miterlimit="1.5" stroke-linecap="round" stroke-linejoin="round"/>
<path d="M135.379 106.456C130.979 105.999 125.75 113.736 107.584 109.883C100.334 108.345 100.436 107.426 93.0089 107.817C92.9809 107.819 92.97 107.857 92.95 107.876" stroke="#1C1C25" stroke-width="2" stroke-miterlimit="1.5" stroke-linecap="round" stroke-linejoin="round"/>
<path d="M117.188 99.758C117.372 99.045 113.623 98.724 113.233 100.937C112.524 104.956 117.232 104.673 118.201 102.412C119.012 100.521 117.456 99.808 117.051 99.462C117.379 99.702 118.189 100.001 118.397 101.458C118.559 102.593 117.652 103.077 117.517 103.149C117.592 103.058 118.929 102.081 117.42 100.069C117.055 99.583 116.872 99.838 116.357 99.396" stroke="#1C1C25" stroke-width="2" stroke-miterlimit="1.5" stroke-linecap="round" stroke-linejoin="round"/>
<path d="M110.776 99.426C108.951 100.077 109.277 105.999 111.302 108.769C112.586 110.527 112.915 110.527 112.734 110.527" stroke="#1C1C25" stroke-width="2" stroke-miterlimit="1.5" stroke-linecap="round" stroke-linejoin="round"/>
<path d="M130.034 102.726C130.291 105.075 128.219 108.456 128.095 108.704" stroke="#1C1C25" stroke-width="2" stroke-miterlimit="1.5" stroke-linecap="round" stroke-linejoin="round"/>
<path d="M114.172 99.1819C114.056 99.0829 111.684 99.328 111.627 99.396C111.096 100.039 109.884 101.412 110.304 103.931C111.317 110.013 113.148 110.292 113.726 110.38C113.358 109.714 109.615 103.73 111.23 100.339C111.463 102.769 111.114 104.725 111.909 106.253C113.987 110.242 115.191 110.475 115.337 110.592C110.974 104.773 111.665 100.013 112.3 99.288C113.155 98.31 111.494 100.487 112.452 105.168C112.59 101.579 112.854 101.007 112.886 100.872C113.043 100.201 113.077 100.219 113.103 99.5269C112.866 101.495 112.74 101.469 112.604 103.454C112.619 102.602 112.632 102.622 112.647 101.761C112.821 104.485 113.803 107.139 114.101 107.511C114.388 107.87 113.622 104.656 113.406 103.454C113.476 103.866 113.894 106.337 114.708 108.509C115.898 111.683 114.23 107.277 113.71 104.56C114.493 107.334 114.475 107.322 115.359 110.071C115.981 112.005 116.753 109.292 116.415 108.723C113.288 103.459 111.533 101.196 114.426 106.947C115.337 108.806 115.31 108.807 116.357 110.592C115.368 107.468 114.624 107.696 114.24 104.431C114.351 104.852 114.709 106.21 116.314 109.464C116.104 109.104 114.165 105.779 114.491 104.582C114.691 103.85 115.535 107.467 117.225 110.614C115.541 106.732 115.605 106.708 115.274 105.115C116.756 109.031 117.637 110.295 117.919 110.7C115.795 105.68 115.854 105.67 115.468 105.081C115.439 105.038 115.35 105.143 115.007 104.629C116.94 104.311 117.337 104.854 118.375 103.193C119.841 100.848 117.081 99.794 117.876 99.396C118.129 99.27 122.228 99.9749 122.953 100.286C124.598 100.991 129.616 101.817 129.483 103.801C129.421 104.743 127.45 108.952 126.923 109.008C123.316 109.395 118.742 110.851 118.223 110.266C118.016 110.034 116.2 105.998 116.032 105.623C115.627 104.723 116.526 105.457 117.442 105.124C117.691 105.034 119.282 104.455 119.59 102.608C119.699 101.95 118.697 99.964 118.657 99.9C127.614 101.986 128.076 102.757 128.507 103.475C129.148 104.544 128.318 104.53 126.663 108.813C128.154 105.831 128.274 104.902 128.034 103.414C126.494 105.77 125.446 111.435 126.706 107.316C127.409 105.02 128.526 103.277 127.639 103.41C126.601 103.566 125.462 113.262 126.403 107.337C127.057 103.213 127.58 103.02 127.227 102.998C125.632 102.898 124.962 110.256 126.012 108.531C126.266 108.114 127.579 101.969 127.162 102.282C125.674 103.398 126.216 114.111 126.489 106.86C126.504 106.479 126.713 100.93 125.773 102.152C125.216 102.876 125.654 108.905 126.272 106.708C126.737 105.055 126.189 101.473 126.12 101.024C126.148 103.099 126.176 103.08 126.272 105.168C126.242 105.018 126.328 104.71 126.012 103.888C125.934 103.686 124.676 100.414 124.623 101.566C124.555 103.081 125.447 105.196 125.513 105.385C125.531 104.293 125.884 103.268 124.255 100.698C123.577 99.63 124.887 104.929 125.166 104.929C125.952 104.929 123.09 101.448 122.866 101.176C122.972 101.535 123.572 103.565 124.797 105.45C126.099 107.453 123.098 101.474 120.913 100.46C120.993 100.612 120.964 100.806 121.044 100.959C121.847 102.487 125.198 106.855 123.756 104.69C123.499 104.306 123.33 104.053 119.546 100.742C121.166 102.766 122.928 104.405 123.04 104.322C123.732 103.802 116.33 96.714 120.262 101.87C121.426 103.395 123.907 105.68 124.211 105.558C124.582 105.41 123.909 105.416 121.564 101.327C122.244 102.945 122.279 102.922 123.322 104.343C125.738 107.636 125.982 107.884 126.055 107.554C126.159 107.087 120.633 102.104 120.631 102.109C120.532 102.407 122.015 104.434 122.562 105.211C123.832 107.013 123.829 106.998 125.318 108.617C123.016 105.589 121.468 104.143 120.913 103.237C117.703 97.992 121.864 106.474 124.689 108.357C125.285 108.755 123.706 106.65 123.604 106.513C121.987 104.358 121.323 103.662 119.72 102.174C120.059 102.735 123.355 108.202 124.732 108.661C125.143 108.798 123.464 107.376 123.018 106.925C120.352 104.231 120.519 103.818 120.176 102.933C123.547 107.241 124.283 108.669 124.775 108.422C125.1 108.26 124.86 108.117 122.671 104.408C124.351 106.179 124.183 106.303 125.73 108.184C124.575 106.677 124.342 106.914 123.061 105.472C122.845 105.228 119.284 101.214 119.85 102.976C120.363 104.571 122.929 107.877 123.3 108.314C124.112 109.27 124.409 109.241 124.623 109.42C120.619 105.305 121.055 104.968 119.503 102.781C118.289 101.071 120.627 105.104 120.74 105.298C122.216 107.845 123.538 108.984 123.842 109.247C122.242 107.546 122.098 107.697 120.61 105.905C120.296 105.528 118.262 102.436 119.178 104.083C119.286 104.278 120.394 105.94 120.501 106.101C121.828 108.092 121.862 108.06 123.582 109.724C120.997 107.095 120.875 107.199 118.874 104.083C119.577 106.383 122.39 109.386 122.41 109.399C123.649 110.142 121.455 108.543 118.071 104.69C118.334 105.104 120.554 108.593 121.825 109.529C123.845 111.017 114.651 101.975 117.898 106.969C119.947 110.122 120.538 110.178 120.371 109.919C120.121 109.53 119.222 108.132 116.683 105.472C116.706 105.526 117.492 107.733 119.178 110.093C116.495 106.285 116.498 105.67 116.466 106.057C116.421 106.593 118.391 110.397 119.047 110.288C119.374 110.234 119.024 110.069 117.724 106.361C120.131 110.122 120.185 110.18 120.566 110.18C120.627 110.18 120.504 109.126 118.917 107.142C120.378 109.721 121.456 109.97 121.456 109.854C121.456 109.555 121.286 109.635 119.134 106.925C120.557 109.277 120.481 109.321 120.978 109.789C121.507 110.286 121.459 109.614 121.456 109.572" stroke="#1C1C25" stroke-width="2" stroke-miterlimit="1.5" stroke-linecap="round" stroke-linejoin="round"/>
<path d="M135.18 95.867C134.656 95.427 135.718 93.593 127.665 89.299C126.787 88.83 117.422 81.937 104.12 88.588C103.39 88.953 99.005 91.146 97.321 96.2" stroke="#1C1C25" stroke-width="2" stroke-miterlimit="1.5" stroke-linecap="round" stroke-linejoin="round"/>
<path d="M135.074 112.539C132.774 115.298 127.297 120.662 116.299 119.44C115.627 119.365 111.862 118.947 108.18 117.106" stroke="#1C1C25" stroke-width="2" stroke-miterlimit="1.5" stroke-linecap="round" stroke-linejoin="round"/>
<path d="M138.423 117.816C138.512 117.996 136.941 124.03 130.811 127.762C129.538 128.536 125.226 129.925 125.128 129.893" stroke="#1C1C25" stroke-width="2" stroke-miterlimit="1.5" stroke-linecap="round" stroke-linejoin="round"/>
<path d="M94.468 111.638C97.898 117.444 106.042 122.167 106.252 122.281C112.782 125.843 115.714 125.639 115.994 125.732" stroke="#1C1C25" stroke-width="2" stroke-miterlimit="1.5" stroke-linecap="round" stroke-linejoin="round"/>
<path d="M87.7369 94.157C87.1619 101.365 89.809 104.012 90.42 104.623" stroke="#1C1C25" stroke-width="2" stroke-miterlimit="1.5" stroke-linecap="round" stroke-linejoin="round"/>
<path d="M105.113 69.2839C104.163 69.6319 99.5379 71.3279 95.6969 77.7289C93.8919 80.7369 95.0169 81.1179 93.4639 84.2239" stroke="#1C1C25" stroke-width="2" stroke-miterlimit="1.5" stroke-linecap="round" stroke-linejoin="round"/>
<path d="M108.057 76.365C107.148 76.508 105.167 77.781 104.932 77.932C99.0501 81.713 99.6411 82.976 99.3511 83.615" stroke="#1C1C25" stroke-width="2" stroke-miterlimit="1.5" stroke-linecap="round" stroke-linejoin="round"/>
<path d="M74.9439 120.122C75.3439 117.101 61.9389 112.059 60.3799 115.177" stroke="#1C1C25" stroke-width="2" stroke-miterlimit="1.5" stroke-linecap="round" stroke-linejoin="round"/>
<path d="M117.019 143.014C115.076 141.071 97.867 132.385 82.325 134.976" stroke="#1C1C25" stroke-width="2" stroke-miterlimit="1.5" stroke-linecap="round" stroke-linejoin="round"/>
<path d="M112.102 150.807C111.895 149.753 107.628 145.737 96.075 141.886C87.373 138.985 87.11 140.297 84.158 139.559" stroke="#1C1C25" stroke-width="2" stroke-miterlimit="1.5" stroke-linecap="round" stroke-linejoin="round"/>
<path d="M105.853 156.047C104.871 153.862 98.423 148.784 87.19 145.976C82.444 144.79 82.441 145.051 82.042 144.918" stroke="#1C1C25" stroke-width="2" stroke-miterlimit="1.5" stroke-linecap="round" stroke-linejoin="round"/>
<path d="M93.359 156.534C93.152 156.225 91.388 152.359 83.876 149.855" stroke="#1C1C25" stroke-width="2" stroke-miterlimit="1.5" stroke-linecap="round" stroke-linejoin="round"/>
<path d="M84.1991 156.234C83.7161 155.021 83.492 154.66 81.619 152.957C79.75 151.258 79.6561 151.484 77.5291 150.066" stroke="#1C1C25" stroke-width="2" stroke-miterlimit="1.5" stroke-linecap="round" stroke-linejoin="round"/>
<path d="M33.573 154.147C33.018 154.518 32.968 154.449 30.283 157.47" stroke="#1C1C25" stroke-width="2" stroke-miterlimit="1.5" stroke-linecap="round" stroke-linejoin="round"/>
<path d="M29.3809 148.636C23.4539 149.461 15.8589 154.093 13.0769 159.656" stroke="#1C1C25" stroke-width="2" stroke-miterlimit="1.5" stroke-linecap="round" stroke-linejoin="round"/>
<path d="M28.1489 145.015C9.6139 146.541 4.66189 155.636 4.19189 156.342" stroke="#1C1C25" stroke-width="2" stroke-miterlimit="1.5" stroke-linecap="round" stroke-linejoin="round"/>
<path d="M29.0339 141.516C19.1179 136.489 4.90887 143.355 2.92188 145.342" stroke="#1C1C25" stroke-width="2" stroke-miterlimit="1.5" stroke-linecap="round" stroke-linejoin="round"/>
<path d="M52.5869 176.268C55.3909 177.84 53.7149 180.894 69.9039 185.876C71.3679 186.326 77.2649 191.709 85.1299 186.466C85.2079 186.413 85.8379 185.994 86.0739 185.758" stroke="#1C1C25" stroke-width="2" stroke-miterlimit="1.5" stroke-linecap="round" stroke-linejoin="round"/>
<path d="M83.7859 187.749C86.9389 190.307 87.5029 189.429 91.3849 193.311C91.7999 193.727 94.2179 196.144 97.2859 197.678" stroke="#1C1C25" stroke-width="2" stroke-miterlimit="1.5" stroke-linecap="round" stroke-linejoin="round"/>
<path d="M96.8679 182.08C97.5769 183.593 97.8849 183.54 99.0569 184.223C106.25 188.419 106.273 188.547 114.518 189.062" stroke="#1C1C25" stroke-width="2" stroke-miterlimit="1.5" stroke-linecap="round" stroke-linejoin="round"/>
<path d="M105.464 180.734C106.842 181.191 125.767 173.96 134.111 161.444" stroke="#1C1C25" stroke-width="2" stroke-miterlimit="1.5" stroke-linecap="round" stroke-linejoin="round"/>
<path d="M118.547 183.629C119.09 183.563 129.011 177.355 133.638 170.414C133.66 170.381 133.611 170.324 133.638 170.296C133.678 170.257 133.717 170.218 133.756 170.178" stroke="#1C1C25" stroke-width="2" stroke-miterlimit="1.5" stroke-linecap="round" stroke-linejoin="round"/>
<path d="M67.579 28.969C65.248 27.388 81.005 -25.309 124.438 18.125C127.09 20.776 188.645 50.709 204.962 181.251C208.685 211.029 217.344 239.702 165.739 267.49C152.869 274.42 141.224 277.638 131.452 282.036C124.423 285.199 114.99 285.609 113.528 285.672C113.357 285.68 113.528 285.672 111.45 286.192" stroke="#1C1C25" stroke-width="2" stroke-miterlimit="1.5" stroke-linecap="round" stroke-linejoin="round"/>
<path d="M51.6411 247.423C51.1681 247.281 28.1801 264.486 18.7111 292.894C12.2151 312.379 5.64506 320.76 2.88306 367.716C1.63806 388.869 6.48006 417.919 7.19906 422.235" stroke="#1C1C25" stroke-width="2" stroke-miterlimit="1.5" stroke-linecap="round" stroke-linejoin="round"/>
<path d="M57.0809 258.68C54.4109 260.722 30.8109 286.267 23.9869 330.625C18.3969 366.955 30.5499 385.806 34.3789 396.015" stroke="#1C1C25" stroke-width="2" stroke-miterlimit="1.5" stroke-linecap="round" stroke-linejoin="round"/>
<path d="M35.0859 317.01C33.5399 320.439 26.3369 379.244 41.7329 425.432" stroke="#1C1C25" stroke-width="2" stroke-miterlimit="1.5" stroke-linecap="round" stroke-linejoin="round"/>
<path d="M161.864 269.451C162.715 269.908 172.229 281.397 175.143 288.198C197.07 339.361 176.178 374.178 171.687 414.596C171.159 419.35 171.206 419.198 170.864 423.977" stroke="#1C1C25" stroke-width="2" stroke-miterlimit="1.5" stroke-linecap="round" stroke-linejoin="round"/>
<path d="M183.572 256.367C184.276 258.514 192.755 260.278 201.806 284.412C206.829 297.809 206.263 316.022 215.96 352.385C222.03 375.149 221.296 390.712 212.01 424.142" stroke="#1C1C25" stroke-width="2" stroke-miterlimit="1.5" stroke-linecap="round" stroke-linejoin="round"/>
<path d="M200.504 239.112C200.375 239.259 219.795 258.458 225.505 282.931C235.215 324.546 231.884 325.224 243.938 366.209C251.59 392.224 247.007 419.718 246.242 424.307" stroke="#1C1C25" stroke-width="2" stroke-miterlimit="1.5" stroke-linecap="round" stroke-linejoin="round"/>
<path d="M207.503 221.728C207.421 221.844 215.279 230.193 220.239 237.013C242.887 268.155 247.367 297.476 257.269 333.787C258.854 339.598 267.389 404.431 266.157 426.611" stroke="#1C1C25" stroke-width="2" stroke-miterlimit="1.5" stroke-linecap="round" stroke-linejoin="round"/>
<path d="M173.982 319.78C167.955 339.808 174.428 359.919 176.172 367.767C176.667 369.995 178.958 376.509 179.218 377.158" stroke="#1C1C25" stroke-width="2" stroke-miterlimit="1.5" stroke-linecap="round" stroke-linejoin="round"/>
<path d="M168.3 277.477C167.091 276.817 168.168 280.13 152.821 285.024C152.09 285.257 152.301 285.493 143.811 288.323" stroke="#1C1C25" stroke-width="2" stroke-miterlimit="1.5" stroke-linecap="round" stroke-linejoin="round"/>
<path d="M172.809 284.521C170.735 287.639 166.398 288.216 158.286 291.903" stroke="#1C1C25" stroke-width="2" stroke-miterlimit="1.5" stroke-linecap="round" stroke-linejoin="round"/>
<path d="M183.115 158.535C188.582 195.678 189.057 195.577 189.307 198.828C189.431 200.441 190.695 216.873 191.114 218.971" stroke="#1C1C25" stroke-width="2" stroke-miterlimit="1.5" stroke-linecap="round" stroke-linejoin="round"/>
<path d="M193.858 163.168C193.722 163.844 197.966 187.189 198.345 189.274C199.97 198.208 198.639 198.231 200.411 207.092" stroke="#1C1C25" stroke-width="2" stroke-miterlimit="1.5" stroke-linecap="round" stroke-linejoin="round"/>
<path fill-rule="evenodd" clip-rule="evenodd" d="M65.543 124.995C64.142 123.435 63.899 123.354 61.869 122.757C55.529 120.892 49.633 119.138 37.867 122.08C35.575 122.653 28.376 128.908 29.381 134.94C32.883 155.952 53.155 152.408 58.208 147.496C58.774 146.946 66.275 144.154 67.932 134.287C68.785 129.211 68.022 127.759 65.543 124.995Z" stroke="#1C1C25" stroke-width="2" stroke-miterlimit="1.5" stroke-linecap="round" stroke-linejoin="round"/>
<path d="M45.104 133.118C45.432 134.92 44.727 143.707 47.656 151.028" stroke="#1C1C25" stroke-width="2" stroke-miterlimit="1.5" stroke-linecap="round" stroke-linejoin="round"/>
<path d="M57.8979 132.49C56.6369 129.03 48.3249 131.183 52.3409 138.012C54.5649 141.791 62.2999 140.705 67.5959 135.408" stroke="#1C1C25" stroke-width="2" stroke-miterlimit="1.5" stroke-linecap="round" stroke-linejoin="round"/>
<path d="M57.9648 132.696C59.8358 134.005 57.8328 137.072 60.0988 137.751C63.1778 138.675 66.4679 135.966 67.6479 135.46" stroke="#1C1C25" stroke-width="2" stroke-miterlimit="1.5" stroke-linecap="round" stroke-linejoin="round"/>
<path d="M37.8729 132.343C36.4619 131.379 36.2119 130.921 35.0039 132.128C33.2649 133.868 37.8719 136.661 36.5139 139.105C36.4639 139.194 31.6289 141.111 29.9019 135.929C29.8469 135.764 29.8359 135.604 29.7449 135.513" stroke="#1C1C25" stroke-width="2" stroke-miterlimit="1.5" stroke-linecap="round" stroke-linejoin="round"/>
<path d="M37.8379 132.709C39.7129 133.681 40.3288 139.035 36.1488 140.355C30.8788 142.019 30.2929 137.728 30.0059 136.866" stroke="#1C1C25" stroke-width="2" stroke-miterlimit="1.5" stroke-linecap="round" stroke-linejoin="round"/>
<path d="M31.386 139.094C33.081 139.421 32.945 140.098 34.639 139.886C36.467 139.658 37.204 140.109 37.763 138.897C38.555 137.181 40.099 136.838 37.503 133.534C35.223 130.632 34.472 133.937 35.629 135.304C36.536 136.376 38.166 136.881 36.982 139.417C37.314 138.616 38.495 137.129 36.462 135.096C34.837 133.471 35.342 132.738 35.837 133.013C36.654 133.467 38.555 137.294 38.388 137.491C38.262 137.639 37.96 137.527 37.834 137.676C37.184 134.662 37.498 134.507 35.611 132.075C37.956 133.577 38.197 134.223 38.166 136.353C38.067 136.003 37.34 133.445 36.462 132.128" stroke="#1C1C25" stroke-width="2" stroke-miterlimit="1.5" stroke-linecap="round" stroke-linejoin="round"/>
<path d="M57.0898 132.268C52.5638 129.69 51.6039 134.726 51.6129 134.732C53.0089 135.663 54.9828 130.094 57.5158 132.75C54.3388 132.888 53.8279 132.049 52.3409 134.211C52.0489 134.636 51.4708 135.792 52.8618 135.096C54.8558 134.099 55.8079 131.654 57.8149 133.478C56.6639 133.61 54.1229 133.315 52.9139 134.523C52.0579 135.379 51.9519 135.476 52.4109 136.623C53.8749 132.479 54.5109 132.474 55.7889 132.176C52.8349 133.284 52.0219 133.293 52.3939 136.45C52.6049 138.251 54.7228 135.267 56.5328 133.455C51.5348 134.204 52.4979 138.498 53.7469 138.22C54.6779 138.013 52.6649 134.123 53.1219 136.866C53.2659 137.725 54.2269 139.221 55.1529 139.105C55.8999 139.012 53.0449 135.69 53.6949 137.855C54.4099 140.238 56.5798 139.566 56.7108 139.56C56.1918 139.339 55.6719 139.118 55.1529 138.897C55.4689 139.176 57.0769 140.595 60.4109 139.261C60.9029 139.064 61.4218 139.57 62.3948 138.485C61.6788 138.457 57.1818 138.907 57.7108 133.886C55.3308 134.6 55.4849 134.878 53.8509 136.71C55.0729 134.801 55.0528 134.817 56.8188 133.43C54.9968 134.831 55.0369 134.841 53.0699 136.033C53.3979 135.785 56.3369 133.559 57.6519 133.69C58.0219 133.727 58.0488 134.139 54.9008 137.441C54.9978 137.12 55.6939 134.809 57.7559 134.367C59.7179 133.947 53.6989 139.666 54.8409 136.241C55.1089 135.435 57.7718 134.335 57.9638 134.575C58.3678 135.08 56.0798 138.435 55.8698 138.744C55.8128 138.517 55.2808 136.39 57.2878 136.189C58.6238 136.056 55.7409 139.762 55.6739 138.689C55.5489 136.688 57.4059 136.422 57.7039 136.554C58.5049 136.91 55.6618 140.639 55.9858 138.532C56.1548 137.431 60.4159 136.418 57.7039 138.636C57.0319 139.186 56.7748 139.702 56.5068 138.897C56.3758 138.506 57.4409 138.442 59.6299 138.324C58.4529 138.795 58.4919 138.792 57.2249 138.95C58.7949 138.907 58.7969 139.053 60.2549 138.428C60.0619 138.547 59.7408 139.094 58.5368 138.793" stroke="#1C1C25" stroke-width="2" stroke-miterlimit="1.5" stroke-linecap="round" stroke-linejoin="round"/>
</svg>
