<?xml version="1.0" encoding="utf-8"?>
<!DOCTYPE svg PUBLIC "-//W3C//DTD SVG 1.0//EN" "http://www.w3.org/TR/2001/REC-SVG-20010904/DTD/svg10.dtd">
<svg version="1.0" xmlns="http://www.w3.org/2000/svg" width="1536px" height="1024px" viewBox="0 0 1536 1024" preserveAspectRatio="xMidYMid meet">
 <g fill="#000000">
  <path d="M1349 1013.8 c0 -1.5 9 -13.4 17.3 -22.9 20.1 -22.9 49.4 -39.8 80.4 -46.5 8.4 -1.8 30.5 -3.1 34.7 -2 5.8 1.4 2.2 2.6 -8 2.6 -26.9 0 -53.9 8.4 -77.6 24.2 -11.6 7.7 -29.2 24.8 -37.8 36.7 -6 8.2 -9 10.9 -9 7.9z"/>
  <path d="M1016 1012.7 c0 -3.9 11.8 -35.3 17.4 -46.5 3.8 -7.5 15.4 -26.8 19.4 -32.2 21.5 -29.2 54 -53.1 85.6 -63.1 l10.6 -3.3 0 -3.6 0 -3.7 -11.7 -0.6 c-22.1 -1.3 -37.7 -6.1 -51.7 -16.1 -6.7 -4.8 -16.1 -14.4 -20.3 -20.8 -1.8 -2.7 -3.1 -3.7 -4.2 -3.3 -6.2 2.4 -10.3 2.9 -15.8 1.7 -9.9 -2.1 -16.2 -8.1 -18.3 -17.6 -1.4 -6.4 0.6 -24.6 2.8 -24.6 1.2 0 1.3 1.3 0.6 7.3 -1.9 15.7 -0.6 21.7 5.9 27.4 4.9 4.3 11.6 5.9 18.5 4.5 3 -0.6 5.7 -1.3 5.9 -1.5 0.5 -0.6 -6.2 -12.3 -10.2 -17.6 -1.8 -2.5 -6.6 -7.7 -10.5 -11.6 -16.2 -15.8 -34.7 -38.3 -44.5 -53.9 l-4.9 -7.9 -1.7 8.6 c-3.7 18.9 -9.6 31.2 -24 50.8 -2.7 3.7 -4.9 7 -4.9 7.5 0 1.9 8.9 16.1 12.9 20.6 l4.2 4.7 7.2 -3.7 c10.3 -5.3 21.3 -16.4 26 -26.2 2 -4.1 4.4 -10.8 5.4 -14.8 0.9 -4 2.2 -7.1 2.7 -6.9 3.1 1 -3 20.5 -9.4 29.9 -5.5 8.3 -14.3 15.8 -23.2 20.1 -3.7 1.8 -6.7 3.5 -6.7 3.8 -0.2 1.4 13.6 12 17.6 13.6 6.8 2.8 5.7 4.6 -2.4 3.8 -11.1 -1.1 -21.9 -4.9 -30.3 -10.8 l-3.5 -2.5 -5 2 c-9.9 4 -33.2 3.2 -35.5 -1.1 -0.7 -1.4 0.3 -2.5 5.5 -5.9 3.4 -2.3 8.4 -6.1 11.1 -8.5 l4.8 -4.4 -10 -10.5 c-14 -14.8 -22.4 -30.6 -27.1 -50.9 l-1.7 -7.5 -9 4.6 c-17.5 8.8 -31.7 12 -47.1 10.4 -7 -0.7 -9.1 -1.3 -9.3 -2.5 -0.2 -1.2 0.7 -1.9 3.5 -2.4 7 -1.3 15.5 -6.7 24.3 -15.5 25.3 -25.2 38.2 -57 42 -103.5 0.5 -7.1 1.5 -28.7 2 -48 1.2 -41.2 2.3 -59.7 5.1 -83.5 1.9 -16.3 7.5 -54.7 9.9 -66.9 0.5 -2.9 1 -5.9 1 -6.5 0 -0.8 -16.6 -1 -60.7 -0.9 -65.5 0.3 -64.5 0.4 -67.1 -4.9 -1.3 -2.8 1 -23.5 8.9 -81.3 3.5 -26.1 4.8 -31.1 8.8 -34.9 l3.1 -2.9 29.2 -1.3 c95.3 -4.1 111.9 -4.6 112.5 -4 0.4 0.3 0.2 1 -0.3 1.5 -0.5 0.5 -19.1 1.7 -41.4 2.6 -101.1 4.1 -98.8 4 -101 6 -3.9 3.5 -5.1 10.5 -14 80.4 -4.2 32.4 -4.2 33.3 0.6 35.1 1.5 0.6 26.9 1 62.4 1 l59.8 0 3.2 -13.7 c12.1 -52.3 27.8 -91.9 49.6 -124.9 l8.2 -12.5 -3.7 0.5 c-4.2 0.7 -54.7 4.1 -83.1 5.6 -43.8 2.3 -69.8 4.1 -75.4 5.1 -9.6 1.7 -16.6 4.8 -21.9 9.8 -9.6 9 -12 15.9 -14.2 41.6 -2.8 31.4 -5.5 64.6 -8 97.8 l-0.6 7.7 66.1 0 c57.9 0 66 0.2 66 1.5 0 1.3 -8.3 1.5 -66.2 1.7 l-66.3 0.3 -0.7 11.5 c-0.3 6.3 -0.8 14.5 -1.1 18.1 l-0.4 6.6 15.3 0.5 c10.7 0.3 15.8 0.9 16.9 1.8 1.4 1.2 1.6 3.6 1.3 17.1 -0.3 13.6 -0.6 16.1 -2.1 17.6 -1.6 1.6 -3.8 1.8 -17.6 1.8 l-15.8 0 -0.9 13.6 -0.9 13.7 8.5 0.6 c4.7 0.3 21.3 1.1 37 1.6 35.4 1.2 69.5 2.8 77.8 3.6 4.4 0.4 6.2 1 6.2 2 0 1.7 3.8 1.8 -43.1 -0.5 -21.7 -1.1 -53.5 -2.5 -70.7 -3.2 -28.5 -1.2 -31.4 -1.1 -32.9 0.4 -1.2 1.2 -1.7 4.3 -2.1 14 -0.6 15.4 0.5 19.4 5.1 20.1 5.6 0.9 73.7 4.4 134.7 6.9 4.1 0.1 5.5 0.6 5.5 1.7 0 1.3 -2.4 1.4 -17.4 1.1 l-17.3 -0.4 0.7 7.4 c1.7 17.6 6.8 29.8 15.1 36.2 4.2 3.3 5.4 3.7 8.7 3.3 2.2 -0.2 5 -1.4 6.3 -2.7 2.7 -2.5 3.9 -2.1 2.9 1.1 -1.3 4 -6.6 5.3 -22.5 5.1 -18.1 -0.1 -27.7 -1 -31.2 -2.7 -1.5 -0.8 -4.7 -3.9 -7 -7 l-4.2 -5.6 -8.5 0.7 c-49.7 3.8 -75.4 8.6 -99.9 18.6 -17.4 7.1 -30 16.4 -31.8 23.4 -2.1 8.3 7.3 19 29.9 34.4 25.8 17.4 33.9 25.1 40.1 38.1 2.8 5.8 3.1 7.5 3.1 15.6 0 8.4 -0.2 9.5 -3.9 16.8 -7.2 14.7 -21.8 27.3 -47.3 40.9 -54.6 29 -134.6 52.5 -215.3 63.2 -24.9 3.3 -47.1 4.5 -82.2 4.5 -72.8 -0.1 -123.7 -5 -191.3 -18.5 -23.9 -4.8 -50.1 -9 -68 -11 -5.9 -0.7 -6.1 -0.6 -9.7 2.8 -3.6 3.4 -7.2 4.7 -13.3 4.7 l-3.2 0 -0.6 15.2 c-0.4 8.3 -0.7 22.2 -0.7 30.8 l0 15.7 4.1 1.2 c8.5 2.6 15 11.7 13.3 18.8 -3.3 13.9 -29.9 23.2 -62.9 21.9 -31.5 -1.1 -49.5 -9 -53.5 -23.2 -1 -3.6 -1 -5.1 0.1 -8.1 1.8 -4.7 8.9 -10.3 13 -10.3 l2.9 0 -0.2 -28.2 -0.3 -28.3 -8 -0.5 c-10.6 -0.7 -14.3 -2.8 -17 -9.7 -1.6 -4.1 -2.5 -5.3 -4.5 -5.5 -3.4 -0.4 -6 -5.8 -6 -12.4 0 -5.6 1.7 -7.9 6.6 -9.3 1.5 -0.4 2.8 -1.4 3 -2.3 0.6 -4.5 2.8 -8.9 6.3 -12.7 l3.8 -4.1 8 0 8 0 0.7 -5.2 c0.3 -2.9 0.6 -7.6 0.6 -10.3 0 -4.8 -0.2 -5.1 -3.7 -7 -7.5 -4.1 -9.8 -13.7 -4.6 -19.5 1.6 -1.7 3.8 -3.2 5.1 -3.3 2.3 -0.1 2.6 -0.7 3.7 -7.2 1.5 -9.1 8.4 -17.8 17.7 -22.5 3.4 -1.6 6.7 -3 7.4 -3 0.9 0 1.2 -0.9 0.8 -2.9 -1.8 -8.7 10.1 -15.3 21.8 -12.1 5 1.4 9.8 7 9.8 11.5 0 3.1 0.3 3.4 5 5 9.3 3.1 18.3 15.2 19.7 26.3 0.3 3.2 1 5.1 1.7 4.9 1.6 -0.6 6.3 2 8 4.5 0.9 1.2 1.6 4.1 1.6 6.4 0 4.7 -2.2 8.2 -7.5 11.4 l-3.5 2.2 0 9.7 0 9.8 3.4 0.1 c5 0.2 11.3 3 14 6.3 1.4 1.6 3.4 2.9 4.5 2.9 3.6 0 41.6 6.7 73.1 12.9 51.6 10.2 74 13.6 116 17.8 25.3 2.5 93.9 2.5 120.5 0 22.2 -2.1 49.8 -5.7 71 -9.3 60.1 -10.1 122.4 -28.9 164 -49.6 31.9 -16 43.1 -29.1 36.6 -43.4 -2.7 -6 -10.8 -13.4 -27.5 -25.2 -17.8 -12.6 -25.2 -19.3 -30.6 -27.5 -13.6 -20.7 -9.6 -39.2 11.3 -53.1 12.6 -8.4 29.3 -15.5 48.2 -20.6 l7 -1.9 -5.5 0 c-3 -0.1 -15.4 0.4 -27.5 0.9 -12.1 0.5 -47.9 1.9 -79.5 3 -31.6 1.1 -81.8 2.9 -111.5 4 -29.7 1.1 -69.1 2.4 -87.5 3 -66.6 2.1 -250.2 7 -262.5 7 -7.2 0 -6.5 0.7 5.8 5.1 4.8 1.8 8.7 3.7 8.7 4.3 0 0.7 -2.6 2.5 -5.8 4.1 -4.6 2.4 -7.2 3 -13.9 3.3 -11.9 0.6 -22.1 -2.9 -37.2 -12.5 l-5.4 -3.5 -31.1 0.1 c-17.1 0.1 -44.5 0.4 -60.8 0.7 -26.1 0.6 -29.8 0.5 -29.8 -0.8 0 -1.9 25.9 -2.8 81 -2.8 l37.5 -0.1 -2.5 -2 c-1.4 -1.2 -6.9 -6.3 -12.3 -11.5 l-9.7 -9.4 -13.3 -0.1 c-7.2 -0.1 -25.8 -0.2 -41.2 -0.2 -34.2 0 -39.5 -0.3 -39.5 -2.4 0 -1.4 4.9 -1.5 45.4 -1.1 l45.3 0.5 -13.8 -17.7 c-7.6 -9.7 -16.6 -20.5 -20 -23.9 -5.5 -5.5 -14 -11.1 -16.9 -11.1 -0.6 0 -1 6.3 -1 18 l0 18 -9.3 0 c-5.9 0 -9.7 -0.4 -10.5 -1.2 -0.8 -0.8 -1.2 -6.5 -1.2 -18.9 l0 -17.7 -7.8 2.4 c-8.8 2.7 -10.2 2.9 -10.2 1.1 0 -0.7 3.8 -2.4 9 -4 l9 -2.7 0 -7 0 -7 -3.3 0 c-1.9 0 -5.6 0.7 -8.3 1.5 -6 1.8 -6.4 1.8 -6.4 0.2 0 -1.6 5.9 -3.5 13 -4.4 4.4 -0.5 5 -0.9 5 -2.9 0 -1.3 1 -3.5 2.3 -4.9 2 -2.3 2.9 -2.6 9.1 -2.6 8.3 -0.1 9.6 1 9.6 8.3 0 4.4 0.2 4.8 2.8 5.4 9.9 2.2 15.3 3.8 19.8 5.8 6.8 3.2 17.5 13.4 35.4 34.1 8.2 9.4 17.7 19.9 21.3 23.4 l6.6 6.4 53.8 -0.7 c29.6 -0.3 62.1 -0.9 72.3 -1.1 10.2 -0.3 37 -1 59.5 -1.5 22.6 -0.6 47.1 -1.2 54.5 -1.5 7.4 -0.3 37.6 -1.2 67 -2 29.4 -0.9 66.6 -2 82.5 -2.5 47.5 -1.6 89.3 -2.9 136 -4 24.2 -0.7 54.6 -1.5 67.5 -1.9 12.9 -0.4 23.8 -0.6 24.2 -0.4 0.4 0.2 0.5 1 0.2 1.7 -0.4 1.1 -6.1 1.5 -27.2 2 -89.2 2.2 -145 3.7 -168.7 4.6 -14.8 0.6 -49.5 1.7 -77 2.5 -27.5 0.8 -57.9 1.7 -67.5 2 -82.6 2.6 -212.9 5.5 -251.5 5.5 l-23 0 5 4.5 c2.8 2.5 9.5 8 15 12.1 l10 7.6 28 -0.6 c15.4 -0.4 52.1 -1.3 81.5 -2.1 29.4 -0.8 71.5 -1.9 93.5 -2.5 39.4 -1.1 116.6 -3.6 199 -6.5 23.1 -0.8 55.3 -1.9 71.5 -2.5 94.4 -3.2 130.8 -5.1 149.2 -7.5 10.2 -1.4 25 -2.8 32.8 -3.1 l14.2 -0.7 -0.6 -3.6 c-0.3 -2 -0.8 -6.1 -1.2 -9.1 -0.6 -5.5 -0.6 -5.5 -4.3 -5.7 -2 -0.1 -13.9 -0.7 -26.6 -1.3 -27.6 -1.3 -38 -2.4 -40 -4 -2.5 -2 -3.5 -8 -3.5 -20.1 0 -12.3 1.1 -17.3 4 -18.9 1 -0.6 5 -1 8.9 -1 l7.1 0 0 -4.3 c0 -5.2 3.8 -73.1 4.5 -80.7 0.3 -3 0.7 -9.5 1 -14.5 0.9 -15 3.4 -46 9 -112.5 1.7 -19.5 3.4 -27.4 7.2 -33.8 6.5 -11.2 15.6 -17.1 30.7 -20 l8.6 -1.6 0 -33.9 0 -33.9 -9.5 0.7 -9.5 0.7 0 -15.1 c0 -14.8 0 -15.1 2.3 -15.5 1.2 -0.3 9.6 -1.2 18.7 -2.1 9.1 -0.9 36.5 -3.9 61 -6.6 24.5 -2.7 45.3 -4.9 46.3 -4.9 1.6 0 1.7 -2.2 1.7 -33 0 -24.9 0.3 -33 1.2 -33 3.7 0 14.8 -11.6 14.8 -15.5 0 -0.8 -2.6 -1.5 -6.7 -1.9 -3.8 -0.4 -8.4 -1.2 -10.4 -1.8 -4.6 -1.3 -8.4 0.5 -13.1 6.4 -23.7 29.8 -35.2 44 -38.1 47.3 -3.2 3.5 -3.6 3.7 -3.7 1.8 0 -1.3 3 -5.9 7.3 -11.1 3.9 -4.9 12.7 -15.8 19.5 -24.1 6.7 -8.3 12.2 -15.3 12.2 -15.5 0 -0.2 -2.4 -0.6 -5.2 -0.8 -2.9 -0.2 -6 -0.7 -6.8 -1.1 -1.1 -0.5 -6.5 5.7 -19.9 22.5 -10.2 12.8 -18.1 23.3 -17.5 23.5 5.8 2 10.4 8.2 10.4 14.2 0 4.9 -5.4 10.2 -11.1 10.8 -6.4 0.7 -10.5 -1.6 -13.1 -7.4 -3.4 -7.8 -0.7 -14.8 6.6 -17.3 1.8 -0.6 4.6 -3.1 6.6 -5.8 1.9 -2.5 10.6 -13.6 19.4 -24.5 8.7 -10.9 15.6 -20 15.4 -20.3 -0.3 -0.2 -9 0.9 -19.4 2.5 -10.4 1.6 -22.5 3.5 -27 4.1 -8 1.2 -8.1 1.2 -9.3 4.8 -5 14.1 -16.8 26.6 -32.6 34.5 -7.4 3.7 -14.1 5.7 -27.7 8.3 -19.4 3.6 -24.6 10 -22.7 27.9 0.4 4.4 0.8 13.3 0.8 19.7 0.2 25.3 -7 34.8 -38.5 51.8 -8.7 4.7 -18.3 10.3 -21.4 12.6 -9.9 7.2 -15.7 16.7 -18.4 29.6 -1.9 9.1 -3.2 12.8 -4.6 12.8 -1.5 0 -1.2 -2.5 1.4 -13.1 5.2 -20.9 13.2 -29.8 39.1 -43.4 25.5 -13.4 34.4 -21.5 38 -35 1.6 -5.7 1.7 -8.7 1 -23.3 -1.1 -22 -1 -24.6 1.6 -29.9 2.9 -5.9 7.7 -8.9 18.5 -11.4 4.9 -1.2 12.5 -3 16.8 -4 13 -3.1 21.8 -8.1 31.7 -17.9 5.9 -5.8 9.5 -10.4 11.5 -14.4 1.5 -3.3 2.4 -6.1 1.9 -6.3 -2.8 -0.9 -7.6 -4.5 -9 -6.7 -0.9 -1.4 -1.9 -4.3 -2.2 -6.5 -0.5 -3.6 -0.2 -4.4 3 -7.6 3 -3 4.2 -3.5 8.2 -3.5 9.6 0 18.8 -2 21.9 -4.8 4.5 -4.3 7.6 -11.7 7.6 -18.7 0 -7.8 -2.3 -12.7 -8.9 -19.1 -3.2 -3.2 -4.8 -5.4 -4.2 -5.9 2.5 -1.5 11.7 7.8 14.6 14.9 1.9 4.6 1.9 15.7 0 20.3 -0.9 2 -2.7 5.2 -4.1 7 -2.2 2.9 -2.3 3.3 -0.7 3.3 1 0 14.8 -1.8 30.8 -4 15.9 -2.2 29.4 -4 30 -4 0.5 0 -0.7 -1.4 -2.8 -3.1 -2 -1.7 -3.7 -3.6 -3.7 -4.4 0 -1.4 7.2 -3.5 12.2 -3.5 1.9 0 5.4 1 7.8 2.2 10.8 5.5 13.6 24.5 4.6 31.5 -1.4 1.2 -2.6 2.3 -2.6 2.6 0 1.2 16.5 2.9 22.4 2.2 14.5 -1.5 19.1 -6.9 19.1 -22 0 -8 -0.3 -9.7 -3.2 -15.7 -3.6 -7.7 -10.1 -15.1 -15.4 -17.9 -5.5 -2.7 -18.7 -6.2 -21.4 -5.5 -2.4 0.6 -4.3 -1.8 -2.4 -3 1.6 -1 11.7 0.6 18.3 2.8 8.2 2.7 13.9 6.9 18.8 13.9 3.1 4.3 4.7 5.8 5.9 5.4 13 -4.2 23.3 -6 27.9 -5 4.1 0.9 9.7 5.9 11.5 10.3 2.9 6.7 1.4 18 -2.8 22 -1.5 1.4 -7.8 3.6 -19.6 6.7 -9.5 2.5 -19.4 5.6 -21.9 6.9 -6.1 3.1 -14.7 4.8 -22.3 4.5 l-6 -0.3 -2.5 4.5 c-3.1 5.3 -6.8 9.3 -11.1 12.1 l-3.3 2 0 31.2 0 31.2 4.3 -0.4 c26.8 -2.4 47 -5 47.8 -6.3 0.5 -0.8 0.9 -10.5 0.9 -21.6 l0 -20.3 -11 0 c-9.1 0 -11 -0.3 -11 -1.5 0 -1.2 1.9 -1.5 11 -1.5 l11.1 0 -0.2 -11.6 -0.1 -11.5 -3.2 0.7 c-1.7 0.3 -7.3 1.9 -12.4 3.5 -8.5 2.6 -12.2 2.9 -12.2 0.9 0 -0.4 1 -1 2.3 -1.3 1.2 -0.3 7.6 -2.1 14.2 -4.1 6.6 -2 12.5 -3.4 13.2 -3.2 1 0.4 1.3 4 1.3 13.7 l0 13.1 28.3 -0.5 c15.5 -0.3 28.4 -0.6 28.6 -0.6 0.2 -0.1 0.1 -14.4 -0.2 -31.9 -0.5 -35.1 -1 -38.5 -7 -46.4 -2 -2.7 -5.3 -5.3 -9 -7.2 -6.1 -3 -8 -6.1 -2.9 -4.7 5 1.5 8.8 3.9 12.4 7.9 8.2 9.1 8.9 12.4 9.8 50.7 0.4 17.6 0.8 32 0.9 32 0.1 0 4 0 8.8 0 6 0 8.8 0.4 9 1.3 0.4 0.9 -3.8 1.2 -18.4 1.4 -10.3 0.1 -20.1 0.3 -21.8 0.4 -1.6 0.1 -11.1 0.2 -21 0.3 l-18 0.1 -0.4 21.6 -0.3 21.6 3.9 -0.6 c2.1 -0.3 26 -3.1 53.2 -6.1 27.2 -3 49.5 -5.6 49.6 -5.7 0.6 -0.7 1.4 -50 1.5 -89.1 0 -33.8 0.3 -42.8 1.3 -42.4 0.9 0.3 1.2 14.7 1.2 67.5 0 37 -0.2 67.2 -0.5 67.3 -0.3 0 -2.5 0.3 -5 0.5 -7.5 0.7 -67.2 7.2 -105 11.4 -19.5 2.2 -47 5.1 -61 6.5 -29.2 3 -113.4 12.2 -119.7 13.1 l-4.3 0.6 0 11.4 c0 6.2 0.3 11.5 0.8 11.7 0.9 0.7 15.5 -0.6 165.4 -14.3 l88.6 -8.1 15.4 -10.2 c45.6 -30.3 102.2 -52 154.8 -59.4 18.3 -2.5 67.5 -2.5 85.5 0 26.5 3.8 51.4 10.6 66.7 18.3 7 3.5 7.1 3.5 22.2 3.8 12.7 0.3 16.6 0.7 24.6 3 12.1 3.4 32.9 13.5 44.5 21.7 21.2 15 51.5 49.4 51.5 58.5 0 2.5 -0.6 1.9 -4.6 -4.6 -15.3 -24.8 -41.3 -49 -66.3 -61.8 -20.9 -10.8 -34.8 -14.4 -53.6 -14.1 l-11 0.2 -10 -4.6 c-28.7 -12.9 -64.8 -19.7 -105 -19.7 -46.7 0 -83.1 7.2 -128 25.3 -37.5 15 -70.2 33.9 -99.3 57.3 -25.7 20.6 -57.6 56.5 -78.2 88.1 -9 13.7 -23.4 42.8 -29.9 60.4 -11.4 30.7 -20.5 67.6 -27.1 109.9 -7.6 48.6 -9.5 70.9 -11 125.5 -1.2 42.6 -2.1 56.6 -5.1 73.9 -3.7 22.1 -13.5 46.8 -24.6 62.5 -6.6 9.2 -19.5 22.4 -26.3 26.9 -3.2 2 -6.6 4.3 -7.6 5 -1.6 1.1 -0.4 1.2 7.3 0.8 12.5 -0.6 23.1 -3.7 37 -10.7 12.1 -6.1 13.2 -6.3 13.3 -1.3 0 3.2 4.7 18.9 8 26.7 3.7 8.9 9.8 19.1 14.4 24.2 l3.7 4 -2.6 -5.2 c-7.2 -15 -11.1 -39.8 -10.1 -65 1.1 -30.2 1.8 -33.5 10.1 -52.8 18.8 -43.2 26.7 -69.5 31.7 -105 1.9 -13.4 1.6 -60.8 -0.5 -75.8 -2.9 -20.6 -1.9 -54.1 2.3 -78.2 6.6 -37.3 25.9 -77.6 58.4 -121.5 9.3 -12.6 37.7 -40.9 54.6 -54.4 23.9 -19 48.4 -34.5 69.3 -43.8 21.4 -9.5 50.6 -17.7 75.7 -21.4 13.6 -2 48.1 -2.6 48.7 -0.8 0.2 0.8 -5.6 1.3 -18.9 1.7 -29.7 0.9 -53 5.1 -81.9 14.8 -36.3 12.1 -68.9 32 -107 65.4 -30.8 27.1 -57.1 62.6 -76.9 103.8 -16.1 33.6 -21.7 58.1 -22.6 99.2 -0.4 19.4 -0.3 21.7 0.9 19.5 0.8 -1.4 2.3 -6.1 3.2 -10.5 2.4 -10.9 11.6 -39.3 17 -52.1 12.7 -30.3 34.5 -67.7 52.7 -90.6 11.3 -14.2 44.4 -46.9 61.7 -61 23.3 -19 49.6 -36 71.5 -46.4 11.1 -5.2 31.8 -12.4 44.6 -15.4 10.1 -2.3 42.1 -7.2 42.9 -6.5 0.2 0.3 -0.2 3.9 -0.8 8.1 -1.6 9.6 -1.6 26 -0.1 34.4 6.2 34.1 30.5 68.5 64.4 91.1 9 6.1 20.5 12.4 21.2 11.7 0.7 -0.8 -10.6 -24.2 -17.2 -35.6 -7.3 -12.6 -15.6 -25.2 -21.1 -31.9 -3.5 -4.3 -2.9 -7.1 0.8 -3.7 5.7 5.1 26.6 39.2 34.3 55.9 4.9 10.4 14.9 35.3 19.3 48 21.3 60.8 51.8 110.9 87.6 143.7 28.5 26.2 37.6 37.3 48.2 59.3 18.3 37.9 21.9 85 9.9 131.4 -5.2 19.9 -16 44.6 -26.8 61 -3.1 4.7 -5.4 8.6 -5.2 8.8 0.8 0.8 21.3 -27.5 26.5 -36.4 21.7 -38.1 29.7 -83.9 22.1 -127.8 -4.7 -27.3 -12 -47.1 -32 -86 -28.9 -56.4 -33.2 -67.4 -66.5 -170.5 -8.2 -25.6 -10.4 -31.4 -19.5 -51.3 -22.9 -50.1 -56 -90.5 -89.6 -109.3 -3.5 -2 -6.4 -4 -6.4 -4.5 0 -1.8 3.3 -0.8 10.1 3.1 35.7 20.9 68.5 62.5 92.4 117.5 7.7 17.5 11.8 29.3 23.5 66.6 20.8 66.3 30.2 89.9 57.4 144.3 10.5 21 20.6 42.4 22.5 47.6 1.8 5.2 3.7 10.4 4.1 11.5 1.2 2.9 1.2 -25 0 -46.1 -4.3 -74.2 -18 -142.7 -41.5 -207.4 -15.4 -42.4 -30 -71 -50.2 -97.7 -19.7 -26.4 -40.5 -42.9 -64.3 -51.3 -7.5 -2.7 -9.5 -3.9 -8.2 -5.2 1.1 -1.1 13.1 3.1 22.7 8 34.7 17.4 68.2 60.2 92.4 117.9 33 78.6 51.6 171.7 52.7 263.3 0.3 29 0.5 32.7 3 46.5 2.4 13.1 2.7 17.6 2.8 36 0 17.7 -0.4 22.8 -2.3 32.9 -8.9 46.9 -28.1 80.7 -66.2 116.6 -16 15.1 -21.6 19.5 -33.7 26.8 -13.4 7.9 -13.9 11 -3.4 18.7 12.1 8.8 30.2 10.6 46.6 4.4 12.7 -4.7 30.2 -19 41 -33.4 7.9 -10.5 17 -26.4 22.1 -38.9 6.9 -16.6 6.4 -15.7 6.4 -11.2 0.1 6.7 -11.3 30.9 -22.1 46.9 -2.2 3.2 -7 9 -10.6 12.9 -5.2 5.5 -6.1 6.9 -4.2 6.3 7.7 -2.4 23.1 -12.2 31.9 -20.4 2.4 -2.3 4.6 -4.1 4.8 -4.1 0.2 0 0.3 1 0.1 2.2 -0.4 2.8 -12 12.6 -21.3 18.1 -3.8 2.2 -10.5 5.3 -14.7 6.8 -4.2 1.4 -9.8 4.2 -12.5 6.2 -2.7 1.9 -8.4 5.5 -12.8 7.8 -4.4 2.3 -8.1 4.3 -8.2 4.4 -0.2 0.1 1.7 2.3 4.2 4.9 23.3 24.2 49 70.1 61.9 110.3 2.8 8.9 3.6 12.8 3.5 18.5 l-0.1 7.3 -1.3 -6.4 c-8.9 -41 -37.9 -97.4 -64.3 -125.1 l-7.7 -8.2 -8.3 1.3 c-15 2.3 -30.5 -2 -39.9 -11.1 l-4.3 -4.1 -10.1 9.1 c-53.3 47.8 -153.9 102.1 -213.5 115.2 -13.1 2.9 -34.2 3.1 -42.5 0.6 -19.3 -6 -28.4 -24 -23.4 -46.3 2.2 -10.1 9.3 -23.8 16.2 -31.4 3 -3.4 5.2 -6.1 4.9 -6.1 -1.7 0 -16.4 5.9 -23.7 9.6 -20.4 10.2 -42.7 28.3 -57.5 46.8 -7.5 9.4 -18.4 26.6 -24.7 39.3 -4.6 9.1 -13.6 32.2 -15.8 40.6 -0.7 2.6 -1.9 4.7 -2.6 4.7 -0.7 0 -1.3 -0.6 -1.3 -1.3z m-906 -53.2 c16 -2.6 29.1 -8 33.4 -13.8 2.6 -3.6 2.6 -9.9 -0.1 -13.5 -2 -2.8 -8.8 -7.2 -11 -7.2 -0.8 0 -1.3 1.4 -1.3 3.5 0 8.6 -10.4 12.5 -35 13.2 -19 0.6 -30.2 -0.9 -39.8 -5.2 -6.2 -2.8 -8.2 -5.3 -8.2 -10.2 0 -2.2 -0.3 -2.4 -2.7 -1.8 -3.9 0.9 -8.1 4.2 -9.9 7.6 -3 5.9 0.6 14 8.3 19 13.2 8.3 43 12.1 66.3 8.4z m1067.5 -5 c13.2 -2.1 27.2 -6 42.5 -11.6 48.2 -18 93.4 -42.1 140.6 -75 27.8 -19.3 50.9 -39.7 48.1 -42.5 -0.2 -0.3 -2.5 0.4 -5 1.5 -9.9 4.3 -25.2 6.6 -35.4 5.5 -8.1 -0.8 -8.1 -2.6 -0.1 -4.8 10.4 -2.9 16.4 -6.4 25.1 -14.6 19.9 -18.9 32.7 -53.7 35.2 -95.5 0.4 -6.6 0.5 -11.8 0.2 -11.5 -0.3 0.3 -3.3 6.1 -6.8 13 -11.8 23.3 -33.7 53.7 -51.4 71.6 -10.8 10.9 -28.6 24.5 -29.3 22.4 -0.2 -0.6 2.6 -4.2 6.3 -8.1 10.8 -11.5 30.6 -39.1 39 -54.4 l3.8 -7 -10.7 10.7 c-22.5 22.4 -54.1 44.7 -92.5 65.3 -37.8 20.3 -83.6 35.6 -115.4 38.5 -6.7 0.6 -14.1 1.3 -16.3 1.6 l-4.2 0.5 1 4.2 c1.6 6.8 0.3 33.9 -2.1 42.9 -2.3 8.8 -5.9 17.8 -7.2 17.8 -1.4 0 -1.1 -1.7 1.6 -9.2 1.4 -3.8 3.2 -10.8 4 -15.5 1.8 -10.3 2 -28.3 0.4 -28.3 -0.7 0 -4.2 3.1 -7.9 6.9 -5.1 5.2 -7.9 9.2 -11.4 16.2 -10.3 21 -10.3 37.4 0 48.8 9.8 10.9 25.2 14.3 47.9 10.6z m-1062 -17.4 c6.2 -1.8 11.3 -4.2 11.9 -5.6 0.2 -0.7 0.8 -33.1 1.2 -72.1 0.7 -69.3 0.7 -70.7 -1.2 -70 -10.7 4.2 -51 5.6 -66.8 2.3 -4.4 -0.9 -8 -1.6 -8.1 -1.4 -0.1 0.1 -0.5 4.5 -0.9 9.8 l-0.6 9.6 4.2 1.2 c6.1 1.7 13.2 7.2 16.4 12.7 2.2 3.7 2.8 6.3 3.2 12.4 0.8 14.7 -4.4 24.3 -15.2 27.5 -2.7 0.8 -5.8 1.5 -6.8 1.5 -1.7 0 -1.8 1.7 -1.8 31.4 0 17.3 0.3 32.2 0.6 33.1 1.2 2.9 12 7.1 22.9 8.8 5.4 0.9 36.9 -0.1 41 -1.2z m348 -59.1 c93.9 -5.6 213.7 -40.3 270.5 -78.3 11.8 -7.9 21.3 -18 25.7 -27.3 3.4 -7.1 3.8 -8.7 3.8 -15.9 0 -7 -0.4 -8.9 -3.3 -14.9 -3.9 -8.4 -15.4 -20.1 -28.3 -29.1 -4.8 -3.3 -12.8 -8.9 -18 -12.5 -15.6 -10.9 -23.8 -20.6 -23.9 -28.4 -0.1 -15.7 29.7 -32 75 -41.2 11.3 -2.3 35.3 -5.1 58.3 -6.9 7.5 -0.6 8.7 -0.9 8.2 -2.3 -0.3 -0.9 -1.3 -3.8 -2.2 -6.5 l-1.6 -5 -13.6 0.6 c-31.3 1.5 -66.6 7.7 -91.2 16.3 -19.8 6.8 -31.9 13.4 -41.2 22.3 -9.2 8.8 -11.7 18.5 -7.8 30.2 4.1 12.5 12.8 22.6 29.1 33.9 23.3 16.2 30.7 22.7 34.5 30.4 9.9 19.9 -10 38.2 -65.6 60.4 -78.6 31.4 -176 49.2 -269.4 49.2 -55.8 0 -99.5 -5 -179 -20.5 -37.8 -7.4 -69.4 -12.9 -70 -12.3 -0.3 0.2 0 2 0.6 3.9 1.3 4.3 1.4 17.4 0.1 21.6 l-1 3.1 6.1 0.7 c18.2 2 44.3 6.2 70.6 11.5 29.4 5.8 52.6 9.6 77.6 12.4 15.7 1.8 53.2 4.5 67 4.9 27.5 0.7 73.9 0.6 89 -0.3z m-418.7 -19.4 c8.3 -9.5 7.1 -36.4 -1.9 -44.1 -3.2 -2.6 -7.6 -3.2 -10.9 -1.5 -2 1.1 -6.3 7.8 -7.4 11.6 -0.6 1.9 -0.1 2.2 3.2 2.7 4.8 0.8 8.2 4.4 8.9 9.4 0.7 5 -2.8 9.4 -8.7 11.2 -3.8 1.1 -4.1 1.5 -3.5 3.9 1.6 6.5 6.5 10.1 13.6 10.2 3 0 4.3 -0.7 6.7 -3.4z m17 0.6 c6.4 -2.9 10.2 -10.5 10.2 -20.2 0 -11.2 -5.4 -19.8 -14.9 -23.8 -8.6 -3.7 -13.9 -3.8 -9.6 -0.2 2.1 1.8 5.5 11.4 6.1 17.9 0.8 7.3 -1.1 18.8 -4.1 24.7 l-2.3 4.5 5.7 -0.7 c3.1 -0.3 7.1 -1.3 8.9 -2.2z m82 -4 c5.8 -2.6 7.7 -7.8 7.7 -20.7 0 -9.5 -0.4 -11.6 -2.3 -15.3 -2.4 -4.5 -7.1 -7.4 -14.1 -8.8 l-3.1 -0.6 0 24.1 0 24.1 4.3 -0.6 c2.3 -0.4 5.7 -1.3 7.5 -2.2z m1019.2 0.8 c43.6 -3.8 88.7 -19.4 137 -47.2 50.2 -29 88.3 -61.5 99.8 -85.1 10.2 -20.9 18 -51.1 22.4 -86.7 0.9 -6.9 1.3 -22.6 1.3 -45.5 -0.1 -42.5 -1.6 -56.4 -10.7 -100 l-3.2 -15 -6.2 -8.7 c-16.1 -22.3 -34.4 -58.9 -47.4 -94.5 -1.7 -4.7 -2.8 -6.3 -4.1 -6.3 -1.1 0 -7.9 -2 -15.2 -4.4 -13.5 -4.4 -29.7 -12 -42.2 -19.6 -29.4 -18 -50 -44.9 -57.1 -74.5 -4 -16.8 -3.2 -16.2 -10.2 -6.5 -3.4 4.7 -8.3 11.3 -10.8 14.8 -20.8 28.5 -64.4 60.5 -106.1 77.8 -10.8 4.5 -34.1 12.4 -36.5 12.4 -4.5 0 -0.6 -3.3 15 -12.5 33.6 -20 51.9 -33.4 70.6 -51.5 18.6 -18 36.1 -41.2 45.7 -60.2 3.9 -7.7 4.1 -9.1 1 -6.5 -7.1 6 -31.9 20.4 -78.6 45.7 -57.9 31.4 -76.8 44.4 -105.8 72.9 l-14.9 14.6 -10.8 22 c-6 12.1 -13.2 28.4 -15.9 36.2 -6.2 17.5 -12.2 39.6 -10.7 38.9 7.3 -3.1 13 -4.1 24.6 -4.1 14.5 0 20.8 1.5 33.9 7.6 12.7 5.9 17.4 9.3 23.6 17 12.1 14.9 18.4 30.2 20.5 49.4 2.9 26.4 -3.8 53.1 -19.7 77.8 -6.5 10.2 -10.1 18.1 -10.8 24.2 -1.1 8.1 0 11 4.8 13.8 2.3 1.4 7.6 5.2 11.7 8.5 4.1 3.3 9.9 7.1 12.7 8.6 5.9 2.9 15.9 5.6 21.5 5.6 4.4 0 5.9 1.7 2.4 2.6 -4.5 1.1 -16.8 -1.5 -24.1 -5.1 -25.1 -12.5 -29.4 -15.8 -31.5 -23.7 -2.5 -9.1 -0.2 -18 8.6 -32.5 15.3 -25 20.5 -39.7 22.1 -62.3 l0.6 -9.5 -4.7 4.2 c-7.5 6.6 -16.8 8.9 -24 5.9 -5 -2.1 -11.7 -8.5 -13.8 -13.4 -2.4 -5.3 -1.7 -11.4 1.7 -14.8 1.3 -1.3 2.1 -2.4 1.9 -2.6 -0.9 -1 -16.6 1.2 -21.8 3.1 -7.1 2.5 -13.5 6.7 -14.9 9.8 -1.4 3.1 0.6 7.4 5.4 11.7 6.3 5.7 11.5 7.9 20.2 8.4 9 0.5 10.2 2.5 1.8 3 -6.9 0.4 -14.5 -1.9 -20.5 -6.2 -5.3 -3.7 -10.6 -10.7 -10.6 -13.8 0 -1.5 -0.8 -1.8 -5 -1.8 l-5 0 0 8.9 c0 12.4 -2.2 27.7 -7.6 53.6 -4 19 -4.7 24.2 -5.1 37.6 -0.7 21.4 1.9 33.9 11.9 57.9 14.6 34.6 27.8 53.9 59.9 87.5 11.2 11.7 15.5 17 19.1 23.6 17.1 30.6 38.7 45.9 69.3 48.8 11.8 1.2 21.6 1.2 34.5 0.1z m-1136.5 -11.1 c8.2 -3 9.6 -6.9 4.5 -12.1 -2.8 -2.8 -3.5 -3 -8.1 -2.6 -2.8 0.3 -5.7 1.2 -6.6 2.1 -3.2 3.2 -0.7 14.7 3.2 14.7 0.8 0 3.9 -0.9 7 -2.1z m961 -13.2 c-11.4 -8.3 -23.5 -23.3 -30 -37.2 -5.7 -12.1 -7 -17.8 -6.9 -32 0 -13.7 1.8 -21.6 10 -44.1 5.3 -14.6 10.4 -31.8 10.4 -35.1 0 -1.2 -1.2 -6.4 -2.6 -11.5 -2.2 -7.9 -2.7 -11.9 -3.1 -26.3 l-0.5 -17 5.2 -25.4 c6.2 -30.6 8 -43.2 8 -57.3 0 -10.1 -0.2 -11.3 -4.5 -23.7 -4.5 -12.8 -7.3 -20.1 -7.8 -20.1 -0.1 0 0 9.8 0.1 21.8 0.8 49.4 -7.4 85.7 -32.8 144.7 -7.4 17 -7.9 18.6 -9.1 29.5 -1.9 17.4 -1.7 49.4 0.4 61 5 27.3 16.4 46.6 36.1 61.3 9.2 6.7 13.9 9.3 21.6 11.8 7.4 2.4 9.1 2.3 5.5 -0.4z m397 -2.8 c26.2 -3.6 56.7 -22.7 76 -47.4 25.4 -32.5 40.7 -69.2 45.5 -108.5 1.3 -11.1 1.3 -37.2 -0.1 -48.5 -1.5 -12.5 -5.9 -29.2 -10.9 -41.9 -7.9 -19.6 -23.4 -42.5 -36.7 -54.3 l-6.6 -5.8 0.7 3.5 c2.5 12.1 3 17.8 3 38 0.1 40.6 -7 83.2 -20.3 122.9 -3.3 9.8 -4.5 14.8 -3.8 15.3 1.6 1 -0.7 32 -3.3 44.8 -6.2 29.9 -20.7 60 -33 68.7 -6.7 4.8 -4.4 4.6 5.3 -0.4 7.2 -3.7 11 -6.5 17.2 -12.8 22.7 -22.8 36.9 -55.6 44.9 -104 4.5 -27.6 7.2 -55.4 8.2 -86.7 0.5 -14.4 1.1 -20.7 1.8 -20.5 1.4 0.5 1.2 33.7 -0.4 53.2 -2.7 33.4 -9 72.8 -14.6 91.5 -9.6 31.6 -23 55.1 -40.5 71.4 -7.6 7 -19.2 13.3 -35.4 19.2 -9.7 3.5 -9 4 3 2.3z m-433.7 -4.4 c2.9 -0.9 5.2 -1.9 5.2 -2.3 0 -0.4 -2.9 -3.6 -6.4 -7.1 l-6.5 -6.4 -5.1 4.6 c-2.8 2.6 -7.1 5.9 -9.5 7.4 -2.5 1.5 -4.4 3.1 -4.5 3.5 -0.1 2 20.3 2.2 26.8 0.3z m418.5 -36.4 c9.8 -10.4 24.6 -29.4 36.2 -46.7 17.2 -25.6 32.1 -64.7 39.5 -103.9 6.8 -35.9 9.6 -74.4 7 -95.5 -0.5 -4.1 -1.3 -10.4 -1.6 -13.8 l-0.7 -6.4 -11.7 -11.6 c-6.4 -6.5 -14.3 -15 -17.5 -19 -3.2 -4 -5.9 -7.1 -6 -7 -0.2 0.2 0.8 5.3 2.1 11.3 2.9 13.1 6.8 36.7 8.6 52 0.8 7 1.3 23.7 1.3 46 -0.1 30.4 -0.4 37.1 -2.3 51.2 -6 44.4 -16.5 75.7 -37.2 110.7 -5.8 9.9 -19 29.1 -26.2 38.4 -7 8.9 -2.8 6.1 8.5 -5.7z m-1265.8 1.9 c14 -1.2 21.1 -2.5 27.2 -5.1 9.8 -4.2 12 -10.4 5.9 -16.5 l-3.4 -3.4 -3.4 3.4 c-6.4 6.4 -20.9 9.1 -44.3 8.3 -22.5 -0.8 -36.5 -4.1 -36.5 -8.7 0 -2.7 -2.6 -2.5 -5.5 0.5 -3.4 3.3 -3.3 8.4 0 12.3 4.3 5.1 13.8 8 30.5 9.2 15.5 1.1 16.5 1.1 29.5 0z m866.8 -17.8 c3.1 -4.6 7 -11.8 8.7 -16 3.7 -8.7 8 -24.9 8 -29.8 0 -1.8 0.4 -3.6 1 -3.9 0.6 -0.4 -0.2 -2.9 -1.9 -6.3 -2.6 -5.2 -9.7 -21.6 -11.6 -26.7 -0.5 -1.5 -1.4 0.4 -3.5 7.5 -1.6 5.2 -4.9 15 -7.5 21.8 -9.6 25.6 -12.1 41.5 -9.2 56.7 0.8 4.4 2 9.3 2.6 10.9 l1.1 2.8 3.4 -4.3 c1.8 -2.4 5.8 -8.2 8.9 -12.7z m-852.3 -1.1 c3.6 -1.1 7.6 -2.8 8.9 -3.7 2.1 -1.5 2.3 -2.2 1.8 -7 -1.1 -10.7 -9.8 -22.4 -18.6 -25.4 -3.3 -1.1 -4.8 -1.1 -8.8 0.1 -6.7 1.9 -18 1.6 -22.1 -0.5 -3.2 -1.6 -3.5 -1.6 -8.5 0.7 -2.9 1.3 -6.9 3.8 -8.8 5.5 -4.9 4.3 -9.7 13.6 -10.5 20.4 -0.6 5.1 -0.5 5.7 1.7 7.2 9.3 6 48.9 7.7 64.9 2.7z m-16.7 -39 c5.2 -2 2.8 -9.9 -3.9 -12.7 -6.7 -2.8 -15.9 -1 -18.4 3.5 -3.8 7.1 1.8 11.4 13.5 10.6 3.4 -0.2 7.3 -0.8 8.8 -1.4z m72.9 -85.2 l4.2 -2.1 -5.5 -2.3 c-24.9 -10.1 -47.8 -29.3 -80.6 -67.5 -22.7 -26.5 -28 -30.7 -43.3 -34.5 -3.6 -0.9 -7.3 -1.9 -8.2 -2.1 -1.6 -0.5 -1.8 0.3 -1.8 6 0 4.8 0.3 6.4 1.2 6.1 1.9 -0.7 10.5 4.5 16.7 10.1 2.9 2.6 11.6 12.9 19.4 22.8 22.2 28.7 45.4 50.5 62.9 59.3 13.1 6.6 27.1 8.2 35 4.2z m701.1 -13.1 c-7.1 -7.4 -11.3 -18.9 -12.8 -35 l-0.7 -7.7 -7.2 -0.5 c-3.9 -0.3 -11.5 -0.8 -17 -1.2 l-9.8 -0.6 0.7 6.3 c2 17.9 9.2 34.4 17.3 39.7 2.5 1.6 11 2.6 27.7 3 l5.9 0.2 -4.1 -4.2z m-839.5 -77.5 l-0.3 -30.8 -5.8 -0.3 c-3.5 -0.2 -6.4 0.2 -7.3 0.9 -1.1 0.9 -1.4 6.4 -1.4 30.4 0 16 0.3 29.5 0.7 29.8 0.3 0.4 3.7 0.7 7.5 0.7 l6.8 0 -0.2 -30.7z m958.9 -24.3 c4.4 -3.9 11.9 -7.7 19 -9.5 6.8 -1.8 23 -2 30.5 -0.4 6.4 1.4 16.9 6 21.5 9.5 3.7 2.8 3.7 2.8 2.2 -4.8 l-1.1 -5.6 -10.7 -5.1 c-12.3 -5.9 -21.1 -8.1 -33.2 -8.1 -14 0 -27 5.2 -30.8 12.3 -1.6 3 -3.1 3.5 -3.1 1.1 0 -3.4 5.4 -8.5 12.8 -12.2 l7.6 -3.7 14 0 c15.9 0 23.1 1.7 35.1 8 3.6 1.9 6.5 3.3 6.5 3 0 -1.5 -6.5 -14.6 -9.1 -18.5 l-3.1 -4.5 -7.3 -0.2 c-7.2 -0.3 -11.3 -1.3 -35 -8.8 -13.1 -4.1 -24 -5.4 -31.5 -3.6 -5.1 1.1 -7.4 0 -3.9 -2.1 1.6 -0.9 6 -1.3 13.4 -1.3 10.5 0.1 11.7 0.3 26.5 5.3 14.1 4.7 33.5 9.1 34.7 7.8 1 -0.9 -5.2 -7.7 -9.7 -10.6 -6.9 -4.4 -20.8 -10.8 -27.5 -12.5 -18.9 -5 -41 -1.8 -45.9 6.6 -3 5.1 -1.7 15 4.3 31.1 2.6 7.3 6.1 17 7.6 21.6 l2.7 8.2 5 0 c4.2 0 5.6 -0.5 8.5 -3z m-187.8 -20.8 c1.3 -2.1 2.1 -26.3 1 -28.4 -0.9 -1.6 -2.4 -1.8 -15.8 -1.8 l-14.9 0 -0.6 11.8 c-0.4 6.4 -0.8 13.3 -0.9 15.2 l-0.2 3.5 6.5 0.6 c10.9 1.1 24 0.6 24.9 -0.9z m544 -152.4 c-1.2 -2.9 -3.3 -8.3 -4.7 -11.9 -2.3 -5.8 -3 -6.7 -6.7 -8.3 -2.3 -0.9 -8.8 -4.5 -14.3 -7.9 -37.7 -23.2 -63.9 -57.8 -71.8 -94.7 -2 -9.3 -2.3 -28.9 -0.6 -37.4 l1 -4.8 -6.2 0.7 c-21.8 2.4 -46.8 8.4 -64.7 15.5 -47.6 18.9 -109.6 67.3 -146.4 114.5 -7.6 9.8 -21.1 29.2 -22.1 32 -0.3 0.7 3 -2.1 7.3 -6.3 21.3 -21 49.2 -40.7 86.3 -60.9 74.4 -40.7 80.2 -44 95.7 -54.9 3.4 -2.4 6.6 -4.4 7.2 -4.4 1.5 0 1.4 2 -0.1 2.1 -1 0 -1 0.2 0 0.6 2.1 0.8 1.3 3.5 -3.4 12.2 -14.9 27.9 -38.2 55.8 -63.4 76 -11.6 9.4 -34 24.5 -49.7 33.6 -5.6 3.2 -10.1 6.1 -9.9 6.2 0.9 1 29.8 -10.8 42.6 -17.3 40.7 -20.5 71.1 -45.6 93.2 -76.7 3.9 -5.4 8.3 -11.3 9.9 -13.1 2.8 -3.2 2.9 -3.7 3.3 -16.2 0.5 -13.7 1.4 -18.5 3.5 -19.2 1 -0.3 1.1 1.2 0.4 6.9 -1.5 13.6 -0.8 27.5 2 38.9 6.1 25.2 15.2 40.8 34.2 58.8 16.6 15.7 38.5 28.3 63.6 36.7 7.4 2.4 14 4.4 14.6 4.5 0.9 0 0.6 -1.6 -0.8 -5.2z m-469.4 -85.9 c19.8 -1.1 52.2 -3.1 72 -4.4 l35.9 -2.4 2.1 -2.8 c17 -23.6 44.4 -52.7 65 -69.2 7.8 -6.2 10.1 -8.6 7.3 -7.6 -0.7 0.2 -6.7 0.9 -13.3 1.5 -6.6 0.6 -56.1 5.1 -109.9 10 -53.9 5 -99.7 9 -101.8 9 l-3.8 0 0 34.4 0 34.5 5.3 -0.5 c2.8 -0.2 21.4 -1.3 41.2 -2.5z m0.2 -125.4 c1.3 -1.4 2.3 -3.9 2.3 -5.5 0 -3.8 -4.3 -8.7 -8.6 -9.9 -10.1 -2.8 -15.1 8.4 -7.3 16.2 2.6 2.6 3.5 2.9 7.2 2.4 2.8 -0.4 4.9 -1.4 6.4 -3.2z m-24.3 -65.7 c1.5 -1.3 2.9 -3.7 3.2 -5.5 0.5 -2.7 0.1 -3.7 -2.4 -6.3 -3.9 -3.9 -9.2 -4.1 -12.7 -0.5 -2.9 2.8 -3 4.3 -1.1 8.9 2.4 5.9 8.4 7.4 13 3.4z m22.5 -2.4 c6.7 -1 12.9 -2.3 13.7 -2.8 0.8 -0.6 1.7 -2.8 2.1 -4.8 0.8 -5.2 -1.6 -8.8 -5.9 -8.8 -3.2 0 -29 3.1 -29.6 3.6 -0.2 0.1 0.6 1.6 1.9 3.3 2.2 2.9 2.3 6.5 0.4 11.3 -0.6 1.5 -0.3 1.6 2.2 0.9 1.6 -0.5 8.5 -1.7 15.2 -2.7z m52 -1 c7.1 -2.6 12.3 -6.4 7.1 -5.1 -1.4 0.3 -7.6 1.3 -13.7 2.3 -6.2 0.9 -11.3 2 -11.3 2.5 0 1.5 3.4 2.8 7.2 2.9 2 0 6.8 -1.2 10.7 -2.6z m-3.4 -6.5 c7.7 -1.2 14.3 -2.7 14.7 -3.3 1.6 -2.4 0.6 -9.6 -1.7 -12.4 -0.3 -0.3 -39.4 4.5 -43.3 5.4 -2.1 0.4 -2.2 0.5 -0.6 3 1.2 1.8 1.5 3.7 1.1 7.3 l-0.6 4.8 8.2 -1.3 c4.5 -0.7 14.5 -2.3 22.2 -3.5z m23.1 3.1 c7.3 -3.6 9.5 -12.4 5.2 -21 -3.7 -7.3 -10.2 -10.3 -17.5 -8.4 -2.2 0.6 -2.1 0.8 2.2 5.6 6.3 7.1 7.4 16.4 2.5 23 l-2.1 2.8 2.8 0 c1.4 0 4.6 -0.9 6.9 -2z m79.1 -12.2 c2.1 -2.2 2.8 -3.9 3.1 -8.6 0.8 -10.6 -4.7 -17.6 -13.7 -17.6 -3.7 0 -22.7 3.9 -23.9 4.9 -0.2 0.2 0.4 2.7 1.2 5.6 2 6.7 2.1 17.9 0.1 22.6 -0.8 1.9 -1.5 3.6 -1.5 3.7 0 0.1 7.2 -1.7 16 -3.9 13 -3.2 16.5 -4.5 18.7 -6.7z"/>
  <path d="M1094.5 766 c-6.6 -1.4 -12.6 -3.9 -17.7 -7.1 -4.8 -3.1 -16.8 -15.2 -16.8 -16.9 0 -2.3 2.5 -0.6 9.3 6.3 11.9 12.1 23.4 16.4 41.2 15.4 12.5 -0.6 23.7 -3.9 38.4 -11.3 11.7 -5.9 14.1 -6.6 14.1 -4.4 0 1.7 -24.1 12.8 -33.5 15.6 -9.8 2.8 -27.5 4.1 -35 2.4z"/>
  <path d="M1100.1 735.9 c-15.4 -1.9 -36.2 -9.7 -44.1 -16.6 -2.1 -1.8 -5.1 -3.3 -7.7 -3.6 -8 -1.3 -20.3 -8.1 -20.3 -11.3 0 -2 0.4 -1.8 6.4 2.2 10 6.6 18.2 7.8 30.1 4.4 9.9 -2.8 13 -2.6 19.5 1.5 6.5 4.2 8.9 4.3 19.3 1 4.3 -1.4 9.6 -2.5 11.9 -2.5 2.3 0 11.9 1.9 21.2 4.2 16.9 4.1 17.3 4.2 36.1 4.2 21.5 0.1 23.3 -0.3 43.5 -9.4 12.2 -5.5 15.6 -6.4 21.1 -5.5 4.6 0.8 6 2.9 3.5 5.3 -1.5 1.6 -1.7 1.5 -2.3 -0.7 -0.5 -2.2 -1 -2.3 -5.4 -1.8 -2.6 0.3 -10.4 3.1 -17.2 6.1 -14.6 6.5 -24 9.2 -51.7 15.2 -33 7.2 -49.8 9.1 -63.9 7.3z m32.7 -4.3 c5.1 -0.8 16.2 -2.9 24.5 -4.8 l15.2 -3.3 -9 -0.6 c-10 -0.7 -15 -1.7 -33 -6 -14.6 -3.5 -17.2 -3.6 -26.5 -0.4 -10.2 3.5 -14.3 3.3 -21 -1 -3 -1.9 -6.5 -3.5 -7.8 -3.5 -2 0 -18.2 3.8 -19 4.5 -0.6 0.6 11.5 6.7 19.8 10 4.7 1.8 11.7 4 15.5 4.9 9 1.9 29.4 2 41.3 0.2z"/>
  <path d="M1249.3 713.8 c-1.6 -5.8 -5.9 -12 -11.3 -16.1 -5.9 -4.4 -17.4 -11.1 -22.7 -13.2 -3.9 -1.6 -6 -4.5 -3.2 -4.5 2.5 0 23.2 11.5 28.5 15.9 6.2 5 11.2 12.7 11.6 18 0.4 4.9 -1.6 4.8 -2.9 -0.1z"/>
  <path d="M1012 705.1 c0 -0.5 1.5 -1.4 3.3 -2 1.9 -0.7 4.9 -2.3 6.7 -3.6 3.9 -2.8 5 -3.1 5 -1.1 0 2.1 -8.9 7.6 -12.2 7.6 -1.5 0 -2.8 -0.4 -2.8 -0.9z"/>
  <path d="M1132.5 666.9 c-2.2 -0.4 -7.4 -2.2 -11.5 -4 -9.3 -3.9 -19.6 -4.5 -27.3 -1.5 -2.7 1 -5.1 1.6 -5.4 1.2 -1.3 -1.3 2.2 -3.5 8.2 -5.1 8.3 -2.3 14.2 -1.6 26.9 3 12.1 4.4 17.2 4.5 21.7 0.8 5.7 -4.8 7.4 -12.7 4.4 -20 -3.2 -7.6 -9.9 -11.8 -17.7 -11.1 -3.4 0.4 -4.8 0.1 -4.8 -0.7 0 -3 8.5 -3.4 14.5 -0.6 11 4.9 15.4 18.2 9.9 29.7 -3 6.3 -10.9 9.8 -18.9 8.3z"/>
  <path d="M1217.5 586 c-11.8 -2.4 -33.5 -14.4 -33.5 -18.6 0 -0.7 0.2 -1.4 0.4 -1.4 0.3 0 4.4 2.7 9.3 5.9 4.8 3.2 12.2 7.2 16.3 8.7 7.3 2.8 8.1 2.9 26.3 2.9 12 0 18.6 0.4 18.4 1 -0.2 0.5 -1.7 1.3 -3.3 1.6 -4.2 0.9 -29.2 0.8 -33.9 -0.1z"/>
  <path d="M1014.8 577.3 c-1 -0.2 -1.8 -1 -1.8 -1.7 0 -0.9 2.5 -1.1 9.6 -0.8 11.1 0.5 20.5 -1.4 30.2 -6.1 5.9 -2.9 8.2 -3.1 6.7 -0.7 -1.1 1.8 -10 5.9 -17.6 8 -6.9 1.9 -22.1 2.6 -27.1 1.3z"/>
  <path d="M1221.5 565.9 c-8.6 -1.3 -15.5 -3.4 -28.9 -9.1 -10 -4.2 -12.6 -4.9 -17 -4.6 -4.7 0.3 -5.1 0.1 -5.4 -2.1 -0.3 -1.8 1.3 -4 7 -9.6 12.1 -11.9 24.6 -16.4 44.9 -16.5 20.2 0 44.6 5.8 66.3 15.7 11.5 5.4 19.7 6.5 28.1 3.9 3.1 -1 5.3 -1.2 5.9 -0.6 1.6 1.6 -6.4 4.3 -13.9 4.8 -7.2 0.4 -10.5 -0.5 -25.9 -7.2 -3.5 -1.6 -3.8 -1.6 -3.2 -0.1 0.3 0.9 -0.3 3.4 -1.4 5.5 -3.6 7 -11.8 11 -22.9 11 -8.7 0 -15.2 -2.3 -19 -6.6 -4.9 -5.5 -6.6 -15.1 -3.7 -20.6 l1.5 -2.8 -10.7 0 c-19.6 0 -31.7 4.2 -43.5 15.1 -3.7 3.3 -6.7 6.4 -6.7 6.7 0 0.4 2.4 0.7 5.3 0.7 4 0 7.9 1.2 17.3 5.3 17.1 7.3 23 8.5 40.7 8.6 9.9 0 14.6 0.3 14.4 1 -0.8 2.4 -17.2 3.2 -29.2 1.5z"/>
  <path d="M1298.1 529.5 c-9.1 -6.9 -22.8 -14.2 -33.1 -17.5 -15.1 -4.9 -47.6 -7.5 -60.2 -4.9 -7.3 1.6 -14.2 5.2 -19.9 10.6 -4.1 3.8 -4.9 4.2 -4.9 2.6 0 -2.5 7.3 -9.4 12.9 -12.2 10.4 -5.4 27 -6.5 50.2 -3.5 16.2 2.1 26.9 5.3 39.8 11.9 11.5 5.9 24.4 15.1 24.9 17.8 0.5 2.7 -0.7 2 -9.7 -4.8z"/>
  <path d="M1148.8 491.8 c-3.7 -5.7 -5.9 -14.2 -5.6 -21.8 0.2 -4.3 0.7 -7.4 1.3 -7.3 0.6 0.2 1.3 4.2 1.6 9 0.4 6.4 1.3 10.4 3.3 14.7 2.7 6 2.3 9.8 -0.6 5.4z"/>
  <path d="M1159.4 488 c-2 -3.1 -2.9 -5.8 -3.2 -10.2 -0.6 -7.6 1.3 -16.8 3.5 -16.8 1.1 0 1.4 0.6 0.8 2.3 -0.3 1.2 -0.9 5.7 -1.2 9.9 -0.5 7.1 -0.3 8.1 2.2 12.3 1.8 3.2 2.4 5 1.7 5.7 -0.7 0.7 -1.9 -0.3 -3.8 -3.2z"/>
  <path d="M1174.2 483.6 c-3.6 -3.4 -3.7 -3.6 -3.6 -10.8 0 -7.1 1.6 -12.4 3.3 -11.3 0.5 0.3 0.5 2.4 -0.1 4.7 -1.5 6.7 -0.5 12.8 2.7 15.5 4.1 3.6 8.9 3 24.3 -3.1 15.1 -5.9 30 -10.4 43.8 -13.2 12.6 -2.6 40.6 -2.6 52.4 0 10.7 2.3 23.6 6.5 32.5 10.5 8.4 3.8 7 1.8 -3.9 -5.7 -26.1 -18.1 -62.6 -26.3 -103.1 -23.4 -16 1.2 -37.1 4.2 -42.9 6.2 -2 0.7 -3.3 0.7 -4 0 -2.7 -2.7 19.4 -7 45.9 -9.1 38.4 -2.9 73.7 4.1 99.6 19.7 13.3 8.1 25.1 18.7 23.4 21.3 -0.2 0.5 -5.4 -1.3 -11.5 -4 -22 -9.8 -37.4 -13.8 -56.7 -14.6 -22.1 -1 -46.4 3.9 -73.3 14.6 -18.7 7.5 -23 7.9 -28.8 2.7z"/>
  <path d="M867.5 252.8 c-0.3 -0.8 -0.4 -9 -0.3 -18.3 l0.3 -17 7 -0.3 c3.9 -0.2 12 -0.7 18 -1.1 6.1 -0.4 11.3 -0.6 11.8 -0.4 0.4 0.2 0.7 8.4 0.7 18.3 l0 17.8 -6.7 0.6 c-19.9 1.7 -30.3 1.8 -30.8 0.4z m25.8 -3.4 l8.7 -0.6 0 -15 0 -15 -15.2 0.7 c-8.4 0.4 -15.6 0.9 -16 1.2 -1 0.5 -1 28.7 -0.1 29.7 0.5 0.4 3.7 0.5 7.3 0.2 3.6 -0.3 10.4 -0.8 15.3 -1.2z"/>
  <path d="M945 230.8 l0 -18.5 7.3 -0.6 c3.9 -0.4 13.2 -0.9 20.5 -1.3 l13.2 -0.7 -0.2 18.8 -0.3 18.7 -4 0.3 c-2.2 0.1 -11.3 0.6 -20.2 1 l-16.3 0.7 0 -18.4z m33.3 13.6 l4.7 -0.6 0 -15.5 0 -15.5 -9.7 0.6 c-5.4 0.3 -13.3 0.9 -17.5 1.2 l-7.8 0.6 0 15.5 0 15.5 12.8 -0.6 c7 -0.4 14.8 -0.9 17.5 -1.2z"/>
  <path d="M733.8 907.2 c-133.1 -0.2 -150.8 -0.4 -150.8 -1.7 0 -1.3 17 -1.5 145.8 -1.5 157.2 0 186.2 0.4 186.2 2.7 0 1.1 -2.8 1.3 -15.2 1.1 -8.4 -0.2 -83.1 -0.4 -166 -0.6z"/>
  <path d="M250 766.1 c-5.8 -0.3 -10.5 -0.9 -10.5 -1.4 0 -0.4 60 -0.9 133.3 -1.2 84.2 -0.3 133.2 -0.2 133.2 0.4 0 0.6 -0.4 1.2 -0.9 1.5 -1.2 0.8 -242.7 1.5 -255.1 0.7z"/>
  <path d="M136 578.6 c-1.9 -0.7 -5.1 -1.1 -7.1 -0.8 -4.8 0.6 -14.3 -1.5 -16.2 -3.6 -1.1 -1.4 -1.6 -6.6 -2.1 -25.7 -0.4 -13.2 -0.9 -25.3 -1.2 -27 -0.4 -1.9 -1.8 -3.7 -3.7 -5 -1.7 -1.1 -4.2 -3.8 -5.4 -6 -2.8 -4.9 -3 -13.1 -0.8 -32 2.8 -23.6 6.6 -35.8 15.4 -48.8 2.8 -4.2 5.1 -8.7 5.1 -10 0 -2.2 -0.5 -2.5 -5.5 -3 -13.9 -1.4 -16.9 -10.1 -5 -14.2 3.2 -1 4 -1.9 5.4 -6.1 3.5 -10.3 11.2 -18.4 17.4 -18.4 3.9 0 9.3 2.7 11.7 5.8 l2 2.5 0 -11.7 0 -11.6 -21 0 -20.9 0 -0.3 14.7 c-0.2 10.8 -0.6 14.7 -1.6 15.1 -1 0.3 -1.2 -3.1 -1 -16 l0.3 -16.3 23.9 0 24 0 -0.3 15.3 -0.2 15.2 3.4 1.5 c4.3 1.8 7.7 5.9 7.7 9.3 0 3.7 -6.4 9.3 -13.1 11.4 -3.1 1 -9.7 2.1 -14.7 2.4 l-9.2 0.7 0 3.9 c0 3 -0.9 5 -4 8.9 -10.6 13.4 -16 32.9 -17.6 63.4 -0.6 11.1 -0.5 12.4 1.5 16.2 3.6 7.1 5.9 7.8 26.1 7.6 11.1 -0.1 19.3 -0.6 22.5 -1.5 l5 -1.3 0.3 -9.7 0.3 -9.8 -3.4 0 c-6.9 0 -10.4 -6.9 -15.3 -30 -2.7 -13 -3 -17 -1.1 -17 0.8 0 2 4.3 3.4 12.3 4.1 23 7.9 31.7 13.8 31.7 6.2 0 7.6 -6.3 5 -22.1 -2.9 -17.3 -9 -33.9 -15.6 -42.1 -3.3 -4.2 -3.8 -6.4 -1.1 -5.3 3.3 1.3 3.7 1 3.8 -3 0 -2.9 0.5 -4.1 1.7 -4.3 1.4 -0.3 1.7 0.5 1.7 4.2 0 2.6 -0.6 5.1 -1.5 6 -1.4 1.3 -1.2 2 1.5 5.9 6 8.9 14 38.5 14 51.7 0 2.6 -0.9 6.3 -2 8.5 -1.6 3.1 -2 5.9 -2 13.6 0 10 -0.6 11.6 -5.2 13.2 -1.6 0.6 -1.8 2.6 -1.8 23.7 l0 23 5.5 2.5 c4.4 1.9 5.5 2.8 5.5 4.8 0 2.6 -3 5.7 -7.3 7.5 -3.6 1.6 -16.2 1.4 -20.7 -0.2z m21 -3.5 c1.9 -1 3.5 -2.4 3.5 -3 0 -0.7 -2.2 -2.4 -5 -3.9 l-5 -2.7 -0.2 -23.5 -0.2 -23.5 -2.3 0.2 c-1.3 0.1 -5.3 0.5 -9 0.8 l-6.8 0.7 0 25.1 c0 13.9 0.3 26.2 0.6 27.4 1.2 4.2 17.9 5.9 24.4 2.4z m-27.8 -27.3 c-0.2 -15 -0.5 -27.4 -0.5 -27.5 -0.1 -0.1 -4 -0.5 -8.6 -0.9 l-8.4 -0.7 0.7 2.9 c0.4 1.6 0.9 13.6 1.3 26.6 l0.6 23.7 2.6 1 c3.5 1.3 6 1.8 9.6 2 l3 0.1 -0.3 -27.2z m2.8 -135.2 c13.7 -1.5 20 -3.5 23 -7.4 2.4 -3 2.5 -5 0.3 -7.4 -2 -2.2 -4.3 -2.4 -4.3 -0.3 0 2.8 -2 1.5 -3.5 -2.2 -4.8 -11.5 -14.5 -17.3 -20.7 -12.3 -3.9 3 -8.8 11.3 -9.6 16 -0.7 4 -1 4.4 -5 5.5 -7.8 2.4 -9.4 5.6 -3.9 8 4 1.8 8 1.8 23.7 0.1z"/>
  <path d="M461.6 571.4 c-8.3 -3 -9.9 -8.1 -3.9 -11.9 l3.2 -2 0.1 -16.5 0 -16.5 -34 -0.4 -34 -0.3 0 14.8 0 14.8 3 3.1 c1.8 1.8 3.3 4.7 3.7 6.7 0.8 5.5 -2.5 7.2 -13.6 7.2 -4.7 0 -9.5 -0.1 -10.6 -0.2 -1.1 -0.1 -5.6 0 -10 0.4 -9.1 0.7 -15.1 -0.5 -19.1 -3.9 -3.2 -2.8 -2.7 -5.7 1.2 -7.8 l2.7 -1.4 -0.9 -25.5 c-0.4 -14 -0.7 -27.7 -0.7 -30.4 0.1 -3.9 -0.4 -5.6 -2.2 -7.8 -1.3 -1.5 -3.4 -5.4 -4.7 -8.5 -2 -5.2 -2.3 -7.4 -2.3 -21.8 0 -13.7 0.4 -17.2 2.3 -24 2.8 -9.7 6.9 -17.1 12.1 -21.8 l4 -3.6 -2 -3.8 c-1.7 -3.1 -2 -5.2 -1.7 -11.9 0.5 -9.7 3.5 -16.7 8.8 -20.2 3 -2 4.5 -2.3 10.2 -2 8.1 0.4 11.2 2.4 14.8 9.4 3.4 6.6 3.3 15.5 -0.2 24 l-2.5 6.1 4.3 4.2 c5.6 5.4 9 12.8 10.9 23.6 2.4 13.6 1.9 36.2 -1 47.5 l-0.6 2.5 8.5 0.3 8.5 0.3 0.3 -27.8 c0.2 -15.3 0.4 -49.9 0.6 -76.9 l0.2 -49.2 -2.3 -0.6 c-1.3 -0.3 -7.5 -3.9 -13.8 -7.9 -6.3 -4.1 -21.3 -13.8 -33.3 -21.5 -12 -7.8 -22.3 -14.2 -22.9 -14.2 -2.5 0 -43.6 17.8 -81.9 35.6 l-14.8 6.8 0 28.3 c0 24.5 -0.2 28.3 -1.5 28.3 -1.3 0 -1.5 -3.7 -1.5 -27.5 0 -17.7 -0.4 -27.5 -1 -27.5 -0.5 0 -1 -0.6 -1 -1.3 0 -0.8 6.5 -4.4 14.8 -8.2 45.6 -21 83.9 -37.5 87.2 -37.5 1.6 0 18.8 10.7 48.5 30.1 7.2 4.7 15.1 9.8 17.7 11.3 l4.6 2.7 29.4 0.4 c29 0.3 35.8 0.6 106.8 4.5 52.1 2.9 134.8 7.2 146 7.6 6.8 0.3 9.1 0.1 8 -0.6 -0.8 -0.6 -13.2 -7.9 -27.5 -16.1 -14.3 -8.3 -26.3 -15.4 -26.7 -15.7 -0.4 -0.4 0.4 -5 1.8 -10.2 2.6 -10.4 3.1 -20.9 1.2 -27.1 -1.3 -4.4 -2.3 -4.9 -3.4 -1.7 -0.4 1.3 -5.4 6.9 -11.1 12.6 -11.2 11.1 -15 17.1 -13.9 22.3 0.5 2.5 0.2 2.9 -1.6 2.9 -5.8 0 -16 -10.4 -18.4 -18.9 -1.7 -5.8 -1.4 -17.1 0.6 -24.1 0.6 -1.9 1.3 -7.5 1.7 -12.5 0.6 -9.3 -0.7 -16.8 -4.3 -25.2 l-1.6 -3.8 -2.2 6.2 c-3.1 8.4 -7.8 14.5 -17.3 22.8 -14.7 12.7 -20.4 21.5 -21.1 32.3 -0.5 7.6 -2.1 8.1 -5.4 1.5 -4.6 -9.4 -2.5 -23.4 6.3 -42.4 2.7 -5.9 5.6 -13.8 6.4 -17.5 3.8 -18 0.1 -35.1 -10.3 -47.6 l-3.9 -4.7 -0.7 8.2 c-0.7 9.6 -2.4 16.4 -5.9 24.1 -4.2 9.1 -8.4 14.4 -23.2 29.1 -16.1 15.9 -19.4 21.2 -20.3 32.1 -0.7 9.1 -2.7 8.4 -5.7 -2 -2.4 -8.4 -1.6 -18.7 2.3 -30.1 1.7 -4.9 3.4 -10.6 3.7 -12.6 0.9 -5.1 -1.6 -14.2 -7.6 -27.8 -2.8 -6.3 -5.7 -13.1 -6.4 -15.2 -2 -5.7 -2.8 -14.8 -1.7 -19.6 0.5 -2.4 0.7 -4.3 0.2 -4.3 -1.3 0 -11.8 11.6 -15 16.6 -3.8 6.1 -6.4 14.4 -9.1 29.9 -2.3 13.3 -5.4 21.3 -10.2 26.3 -4.2 4.4 -8.3 6.5 -19.1 9.6 -13.1 3.8 -17.4 6.1 -20.7 11.4 -1.5 2.4 -3.3 7 -3.9 10.1 -2.6 14.2 -4.3 20.2 -7 24.4 -2.8 4.5 -7.8 8.9 -11.6 10.4 -1.8 0.7 0.8 2.9 17.7 14.8 10.9 7.7 19.9 14.6 19.9 15.3 0 2.8 -2 1.5 -27.1 -16.5 -10.7 -7.7 -27.4 -19.4 -37.1 -26.1 l-17.7 -12.2 -4.8 1.8 c-4.5 1.8 -56.9 24 -94.3 40.1 -9.1 3.8 -16.7 6.7 -17 6.3 -0.3 -0.4 -0.3 -21.2 0 -46.2 l0.5 -45.5 14.5 0 14.5 0 0.5 38.2 0.5 38.2 42.5 -18.1 42.5 -18 4 2.1 c2.2 1.2 10.8 6.9 19 12.6 16.9 11.8 18.7 12.3 25.2 7.6 5.4 -3.9 8.9 -11.5 11.3 -24.3 3.6 -18.8 7.2 -22.9 25 -28.5 17.4 -5.4 20.7 -7.5 24.7 -15.8 2.4 -4.8 3.7 -9.9 5.8 -22 3.4 -19.3 8 -28.8 19.2 -39.6 12.4 -11.9 17.8 -14.1 12.6 -5.1 -2.4 4 -2.8 5.8 -2.8 12.2 0 8.3 1.6 13.7 7.7 26.9 9.5 20.5 10.1 27.2 4.4 44.3 -3.7 11 -4.8 22.3 -2.6 25.8 0.8 1.2 1 1.1 1 -0.6 0 -1.1 1.4 -5 3.2 -8.5 2.5 -4.9 6.7 -10.1 18.8 -22.4 16.9 -17.4 21.2 -23.8 24.5 -36.5 1.7 -6.5 2.4 -18 1.5 -23.4 -1.9 -10.9 15.3 8 20.2 22.2 1.9 5.6 2.3 8.8 2.3 18.7 0 13.4 -1.9 21.4 -8 33.5 -6.1 12.2 -9.4 26.6 -7.7 34 l0.8 3.5 1.2 -4.7 c2 -7.6 10.5 -19.2 20.7 -27.8 5 -4.2 10.4 -9.7 12.1 -12.3 3.4 -4.9 7.4 -15.5 7.4 -19.4 0 -3.9 2.6 -2.5 5.3 3 7 13.8 8.1 24.6 4.7 43.7 -3.3 18.6 -1.5 27.2 7.2 34.3 5.1 4.2 5.8 4.4 5.8 2 0.1 -4.7 4.6 -11.2 14.9 -21.5 8.1 -8 11.3 -11.9 12.4 -15.1 0.7 -2.3 2 -4.2 2.7 -4.2 0.7 0 2.3 2.7 3.6 6 3 7.9 3.1 18.6 0.3 30.7 -1.8 7.5 -1.9 9.2 -0.8 9.9 0.8 0.5 12.7 7.5 26.4 15.5 13.8 8.1 25.8 15.4 26.8 16.2 3.8 3.4 2.2 4.1 -9.5 4.4 l-11.3 0.3 0.4 70 c0.2 38.5 0.5 70.3 0.7 70.7 0.3 0.4 12.2 0.7 26.7 0.7 33.9 0.1 45.7 0.9 45.7 2.9 0 1.3 -4.3 1.4 -36.5 0.8 l-36.5 -0.7 0 15.6 0 15.5 26 0 c23.1 0 26 0.2 26 1.6 0 1.4 -7.4 1.5 -78.4 1.2 l-78.4 -0.3 -0.4 10.5 c-0.5 12.5 -0.3 13.4 2.7 14.8 3.8 1.8 6 5.8 4.7 8.7 -2.8 6.1 -22.9 6 -26.8 -0.1 -1.4 -2 -1.9 -2.2 -3.2 -1.2 -0.9 0.8 -4.7 1.3 -10.5 1.3 -8.3 0 -9 -0.2 -9.8 -2.2 -0.6 -1.6 0 -3.7 2.3 -8 l3.1 -5.8 -0.6 -14 c-1.6 -34 -1.8 -35.5 -4.2 -35.5 -1.3 0 -2.7 -0.6 -3.3 -1.2 -0.6 -0.8 -4.5 -1.4 -10.4 -1.6 -5.1 -0.2 -9.5 -0.5 -9.7 -0.7 -0.1 -0.2 0 -0.9 0.4 -1.6 0.6 -0.8 3.2 -1 9.6 -0.6 l8.8 0.7 0.5 -3.3 c0.3 -1.7 0.7 -8.8 1 -15.7 0.3 -6.9 1.4 -17.7 2.5 -24 1.5 -9.1 2 -19.1 2.5 -48 0.4 -20.1 1.1 -36.9 1.5 -37.3 1.2 -1.2 43.8 -0.4 44.9 0.8 0.5 0.6 0.6 15.2 0.3 33.5 -0.6 29.3 -0.5 33 1.1 37.5 2 5.8 3.8 25.7 3.8 42.5 l0 11.7 6.1 0.7 c3.4 0.3 24 0.6 45.7 0.6 l39.5 0 -0.4 -70.9 -0.4 -70.8 -19.5 -0.7 c-10.7 -0.3 -27.6 -1.1 -37.5 -1.6 -9.9 -0.6 -35.3 -1.9 -56.5 -3 -21.2 -1.2 -51.1 -2.7 -66.5 -3.6 -15.4 -0.8 -40.9 -1.7 -56.7 -1.9 l-28.8 -0.5 -0.1 36.8 c-0.1 20.2 -0.4 54.8 -0.8 77 l-0.6 40.2 5.5 0 c3 0 10.5 0.3 16.6 0.6 l11.1 0.7 0.6 -8.4 c1.3 -18.6 6.6 -32.8 15.4 -41 2.7 -2.5 5.5 -4.8 6.2 -5 1 -0.4 0.7 -1.6 -1.1 -4.9 -2.6 -5 -2.4 -2.6 -2 -43.2 0.3 -21.2 0.5 -23.9 2 -24.6 0.9 -0.5 11.2 -0.6 22.7 -0.3 l21 0.6 0 18.5 c0 10.2 -0.2 28 -0.5 39.5 l-0.5 21 -5.7 0.3 -5.7 0.3 1.6 3.7 c3.3 7.8 4.5 14.2 5 27.7 0.7 19.4 -0.3 24.7 -6.2 30.3 -4.4 4.2 -4.5 4.4 -4.5 10.8 l0 6.4 13.9 0 c15.9 0 23.3 0.8 22.8 2.4 -0.3 0.8 -5.8 1 -18.5 0.7 l-18.2 -0.3 0 17.8 c0 9.9 -0.4 18.4 -0.8 19 -0.9 1.5 -7.7 3.4 -11.8 3.4 -1.7 0 -4.8 0.7 -6.7 1.5 -4.5 1.9 -13.9 1.8 -19.1 -0.1z m18.5 -3.1 c1.6 -1 2.9 -2.2 2.9 -2.8 0.1 -0.5 0.5 -9.7 0.9 -20.3 0.5 -11.8 1.3 -19.8 2 -20.5 0.6 -0.6 1.2 -0.9 1.4 -0.6 0.1 0.2 0 9.8 -0.4 21.4 -0.5 11.5 -0.6 21.2 -0.3 21.4 0.2 0.2 2.5 0 5.2 -0.5 l4.7 -0.9 0.5 -27.4 c0.4 -22 0.8 -27.5 1.9 -27.9 0.7 -0.2 2.6 -1.6 4.2 -3.1 3.7 -3.3 4.9 -9.5 4.9 -24.6 0 -17.7 -2.9 -28.4 -10.2 -37.6 l-4 -5 1.7 -3.5 c4.6 -9.8 4.1 -19.4 -1.4 -25.3 -2.4 -2.6 -3.7 -3.1 -7.5 -3.1 -8.2 0 -13.6 7 -13.6 17.8 0 4.1 2.9 11.4 5 12.7 1.9 1.2 1 3.3 -2 4.5 -11.9 4.9 -20.6 25.6 -21.2 50.7 -0.3 8.7 0 10.3 1.6 12.2 1.1 1.1 2.9 2.1 4.1 2.1 1.1 0 2.5 0.4 3 0.9 0.6 0.6 0.9 11 0.7 25.6 -0.2 22.2 -0.4 24.6 -2 25.2 -2.5 0.9 -5.2 3.4 -5.2 4.9 0 0.6 1.9 2.1 4.3 3.3 5.3 2.7 14.6 2.9 18.8 0.4z m-108.4 -1.1 c0.9 -0.6 1.2 -4.2 1 -13.3 -0.3 -17 1.5 -17.3 2.6 -0.4 0.5 7.9 1.3 13.3 2 13.7 1.9 1.2 14 0.9 16.7 -0.5 3.6 -1.8 3.5 -3.9 -0.5 -7.8 l-3.5 -3.4 0 -26.6 0 -26.6 2.7 -3.9 c4.3 -6.4 5.4 -11.7 6 -28.9 0.9 -26.3 -2.5 -39.3 -12.8 -48.5 l-5 -4.6 2.6 -4.6 c3.8 -6.8 5 -14.7 3.1 -21.1 -2.2 -7.4 -6.1 -10.9 -12.9 -11.5 -10.3 -0.8 -15.6 5 -16.5 18.3 -0.4 5.8 0 8 1.8 12.3 l2.2 5.1 -5.1 5 c-9 8.8 -12.9 20.5 -13.8 40.9 -0.7 15.5 0.9 23.4 6 30.5 l3.1 4.2 1 31.3 0.9 31.3 -3.3 2.8 -3.4 2.8 2.4 1.3 c1.3 0.7 3.5 1.6 4.9 2.1 3.4 1 16.3 1.1 17.8 0.1z m216 -3.5 c1.7 -1.7 1.6 -2 -2.6 -5.6 l-4.4 -3.7 0.3 -15 c0.1 -8.2 0.5 -20.7 0.9 -27.9 l0.6 -13 3.7 0.3 c2.8 0.3 3.9 -0.1 4.7 -1.7 1.4 -2.5 1.4 -25.8 0.1 -41.1 -1.4 -16.2 -3.2 -21.5 -8.7 -26.8 -4.2 -4.1 -4.4 -4.5 -3.4 -7.4 1.4 -3.9 1.4 -17.1 0.1 -22 -1.3 -4.7 -4.3 -6.8 -9.6 -6.8 -9.1 0 -14 8.8 -13.2 23.4 l0.5 8.1 -4 4.5 c-5.4 6.1 -7.2 10.7 -9.1 22.5 -1.4 9.2 -3.6 33.6 -3.6 41.2 0 3 0.3 3.2 3.8 3.5 3 0.2 3.7 0.6 3.4 2.3 -0.1 1.1 0.3 12.9 0.9 26.2 l1.2 24.3 -3.1 5.9 c-1.8 3.2 -3.2 6.2 -3.2 6.5 0 1 12.6 0.7 15.4 -0.3 1.6 -0.7 2.6 -1.9 2.8 -3.7 0.3 -3 2.8 -4.6 2.8 -1.9 0 3.2 3.2 8.4 5.8 9.4 4.3 1.7 15.9 0.9 17.9 -1.2z m98.3 -51.2 l0 -15.5 -15.3 0 c-8.5 0 -28.9 -0.3 -45.4 -0.7 l-30 -0.6 -1.4 2.9 c-1.1 2.3 -2.2 3 -5.2 3.2 l-3.7 0.3 -0.1 11 c-0.1 6 -0.2 11.5 -0.3 12.2 -0.1 1.6 15 2.2 63.2 2.5 l38.2 0.2 0 -15.5z m-225 5 c0 -2.5 0 -4.8 0 -5.2 0 -0.5 -1.3 -1.1 -3 -1.6 -3.5 -0.9 -5.9 -4 -6.6 -8.8 l-0.6 -3.6 -13.6 -0.6 c-7.4 -0.4 -19.2 -0.7 -26.2 -0.7 -17.2 0 -17.4 0.2 -17.8 13.9 l-0.4 10.1 19.4 0.3 c10.6 0.1 25.9 0.3 34.1 0.5 l14.7 0.2 0 -4.5z m52.1 -79 c0.4 -3.3 0.7 -19.8 0.8 -36.7 l0.1 -30.8 -20 0 -20 0 0 18.9 c0 10.4 -0.3 19.8 -0.7 20.8 -0.5 1.2 0.5 0.8 3 -1.4 4.4 -3.9 7.3 -4.7 13 -4 5.6 0.7 10.1 5.9 11.8 13.3 1.2 5.5 1.2 5.5 -2.8 19.4 -0.2 0.9 0.6 2.8 1.7 4.3 2 2.5 2.8 2.8 7.4 2.5 l5.1 -0.3 0.6 -6z m40.3 -23.8 c0.1 -8.8 0.4 -10.9 2.6 -15.2 3.1 -6.2 7.8 -9.5 13.4 -9.5 5.8 0 8.8 1.8 11.4 7 1.8 3.7 2.2 6 2.1 13.5 0 4.9 -0.4 9.9 -0.9 11 -0.5 1.4 -0.2 2.6 1.3 4.3 1.1 1.2 2.4 2.2 2.9 2.2 0.4 0 0.8 -13.2 0.8 -29.4 l0 -29.3 -6.1 -0.7 c-3.4 -0.3 -12.4 -0.6 -19.9 -0.6 l-13.7 0 -0.6 21.2 c-0.4 11.6 -0.7 26.2 -0.7 32.5 l0 11.3 3.7 -4.1 3.7 -4.1 0 -10.1z m-300.7 -99.3 l7.3 -2.9 0 -37.7 0 -37.8 -12 0 -12 0 0 43 0 43 4.8 -2.3 c2.6 -1.3 8 -3.7 11.9 -5.3z"/>
  <path d="M214.5 567.3 c-1.1 -0.3 -2.4 -0.9 -2.9 -1.4 -0.6 -0.5 -4 -0.9 -7.7 -0.9 -5.2 0 -7.2 -0.4 -9.3 -2.1 l-2.7 -2.1 0.7 -19.9 0.7 -19.8 -12.4 -0.3 c-16.4 -0.4 -16.5 -2.2 -0.1 -2.6 l12.2 -0.3 0 -4.5 c0 -3.5 -0.7 -5.3 -3 -8.3 -4.5 -5.6 -5.3 -12.4 -3.5 -29 2.6 -23.1 6.3 -32.7 14 -36.4 1.9 -0.9 3.5 -2.3 3.5 -3.2 0 -1.2 -1.8 -1.5 -10.9 -1.5 -6 0 -12.3 -0.3 -14.1 -0.6 l-3.2 -0.7 0.3 -37 0.4 -36.9 2.4 -0.9 c1.3 -0.5 11.2 -0.8 22 -0.7 l19.6 0.3 0.3 21.7 0.2 21.6 3 0.7 c3.7 0.8 8.6 6.3 9.9 11.2 2.2 7.9 0.5 19 -3.6 23.5 -1.6 1.8 -1.5 2 1.9 4.8 7.9 6.5 11.2 21.8 10.2 46.7 -0.7 17.7 -1 18.6 -6.5 18.6 -2.9 0 -2.9 0.1 -2.9 5.8 0 3.1 -0.3 6.5 -0.7 7.5 -0.6 1.6 2.4 1.6 50.5 1.2 28.1 -0.3 51.6 -0.1 52.3 0.3 4.2 2.6 -1.8 2.9 -51.5 2.9 l-51.3 0 -0.7 9.3 c-0.4 5 -0.9 11.3 -1.3 13.8 -0.5 4.6 -0.5 4.7 3.2 6.4 4.9 2.4 7.2 5.9 5.4 8.2 -3.6 4.2 -16 6.6 -24.4 4.6z m17.5 -3.9 c2.2 -0.9 4 -2.1 4 -2.8 0 -0.6 -2 -2.3 -4.5 -3.8 -2.6 -1.6 -4.5 -3.5 -4.5 -4.5 0 -1 0.7 -10.4 1.6 -20.8 0.8 -10.5 1.4 -21 1.2 -23.5 l-0.3 -4.5 4.6 0.3 4.6 0.3 0.8 -15.8 c1.2 -26.4 -3 -41.6 -13 -47.1 -1.8 -1 -1.9 -1.1 -0.3 -2.9 6.9 -7.6 7.6 -22.8 1.4 -29.9 -3.1 -3.7 -10.7 -4.4 -15.3 -1.5 -5.1 3.2 -6.7 7.3 -6.6 16.6 0.1 4.4 0.7 9.4 1.3 11 1.2 3.2 1.6 2.7 -7 9.4 -6.4 4.9 -9.6 16.2 -10.7 37.7 -0.7 14.7 -0.1 18.6 3.9 22.7 l3 3.2 -0.4 26.3 c-0.4 20.2 -0.2 26.5 0.8 27.3 0.7 0.5 3.9 0.9 7.1 0.7 l5.8 -0.3 0.2 -19 c0.3 -22.4 1 -29.8 2.6 -29.2 1.4 0.4 1.6 17.7 0.5 36.2 -0.6 11.3 -0.5 12.1 1.4 13.8 2.6 2.2 12.3 2.3 17.8 0.1z m-29.2 -139.7 c0 -6.5 0.4 -9.1 2 -12.4 2.5 -4.7 6.4 -8.2 10.4 -9 l2.7 -0.5 0.1 -19.8 c0 -11.1 -0.3 -20.1 -0.9 -20.4 -0.5 -0.3 -9.3 -0.3 -19.5 0.1 l-18.6 0.6 0 34.3 c0 31.8 0.1 34.3 1.8 34.7 0.9 0.3 6.3 0.5 11.9 0.6 l10.2 0.1 -0.1 -8.3z"/>
  <path d="M881.9 532.6 c-0.2 -0.2 -12.7 -0.6 -27.7 -0.9 -15.3 -0.4 -28.1 -1.1 -29.1 -1.7 -3.7 -1.9 -4.2 -6.4 -3.1 -26.1 0.6 -10.1 0.8 -20.5 0.5 -23.1 -1.1 -7.7 0.3 -14.8 3.5 -18 l2.8 -2.8 41.1 0 c35.9 0 41.1 0.2 41.1 1.5 0 1.3 -5.2 1.5 -40.4 1.5 -47.2 0 -44.6 -0.6 -45.4 9.8 l-0.4 6.2 39.1 0.2 c25.2 0.2 39.1 0.7 39.1 1.3 0 0.6 -13.9 1.1 -39 1.3 l-39.1 0.2 0.3 7.5 0.3 7.4 13 0.3 c7.2 0.2 24.7 0.5 39 0.6 23.7 0.2 30.8 1 26.2 2.8 -1 0.3 -19 0.5 -40.1 0.2 l-38.5 -0.3 -0.3 7.1 -0.3 7.1 17 0.7 c9.4 0.3 26.8 0.6 38.8 0.6 19.2 0 21.7 0.2 21.7 1.6 0 1.4 -3.7 1.6 -38.7 1.3 l-38.8 -0.3 0.3 3.4 c0.5 6.5 0.1 6.4 34 7.2 16.9 0.3 33.5 0.6 37 0.7 4.8 0.1 6.2 0.4 6.2 1.6 0 1.2 -1.8 1.5 -9.8 1.5 -5.4 0 -10.1 -0.2 -10.3 -0.4z"/>
  <path d="M0 516.5 c0 -1.3 5.5 -1.5 46.2 -1.3 35.8 0.2 46.2 0.6 46.6 1.6 0.3 0.9 -9.4 1.2 -46.2 1.2 -40.9 0 -46.6 -0.2 -46.6 -1.5z"/>
  <path d="M256.8 497.2 c-2.1 -0.2 -3.8 -0.7 -3.8 -1.2 0 -1.4 8.2 -1.7 43.5 -1.6 29.5 0.1 34 0.3 34 1.6 0 1.3 -4.6 1.5 -35 1.5 -19.2 0 -36.7 -0.1 -38.7 -0.3z"/>
  <path d="M17.8 493.3 c-15.7 -0.3 -17.8 -0.5 -17.8 -2 0 -1.5 3.7 -1.6 43.3 -1 23.7 0.3 44 0.8 45 1.2 0.9 0.4 1.7 1.1 1.7 1.6 0 0.8 -28.1 0.9 -72.2 0.2z"/>
  <path d="M276 485.5 c-1 -1.2 -1 -14.7 -0.4 -63.7 l0.9 -62.3 21 0.3 c11.6 0.1 22 0.4 23.3 0.7 l2.2 0.5 0 61.8 c0 46.7 -0.3 62.1 -1.2 63 -0.9 0.9 -7.4 1.2 -22.9 1.2 -18 0 -21.9 -0.3 -22.9 -1.5z m43.8 -62.1 l0.2 -60.1 -20.1 -0.7 c-11.1 -0.4 -20.2 -0.6 -20.4 -0.4 -0.1 0.2 -0.5 27.4 -0.9 60.5 l-0.7 60.2 3.3 0.3 c1.8 0.3 11.2 0.4 20.8 0.4 l17.5 -0.1 0.3 -60.1z"/>
  <path d="M638.5 455.2 c-4.4 -0.1 -9.1 -0.4 -10.4 -0.7 l-2.3 -0.6 0.3 -41.4 0.4 -41.5 8 0.1 c4.4 0.1 13.1 0.4 19.3 0.8 l11.3 0.6 -0.1 41 c0 31 -0.4 41.1 -1.3 41.7 -0.7 0.5 -4.8 0.7 -9.2 0.6 -4.4 -0.2 -11.6 -0.4 -16 -0.6z m23.7 -41.6 l0.3 -38.3 -16 -0.6 c-8.8 -0.3 -16.1 -0.4 -16.3 -0.2 -0.2 0.2 -0.6 17.7 -0.9 38.9 l-0.6 38.6 16.6 0 16.7 0 0.2 -38.4z"/>
  <path d="M695.6 445.1 c-0.3 -0.5 4.9 -3.6 11.7 -6.9 14.8 -7.3 26.4 -16.4 35.6 -27.8 8.5 -10.6 12.7 -17.6 15.5 -26.1 4.4 -13 4.4 -13.1 -2.2 -6.6 -6.1 6.1 -13.9 10.5 -27.4 15.4 -9.5 3.5 -13.4 3.7 -14.3 0.9 -0.5 -1.5 0.3 -3.2 3 -6.2 5.4 -5.9 7.2 -11 9 -24.9 2.4 -18.7 3.8 -22.3 14.5 -38.6 10.1 -15.1 11.4 -19.2 11.5 -33.8 0 -8.3 -0.4 -12.7 -1.4 -14.4 l-1.3 -2.4 -7.7 7.6 c-4.2 4.1 -11.8 10.3 -17 13.7 -16.3 10.8 -22 18.5 -24.2 32.2 -1.3 8.3 -1.7 9.4 -3 8.1 -1.6 -1.6 0.7 -14.6 3.6 -21.1 3.2 -6.9 10.6 -14.2 23.7 -23.1 6.3 -4.2 13.5 -10.2 17.3 -14.3 7.1 -7.7 8.3 -7.9 11.2 -2.6 1.5 2.7 1.8 5.6 1.8 16.3 -0.1 15.6 -1.3 19.3 -12.6 36.5 -8.9 13.8 -11.5 20.7 -13.4 36.7 -1.8 14.2 -3 17.8 -8.1 24 -2 2.4 -3.4 4.7 -3.1 5 0.8 0.8 13.1 -3.4 21.3 -7.3 7.8 -3.7 16.6 -10.9 19.1 -15.8 0.9 -1.7 2.1 -5 2.7 -7.4 1.6 -6.1 3 -5.3 3.4 2 0.6 11.8 -4 26.3 -12.1 38.5 -11.8 17.8 -31.1 33.9 -48.9 40.9 -6.9 2.7 -7.4 2.8 -8.2 1.5z"/>
  <path d="M27.1 429.6 c-0.9 -1 -1.1 -10.9 -0.9 -37.2 l0.3 -35.9 20.5 0 20.5 0 0 37 0 37 -19.6 0.3 c-15.9 0.2 -19.8 0 -20.8 -1.2z m37.7 -36.4 l0.2 -34.2 -17.7 0.2 -17.7 0.3 -0.4 33.7 -0.4 33.6 2.3 0.4 c1.3 0.2 9.4 0.3 17.9 0.3 l15.5 0 0.3 -34.3z"/>
  <path d="M822.8 401.3 c-2.5 -2.8 -2.3 -7.4 1.7 -41.1 3.6 -30.6 5.1 -36.9 9.4 -39.2 2.5 -1.3 43.6 -3.2 59.6 -2.8 l11 0.3 1.4 2.9 c1.1 2.4 1.2 8.1 0.1 36 -0.6 18.2 -1.6 34.8 -2.1 36.8 -1.8 7.1 3.1 6.4 -59.4 8.4 -19 0.6 -20.1 0.6 -21.7 -1.3z m49.4 -2.9 c17.5 -0.5 26.3 -1 27.4 -1.9 1.4 -0.9 1.8 -4.2 2.4 -18.6 2.1 -45.5 2.2 -53.3 0.7 -55.3 -1.3 -1.8 -2.5 -1.8 -33 -0.8 -18.2 0.7 -32.6 1.6 -33.7 2.2 -3.9 2.1 -4.9 6.5 -8.5 36.6 -3.8 32.7 -4.1 37.9 -2.2 38.8 0.6 0.3 5.7 0.3 11.2 0.1 5.5 -0.3 21.6 -0.8 35.7 -1.1z"/>
  <path d="M1532.1 370.9 c-1.8 -8.5 -5.5 -22 -8.1 -30.2 -2.9 -9 -4.4 -15 -3.8 -15.3 1.5 -1 2.5 1 6.8 14.7 5.6 17.7 9.2 34.1 8.8 40.7 -0.3 5.2 -0.5 4.6 -3.7 -9.9z"/>
  <path d="M147.5 336.9 c-20.9 -0.4 -57.6 -1.2 -81.5 -1.8 -23.9 -0.6 -48.6 -1.1 -54.7 -1.1 -9.8 0 -11.3 -0.2 -11.3 -1.6 0 -1.5 4.3 -1.6 50.8 -1 27.9 0.4 56.6 0.9 63.7 1.1 7.2 0.3 34.8 0.7 61.5 1.1 26.7 0.3 48.9 1 49.4 1.4 3.4 3.3 -2.3 3.4 -77.9 1.9z"/>
  <path d="M176 309.3 c-1.9 -0.1 -34.1 -0.7 -71.5 -1.3 -91.7 -1.4 -104.5 -1.8 -104.5 -3.8 0 -1.4 4.2 -1.4 36.8 -0.9 20.2 0.4 62.6 1.1 94.2 1.7 66.3 1.2 78.3 1.7 77.7 3.3 -0.3 1.1 -22.4 1.8 -32.7 1z"/>
  <path d="M0.2 267.9 c-0.1 -25 1 -32.4 6.7 -44.4 2.1 -4.4 8.4 -14 13.9 -21.4 11.3 -15 15.2 -21.7 18.8 -32.4 4.7 -13.6 6.7 -32.5 4.5 -40.5 -1.7 -5.7 1.9 -3.8 7.9 4.3 11.3 15.4 15.9 26.6 18.1 44.2 1 8.7 1 11.7 -0.5 21.9 -3.7 25.5 -3.1 40.5 2.1 56.8 l2.7 8.1 1.3 -10.5 c2.5 -19.8 6.1 -27.9 18.2 -40.3 6.9 -7.2 17.7 -15.1 19.2 -14.1 0.5 0.3 -0.4 2.5 -2 4.8 -3.7 5.3 -5.5 12.3 -4.8 17.9 0.4 2.3 2.3 8.3 4.3 13.2 2 5 4.4 12.1 5.3 15.8 l1.8 6.8 3 -6.8 c6.4 -14.3 8.8 -30.6 8 -52.5 -0.6 -13.6 -0.4 -16.7 1.3 -23.3 2.1 -8.3 6.6 -17.5 8.5 -17.5 0.8 0 1.4 2.9 1.8 8.8 0.5 9.2 1.9 13.2 10.7 31.2 5.9 11.9 7.6 16.6 9.4 25.3 2 9.6 2 19.8 0 31.1 -0.8 4.8 -1.3 9 -1.1 9.2 0.9 1 10.4 -6.4 13.4 -10.4 5.8 -7.6 6.5 -11.7 7.3 -43.2 0.7 -26.8 0.9 -29 3.4 -37.5 3.5 -11.4 9.9 -23.7 18.8 -35.6 11.8 -15.8 17.4 -26.8 19.8 -38.4 2.1 -10.3 -0.5 -24.3 -5.9 -31.1 -2.4 -3 -2.7 -5.4 -0.8 -5.4 1.4 0 10.4 6 16.6 11 5.3 4.3 12.3 14.8 14.8 22 1.3 4.2 1.8 8.2 1.7 16.5 -0.1 9.8 -0.6 12.4 -4.2 24.2 -5.9 18.9 -7.6 28.8 -6.9 40.3 0.6 9.7 2.4 17.7 5.4 24.6 1.3 3.1 1.7 3.5 2.1 1.9 1.4 -6.8 9 -28.2 12.3 -34.5 4.1 -7.9 9.3 -14.4 11.2 -13.7 0.6 0.2 1.7 4.1 2.5 8.8 0.7 4.6 3.6 15.1 6.3 23.3 4.3 12.8 4.9 15.8 4.7 21.4 -0.2 4.1 -0.8 6.7 -1.5 7 -1 0.3 -1.3 -1.5 -1.3 -6.7 0 -5.6 -0.8 -9.4 -3.9 -18.4 -2.1 -6.3 -4.9 -15.8 -6.2 -21.2 l-2.2 -9.8 -2.4 2.9 c-4 4.9 -9 16.5 -13.3 31 -2.3 7.7 -4.4 14.5 -4.6 15.2 -1.3 4.3 -6.3 -3.6 -9.6 -15.3 -1.9 -6.6 -2.3 -10.3 -2.2 -21 0.1 -11.5 0.5 -14.4 3.4 -25 1.8 -6.6 4.3 -15.8 5.6 -20.5 3.7 -13.7 2.9 -25 -2.7 -36.7 -2.1 -4.5 -16.8 -20.3 -18.9 -20.3 -0.4 0 0.1 2.4 1.3 5.2 1.6 4.1 2 7.6 2.1 15.3 0 16.3 -4.6 27.2 -21.2 49.9 -9.5 13 -15.4 24.4 -18.3 35.2 -1.8 6.7 -2.3 12.1 -2.9 35.9 -0.8 28.8 -1.2 32.1 -5.5 40.5 -4 7.9 -18.8 19.2 -21.4 16.4 -0.5 -0.5 -0.1 -5.3 1.1 -11.9 2.4 -13.3 2 -26.3 -1.2 -37.5 -1.2 -4.1 -5.5 -14.5 -9.5 -23 -7.5 -15.9 -9.5 -21.3 -9.5 -26.4 0 -4 -1.3 -2.4 -3.6 4.4 -1.7 4.8 -1.9 8.1 -1.6 25.2 0.3 21.6 -1 32.8 -5.4 46.8 -2.6 8.4 -10.4 22.8 -11.8 22 -0.5 -0.3 -1 -3.9 -1.1 -8 -0.1 -5.2 -0.8 -9.4 -2.4 -13.5 -8.6 -22.5 -9.2 -25.5 -6.7 -33.8 1.3 -4.4 1.3 -4.6 -0.4 -3.7 -4.2 2.3 -16.1 16.5 -19.5 23.3 -3.8 7.9 -6.5 21.3 -6.5 32.9 0 10.8 -2.8 10.3 -7.5 -1.6 -6.4 -16.4 -7.9 -35 -4.5 -58.6 3.8 -27.1 0.2 -44.6 -13.1 -64.1 l-4.4 -6.4 -0.6 9 c-0.8 11.4 -2.3 18.7 -6.1 29.5 -3.9 11.1 -7.3 17 -17.9 31.1 -11.6 15.4 -14.7 20.6 -17.7 29.7 -2.2 7 -2.6 9.9 -3.1 30.2 -0.4 13.4 -1.1 23.3 -1.8 24.4 -0.8 1.5 -1.1 -3.3 -1.1 -19.5z"/>
  <path d="M380 286.3 c0 -1 2.7 -6.5 6 -12.3 6.9 -12.1 8.6 -16.8 10.1 -29.4 1.5 -12.1 0.6 -20.2 -3.7 -33.8 -3 -9.7 -3.5 -12.4 -3.2 -19.1 0.2 -4.2 0.1 -7.7 -0.2 -7.7 -1 0 -11.7 11.5 -14.8 15.8 -3.2 4.5 -6.2 11.8 -10.7 26.2 -3.3 10.5 -10.2 24 -12.2 24 -1.1 0 -1.3 -0.6 -0.9 -2.2 1.7 -5.4 1.7 -20.8 0.2 -32.5 -3.3 -25.2 -1.8 -31.9 12.8 -55.1 11.2 -17.9 15.1 -35.9 11.1 -51.7 -1.7 -6.9 -6.4 -18.5 -7.4 -18.5 -0.4 0 -1.2 2.5 -1.8 5.5 -2.8 13.4 -13.3 28.9 -29.4 43.5 -30 27.3 -37 38.4 -39.9 63 -2.6 22.7 -3.3 26 -6 31.8 -2.9 6.2 -4.3 7.7 -6 6.7 -0.6 -0.3 0 -2.1 1.4 -4.3 3.5 -5.2 5.4 -12.9 6.6 -26.2 1.7 -18.3 5.2 -30.6 11.7 -41.3 3.7 -6.1 10.2 -13 33.4 -35.2 16.5 -15.7 25 -30.4 26.6 -45.7 0.3 -3.5 1 -5.7 1.7 -5.5 2 0.7 7.4 10.8 10.1 19.1 3.6 10.8 4.3 21.6 2.1 32.6 -2.2 10.7 -5.3 18.1 -12.5 29.4 -13.1 20.5 -14.9 28.5 -11.6 51.1 0.8 5.5 1.5 13.4 1.5 17.5 0.1 9.3 0.5 8.7 6.9 -10.9 5.9 -17.7 9.5 -24.1 18.3 -32.9 10.4 -10.3 16.6 -13.1 13 -5.9 -2.8 5.5 -2 14.6 2.4 27.7 3.7 11 3.8 12 3.7 24 -0.2 19.8 -2.6 28.8 -11.6 43.3 -1.8 2.9 -3.8 6.4 -4.5 8 -1.3 3 -3.2 3.6 -3.2 1z"/>
  <path d="M641.7 261.3 c-0.3 -0.5 1.3 -4.6 3.6 -9.2 4.1 -8.1 4.2 -8.8 4.2 -18 0 -8.2 -0.5 -11.1 -3.4 -19.6 -3 -9 -3.2 -10.9 -2.9 -19.1 0.3 -7.9 0.8 -10 3.6 -15.5 1.8 -3.5 6.4 -10 10.3 -14.4 11.3 -12.7 16.8 -21.9 18.4 -30.9 0.7 -3.7 2.1 -4.7 3.1 -2.2 0.8 2.1 -3.4 13.4 -7.4 20 -1.9 3.2 -6.8 9.5 -10.9 14 -4 4.5 -8.8 11 -10.6 14.6 -2.9 5.9 -3.2 7.2 -3.2 16 0 8 0.5 11 3.3 19.3 3.7 11.2 4.2 20 1.6 28.8 -2.8 9.5 -8.3 18.5 -9.7 16.2z"/>
  <path d="M1495 233.3 c-21.6 -32.3 -32.7 -45.1 -49.2 -57.4 -13.5 -10 -34.8 -19.5 -48 -21.4 -3.3 -0.5 -4.8 -1.2 -4.8 -2.2 0 -3.4 21.1 2.2 36.6 9.8 16.8 8.2 34.2 23.1 47.7 40.7 8.8 11.6 30.7 43.8 30.7 45.2 0 3.3 -3.7 -0.9 -13 -14.7z"/>
  <path d="M691 221.6 c0 -0.8 1.9 -2.4 4.3 -3.6 14.3 -7.5 23.3 -18.9 24.4 -31 0.4 -4.4 -0.2 -8 -2.7 -17 -2.8 -9.9 -3.2 -12.5 -2.8 -20.5 0.3 -8 0.8 -10 4.1 -16.9 4.9 -10.3 16.3 -21.8 29.2 -29.6 13.1 -7.8 25 -20 30.3 -31.1 7.4 -15.4 7.8 -26.4 1.5 -38.9 -2.3 -4.7 -5.2 -8.5 -8.9 -11.9 -3.2 -2.8 -5.1 -5.2 -4.5 -5.5 2.7 -1.7 12.3 8 16.5 16.6 4.3 8.8 5.4 17.3 3.4 26.7 -4 19.3 -15.6 33.9 -37.8 47.4 -12 7.4 -21.7 17.2 -26.5 27 -3.3 6.7 -3.9 9 -4.3 16.2 -0.4 7.1 0 9.8 2.8 19.6 4.1 14.3 3.9 20.6 -0.8 30.2 -3.8 7.7 -12.1 15.8 -21.1 20.6 -6.7 3.5 -7.1 3.6 -7.1 1.7z"/>
  <path d="M526.5 177.8 c-2.3 -5.6 -3.1 -18.4 -1.6 -24.5 2.1 -8.4 6.8 -16.6 17.7 -31.4 5.8 -7.9 12.5 -18.4 14.9 -23.4 7.3 -14.9 10.1 -31.4 7.5 -44.5 -1 -5.2 0.2 -7.3 2.1 -3.9 2.1 3.7 1.8 25.8 -0.4 33.9 -2.9 10.5 -9.9 23.6 -20 37.4 -11.7 15.9 -15.2 21.6 -17.7 28.9 -3.1 8.9 -2.6 20.2 1.5 30 0.5 1.2 0.3 1.7 -0.8 1.7 -0.8 0 -2.3 -1.9 -3.2 -4.2z"/>
  <path d="M98.1 169.2 c-3.2 -7.9 -3.8 -16.5 -1.6 -23.7 2 -6.4 5.8 -12.3 17 -27 20.3 -26.5 24.8 -51 13.5 -73.5 -1.6 -3.2 -4.3 -7.5 -6 -9.3 -3 -3.4 -3.8 -5.7 -2.1 -5.7 1.7 0 8.1 8 11.1 14 4.3 8.5 6 16 6 26.5 0 17.3 -6.5 32.7 -22.2 52.6 -15.1 19.4 -18.5 29.6 -13.9 42.4 2.7 7.3 2.9 8.7 1.6 9.1 -0.5 0.2 -2.1 -2.2 -3.4 -5.4z"/>
  <path d="M413.6 168.2 c-0.3 -0.4 0.8 -3.4 2.5 -6.7 3.6 -7.1 3.6 -10.1 0.3 -19.6 -3.5 -10.4 -3.6 -18.8 0 -25.9 4.1 -8.1 9.7 -14.2 19.4 -20.8 11.3 -7.8 16.4 -12 21.4 -17.9 7.8 -9.4 12.8 -22.5 12.8 -34 0 -6.2 -2.4 -18.3 -4.5 -22.3 -1.5 -2.9 -0.4 -5.3 1.5 -3.4 2 2.1 5.2 14.5 5.7 22.3 1.3 22.1 -9.1 40.1 -32.3 55.8 -10.4 7.1 -18.8 15.7 -21.5 22.1 -2.6 6.1 -2.4 14 0.7 24.1 3 10 2.8 15.1 -1.1 21.7 -2.7 4.6 -4.1 5.9 -4.9 4.6z"/>
  <path d="M1119 167 c0 -0.5 3 -2.7 6.8 -4.8 28.1 -16.4 62.7 -28.8 94 -33.7 29.9 -4.6 67.8 -3.3 82.7 2.9 3.9 1.7 4.9 4.2 1.3 3.2 -15.6 -4.5 -21.1 -5.1 -47.3 -5 -27.5 0 -33.9 0.7 -55.8 5.8 -22.5 5.4 -48 15.2 -68.3 26.5 -10.8 6 -13.4 7 -13.4 5.1z"/>
  <path d="M282 141.1 c0 -0.5 2.6 -3.6 5.8 -6.8 9.6 -9.8 15.8 -22.5 18.2 -37.8 2.5 -15.3 -3.4 -36.9 -13.1 -48 -2.5 -2.8 -2.9 -3.9 -2 -4.8 1 -0.9 1.7 -0.6 3.4 1.7 12.2 16 17.5 34.8 14.7 51.7 -2.8 16.4 -8.5 28.3 -18.7 38.6 -5.7 5.9 -8.3 7.5 -8.3 5.4z"/>
  <path d="M173.8 133.5 c-0.3 -0.4 1 -3.6 2.9 -7.3 3.4 -6.4 3.5 -7 3.1 -15.2 -0.4 -7.5 -1.2 -10.3 -6.6 -24 -3.3 -8.5 -6.6 -18.5 -7.2 -22.1 -2.3 -13.1 2.8 -27.9 13.1 -38.2 5.5 -5.5 7.9 -6.9 7.9 -4.7 0 0.6 -2.4 3.4 -5.3 6.3 -9.5 9.2 -14.4 23.2 -12.7 35.9 0.4 2.9 2.7 10.3 5 16.3 8.8 22.6 9.2 24.2 8.8 33 -0.2 6.7 -0.8 9.2 -3.3 14 -2.9 5.6 -4.4 7.2 -5.7 6z"/>
 </g>
</svg>