<?xml version="1.0" encoding="utf-8"?>
<!DOCTYPE svg PUBLIC "-//W3C//DTD SVG 1.0//EN" "http://www.w3.org/TR/2001/REC-SVG-20010904/DTD/svg10.dtd">
<svg version="1.0" xmlns="http://www.w3.org/2000/svg" width="50px" height="49px" viewBox="0 0 50 49" preserveAspectRatio="xMidYMid meet">
 <g fill="#1c1c24">
  <path d="M20.2 40.8 c-0.7 -0.7 -1.2 -3.8 -1.2 -6.9 0 -5.1 -0.2 -5.8 -2.2 -6.1 -4.7 -0.7 -4.4 -8.8 0.3 -8.8 1.5 0 1.9 -0.7 1.9 -3.5 0 -4.5 3.4 -8.1 8.4 -9 5.2 -1 6.6 -0.1 6.6 3.9 0 2.8 -0.5 3.8 -2.7 4.8 -3.7 1.8 -4 3.6 -0.6 4 2.5 0.3 2.8 0.7 2.8 3.8 0 2.9 -0.4 3.6 -2.2 3.8 -2.1 0.3 -2.3 0.9 -2.3 5.8 0 3.1 -0.5 6.4 -1 7.5 -1.2 2.2 -5.9 2.6 -7.8 0.7z m6.3 -7.3 c0 -6.7 0.7 -8.5 3.6 -8.5 1.2 0 1.9 -0.7 1.9 -2 0 -1.6 -0.7 -2 -3 -2 -2.4 0 -3 -0.4 -3 -2.2 0 -2.5 2.7 -5.8 4.7 -5.8 0.7 0 1.3 -1.1 1.3 -2.6 0 -2.5 -0.2 -2.6 -3.6 -2.1 -5.4 0.9 -7.4 3.2 -7.4 8.4 0 3.9 -0.2 4.3 -2.5 4.3 -2 0 -2.5 0.5 -2.5 2.5 0 2 0.5 2.5 2.5 2.5 2.8 0 2.8 0.1 2.5 8.3 l-0.2 5.9 2.9 -0.4 c2.7 -0.3 2.8 -0.4 2.8 -6.3z"/>
 </g>
</svg>