<?xml version="1.0" encoding="utf-8"?>
<!DOCTYPE svg PUBLIC "-//W3C//DTD SVG 1.0//EN" "http://www.w3.org/TR/2001/REC-SVG-20010904/DTD/svg10.dtd">
<svg version="1.0" xmlns="http://www.w3.org/2000/svg" width="815px" height="1021px" fill="none" stroke="#1c1c24" stroke-width="1,9" viewBox="0 0 815 1021" preserveAspectRatio="xMidYMid meet">
 <g fill="#1c1c24">
  <path d="M296 1015.7 c-6.1 -5 -23.2 -18.1 -46.7 -35.8 -5.7 -4.3 -13.6 -9.8 -17.7 -12.4 -6.6 -4.1 -8.2 -4.7 -13.8 -4.9 -12.1 -0.4 -23.5 -8.3 -32.7 -22.6 -3.1 -4.8 -5.9 -7.5 -12.8 -12.2 -23.2 -16.1 -39.1 -29 -55.8 -45.5 -25.3 -24.8 -35.9 -38.1 -55.3 -69.4 -6 -9.6 -11.4 -17 -16.4 -22 -12.3 -12.8 -18.3 -28.8 -19.5 -52.6 -0.3 -6.8 -1 -12.3 -1.5 -12.3 -0.4 0 -0.8 -0.7 -0.8 -1.6 0 -0.9 -1.6 -8 -3.5 -15.8 -9 -37 -10.9 -78.7 -5.1 -111.6 7.6 -42.8 20.9 -78.9 42.4 -114.2 13 -21.5 20 -30.5 37.2 -48.3 9.1 -9.3 17.9 -19 19.5 -21.5 1.5 -2.5 4.5 -6.4 6.4 -8.8 3.9 -4.8 16.7 -13.8 20.9 -14.9 2.7 -0.6 3.8 -1.4 19.8 -15.7 4.9 -4.3 21.1 -17.3 35.9 -29 27.9 -21.8 38.1 -30.1 72 -59.1 11 -9.3 29.2 -24.7 40.5 -34 56.9 -47.1 71.4 -60 88.3 -78.3 l6.7 -7.3 0 -72.9 0 -72.9 2.3 -2.7 c1.3 -1.5 3.6 -2.8 5.2 -3 1.7 -0.2 88.6 -0.9 193.1 -1.5 187.9 -1.2 190.2 -1.2 193.5 0.7 1.8 1.1 4.1 3.3 5 4.9 1.6 2.8 1.7 15.2 0.7 204 -0.7 139.3 -1.3 201.9 -2.1 203.9 -2.1 5.7 1.5 5.5 -111.4 6.2 l-103.8 0.7 -15.5 14.6 c-41.1 38.9 -73.7 67.4 -123.2 108 l-35.8 29.2 0 49.4 0 49.4 2.8 0.3 2.7 0.3 0.3 36.5 0.3 36.5 14.2 9 c18 11.4 59.1 39.5 72.2 49.4 21.1 15.8 36.6 29.1 51.5 44 23.7 23.8 36.3 41.5 51.6 72.6 12.8 26 17.8 43.4 20.9 72.3 1.5 13.7 1.5 17.6 0 16.1 -0.2 -0.3 -1.2 -7.2 -2 -15.5 -2.8 -25.7 -8.6 -47.2 -18.3 -67.4 -30.1 -62.9 -68.7 -99.9 -176.7 -169.5 -20.7 -13.4 -28.8 -18.9 -46.2 -31.6 -15.2 -11 -23.3 -16.7 -28.3 -20 -14.4 -9.5 -37.8 -9.9 -57.8 -0.9 -13.9 6.4 -39.6 25.7 -49.3 37.1 -11.1 13.1 -25.3 34.6 -31.9 48.4 -7.6 15.9 -16 43.4 -20 65.5 -4.1 22.7 -3.8 42.1 1.1 60.7 1.9 7.1 6.3 16.9 9.1 20.3 1.7 2.1 9.6 8.2 13.5 10.6 12.7 7.7 40.4 27.9 68.8 50.2 15 11.8 15.4 12.2 13.4 12.2 -0.8 0 -4.4 -2.4 -7.9 -5.3z m-78.5 -57.3 c-6.1 -4 -12.4 -10.4 -14.7 -14.8 -8 -15.6 -11.6 -40.5 -8.9 -63.2 3.1 -26.5 12.4 -59.2 22.7 -80.1 7.2 -14.7 21.2 -36.2 30.1 -46.5 12.2 -13.9 32.8 -30 48.8 -38.1 19.6 -9.9 39.6 -11.2 56.1 -3.7 3.5 1.6 6.4 2.5 6.4 2.1 0 -0.4 -2.6 -3.9 -5.8 -7.7 -5.3 -6.4 -6.4 -7.2 -14.2 -10.2 -7.9 -3 -9.1 -3.2 -16.9 -2.7 -15.9 1 -35.5 6.7 -48.6 13.9 -9.2 5.2 -17.8 11.9 -28.9 22.6 -17.8 17.1 -30.5 34.6 -41.7 57.5 -11.3 23.2 -18.1 47 -21 74.2 -1.6 15.2 -0.6 46.2 1.9 61.9 1.8 11 2.3 12.7 6 18 8.3 12.2 18.7 19.1 29.2 19.3 l3.5 0.1 -4 -2.6z m-35.9 -28.7 c-3.3 -13.3 -4.7 -50.8 -2.6 -70.2 5.7 -51.5 28.1 -97.6 64.1 -131.9 23 -21.9 43.4 -31.9 72.6 -35.7 l9.2 -1.2 -9.7 -7.3 c-5.3 -3.9 -14.9 -11.7 -21.2 -17.3 -38.9 -34.3 -42.4 -36.9 -57.5 -44.2 -23.7 -11.3 -43.8 -14.7 -70.3 -11.8 -38.7 4.2 -64.9 17.6 -91.1 46.4 -12.7 14.1 -25 36.3 -29.5 53.6 -4.9 18.4 -5.7 39.9 -2.2 58.3 2.2 11.4 8.9 26.1 20.8 45.6 7.7 12.5 16.1 25 16.5 24.6 0.2 -0.1 -0.8 -6.8 -2.1 -14.7 -5 -29.7 -5.6 -51.8 -2 -76.9 1.7 -11.6 5.1 -27.5 6.6 -30.3 2 -3.8 1.9 -0.6 -0.1 7.5 -7.9 31.8 -8.7 63.2 -2.5 98.8 1.4 8 2.7 15.8 2.8 17.4 0.7 6.5 36.2 44.3 59.1 62.7 9.7 7.9 37.9 28.5 39.4 28.8 0.2 0.1 0.1 -0.9 -0.3 -2.2z m-133.2 -140.4 c-6.8 -15.9 -9.4 -28.5 -9.4 -45.3 0.1 -20.8 4.3 -38.6 13.6 -57.3 7.3 -14.8 14 -24.2 25.9 -36.5 24.9 -26 50.3 -38.2 87.7 -42.3 28.6 -3.1 56 2.5 79 16.2 9.3 5.5 26.5 19 37.4 29.1 7.4 6.9 7.8 6.2 2.2 -4.4 -10.1 -19.2 -37.6 -40 -65.2 -49.2 -16.6 -5.5 -26.4 -7 -48.1 -7 -17.5 -0.1 -21.3 0.2 -30.4 2.2 -48.3 10.8 -82.9 42.8 -105.6 97.6 -1.9 4.6 -4.7 13.1 -6.1 18.8 -2.4 9.4 -2.6 11.5 -2.1 23.8 1 25.1 6.3 41.3 17.5 53.2 2.5 2.7 4.6 4.8 4.9 4.8 0.2 0 -0.4 -1.7 -1.3 -3.7z m367.2 -103 c-0.2 -0.2 -12.6 -0.4 -27.6 -0.4 -21.7 -0.1 -27.4 0.2 -28.1 1.3 -1.1 1.6 -1.1 11.9 0 21.1 0.5 4.9 1.3 7.3 2.9 8.9 l2.2 2.2 0 -11.1 c0 -11.5 0.7 -17.6 2 -16.8 0.4 0.2 0.5 7.1 0.3 15.2 l-0.4 14.8 9.3 6.7 9.3 6.6 0.7 -5.1 c0.3 -2.9 0.6 -11.4 0.7 -18.9 0.1 -9.4 0.5 -13.8 1.2 -13.8 0.8 0 1 5.7 0.8 20 l-0.4 20.1 13.5 9.4 13.5 9.3 0.3 -34.5 c0.1 -19 0.1 -34.8 -0.2 -35z m-388.3 24.8 c3.4 -15.2 14.2 -39.2 25.1 -56 22.4 -34.5 55.8 -56.9 94.5 -63.5 19.2 -3.3 47.7 -1.6 66.9 4 20.2 5.8 44.2 19.6 58.1 33.3 6.8 6.7 14.8 17.8 17.5 24.3 l1.4 3.2 4 -8.4 c11.6 -24.6 17.4 -55 15.7 -82.5 -4 -66.3 -37.1 -118.4 -94.9 -149.1 -19.4 -10.3 -30.3 -13.4 -47.1 -13.4 -14.7 0 -23.1 1.7 -39.7 8 l-13.6 5.2 -17.9 18.1 c-22.4 22.7 -33.3 37.8 -49.2 67.8 -17.3 32.6 -29.7 74.1 -34.2 113.9 -2.2 19.3 0.3 59 5.1 81.5 2.7 12.4 5.2 21.5 5.9 21.5 0.3 0 1.4 -3.6 2.4 -7.9z m329.9 -11.8 c-0.3 -12.3 0.7 -15.6 5.1 -16.1 l2.7 -0.3 0 -30 c0 -16.4 -0.2 -29.9 -0.5 -29.9 -0.2 0 -5.8 3.9 -12.3 8.8 -6.5 4.8 -20.7 14.8 -31.5 22.2 -10.8 7.4 -19.6 14 -19.7 14.7 0 1.3 5.9 6.3 18.5 15.4 5.9 4.3 11.6 7.6 16.6 9.3 10.2 3.7 13.1 5.6 17.6 11.5 2.1 2.7 3.8 5 3.8 5 0 0.1 -0.1 -4.7 -0.3 -10.6z m52.8 -122.3 l0 -107 -9.3 0 c-5.2 0 -14.9 0.3 -21.5 0.7 l-12.2 0.6 0 106.4 0 106.3 21.5 0 21.5 0 0 -107z m-106.3 83.4 c5.7 -8 15.6 -28.1 18.6 -37.9 5.5 -17.7 6.2 -23.4 6.2 -48 -0.1 -21.6 -0.2 -23.7 -2.9 -35 -11.2 -48.3 -34.6 -89 -66.2 -115.4 -23.8 -19.9 -44.8 -30.7 -67.3 -34.6 -11.9 -2.1 -42.8 -2.1 -47.9 0.1 -8.4 3.5 -18.4 10.7 -23.8 17.2 -2.9 3.6 -5.2 6.7 -5.1 6.8 0.2 0.2 4.8 -1.5 10.2 -3.7 16.8 -6.8 26.8 -8.9 42.4 -9 16.8 0 25.9 2.3 43.1 10.9 31.2 15.5 55.4 36.6 73.3 63.7 21.4 32.4 32 77.3 27.6 117.3 -2.4 22.2 -6.6 37.3 -15.5 56.1 l-5.4 11.5 3.2 3.3 c1.8 1.8 3.7 3.2 4.3 3 0.5 -0.2 2.9 -3 5.2 -6.3z m19.8 -10.7 c8.8 -6.1 21.7 -15.3 28.8 -20.5 l12.7 -9.4 0 -10 0 -9.9 -3.2 2.2 c-1.8 1.3 -7.9 5.6 -13.5 9.6 -5.6 4 -10.8 7.3 -11.5 7.3 -0.9 0 -0.8 -0.4 0.2 -1.4 2.9 -2.9 25.5 -18.6 26.8 -18.6 0.8 0 1.2 -2.3 1.2 -8 0 -4.4 -0.2 -8 -0.5 -8 -0.3 0 -3.5 2.3 -7 5 -3.6 2.8 -9.5 7.3 -13.2 10.2 -3.8 2.8 -7.3 5.5 -8 6 -0.6 0.5 -1.4 0.5 -1.6 0 -0.3 -0.4 6.4 -6.1 14.9 -12.6 l15.4 -11.9 0 -10 0 -9.9 -4.2 3.4 c-21.1 17 -22.9 18.2 -22.8 16.1 0.1 -0.5 6.1 -5.5 13.5 -11.3 l13.4 -10.5 0.1 -6.7 c0 -3.8 -0.3 -6.8 -0.6 -6.8 -0.3 0 -5.2 3.9 -11 8.6 -5.7 4.7 -10.9 8.4 -11.6 8.2 -0.7 -0.3 4.3 -4.8 11 -10.2 l12.2 -9.9 -0.4 -35.6 c-0.2 -19.6 -1 -50 -1.6 -67.5 -1 -26.9 -0.9 -32.1 0.2 -33.3 1.1 -1 6.4 -1.5 21.1 -2 l19.7 -0.6 0 -116.4 0 -116.4 -12.2 12.7 c-15.3 15.8 -25.3 24.6 -74.7 65.8 -21.7 18.1 -50.1 42 -63.1 53 -26.2 22.4 -27.6 23.5 -61 49.6 -23.5 18.3 -26.5 20.7 -37.2 30.6 l-5.7 5.2 17.2 -0.1 c24.8 -0.1 37.8 2.8 57.7 12.8 43.3 21.8 77.5 62.5 94.7 112.9 8.6 25.2 11.5 41.6 11.5 64.6 0.1 29.1 -6.5 53.7 -20.4 76.8 -3.1 5 -5.1 8.9 -4.5 8.5 0.7 -0.3 8.4 -5.6 17.2 -11.6z m121.5 -94.3 c51.6 -42 94.9 -80.1 128.4 -112.7 l10.1 -9.8 -35.5 0.5 c-19.5 0.3 -52 0.6 -72.2 0.6 l-36.8 0 0 4.3 c0 7.3 -1.3 8.2 -12.4 8.2 -11.2 -0.1 -10.6 -0.9 -10.6 13.8 0 9 -0.2 9.9 -2 10.4 -1.9 0.5 -2 1.4 -2 15 l0 14.5 4.3 -3.7 c2.3 -2 11.6 -9.7 20.7 -17.2 9.1 -7.6 20.3 -17 24.9 -21 4.6 -4 8.6 -7.1 8.9 -6.8 0.9 0.9 -3.1 4.6 -23.8 21.8 -11.3 9.4 -23.8 19.9 -27.7 23.5 l-7.3 6.4 0 11.5 0 11.5 4.2 -3.4 c10.7 -8.3 44.7 -38.8 67.6 -60.6 7.7 -7.3 14.3 -12.9 14.6 -12.4 0.9 1.4 -38.4 38.1 -69.7 65.1 l-16.7 14.4 0 10.4 0 10.5 3.3 -2.7 c1.7 -1.5 7.9 -7.1 13.7 -12.5 15.7 -14.5 30.9 -28 47 -42 23.4 -20.2 43.5 -38.6 49.4 -45.2 3.8 -4.2 5.6 -5.6 5.6 -4.3 0 2.6 -17.5 19.3 -49.5 47.3 -15.4 13.5 -35.4 31.3 -44.4 39.6 -9 8.3 -18.3 16.7 -20.7 18.6 l-4.3 3.5 -0.1 8.3 c0 4.5 0.3 8.2 0.7 8.2 2.9 0 63.5 -52.3 94.3 -81.4 17.7 -16.7 44.3 -41.1 45.2 -41.5 3 -1 -2 3.9 -25.8 26.1 -51.2 47.7 -94.1 85.6 -109.6 96.7 -4.6 3.3 -4.8 3.6 -4.8 8.4 0 3.8 0.3 4.7 1.3 4 0.6 -0.6 14.9 -12.2 31.7 -25.9z m-31.3 -87.8 c0.1 0 0.3 -5.3 0.5 -11.6 l0.3 -11.5 7.5 -0.1 c13.7 -0.1 13.9 -0.2 14.6 -2.9 0.3 -1.4 0.4 -3.6 0 -4.9 -0.5 -2.1 -1.2 -2.4 -9.1 -2.8 -6.7 -0.5 -9.8 -1.2 -14.2 -3.4 -7.6 -3.9 -9.3 -7.2 -9.3 -18.3 l0 -8.4 -19.1 0.6 c-10.5 0.4 -19.5 1 -20 1.2 -0.8 0.5 -0.2 59.5 0.6 62.2 0.3 1 5.8 1.1 24.2 0.6 13.1 -0.3 23.9 -0.6 24 -0.7z m275.3 -37.2 c66.7 -0.3 104.7 -0.9 106.8 -1.6 1.9 -0.5 3.7 -1.9 4.1 -3.1 0.5 -1.2 0.9 -46.5 1 -100.6 0.1 -54.2 0.4 -98.7 0.6 -99 0.2 -0.3 0.5 -46.8 0.6 -103.4 l0.3 -102.7 -2.7 -2.8 -2.8 -2.7 -119.7 0.4 c-65.8 0.2 -153.1 0.6 -194 1 -72.1 0.6 -74.4 0.7 -75.8 2.5 -1.2 1.7 -1.4 30.9 -1.4 202 0 196.4 0 200.2 2 203.3 1 1.7 2.9 3.7 4.2 4.4 6.9 3.7 10 3.9 92.8 3.4 44.3 -0.3 127.1 -0.8 184 -1.1z"/>
  <path d="M160.5 908.8 c-2.1 -5.6 -4.6 -18.8 -5.5 -29 -1.3 -12.9 -0.1 -33.1 2 -35.2 1.2 -1.2 1.2 -0.3 0 12.9 -1.1 12.5 0.2 29.8 3.4 42.8 1.3 5.4 1.9 9.7 1.4 9.7 -0.5 0 -1.1 -0.6 -1.3 -1.2z"/>
  <path d="M148.6 901.3 c-4.5 -21.4 -6 -35.7 -6.1 -55.8 0 -11.5 0.4 -22.3 0.8 -23.9 1.4 -5.1 2.5 -1.3 1.6 5.9 -1.9 16.3 -0.6 36.9 4.1 63.5 2.3 13.3 2.3 13 1.1 13 -0.5 0 -1.2 -1.2 -1.5 -2.7z"/>
  <path d="M166.7 893.8 c-3.6 -14.1 -3 -53.8 0.7 -57.5 1.2 -1.3 1.4 0.3 0.5 4.7 -2.4 12.4 -2.1 37.9 0.7 51.8 0.7 3.6 -1 4.6 -1.9 1z"/>
  <path d="M138.6 892.4 c-1.2 -3.9 -3.5 -27.6 -4.2 -42.5 -0.7 -16.3 0.7 -36.5 2.7 -38.4 0.8 -0.7 1 0.5 0.5 4.5 -2.1 19.7 -1.4 46.1 1.9 67.7 0.7 4.8 0.9 9.2 0.5 9.7 -0.4 0.4 -1.1 0 -1.4 -1z"/>
  <path d="M129.9 884.8 c-2.1 -8.1 -3.8 -17.3 -5 -27.3 -1.9 -16 0.2 -50.2 3.3 -53 0.7 -0.7 0.9 0.5 0.4 4 -2 15 -2.8 28.3 -2.2 39 0.5 11.1 3.3 29.5 5.5 37.2 0.5 1.9 0.6 3.5 0.1 3.8 -0.5 0.3 -1.4 -1.4 -2.1 -3.7z"/>
  <path d="M121.2 876.3 c-2.2 -4 -7 -24.7 -8.3 -35.3 -2.2 -19.6 1 -63.4 4.6 -59.9 0.2 0.3 -0.3 4.7 -1.2 9.9 -1.1 6.5 -1.6 16.1 -1.7 30 -0.1 21.9 0.8 28.9 6 46.6 2.5 8.7 2.8 12.8 0.6 8.7z"/>
  <path d="M107.3 865 c-3.9 -9.4 -9.6 -34.3 -11.4 -50 -2 -17.4 0.1 -46.3 4.2 -58.7 1.1 -3.3 3.5 -4.8 2.5 -1.5 -8.2 26.4 -6.9 64.6 3.4 99.1 1.7 5.7 2.9 11.1 2.7 12 -0.3 1.2 -0.6 1 -1.4 -0.9z"/>
  <path d="M95.2 852.2 c-4 -10.2 -9.4 -32.3 -11.2 -45.9 -2.7 -19.7 1.1 -79.2 4.9 -76.9 0.4 0.3 -0.1 5.8 -1.1 12.3 -2.4 15.9 -3.4 50 -1.9 62.9 1.3 10.4 6.7 33.9 10 43.6 2 5.7 1.3 9.3 -0.7 4z"/>
  <path d="M72.9 821.8 c-7.1 -26.5 -9.8 -62.9 -6.4 -85.6 2.6 -17.7 7.6 -36.2 9.7 -36.2 0.6 0 0.7 0.8 0.3 1.8 -1.9 4.8 -6.6 25.3 -7.9 35.1 -3.4 24.3 -0.9 55.5 6.9 86.4 0.5 1.7 0.3 2.7 -0.4 2.7 -0.5 0 -1.5 -1.9 -2.2 -4.2z"/>
  <path d="M62.1 807.3 c-4.1 -15.5 -6.6 -43.1 -5.7 -61.3 0.9 -18.6 5.9 -45.9 8.5 -46.8 1 -0.3 1.2 0 0.7 1.3 -1.5 4.1 -5.6 26.8 -6.7 37.5 -2 19.8 0.5 50 5.6 70.3 0.5 1.7 0.3 2.7 -0.4 2.7 -0.5 0 -1.5 -1.7 -2 -3.7z"/>
  <path d="M406.7 738.3 c-1 -14.6 -0.8 -37.6 0.3 -39.3 0.5 -0.8 1 -1 1 -0.5 0 0.6 0.2 11.9 0.4 25.3 0.5 24.3 -0.5 32.6 -1.7 14.5z"/>
  <path d="M396.9 739.5 c-0.9 -0.9 0.2 -39.9 1.2 -40.9 0.5 -0.6 0.9 7.1 0.8 18.5 0 17.9 -0.6 23.9 -2 22.4z"/>
  <path d="M377 706 c0 -8.7 0.4 -14 1 -14 0.6 0 1 5.3 1 14 0 8.7 -0.4 14 -1 14 -0.6 0 -1 -5.3 -1 -14z"/>
  <path d="M25 696.7 c0 -3.7 3.3 -26.7 4.9 -34.8 2.2 -10.3 6.3 -25.1 8.6 -30.5 2.3 -5.6 3.7 -3.9 1.4 1.9 -4.9 12.3 -9.2 33.2 -12.4 59.5 -0.4 2.8 -1.1 5.2 -1.6 5.2 -0.5 0 -0.9 -0.6 -0.9 -1.3z"/>
  <path d="M20.6 686.2 c-0.3 -0.5 -0.9 -6.2 -1.5 -12.8 -1.1 -12.1 -0.3 -29.1 1.9 -43.1 1.3 -8.3 5.8 -26.7 7.2 -29.9 1.8 -4 2.8 -1.6 1.2 2.9 -2.3 6.4 -5.4 21 -7 32.7 -1.4 11.2 -1.8 36 -0.5 44.8 0.7 4.8 0 7.5 -1.3 5.4z"/>
  <path d="M292.4 637.3 c-4.7 -21.7 -10.1 -33.8 -22.7 -51.1 -4.1 -5.7 -4.3 -8.6 -0.2 -3.7 9.3 11.2 19.8 31.9 22.9 45 2.6 11 2.7 11.3 1.6 12 -0.5 0.3 -1.2 -0.7 -1.6 -2.2z"/>
  <path d="M278.3 620.8 c-5.4 -11.1 -15.3 -21.3 -32.3 -33.3 -4.6 -3.2 -7.8 -6.1 -7.2 -6.3 1.5 -0.5 15.9 9.6 23.2 16.3 9.5 8.6 20 22.4 20 26.4 0 2.4 -1.7 0.9 -3.7 -3.1z"/>
  <path d="M294.5 617.8 c-1.8 -17.5 -5.5 -24.9 -19.7 -39.5 -3.4 -3.5 -5.8 -6.6 -5.4 -7 0.9 -1 12.8 11 17.2 17.4 6.2 9 10.4 22.2 10.4 33.1 0 6.1 -1.8 3.2 -2.5 -4z"/>
  <path d="M300.6 611.3 c-2.3 -19.1 -5 -27.9 -12.1 -39.4 -3.6 -5.9 -4 -6.9 -2.7 -6.9 2.3 0 11.7 18.8 14.1 28.2 2.2 8.9 3.6 22.8 2.2 22.8 -0.5 0 -1.2 -2.1 -1.5 -4.7z"/>
  <path d="M263 397.2 c0 -1.2 15.9 -14.6 43.5 -36.7 24.8 -19.8 71.7 -55.5 72.9 -55.5 2.2 0 -1.4 3.2 -16.6 14.5 -29.5 22 -64.7 49.8 -86.5 68.2 -12 10.1 -13.3 11.1 -13.3 9.5z"/>
  <path d="M200.2 370.8 c0.5 -1.4 9.5 -9 49.4 -41.8 30.4 -25 97.4 -80.7 111.3 -92.5 5.5 -4.7 10.1 -8.1 10.1 -7.5 0 1.3 -4.7 5.6 -17 16 -12.7 10.7 -59.6 49.6 -78 64.9 -9.6 7.9 -21.1 17.4 -25.5 21.1 -4.4 3.6 -12.9 10.6 -19 15.6 -6 4.9 -15.4 12.6 -20.8 17.1 -10 8.4 -11.2 9.3 -10.5 7.1z"/>
  <path d="M227 371.1 c0 -0.4 20.1 -17 44.6 -36.7 24.6 -19.7 53 -42.6 63.1 -50.9 22.9 -18.6 23.3 -18.9 23.3 -17.7 0 1.5 -9.2 9.2 -58.5 48.8 -25.3 20.4 -51.7 41.6 -58.6 47.2 -12.4 10 -13.9 11.1 -13.9 9.3z"/>
  <path d="M246 371.2 c0 -3.8 102.8 -83.1 106.2 -82 0.7 0.3 -4.7 4.6 -11.8 9.8 -28 20.3 -61.1 45.8 -81.1 62.7 -12 10.2 -13.3 11.1 -13.3 9.5z"/>
  <path d="M277.2 362.9 c0.4 -1.5 40.4 -31.9 56.6 -43 5.6 -3.9 10.8 -6.9 11.4 -6.7 0.6 0.2 -3.8 3.8 -9.8 8 -6 4.1 -21.1 15.2 -33.6 24.6 -26.1 19.5 -25.2 18.9 -24.6 17.1z"/>
  <path d="M382.9 462.3 c-0.4 -3.7 1.8 -45.6 2.7 -51.2 0.3 -1.8 0.9 -3 1.3 -2.5 0.5 0.5 0.2 9.7 -0.5 20.4 -0.7 10.7 -1.3 22.5 -1.4 26.2 0 3.7 -0.4 7 -1 7.3 -0.5 0.3 -1 0.3 -1.1 -0.2z"/>
  <path d="M369.6 460.2 c-1 -1.7 0.4 -52.2 1.5 -52.2 1 0 1 26.8 0 43 -0.4 6.3 -0.9 10 -1.5 9.2z"/>
  <path d="M403.5 447.9 c-0.6 -11.8 -0.4 -15.1 1 -13.8 1 1 1.8 26.9 0.8 26.9 -0.6 0 -1.3 -5.3 -1.8 -13.1z"/>
  <path d="M376.6 458.4 c-0.8 -2.1 -0.8 -31.7 0.1 -42.1 1.2 -16.1 2.3 -8 2.3 17.1 0 23 -0.6 29.6 -2.4 25z"/>
  <path d="M392.7 440.8 c-0.5 -18.3 0 -24.9 1.4 -18.3 1 4.5 1 37.5 0.1 37.5 -0.5 0 -1.2 -8.6 -1.5 -19.2z"/>
  <path d="M409 448.4 c0 -6.7 0.4 -10.3 1 -9.9 0.6 0.3 1 5 1 10.6 0 5.9 -0.4 9.9 -1 9.9 -0.6 0 -1 -4.2 -1 -10.6z"/>
  <path d="M786.5 356.7 c-1 -56 -0.2 -276.4 1 -277.6 0.7 -0.7 1 55.3 1 158.5 0 87.6 -0.3 159.4 -0.6 159.4 -0.4 0 -1 -18.2 -1.4 -40.3z"/>
  <path d="M643.1 388.4 c-1 -0.7 -2.1 -1.1 -2.4 -0.8 -0.3 0.3 -1.5 0 -2.7 -0.6 -2 -1.1 -2.1 -1.7 -1.5 -7.4 l0.7 -6.2 -8.9 1.3 c-21 3.3 -50.5 0.6 -73.7 -6.7 -17.3 -5.4 -19.5 -6.5 -34.3 -16.6 -36.2 -24.8 -60 -60.4 -68 -101.4 -2.8 -14.4 -2.5 -44.8 0.5 -58.7 6 -27.5 16.9 -50 34.5 -70.9 21.9 -26.1 53.8 -44.9 89.1 -52.6 8.6 -1.9 13.1 -2.2 31.1 -2.2 23.2 0 30.6 1.1 49.5 7.4 51.9 17.3 91.8 62.6 102.5 116.5 13.4 66.9 -20.1 136.7 -80.8 168.5 l-10.4 5.5 -0.6 7.1 c-0.9 12.3 -4.7 16.7 -16 18.2 -5.1 0.6 -7.2 0.5 -8.6 -0.4z m7 -5.4 c1.2 -2.2 1.9 -5.5 1.9 -9.2 0 -3.2 0.4 -5.8 1 -5.8 1.5 0 1.2 10.6 -0.5 14.7 -1.8 4.4 -1.8 4.3 0 4.3 2.3 0 5.3 -5.7 6.6 -12.2 0.6 -3.2 1.5 -5.5 2 -5.2 1.3 0.7 0 8.2 -2.1 12.6 -1.6 3.4 -1.7 3.7 -0.1 2.9 4.8 -2.6 7.5 -9.9 6.9 -19 -0.2 -4.6 0 -5.6 1.3 -5.3 2.3 0.3 10.5 -8 11.2 -11.4 0.6 -3.4 -0.4 -9.7 -3.6 -21.4 l-2.2 -8.5 -6.5 3.2 c-3.8 1.9 -8.9 3.5 -12.2 3.9 -6.6 0.8 -6.6 0.8 -4.2 9.6 1.6 5.6 2.6 6.9 3.9 4.8 2.2 -3.6 15.5 -7 15.5 -4 0 0.6 -1.6 1 -3.7 1 -5.3 0 -11.6 4.1 -16.3 10.7 -4.6 6.5 -4.9 7.6 -1.7 6.8 2.8 -0.7 9.9 0.7 10.4 2.1 0.2 0.6 -2.2 0.8 -6.5 0.6 -8.8 -0.5 -14.9 1.2 -18.7 5.2 -3.7 4 -6.3 10.1 -3.9 9.2 0.9 -0.3 2.4 -0.6 3.4 -0.6 1.3 0 1.7 -0.5 1.3 -2 -0.7 -2.5 2.1 -3.7 4.3 -1.9 1.3 1 1.5 2.9 1.2 8.9 -0.2 4.4 0.1 7.7 0.7 7.9 1.7 0.7 4.5 -5.3 5.7 -11.9 0.7 -4 1.4 -5.8 2 -5.2 1.2 1.2 -0.8 11.7 -2.8 15 -0.8 1.2 -1.2 2.7 -0.8 3.3 1.2 2 4.7 0.4 6.5 -3.1z m-27.8 -9.6 c2.4 -0.4 3.7 -1.2 3.7 -2.2 0 -2.8 4.9 -10 8.2 -11.9 2.7 -1.6 3.5 -2.9 4.6 -7.4 0.6 -3 2.5 -9.5 4.1 -14.6 3.6 -11.2 4.9 -20.2 5.8 -39.5 0.7 -16.4 2.3 -21 2.4 -7.1 l0.1 8.8 2.4 -5.3 c1.3 -2.9 2.8 -5.1 3.3 -4.7 0.9 0.5 -2.5 9.2 -5.5 14 -0.6 1.1 -1.5 6.4 -1.9 11.8 l-0.6 9.8 4.8 -0.6 c10.8 -1.6 22.3 -9.2 22.3 -14.9 0 -1.3 -3.9 -10.3 -8.6 -20 -9.1 -18.8 -10.2 -20.2 -18.6 -22.8 -5.6 -1.7 -9.6 1.1 -12 8.3 -1 3.1 -3.4 7.5 -5.4 9.7 -3.8 4.5 -10.1 8.8 -11.2 7.7 -0.4 -0.4 0.2 -1.2 1.2 -1.9 6.5 -3.8 11.8 -10.3 13.6 -16.7 0.8 -2.6 0.7 -2.7 -1.6 -1.7 -1.3 0.6 -2.1 1.4 -1.9 1.9 0.3 0.4 -1 2.7 -2.8 5.1 -4.3 5.7 -10.5 8.8 -17.7 8.8 -12.7 -0.1 -22.2 -9.1 -24.5 -23.2 -0.7 -4.3 -1.1 -4.4 -9.6 -2.8 -8.3 1.5 -20.8 8.2 -27 14.3 -3 2.9 -7.6 9.1 -10.3 13.8 -2.7 4.6 -6.4 10.6 -8.3 13.2 -3.8 5.4 -4.8 9.1 -3.6 12.5 l0.9 2.4 1.2 -2.6 c1 -2.2 0.9 -2.6 -0.3 -2.6 -0.8 0 -1.5 -0.4 -1.5 -1 0 -0.6 3.1 -1 7.3 -1 6.2 0 8.3 0.5 13.3 3 7 3.5 11.1 7.1 12.9 11.3 l1.3 3.1 2.1 -3.5 c2.8 -4.6 3.5 -8.7 2.8 -17.5 -0.3 -4.1 -0.2 -7.4 0.3 -7.4 0.9 0 2 4.8 2.1 9.4 l0.1 3.1 1.5 -3.5 c1.9 -4.2 1.3 -16.2 -1.1 -23 -0.8 -2.4 -1.3 -4.6 -1 -4.9 1.9 -1.9 5.4 10.7 5.4 19.5 0 6.2 -2.2 13.4 -4 13.4 -0.6 0 -1 1.1 -1 2.4 0 5.4 -4.9 13.5 -9 14.8 -1.8 0.6 10.3 2.8 15.3 2.8 2.3 0 5.8 -1.3 9.9 -3.7 7.7 -4.5 8.6 -5.6 5 -6.5 -4 -1.1 -8.2 -5.4 -8.2 -8.5 0 -1.6 1.4 -3.9 3.9 -6.4 3.3 -3.3 4.5 -3.9 8.3 -3.9 2.4 0 5.4 0.7 6.7 1.6 3 2.1 6.1 8.9 6.1 13.5 l0 3.7 6.8 -0.6 c6.3 -0.5 7.1 -0.8 13.5 -5.9 3.7 -3 7.3 -6.3 8 -7.4 1.9 -3.1 3 -2.2 2.5 1.9 -0.8 5.6 -5.4 14.4 -10.9 20.5 l-4.8 5.4 0.5 6.9 c0.7 8.6 -1.3 13 -6.9 15.8 l-3.9 1.9 -4.4 -3.2 c-2.4 -1.7 -4.4 -2.6 -4.4 -2.1 0 0.5 -0.9 1.4 -2 2 -2.4 1.3 -7.8 -0.1 -12.2 -3.1 -3.5 -2.5 -7.4 -2.4 -19.3 0.6 -5.5 1.4 -14.5 2.9 -20 3.2 l-9.9 0.6 4.2 1.8 c9.8 4.2 30.2 9.2 45.7 11.2 5.1 0.7 27.8 0.7 31.8 0.1z m14.7 -2.8 c0 -0.3 -0.4 -0.8 -1 -1.1 -0.5 -0.3 -1 -0.1 -1 0.4 0 0.6 0.5 1.1 1 1.1 0.6 0 1 -0.2 1 -0.4z m-17.6 -14.9 c1.7 -2.4 2.1 -4.3 2.1 -11.1 0 -6.4 0.4 -8.6 1.7 -9.9 5.7 -5.8 10.6 -13.1 12.3 -18.6 0.6 -2.1 0 -1.8 -5.3 2.2 -3.3 2.6 -6.2 5.2 -6.4 5.8 -0.2 0.6 -3.4 1.1 -7.5 1.2 -3.9 0.1 -7.5 0.5 -7.9 0.9 -0.4 0.4 1.4 2.6 3.9 4.9 6.4 5.6 8.1 12.6 3.7 14.9 -1.5 0.8 -1.7 1.6 -0.9 4.7 1.2 5.2 1.1 6.4 -0.3 6.2 -2.5 -0.3 -3.8 0.1 -3.8 1.2 0 2.2 6.3 0.4 8.4 -2.4z m-59.1 0.8 c4.8 -0.8 10.7 -2.2 13.3 -3.1 6.6 -2.2 12.5 -2.1 16.5 0.3 4 2.5 9.9 3.9 9.9 2.5 0 -1.2 -8.9 -9.2 -10.2 -9.2 -0.5 0 -0.6 -0.5 -0.3 -1 0.9 -1.4 4.2 0.5 9.3 5.4 4 3.8 4.4 4 5.7 2.3 1.9 -2.6 0.8 -5.1 -4.2 -9.8 -2.4 -2.2 -4.2 -4.3 -4 -4.6 0.9 -0.9 4.3 1.5 8.6 6.2 3.4 3.7 4.5 4.4 5.7 3.4 0.8 -0.6 1.4 -2 1.4 -3 0 -2.5 -5.3 -8.4 -9 -9.9 -3.5 -1.4 -4.1 -3.5 -0.7 -2.4 3.3 1 7.4 4.1 9.7 7.4 2.7 3.8 4 3.8 4 0.1 0 -5.3 -7.7 -12.2 -15.1 -13.6 -3 -0.6 -4.9 0.1 -12.4 4 -9.8 5.2 -9.9 5.2 -29.5 2.5 -9 -1.2 -9.8 -1.2 -15.5 0.9 -9.6 3.5 -10.4 3.6 -7.5 1.2 3.3 -2.8 11.2 -5.1 17.1 -5.1 5.3 0 7.6 -2.2 6.4 -6 -1.5 -4.6 -14.9 -12 -21.8 -12 l-4.4 0 -3.3 7.3 c-5 11.2 -7.5 22.1 -6.1 26.8 1.2 3.9 5.3 7.9 10.1 9.8 3.8 1.5 16.7 1.3 26.3 -0.4z m52.7 -4.7 c0 -1.6 -0.3 -1.7 -2.2 -0.7 -1.3 0.7 -2.4 1 -2.5 0.8 -0.1 -0.2 -0.5 0 -1 0.5 -0.5 0.5 -0.3 0.6 0.5 0.2 1.4 -0.9 1.7 1 0.2 1.9 -0.6 0.4 -0.8 1.1 -0.5 1.6 0.9 1.4 5.5 -2.1 5.5 -4.3z m32.9 -1.9 l4 -6 -1.7 -5.6 -1.8 -5.7 -2.7 8.9 c-5.3 17.4 -4.9 19 2.2 8.4z m38.5 2.6 c3.2 -1.9 8.8 -5.6 12.4 -8.2 l6.5 -4.6 -0.6 -9.6 c-0.8 -12.5 -2.7 -19.4 -8.7 -31.6 -6.1 -12.3 -15.6 -25.1 -27.3 -36.7 l-8.9 -8.8 -4.6 5.2 c-2.6 2.8 -4.6 5.4 -4.5 5.6 0.1 0.3 2.6 1.6 5.5 3.1 l5.3 2.6 9.3 18.5 c9.6 19.1 10.9 23.5 7.8 26.9 -2.2 2.5 -2 6.4 1 16.2 3.2 10.3 3.6 18.4 1.1 22.2 -2.3 3.6 -1.3 3.4 5.7 -0.8z m-162.8 -9.3 c0.1 -4.8 1 -9.1 3.2 -15.2 2 -5.5 2.7 -8.7 2 -9.1 -0.5 -0.4 -1.2 -2.6 -1.5 -5.1 -0.5 -3.9 -0.1 -5 3.9 -10.8 6.8 -10 10.1 -16.1 9.2 -16.9 -0.5 -0.4 -5.4 -2.8 -10.9 -5.3 -18.8 -8.5 -46.2 -16.4 -64.2 -18.4 l-6.3 -0.7 3 8.9 c4.2 12.4 12.8 29.3 20.5 39.9 8 11.1 21.3 24.7 32.5 33.1 4.7 3.5 8.5 6.4 8.5 6.4 0 0 0.1 -3 0.1 -6.8z m212.1 -37.5 c4 -5.9 8.8 -14.1 10.8 -18.2 l3.6 -7.5 -1.6 -8.7 c-10.4 -56.3 -39 -100.5 -84.5 -130.8 -38.2 -25.4 -82.4 -39.1 -138.7 -42.9 l-8.3 -0.5 -5.7 4.5 c-18.7 14.9 -35.4 37.1 -44.6 59.2 -6.8 16.2 -6.7 15.2 -0.8 15.2 17.4 0 65.6 9.5 87.9 17.4 l4.2 1.5 0 -4.2 c0 -11 6.5 -26.1 14.8 -34.4 3.7 -3.8 5.2 -6 5.2 -8 0 -3.4 3 -10.2 6.6 -14.8 1.5 -2.1 5.3 -4.8 9.2 -6.7 5.6 -2.8 7.8 -3.3 13.8 -3.3 9.1 0 13.3 2.6 17.1 10.5 3.1 6.3 4.8 7.9 8.3 8 4 0 14 5.4 19.8 10.5 5.7 5.1 10.2 12.9 14.3 25 3 8.7 3.3 24.7 0.7 30.6 -1.5 3.5 -1.5 3.6 0.3 3.2 1.1 -0.3 2.8 0.2 3.9 1.2 4.1 3.8 1.5 15.1 -6 26 -1.7 2.4 -3.7 6.2 -4.4 8.3 l-1.4 3.9 10 9.9 c23.8 23.6 36.7 48.5 36.8 70.8 l0.1 7.1 10.7 -11 c6.5 -6.7 13.6 -15.3 17.9 -21.8z m-128.2 11.6 c-0.9 -5.9 -4.7 -10.3 -9 -10.3 -4.6 0 -7.9 1.6 -9.8 5 -3.3 5.4 -1.9 7 5.9 7 5 0 6.1 2 1.2 2.1 -1.8 0 -2.6 0.3 -1.8 0.6 0.8 0.3 2.9 1.1 4.5 1.8 1.7 0.7 4.4 1.7 6 2.3 2.8 0.8 3 0.7 3.3 -1.6 0.2 -1.4 0.1 -4.5 -0.3 -6.9z m12.7 -32.3 c3.4 -1 10.8 -7.8 10.8 -9.9 0 -0.6 -1.3 -0.6 -3.2 0 -8.7 2.5 -20.3 -0.2 -30.4 -7.1 l-7.1 -4.8 0.9 4.1 c1.9 8.5 6.9 14.8 13.9 17.6 3.2 1.3 10.6 1.3 15.1 0.1z m-71.4 -7.8 c3.7 -3.7 8.5 -8.2 10.7 -10 l4 -3.3 -3.5 1.7 c-4.2 2.1 -15.1 2.4 -17.4 0.5 -2 -1.7 -1.2 -3.1 1.8 -3.1 1.2 0 3 -0.6 4.1 -1.3 1.6 -1.3 1.5 -1.4 -1.4 -0.9 -1.7 0.2 -5.1 -0.3 -7.5 -1.2 -4.5 -1.7 -9.4 -6.1 -8.3 -7.3 0.4 -0.4 3.2 -0.6 6.1 -0.4 6.5 0.3 9.9 -1.3 14.9 -6.8 6.3 -6.9 6.8 -8.8 4.6 -15.1 -1 -3 -1.8 -7 -1.9 -8.8 0 -3.8 2.2 -8.7 4.5 -9.5 1.1 -0.5 1.3 -1.2 0.6 -2.9 -0.4 -1.3 -1.1 -4.4 -1.5 -7 l-0.7 -4.7 -9.5 -3.1 c-25.1 -8 -66.9 -16 -84 -16 l-4.2 0 -2.1 8.8 c-5.1 22.1 -5.4 43.8 -0.8 66.6 l1.2 6 12 1.7 c19.7 2.9 52.5 13.2 66.5 20.9 1.9 1.1 3.9 1.9 4.3 2 0.4 0 3.8 -3.1 7.5 -6.8z m206.2 -10.9 c5.5 -17.2 7.3 -31.1 6.7 -51.8 -0.8 -24.9 -4 -38.4 -14.2 -60.2 -10 -21.2 -20.1 -34.2 -40 -51.5 -18.2 -15.9 -41.9 -27.4 -68.1 -32.9 -14.6 -3.1 -42.6 -3.4 -57.9 -0.5 -18.3 3.4 -40.1 11.8 -55 21.3 l-6 3.8 4 0.7 c2.2 0.4 9.9 1.2 17 1.8 70.5 6.1 133.3 37.3 169.8 84.2 18.7 24.1 32.2 53.6 38 83.4 1.2 6.3 2.3 11.4 2.4 11.4 0.1 0 1.6 -4.4 3.3 -9.7z m-117.4 2.2 c7 -3.4 10.4 -5.9 14.6 -10.3 7.5 -8.2 8.5 -12 9.3 -35.7 0.6 -17.2 0.5 -19.7 -1.4 -26.9 -1.2 -4.4 -3.3 -9.9 -4.7 -12.3 -2.9 -5.1 -2.6 -6.1 1.3 -4.4 l2.8 1.1 -3 -2.6 c-3.1 -2.7 -12.1 -7.4 -14.2 -7.4 -0.7 0 -1.6 -0.7 -2.1 -1.6 -0.8 -1.4 -1 -1.4 -2.1 0 -2.4 2.9 -3.1 1.7 -2.4 -4.6 0.7 -7.2 -1.1 -7.5 -2.2 -0.3 -0.6 4.5 -3.4 7.4 -4.3 4.6 -0.3 -0.9 -0.7 -0.9 -1.9 0.1 -1.3 1.1 -1.8 1 -2.7 -0.5 -0.6 -1 -1.7 -2.6 -2.4 -3.5 -1 -1.4 -1 -1.2 -0.2 1.1 1.5 4.3 0.3 5 -3.6 2 l-3.5 -2.6 0.6 2.6 c0.6 2.2 0.4 2.7 -1.2 2.7 -1.7 0 -12.4 -3.3 -17.8 -5.5 -1.9 -0.8 -1.9 -0.8 -0.2 1.2 0.9 1.1 1.7 2.4 1.7 3 0 1.1 -4.2 2.2 -8.9 2.4 l-2.6 0.1 2.4 0.7 c3.4 0.9 3.6 2.5 0.5 4 -1.5 0.6 -2.4 1.4 -2.2 1.7 0.3 0.2 1.7 -0.1 3.2 -0.7 4.1 -1.9 4.2 -0.4 0.2 4.4 -6.3 7.7 -14.6 28.9 -14.6 37.3 0 2.8 -1 5.4 -2 5.4 -0.4 0 -1.3 -1.3 -2 -2.9 -3.1 -7.6 -10.9 -10.5 -13.8 -5.1 -2.3 4.4 0.4 16.5 4.6 21.4 2.8 3 7.1 4.8 10.2 4.1 2.6 -0.6 2.9 -1 2.4 -3.4 -0.3 -1.6 -0.1 -3.1 0.4 -3.5 0.7 -0.4 1.3 1.2 1.7 4.1 1.2 8.7 2.5 11 9.8 18.3 8.9 8.6 14.6 12.6 21.2 14.5 12 3.4 17.3 2.9 29.1 -3z m-77.1 -5.8 c1.7 -0.8 4.3 -2.9 5.9 -4.6 2.7 -2.8 5.6 -4.1 5.6 -2.5 0 0.4 -1 2.3 -2.2 4.2 -2.1 3.4 -2.1 3.5 -0.2 2.8 3.4 -1.3 12.7 -3.6 14.7 -3.6 1.6 0 1.2 -0.8 -2 -4.3 -2.2 -2.4 -4.6 -6 -5.2 -8 -0.8 -2.5 -1.7 -3.4 -2.7 -3 -2.6 1 -8.3 -0.7 -11.5 -3.5 -2 -1.6 -3.4 -2.2 -3.6 -1.5 -0.9 2.5 -6.3 9.2 -9.5 11.6 -3.9 3 -9.8 4.8 -13 3.9 -4.2 -1 -0.2 2.4 4.3 3.7 5 1.5 9 0.7 12.8 -2.5 1.7 -1.4 3.2 -2 3.6 -1.5 0.8 1.3 -7.3 10.1 -9.4 10.2 -0.9 0.1 -0.5 0.4 0.9 0.8 2.9 0.9 7.3 0 11.5 -2.2z m109.8 -36.5 c3.5 -8.8 1.5 -15.2 -3.8 -11.8 -1.8 1.2 -2.3 2.8 -2.8 8.3 -0.4 3.7 -0.7 9.1 -0.7 11.8 l0 5 2.8 -4.5 c1.6 -2.5 3.6 -6.4 4.5 -8.8z m-94.8 -16 c2.1 -9 6.5 -19.9 10.4 -25.8 3.4 -4.9 3.3 -5.1 -1.1 -2.8 -3.1 1.6 -3.1 1.6 -2.6 -1 l0.5 -2.5 -2.7 1.9 c-4.8 3.4 -8.5 8.4 -11.5 15.3 -1.5 3.7 -3.2 6.7 -3.7 6.7 -2.1 0 3.7 -12.8 8.3 -18.3 1.7 -2.1 5.4 -5.1 8.1 -6.6 4.9 -2.8 5 -2.9 2.8 -4.1 -2.9 -1.5 -1.6 -2.8 4.1 -3.9 l4.4 -0.9 -5 -0.1 c-5.9 -0.1 -13.3 3 -18.4 7.8 -4.2 4 -5.5 3.2 -1.5 -1 5.7 -6 11.1 -8.4 19.1 -8.4 7 0 7.2 -0.1 6.6 -2.2 -0.7 -2.8 0.3 -2.9 8.1 -0.3 3.3 1.1 6.1 1.8 6.4 1.6 0.2 -0.3 -2 -1.7 -4.8 -3.1 -5.8 -2.9 -18.2 -5.9 -21 -5 -1 0.3 -2.1 0.1 -2.5 -0.4 -1.1 -1.8 4.3 -2.4 10.9 -1.1 3.6 0.7 9.5 2.7 13.2 4.6 3.7 1.9 6.9 3.4 7.1 3.4 0.1 0 0 -0.7 -0.4 -1.7 -0.5 -1.3 -0.2 -1.5 1.8 -1 l2.4 0.6 -2.5 -2.1 c-4.1 -3.3 -11.7 -6.8 -16.5 -7.5 -5.9 -0.8 -5.9 -2.7 0 -2.1 5.6 0.7 14.7 5.1 19.7 9.6 2.1 1.9 3.6 2.7 3.2 1.8 -0.3 -0.9 0 -2.3 0.7 -3.2 1.2 -1.4 0.9 -2 -1.6 -4.1 -1.7 -1.3 -5 -3.4 -7.5 -4.5 -3 -1.4 -3.9 -2.3 -2.8 -2.5 4 -1 15.3 7.7 17.8 13.8 1.4 3.2 4 4 4 1.2 -0.1 -2.3 -3.4 -9.6 -6.1 -13.4 -2.6 -3.7 -1.5 -5.3 1.2 -1.9 2.7 3.3 6.8 12 7 14.5 0.1 1.1 0.7 -0.7 1.3 -3.9 0.6 -3.3 1.7 -6.1 2.3 -6.3 1.2 -0.4 2.9 4.5 3.5 10.2 l0.3 3 1.8 -3.2 c0.9 -1.8 1.7 -4.8 1.7 -6.8 0 -1.9 0.5 -3.5 1.1 -3.5 0.8 0 1 1.8 0.6 5.8 -0.3 3.1 -0.3 6.2 0.1 6.9 0.4 0.6 2.9 1.4 5.5 1.8 4.7 0.7 11 4.4 7.7 4.5 -0.9 0 -2 -0.4 -2.5 -0.9 -0.6 -0.5 -3.5 -1.2 -6.5 -1.6 -6 -0.8 -6 0.2 0 2.5 4.8 1.9 11.8 6.7 13 9.1 1.5 2.7 0.4 4.2 -2.1 2.8 -1.9 -1 -1.9 -0.9 -0.3 2.8 2.6 5.8 5.3 16.3 5.4 21.3 l0.2 4.5 1.5 -3.4 c4.1 -9.5 2 -25.6 -5.2 -40.6 -4.3 -9.1 -13 -17.4 -21.4 -20.6 -4.8 -1.9 -8 -2.2 -22.9 -2.4 -9.5 -0.1 -17.5 -0.5 -17.9 -0.9 -1.2 -1.1 -7.8 -0.6 -10.7 0.9 -3.4 1.8 -3.6 1.8 -3.6 0.4 0 -1.7 7 -4.1 11.1 -3.8 2.1 0.2 4.1 0 4.4 -0.3 1.3 -1.3 -3.7 -2.9 -7.8 -2.6 -2.4 0.1 -4.1 -0.2 -4 -0.7 0.4 -1.7 9.3 -1.8 11.9 -0.1 2.7 1.8 5.4 2.1 5.4 0.6 0 -1.9 -4.8 -6 -7 -6 -1.1 0 -2 -0.4 -2 -1 0 -2.7 10 1.5 10 4.2 0 0.7 0.7 0.4 1.6 -0.7 0.8 -1.1 1.2 -3 0.9 -4.2 -0.3 -1.3 -0.1 -2.3 0.4 -2.3 1.3 0 2.2 3 1.6 5.1 -0.9 2.8 1 2.3 3.4 -0.8 1.6 -2.2 2 -2.4 2.1 -1 0 0.9 -0.8 2.5 -1.9 3.6 -1.8 1.8 -1.7 1.9 3.7 2.4 3.1 0.3 5.8 0.4 6.1 0.2 1 -1.1 -5 -8.3 -8.2 -9.8 -9.7 -4.7 -26.1 1.3 -32.1 11.6 -2.3 3.9 -4.5 11.7 -3.3 11.7 0.2 0 2.5 -0.9 5.1 -2.1 2.6 -1.1 5.5 -1.8 6.4 -1.6 1.5 0.3 1.4 0.5 -0.3 1.1 -7.7 2.9 -14.8 7.2 -18.3 11 -8.8 9.6 -13.8 24.3 -12.9 38.1 0.9 12.4 1.5 14.2 4.7 14.8 1.5 0.3 4 2.1 5.6 4 1.6 1.8 3 3.1 3 2.8 0.1 -0.3 1 -3.9 1.9 -7.9z m34.5 -43.7 c0 -0.3 -0.2 -0.5 -0.5 -0.5 -0.3 0 -0.5 0.2 -0.5 0.5 0 0.3 0.2 0.5 0.5 0.5 0.3 0 0.5 -0.2 0.5 -0.5z m11.5 -25.5 c2.5 0.4 4.5 0.5 4.5 0.3 0 -1.2 -7.6 -3.3 -12 -3.3 -4.2 0 -12 2.1 -12 3.2 0 0.2 3.4 0.1 7.5 -0.3 4.2 -0.3 9.6 -0.3 12 0.1z"/>
  <path d="M589.5 283.9 c-5.3 -5.8 -10.5 -18.9 -7.6 -18.9 0.6 0 1.1 0.4 1.1 1 0 3.1 4.8 13 8.1 16.5 2.2 2.3 3.9 4.5 3.9 4.9 0 1.6 -2.1 0.3 -5.5 -3.5z"/>
  <path d="M596.5 312 c-1 -1.7 1.2 -3.7 2.5 -2.4 0.8 0.8 0.6 1.5 -0.4 2.3 -1 0.9 -1.6 0.9 -2.1 0.1z"/>
  <path d="M617 258.3 c0 -0.9 1.6 -1.3 5.2 -1.3 6.1 0 5.4 1.6 -0.9 2.2 -3 0.2 -4.3 0 -4.3 -0.9z"/>
  <path d="M605.6 250.1 c-3.7 -1.9 -5.9 -2.4 -6.6 -1.7 -2.2 2.2 -2.2 -0.6 0 -2.9 2.8 -2.9 3.8 -3.2 3.6 -0.7 -0.1 1.1 1.4 2.5 4.2 3.9 6 3 22.8 3 28.4 0 2.2 -1.2 3.4 -2.5 3.1 -3.3 -0.7 -2 1.1 -1.7 3 0.4 2.1 2.3 2.2 3.6 0.1 2.8 -0.9 -0.3 -3 0.4 -4.7 1.6 -2.7 1.9 -4.6 2.3 -14.3 2.5 -10.6 0.2 -11.6 0.1 -16.8 -2.6z"/>
  <path d="M627.5 238.5 c1.8 -1.8 2.5 -3.3 2.2 -4.6 -0.3 -1.3 -0.1 -1.9 0.6 -1.6 3.5 1.1 0.1 8.7 -3.9 8.7 -1.3 0 -1 -0.6 1.1 -2.5z"/>
  <path d="M616 239.1 c-1.7 -0.5 -2.5 -1.4 -2.5 -2.9 0 -1.2 0.5 -2.2 1 -2.1 0.6 0 0.9 0.6 0.7 1.3 -0.1 0.8 1.1 1.6 2.8 1.9 1.6 0.4 3 1.1 3 1.7 0 1.1 -1.3 1.1 -5 0.1z"/>
  <path d="M565.4 232.7 c-1 -2.6 -0.9 -10 0.1 -10.3 0.6 -0.2 1 1.1 1 2.9 0 1.7 0.4 4.4 0.8 6 0.8 2.8 -0.9 4 -1.9 1.4z"/>
  <path d="M594.5 227 c-0.3 -0.5 -0.5 -1 -0.3 -1 3.9 -0.6 9.8 -0.6 9.8 0 0 1.8 -8.5 2.7 -9.5 1z"/>
  <path d="M637 227 c0 -0.5 1.8 -1 4 -1 2.2 0 4 0.5 4 1 0 0.6 -1.8 1 -4 1 -2.2 0 -4 -0.4 -4 -1z"/>
  <path d="M595.7 221.2 c-1 -1 -1.7 -2.6 -1.7 -3.5 0 -2 -0.4 -2.1 -3 -0.7 -1.1 0.6 -2.1 0.6 -2.4 0.1 -0.9 -1.3 8.8 -5.1 13 -5.1 3.6 0 10.4 3.3 10.4 5.1 0 1.4 -0.9 1.1 -4.1 -1.2 l-2.9 -2 0 2.6 c0 1.4 -0.5 3.5 -1 4.6 -1.4 2.5 -6.1 2.5 -8.3 0.1z m7.1 -5.5 c0.2 -1.1 -0.3 -1.7 -1.6 -1.7 -2.4 0 -3.2 0.8 -2.5 2.6 0.7 2 3.7 1.3 4.1 -0.9z"/>
  <path d="M637.2 220.8 c-0.7 -0.7 -1.2 -2.1 -1.2 -3.2 0 -1.8 -0.1 -1.9 -2 -0.1 -1.1 1 -2.3 1.5 -2.8 1.1 -1.1 -1.2 5.8 -6.5 9.4 -7.2 3.9 -0.7 8.5 1.5 11.3 5.4 3.1 4.4 1.2 4.7 -2.5 0.4 -3.3 -3.7 -3.3 -3.7 -3.4 -1.1 0 4.6 -5.8 7.7 -8.8 4.7z m6.8 -5.8 c0 -1.1 -0.7 -2 -1.5 -2 -0.8 0 -1.5 0.9 -1.5 2 0 1.1 0.7 2 1.5 2 0.8 0 1.5 -0.9 1.5 -2z"/>
  <path d="M559 220.5 c0 -1.7 3.2 -6.5 4 -6 0.9 0.6 -2 6.5 -3.2 6.5 -0.5 0 -0.8 -0.2 -0.8 -0.5z"/>
  <path d="M585.6 208.1 c-0.3 -0.5 1.1 -2.1 3.1 -3.7 3.8 -2.9 11.6 -4.3 16.8 -3 3.9 1 3.1 2.8 -1 2 -5.3 -1 -12.1 0.4 -15.4 3.2 -1.6 1.3 -3.2 2 -3.5 1.5z"/>
  <path d="M651 206.5 c-2.1 -2.2 -3.2 -2.5 -9.2 -2.5 -3.9 0 -6.8 -0.4 -6.8 -1 0 -0.6 3 -1 6.9 -1 6 0 7.4 0.3 10 2.6 3 2.5 4 4.4 2.3 4.4 -0.5 0 -1.9 -1.1 -3.2 -2.5z"/>
  <path d="M662.7 225.3 c0.6 -4.9 2.8 -8.7 4.5 -7.7 0.5 0.3 0.3 1.3 -0.6 2.2 -0.8 1 -1.6 3.5 -1.8 5.6 -0.2 2.2 -0.8 4.1 -1.4 4.3 -0.8 0.3 -1 -1.1 -0.7 -4.4z"/>
  <path d="M773.5 241.8 c0.4 -69.5 0.9 -126.5 1.1 -126.7 1.6 -1.8 1.8 9.9 1.4 74.7 -0.3 40.6 -0.5 97.2 -0.5 126 0 43 -0.2 52.2 -1.3 52.2 -1.2 0 -1.3 -20.9 -0.7 -126.2z"/>
  <path d="M494.8 351.5 c-11.3 -8.5 -21.3 -19.3 -30.3 -32.9 -11.9 -17.8 -23.3 -43.9 -25.2 -57.2 -0.8 -5.8 1.1 -5.4 2.1 0.5 0.3 2.2 2.1 8.4 4 13.9 10.1 29.8 29.6 58.4 50.4 73.8 9.7 7.2 9.6 7.1 8.5 7.7 -0.5 0.3 -4.8 -2.3 -9.5 -5.8z"/>
  <path d="M466.5 344.8 c-18.8 -23.2 -32.7 -51.7 -39 -79.8 -4.7 -20.8 -6 -46 -2.5 -46 0.4 0 0.5 2.8 0.3 6.3 -0.7 7.7 1.1 25.1 3.9 37.7 6.1 28.3 19.6 56.6 38.1 79.5 3.1 3.9 5.7 7.3 5.7 7.8 0 1.8 -1.9 0.2 -6.5 -5.5z"/>
  <path d="M444.6 340.6 c-3.1 -4.1 -8 -11.2 -10.8 -15.8 -5.2 -8.4 -13.8 -25.6 -13.8 -27.7 0 -2.8 1.8 -0.5 4.5 5.7 4.5 10.5 13.3 25.5 20.7 35.2 3.7 4.9 6.3 9.2 5.9 9.5 -0.5 0.3 -3.4 -2.8 -6.5 -6.9z"/>
  <path d="M757.4 340.8 c0.3 -2.9 0.6 -14.9 0.6 -26.5 0 -13.5 0.4 -21.3 1 -21.3 0.6 0 1 9.5 1 26.5 0 23.9 -0.2 26.5 -1.6 26.5 -1.4 0 -1.6 -0.8 -1 -5.2z"/>
  <path d="M744 312.6 c0 -6.6 0.4 -11.7 1 -12.1 0.6 -0.4 1 3.7 1 11.4 0 7.4 -0.4 12.1 -1 12.1 -0.6 0 -1 -4.5 -1 -11.4z"/>
  <path d="M436.3 241.4 c-1 -6.1 -0.8 -24.9 0.4 -28.8 0.5 -1.6 1.5 -3.2 2.3 -3.4 0.9 -0.3 1.1 0 0.6 1.4 -1.9 4.5 -2.8 18.5 -1.8 26.1 1.2 8.6 -0.1 12.6 -1.5 4.7z"/>
  <path d="M446 167.4 c0 -1.4 12.1 -26.7 15.8 -33 9.4 -16.1 23.4 -32.5 37.1 -43.6 14.5 -11.7 37.7 -25.4 41.6 -24.6 1 0.2 -3.2 2.8 -9.7 6.1 -26.7 13.5 -50.3 35.3 -65.4 60.2 -2.7 4.4 -7.8 14.2 -11.3 21.8 -3.5 7.5 -6.8 13.7 -7.3 13.7 -0.4 0 -0.8 -0.3 -0.8 -0.6z"/>
  <path d="M761 148.9 c0 -10.8 0.4 -16.9 0.9 -16.4 1.5 1.5 1.7 32.8 0.2 33.3 -0.8 0.3 -1.1 -4.4 -1.1 -16.9z"/>
  <path d="M441 143 c0 -2.1 15.5 -28.2 21.5 -36.2 12.1 -16.1 29.3 -30.6 46.2 -39.2 7.4 -3.7 10.3 -4.4 10.3 -2.6 0 0.6 -0.6 1 -1.4 1 -2.5 0 -15.4 7 -23.4 12.8 -19.2 13.8 -31.3 28.2 -45.8 54.5 -5.4 9.8 -7.4 12.4 -7.4 9.7z"/>
  <path d="M454 97.3 c0 -1.8 14.5 -17.6 20.8 -22.7 6.6 -5.4 17.8 -12.6 19.4 -12.6 2.1 0 0.4 2 -3.4 4 -9.5 4.9 -21.8 15.5 -30 25.7 -4.5 5.7 -6.8 7.6 -6.8 5.6z"/>
  <path d="M310.9 1012.3 c-9.6 -20.7 -16.6 -41.2 -20.8 -60.5 -2.2 -10.4 -2.6 -14.8 -1.3 -14.8 0.5 0 1.4 3.7 2.1 8.2 2.5 16.4 11.7 44.4 21.2 64.7 5.5 11.6 5.3 11.1 3.9 11.1 -0.6 0 -2.9 -3.9 -5.1 -8.7z"/>
  <path d="M325.2 1010.2 c-7.7 -16.5 -15.6 -41 -18.6 -57.9 -1 -5.8 1.2 -4.5 2.4 1.4 3.8 19.1 10.9 40.9 18.9 57.5 4.4 9.3 4.6 9.8 3.2 9.8 -0.4 0 -3.1 -4.8 -5.9 -10.8z"/>
  <path d="M340.4 1013.3 c-6.9 -15.2 -15.4 -40.8 -15.4 -46.5 0 -4.1 1.8 -1.3 2.9 4.5 1.7 8.7 7 24.3 12.6 36.7 2.5 5.8 4.9 11.1 5.2 11.8 0.3 0.6 0 1.2 -0.6 1.2 -0.6 0 -2.7 -3.5 -4.7 -7.7z"/>
  <path d="M353.2 1016.3 c-2.9 -6.9 -8.2 -24.3 -8.2 -27.1 0 -4 1.6 -1.6 2.9 4.5 1.4 6.4 7.8 24.1 9.3 26.1 0.8 0.8 0.6 1.2 -0.5 1.2 -0.8 0 -2.3 -2.1 -3.5 -4.7z"/>
  <path d="M363.2 1015.7 c-2.6 -6.8 -2.9 -8.1 -1.8 -8.5 0.4 -0.2 1.9 2.8 3.2 6.5 2.8 7.9 2.7 7.3 1.5 7.3 -0.5 0 -1.8 -2.4 -2.9 -5.3z"/>
  <path d="M292.6 997.3 c-7 -14.1 -17.2 -47 -19.1 -62 -1.3 -9.7 1 -5.4 3.3 6.2 3 15.4 8.2 32.2 14.6 47.8 5.2 12.4 6 17.3 1.2 8z"/>
  <path d="M277.6 987.8 c-5.7 -10.8 -11.5 -24.1 -14.8 -34.2 -2.6 -8.1 -6.8 -26.4 -6.8 -29.8 0 -5 1.8 -2.9 2.5 2.8 1.9 15.7 9.4 37.6 19.6 57.3 3.8 7.3 6.9 13.5 6.9 13.7 0 0.2 -0.4 0.4 -0.9 0.4 -0.6 0 -3.5 -4.6 -6.5 -10.2z"/>
  <path d="M263.7 980.8 c-11.6 -18.6 -18.1 -34 -23.3 -54.6 -3.5 -13.8 -4 -17.2 -2.6 -17.2 0.5 0 1.8 4.6 3 10.3 4.3 20.5 13.2 42.5 24.1 59.4 5.3 8.2 5.7 9.3 4.2 9.3 -0.5 0 -2.9 -3.3 -5.4 -7.2z"/>
  <path d="M604.7 980.3 c-0.2 -0.5 -1.5 -3.9 -2.7 -7.8 -8.1 -24.8 -22.4 -51.6 -37.8 -71 -7.6 -9.6 -26.3 -30.5 -30.7 -34.3 -4.4 -4 -4.6 -6.2 -0.2 -2.8 4 3 22.4 23.4 32.1 35.5 8 9.9 18 24.9 22.4 33.6 7.9 15.8 19.7 46.1 18.2 47 -0.5 0.3 -1.1 0.2 -1.3 -0.2z"/>
  <path d="M239.7 962.8 c-10.9 -19.7 -19.7 -53.6 -18.8 -72.1 0.1 -1 0.5 -1.6 1 -1.3 0.4 0.3 1.1 4.7 1.4 9.8 1.2 18.1 7.5 40.8 16.1 58.4 5.7 11.5 5.8 15.3 0.3 5.2z"/>
  <path d="M574.9 958.3 c-12.4 -27.5 -23.9 -47.2 -37.7 -64.5 -3.4 -4.3 -5.6 -7.8 -4.9 -7.8 1.5 0 14.4 16.4 21.3 27 6.6 10.2 12.4 21 19.5 36.5 7.7 16.6 7.3 15.5 6 15.5 -0.7 0 -2.6 -3 -4.2 -6.7z"/>
  <path d="M225.2 953.3 c-6.5 -14.3 -10.9 -30.9 -13.8 -52.3 -1.5 -11.9 -1.8 -18 -0.6 -18 0.4 0 1.3 5.3 2 11.8 2.3 21.7 8.3 45.6 14.7 58.2 2.6 5.2 3.1 7 1.6 7 -0.4 0 -2.2 -3 -3.9 -6.7z"/>
  <path d="M211.1 941 c-4.2 -10.9 -5.9 -17.6 -7.6 -30 -2.1 -15.2 -1.9 -26 0.5 -24.5 0.4 0.3 0.5 2.4 0.3 4.8 -1.2 10.7 3.5 36.5 9.1 50.4 2.9 7 3 7.3 1.7 7.3 -0.5 0 -2.3 -3.6 -4 -8z"/>
 </g>
 <g fill="#ffffff">
 </g>
</svg>