<?xml version="1.0" encoding="utf-8"?>
<!DOCTYPE svg PUBLIC "-//W3C//DTD SVG 1.0//EN" "http://www.w3.org/TR/2001/REC-SVG-20010904/DTD/svg10.dtd">
<svg version="1.0" xmlns="http://www.w3.org/2000/svg" width="361px" height="370px" viewBox="0 0 361 370" preserveAspectRatio="xMidYMid meet">
 <g fill="#1c1c24">
  <path d="M130.5 353 c-0.8 -2.6 -5.5 -5 -9.9 -5 -2.5 0 -4.5 0.9 -7.1 3.1 -4 3.6 -5 1.7 -1.1 -2 3 -2.9 10.3 -3.9 14.6 -2.1 3.2 1.3 6.7 6.5 5.1 7.5 -0.5 0.3 -1.2 -0.4 -1.6 -1.5z"/>
  <path d="M167.1 344.1 c5.4 -20.4 15.3 -47.1 23.4 -63 1.9 -3.9 3.5 -7.2 3.5 -7.5 0 -0.2 -1.7 0 -3.7 0.5 -2.1 0.5 -9.4 1.2 -16.3 1.5 -17.3 0.7 -16.7 0.5 -19.6 7 -5.5 12.5 -11.7 32.6 -15 49.2 -0.2 1.2 -0.9 2.2 -1.5 2.2 -0.7 0 -0.8 -1.1 -0.4 -3 0.6 -2.6 0.4 -3 -1.5 -3 -2.4 0 -8 5.1 -8 7.3 0 0.9 1.5 1.7 3.9 2.1 2.2 0.3 5.3 1.8 7 3.2 2.5 2.1 3.1 3.3 3.1 6.5 0 2.1 -0.4 3.9 -1 3.9 -0.5 0 -1 -1.6 -1 -3.5 0 -6.8 -5 -9 -19.3 -8.4 -7.3 0.4 -8.8 0.8 -11.9 3.1 -2 1.5 -4.2 4.1 -5 5.8 -1.3 3.1 -2.8 4 -2.8 1.7 0 -2.3 4.9 -8.1 8.8 -10.4 2.7 -1.7 5.3 -2.3 9.3 -2.3 6.1 0 6.9 -0.7 6.9 -6 0 -1.8 -0.8 -3.4 -2.1 -4.4 -2.1 -1.4 -2.1 -2 -1.5 -10.3 0.4 -4.8 1.4 -13.5 2.2 -19.2 0.7 -5.8 1.4 -11.7 1.4 -13.3 l0 -2.8 -8 0 c-4.5 0 -11.5 -0.7 -15.6 -1.6 -4.2 -0.8 -7.7 -1.4 -7.9 -1.2 -1 1.1 -5.5 54.7 -5.5 66.6 0 1.7 -0.4 3.2 -1 3.2 -0.5 0 -1 -2.6 -1 -5.7 l0 -5.6 -2.6 2.4 c-1.5 1.3 -3.8 4.2 -5.2 6.4 -1.4 2.2 -2.7 3.4 -3 2.7 -0.6 -1.8 3.4 -7.7 7.4 -11.1 l3.5 -2.8 0.9 -12.9 c0.5 -7.1 1.7 -20 2.6 -28.6 l1.6 -15.7 -3.1 -2.6 c-1.7 -1.5 -3.1 -3.3 -3.1 -4 0 -1.2 -8.1 -8.5 -9.5 -8.5 -0.3 0 0.6 2 2 4.5 1.5 2.5 2.5 5 2.3 5.7 -0.3 0.7 -1.9 -1.2 -3.7 -4.2 -1.9 -3.1 -3 -4.4 -2.7 -3 0.3 1.4 0.9 4.3 1.3 6.4 1 6.5 -1.5 3.3 -2.8 -3.5 -0.6 -3.3 -1.3 -5.8 -1.6 -5.6 -0.2 0.2 0.1 4.6 0.7 9.7 1 8.6 0.8 11.2 -0.6 9.8 -0.3 -0.4 -0.9 -3.7 -1.3 -7.5 -0.9 -7.7 -1.4 -7.1 -3.1 4.2 -1.8 11.8 -6.1 24.2 -13.9 40.1 -7.3 14.8 -10.1 22.6 -10.1 28.1 0 1.8 -0.5 3.3 -1.1 3.3 -2 0 -0.3 -11.1 2.9 -19 2.7 -6.7 3 -8.7 3.1 -19 0.2 -11.4 1.3 -27.2 3.1 -42.5 0.5 -4.4 1.9 -17.9 3 -30 1.1 -12.1 2.6 -26.1 3.3 -31.1 l1.3 -9.2 -4.4 -0.6 c-6.7 -0.9 -17.1 -7.5 -20.8 -13.3 -1.7 -2.6 -3.4 -5.6 -3.7 -6.6 -0.6 -1.6 -0.3 -1.8 2.3 -1.2 l3.1 0.7 -2.1 -3.4 c-3.8 -6.3 -3.1 -6.7 8.2 -3.7 4 1 5.3 1 9.1 -0.5 8.8 -3.3 8.5 -2 8.9 -36.7 l0.3 -30.6 -2.7 2.1 c-4.2 3.2 -6.8 9.4 -6.8 15.8 0 9.3 -3.1 17.1 -12.1 30.3 -7.8 11.5 -13.9 22.5 -13.9 25.3 0 0.7 0.7 2.4 1.6 3.7 1.9 3 0 3.6 -2.2 0.8 -2.4 -3.2 -1.6 0.8 1.1 5.6 1.4 2.4 2.3 4.7 1.9 5 -0.5 0.6 -1.5 -0.5 -4.1 -4.6 -1 -1.7 -1.1 -1.7 -1.8 0 -0.5 1.2 0.4 3.7 2.9 7.6 3.8 6.3 4.1 7.1 2.7 7.1 -0.6 0 -2.2 -2.2 -3.8 -4.9 -2.6 -4.8 -4.3 -5.7 -4.3 -2.4 0 0.9 2.2 4.9 5 9 2.7 4 5 7.8 5 8.3 0 2.3 -1.8 0.5 -6 -5.9 -4.2 -6.5 -5.9 -7.4 -6 -3.1 0 0.8 2.9 6.6 6.4 12.8 3.5 6.1 6 11.4 5.6 11.7 -0.9 0.5 -2.3 -1.7 -8.6 -13 -3.2 -5.8 -4 -6.6 -4.2 -4.6 -0.4 2.8 4.4 12.5 11.6 23.5 5.6 8.6 5.6 8.6 4.4 8.6 -1.3 0 -7 -8.2 -12.4 -17.9 -4.6 -8.2 -4.8 -8.4 -4.8 -5 0 2.7 2.2 7.2 9.4 19.2 5.2 8.6 9.1 15.9 8.6 16.2 -0.4 0.3 -1.7 -1 -2.8 -2.8 -14.2 -23.6 -15.2 -25 -15.2 -22.7 0 2.6 7.5 16.4 15.1 27.7 5.1 7.5 5.5 8.3 4 8.3 -1 0 -6 -7.3 -13.4 -19.5 l-4.8 -8 0.6 4.5 c0.8 5 4 10.7 12.2 21.8 3 4 5.2 7.9 5 8.5 -0.3 1 -2.7 -2 -11.6 -14.3 -3 -4.1 -3.2 -4.3 -2.5 -1.5 1.2 5.1 2.1 6.8 6.3 12.4 2.3 3 4.1 5.8 4.1 6.3 0 1 -2 1.1 -2 0.1 0 -0.5 -1.3 -2.3 -2.9 -4.2 l-2.8 -3.5 1.9 9.5 c1.5 7.2 2.1 16.3 2.7 39.2 0.8 29.5 0.7 34.7 -1 34.7 -0.4 0 -0.8 -11.7 -0.9 -25.9 -0.1 -32.9 -0.7 -38.7 -7.7 -69.1 -7 -30.9 -6.1 -47.1 4.7 -77.5 3.6 -10.1 5.6 -13.7 15.2 -28.2 9.2 -13.6 10.7 -17.5 11.7 -28.6 0.4 -5 1.3 -10.2 1.9 -11.3 0.6 -1.2 3.5 -4.3 6.3 -6.8 3.1 -2.8 6.2 -6.8 7.6 -9.9 1.3 -2.9 3.7 -7.2 5.3 -9.7 1.5 -2.5 4 -8 5.4 -12.3 5.8 -17.4 16.3 -33.3 27.8 -42 6.6 -5 19.2 -11 27.6 -13.2 15.6 -4 39.2 -0.1 50.9 8.4 3.4 2.5 4.7 2.8 8.5 2.4 5.4 -0.6 13.2 2.5 19 7.5 l3.5 3.2 9.9 -2.1 c7.4 -1.5 11.8 -1.9 17.4 -1.5 4.1 0.3 8.2 0.6 9 0.7 0.8 0 6.2 -1.6 12 -3.7 9.4 -3.3 11.6 -3.7 20.5 -3.7 14.8 0 24.8 2.5 29.2 7.3 1 1 4 2.4 6.7 3 2.6 0.6 6.1 1.7 7.6 2.5 3.1 1.6 8.9 8.3 11.3 13 4.1 8.2 4.6 23.3 1.2 38 -2.2 9.2 -1.4 14.1 3.7 23.4 4.4 8.1 9 20 8.2 21.3 -0.9 1.4 -2.4 -0.2 -2.4 -2.5 0 -1.2 -2.8 -7.7 -6.1 -14.5 -7 -14 -7.9 -18.3 -5.6 -28.3 3.4 -14.5 3.1 -28 -0.8 -36.3 -2.6 -5.5 -8.4 -11.6 -10.9 -11.6 -2.8 0 -7.4 4.4 -8.3 7.8 -0.8 3.2 0.3 26.8 1.7 34.6 1 6 0.6 8.2 -0.9 5.7 -1.2 -1.9 -3.3 -21.7 -3.4 -31.5 -0.1 -8.6 0.8 -11.2 5.1 -15.8 1.4 -1.5 2.4 -3 2.1 -3.2 -1.5 -1.5 -11.6 -1.5 -15.9 -0.1 -9.3 3.1 -14.7 11.5 -16.9 26.5 -4.4 29.2 -6.7 152 -3.1 169 1.9 8.7 2.4 8.8 5.5 0.8 8.6 -22 22.2 -46.5 36.4 -65.8 7.3 -9.9 13.1 -16.1 14.3 -15.4 0.6 0.4 -1 2.7 -3.4 5.3 -5.9 6.2 -11.2 13.3 -20.1 27.3 -12.7 19.9 -24 43.9 -33.6 71.3 l-4.2 11.9 0.7 21.6 0.7 21.5 -3.3 9.9 c-3 9 -10.9 23.2 -13.9 25 -1.9 1.2 -1.2 -1.4 1.3 -4.7 4.3 -5.8 8.4 -14.1 11.1 -22.7 2.6 -8.2 2.7 -9 2.1 -25 -0.3 -9.1 -1.5 -24.4 -2.6 -34 -1.1 -9.6 -2 -17.9 -2 -18.4 0 -0.6 -0.5 -0.5 -1.2 0.2 -2.2 2.2 -2.9 1.2 -1.3 -1.9 2.1 -3.9 1.2 -4.9 -1.8 -2.1 -3.5 3.3 -4.3 2.6 -1.3 -1.2 3.8 -5.1 3.2 -5.6 -1.4 -1.1 -5 4.9 -5.4 2.5 -0.4 -2.6 2 -2 3.4 -4.4 3.2 -5.4 -0.2 -1.2 -1.8 0.2 -5.6 4.9 -4.9 6.1 -7.2 7.9 -7.2 5.7 0 -0.6 0.5 -1.3 1.1 -1.7 1.9 -1.1 9.9 -12.6 9.9 -14.1 0 -0.8 -2 1.1 -4.4 4.4 -5.3 7 -10.3 11.9 -11.2 11 -0.4 -0.4 1.5 -3 4.3 -5.9 6 -6.4 10.9 -13.6 9.9 -14.6 -0.9 -0.8 -6.5 5 -23.3 24.5 l-12.3 14.2 0 6.3 c0 8.8 3.1 46.1 3.9 47 0.3 0.4 2.4 0.1 4.6 -0.7 4.6 -1.6 13.5 -2 13.5 -0.5 0 0.6 -2 1 -4.5 1 -9.3 0 -13.8 2.8 -29.4 18.5 -7.9 8 -15.1 14.5 -15.9 14.5 -0.8 0 4.3 -5.6 11.3 -12.5 7.1 -6.9 12.6 -12.7 12.3 -13.1 -0.3 -0.3 -2.3 -0.1 -4.4 0.5 -2.3 0.6 -4.2 0.7 -4.7 0.2 -0.9 -0.9 5.1 -3.1 8.6 -3.1 1 0 1.5 -0.4 1.2 -1 -0.3 -0.5 -1.7 -1 -3 -1 -3 0 -8.4 -2.1 -6.8 -2.7 0.6 -0.2 3.5 0 6.5 0.5 l5.3 1 -3.8 -3 c-2 -1.6 -3.4 -3.4 -3.1 -4 0.3 -0.5 1.7 0 3 1.3 1.3 1.2 2.4 1.7 2.4 1.1 0 -0.6 -0.4 -1.4 -1 -1.7 -0.5 -0.3 -1 -1.4 -1 -2.3 0 -1.2 0.9 -0.7 3.1 1.8 l3.1 3.5 -0.6 -4 c-0.3 -2.2 -0.6 -4.5 -0.6 -5.1 0 -0.6 -2.7 -0.2 -6.7 1.2 -10.1 3.3 -34.3 5.8 -34.3 3.5 0 -0.4 4.4 -1.1 9.7 -1.5 11.4 -0.8 23.1 -3 28 -5.4 3.5 -1.7 3.5 -1.7 2.9 -6.7 -0.3 -2.7 -0.6 -5.9 -0.6 -7 0 -1.8 -0.7 -2 -9.5 -2.1 -10.3 -0.2 -15.3 -1 -13.9 -2.3 0.5 -0.5 4.9 -0.4 9.7 0.1 10.1 1.1 14.2 0.5 13.3 -1.8 -0.3 -0.9 -0.6 -5.1 -0.6 -9.4 0 -6.7 -0.3 -7.8 -1.8 -8.2 -6 -1.6 -6.9 -18 -1.7 -29.8 3.4 -7.8 11.1 -20 12.5 -20 1.5 0 1.3 0.6 -2.4 5.7 -9.9 14 -14 29.6 -10.1 38.9 l1.4 3.5 5.3 -5.9 c2.9 -3.2 10.8 -12.1 17.5 -19.8 12.3 -14.2 16.9 -18.5 21.1 -19.8 1.2 -0.4 2.2 -1.1 2.2 -1.5 0 -1 -16.5 -17 -21.1 -20.4 -2 -1.5 -4.1 -2.7 -4.7 -2.7 -2.2 0 -16 13.2 -16.5 15.8 -0.3 1.5 -1.8 4.3 -3.3 6.2 -3.5 4.5 -12.1 11.3 -13.3 10.6 -0.9 -0.6 -5.6 9.7 -9.2 20.1 l-1.7 5.1 3 1.3 c4.4 1.8 6.2 5.1 5.6 10.3 -0.7 5.7 -3.8 10 -8.7 12 -5 1.9 -5.8 3.2 -13.6 20.9 -5.7 12.8 -18 47.5 -17.2 48.3 0.9 1 13.8 6.3 17.5 7.3 2.3 0.7 4.2 1.6 4.2 2.1 0 0.6 -0.4 1 -0.8 1 -1.6 0 -11.8 -3.8 -16 -5.9 -2.2 -1.1 -4.5 -2.1 -5 -2.1 -0.5 0 -1.5 2.7 -2.3 6 -0.7 3.3 -1.9 6 -2.5 6 -0.9 0 -0.4 -3.2 1.7 -10.9z m-30 -18.5 c0.9 -0.2 2 -2.6 2.8 -6.2 1.6 -6.8 8.2 -27.2 11.2 -34 2.5 -6.1 1.8 -6.8 -6.8 -6.4 -2.4 0.1 -5.2 -0.5 -6.6 -1.5 -2.1 -1.3 -2.6 -1.3 -3.6 -0.1 -0.7 0.8 -2.2 1.7 -3.5 2 -2 0.5 -2.4 1.3 -2.9 6.8 -0.3 3.5 -1.3 13.1 -2.2 21.3 l-1.7 15 2.3 3.5 2.4 3.6 3.5 -1.8 c1.9 -0.9 4.2 -1.9 5.1 -2.2z m-77.6 -26.3 c2.9 -7.6 5 -16.5 6.4 -26.7 0.9 -6.3 0.8 -7.1 -1.4 -10.5 -1.3 -2 -2.8 -5.5 -3.4 -7.7 -1.4 -5.1 -0.6 -7.3 7.9 -24.4 5.8 -11.7 6.8 -13.2 16.8 -23.1 5.9 -5.8 12.1 -12.5 13.7 -14.9 2.5 -3.5 7 -6.8 13.3 -9.6 0.2 -0.1 -0.6 -2.7 -1.6 -5.9 l-2 -5.7 -3.2 7.1 c-5 10.7 -15.8 20 -24.9 21.3 -4.3 0.6 -3.3 -1.7 2.8 -6.5 5.3 -4.1 11.5 -11 14.7 -16.3 0.7 -1.1 1.5 -1.6 1.9 -1.2 1.2 1.1 -6.4 11.6 -11.6 16 -2.7 2.3 -4.7 4.3 -4.5 4.5 0.9 1 9 -4.1 12.8 -8 4.5 -4.6 8 -11.5 9.9 -19.2 1.8 -7.6 1.8 -7.7 2.8 -7.1 0.4 0.3 1.1 3.2 1.3 6.4 0.6 6.2 5.9 19.2 6.6 16 0.5 -2.5 1.5 -2.2 4 1.2 2 2.6 7.2 6.5 5.9 4.3 -0.2 -0.4 -2.2 -3.7 -4.4 -7.3 -4.1 -6.8 -8.6 -17.2 -9.8 -22.7 -0.6 -2.9 -0.9 -3.2 -2.7 -2.2 -1.1 0.6 -3.1 0.9 -4.4 0.6 -1.8 -0.3 -2.4 0 -2.4 1.4 0 4.5 -4.2 12.8 -8.8 17.2 -2.6 2.5 -7.1 7 -10 10 -5.6 5.9 -13.3 10.4 -19.5 11.4 -2.6 0.4 -4.2 1.3 -4.7 2.7 -1 2.4 -3.4 21.5 -5 39.6 -0.6 6.9 -2 21 -3 31.3 -1.1 10.3 -2.2 25.4 -2.5 33.5 l-0.6 14.7 3.5 -6.7 c2 -3.7 4.7 -9.8 6.1 -13.5z m66.1 -21.9 c-0.3 -0.9 -0.6 -2 -0.6 -2.5 0 -0.5 -2.7 -0.9 -6 -0.9 -7.2 0 -11.9 -1.7 -14.8 -5.5 -6.4 -8.1 1.6 -14.4 20.2 -16.2 3.6 -0.3 6.6 -1 6.6 -1.4 0 -1.4 -13.6 -1 -22.3 0.6 -9 1.6 -15.8 4.6 -18.7 8.2 -8.5 10.8 3.4 18.9 27.9 19.2 7.2 0.1 8.2 -0.1 7.7 -1.5z m5.7 -0.6 c1.2 -0.6 3.8 -2.4 5.7 -4 5.6 -4.6 9.1 -3.7 13.5 3.7 1.8 2.9 4.3 0.6 7.5 -7.1 5.1 -12.2 6.2 -22.4 2.4 -22.4 -0.8 0 -3.8 1.6 -6.6 3.5 -6.6 4.6 -10.6 4.5 -12.8 -0.2 -0.8 -1.8 -1.8 -3.3 -2.2 -3.3 -2.2 0 -7.1 6.2 -8.8 11.3 -2.1 5.9 -3.5 17 -2.5 18.8 0.8 1.2 1.2 1.1 3.8 -0.3z m15.7 -1.1 c0 -3.5 -4.3 -4.7 -7.6 -2.2 -1.6 1.3 -1.7 1.6 -0.4 2.5 2.2 1.4 8 1.3 8 -0.3z m38.8 -3.2 c16.5 -2.4 22.2 -6.1 22.2 -14.5 0 -4.9 -3.5 -7.6 -11.6 -8.8 -7.1 -1.2 -18.4 -1.7 -26.5 -1.4 l-4.6 0.2 -0.6 5.3 c-0.4 4.4 -2.5 11.8 -5.2 19 -0.6 1.5 0.1 1.7 7.6 1.7 4.6 0 13 -0.7 18.7 -1.5z m-71 -8.2 c0.7 -4.2 1 -7.8 0.7 -8.1 -1.1 -1.2 -8.6 2.1 -10.1 4.3 -1.4 2.1 -1.4 3 -0.4 5.4 1 2.4 5.7 6 8.1 6.1 0.3 0 1.1 -3.4 1.7 -7.7z m10.7 3.1 c0.3 -2.5 1.3 -6.4 2.1 -8.6 0.8 -2.3 1.2 -4.3 0.9 -4.6 -0.3 -0.3 -2.6 -0.1 -5.2 0.4 l-4.7 0.9 -1.3 6 c-2.1 10.2 -2 10.5 3.1 10.5 l4.4 0 0.7 -4.6z m-36.4 -10.5 c1 -1.3 0.7 -2.3 -1.5 -5.2 -3.1 -4 -9.6 -18.2 -9.6 -20.9 0 -3.6 1.7 -1.6 3.4 4 1.7 5.6 5.3 12.6 8.5 16.8 1.5 1.9 1.6 0.2 1.8 -22.3 l0.2 -24.4 -2.7 2 c-7.1 5 -13.1 12.9 -18.9 25.2 -8.2 16.8 -8 16.3 -4.1 18.7 1.8 1.1 6.7 5 10.8 8.5 l7.5 6.5 1.7 -3.6 c1 -2.1 2.3 -4.4 2.9 -5.3z m193.5 -14.4 c-3.3 -10.8 -3.9 -23.5 -3.3 -71 0.9 -65 2.6 -96.4 5.8 -111 2.9 -12.7 10.1 -20.7 20.7 -23 2.6 -0.5 3.1 -1 2.2 -2 -2.4 -2.9 -10.5 -4.7 -23 -5.2 -14 -0.6 -20.4 0.6 -31.9 5.8 -7.6 3.5 -10.8 6.1 -12.7 10.6 -1.6 3.8 -1.8 16.1 -0.4 26.5 0.5 4 1.9 17.2 3 29.3 1.6 18 5.4 51.3 7.6 67.2 0.4 2.4 1.3 3.7 3.5 4.9 7.2 3.7 8.4 7.6 4.9 16 l-2.1 4.7 7.9 8.1 c11.9 12.2 13.5 16.8 8.8 26 -2.3 4.4 -2.3 5 -1 9.8 0.7 2.8 1.8 9.4 2.5 14.7 0.6 5.3 1.3 10.3 1.6 11.1 0.3 0.8 2.1 -2.8 4 -8 3.4 -9.4 3.5 -9.5 1.9 -14.5z m-217.3 10 c-1.6 -1.2 -1.8 -1.1 -2.1 0.5 -0.2 1.1 0.5 3.6 1.5 5.7 l1.8 3.8 0.3 -4.3 c0.2 -3.3 -0.1 -4.7 -1.5 -5.7z m37.7 -2 c3 -0.9 10.8 -1.9 17.3 -2.2 l11.9 -0.6 -0.6 -4.1 c-0.3 -2.3 -0.8 -10.8 -1.2 -18.9 l-0.6 -14.9 -5.2 0.8 c-6.6 0.9 -25.5 0.9 -28.2 0 -2.1 -0.6 -2.1 -0.3 -2.8 14.2 -0.9 18.5 0 28.6 2.3 27.8 0.9 -0.2 4.1 -1.2 7.1 -2.1z m48.1 -0.5 l2.4 -1.9 -4.7 -0.1 c-4.6 0 -6.5 1.1 -5.3 3 1 1.7 5.1 1.1 7.6 -1z m-10.4 -4.5 c2.1 0.9 14.4 0.8 18.9 -0.1 2.6 -0.5 3.4 -1.4 5.4 -6.2 1.2 -3.2 5 -10.9 8.2 -17.2 3.4 -6.5 6.2 -13.2 6.4 -15.4 0.2 -2.1 1.1 -5 1.9 -6.3 1.5 -2.3 1.5 -2.3 -2.6 -2.3 -6.1 0 -22.1 3 -24.7 4.7 -1.3 0.8 -3.3 3.4 -4.3 5.8 -2 4.5 -3.9 6.6 -3.9 4.3 0 -0.7 1.3 -3.6 2.9 -6.5 l2.8 -5.2 -5.1 -1.6 c-2.8 -0.9 -6.8 -2.7 -8.8 -4.1 -2.1 -1.3 -3.9 -2.4 -4.2 -2.4 -0.8 0 -0.9 37.2 -0.1 46.7 0.7 7.1 0.7 7.2 3 6.1 1.3 -0.6 3.2 -0.7 4.2 -0.3z m61.2 -5.7 c1.3 -4 5.2 -12.9 8.7 -19.8 4.6 -9 6 -12.6 5.1 -13.2 -1.6 -1 -22.1 -0.9 -27.6 0.1 -2.8 0.6 -5.1 1.8 -6.2 3.2 -3.1 4.2 -16.9 32.9 -16.9 35.3 0 0.2 3 0.1 6.8 -0.1 3.7 -0.2 10.3 0 14.7 0.5 14.1 1.6 12.8 2.2 15.4 -6z m71.1 -14.2 c2.1 -7.7 -0.5 -11.9 -5.3 -8.3 -1.5 1.1 -1.5 1.7 0.6 7.4 1.2 3.4 2.4 6 2.8 5.7 0.3 -0.2 1.2 -2.4 1.9 -4.8z m-49.6 -14 c4.8 -6.4 4.2 -10.6 -1.9 -13.2 -4.3 -1.8 -28.4 -1.8 -33.5 -0.1 -3.1 1.1 -7.2 5.9 -6 7.1 0.3 0.2 2.8 0 5.5 -0.5 7.5 -1.4 26.9 -1.3 29.6 0.2 5.2 2.7 5.4 7.4 0.6 9.4 -1.8 0.7 -3.9 2.6 -4.5 4 l-1.2 2.6 4.5 -3.2 c2.5 -1.8 5.6 -4.7 6.9 -6.3z m-4.4 -0.6 c0 -0.5 -0.2 -1 -0.4 -1 -0.3 0 -0.8 0.5 -1.1 1 -0.3 0.6 -0.1 1 0.4 1 0.6 0 1.1 -0.4 1.1 -1z m-89.2 -3.8 c1.4 -0.8 2.2 -2.2 2.2 -4 0 -5.2 -0.9 -5.6 -14.3 -6 -13.9 -0.5 -18.5 0.5 -21.7 4.5 -2.4 3.1 -2.5 3.7 -0.3 5.8 1.4 1.5 3.6 1.7 16.7 1.3 9.5 -0.2 15.9 -0.8 17.4 -1.6z m104.7 -11.3 c9.5 -9.6 16.9 -12.9 22.6 -9.9 1.7 1 1.9 0.7 1.9 -2.4 0 -4.5 -2.9 -6.6 -9.1 -6.6 -5.6 0 -13.6 4.8 -21.8 13.3 l-5.4 5.6 2.9 2.5 c1.6 1.4 3.1 2.6 3.4 2.6 0.3 0 2.8 -2.3 5.5 -5.1z m-68.5 1.6 c4.7 -0.8 11.7 -1.5 15.7 -1.5 7.4 0 10.6 -0.7 9.8 -2 -0.3 -0.4 1.1 -3.2 3.1 -6.1 3.5 -5.2 3.5 -5.3 1.5 -7.2 -1.3 -1.3 -2.6 -1.7 -3.8 -1.3 -1.6 0.7 -1.5 0.9 1 2.2 1.5 0.8 2.7 1.9 2.7 2.4 0 1.3 -0.6 1.3 -4.1 -0.6 -3.5 -1.8 -5.2 -1.1 -2.3 1 2.9 2.2 1 3 -2.5 1.1 -1.8 -0.9 -3.7 -1.3 -4.3 -0.9 -0.6 0.4 0.5 1.5 2.8 2.7 2.1 1.1 3.4 2.2 2.7 2.4 -0.6 0.2 -3 -0.5 -5.2 -1.6 -2.2 -1.2 -5.1 -2.1 -6.3 -2.1 -2.2 0.1 -2.2 0.1 -0.4 1.5 1 0.8 2.4 1.6 3 1.8 0.6 0.2 0.9 0.7 0.5 1 -0.3 0.4 -3.8 -0.5 -7.8 -1.9 -8.8 -3.1 -11.2 -2.7 -4.2 0.6 2.8 1.3 5.1 2.7 5.1 3.2 0 0.4 -0.2 0.8 -0.6 0.8 -1 0 -9.9 -4.2 -12.4 -5.9 -1.4 -1 -5.6 -3 -9.5 -4.6 -3.8 -1.6 -9.9 -4.9 -13.4 -7.2 -3.5 -2.4 -6.5 -4.2 -6.6 -4.1 -0.2 0.2 -1.3 2.7 -2.5 5.6 l-2.3 5.3 2 2.7 c4.7 6.3 19.2 14.1 26.3 14.2 1.9 0 7.3 -0.7 12 -1.5z m-95.6 -3.6 c8.8 -3.3 17.4 -10.9 20.7 -18.3 1.3 -2.8 2.5 -3.3 3.2 -1.3 0.6 1.8 6.5 -9.1 7.2 -13.5 0.6 -3.4 0.3 -4.1 -2.3 -6.3 -3.1 -2.6 -4.6 -6.1 -3.1 -7.1 0.5 -0.3 1.3 0.6 1.9 2 1.1 3 6.5 6.6 9.9 6.6 1.4 0 3.7 -1.4 5.7 -3.6 1.9 -1.9 3.4 -3.4 3.5 -3.2 0 0.2 0.2 1.1 0.4 2 0.5 2.8 7.1 11.3 12.6 16.2 6.2 5.5 17.3 12 25.2 14.7 4.1 1.4 8.8 2 14.8 2.1 8.1 0.1 9.5 -0.2 15.6 -3.2 7.3 -3.6 19.6 -15 25.1 -23.2 5.6 -8.5 6.2 -11.9 5.5 -29.5 -0.5 -14.5 -1.2 -18.3 -3.3 -18.3 -0.4 0 -1.1 1.1 -1.4 2.5 -0.9 3.7 -6.1 6.5 -12.1 6.5 -4.9 0.1 -5 0.1 -2.9 1.8 1.2 0.9 3 2.2 4 2.8 1.1 0.7 1.6 1.5 1.2 1.9 -0.9 0.9 -6.8 -2.8 -12.2 -7.6 -3.9 -3.4 -4.5 -6.2 -2 -9.1 1.6 -1.7 1.5 -1.9 -1 -4.4 -2.7 -2.8 -3.3 -4.4 -1.6 -4.4 0.6 0 1 0.5 1 1 0 0.6 1.5 1.9 3.3 3 2.5 1.6 5 2 12 2 6.1 0 9.7 0.5 11.9 1.6 l3.1 1.6 -0.8 -12.3 c-0.7 -12.7 -3.1 -24.2 -6.1 -30.1 -0.9 -1.8 -5 -6.6 -9.2 -10.5 -4.1 -4 -6.8 -7.3 -6 -7.3 2.5 0 14.4 12.2 17 17.5 4.9 9.8 5.8 16 6.9 47.5 1 30 1.3 32.2 5.3 36.8 2.4 2.7 8.5 4.5 11.6 3.4 2 -0.7 1.8 -0.9 -1.9 -2.1 -5.3 -1.5 -8.1 -5.8 -8.1 -12.1 0 -2.5 0.9 -11.2 2 -19.5 2.7 -20.7 2.6 -34.2 -0.5 -47.8 -3.7 -16.5 -9.5 -27.4 -19.4 -36.5 -5.9 -5.4 -16.3 -8.6 -20 -6.3 -1 0.6 -3.1 -0.3 -7 -2.9 -13.3 -9.1 -34.6 -12.5 -50.6 -8.1 -22.7 6.3 -36.2 17.8 -47.5 40.6 -7.8 15.7 -8.2 18 -7.8 51.3 0.3 26 0.1 29.2 -1.6 33.7 -3.6 9.7 -6.7 15.4 -11.4 20.6 -7.4 8.3 -14.4 10.5 -23.2 7.4 -2.4 -0.8 -4.5 -1.4 -4.6 -1.2 -0.6 0.6 3.8 6.2 6.5 8.2 2.2 1.7 4.2 2 14.1 2 10.4 0 11.9 -0.2 16 -2.5 5.3 -3 10.3 -10.6 12 -18.4 0.7 -2.8 1.6 -19.5 2 -37.1 0.5 -17.6 1.1 -32.9 1.4 -34 0.2 -1.1 1.2 -5.4 2.2 -9.5 4.2 -18.4 13.9 -32.4 30.2 -43.1 17.3 -11.3 35.1 -14.7 51.4 -9.6 8.1 2.6 12.8 5 11.7 6.1 -0.3 0.3 -2.3 -0.3 -4.5 -1.4 -10 -4.9 -23.9 -6.3 -34.9 -3.5 -8.2 2.1 -22.9 9.5 -29.3 14.8 -13.2 10.9 -20.2 23.7 -24.2 44.2 -0.7 3.3 -1.6 20.4 -2 38 -0.9 34.1 -1.5 38.5 -6.3 46.8 -2.9 5 -8.4 9.1 -14.2 10.6 -5.2 1.4 -19.6 1.4 -23.2 0 -3.8 -1.5 -9.3 -2.8 -9.3 -2.2 0 1.6 4.5 7.5 7 9.3 11.5 8.2 34.9 0.6 44.1 -14.3 5.2 -8.5 5.9 -13.4 5.9 -42 0 -14.2 0.5 -29.1 1.1 -33 1.9 -13.2 8.8 -34.7 11.1 -34.7 0.6 0 0.7 0.8 0.3 1.8 -2.2 5.2 -5.9 16.7 -7.7 23.7 -1.8 7.1 -2.1 11.6 -2.5 38.5 -0.4 31.6 -0.8 35.9 -4.9 44.1 -4.5 9.1 -17.2 18.7 -26.9 20.4 -2.2 0.4 -4.7 1.2 -5.5 1.7 -2.6 1.6 10.1 -0.3 15.4 -2.3z m12.6 2.6 c0 -0.3 -0.2 -0.5 -0.5 -0.5 -0.3 0 -0.5 0.2 -0.5 0.5 0 0.3 0.2 0.5 0.5 0.5 0.3 0 0.5 -0.2 0.5 -0.5z m48 -2.2 c0 -0.7 -0.6 -1.3 -1.4 -1.3 -0.7 0 -3 -1.1 -5 -2.5 -2.1 -1.4 -4.2 -2.2 -4.8 -1.9 -0.6 0.4 -2.1 -0.5 -3.3 -2 -2.2 -2.7 -2.2 -2.7 -6.1 -1.1 -3.9 1.6 -8.8 5.7 -10.4 8.5 -0.7 1.3 1.3 1.5 15.1 1.5 12.1 0 15.9 -0.3 15.9 -1.2z m95 -4.9 c6.7 -6.8 13.2 -11.6 18.4 -13.6 l4 -1.5 -6.5 -1.2 c-20.7 -3.6 -37 2 -45.7 15.6 -1.8 2.7 -3.2 5.3 -3.2 5.6 0 0.4 6.2 0.7 13.8 0.7 l13.8 0 5.4 -5.6z m30.8 0.2 c-0.2 -1.6 -1.1 -2.2 -3.6 -2.4 -6.1 -0.6 -6.9 0.5 -2.6 3.7 4.2 3.2 6.8 2.6 6.2 -1.3z m-45.3 -16.3 c5.4 -2.5 7.1 -2.8 17 -2.8 6.1 0 13.1 0.4 15.6 0.8 l4.6 0.9 -1.3 -11.4 c-0.7 -6.2 -1.9 -16.2 -2.8 -22.3 -0.8 -6 -2.4 -21.1 -3.6 -33.5 -1.1 -12.4 -2.5 -26.1 -3 -30.5 -0.6 -4.4 -1 -11.9 -1 -16.8 0 -9.9 1.4 -14.2 6.1 -18.1 2.8 -2.4 2.8 -2.4 0.6 -3 -3.8 -1 -11.2 -0.7 -19.8 1 -4.6 0.9 -8.7 1.8 -9.1 2 -0.4 0.3 1.2 3.5 3.7 7.2 2.5 3.7 5.7 10.7 7.4 15.7 3.6 10.8 6.5 29.8 5.7 36.9 -0.3 2.8 -1.5 13.1 -2.7 22.9 -1.1 9.9 -1.8 19.4 -1.4 21.3 0.8 4.5 4.1 6.6 9.9 6.3 2.5 -0.2 4.8 0 5.2 0.4 1.2 1.2 -2.8 4.7 -6.7 5.9 -5 1.4 -11.7 -1 -15.5 -5.5 l-2.6 -3.2 0.6 4 c1 7.5 8.4 11.4 16 8.5 1.4 -0.5 2.8 -0.6 3 -0.1 1 1.6 -2.5 5 -6.8 6.6 -5.5 2.1 -10.4 0.9 -15.3 -3.7 l-3.1 -3 -3.3 3.8 c-1.9 2.2 -5.5 6.1 -8.1 8.8 -4.5 4.6 -4.7 5 -3.2 6.7 1.6 1.7 1.8 1.7 4.8 -0.6 1.8 -1.3 5.9 -3.7 9.1 -5.2z m-85.4 -6.6 l-2.6 -2.8 -0.6 2.3 c-1.1 3.8 -1 8.8 0.3 11.1 1.1 2.1 1.3 1.9 3.4 -2.8 l2.2 -5 -2.7 -2.8z m-5.6 -6.2 c-0.6 -1.1 -1.8 -3 -2.6 -4.2 -0.8 -1.3 -1.7 -2.3 -2.1 -2.3 -1.3 0 -0.9 2.4 1.4 9.6 l2.1 6.9 1.3 -4 c0.9 -3.2 0.9 -4.4 -0.1 -6z m111.5 3.5 c1.1 -0.7 0.5 -1 -2.5 -1 -5 0 -10.2 -3.1 -11.9 -7 l-1.2 -3 -1.4 2.6 c-1.4 2.5 -1.3 2.8 2.3 6 3.1 2.9 4.4 3.4 8.4 3.4 2.7 0 5.5 -0.5 6.3 -1z m-164.1 -13.5 c5.4 -12.9 5.8 -19.8 3.5 -56.3 l-0.6 -9.3 -2.4 3.8 c-1.3 2.1 -3.4 6.7 -4.5 10.3 -2 5.9 -2.3 9 -2.6 35 l-0.4 28.5 2 -2.5 c1.2 -1.4 3.4 -5.6 5 -9.5z m140.5 -36.4 c3.1 -3.2 1.2 -5.5 -5 -5.9 -3.9 -0.3 -4.7 -0.1 -3.6 0.9 1.8 1.9 1.5 5.6 -0.5 6.9 -1.4 0.9 -0.9 1 2.6 0.6 2.6 -0.3 5.2 -1.3 6.5 -2.5z m-17.7 -0.3 c-0.2 -0.7 0 -2.3 0.4 -3.5 1.2 -3.1 -0.4 -2.9 -2.1 0.3 -1.2 2.2 -1.2 2.7 0 3.4 2 1.3 2.2 1.2 1.7 -0.2z"/>
  <path d="M148 235.1 c0 -2.5 10.4 -19.1 12 -19.1 0.5 0 -1.6 4.1 -4.6 9.2 -5.8 9.9 -7.4 12 -7.4 9.9z"/>
  <path d="M49 178.4 c0 -0.5 2.2 -1.5 5 -2.1 6.6 -1.6 13.4 -6.4 16.4 -11.6 3.1 -5.4 4.3 -11.6 5 -24.7 0.5 -9.4 2.5 -20.3 4 -21.8 1.5 -1.4 1.5 1 0.2 6.4 -0.9 3.2 -2 11.9 -2.5 19.2 -0.8 10.5 -1.5 14.3 -3.4 18.5 -2.7 5.9 -7.5 11 -12.9 13.8 -4.1 2.1 -11.8 3.6 -11.8 2.3z"/>
  <path d="M173 169.6 c0 -2.4 10.8 -5.4 14.9 -4.1 3.8 1.2 2.2 2 -3.8 2.1 -3.8 0.1 -6.9 0.7 -8.5 1.8 -2.1 1.3 -2.6 1.4 -2.6 0.2z"/>
  <path d="M164.5 161.3 c-3.8 -0.9 -3.8 -2.1 -0.4 -6.7 4.7 -6.2 9.8 -9 15.2 -8.2 2.3 0.3 5.1 0.6 6.2 0.6 1.1 -0.1 3.5 -0.1 5.4 -0.2 2.6 -0.1 4 0.5 5.9 2.7 l2.5 2.9 -4.1 3.6 c-2.2 2 -5.8 4.2 -8 4.8 -3.8 1.2 -18.6 1.5 -22.7 0.5z m9.5 -3.3 c0 -2 -0.1 -2 -3.2 -0.4 -4.6 2.3 -4.6 2.4 -0.5 2.4 3 0 3.7 -0.4 3.7 -2z m7 -1.1 c0 -2.4 -0.3 -3 -1.6 -2.5 -0.9 0.3 -2 0.6 -2.5 0.6 -0.5 0 -0.9 1.1 -0.9 2.5 0 2 0.5 2.5 2.5 2.5 2.1 0 2.5 -0.5 2.5 -3.1z m6.1 2.1 c0.5 0 0.9 -1.1 0.9 -2.5 0 -2 -0.5 -2.5 -2.5 -2.5 -2.1 0 -2.5 0.5 -2.5 3.1 0 2.4 0.3 3 1.6 2.5 0.9 -0.3 2 -0.6 2.5 -0.6z m-11.6 -5.7 c2.7 -1 6.8 -1.4 12.3 -1.1 4.5 0.1 8.2 0 8.2 -0.4 0 -1.1 -4.3 -3.8 -5.9 -3.8 -0.8 0 -2.2 0.7 -3.2 1.6 -1.7 1.5 -1.9 1.5 -3.4 0 -3.8 -3.7 -12.6 -1 -17.3 5.4 l-2.3 3.1 3.8 -1.7 c2.1 -0.9 5.6 -2.3 7.8 -3.1z m17.5 2.2 c1 -1.3 0.9 -1.5 -0.9 -1.5 -1.2 0 -2.1 0.6 -2.1 1.5 0 0.8 0.4 1.5 0.9 1.5 0.5 0 1.4 -0.7 2.1 -1.5z"/>
  <path d="M109 143.5 c-0.7 -1.7 -1.5 -9.1 -1.7 -17 -0.5 -15.4 0.5 -22.1 5.3 -34.4 3.4 -8.4 11.4 -22.1 13 -22.1 0.7 0 -0.6 3.1 -3.1 7.2 -5.7 9.1 -10.1 19.8 -12 28.8 -1.7 8.3 -2 24.1 -0.4 32.4 1.2 6.7 0.7 9.4 -1.1 5.1z"/>
  <path d="M115.7 145.3 c-0.6 -1.2 1.1 -23.6 2.4 -32.3 2.7 -17.9 8 -31.7 16.4 -42.2 8.4 -10.7 21.7 -19.2 34.8 -22.3 7.1 -1.7 19.7 -2 19.7 -0.5 0 0.6 -2.8 1 -6.3 1 -8.2 0 -20.2 3.1 -28 7.2 -12.6 6.6 -24.5 21.3 -29.8 36.5 -2.8 8.2 -5.8 26.7 -6.6 40.6 -0.5 10.5 -1.4 14.3 -2.6 12z"/>
  <path d="M100.8 137.3 c-2.1 -6.2 -2.3 -8.5 -2.2 -24.3 0 -16 0.3 -18.2 2.8 -26.5 8.5 -28.2 24.2 -44.5 48.1 -50 10.6 -2.5 28.5 -2.3 28.5 0.3 0 0.4 -4.5 0.5 -10 0.4 -26.8 -1 -47 10.7 -58 33.3 -7.7 15.7 -9.4 23.8 -9.4 43.5 0 14.5 0.2 17.2 2.2 22.7 2.5 7.1 2.5 7.3 1.3 7.3 -0.5 0 -2 -3 -3.3 -6.7z"/>
  <path d="M185 140.2 c0 -1.5 4 -6.2 5.3 -6.2 0.5 0 0.7 0.7 0.3 1.5 -0.3 0.9 0 1.5 1 1.5 2.6 0 2.8 -3 0.4 -5.5 -1.3 -1.4 -2 -2.8 -1.6 -3.2 1.1 -1.1 5.6 4.4 5.6 6.7 0 2.3 -3.5 4.4 -5.7 3.6 -0.9 -0.4 -2.4 0.1 -3.4 1 -1.1 1 -1.9 1.2 -1.9 0.6z"/>
  <path d="M167.2 138.8 c-1.8 -1.8 -1.4 -5.3 0.7 -7.2 2.2 -2 6.2 -1.8 6.9 0.3 0.3 0.9 0 1.1 -0.7 0.6 -0.7 -0.4 -2.3 -0.4 -3.7 -0.1 -1.8 0.5 -2.4 1.3 -2.4 3.2 0 2.4 0.3 2.6 2.8 1.9 4.6 -1.2 8.5 -1.1 8.9 0.2 0.3 0.9 -0.4 1.1 -2.5 0.7 -1.7 -0.4 -3.2 -0.1 -3.6 0.5 -0.9 1.5 -4.9 1.4 -6.4 -0.1z"/>
  <path d="M152 128.2 c0 -0.5 1.7 -1.8 3.8 -3 2.1 -1.1 4.6 -3 5.5 -4 1.7 -1.9 1.7 -1.9 -3.5 -0.5 -5.3 1.4 -9.7 1.2 -17 -0.8 -4.4 -1.1 -4.9 -3.1 -1.5 -6.8 l2.2 -2.5 -3.7 2.2 c-2.7 1.5 -3.8 1.7 -3.8 0.8 0 -0.7 2.1 -2.3 4.8 -3.7 4 -2 6.6 -2.4 17.2 -2.9 10.7 -0.4 13.1 -0.8 16.4 -2.8 4.5 -2.6 6 -2.2 2.5 0.8 -2.4 2 -8 4 -11.2 4 -1.6 0 -1.4 0.5 0.9 3.6 2.6 3.4 2.7 3.8 1.3 6.2 -0.8 1.5 -3.9 4.4 -6.8 6.4 -5.5 3.8 -7.1 4.5 -7.1 3z m-9.1 -11.4 c-0.6 -1.3 -1.3 -2.4 -1.4 -2.6 -0.1 -0.1 -0.8 0.4 -1.5 1.3 -1 1.2 -0.8 1.6 1.1 2.4 1.3 0.5 2.5 1 2.7 1 0.1 0.1 -0.3 -0.9 -0.9 -2.1z m18 1.1 c3.9 -1.4 3.9 -3 0 -6.3 -2.1 -1.8 -4.2 -2.6 -7 -2.6 -4.2 0 -4.8 0.6 -2.2 2.5 0.9 0.7 1.6 2.6 1.6 4.4 0 3.5 1.8 4 7.6 2z"/>
  <path d="M221.4 105.8 c-0.1 -16.5 -0.4 -20.5 -2.2 -27.3 -4.6 -16.9 -13.6 -29.3 -29.7 -40.9 -1.1 -0.8 -1.7 -1.8 -1.3 -2.2 1.1 -1 11.1 7 17.8 14.3 11.8 12.9 16.7 26.8 17.7 49.9 0.6 13.6 -0.1 25.4 -1.5 25.4 -0.4 0 -0.7 -8.7 -0.8 -19.2z"/>
  <path d="M130 105.6 c0 -0.4 2.6 -1.9 5.7 -3.3 4.6 -2.1 7.7 -2.7 15.8 -3.1 9.8 -0.4 19.1 1 18 2.7 -0.3 0.5 -2.4 0.4 -4.7 -0.1 -6 -1.4 -21.4 -0.4 -26.8 1.6 -6.6 2.5 -8 2.9 -8 2.2z"/>
  <path d="M189.5 100.9 c-0.9 -1.3 0.9 -1.8 8.2 -2.5 7.1 -0.7 14.3 0.7 14.3 2.8 0 0.6 -0.8 0.7 -1.7 0.4 -3.6 -1.4 -10 -1.8 -15.1 -0.8 -2.9 0.5 -5.5 0.6 -5.7 0.1z"/>
  <path d="M128 65 c0 -1.7 7.6 -11.3 11.3 -14.1 11 -8.7 30.3 -13.4 40.5 -9.8 4.4 1.5 3 3 -1.6 1.7 -2 -0.6 -6.9 -0.8 -10.7 -0.5 -14.1 1 -26.6 7.6 -33.8 17.7 -4.1 5.7 -5.7 7.1 -5.7 5z"/>
  <path d="M275.6 350.2 c-1.2 -2 4.3 -27.3 8.9 -40.8 6.4 -19.1 14.5 -35.4 26.7 -54.1 17.7 -26.9 22 -34.9 27.3 -50.6 4.4 -13.1 5.9 -25 5 -39.7 -0.9 -14.7 -2.6 -23.6 -6.3 -33 -3.2 -7.9 -9.9 -20.4 -13.9 -25.6 -1.2 -1.7 -2.3 -3.4 -2.3 -3.7 0 -3.8 9.8 10.3 15.5 22.3 4.9 10.6 7.3 19.6 8.6 33 2.1 21.3 -0.1 37.4 -7.8 56 -4.4 10.8 -9.8 20.3 -23.3 41 -11.5 17.7 -15.7 25.1 -20.8 37 -7.5 17.9 -11.3 30.3 -14.2 47.3 -1.9 11.1 -2.3 12.6 -3.4 10.9z"/>
  <path d="M75 317.5 c-1.4 -0.8 -4.9 -1.4 -7.7 -1.5 -2.9 0 -5.3 -0.4 -5.3 -1 0 -0.5 2.3 -1 5 -1 5.4 0 12 2.2 12 3.9 0 1.4 -1 1.3 -4 -0.4z"/>
 </g>
 <g fill="#ffffff">
 </g>
</svg>