<?xml version="1.0" encoding="utf-8"?>
<!DOCTYPE svg PUBLIC "-//W3C//DTD SVG 1.0//EN" "http://www.w3.org/TR/2001/REC-SVG-20010904/DTD/svg10.dtd">
<svg version="1.0" xmlns="http://www.w3.org/2000/svg" width="505px" height="314px" viewBox="0 0 505 314" preserveAspectRatio="xMidYMid meet">
 <g fill="#1c1c24">
  <path d="M93.7 249.9 c-4.2 -1.2 -6 -3.7 -5.5 -7.7 0.3 -2.4 0 -2.7 -2.7 -2.5 -12.5 0.9 -13.3 0.9 -15.9 -1.6 -2.2 -2.1 -2.6 -3.2 -2.4 -7 0.1 -2.5 0.1 -6.7 0 -9.3 -0.2 -4.6 -0.3 -4.8 -3.2 -4.8 -7 0 -8.6 -5.9 -7.6 -27.5 0.6 -14.2 0.6 -14.2 -1.9 -16.5 -5.2 -4.9 -3.9 -13.6 3.1 -21.9 l3.6 -4.2 -2.1 -2.3 c-2.6 -2.8 -2.7 -5 -0.1 -9.1 2.2 -3.6 7.3 -7.3 14.1 -10.4 l4.6 -2 -0.9 -5.3 c-1.4 -7.9 -3.8 -12.5 -11.2 -21.3 -9.3 -11 -12.1 -17 -11.2 -23.8 0.8 -6 0.8 -7.5 0.1 -13.7 -0.7 -5.4 1.1 -7.9 9.5 -13.2 12.9 -8 24.3 -11.3 37.7 -10.6 8.5 0.4 9.6 0.7 21.9 6.6 7.1 3.3 14.1 6.4 15.7 6.8 3.2 0.7 3.4 1.5 0.9 3.7 -3.1 2.9 -9.3 4.9 -12.8 4.3 l-3.2 -0.7 1.1 3.6 c0.5 1.9 1.6 3.5 2.3 3.5 0.8 0 1.1 1.5 1 4.3 -0.2 4.7 1.8 9.7 4 9.7 2.5 0 4.6 4.8 4.8 11.2 0.1 3.5 0.8 7.3 1.4 8.5 1.8 3.3 1.4 7.1 -0.9 9.4 -1.7 1.7 -2.9 2 -6 1.5 -2.1 -0.3 -3.9 -0.3 -3.9 0 0 0.4 0.9 2.2 2.1 4 4 6.5 0.7 9.1 -10.5 8.1 l-6.1 -0.5 -4 4.8 c-5 6.1 -5.3 7 -2.2 7 2.6 0 5.7 2.8 5.7 5.1 0 1 2.8 2.2 8.8 3.7 4.8 1.2 9.3 2.2 10 2.2 0.7 0 2.6 -1.4 4.4 -3 1.7 -1.7 3.6 -2.9 4.2 -2.7 0.6 0.2 1.9 2 2.9 4 1.4 2.7 2.5 3.7 4.3 3.7 2.4 0 6.4 3.1 6.4 5 0 0.5 -0.9 1.8 -2 2.8 -2 1.9 -2 1.9 -0.1 3.6 2.4 2.2 1.8 4.2 -1.4 5 -1.5 0.4 -2.5 1.5 -2.7 2.9 -0.5 3.3 -3.8 3.2 -8.7 -0.3 -3.2 -2.4 -6.6 -3.6 -13.9 -5 -5.4 -1.1 -11.3 -2.4 -13.2 -3 -1.9 -0.5 -3.8 -1 -4.1 -1 -0.4 0 0.1 3.3 1.2 7.3 2.8 10.6 2.5 13.3 -1.5 17.3 l-3.3 3.3 1.7 9.3 c6.7 34.4 6.7 32.9 -1.8 34.3 l-4.3 0.7 0.3 5.6 c0.3 5.3 0.5 5.7 3.3 6.5 4.9 1.4 9.8 4.1 10.9 5.9 0.8 1.4 0.6 2.2 -1.1 3.9 -1.7 1.7 -3.6 2.2 -9 2.5 -3.7 0.2 -8.5 -0.2 -10.6 -0.7z m17.9 -3 c2.2 -1.8 -0.7 -4.5 -6.6 -5.9 -4.1 -1 -5.3 -0.9 -8 0.5 -1.8 0.9 -4.1 1.5 -5.1 1.2 -1.4 -0.4 -1.9 0 -1.9 1.3 0 2.2 1.1 3 5.4 4.1 4.2 1.1 14.3 0.4 16.2 -1.2z m-16.1 -7.1 c2.3 -1 2.5 -1.6 2.5 -7.5 l0 -6.3 -4.6 0 -4.7 0 0.7 6.7 c0.9 9 1.2 9.3 6.1 7.1z m-8 -3 c1.2 -1.1 -1.6 -5.9 -4 -6.8 -1.3 -0.5 -5 -0.6 -8.2 -0.2 -4.9 0.6 -5.8 1 -6.1 2.8 -0.6 4.2 2.4 5.7 10.5 5.2 4 -0.3 7.6 -0.7 7.8 -1z m-0.5 -9.8 c0 -1.2 -0.7 -2 -1.8 -2 -1 0 -2.8 -0.7 -4 -1.6 -2.1 -1.4 -2.2 -1.4 -2.2 0.9 0 1.8 0.8 2.7 3.3 3.5 4.6 1.4 4.7 1.4 4.7 -0.8z m-10 -3.7 c0 -6.3 -0.9 -7.5 -4.8 -6.7 -2.8 0.6 -3.2 1.1 -3.2 3.8 0 6.1 0.9 7.6 4.6 7.6 3.4 0 3.4 0 3.4 -4.7z m31.3 -1.2 c0.8 -0.8 0.6 -3.7 -0.7 -10.8 -2.8 -15.4 -4.7 -25.7 -5.2 -27.3 -0.3 -1.3 -2.3 -1.6 -10.7 -1.6 -5.6 0 -12.7 -0.6 -15.7 -1.3 -3 -0.6 -6.9 -1.3 -8.7 -1.5 -1.7 -0.3 -4.1 -1 -5.3 -1.6 -1.2 -0.6 -2.3 -1 -2.5 -0.8 -0.9 0.9 -1.7 24 -1.1 29.1 0.9 7.2 2.4 8.7 8.6 8.7 7.8 0 8 -0.2 8 -8.4 0 -3.9 0.5 -7.8 1 -8.6 1.2 -1.8 1.3 -1.4 1 8.2 -0.3 11.4 1.9 15 10.5 17.2 3.5 0.9 19.6 -0.1 20.8 -1.3z m-3.1 -43.7 c4.4 -2.3 4.7 -6.7 1.2 -19.1 -1.1 -3.9 -1.9 -5.3 -3.2 -5.3 -2.8 0 -11.2 -3.1 -11.2 -4.1 0 -1.2 1.1 -1.1 6 0.6 8.9 3.1 10.7 1.9 12.3 -8.5 1.3 -8.7 0.8 -9.3 -7.5 -8.4 -4 0.5 -5.8 0.3 -5.8 -0.5 0 -0.6 1.4 -1.1 3.2 -1.1 2.8 0 3 -0.2 1.8 -1.4 -1.6 -1.4 -18.3 -5.6 -22.7 -5.6 -3.7 0 -8.6 5.5 -11.2 12.5 -1.2 3.3 -3.4 7.5 -4.8 9.3 l-2.5 3.4 3.3 2.8 c3.9 3.4 3.1 3.9 -1.6 1 -2.9 -1.8 -3.4 -1.8 -4.5 -0.5 -1.5 1.9 -1.9 1.6 5.5 5 3.3 1.5 5.4 2.9 4.8 3.2 -0.7 0.2 -3.7 -0.7 -6.7 -2 -4.7 -2.2 -5.7 -2.3 -6.7 -1.1 -1 1.2 0.2 2 6.5 5 4.2 1.9 7.4 3.9 7.1 4.4 -0.3 0.5 -3.8 -0.6 -7.7 -2.6 -3.8 -1.9 -7.3 -3.2 -7.7 -2.9 -1.2 1.3 6.1 6.2 12 8 3.3 1 6.3 2.3 6.6 2.8 1.1 1.8 -7 -0.3 -12.9 -3.3 -5.2 -2.5 -5.7 -2.6 -4.7 -0.9 2.8 5.4 12.3 8.7 31.4 11.3 5 0.6 16.8 -0.5 19.7 -2z m40.5 -16.5 c-0.4 -1.6 0.1 -2.3 2.4 -3.1 3.4 -1.2 3.7 -2.4 0.9 -3.3 -1.1 -0.3 -2 -1.1 -2 -1.6 0 -0.5 0.9 -1.4 2 -2.1 3.3 -2.1 2.5 -4.6 -1.9 -5.8 -3.2 -0.8 -4.2 -1.7 -5.1 -4.5 -0.6 -1.9 -1.4 -3.5 -1.7 -3.5 -0.3 0 -1.4 1.1 -2.4 2.5 -2.9 3.6 -7.4 4 -16.4 1.5 -4.2 -1.2 -7.9 -2 -8.1 -1.7 -0.6 0.6 -3.5 11.9 -3.2 12.3 0.2 0.1 5.9 1.4 12.8 2.8 9.8 2 13.4 3.3 16.5 5.6 4.8 3.5 7 3.9 6.2 0.9z m-80.6 -22.6 c1.1 -2.7 2.6 -6 3.4 -7.5 1.8 -3.5 1.3 -3.5 -3.1 -0.1 -4.2 3.1 -6.7 7.7 -5.9 10.3 1.1 3.4 3.5 2.2 5.6 -2.7z m42.9 -16.7 l4.5 -5.5 8.1 0.6 c5.4 0.4 8.3 0.2 8.8 -0.5 0.4 -0.6 -0.2 -2.9 -1.4 -5.1 -3.4 -6.8 -2.4 -9.1 3.4 -7 4.1 1.5 6.6 0.1 6.6 -3.7 0 -4.3 -2.1 -7.4 -5 -7.4 -1.5 0 -3.4 -0.7 -4.1 -1.6 -2.5 -3 -25.8 -0.7 -28 2.7 -0.3 0.6 -0.3 2.9 0.2 5.2 0.9 5.1 -0.2 6.7 -4.6 6.7 -1.8 0 -3.9 0.7 -4.6 1.6 -1 1.2 -2.4 1.5 -6 1.1 -4.6 -0.6 -4.8 -0.5 -5.8 2.5 -1.3 3.6 -1.4 7.8 -0.3 9.4 0.4 0.6 4.3 1.8 8.7 2.8 4.4 1 9.1 2.2 10.5 2.6 4.1 1.4 4.4 1.2 9 -4.4z m-28.7 -13.7 c0.5 -1.9 1 -2 5.5 -1.4 3.8 0.5 5.3 0.3 6.5 -0.9 0.8 -0.9 3 -1.6 4.7 -1.6 3 0 3.1 -0.1 2.8 -3.7 -0.3 -3.3 -0.7 -3.8 -3 -4.1 -1.9 -0.2 -2.8 -0.9 -2.8 -2.2 0 -3 5.5 -6.7 13 -8.6 l7 -1.8 0 -8.1 c0 -9.1 -1.4 -12.4 -7.4 -17.1 -2 -1.6 -3.6 -3.4 -3.6 -4.1 0 -3.5 11.8 -4.4 22.1 -1.8 5.2 1.4 6.2 1.4 9.8 -0.1 4 -1.6 5.5 -3.4 2.8 -3.4 -0.7 0 -5.3 -2.1 -10.3 -4.6 -13.3 -6.9 -18.4 -8.4 -28.1 -8.4 -6.5 0 -10.3 0.6 -16.1 2.6 -10.1 3.4 -18.3 7.8 -22.8 12.2 -3.2 3.1 -3.5 3.9 -2.9 7.1 0.8 4.4 0.8 8.2 0 14.2 -0.9 6.1 1.6 11.3 10.6 22 3.8 4.6 7.7 10.1 8.7 12.1 2 4.3 2.7 4.7 3.5 1.7z m21.8 -16.3 c4.3 -2.4 10.3 -3.4 22.2 -3.5 3.7 -0.1 4.7 -0.5 4.7 -1.7 0 -3.3 -22.6 -0.1 -29.9 4.2 -3 1.8 -4.1 3.4 -2.2 3.4 0.5 0 2.8 -1.1 5.2 -2.4z m33.9 -5.4 c0 -5.3 -2.3 -9.7 -3.9 -7.3 -0.9 1.4 -1.3 9.9 -0.5 11.2 0.3 0.5 1.4 0.9 2.5 0.9 1.6 0 1.9 -0.7 1.9 -4.8z m-6.5 -6.3 c0.4 -1.7 0.1 -4.3 -0.5 -6 -1 -2.3 -1.7 -2.8 -3.4 -2.3 -3.6 0.9 -5 -1.8 -2.6 -4.9 2.4 -3 2.5 -5.8 0.5 -9.6 -1.8 -3.5 -3.2 -4.1 -10.3 -4.1 -8.2 0 -9 1 -4.1 5 5.4 4.3 6.9 8.2 6.9 17.7 l0 7.8 6.4 -0.3 c6.3 -0.4 6.5 -0.5 7.1 -3.3z m-1.5 -13.6 c0 -1.4 -0.2 -1.4 -2 0.2 -1.1 1 -2 2.2 -2 2.7 0 0.5 0.9 0.4 2 -0.2 1.1 -0.6 2 -1.8 2 -2.7z"/>
  <path d="M62.4 80.4 c-2.5 -4.3 -2.6 -4.9 -1.6 -9.6 0.7 -2.7 1.2 -7.1 1.2 -9.7 0 -3.3 0.6 -5.6 1.9 -7.3 2.2 -2.7 13.7 -8.4 19.1 -9.4 5.2 -1 2.7 0.8 -5.5 4 -3.8 1.5 -8.5 3.9 -10.2 5.2 -3 2.3 -3.3 3 -3.3 8.1 0 3.1 -0.5 7.3 -1.1 9.3 -1 3.4 -0.9 4.3 1.4 8.4 3.4 6 1.6 7 -1.9 1z"/>
  <path d="M68.5 75.7 c-1.6 -3.8 2.9 -19.7 5.6 -19.7 1.3 0 1.1 0.6 -0.8 4.3 -0.9 1.8 -2.2 6.4 -2.9 10.2 -0.7 4.8 -1.3 6.4 -1.9 5.2z"/>
  <path d="M199 83.9 c-6.6 -1.1 -10.5 -3.7 -10.5 -7 0 -6.6 21.9 -11.1 37.7 -7.8 6.3 1.4 14.8 5 16.5 7.1 1.9 2.2 -2.2 5.6 -8.3 6.7 -7.7 1.5 -29.3 2.1 -35.4 1z m23 -1.9 c12.3 -0.9 19 -2.3 19 -4.1 0 -3.1 -16.6 -7.9 -27.4 -7.9 -7.6 0 -17.6 2.1 -21.3 4.6 -5.8 3.8 -0.3 6.6 16.2 8.2 0.6 0.1 6.6 -0.3 13.5 -0.8z"/>
  <path d="M220 76.2 c-5 -1 -7.8 -1.1 -11.9 -0.3 -5.5 1.1 -7.7 0.7 -5.1 -0.9 3.9 -2.4 21.3 -1.7 24.3 1 1.7 1.5 -0.9 1.6 -7.3 0.2z"/>
 </g>
 <g fill="#ffffff">
 </g>
</svg>