<?xml version="1.0" encoding="utf-8"?>
<!DOCTYPE svg PUBLIC "-//W3C//DTD SVG 1.0//EN" "http://www.w3.org/TR/2001/REC-SVG-20010904/DTD/svg10.dtd">
<svg version="1.0" xmlns="http://www.w3.org/2000/svg" width="505px" height="314px" viewBox="0 0 505 314" preserveAspectRatio="xMidYMid meet">
 <g fill="#1c1c24">
  <path d="M385 178.9 c-9.2 -1.4 -15.4 -4.6 -15.8 -8.2 -0.2 -1.9 -0.9 -2.7 -2 -2.6 -6.6 0.6 -9.7 -1.5 -9.4 -6.5 l0.3 -3.5 -3 1.7 c-3.3 1.8 -4.7 6 -2.4 6.9 1.9 0.8 4.4 5.9 3.7 7.7 -1.2 3.2 -9.8 1 -11 -2.8 -0.4 -1.2 -0.6 -4 -0.5 -6.3 0.2 -3 -0.4 -5 -2 -7.2 -1.8 -2.4 -2.3 -5 -3 -14.3 -0.4 -6.2 -0.8 -14 -0.9 -17.3 l0 -6 9.8 -9.5 c5.5 -5.2 10.7 -11 11.6 -12.8 1.5 -2.9 1.5 -3.5 0.1 -5.4 -1.8 -2.6 -2 -11.4 -0.4 -17.3 1.3 -4.6 7.9 -12.1 12.6 -14.1 1.8 -0.8 6.5 -1.4 10.6 -1.4 6.4 0 7.9 0.4 12 3 6.7 4.2 13.9 16.4 12.3 20.6 -0.6 1.5 -0.9 1.4 -3.3 -0.1 -2.4 -1.6 -2.7 -1.6 -3.5 -0.1 -0.5 0.9 -1.3 1.4 -1.8 1.1 -0.6 -0.4 -0.5 -1.4 0.2 -2.5 1 -1.6 0.8 -2.3 -1.1 -4.4 -1.3 -1.3 -3.5 -2.9 -4.9 -3.4 -3.4 -1.3 -17.1 -3.7 -17.6 -3.1 -0.2 0.2 -0.6 4.4 -0.7 9.2 l-0.4 8.8 2.5 -0.7 c6.2 -1.7 9.7 -1 9.9 2.1 0 0.6 1.6 1.3 3.6 1.6 2.9 0.5 3.9 0.2 5.1 -1.5 0.8 -1.3 1 -2.2 0.4 -2.4 -2.3 -0.8 -0.7 -2.2 2.5 -2.2 1.9 0 3.5 0.5 3.5 1 0 0.6 -0.7 1 -1.5 1 -0.8 0 -1.5 0.5 -1.5 1 0 0.6 0.7 1 1.5 1 1.1 0 1.5 1.1 1.5 4 0 4.6 -2.6 6.8 -6 5 -1.9 -1 -2 -0.8 -2 3.9 0 5.9 -2.4 8.4 -7.2 7.4 -2 -0.4 -3.5 0 -4.9 1.3 -2 1.8 -2.2 1.8 -5.1 0.1 l-3.1 -1.8 0.7 5 c0.4 2.7 0.2 7.1 -0.4 9.7 -0.9 4 -0.8 5.3 0.6 7.9 1.6 3 1.6 3.2 -0.9 5.9 -1.4 1.5 -3.1 2.5 -3.6 2.1 -0.8 -0.4 -0.8 0.2 -0.1 2 2.4 6.2 0.7 11.5 -4 13 -1.3 0.4 -2 1.5 -2 3 0 1.8 0.7 2.5 3 3 1.7 0.4 3.6 1.5 4.2 2.4 1 1.7 1.5 1.7 5.7 0.4 2.8 -0.9 6.4 -1.2 9.1 -0.8 6.2 0.8 16 4.2 19 6.4 2.1 1.7 2.3 2.2 1.2 4.5 -2 4.5 -9.8 6.2 -21.2 4.5z m18.1 -3.9 c2.4 -2 2.4 -2 0.5 -3.5 -6.6 -5 -23.3 -7.3 -29.6 -4 -8.2 4.2 1.7 9.2 18.6 9.4 6.8 0.1 8.6 -0.2 10.5 -1.9z m-48.6 -2 c0.8 -1.3 -3.1 -5 -5.5 -5 -2.5 0 -2.7 3.5 -0.2 4.9 2.2 1.3 4.9 1.4 5.7 0.1z m-4.5 -10.7 c0 -0.7 -0.4 -1.3 -0.9 -1.3 -1 0 -2.1 3.6 -1.3 4.5 0.7 0.7 2.2 -1.5 2.2 -3.2z m19 2.8 c0 -1.2 -2.6 -2.1 -6.1 -2.1 -2.9 0 -3.9 1.4 -1.6 2.3 2.1 0.9 7.7 0.7 7.7 -0.2z m-7 -6.5 c0 -1.4 -0.4 -2.8 -1 -3.1 -0.6 -0.4 -1 0.7 -1 2.4 0 1.7 0.5 3.1 1 3.1 0.6 0 1 -1.1 1 -2.4z m-7.8 -0.7 c1.9 -1 2 -1.7 1.4 -8.6 -0.7 -7.9 0.7 -9.6 1.9 -2.4 0.7 4.3 1.7 5.5 5.4 6.4 3.8 0.9 6.1 -0.9 6.1 -4.8 0 -4.4 -0.9 -6.5 -2.4 -5.9 -0.7 0.3 -2.4 -1.1 -3.7 -3 -2.1 -3.1 -2.9 -3.6 -6.6 -3.6 -2.3 0 -4.9 -0.3 -5.9 -0.7 -1.5 -0.6 -1.6 -0.2 -1.1 3.5 0.4 2.3 0.3 4.3 -0.3 4.7 -0.9 0.6 -1.6 -1.4 -2.3 -7 -0.2 -1.6 -0.5 0 -0.6 3.7 0 3.7 -0.5 6.9 -1 7.2 -1 0.7 -2.1 -5.1 -2.1 -11.6 0 -2.6 -0.4 -4.9 -0.9 -5.3 -0.6 -0.3 -0.8 2.6 -0.5 7.2 0.8 13.9 1.5 18.3 3 19.8 1.8 1.8 6.7 2 9.6 0.4z m15.4 -20.6 c0.5 0.3 1.8 -0.1 2.9 -0.9 1.9 -1.5 1.8 -1.6 -2.7 -5.7 -2.5 -2.3 -5.4 -5.7 -6.4 -7.4 -1.8 -3.2 -4.7 -4.3 -5.9 -2.3 -0.4 0.6 0.7 3.2 2.4 5.9 1.7 2.6 3.1 5.5 3.1 6.5 0 0.9 0.7 2.8 1.6 4.2 1.5 2.2 1.8 2.3 2.9 0.8 0.6 -1 1.6 -1.5 2.1 -1.1z m-8.6 -3.9 c0 -2.1 -6.4 -11.4 -7.9 -11.4 -2.2 0 -4.1 -1.9 -4.1 -4.2 0 -2.5 1.6 -2.3 2.3 0.3 0.5 1.8 1 2 3.4 1.3 1.5 -0.4 4.4 -0.8 6.3 -0.8 2.7 -0.1 3.5 0.3 3.8 1.9 0.2 1.1 1.5 3.5 2.9 5.4 2 2.5 2.8 3 3.4 2 1.2 -2 1.1 -17.9 -0.1 -17.9 -0.5 0 -1 0.4 -1 0.9 0 1.6 -4 -0.1 -7.1 -3 -1.7 -1.6 -3.5 -2.9 -4 -2.9 -0.5 0 -4.8 3.7 -9.4 8.1 -5.7 5.5 -8.5 8.9 -8.5 10.4 0 3 3.6 7.4 7.4 9.1 3.1 1.3 12.6 1.9 12.6 0.8z m25.1 -25.5 c2.1 0.5 4.1 0.6 4.7 0.2 0.5 -0.3 1.1 -3.6 1.4 -7.3 0.4 -6.6 0.3 -6.8 -2 -6.8 -1.3 0 -3.5 0.9 -4.9 2 -3.4 2.7 -5.6 2.5 -9 -0.6 -1.9 -1.7 -3.3 -2.3 -4.8 -1.9 -1.1 0.4 -3.2 0.9 -4.6 1.2 -3.4 0.6 -6.4 6.5 -4.9 9.4 1.9 3.4 5.8 5.3 8.4 4.1 1.9 -0.8 3.1 -0.7 5.7 0.8 3.3 1.8 3.4 1.8 4.9 -0.1 1.2 -1.5 2.1 -1.7 5.1 -1z m13.9 -13.5 c0 -2.7 -0.3 -2.8 -3.1 -1.4 -2.1 1.2 -2.5 3.6 -0.6 4.3 2.2 0.7 3.7 -0.4 3.7 -2.9z m-16.6 0.3 c1.5 -1.1 1.7 -1.7 0.7 -3.5 -1.3 -2.5 -2.3 -2.7 -5.2 -1.2 -2.4 1.3 -2.5 3.6 -0.1 4.9 2.2 1.4 2.5 1.3 4.6 -0.2z m-14.4 -2.2 c0 -0.2 -1.8 -1.4 -4 -2.5 -2.9 -1.5 -4 -1.7 -4 -0.7 0 2.1 2.2 3.7 5.2 3.7 1.5 0 2.8 -0.2 2.8 -0.5z m3.8 -14.3 c-0.3 -10 0.5 -10.5 14.2 -7.6 7.6 1.5 8.5 2.1 15.3 8.3 l3.7 3.5 -1.5 -4.6 c-2 -5.6 -7.3 -12 -11.9 -14.2 -4.2 -2 -14.4 -2.1 -19.1 -0.2 -4.9 2.1 -10.1 8.1 -11.4 13.2 -1.3 5.2 -1.4 8.7 -0.2 8 0.5 -0.3 2.9 0.2 5.3 1.3 3 1.3 4.5 1.5 5.1 0.7 0.4 -0.6 0.6 -4.4 0.5 -8.4z"/>
  <path d="M394.5 172 c-1.1 -0.5 -5.5 -0.9 -9.7 -0.9 -4.5 -0.1 -7.8 -0.5 -7.8 -1.1 0 -0.6 3 -1 7.1 -1 7.3 0 14.9 1.6 14.9 3.2 0 1 -1.9 0.9 -4.5 -0.2z"/>
  <path d="M376 84.2 c0 -2.1 9.3 -3.2 10.5 -1.2 0.4 0.6 -0.7 1 -2.7 1 -1.8 0 -4.3 0.3 -5.5 0.6 -1.3 0.4 -2.3 0.2 -2.3 -0.4z"/>
 </g>
 <g fill="#ffffff">
 </g>
</svg>