<?xml version="1.0" encoding="utf-8"?>
<!DOCTYPE svg PUBLIC "-//W3C//DTD SVG 1.0//EN" "http://www.w3.org/TR/2001/REC-SVG-20010904/DTD/svg10.dtd">
<svg version="1.0" xmlns="http://www.w3.org/2000/svg" width="505px" height="314px" viewBox="0 0 505 314" preserveAspectRatio="xMidYMid meet">
 <g fill="#1c1c24">
  <path d="M155 268.4 c-12.8 -1.8 -25.3 -6.7 -26.5 -10.4 -3.8 -11.9 38.3 -18.3 64.4 -9.7 8.3 2.7 14.8 8.5 13.1 11.6 -2.6 5 -14.3 7.9 -34 8.5 -7.4 0.2 -15.1 0.2 -17 0z m25.5 -2.4 c11 -1.1 20.1 -3.4 22.7 -5.7 2.4 -2.2 1 -4.3 -4.9 -7.5 -14.4 -7.8 -51.8 -8.3 -64.1 -0.8 -6.9 4.2 -4.8 7.6 6.8 11.1 11.8 3.6 23.6 4.4 39.5 2.9z"/>
  <path d="M147 256.2 c0 -1.8 11.1 -3.6 21.6 -3.5 9.4 0.1 21 1.6 22.2 2.8 1.4 1.3 -1.2 1.5 -7.2 0.4 -6.7 -1.1 -28.5 -0.7 -33.8 0.6 -1.7 0.5 -2.8 0.3 -2.8 -0.3z"/>
  <path d="M96.4 211.6 c-1.8 -0.8 -3.5 -2 -3.9 -2.7 -1.2 -1.9 3.9 -5.8 8.6 -6.5 3.2 -0.5 3.9 -1.1 3.9 -2.9 0 -1.6 -0.8 -2.5 -2.5 -2.9 -4.1 -1 -5.8 -5.8 -5.2 -14.6 0.3 -4.1 1.3 -9.6 2.2 -12.2 1.6 -4.6 1.6 -4.8 -0.4 -7.4 -3.9 -5 -2.8 -10.2 3.9 -18 1.7 -1.9 3 -5 3.4 -7.8 0.4 -2.5 1.4 -5.2 2.2 -6 2.5 -2.5 -0.4 -3 -6.2 -1 -6.1 2.1 -9 1.3 -8.8 -2.5 0 -1.7 -0.5 -2.1 -3.1 -2.1 -6.5 0 -11.1 -6.1 -12.2 -16 -0.5 -5.5 -0.8 -6 -3 -6 -3.6 0 -6 -1.6 -7.1 -4.9 -1.4 -3.9 1.2 -9 5.6 -11.2 1.8 -1 2.9 -1.9 2.3 -2 -0.9 -0.4 0.1 -15.3 1.4 -20.8 0.5 -2 0.3 -2.2 -1.2 -1.6 -3.9 1.7 -8.3 1.8 -8.9 0.1 -1.3 -3.4 1 -7.3 8.4 -14.4 9.7 -9.3 13.7 -11.4 22.8 -12 18.7 -1.2 39.1 10.2 47 26.4 2.6 5.4 2.9 6.7 2.7 15.1 -0.2 10.4 -1.3 13.3 -4.7 13.3 -2.2 0 -2.5 0.6 -3.6 7.3 -0.6 3.9 -1.3 8.2 -1.6 9.5 -0.5 2.3 -3.3 5.7 -5.3 6.3 -0.7 0.3 -0.9 1.6 -0.5 3.6 0.5 2.5 1.2 3.2 3.7 3.7 4.2 0.9 12.2 9.3 13.8 14.6 1 3.2 1 4.9 0.2 7.1 -0.9 2.4 -0.8 3.8 0.4 6.6 1 2.5 1.2 4.7 0.7 7.2 -0.4 2 -0.7 4.8 -0.5 6.4 0.6 6.1 -1.9 13.4 -5.7 17.1 -3.3 3.3 -3.4 3.6 -1.4 3.6 1.2 0 2.2 0.5 2.2 1 0 1.6 5 3.2 9.7 3.1 4.1 0 4.3 0.1 5.3 4 2 7.3 -1.8 18.9 -6.2 18.9 -2.4 0 -4.8 -5.4 -4.8 -11 0 -2.2 -0.5 -4 -1 -4 -0.6 0 -2.5 1.4 -4.3 3.1 -3.1 3 -3.4 3.1 -11.4 2.7 -6.5 -0.2 -8.7 -0.7 -11.2 -2.5 -1.6 -1.3 -3.8 -2.3 -4.7 -2.3 -1.7 0 -1.7 0.9 0.1 9.5 0.6 2.6 0.2 3.2 -2.3 4.8 -3.7 2.1 -14.2 2.3 -18.8 0.3z m17.1 -1.6 c2 -0.7 2.6 -1.6 2.3 -3.3 -0.3 -2 -0.9 -2.2 -7 -2.5 -10 -0.4 -17.6 3.3 -11.5 5.8 3 1.2 13 1.2 16.2 0z m44.1 -4.5 c0.7 -1.9 1.4 -6.2 1.4 -9.5 0 -5.8 -0.1 -6.1 -2.2 -5.8 -4.2 0.6 -6.1 8.7 -3.7 15.7 1.4 4 2.7 3.9 4.5 -0.4z m-43.6 -5.5 c0 -1.6 -0.7 -2 -3.5 -2 -2.8 0 -3.5 0.4 -3.5 2 0 1.6 0.7 2 3.5 2 2.8 0 3.5 -0.4 3.5 -2z m27.5 -1 c0.4 -0.6 -1.3 -1 -4.2 -1 -2.7 0 -5.7 -0.6 -6.7 -1.3 -1.5 -1.1 -0.6 -1.3 6 -1.3 5.4 0.1 7.8 -0.3 8.1 -1.2 0.4 -0.9 -0.8 -1.1 -5.1 -0.6 -3.6 0.4 -5.6 0.3 -5.6 -0.3 0 -0.6 2.5 -1.4 5.5 -1.8 5 -0.6 5.5 -0.9 5.5 -3.1 0 -2.2 -0.4 -2.4 -4.4 -2.4 -2.5 0 -4.8 -0.4 -5.1 -1 -0.3 -0.5 -0.1 -1 0.5 -1 0.6 0 3.1 -1.3 5.5 -3 4.5 -3.1 5.8 -5.6 7 -13.8 l0.7 -4.4 -2.3 1.5 c-1.3 0.8 -4 1.8 -5.9 2.2 -1.9 0.4 -4.3 1.7 -5.2 2.8 -1.4 1.8 -2 2 -3.6 1 -1.1 -0.6 -2.9 -0.9 -4.1 -0.6 -1.7 0.4 -2.4 0 -2.8 -1.6 -0.3 -1.1 -1.3 -2.1 -2.2 -2.2 -0.9 0 -5.8 -0.1 -10.9 -0.2 l-9.2 -0.2 -1.7 5 c-2.4 6.8 -2.5 20.8 -0.2 23 1.9 1.9 12.7 3.1 14.7 1.7 1.1 -0.7 1.1 -1.8 0.2 -5.2 -1.1 -4.2 -0.7 -10.5 0.9 -11.4 0.4 -0.3 0.7 2.3 0.7 5.7 0 7.3 2.2 11.9 6.8 14.1 3.5 1.8 16.1 2.2 17.1 0.6z m9.9 -6.6 c0.8 -2 0.8 -1.9 -2.1 -2.8 -2 -0.6 -2.3 -0.4 -2.3 1.8 0 1.9 0.5 2.6 1.9 2.6 1 0 2.2 -0.7 2.5 -1.6z m-16.5 -25.3 c0.6 -1.1 2.6 -2.1 5 -2.5 2.2 -0.3 5.2 -1.7 6.7 -2.9 2.3 -2 2.7 -3.2 2.7 -7.1 0 -6.2 -1 -7.1 -6.2 -5.5 -2.2 0.7 -4.1 1.6 -4.1 2 0 0.4 -1.9 2.1 -4.2 3.9 -3.5 2.6 -4.9 3 -7.8 2.6 -3.4 -0.5 -3.5 -0.4 -3.5 2.7 0 2.3 0.5 3.4 2 3.8 1.1 0.3 1.9 1.2 1.7 2.1 -0.2 1.1 0.4 1.4 2.3 1 1.5 -0.2 2.5 0 2.5 0.7 0 1.8 1.8 1.3 2.9 -0.8z m-13.4 -7.6 l0 -4 4.4 0.3 c3.4 0.2 5.1 -0.3 7.9 -2.4 3.3 -2.6 3.4 -2.8 1.4 -3.5 -3.6 -1.3 -7.3 -9.3 -4.7 -10.1 0.6 -0.2 1.2 0.8 1.3 2.2 0.5 3.6 3.1 6 6.3 6 6 0 10.9 -3.4 10.9 -7.6 0 -5.5 -7.7 -15.8 -12.8 -17.1 -1.6 -0.4 -3.4 0.3 -6 2.4 -4.8 3.9 -10.3 5.6 -15 4.8 -4.6 -0.8 -5.7 0.3 -6.7 6.5 -0.4 2.5 -1.2 5.1 -1.7 5.7 -0.7 0.9 -0.5 1.5 0.6 1.9 2.6 1 1.8 2.5 -0.9 1.8 -3.6 -0.9 -3.1 1.2 0.6 2.5 1.7 0.6 2.8 1.5 2.5 2 -0.4 0.6 -2 0.4 -4.2 -0.5 -2 -0.8 -3.8 -1.3 -4.1 -1 -1.1 1.1 0.9 2.4 5.2 3.5 2.5 0.6 4.3 1.6 4 2.1 -0.3 0.5 -2.5 0.3 -5.3 -0.5 -5.6 -1.8 -6.2 -1.8 -6.2 -0.5 0 1.5 5.1 3.7 10.3 4.5 2.6 0.4 4.7 1.1 4.7 1.6 0 1.3 -2.7 1.1 -9 -0.5 -3 -0.8 -5.7 -1.2 -6 -0.9 -0.3 0.2 0.8 1.6 2.3 2.9 2.7 2.3 3.6 2.5 11.5 2.2 l8.7 -0.3 0 -4z m-13.7 -34.5 c2.8 -1.5 5.4 -2.4 5.7 -2 0.3 0.5 -0.4 1.4 -1.6 2 -3.3 1.8 -0.8 3.4 5.4 3.4 4.4 0.1 6.2 -0.5 9.6 -2.9 4.2 -2.9 4.3 -3 3.7 -7.5 -0.6 -4.3 -0.4 -4.8 1.9 -5.8 2.7 -1.2 4.5 -4.8 4.5 -8.7 0 -2.1 -0.4 -2.4 -4.2 -2.3 -3.3 0 -4.7 -0.5 -6.4 -2.6 -2.8 -3.2 -3.1 -3.2 -5.5 -0.1 -4.1 5.1 -15 3.8 -16.5 -2 -0.6 -2.4 -1 -2.5 -7.5 -2.5 -5.3 0 -7.2 0.4 -8.4 1.8 -3.5 4 -5.3 5.8 -7.1 6.8 -1.7 1 -1.8 1.6 -0.7 7.9 2 11.6 8.4 15.4 17.7 10.4 3.7 -1.9 6.9 -1.8 3.3 0.2 -3.8 2.2 -7 5.6 -6.3 6.8 1.1 1.7 5.9 0.5 12.4 -2.9z m-23.7 -26.9 c2.1 -2.5 1.6 -7 -0.8 -8.8 -2.5 -1.9 -7.7 -1.5 -10.7 0.8 -3.1 2.5 -3.7 8.2 -0.8 9.9 2.7 1.7 10.4 0.5 12.3 -1.9z m34.5 -0.6 c3.9 -3.9 1.6 -9.5 -3.8 -9.5 -4.9 0 -8.8 2.6 -8.8 6 0 5.8 8 8.1 12.6 3.5z m19.6 -1.9 c0.4 -1.7 0.6 -3.1 0.5 -3.3 -0.4 -0.3 -10.8 2.5 -11.4 3.1 -0.3 0.3 0 1.3 0.7 2.1 0.9 1.1 2.6 1.5 5.3 1.3 3.6 -0.3 4.2 -0.7 4.9 -3.2z m-1.9 -5.2 c4.2 -1.1 6.7 -2.3 6.7 -3.2 0 -1 -0.7 -1.2 -2.6 -0.8 -1.4 0.4 -6 1.4 -10.2 2.2 -4.2 0.9 -7.8 1.7 -8 1.9 -0.1 0.1 0 0.9 0.3 1.7 0.7 1.7 1.2 1.6 13.8 -1.8z m-30.6 -1 c1.2 -1.3 2.7 -2.4 3.4 -2.4 0.6 0 -0.3 -1.3 -2 -2.9 -3.5 -3.3 -3.8 -4.3 -1.5 -6.6 2.9 -2.9 9 0 12.9 6.1 1.8 2.8 3.5 4.4 4.8 4.4 1.8 0 1.9 -0.5 1.3 -9.7 -0.6 -8.3 -0.4 -10.3 1.1 -13.3 l1.8 -3.5 -3.4 -2.8 c-5.1 -4.1 -9.4 -5 -22.2 -4.5 -8.9 0.3 -12.4 0.9 -16.1 2.5 -5.2 2.4 -6 4.2 -7.3 16 l-0.7 6.3 3.6 -1.5 c2.7 -1.2 4.2 -1.3 5.6 -0.5 3.9 2.1 1.1 6.4 -5 7.6 l-3.3 0.7 3.4 1.1 c1.9 0.6 3.9 2.2 4.6 3.6 1.1 2.4 1.5 2.5 8.9 2.2 6.8 -0.3 8.1 -0.7 10.1 -2.8z m40.3 -20.3 c-2.1 -8.3 -9.5 -17.6 -18.8 -23.5 -9.7 -6 -24.5 -8.9 -34 -6.6 -10.1 2.4 -30.2 23 -22.4 23 0.9 0 3.3 -0.9 5.2 -2 10.5 -6 13.5 -7.1 21.4 -8.2 10.9 -1.4 20.3 0 25.9 3.9 2.2 1.5 5 3.5 6.3 4.4 l2.4 1.5 -2.8 2.1 c-2.7 2 -2.7 2.2 -2.5 12.3 0.1 5.6 0.4 10.4 0.7 10.7 0.2 0.3 3.8 -0.3 8 -1.2 7.8 -1.7 9.5 -1.5 9.7 1.3 0.1 0.9 0.6 -1.7 1.1 -5.8 0.5 -5 0.5 -9 -0.2 -11.9z m-31.5 12.9 c-2.8 -2.9 -8.5 -4.3 -8.5 -2 0 1.6 6.2 5 8.9 5 l2.5 0 -2.9 -3z m-29.4 -1 l2.4 -1.9 -3 0 c-1.6 -0.1 -4.1 0.8 -5.5 1.9 l-2.5 2 3.1 0 c1.8 0 4.2 -0.9 5.5 -2z"/>
  <path d="M140.5 73 c-0.4 -2.7 -1.5 -6.6 -2.6 -8.6 -2.1 -4.1 -1.6 -6.1 0.7 -2.9 1.7 2.4 4.4 10.9 4.4 14.2 0 4.3 -1.8 2.4 -2.5 -2.7z"/>
 </g>
 <g fill="#ffffff">
 </g>
</svg>