<?xml version="1.0" encoding="utf-8"?>
<!DOCTYPE svg PUBLIC "-//W3C//DTD SVG 1.0//EN" "http://www.w3.org/TR/2001/REC-SVG-20010904/DTD/svg10.dtd">
<svg version="1.0" xmlns="http://www.w3.org/2000/svg" width="324px" height="284px" viewBox="0 0 324 284" preserveAspectRatio="xMidYMid meet">
 <g fill="#1c1c24">
  <path d="M47.4 279.2 c-18.6 -6.4 -33.1 -23.4 -40.6 -47.2 -2.1 -6.8 -2.3 -9.2 -2.2 -27 0 -16.5 0.5 -21.8 2.7 -34.3 1.5 -8.2 4.2 -19.5 6.1 -25.2 5.8 -17.1 16.6 -37.3 25.8 -47.9 l3.4 -3.9 -2 -4 c-4.5 -9.1 -1.2 -15.4 7.4 -14.4 2.5 0.3 5.3 0.9 6.3 1.3 1.6 0.6 1.7 0.3 1.1 -2.2 -1.2 -4.5 -1 -10.2 0.4 -11.6 2 -2 10.4 -1.5 14.5 0.9 l3.5 2.1 0.4 -7.5 c0.3 -6 0.7 -7.8 2.3 -8.9 2.7 -2 3.2 -1.9 12.5 3.5 l8.5 4.8 1.3 -4.9 c1.6 -6.3 3.8 -9.7 6.8 -10.4 2.9 -0.7 7.1 1.7 10.4 6.1 l2.5 3.3 11 -0.5 c6.1 -0.3 11.2 -0.7 11.3 -0.9 0.2 -0.1 -0.2 -5.1 -0.8 -11.1 -1.3 -11.9 -0.4 -20.1 2.8 -25.7 3.7 -6.5 16 -9.9 27.4 -7.6 6.7 1.3 30.3 11 40.8 16.8 3.6 1.9 9.2 5.4 12.6 7.7 l6 4.2 13 -0.5 c10.3 -0.4 14.2 -0.1 18.8 1.2 10.3 3 18.1 9.3 23.7 19.2 1.6 2.9 4.7 6.3 6.8 7.7 14.4 9.6 30.1 31.2 30.1 41.5 0 3.5 -3.3 8.9 -6.8 10.9 -1.5 0.9 -4.7 4.2 -7.2 7.5 -7.6 10 -18.1 20.3 -26.1 25.5 -19 12.4 -47.6 21.5 -80.3 25.7 -11.3 1.5 -12.5 2.1 -12.6 6.6 -0.1 1.4 -0.5 5.9 -0.9 10 -0.4 4.1 -0.5 8.4 -0.1 9.5 0.5 1.3 2.8 2.7 6.6 4 6.1 2 13.4 8 13.4 10.8 0 0.8 -1.2 2.5 -2.6 3.6 -2.2 1.8 -4.1 2.1 -11.3 2.1 -7.5 0 -8.8 0.3 -9.9 2 -0.9 1.4 -2.3 2 -5 2 -2.9 0 -3.9 0.5 -4.7 2.2 -1.4 3.2 -6.3 3.9 -17.3 2.8 -15.8 -1.7 -21.3 -5.2 -27.2 -17.4 -2.1 -4.5 -4.8 -11.4 -5.9 -15.5 -1.1 -4.1 -2.2 -7.6 -2.5 -7.8 -0.6 -0.7 -29.5 -2.5 -30.9 -2 -0.8 0.3 -1.1 2.8 -0.9 7.9 l0.3 7.5 3.7 1.7 c10.1 4.7 15.3 10.6 13.1 14.7 -0.9 1.7 -1.8 2 -5.4 1.7 -4.1 -0.3 -4.4 -0.1 -4.7 2.2 -0.3 2.3 -0.7 2.5 -6.1 2.8 -6.8 0.4 -19.6 -2.1 -24.7 -4.6 -5.3 -2.8 -7 -7 -7 -17.9 0 -6.8 -0.3 -9.3 -1.2 -9.3 -2.7 0 -11.7 6.1 -15.6 10.5 -13.2 15 -10.7 44.3 4.7 54.9 6 4.2 14.8 4.9 18 1.5 4.3 -4.7 1 -14.9 -4.9 -14.9 -4.8 0 -6.1 4.7 -3.5 12.8 1 3.1 -1 2.9 -6.6 -0.7 -11.2 -7.1 -10.1 -21.6 2 -26.7 4.9 -2 14.4 -1.8 18.9 0.5 5 2.6 11.1 8.8 13.3 13.6 5.2 11.2 -1.1 27.5 -13 33.7 -6.4 3.4 -15.7 3.8 -23.7 1z m19.7 -1.3 c11.8 -3.6 20.2 -21 15.5 -32.2 -2 -4.6 -8 -10.7 -12.8 -13 -4.3 -2 -12.7 -2.2 -17.1 -0.3 -10 4.2 -11.5 16.3 -2.8 22.5 3.8 2.7 4.1 2.6 3.2 -0.7 -2.8 -9.7 8.7 -15.5 13.9 -6.9 3.7 6 2.1 13.6 -3.3 15.8 -12.4 5.1 -27.2 -6.7 -31.3 -24.7 -2.9 -13.3 0.6 -27.9 9 -37.1 3.5 -3.9 14 -10.3 16.8 -10.3 1 0 1.8 -2 2.6 -6.1 0.6 -3.4 1.4 -6.4 1.7 -6.7 1.3 -1.3 1.3 1 0 9.3 -2 12 -1.9 22.8 0.1 26.6 0.8 1.7 3 3.7 5 4.5 8.7 3.7 27.4 5.8 27.4 3.2 0 -2.1 -1.3 -3.4 -6.4 -6.5 -7 -4.4 -3.9 -5 3.9 -0.8 6.6 3.5 11.8 4.5 13 2.5 1.1 -1.8 -2.4 -6 -7.1 -8.8 -9.5 -5.7 -10.9 -6.8 -10.7 -8.8 0.5 -3.4 -1.7 -27.8 -2.7 -31.6 -1.4 -4.8 -5.5 -9.7 -9.7 -11.4 -12.9 -5.4 -33.8 5.5 -35.9 18.9 -0.8 4.3 -2.4 5 -2.4 1 0 -4 5.2 -12.4 9.6 -15.8 8.2 -6.3 21.5 -9.3 28.7 -6.6 7.7 3 12.2 10.7 13.3 23.2 l0.7 6.6 13.1 0.7 c7.2 0.4 14.6 0.9 16.4 1.3 l3.2 0.5 0 -5.1 c0 -13.3 7.4 -23.5 24.7 -34.4 7.6 -4.8 5.4 -1.2 -2.4 3.9 -19.9 12.9 -24.4 26.4 -16.6 49.6 4.8 14.6 8.1 19.5 15.8 23.3 5.5 2.8 6.7 3 17.5 3 10.5 0 11.5 -0.2 11.5 -1.9 0 -1.1 -1.5 -2.6 -4 -4 -2.2 -1.1 -4.2 -2.2 -4.4 -2.3 -0.2 -0.2 -0.2 -0.6 0.2 -0.9 0.3 -0.4 3.5 0.6 7 2.1 6.4 2.7 10.7 3 11.4 0.8 0.6 -1.6 -7 -5.8 -14.2 -7.8 -8.8 -2.6 -13.2 -5.1 -16 -9.3 -6.2 -9.4 -7.4 -20.2 -3.2 -27.5 3.6 -6 16.7 -17.8 16.7 -14.9 0 0.4 -2.5 3 -5.6 5.6 -3.1 2.7 -6.9 6.7 -8.5 8.9 -3 4.1 -3.9 8.7 -1.6 8.7 3.4 -0.1 16.7 -3.4 29.2 -7.4 9.6 -3.1 18 -5 26.9 -6.1 31.3 -4.1 61.9 -14.8 79.3 -27.9 5.9 -4.5 19.9 -19.3 22.3 -23.7 0.8 -1.4 0.2 -1.5 -4.8 -0.8 -3.1 0.4 -13.8 1.2 -23.7 1.9 -31.9 2 -63.6 5.6 -71.4 8.3 -3.9 1.3 -7.1 2 -7.1 1.5 0 -1.3 7.7 -4.5 14 -5.7 7.8 -1.5 41.5 -4.8 67.5 -6.6 28.5 -2 32.1 -2.9 36.1 -9 5 -7.7 -7.3 -28.7 -25.1 -42.7 -3.2 -2.5 -3.9 -2 -2.5 1.7 0.6 1.7 0.7 3.2 0.2 3.7 -0.6 0.6 -1.6 -1.2 -2.7 -4.4 -4.1 -12.6 -12.5 -23.1 -22.3 -27.6 -4.5 -2 -7.6 -2.6 -15.8 -3 -18.7 -0.8 -36.2 4.8 -47.1 15.1 -3.2 3 -5.3 4.4 -5.3 3.5 0 -3.6 12.7 -12.8 22.5 -16.3 2.8 -1 5.4 -2.2 5.9 -2.6 2 -1.7 -26 -17 -44.4 -24.2 -18.6 -7.3 -35.2 -4.8 -38.8 5.8 -1.8 5.3 -1.7 19.8 0.2 31.5 2 12.1 7.6 34.9 11.5 46.5 2.9 8.4 3.2 11.1 1.2 8.9 -1.9 -2 -9.9 -30 -13.1 -45.6 l-1.1 -5.8 -6.7 0 c-22.7 0 -50.3 9.4 -71.1 24 -25.7 18.1 -45.4 49.9 -52.9 85.1 -6.1 28.2 -6.7 55.4 -1.7 70.9 4.4 13.7 9 21.9 17.2 30.3 11.9 12.4 28.2 18.2 40.4 14.6z m135.6 -60.5 c6.1 -1.6 1.4 -8 -8.8 -12 -5.1 -2 -7.4 -3.5 -8 -5.2 -0.8 -2.1 0.4 -19.5 1.6 -23 0.6 -1.6 0.9 -1.6 -12.4 2.8 l-10.4 3.5 0.7 10 c1 15.8 1 15.9 9.7 18.9 2.5 0.9 5.5 2.5 6.5 3.6 1.6 1.5 3.4 1.9 10.4 1.9 4.7 0.1 9.5 -0.2 10.7 -0.5z m-38.1 -10.6 c-0.4 -1.3 -0.9 -7 -1.3 -12.6 l-0.6 -10.4 -3.1 0.6 c-1.7 0.4 -4.8 0.9 -7 1.3 l-3.8 0.6 0.6 3.9 c0.8 4.7 4.6 12.6 7.3 15 1.8 1.6 5.8 3.6 7.7 3.7 0.4 0.1 0.5 -0.9 0.2 -2.1z m-108.6 -127.1 c-1.1 -0.9 -7.5 -2.7 -9.6 -2.7 -1.3 0 -3.3 0.9 -4.4 2 -2.2 2.2 -2 5 0.6 10.1 l1.3 2.6 6.3 -5.8 c3.4 -3.2 6 -6 5.8 -6.2z m16.4 -10.4 c1.8 -1 1.6 -1.3 -2 -3.1 -4.9 -2.5 -10.4 -3.5 -12.3 -2.3 -1.6 1.1 -1.7 7.4 -0.1 11.5 l1 2.7 5.7 -3.9 c3.2 -2.1 6.7 -4.3 7.7 -4.9z m15.2 -15 c-3.9 -2.4 -7.6 -4.3 -8.3 -4.3 -2.1 0 -3.3 3.7 -3.3 10.3 l0 6.5 9.3 -4.2 9.4 -4.1 -7.1 -4.2z m23.5 -0.5 l5.7 -1.2 -2.2 -2.9 c-4.8 -6.5 -10.3 -6.8 -12.5 -0.6 -1.8 5.3 -1.5 7.2 1.2 6.5 1.2 -0.3 4.7 -1.1 7.8 -1.8z"/>
  <path d="M234 106.4 c-13.7 -5 -22.4 -17.1 -22.3 -31.4 0 -11.2 7.9 -22.2 20.1 -27.8 4.8 -2.2 7.1 -2.6 14.7 -2.7 6.8 0 9.9 0.4 12.7 1.9 11.2 5.5 19.4 18.1 19.2 29.2 -0.3 11.7 -9 24.8 -19.6 29.4 -6.9 3 -18.7 3.6 -24.8 1.4z m24.5 -3.5 c6.1 -2.9 13.9 -11.6 16 -17.9 3.9 -11.6 1.4 -21.2 -8 -30.6 -9.2 -9.2 -21.5 -10.9 -34.7 -4.7 -12.1 5.8 -17.7 13.9 -17.8 25.8 0 14.2 9.7 26.7 23 29.6 5.6 1.2 16.6 0.1 21.5 -2.2z"/>
  <path d="M299.4 98.2 c-1.3 -0.8 -3.4 -4.6 -3.4 -6.1 0 -2.1 2.5 -1 4.7 2.1 2.7 3.8 1.9 6.2 -1.3 4z"/>
 </g>
 <g fill="#ffffff">
 </g>
</svg>