<?xml version="1.0" encoding="utf-8"?>
<!DOCTYPE svg PUBLIC "-//W3C//DTD SVG 1.0//EN" "http://www.w3.org/TR/2001/REC-SVG-20010904/DTD/svg10.dtd">
<svg version="1.0" xmlns="http://www.w3.org/2000/svg" width="185px" height="242px" viewBox="0 0 185 242" preserveAspectRatio="xMidYMid meet">
 <g fill="#1c1c24">
  <path d="M28.9 236.7 c-11 -3.8 -15.3 -7.8 -18.4 -17.5 -2.4 -7.4 -1.6 -29.5 1.4 -40.2 5 -17.4 16 -33.3 28.3 -41.1 2.9 -1.8 5.5 -3.4 5.7 -3.5 0.1 -0.2 -1.1 -2 -2.7 -4.1 -4.3 -5.4 -5.6 -11.6 -4.8 -22.6 0.4 -5.1 0.7 -9.6 0.8 -10.2 0 -0.5 -0.6 -3.6 -1.3 -6.9 -1.1 -5.1 -1 -6.2 0.4 -9 0.9 -1.8 2 -7.7 2.6 -14.1 1.2 -12.7 3.8 -22 8.1 -28.9 4.3 -6.7 13.1 -14.8 20.4 -18.7 6.1 -3.3 6.1 -3.3 3.4 -4.3 -4.1 -1.4 -3.4 -3.2 1.4 -4 3.1 -0.5 3.8 -1 3 -1.8 -2.2 -2.2 -1.2 -3.1 2.6 -2.5 2 0.3 4.5 0.8 5.5 1.2 1.3 0.6 1.6 0.4 1.1 -1 -1.5 -3.7 4.6 -4 15.1 -0.8 5.4 1.7 8.7 3.5 12.3 6.7 2.2 1.9 3.2 1 1.1 -1.1 -0.6 -0.6 -0.8 -1.7 -0.4 -2.3 1 -1.6 6.8 4.1 10.3 9.9 1.5 2.5 3.8 4.9 5.6 5.6 4.2 1.8 7.1 5.1 9.2 10.5 1 2.5 2.8 6.1 4 8.1 5.8 9.3 6.3 15.5 2.3 29.1 -1.1 3.7 -2.2 9.7 -2.6 13.2 -0.5 5.4 -0.3 6.8 1.2 8.2 2.4 2.5 1.4 8.6 -2.3 13.8 -1.6 2.2 -3.7 5.9 -4.6 8.1 -2.2 5.2 -4.4 7.5 -7.1 7.5 -1.3 0 -2.5 0.6 -2.8 1.3 -0.3 0.9 1.4 1.9 5.4 3.1 4.7 1.4 7.4 3.1 12.4 7.7 3.5 3.3 7.9 8.4 9.8 11.2 5.7 8.7 28.2 63 27 65.1 -0.8 1.2 -1.4 0 -8.1 -17.4 -3.3 -8.6 -7.8 -19.5 -9.9 -24.3 l-4 -8.7 -1.8 3.8 c-1.1 2 -1.9 4.4 -1.8 5.2 0.2 0.8 1 7.2 1.8 14.2 0.9 7 3 17.3 4.6 23 3.3 11.2 4.9 26 3 27.2 -0.8 0.5 -1.1 -1 -1.1 -5.2 0 -3.5 -1.6 -12 -3.9 -21.3 -2.1 -8.5 -4.4 -20.2 -5 -26.1 -0.7 -5.8 -2.3 -14.4 -3.7 -19 -3.5 -11.6 -3.9 -13.2 -2.6 -12.4 0.6 0.3 2 3.7 3.3 7.4 2.5 7.8 2.7 8.1 3.9 6.2 1.9 -2.9 1.1 -9.4 -1.8 -14.2 -5.3 -9 -16.1 -19.1 -21.7 -20.2 -2.9 -0.6 -3.1 -0.5 -4.3 3.9 -2.7 10 -10 16.8 -22 20.5 -8.2 2.5 -24.8 2.8 -31.9 0.4 -7 -2.3 -25.3 -11.3 -25.3 -12.4 0 -1.5 0 -1.5 11.3 4.3 11.7 6 18.3 7.7 30.1 7.7 9.2 0 15.8 -1.5 23.1 -5.3 6.2 -3.1 8.8 -5.8 11.4 -12 3.8 -8.8 2.2 -12.6 -1.8 -4.4 -4.7 9.3 -12 12.6 -32.6 14.6 -11.7 1.1 -14.2 0.4 -41.7 -11.2 -2.4 -1 -3.3 -0.7 -8.3 2.7 -19.4 12.9 -30.5 36.5 -30.5 65.2 0 20.6 7.2 29.3 26.6 32.1 9 1.2 23.1 -5.7 34.9 -17 5.3 -5.1 6.2 -6.4 3.9 -5.3 -5.2 2.5 -4.8 0.5 0.6 -3.1 2.8 -1.8 5 -3.5 5 -3.6 0 -0.1 -3.1 -0.2 -6.9 -0.2 -6.4 0 -7.3 -0.3 -12.8 -4 -4.9 -3.4 -6.4 -5.2 -9.5 -11.5 l-3.7 -7.4 -1.6 3.7 c-0.8 2 -1.5 5.8 -1.5 8.4 0 3.4 -0.3 4.4 -1.1 3.6 -0.6 -0.6 -1 -3.3 -0.8 -6.2 l0.4 -5.2 -3 0.6 c-9.2 1.9 -22.7 11.3 -24.1 17 -0.3 1.4 -1 2.5 -1.5 2.5 -2.6 0 0.6 -6.2 5.8 -11.2 4.5 -4.3 12 -8.2 19.2 -10.1 5.2 -1.3 9.1 -4.4 9.1 -7.1 0 -0.9 0.5 -3.5 1.2 -5.9 1 -4 0.9 -4.7 -1.1 -7.6 -1.2 -1.7 -2.1 -3.7 -1.9 -4.3 0.3 -0.7 1.6 0.4 2.9 2.4 l2.5 3.7 2.7 -3.5 c3 -3.7 8.2 -6.7 13.4 -7.9 2.9 -0.6 3.4 -0.3 4.4 1.9 0.9 1.9 2 2.6 3.9 2.6 3.3 0 5.3 2.1 5.3 5.5 0 2.1 0.4 2.5 2.7 2.5 3.6 0 5.3 2.2 4.8 5.9 -0.4 2.4 0 3.1 1.6 3.3 1.1 0.2 2.7 1.5 3.6 3 1.3 2.4 1.3 3.1 0.1 5 -1 1.6 -1 2.3 -0.2 2.6 2.4 0.8 1.2 6.1 -2.1 9.1 -10.7 9.7 -12.9 12.1 -12.3 13.1 1 1.6 -13.9 15.8 -20.9 19.9 -12.4 7.4 -20.6 8.6 -31.7 4.8z m55.7 -33.7 c3.3 -1.7 6.9 -4.2 8.2 -5.6 2.7 -3.1 3 -6.6 0.5 -6.3 -3.5 0.3 -3.6 -0.1 -0.8 -3.1 3.7 -3.8 2.6 -6.6 -2.5 -6.3 -2.8 0.1 -3.1 -0.1 -2.5 -2 0.4 -1.2 0.8 -3.3 0.9 -4.7 0.1 -2 -0.4 -2.6 -2.6 -2.8 -1.5 -0.2 -3.6 0.2 -4.8 0.8 -1.5 0.8 -2 0.8 -2 -0.3 0 -0.7 0.5 -1.8 1.1 -2.4 0.6 -0.6 0.9 -2.1 0.7 -3.4 -0.5 -4.1 -5 -3.7 -10 1 -4.3 3.9 -9.8 6.3 -9.8 4.3 0 -0.5 1.1 -1.3 2.4 -1.6 2.8 -0.7 9.9 -8.3 9.1 -9.6 -1.7 -2.8 -9.1 -0.2 -13.6 4.7 -4.6 4.9 -6.3 9.3 -6.4 16.3 0 5.3 0.5 7.3 2.8 11.2 4.4 7.5 12.6 12.6 20.3 12.8 1.8 0 5.8 -1.4 9 -3z m22.4 -59.5 c11.8 -2.9 14.5 -6.4 21.6 -28 2.3 -7.1 4.8 -14.8 5.6 -17 1 -3.1 1.2 -8.6 0.8 -23.5 l-0.5 -19.5 -2 10 c-1.1 5.5 -2.4 10 -3 10 -0.5 0 -1.3 -4 -1.7 -8.8 -0.3 -4.9 -0.9 -9.1 -1.1 -9.3 -0.3 -0.3 -0.8 1.7 -1.2 4.3 -0.4 2.6 -1.3 6.3 -2 8.1 -3 7.1 -5.5 2.1 -5.5 -10.9 l0 -8.9 -5.6 5.4 c-8.5 8.4 -12.4 8.9 -8.6 1.1 1.2 -2.5 2.2 -4.8 2.2 -5.1 0 -0.4 -3 2.2 -6.6 5.6 -13.7 12.8 -18.9 13.3 -9.8 1 4.2 -5.7 4.3 -6.7 0.4 -3.4 -3.2 2.7 -19.4 12.4 -20.7 12.4 -3 0 -0.8 -3.2 8.2 -11.8 5.2 -5.1 9.5 -9.4 9.5 -9.7 0 -1.7 -12.5 6.4 -19.4 12.5 -6.9 6.2 -10.6 8.4 -10.6 6.4 0 -1.1 7 -13.8 9 -16.4 3.8 -4.9 3.1 -0.9 -0.9 5.4 -2.2 3.6 -4.1 6.9 -4.1 7.3 0 0.4 1.7 -0.9 3.8 -2.9 9.5 -9.1 23.3 -17.1 25.6 -14.8 0.7 0.7 -1.7 3.8 -8.4 10.6 -8.4 8.5 -9 9.4 -5.2 7.3 2.3 -1.3 8.3 -5.4 13.2 -9.1 5 -3.8 9.2 -6.8 9.5 -6.8 1.5 0 -0.1 3.1 -5.1 9.7 -3.1 4.1 -5.3 7.7 -5 8 0.3 0.3 4.9 -3.8 10.2 -9.1 5.2 -5.3 9.8 -9.6 10 -9.6 1.2 0 0.1 4.6 -2.1 9.2 -1.4 2.8 -2.5 5.4 -2.5 5.6 0 1.2 8.6 -6.7 10.7 -10 4 -6 4.8 -4.6 4.5 7.8 -0.4 14.1 0.9 16.3 3.1 5.3 1 -4.6 2.1 -8.7 2.6 -9.2 1.5 -1.5 3.1 0.2 3.2 3.6 0.1 4 1.6 9.2 1.8 6.2 0.2 -4.1 2.2 -9.5 3.5 -9.5 2.3 0 2.6 2.5 2.7 20.3 0 9.5 0.3 16.6 0.6 16 0.2 -0.7 1.1 -1.3 1.9 -1.3 0.8 0 1.4 -1 1.4 -2.2 0 -1.3 1.2 -6.5 2.6 -11.7 4 -14.7 3.7 -17.7 -3.2 -32 -5.3 -10.9 -6.3 -12.3 -10.2 -14.3 -2.7 -1.5 -5.3 -4.1 -7.2 -7.2 -2.8 -4.4 -3.2 -4.7 -4.4 -3.1 -1.2 1.7 -1.6 1.5 -5.3 -1.8 -5 -4.6 -12.3 -7.7 -19.3 -8.4 l-5.5 -0.5 3.5 2.2 c4.4 2.8 4.3 2.7 3.6 3.9 -0.4 0.6 -2.7 0.3 -6.3 -1 -6.9 -2.4 -7.9 -2.4 -5.7 -0.2 1.7 1.7 1.5 1.8 -3.2 2.3 -4.4 0.5 -4.6 0.7 -2.2 1.4 3.3 1 2.8 2.2 -1.2 3.1 -4.6 1 -17.1 9.7 -21.7 15 -5.7 6.7 -9.2 14.2 -10.8 23.3 -1.6 9.3 -2.5 22.2 -1.5 22.2 0.4 0 1.3 -2.1 2 -4.7 1.8 -7.2 5.9 -19.6 7 -21.3 1.7 -2.7 2 -0.4 0.5 3.3 -2 4.8 -9 31.9 -10.9 42.6 -2 10.5 -2 17.3 -0.1 23.8 2.3 7.7 7.6 11.9 23.2 18.2 l12.8 5.2 11.5 -0.5 c6.3 -0.3 14.4 -1.2 18 -2.1z m26.8 -23.9 c2.1 -2.7 6.6 -16.9 6 -18.8 -0.3 -0.8 -1.4 -0.3 -3.1 1.5 -2.3 2.3 -2.6 2.9 -1.5 4.6 1 1.6 0.8 2.7 -0.7 6.1 -1.1 2.5 -2.3 3.9 -3.2 3.6 -0.7 -0.3 -1.3 -0.2 -1.3 0.2 0 0.4 -0.3 1.7 -0.6 3 -0.9 3 1.9 2.9 4.4 -0.2z m0.2 -10 c0 -1.8 -1.7 0.8 -2.4 3.4 l-0.7 2.5 1.5 -2.5 c0.9 -1.4 1.5 -2.9 1.6 -3.4z m9.7 -9.5 c0.5 -3.3 0.2 -4.2 -1.2 -4.7 -1.8 -0.7 -4.6 0.5 -5.2 2.3 -0.2 0.5 0.7 0.9 1.9 0.9 2 -0.1 2.3 0.4 2.3 3.6 0 4.7 1.5 3.3 2.2 -2.1z m-101.3 -15.3 c0.8 -4.2 -0.6 -5.1 -2.4 -1.7 -0.7 1.2 -0.9 3.7 -0.4 6.2 0.6 3.8 0.8 3.9 1.4 1.7 0.4 -1.4 1 -4.2 1.4 -6.2z"/>
  <path d="M81.5 133.4 c-1.1 -0.8 -3.8 -1.4 -6 -1.4 -5.6 0.2 -6.2 0.1 -4.5 -1 3.4 -2.2 14 0.1 14 3 0 1.4 -1.2 1.2 -3.5 -0.6z"/>
  <path d="M88.5 128.2 c-5.2 -2.3 -7.4 -2.7 -16.7 -2.7 -10.8 0 -13.6 -0.7 -7.7 -1.9 5.4 -1.1 14.2 -0.7 20.3 0.9 6 1.6 11.6 4.3 11.6 5.7 0 1.1 -0.7 0.9 -7.5 -2z"/>
  <path d="M75.4 116.1 c-1.9 -1.1 -3.6 -1.6 -4.4 -1.1 -2.2 1.3 -4 0 -4 -3 0 -2.8 3.4 -6.8 4.4 -5.2 0.3 0.5 -0.1 1.5 -0.9 2.2 -0.8 0.7 -1.5 2.2 -1.5 3.4 0 1.7 0.2 1.8 1 0.6 0.8 -1.3 1.5 -1.2 5 0.8 3.7 2.1 4.4 2.2 7.6 1 2.8 -1 3.9 -1 5.5 0.1 2.8 1.7 3.5 0.7 2.2 -2.9 -1.2 -3.1 -0.6 -3.9 1.5 -1.8 1.7 1.7 1.5 6.5 -0.3 7.2 -0.8 0.3 -2.6 0 -4 -0.6 -1.9 -0.8 -3.1 -0.8 -5 0 -3.3 1.5 -3.4 1.5 -7.1 -0.7z"/>
  <path d="M100.7 107.5 c-7.8 -2.7 -6.3 -3.9 2.1 -1.6 3.5 0.9 6 2 5.6 2.4 -1.1 1 -3.4 0.8 -7.7 -0.8z"/>
  <path d="M97.2 102.5 c-1.8 -0.8 -3.5 -2.2 -3.9 -3.1 -0.9 -2.5 3.4 -5.4 8.2 -5.4 4.4 0 14.5 4.6 15.3 6.9 0.3 1 0 1.2 -1.2 0.8 -1 -0.4 -3 0 -4.6 0.8 -3.6 1.9 -9.5 1.9 -13.8 0z m3.2 -3.2 c-0.4 -1.6 -0.8 -2.9 -1 -3.1 -0.4 -0.6 -4.4 1.8 -4.4 2.8 0 0.6 2.7 2 5.8 2.9 0.1 0.1 -0.1 -1.1 -0.4 -2.6z m11.1 0.7 c0.2 -0.4 -0.6 -1.2 -1.8 -1.7 -1.9 -0.9 -2.2 -0.7 -2.3 1.2 -0.1 1.8 0.3 2.1 1.7 1.8 1.1 -0.3 2.1 -0.9 2.4 -1.3z"/>
  <path d="M56 102.1 c0 -0.9 12.1 -2.2 13 -1.4 0.2 0.2 -0.2 0.8 -1 1.3 -1.9 1.2 -12 1.3 -12 0.1z"/>
  <path d="M59.4 97.6 c-1.7 -0.8 -3.8 -2.4 -4.7 -3.6 -0.9 -1.3 -2.3 -2 -3.4 -1.8 -1.1 0.2 -2.1 -0.1 -2.2 -0.7 -0.3 -1.4 9.6 -3.5 13.3 -2.8 3.6 0.6 9.3 4.2 10.1 6.2 0.3 0.8 0.1 1.9 -0.4 2.4 -1.6 1.6 -9.4 1.8 -12.7 0.3z m10.1 -2.5 c0 -2.3 -2.2 -2.4 -2.8 -0.1 -0.4 1.6 -0.1 2 1.1 1.8 0.9 -0.2 1.7 -1 1.7 -1.7z m-10.8 -3.9 c-2.8 -0.5 -3.2 0.5 -1.1 2.9 l1.9 2.1 0.5 -2.4 c0.5 -1.7 0.2 -2.4 -1.3 -2.6z"/>
  <path d="M115.5 92.7 c-2.3 -1.7 -4 -2.1 -8.5 -1.8 -14.2 0.8 -14.1 0.8 -16.3 -2.2 -1.6 -2.1 -1.8 -3 -0.9 -3.9 0.9 -0.9 1.2 -0.9 1.2 0.3 0 0.9 0.9 2.4 2 3.4 1.8 1.7 2.6 1.7 9 0.6 7.8 -1.4 12.4 -0.5 15.5 2.9 2.6 2.9 1.5 3.2 -2 0.7z"/>
  <path d="M67 85.5 c-4.8 -2.8 -9.9 -3.7 -13.6 -2.5 -4.5 1.5 -5.5 0.6 -1.5 -1.4 4.1 -2.2 6.7 -2 12.9 0.9 6.6 3 9.2 3.2 9.9 0.5 0.6 -2.2 2.3 -2.7 2.3 -0.7 0 2 -3.3 4.7 -5.6 4.7 -1 -0.1 -3 -0.7 -4.4 -1.5z"/>
  <path d="M75.9 42 c-1.7 -1.1 -0.6 -2.4 7.3 -8 4 -2.7 6.6 -5 5.9 -5 -0.7 0 -5.6 1.8 -10.8 4 -10.4 4.3 -12.3 4.7 -12.3 2.6 0 -4 17.8 -15.9 27.3 -18.2 5.1 -1.2 2.8 1.4 -2.6 3 -5.7 1.7 -16 7.9 -19.2 11.6 -1.4 1.6 -1.5 2.2 -0.5 1.8 0.8 -0.4 5.6 -2.2 10.7 -4.2 15.6 -6.1 17.4 -4.5 4.9 4.4 -4.2 3 -7.2 5.6 -6.7 5.8 3.4 1.1 22.9 -5.1 24.6 -7.8 0.7 -1.2 3.5 -1.4 3.5 -0.2 0 1.5 -8.9 6.2 -14.8 7.7 -9 2.3 -15.9 3.3 -17.3 2.5z"/>
 </g>
 <g fill="#ffffff">
 </g>
</svg>