<?xml version="1.0" encoding="utf-8"?>
<!DOCTYPE svg PUBLIC "-//W3C//DTD SVG 1.0//EN" "http://www.w3.org/TR/2001/REC-SVG-20010904/DTD/svg10.dtd">
<svg version="1.0" xmlns="http://www.w3.org/2000/svg" width="1105px" height="236px" viewBox="0 0 1105 236" preserveAspectRatio="xMidYMid meet">
 <g fill="#1c1c24">
  <path d="M405.8 167.5 c-1.7 -1.8 0.8 -2.5 8.5 -2.5 4.5 0 15.5 -0.5 24.5 -1.1 12.2 -0.9 16.6 -0.9 17.5 0 0.7 0.7 0.7 1.4 0.1 2 -1.1 1.2 -49.6 2.7 -50.6 1.6z"/>
  <path d="M325.5 166.3 c-5.8 -0.5 -8.8 -1.3 -8 -2.1 1.2 -1.2 44.5 -0.8 44.5 0.4 0 0.6 -1.4 1.4 -3.1 1.8 -3.2 0.6 -26 0.6 -33.4 -0.1z"/>
  <path d="M503 163.1 c0 -1.7 1.6 -2.1 16.7 -3.6 8.1 -0.9 18.6 -2.2 23.2 -3.1 6.1 -1.1 8.7 -1.2 9.5 -0.4 2.3 2.3 -4.7 3.9 -29.5 6.5 -15.8 1.7 -19.9 1.8 -19.9 0.6z"/>
  <path d="M258 157.5 c-8.1 -1.4 -28.8 -6.1 -31.4 -7.1 -2 -0.8 -1.5 -3 0.5 -2.8 0.8 0.1 7.8 1.6 15.6 3.3 7.9 1.7 19.4 3.7 25.5 4.4 6.2 0.7 11.3 1.7 11.3 2.2 0 1.5 -13 1.5 -21.5 0z"/>
  <path d="M593.5 154 c-1.2 -1.9 0.5 -2.6 12 -4.4 6.1 -1 16.4 -2.6 23 -3.6 11.4 -1.9 14.3 -1.7 12.7 0.5 -0.4 0.6 -10.3 2.6 -22.1 4.4 -11.8 1.9 -22.2 3.6 -23.2 3.8 -0.9 0.3 -2 -0.1 -2.4 -0.7z"/>
  <path d="M195 141.8 c-17.3 -5 -37.6 -12.3 -38.6 -13.9 -1.6 -2.7 1.6 -2.3 10.5 1.2 5.4 2.1 15.4 5.5 22.1 7.4 13.5 3.9 14.3 4.2 13.5 5.6 -0.7 1.1 -2.9 1 -7.5 -0.3z"/>
  <path d="M683.5 141.1 c-0.9 -1.5 0.5 -2 13.4 -4.6 18.5 -3.7 36.1 -5.9 37.3 -4.7 1.7 1.7 -2.3 2.9 -13.2 4.2 -5.2 0.6 -15.1 2.2 -22 3.5 -14.1 2.8 -14.7 2.9 -15.5 1.6z"/>
  <path d="M905.1 134.3 c-21.1 -1.4 -27.3 -2.5 -25.5 -4.3 1.1 -1.1 50.4 1.8 51.8 3 1.3 1.3 -0.3 3 -2.7 2.9 -1.2 -0.1 -11.8 -0.8 -23.6 -1.6z"/>
  <path d="M786.6 132.2 c-1 -1.7 0.6 -2.1 13 -3.1 22.5 -1.8 39.1 -2.3 39.8 -1.2 1.3 2 -3.2 2.8 -19.9 3.4 -9.3 0.4 -20.4 1 -24.6 1.3 -5 0.4 -7.8 0.3 -8.3 -0.4z"/>
  <path d="M123.5 116.7 c-12.1 -5.1 -26.4 -12.7 -27.5 -14.8 -1.6 -2.9 0.4 -3 4.5 -0.2 4.6 3.1 18.6 9.8 27.9 13.2 3.8 1.4 6.9 3.1 7 3.6 0.2 2.1 -4.2 1.4 -11.9 -1.8z"/>
  <path d="M68.9 85.3 c-5.9 -4 -20.3 -15.8 -23.2 -19.1 -2.2 -2.5 -0.4 -4.1 2.1 -1.9 9 7.7 21.4 17.7 24.5 19.6 2 1.2 3.7 2.6 3.7 3.1 0 2.2 -2.1 1.6 -7.1 -1.7z"/>
  <path d="M20.7 41.1 c-6.6 -8.6 -14.7 -28.1 -13.2 -31.9 0.9 -2.3 2 -0.5 4.5 7.3 2.9 9.1 6.3 15.7 11.1 22.2 2.1 2.9 3.9 5.7 3.9 6.3 0 2.4 -2.8 0.7 -6.3 -3.9z"/>
 </g>
 <g fill="#ffffff">
 </g>
</svg>