<?xml version="1.0" encoding="utf-8"?>
<!DOCTYPE svg PUBLIC "-//W3C//DTD SVG 1.0//EN" "http://www.w3.org/TR/2001/REC-SVG-20010904/DTD/svg10.dtd">
<svg version="1.0" xmlns="http://www.w3.org/2000/svg" width="1105px" height="236px" viewBox="0 0 1105 236" preserveAspectRatio="xMidYMid meet">
 <g fill="#1c1c24">
  <path d="M123.5 116.7 c-12.1 -5.1 -26.4 -12.7 -27.5 -14.8 -1.6 -2.9 0.4 -3 4.5 -0.2 4.6 3.1 18.6 9.8 27.9 13.2 3.8 1.4 6.9 3.1 7 3.6 0.2 2.1 -4.2 1.4 -11.9 -1.8z"/>
  <path d="M68.9 85.3 c-5.9 -4 -20.3 -15.8 -23.2 -19.1 -2.2 -2.5 -0.4 -4.1 2.1 -1.9 9 7.7 21.4 17.7 24.5 19.6 2 1.2 3.7 2.6 3.7 3.1 0 2.2 -2.1 1.6 -7.1 -1.7z"/>
  <path d="M20.7 41.1 c-6.6 -8.6 -14.7 -28.1 -13.2 -31.9 0.9 -2.3 2 -0.5 4.5 7.3 2.9 9.1 6.3 15.7 11.1 22.2 2.1 2.9 3.9 5.7 3.9 6.3 0 2.4 -2.8 0.7 -6.3 -3.9z"/>
 </g>
 <g fill="#ffffff">
 </g>
</svg>