<svg width="288" height="109" viewBox="0 0 288 109" fill="none" xmlns="http://www.w3.org/2000/svg">
<path d="M47.992 60.36L47.928 85H41.592L40.632 79.816C37.24 84.04 32.696 86.088 26.936 86.088C20.6 86.088 15.416 83.912 11.448 79.496C7.48 75.144 5.496 69.448 5.496 62.408C5.496 55.368 7.608 49.672 11.768 45.192C15.992 40.712 21.368 38.472 27.896 38.472C33.144 38.472 37.496 39.944 41.08 42.888C44.664 45.832 46.776 49.672 47.352 54.408H37.688C37.24 52.04 36.152 50.184 34.36 48.84C32.632 47.56 30.456 46.856 27.832 46.856C23.992 46.856 21.048 48.264 18.872 51.016C16.696 53.768 15.608 57.544 15.608 62.408C15.608 67.4 16.696 71.24 18.872 73.992C21.048 76.744 24.184 78.088 28.152 78.088C31.224 78.088 33.784 77.192 35.832 75.272C37.816 73.352 38.904 70.856 39.032 67.784H28.856V60.36H47.992Z" fill="#6BD8B0"/>
<path d="M12.6145 55.5105C14.1786 54.9418 15.174 54.1089 15.763 52.8902C16.2302 51.9355 16.3115 51.5698 16.2302 50.3714C16.1287 48.5229 15.3771 47.2635 13.8536 46.3495C11.9645 45.2119 10.1364 45.2526 8.73481 46.4307C7.43479 47.5276 7.19104 49.1932 8.0848 50.737C8.57231 51.5902 8.57231 51.6308 8.16605 51.2855C6.9676 50.2292 5.93165 46.6948 6.19571 44.6026C6.3379 43.4854 7.02854 41.7994 7.7598 40.7634C8.20668 40.1541 10.1567 38.7728 10.6036 38.7728C10.7661 38.7728 10.7864 39.2197 10.6848 40.3572C10.5223 42.165 10.827 43.201 11.6395 43.7088C12.2489 44.1151 14.0974 44.5822 16.3318 44.9073C17.9568 45.1307 18.2006 45.1307 18.749 44.8057C19.074 44.6229 19.5615 44.4604 19.8053 44.4604C20.4553 44.4604 21.349 43.7088 21.349 43.201C21.349 42.551 19.7037 41.0885 18.5053 40.6619C17.4896 40.2963 17.4896 40.2963 17.4896 38.8134C17.4896 37.3306 17.4896 37.3306 20.374 37.4728C21.9787 37.5337 23.3194 37.6353 23.3397 37.6759C23.3803 37.6962 23.7256 38.6712 24.1116 39.8088C24.4975 40.9463 25.1272 42.49 25.5335 43.2416C26.1632 44.4401 26.3866 44.6838 27.3819 45.1713C28.4179 45.6995 28.7429 45.7604 31.3023 45.8416C33.943 45.9229 34.1258 45.9026 34.532 45.4963C34.7555 45.2729 35.1414 45.0698 35.3648 45.0698C35.6086 45.0698 36.0149 44.8463 36.2789 44.5822C36.6852 44.176 36.9899 44.0947 38.7977 44.0135C41.8446 43.8713 42.4134 43.14 40.7884 41.4947C40.1383 40.8447 39.5899 40.54 38.6555 40.2556C37.3758 39.89 37.3758 39.89 37.4774 37.554C37.5789 35.2181 37.5789 35.2181 38.9602 34.8931C39.7118 34.7102 41.6618 34.304 43.2868 33.9993C48.4869 33.0243 53.0979 31.4399 56.0636 29.6117C58.0542 28.3727 60.573 25.9554 61.6293 24.2492C62.1574 23.3757 62.6246 22.8882 63.2543 22.5632C64.2496 22.0351 64.8184 21.2226 64.8184 20.3085C64.8184 18.6428 63.2137 16.0631 60.6339 13.5443C57.9323 10.9443 57.6886 10.6802 56.8354 9.31928C55.8401 7.79582 54.7432 6.90206 53.0979 6.27236C51.6354 5.72392 48.9338 5.52079 47.0853 5.8458C45.765 6.06924 45.765 6.06924 44.0993 4.97235C40.9915 2.88013 37.0711 1.05198 34.2476 0.38166C29.5757 -0.755855 27.0366 0.666039 27.0366 4.4239C27.0366 5.15516 27.4835 7.89739 27.7476 8.7099C27.8491 9.01459 27.6054 9.07553 25.4319 9.15678C22.9944 9.25834 22.9944 9.25834 22.06 8.38489C21.0647 7.43019 20.2115 7.20675 19.7037 7.81613C19.5615 7.97864 19.4193 8.60833 19.3584 9.21772C19.3178 9.84741 19.1553 10.3552 19.0131 10.4162C18.8709 10.4568 17.9162 10.0912 16.9005 9.56303C15.2552 8.73021 15.0115 8.66927 14.5239 8.89271C13.9958 9.13646 13.9958 9.15678 14.0771 10.7209C14.1786 12.3256 14.1786 12.3256 13.3052 11.9599C12.838 11.7568 12.0458 11.5334 11.5583 11.4521C10.827 11.3302 10.6036 11.3912 10.2989 11.7365C9.9942 12.0818 9.93327 12.3662 10.0145 13.3412C10.1364 14.5193 10.1364 14.5193 8.7145 14.4381C7.57698 14.3568 7.23167 14.4178 6.92698 14.7022C6.43947 15.149 6.39884 15.9616 6.82541 16.9772C6.98791 17.3631 7.1301 17.7491 7.1301 17.8303C7.1301 17.8913 6.6426 18.6022 6.05353 19.3944C3.35193 22.9695 1.17846 28.6977 0.305008 34.5681C-0.101242 37.2697 -0.101242 42.9979 0.305008 45.1104C0.934708 48.3401 2.41754 51.123 4.65194 53.2355C6.54103 55.0027 7.98324 55.6933 10.0755 55.7746C11.213 55.8152 11.9645 55.734 12.6145 55.5105ZM10.8067 51.7323C10.8067 51.4683 10.7458 50.9401 10.6848 50.5339C10.5223 49.7011 10.888 49.2542 11.6395 49.3761C12.188 49.4573 12.5333 50.2698 12.3302 51.0417C12.2286 51.4886 11.5989 51.9761 10.8676 52.1792C10.8473 52.1792 10.827 51.9761 10.8067 51.7323ZM31.3429 41.19C30.7945 41.0072 30.6523 40.7838 30.2054 39.4228C29.921 38.5494 29.6773 37.7572 29.6773 37.615C29.6773 37.3509 29.982 37.2493 31.2007 37.0462C32.0132 36.9243 32.0132 36.9243 32.0336 38.6103C32.0539 39.5447 32.1757 40.54 32.2976 40.865C32.5414 41.4947 32.3789 41.5556 31.3429 41.19ZM50.701 14.2959C50.701 13.849 51.3307 13.6256 51.676 13.9709C51.8182 14.1131 51.7979 14.2756 51.6151 14.499C51.2697 14.9256 50.701 14.8037 50.701 14.2959Z" fill="#033332"/>
<path d="M11.5987 54.5964C14.5644 54.0073 16.0066 51.2244 14.6456 48.726C13.63 46.8978 10.7456 46.1056 9.46587 47.3041C8.63305 48.076 8.5518 49.5385 9.26274 50.4526C9.56744 50.8385 9.58775 50.8385 9.54712 50.2494C9.5065 49.2541 9.54712 49.1322 10.0956 48.6244C11.1925 47.6088 12.9394 48.1572 13.4269 49.6604C14.0566 51.5291 12.6347 53.1948 10.4409 53.1948C7.49553 53.1948 5.50488 50.5947 5.17987 46.39C4.87518 42.6118 6.52052 39.5649 9.64869 38.0008C10.8471 37.4118 10.969 37.2899 11.0909 36.5586C11.2331 35.6446 11.68 34.9336 11.944 35.1774C12.1472 35.4008 12.1472 37.7368 11.9237 40.2149C11.7612 42.0431 11.7815 42.2056 12.1675 42.5915C12.5534 42.9775 14.2597 43.465 16.3519 43.7697C17.5097 43.9322 17.4894 43.6478 16.3113 43.079C15.8238 42.8556 15.5597 42.5915 15.5597 42.3275C15.5597 41.6368 16.5347 41.6978 18.0175 42.5103C20.3738 43.8103 20.9426 43.3025 18.6676 41.9212C16.3925 40.5399 16.4738 40.6821 16.4738 37.9805C16.4738 35.157 16.2097 33.3695 15.7019 32.6789C13.8128 30.1398 9.8315 30.8507 7.77991 34.0805C6.39865 36.2742 6.58146 36.0914 6.23614 35.6649C5.89082 35.218 6.05333 34.4867 6.8049 33.1867C8.30804 30.6273 11.8831 29.1851 14.3612 30.1398C16.3519 30.8914 17.3675 32.3336 17.6113 34.7711C17.7129 35.7664 17.8347 36.1524 18.0785 36.2133C18.2613 36.2742 19.4801 36.3758 20.7801 36.4571C23.177 36.5993 23.177 36.5993 23.177 35.2992C23.177 32.9023 24.1926 31.5007 27.3817 29.4085C29.9818 27.7023 30.8958 28.2913 28.4583 30.0992C25.0864 32.5976 24.4161 33.4914 24.3958 35.4414C24.3958 36.0102 24.5786 37.168 24.7817 38.0008C25.3301 40.154 26.813 43.6072 27.3208 43.9728C27.9505 44.4197 28.9458 44.6228 31.2005 44.765C33.2318 44.8869 33.2318 44.8869 32.4193 44.1759C31.688 43.5462 31.6271 43.4243 31.8708 43.0587C32.0943 42.6931 32.074 42.6118 31.7693 42.5103C30.9365 42.2665 30.063 41.7384 29.7786 41.2915C29.2302 40.4384 28.438 37.7571 28.438 36.6602C28.4177 36.0711 28.5599 35.3195 28.7224 34.9742C29.1693 34.1211 32.0334 31.4601 32.5209 31.4601C33.2521 31.4601 32.9677 32.0898 31.5255 33.5726C30.124 35.0149 29.5349 35.868 29.7583 36.0914C29.9818 36.2946 32.5209 35.7258 35.3646 34.8117C36.8881 34.3242 39.5085 33.6742 41.1741 33.3898C47.857 32.1914 52.8743 30.4648 56.2462 28.1695C57.6274 27.2351 60.6337 24.1475 60.4103 23.9241C60.2884 23.8022 59.5775 23.8022 58.5009 23.9241C57.5665 24.046 54.7837 24.2897 52.3258 24.4522C49.868 24.635 46.6585 24.9194 45.2163 25.0819C41.0319 25.5694 39.6913 25.6507 39.5491 25.4069C39.2038 24.8585 41.4382 24.1272 44.5054 23.7616C45.4601 23.6397 48.7914 23.3553 51.9195 23.1319C60.004 22.5225 61.8931 22.2178 63.0916 21.2834C63.5791 20.8772 63.64 20.735 63.5385 19.9428C63.4166 18.8256 62.4822 17.2818 60.5931 15.1083C59.1712 13.4427 58.6634 13.0974 58.4603 13.6458C58.2571 14.1943 57.5868 13.4021 56.6931 11.5942C55.5962 9.35983 54.6415 8.32388 52.9555 7.5723C51.4727 6.90198 49.0555 6.69886 47.1257 7.06449C45.257 7.43012 42.7585 8.58794 40.8897 9.92859C39.0616 11.2489 38.6147 11.3911 38.6147 10.7005C38.6147 9.9489 40.6663 8.202 42.7179 7.20667C44.5257 6.31291 44.5257 6.31291 43.1851 5.56134C38.7975 3.12381 35.4865 1.80348 32.663 1.37691C30.0021 0.970654 28.8849 1.45816 28.4583 3.20506C28.2755 3.97694 28.2755 4.56601 28.4583 5.80509C28.7427 7.59262 30.1036 13.0974 31.3224 17.2615C32.1146 20.0037 32.1755 20.7756 31.5255 20.6537C30.9568 20.5522 30.124 18.4803 29.0677 14.499C28.5192 12.3864 28.0114 10.538 27.9708 10.4364C27.8692 10.152 24.152 10.4161 22.1613 10.863C20.0691 11.3302 16.9207 12.4474 15.0722 13.3818C9.05961 16.4084 4.63143 21.9944 2.84391 28.7179C1.44233 34.0195 1.34076 34.832 1.34076 39.9915C1.34076 43.9118 1.40171 44.9884 1.68608 46.0447C2.29547 48.2385 3.41267 50.2494 4.93613 51.8745C7.06897 54.1698 9.30336 55.0839 11.5987 54.5964ZM45.6835 20.8365C43.6116 19.9022 42.1491 17.9318 41.6616 15.4943C41.0725 12.5286 42.8804 9.46139 45.907 8.26294C47.4914 7.63324 50.4164 7.63324 52.0414 8.26294C54.7633 9.33952 56.3274 12.4474 55.8196 15.799C55.5352 17.7084 54.5196 19.1912 52.793 20.2272C50.518 21.6084 47.8367 21.8319 45.6835 20.8365ZM59.2321 18.4396C59.0493 17.6068 59.2321 17.4849 59.8415 18.0537C60.5931 18.7443 60.4915 19.6787 59.7197 19.2725C59.5368 19.1506 59.3134 18.785 59.2321 18.4396Z" fill="#097F5B"/>
<path d="M51.4121 19.5568C52.7324 18.9474 53.5246 18.2365 54.1137 17.1396C54.4793 16.4693 54.5605 16.0021 54.5605 14.4989C54.5402 12.9349 54.459 12.5286 54.0121 11.6348C53.098 9.88795 51.3918 9.07544 48.6495 9.07544C46.9229 9.07544 45.6026 9.58326 44.4448 10.7005C43.226 11.8583 42.7995 12.8536 42.7995 14.3974C42.7995 16.0427 43.4292 17.363 44.8104 18.6428C46.0698 19.8006 46.8214 20.085 48.7105 20.085C49.9699 20.085 50.5183 19.9834 51.4121 19.5568ZM49.8074 14.8849C48.8933 13.7271 49.523 12.3661 50.9652 12.3661C52.2246 12.3661 52.8543 13.463 52.3261 14.7427C52.0621 15.3521 51.9808 15.413 51.1277 15.413C50.3964 15.413 50.1527 15.3115 49.8074 14.8849Z" fill="#097F5B"/>
<path d="M38.3502 42.8758C39.508 42.8555 40.4424 42.7336 40.4424 42.6321C40.4424 42.3477 39.3049 41.6164 37.9439 41.068C37.2533 40.7836 36.6236 40.4586 36.5423 40.3164C36.3189 39.9914 36.3392 37.9804 36.583 36.7413C36.7048 36.1523 36.7658 35.6445 36.7455 35.6241C36.7048 35.6038 35.8314 35.8679 34.7751 36.1929C32.8657 36.8023 32.8657 36.8023 32.9876 38.2445C33.0688 39.0367 33.272 40.1539 33.4345 40.7023C33.7392 41.657 33.8407 41.7586 35.0189 42.3274C36.197 42.8961 36.4001 42.9367 38.3502 42.8758Z" fill="#097F5B"/>
<path d="M8.85693 16.0225C9.446 15.4131 9.446 15.4131 8.69443 15.4131C7.86161 15.4131 7.71942 15.5553 7.88192 16.185C8.02411 16.774 8.1663 16.7537 8.85693 16.0225Z" fill="#097F5B"/>
<path d="M12.1675 13.3412C12.9394 12.8537 12.7566 12.5693 11.68 12.5693C11.1112 12.5693 11.0706 12.61 11.1518 13.1787C11.2534 13.91 11.294 13.91 12.1675 13.3412Z" fill="#097F5B"/>
<path d="M16.3724 11.1879C17.2256 10.802 17.2053 10.7614 16.0068 10.2738C15.2552 9.94884 15.2552 9.94884 15.2552 10.7614C15.2552 11.6551 15.2756 11.6754 16.3724 11.1879Z" fill="#097F5B"/>
<path d="M21.3492 9.54263C21.8367 9.40044 21.8367 9.40044 21.3492 9.05512C20.6789 8.58793 20.5367 8.60824 20.5367 9.21762C20.5367 9.74575 20.557 9.76607 21.3492 9.54263Z" fill="#097F5B"/>
<path d="M11.5987 54.5964C14.5644 54.0073 16.0066 51.2244 14.6456 48.726C13.63 46.8978 10.7456 46.1056 9.46587 47.3041C8.63305 48.076 8.5518 49.5385 9.26274 50.4526C9.56744 50.8385 9.58775 50.8385 9.54712 50.2494C9.5065 49.2541 9.54712 49.1322 10.0956 48.6244C11.1925 47.6088 12.9394 48.1572 13.4269 49.6604C13.8737 50.9807 13.2847 52.2401 11.8628 52.9713C11.1112 53.3573 9.54712 53.2354 8.42992 52.7073C7.06896 52.0776 6.29708 50.9604 5.36269 48.2588C3.77829 43.729 4.34706 39.8696 6.9674 37.4321C8.02367 36.4367 10.0143 35.4211 11.2331 35.2586C11.9643 35.157 12.005 35.157 12.1268 35.868C12.2081 36.2742 12.1675 37.5743 12.0253 38.7524C11.619 42.6321 11.68 42.7946 13.955 43.3025C17.205 44.0337 18.1394 43.9322 16.3113 43.079C15.8238 42.8556 15.5597 42.5915 15.5597 42.3275C15.5597 41.6368 16.5347 41.6978 18.0175 42.5103C20.3738 43.8103 20.9426 43.3025 18.6676 41.9212C16.3925 40.5399 16.4738 40.6821 16.4738 37.9805C16.4738 35.157 16.2097 33.3695 15.7019 32.6789C13.8128 30.1398 9.8315 30.8507 7.77991 34.0805C6.39865 36.2742 6.58146 36.0914 6.23614 35.6649C5.89082 35.218 6.05333 34.4867 6.8049 33.1867C8.30804 30.6273 11.8831 29.1851 14.3816 30.1398C15.641 30.6273 16.7785 31.7039 17.205 32.8008C17.5504 33.6945 17.5504 33.6945 20.4348 33.6945C23.3192 33.6945 23.3192 33.6945 23.6848 32.882C24.1317 31.8664 25.3301 30.7492 27.3614 29.4288C29.9818 27.7226 30.8958 28.2913 28.4583 30.0992C25.0864 32.5976 24.4161 33.4914 24.3958 35.4414C24.3958 36.0102 24.5786 37.168 24.7817 38.0008C25.3301 40.154 26.813 43.6072 27.3208 43.9728C27.9505 44.4197 28.9458 44.6228 31.2005 44.765C33.2318 44.8869 33.2318 44.8869 32.4193 44.1759C31.688 43.5462 31.6271 43.4243 31.8708 43.0587C32.0943 42.6931 32.074 42.6118 31.7693 42.5103C30.9365 42.2665 30.063 41.7384 29.7786 41.2915C29.2302 40.4384 28.438 37.7571 28.438 36.6602C28.4177 35.2383 28.7427 34.6695 30.5708 32.9226C32.2162 31.3789 33.0896 31.0132 32.8459 31.9679C32.724 32.4148 32.7849 32.4758 33.3131 32.4758C34.1865 32.4758 38.31 31.9273 41.0522 31.4398C47.5929 30.282 52.5492 28.9413 55.7384 27.4382C56.6727 27.0116 57.6681 26.5851 57.9524 26.5241C58.5821 26.3616 60.6337 24.1475 60.39 23.9038C60.2884 23.8022 59.4353 23.8225 58.5009 23.9241C57.5665 24.046 54.7837 24.2897 52.3258 24.4522C49.868 24.635 46.6585 24.9194 45.2163 25.0819C41.0319 25.5694 39.6913 25.6507 39.5491 25.4069C39.2038 24.8585 41.4382 24.1272 44.5054 23.7616C45.4601 23.6397 48.7914 23.3553 51.9195 23.1319C60.004 22.5225 61.8931 22.2178 63.0916 21.2834C63.5791 20.8772 63.64 20.735 63.5385 19.9428C63.4166 18.8256 62.4822 17.2818 60.5931 15.1083C59.1712 13.4427 58.6634 13.0974 58.4603 13.6458C58.2571 14.1943 57.5868 13.4021 56.6931 11.5942C55.5962 9.35983 54.6415 8.32388 52.9555 7.5723C51.4727 6.90198 49.0555 6.69886 47.1257 7.06449C45.257 7.43012 42.7585 8.58794 40.8897 9.92859C39.0616 11.2489 38.6147 11.3911 38.6147 10.7005C38.6147 9.9489 40.6663 8.202 42.7179 7.20667C44.5257 6.31291 44.5257 6.31291 43.1851 5.56134C38.7975 3.12381 35.4865 1.80348 32.663 1.37691C30.0021 0.970654 28.8849 1.45816 28.4583 3.20506C28.2755 3.97694 28.2755 4.56601 28.4583 5.80509C28.7427 7.59262 30.1036 13.0974 31.3224 17.2615C32.1146 20.0037 32.1755 20.7756 31.5255 20.6537C30.9568 20.5522 30.124 18.4803 29.0677 14.499C28.5192 12.3864 28.0114 10.538 27.9708 10.4364C27.8692 10.152 24.152 10.4161 22.1613 10.863C20.0691 11.3302 16.9207 12.4474 15.0722 13.3818C9.05961 16.4084 4.63143 21.9944 2.84391 28.7179C1.44233 34.0195 1.34076 34.832 1.34076 39.9915C1.34076 43.9118 1.40171 44.9884 1.68608 46.0447C2.29547 48.2385 3.41267 50.2494 4.93613 51.8745C7.06897 54.1698 9.30336 55.0839 11.5987 54.5964ZM45.6835 20.8365C43.6116 19.9022 42.1491 17.9318 41.6616 15.4943C41.0725 12.5286 42.8804 9.46139 45.907 8.26294C47.4914 7.63324 50.4164 7.63324 52.0414 8.26294C54.7633 9.33952 56.3274 12.4474 55.8196 15.799C55.5352 17.7084 54.5196 19.1912 52.793 20.2272C50.518 21.6084 47.8367 21.8319 45.6835 20.8365ZM59.2321 18.4396C59.0493 17.6068 59.2321 17.4849 59.8415 18.0537C60.5931 18.7443 60.4915 19.6787 59.7197 19.2725C59.5368 19.1506 59.3134 18.785 59.2321 18.4396Z" fill="#47AF70"/>
<path d="M51.4121 19.5568C52.7324 18.9474 53.5246 18.2365 54.1137 17.1396C54.4793 16.4693 54.5605 16.0021 54.5605 14.4989C54.5402 12.9349 54.459 12.5286 54.0121 11.6348C53.098 9.88795 51.3918 9.07544 48.6495 9.07544C46.9229 9.07544 45.6026 9.58326 44.4448 10.7005C43.226 11.8583 42.7995 12.8536 42.7995 14.3974C42.7995 16.0427 43.4292 17.363 44.8104 18.6428C46.0698 19.8006 46.8214 20.085 48.7105 20.085C49.9699 20.085 50.5183 19.9834 51.4121 19.5568ZM49.5433 15.2708C48.812 14.4989 48.6698 13.7677 49.0558 13.0161C49.4824 12.1833 50.1324 11.7567 50.9652 11.7567C52.0824 11.7567 52.5699 12.2239 52.7121 13.4427C52.8746 14.7427 52.7527 15.1286 52.0418 15.5146C51.148 16.0021 50.1324 15.9005 49.5433 15.2708Z" fill="#47AF70"/>
<path d="M35.3643 43.9322C35.3643 43.8916 35.0596 43.6681 34.6939 43.4447C34.0033 43.0181 32.8861 42.8759 33.272 43.2619C33.4955 43.4853 35.3643 44.0947 35.3643 43.9322Z" fill="#47AF70"/>
<path d="M38.3502 42.8759C39.508 42.8555 40.4424 42.7337 40.4424 42.6321C40.4424 42.3477 39.3049 41.6165 37.9439 41.068C37.2533 40.7836 36.6236 40.4586 36.5423 40.3165C36.4611 40.1946 36.3798 39.5243 36.3798 38.8133C36.3798 37.5539 36.3798 37.5539 35.1611 38.1633C34.4907 38.4883 33.7595 38.7727 33.536 38.7727C33.0282 38.7727 33.0079 39.3211 33.4345 40.7227C33.7392 41.6571 33.8407 41.7587 35.0189 42.3274C36.197 42.8962 36.4001 42.9368 38.3502 42.8759Z" fill="#47AF70"/>
<path d="M56.2265 10.6398C55.5562 9.29915 54.4187 8.24289 52.9358 7.55225C51.9405 7.10537 51.3718 6.9835 49.7874 6.94287C48.5686 6.90224 47.4514 6.9835 46.7404 7.16631C45.6232 7.45069 45.6232 7.45069 47.0451 7.471C50.7624 7.55225 53.5858 8.5882 55.739 10.6804C56.7343 11.6554 56.7343 11.6554 56.2265 10.6398Z" fill="#84D687"/>
<path d="M44.0182 6.59743C44.587 6.35368 44.587 6.35368 43.2057 5.58179C38.8385 3.14426 35.5681 1.82393 32.7447 1.37705C31.0587 1.1333 30.0837 1.21455 29.3118 1.72237C28.6415 2.14894 28.9259 2.31144 30.6931 2.51457C34.3697 2.92082 37.3557 3.85521 41.6213 5.92711C43.2464 6.73962 43.4901 6.80056 44.0182 6.59743Z" fill="#84D687"/>
<path d="M51.4121 19.5568C52.7324 18.9474 53.5246 18.2365 54.1137 17.1396C54.4793 16.4693 54.5605 16.0021 54.5605 14.4989C54.5402 12.9349 54.459 12.5286 54.0121 11.6348C53.098 9.88795 51.3918 9.07544 48.6495 9.07544C46.9229 9.07544 45.6026 9.58326 44.4448 10.7005C43.226 11.8583 42.7995 12.8536 42.7995 14.3974C42.7995 16.0427 43.4292 17.363 44.8104 18.6428C46.0698 19.8006 46.8214 20.085 48.7105 20.085C49.9699 20.085 50.5183 19.9834 51.4121 19.5568ZM49.5433 15.2708C48.812 14.4989 48.6698 13.7677 49.0558 13.0161C49.9902 11.2083 52.3261 11.3911 53.0371 13.3005C53.3012 13.9911 52.9762 15.088 52.3668 15.5146C52.123 15.6771 51.5136 15.8193 51.0058 15.8193C50.2542 15.8193 49.9699 15.7177 49.5433 15.2708Z" fill="#9CDA8C"/>
<path d="M70.672 59.8V66.088C69.712 65.896 68.8 65.8 68.032 65.8C65.776 65.8 64.144 66.52 63.088 67.96C62.032 69.4 61.504 71.272 61.504 73.672V85H54.688V60.232H61.168V64.792C62.8 61.384 65.44 59.656 69.184 59.656C69.472 59.656 70 59.704 70.672 59.8ZM96.6445 77.32C95.8765 80.008 94.4365 82.072 92.3725 83.512C90.3085 85 87.8605 85.72 84.9805 85.72C81.1885 85.72 78.1165 84.568 75.8125 82.168C73.5085 79.816 72.3565 76.696 72.3565 72.76C72.3565 68.92 73.5085 65.752 75.8605 63.256C78.1645 60.76 81.1405 59.512 84.7885 59.512C88.5325 59.512 91.5085 60.808 93.7165 63.352C95.9245 65.896 97.0285 69.352 97.0285 73.672V74.344H79.2685C79.2685 76.504 79.7965 78.136 80.8045 79.24C81.8125 80.392 83.2525 80.92 85.0765 80.92C87.4765 80.92 89.1565 79.72 90.1165 77.32H96.6445ZM90.0685 70.024C89.9245 68.392 89.3965 67.096 88.4845 66.04C87.6205 64.984 86.3725 64.456 84.7405 64.456C83.2525 64.456 82.0045 64.984 80.9965 65.944C80.0365 66.952 79.4125 68.296 79.2205 70.024H90.0685ZM125.167 77.32C124.399 80.008 122.959 82.072 120.895 83.512C118.831 85 116.383 85.72 113.503 85.72C109.711 85.72 106.639 84.568 104.335 82.168C102.031 79.816 100.879 76.696 100.879 72.76C100.879 68.92 102.031 65.752 104.383 63.256C106.687 60.76 109.663 59.512 113.311 59.512C117.055 59.512 120.031 60.808 122.239 63.352C124.447 65.896 125.551 69.352 125.551 73.672V74.344H107.791C107.791 76.504 108.319 78.136 109.327 79.24C110.335 80.392 111.775 80.92 113.599 80.92C115.999 80.92 117.679 79.72 118.639 77.32H125.167ZM118.591 70.024C118.447 68.392 117.919 67.096 117.007 66.04C116.143 64.984 114.895 64.456 113.263 64.456C111.775 64.456 110.527 64.984 109.519 65.944C108.559 66.952 107.935 68.296 107.743 70.024H118.591ZM153.737 85H146.825V70.552C146.825 68.824 146.537 67.48 145.961 66.568C145.385 65.656 144.233 65.176 142.601 65.176C139.001 65.176 137.225 67.384 137.225 71.704V85H130.457V60.232H136.937V63.688C138.953 60.952 141.689 59.56 145.145 59.56C147.785 59.56 149.897 60.328 151.433 61.864C152.969 63.4 153.737 65.608 153.737 68.44V85ZM160.591 50.824H175.327C179.167 50.824 182.191 51.784 184.447 53.608C186.703 55.432 187.855 58.168 187.855 61.816C187.855 65.416 186.703 68.152 184.495 69.976C182.239 71.8 179.311 72.712 175.711 72.712H168.031V85H160.591V50.824ZM168.031 56.968V66.808H174.703C178.591 66.808 180.559 65.176 180.559 61.912C180.559 58.648 178.591 56.968 174.751 56.968H168.031ZM216.03 60.232V85H209.55V81.496C207.63 84.328 204.942 85.72 201.486 85.72C198.75 85.72 196.638 85 195.102 83.512C193.566 82.024 192.846 79.816 192.846 76.888V60.232H199.71V74.392C199.71 75.352 199.71 76.072 199.806 76.648C199.902 77.224 200.046 77.752 200.334 78.328C200.574 78.904 201.006 79.336 201.582 79.624C202.158 79.912 202.926 80.008 203.886 80.008C207.438 80.008 209.262 77.704 209.262 73V60.232H216.03ZM229.219 50.824V85H222.403V50.824H229.219ZM256.474 67.432L250.09 67.48C249.898 66.232 249.466 65.32 248.698 64.84C247.93 64.312 246.826 64.072 245.386 64.072C244.186 64.072 243.226 64.264 242.554 64.696C241.882 65.128 241.546 65.752 241.546 66.52C241.546 67.384 241.93 68.008 242.698 68.392C243.466 68.728 244.858 69.112 246.826 69.544C247.21 69.592 247.45 69.64 247.594 69.688C248.746 69.88 249.706 70.072 250.378 70.264C251.05 70.456 251.914 70.744 252.874 71.128C253.882 71.512 254.65 71.992 255.178 72.472C255.754 72.952 256.234 73.624 256.618 74.44C257.05 75.304 257.242 76.264 257.242 77.32C257.242 79.912 256.234 81.976 254.218 83.464C252.202 85 249.466 85.72 245.914 85.72C242.554 85.72 239.818 85 237.61 83.56C235.45 82.12 234.346 79.912 234.298 76.936H240.778C241.018 79.72 242.794 81.064 246.058 81.064C247.45 81.064 248.554 80.824 249.37 80.248C250.186 79.672 250.57 78.952 250.57 77.992C250.57 77.08 250.234 76.408 249.466 76.024C248.746 75.64 247.402 75.256 245.386 74.776C245.242 74.776 245.098 74.728 245.002 74.68C244.81 74.632 244.282 74.536 243.514 74.344C242.746 74.2 242.218 74.104 241.93 74.008C241.642 73.912 241.114 73.768 240.442 73.576C239.77 73.384 239.242 73.24 238.906 73.048C238.618 72.856 238.186 72.664 237.658 72.376C237.13 72.088 236.746 71.8 236.458 71.464C236.218 71.176 235.93 70.792 235.642 70.36C235.354 69.928 235.114 69.448 235.018 68.872C234.922 68.344 234.874 67.768 234.874 67.096C234.874 64.696 235.786 62.824 237.706 61.48C239.578 60.184 242.266 59.512 245.722 59.512C248.794 59.512 251.338 60.184 253.354 61.432C255.322 62.728 256.378 64.744 256.474 67.432ZM285.568 77.32C284.8 80.008 283.36 82.072 281.296 83.512C279.232 85 276.784 85.72 273.904 85.72C270.112 85.72 267.04 84.568 264.736 82.168C262.432 79.816 261.28 76.696 261.28 72.76C261.28 68.92 262.432 65.752 264.784 63.256C267.088 60.76 270.064 59.512 273.712 59.512C277.456 59.512 280.432 60.808 282.64 63.352C284.848 65.896 285.952 69.352 285.952 73.672V74.344H268.192C268.192 76.504 268.72 78.136 269.728 79.24C270.736 80.392 272.176 80.92 274 80.92C276.4 80.92 278.08 79.72 279.04 77.32H285.568ZM278.992 70.024C278.848 68.392 278.32 67.096 277.408 66.04C276.544 64.984 275.296 64.456 273.664 64.456C272.176 64.456 270.928 64.984 269.92 65.944C268.96 66.952 268.336 68.296 268.144 70.024H278.992Z" fill="#F5FBFB"/>
</svg>
