<svg width="288" height="109" viewBox="0 0 288 109" fill="none" xmlns="http://www.w3.org/2000/svg">
<path d="M5.49609 62.408C5.49609 69.448 7.48009 75.144 11.4481 79.496C15.4161 83.912 20.6001 86.088 26.9361 86.088C32.6961 86.088 37.2401 84.04 40.6321 79.816L41.5921 85H47.9281L47.9921 60.36H28.8561V67.784H39.0321C38.9041 70.856 37.8161 73.352 35.8321 75.272C33.7841 77.192 31.2241 78.088 28.1521 78.088C24.1841 78.088 21.0481 76.744 18.8721 73.992C16.6961 71.24 15.6081 67.4 15.6081 62.408C15.6081 57.544 16.6961 53.768 18.8721 51.016C21.0481 48.264 23.9921 46.856 27.8321 46.856C30.4561 46.856 32.6321 47.56 34.3601 48.84C36.1521 50.184 37.2401 52.04 37.6881 54.408H47.3521" stroke="black" stroke-width="1.3"/>
<path d="M5.5 63C5.5 60.5 5.6 55.2 6 54" stroke="black" stroke-width="1.3"/>
<mask id="path-3-outside-1_177_411" maskUnits="userSpaceOnUse" x="53" y="49" width="235" height="39" fill="black">
<rect fill="white" x="53" y="49" width="235" height="39"/>
<path d="M70.672 59.8V66.088C69.712 65.896 68.8 65.8 68.032 65.8C65.776 65.8 64.144 66.52 63.088 67.96C62.032 69.4 61.504 71.272 61.504 73.672V85H54.688V60.232H61.168V64.792C62.8 61.384 65.44 59.656 69.184 59.656C69.472 59.656 70 59.704 70.672 59.8ZM96.6445 77.32C95.8765 80.008 94.4365 82.072 92.3725 83.512C90.3085 85 87.8605 85.72 84.9805 85.72C81.1885 85.72 78.1165 84.568 75.8125 82.168C73.5085 79.816 72.3565 76.696 72.3565 72.76C72.3565 68.92 73.5085 65.752 75.8605 63.256C78.1645 60.76 81.1405 59.512 84.7885 59.512C88.5325 59.512 91.5085 60.808 93.7165 63.352C95.9245 65.896 97.0285 69.352 97.0285 73.672V74.344H79.2685C79.2685 76.504 79.7965 78.136 80.8045 79.24C81.8125 80.392 83.2525 80.92 85.0765 80.92C87.4765 80.92 89.1565 79.72 90.1165 77.32H96.6445ZM90.0685 70.024C89.9245 68.392 89.3965 67.096 88.4845 66.04C87.6205 64.984 86.3725 64.456 84.7405 64.456C83.2525 64.456 82.0045 64.984 80.9965 65.944C80.0365 66.952 79.4125 68.296 79.2205 70.024H90.0685ZM125.167 77.32C124.399 80.008 122.959 82.072 120.895 83.512C118.831 85 116.383 85.72 113.503 85.72C109.711 85.72 106.639 84.568 104.335 82.168C102.031 79.816 100.879 76.696 100.879 72.76C100.879 68.92 102.031 65.752 104.383 63.256C106.687 60.76 109.663 59.512 113.311 59.512C117.055 59.512 120.031 60.808 122.239 63.352C124.447 65.896 125.551 69.352 125.551 73.672V74.344H107.791C107.791 76.504 108.319 78.136 109.327 79.24C110.335 80.392 111.775 80.92 113.599 80.92C115.999 80.92 117.679 79.72 118.639 77.32H125.167ZM118.591 70.024C118.447 68.392 117.919 67.096 117.007 66.04C116.143 64.984 114.895 64.456 113.263 64.456C111.775 64.456 110.527 64.984 109.519 65.944C108.559 66.952 107.935 68.296 107.743 70.024H118.591ZM153.737 85H146.825V70.552C146.825 68.824 146.537 67.48 145.961 66.568C145.385 65.656 144.233 65.176 142.601 65.176C139.001 65.176 137.225 67.384 137.225 71.704V85H130.457V60.232H136.937V63.688C138.953 60.952 141.689 59.56 145.145 59.56C147.785 59.56 149.897 60.328 151.433 61.864C152.969 63.4 153.737 65.608 153.737 68.44V85ZM160.591 50.824H175.327C179.167 50.824 182.191 51.784 184.447 53.608C186.703 55.432 187.855 58.168 187.855 61.816C187.855 65.416 186.703 68.152 184.495 69.976C182.239 71.8 179.311 72.712 175.711 72.712H168.031V85H160.591V50.824ZM168.031 56.968V66.808H174.703C178.591 66.808 180.559 65.176 180.559 61.912C180.559 58.648 178.591 56.968 174.751 56.968H168.031ZM216.03 60.232V85H209.55V81.496C207.63 84.328 204.942 85.72 201.486 85.72C198.75 85.72 196.638 85 195.102 83.512C193.566 82.024 192.846 79.816 192.846 76.888V60.232H199.71V74.392C199.71 75.352 199.71 76.072 199.806 76.648C199.902 77.224 200.046 77.752 200.334 78.328C200.574 78.904 201.006 79.336 201.582 79.624C202.158 79.912 202.926 80.008 203.886 80.008C207.438 80.008 209.262 77.704 209.262 73V60.232H216.03ZM229.219 50.824V85H222.403V50.824H229.219ZM256.474 67.432L250.09 67.48C249.898 66.232 249.466 65.32 248.698 64.84C247.93 64.312 246.826 64.072 245.386 64.072C244.186 64.072 243.226 64.264 242.554 64.696C241.882 65.128 241.546 65.752 241.546 66.52C241.546 67.384 241.93 68.008 242.698 68.392C243.466 68.728 244.858 69.112 246.826 69.544C247.21 69.592 247.45 69.64 247.594 69.688C248.746 69.88 249.706 70.072 250.378 70.264C251.05 70.456 251.914 70.744 252.874 71.128C253.882 71.512 254.65 71.992 255.178 72.472C255.754 72.952 256.234 73.624 256.618 74.44C257.05 75.304 257.242 76.264 257.242 77.32C257.242 79.912 256.234 81.976 254.218 83.464C252.202 85 249.466 85.72 245.914 85.72C242.554 85.72 239.818 85 237.61 83.56C235.45 82.12 234.346 79.912 234.298 76.936H240.778C241.018 79.72 242.794 81.064 246.058 81.064C247.45 81.064 248.554 80.824 249.37 80.248C250.186 79.672 250.57 78.952 250.57 77.992C250.57 77.08 250.234 76.408 249.466 76.024C248.746 75.64 247.402 75.256 245.386 74.776C245.242 74.776 245.098 74.728 245.002 74.68C244.81 74.632 244.282 74.536 243.514 74.344C242.746 74.2 242.218 74.104 241.93 74.008C241.642 73.912 241.114 73.768 240.442 73.576C239.77 73.384 239.242 73.24 238.906 73.048C238.618 72.856 238.186 72.664 237.658 72.376C237.13 72.088 236.746 71.8 236.458 71.464C236.218 71.176 235.93 70.792 235.642 70.36C235.354 69.928 235.114 69.448 235.018 68.872C234.922 68.344 234.874 67.768 234.874 67.096C234.874 64.696 235.786 62.824 237.706 61.48C239.578 60.184 242.266 59.512 245.722 59.512C248.794 59.512 251.338 60.184 253.354 61.432C255.322 62.728 256.378 64.744 256.474 67.432ZM285.568 77.32C284.8 80.008 283.36 82.072 281.296 83.512C279.232 85 276.784 85.72 273.904 85.72C270.112 85.72 267.04 84.568 264.736 82.168C262.432 79.816 261.28 76.696 261.28 72.76C261.28 68.92 262.432 65.752 264.784 63.256C267.088 60.76 270.064 59.512 273.712 59.512C277.456 59.512 280.432 60.808 282.64 63.352C284.848 65.896 285.952 69.352 285.952 73.672V74.344H268.192C268.192 76.504 268.72 78.136 269.728 79.24C270.736 80.392 272.176 80.92 274 80.92C276.4 80.92 278.08 79.72 279.04 77.32H285.568ZM278.992 70.024C278.848 68.392 278.32 67.096 277.408 66.04C276.544 64.984 275.296 64.456 273.664 64.456C272.176 64.456 270.928 64.984 269.92 65.944C268.96 66.952 268.336 68.296 268.144 70.024H278.992Z"/>
</mask>
<path d="M70.672 59.8H71.972V58.6725L70.8558 58.5131L70.672 59.8ZM70.672 66.088L70.4171 67.3628L71.972 67.6737V66.088H70.672ZM63.088 67.96L62.0397 67.1912L62.0397 67.1912L63.088 67.96ZM61.504 85V86.3H62.804V85H61.504ZM54.688 85H53.388V86.3H54.688V85ZM54.688 60.232V58.932H53.388V60.232H54.688ZM61.168 60.232H62.468V58.932H61.168V60.232ZM61.168 64.792H59.868L62.3405 65.3535L61.168 64.792ZM70.672 59.8H69.372V66.088H70.672H71.972V59.8H70.672ZM70.672 66.088L70.927 64.8132C69.8991 64.6077 68.9006 64.5 68.032 64.5V65.8V67.1C68.6994 67.1 69.5249 67.1843 70.4171 67.3628L70.672 66.088ZM68.032 65.8V64.5C65.4772 64.5 63.4016 65.3341 62.0397 67.1912L63.088 67.96L64.1363 68.7288C64.8864 67.7059 66.0748 67.1 68.032 67.1V65.8ZM63.088 67.96L62.0397 67.1912C60.7752 68.9155 60.204 71.0827 60.204 73.672H61.504H62.804C62.804 71.4613 63.2888 69.8845 64.1363 68.7288L63.088 67.96ZM61.504 73.672H60.204V85H61.504H62.804V73.672H61.504ZM61.504 85V83.7H54.688V85V86.3H61.504V85ZM54.688 85H55.988V60.232H54.688H53.388V85H54.688ZM54.688 60.232V61.532H61.168V60.232V58.932H54.688V60.232ZM61.168 60.232H59.868V64.792H61.168H62.468V60.232H61.168ZM61.168 64.792L62.3405 65.3535C63.0744 63.821 63.997 62.7416 65.088 62.0389C66.1763 61.3378 67.5183 60.956 69.184 60.956V59.656V58.356C67.1057 58.356 65.2557 58.8382 63.68 59.8531C62.107 60.8664 60.8936 62.355 59.9955 64.2305L61.168 64.792ZM69.184 59.656V60.956C69.3758 60.956 69.8288 60.9927 70.4882 61.0869L70.672 59.8L70.8558 58.5131C70.1712 58.4153 69.5682 58.356 69.184 58.356V59.656ZM96.6445 77.32L97.8945 77.6771L98.368 76.02H96.6445V77.32ZM92.3725 83.512L91.6287 82.4458L91.6204 82.4516L91.6123 82.4575L92.3725 83.512ZM75.8125 82.168L76.7504 81.2677L76.7412 81.2583L75.8125 82.168ZM75.8605 63.256L76.8067 64.1476L76.8157 64.1378L75.8605 63.256ZM93.7165 63.352L92.7347 64.2041L92.7347 64.2041L93.7165 63.352ZM97.0285 74.344V75.644H98.3285V74.344H97.0285ZM79.2685 74.344V73.044H77.9685V74.344H79.2685ZM80.8045 79.24L81.7828 78.3839L81.7738 78.3736L81.7645 78.3634L80.8045 79.24ZM90.1165 77.32V76.02H89.2364L88.9095 76.8372L90.1165 77.32ZM90.0685 70.024V71.324H91.4883L91.3635 69.9097L90.0685 70.024ZM88.4845 66.04L87.4784 66.8632L87.4893 66.8766L87.5006 66.8897L88.4845 66.04ZM80.9965 65.944L80.0999 65.0026L80.077 65.0245L80.0551 65.0474L80.9965 65.944ZM79.2205 70.024L77.9285 69.8804L77.7681 71.324H79.2205V70.024ZM96.6445 77.32L95.3945 76.9629C94.7011 79.3899 93.4257 81.1921 91.6287 82.4458L92.3725 83.512L93.1163 84.5782C95.4473 82.9519 97.0519 80.6261 97.8945 77.6771L96.6445 77.32ZM92.3725 83.512L91.6123 82.4575C89.8025 83.7622 87.6312 84.42 84.9805 84.42V85.72V87.02C88.0898 87.02 90.8145 86.2378 93.1327 84.5665L92.3725 83.512ZM84.9805 85.72V84.42C81.4718 84.42 78.7642 83.3655 76.7503 81.2677L75.8125 82.168L74.8747 83.0683C77.4688 85.7705 80.9052 87.02 84.9805 87.02V85.72ZM75.8125 82.168L76.7412 81.2583C74.7192 79.1942 73.6565 76.4244 73.6565 72.76H72.3565H71.0565C71.0565 76.9676 72.2978 80.4378 74.8838 83.0777L75.8125 82.168ZM72.3565 72.76H73.6565C73.6565 69.2019 74.7138 66.3685 76.8066 64.1475L75.8605 63.256L74.9144 62.3645C72.3032 65.1355 71.0565 68.6381 71.0565 72.76H72.3565ZM75.8605 63.256L76.8157 64.1378C78.854 61.9297 81.4733 60.812 84.7885 60.812V59.512V58.212C80.8077 58.212 77.475 59.5903 74.9053 62.3742L75.8605 63.256ZM84.7885 59.512V60.812C88.1961 60.812 90.7989 61.9737 92.7347 64.2041L93.7165 63.352L94.6983 62.4999C92.2181 59.6423 88.8689 58.212 84.7885 58.212V59.512ZM93.7165 63.352L92.7347 64.2041C94.6839 66.4499 95.7285 69.5723 95.7285 73.672H97.0285H98.3285C98.3285 69.1317 97.1651 65.3421 94.6983 62.4999L93.7165 63.352ZM97.0285 73.672H95.7285V74.344H97.0285H98.3285V73.672H97.0285ZM97.0285 74.344V73.044H79.2685V74.344V75.644H97.0285V74.344ZM79.2685 74.344H77.9685C77.9685 76.7002 78.5445 78.6927 79.8445 80.1165L80.8045 79.24L81.7645 78.3634C81.0485 77.5793 80.5685 76.3078 80.5685 74.344H79.2685ZM80.8045 79.24L79.8261 80.0961C81.1481 81.6068 82.9931 82.22 85.0765 82.22V80.92V79.62C83.5119 79.62 82.4769 79.1772 81.7828 78.3839L80.8045 79.24ZM85.0765 80.92V82.22C86.502 82.22 87.7973 81.8598 88.8921 81.0779C89.98 80.3008 90.7744 79.1757 91.3235 77.8028L90.1165 77.32L88.9095 76.8372C88.4986 77.8643 87.973 78.5392 87.3809 78.9621C86.7957 79.3802 86.051 79.62 85.0765 79.62V80.92ZM90.1165 77.32V78.62H96.6445V77.32V76.02H90.1165V77.32ZM90.0685 70.024L91.3635 69.9097C91.1987 68.0428 90.5814 66.479 89.4684 65.1903L88.4845 66.04L87.5006 66.8897C88.2116 67.713 88.6503 68.7412 88.7735 70.1383L90.0685 70.024ZM88.4845 66.04L89.4906 65.2168C88.3307 63.799 86.6777 63.156 84.7405 63.156V64.456V65.756C86.0673 65.756 86.9103 66.1689 87.4784 66.8632L88.4845 66.04ZM84.7405 64.456V63.156C82.9125 63.156 81.3452 63.8167 80.0999 65.0026L80.9965 65.944L81.8931 66.8854C82.6638 66.1513 83.5925 65.756 84.7405 65.756V64.456ZM80.9965 65.944L80.0551 65.0474C78.8754 66.2861 78.1478 67.9058 77.9285 69.8804L79.2205 70.024L80.5125 70.1676C80.6771 68.6862 81.1976 67.6179 81.9379 66.8406L80.9965 65.944ZM79.2205 70.024V71.324H90.0685V70.024V68.724H79.2205V70.024ZM125.167 77.32L126.417 77.6771L126.89 76.02H125.167V77.32ZM120.895 83.512L120.151 82.4458L120.143 82.4516L120.135 82.4575L120.895 83.512ZM104.335 82.168L105.273 81.2677L105.264 81.2583L104.335 82.168ZM104.383 63.256L105.329 64.1476L105.338 64.1378L104.383 63.256ZM122.239 63.352L121.257 64.2041L121.257 64.2041L122.239 63.352ZM125.551 74.344V75.644H126.851V74.344H125.551ZM107.791 74.344V73.044H106.491V74.344H107.791ZM109.327 79.24L110.305 78.3839L110.296 78.3736L110.287 78.3634L109.327 79.24ZM118.639 77.32V76.02H117.759L117.432 76.8372L118.639 77.32ZM118.591 70.024V71.324H120.011L119.886 69.9097L118.591 70.024ZM117.007 66.04L116.001 66.8632L116.012 66.8766L116.023 66.8897L117.007 66.04ZM109.519 65.944L108.622 65.0026L108.599 65.0245L108.578 65.0474L109.519 65.944ZM107.743 70.024L106.451 69.8804L106.291 71.324H107.743V70.024ZM125.167 77.32L123.917 76.9629C123.224 79.3899 121.948 81.1921 120.151 82.4458L120.895 83.512L121.639 84.5782C123.97 82.9519 125.574 80.6261 126.417 77.6771L125.167 77.32ZM120.895 83.512L120.135 82.4575C118.325 83.7622 116.154 84.42 113.503 84.42V85.72V87.02C116.612 87.02 119.337 86.2378 121.655 84.5665L120.895 83.512ZM113.503 85.72V84.42C109.994 84.42 107.287 83.3655 105.273 81.2677L104.335 82.168L103.397 83.0683C105.991 85.7705 109.428 87.02 113.503 87.02V85.72ZM104.335 82.168L105.264 81.2583C103.242 79.1942 102.179 76.4244 102.179 72.76H100.879H99.579C99.579 76.9676 100.82 80.4378 103.406 83.0777L104.335 82.168ZM100.879 72.76H102.179C102.179 69.2019 103.236 66.3685 105.329 64.1475L104.383 63.256L103.437 62.3645C100.826 65.1355 99.579 68.6381 99.579 72.76H100.879ZM104.383 63.256L105.338 64.1378C107.376 61.9297 109.996 60.812 113.311 60.812V59.512V58.212C109.33 58.212 105.998 59.5903 103.428 62.3742L104.383 63.256ZM113.311 59.512V60.812C116.719 60.812 119.321 61.9737 121.257 64.2041L122.239 63.352L123.221 62.4999C120.741 59.6423 117.391 58.212 113.311 58.212V59.512ZM122.239 63.352L121.257 64.2041C123.206 66.4499 124.251 69.5723 124.251 73.672H125.551H126.851C126.851 69.1317 125.688 65.3421 123.221 62.4999L122.239 63.352ZM125.551 73.672H124.251V74.344H125.551H126.851V73.672H125.551ZM125.551 74.344V73.044H107.791V74.344V75.644H125.551V74.344ZM107.791 74.344H106.491C106.491 76.7002 107.067 78.6927 108.367 80.1165L109.327 79.24L110.287 78.3634C109.571 77.5793 109.091 76.3078 109.091 74.344H107.791ZM109.327 79.24L108.349 80.0961C109.671 81.6068 111.516 82.22 113.599 82.22V80.92V79.62C112.034 79.62 110.999 79.1772 110.305 78.3839L109.327 79.24ZM113.599 80.92V82.22C115.024 82.22 116.32 81.8598 117.415 81.0779C118.502 80.3008 119.297 79.1757 119.846 77.8028L118.639 77.32L117.432 76.8372C117.021 77.8643 116.496 78.5392 115.903 78.9621C115.318 79.3802 114.574 79.62 113.599 79.62V80.92ZM118.639 77.32V78.62H125.167V77.32V76.02H118.639V77.32ZM118.591 70.024L119.886 69.9097C119.721 68.0428 119.104 66.479 117.991 65.1903L117.007 66.04L116.023 66.8897C116.734 67.713 117.173 68.7412 117.296 70.1383L118.591 70.024ZM117.007 66.04L118.013 65.2168C116.853 63.799 115.2 63.156 113.263 63.156V64.456V65.756C114.59 65.756 115.433 66.1689 116.001 66.8632L117.007 66.04ZM113.263 64.456V63.156C111.435 63.156 109.868 63.8167 108.622 65.0026L109.519 65.944L110.416 66.8854C111.186 66.1513 112.115 65.756 113.263 65.756V64.456ZM109.519 65.944L108.578 65.0474C107.398 66.2861 106.67 67.9058 106.451 69.8804L107.743 70.024L109.035 70.1676C109.2 68.6862 109.72 67.6179 110.46 66.8406L109.519 65.944ZM107.743 70.024V71.324H118.591V70.024V68.724H107.743V70.024ZM153.737 85V86.3H155.037V85H153.737ZM146.825 85H145.525V86.3H146.825V85ZM145.961 66.568L144.862 67.2622L144.862 67.2622L145.961 66.568ZM137.225 85V86.3H138.525V85H137.225ZM130.457 85H129.157V86.3H130.457V85ZM130.457 60.232V58.932H129.157V60.232H130.457ZM136.937 60.232H138.237V58.932H136.937V60.232ZM136.937 63.688H135.637V67.6438L137.984 64.4592L136.937 63.688ZM151.433 61.864L152.353 60.9448L151.433 61.864ZM153.737 85V83.7H146.825V85V86.3H153.737V85ZM146.825 85H148.125V70.552H146.825H145.525V85H146.825ZM146.825 70.552H148.125C148.125 68.7169 147.826 67.0859 147.061 65.8738L145.961 66.568L144.862 67.2622C145.249 67.8741 145.525 68.9311 145.525 70.552H146.825ZM145.961 66.568L147.061 65.8738C146.142 64.4187 144.439 63.876 142.601 63.876V65.176V66.476C144.028 66.476 144.629 66.8933 144.862 67.2622L145.961 66.568ZM142.601 65.176V63.876C140.523 63.876 138.761 64.5261 137.558 65.9965C136.394 67.4175 135.925 69.3985 135.925 71.704H137.225H138.525C138.525 69.6895 138.945 68.4065 139.569 67.6435C140.154 66.9299 141.08 66.476 142.601 66.476V65.176ZM137.225 71.704H135.925V85H137.225H138.525V71.704H137.225ZM137.225 85V83.7H130.457V85V86.3H137.225V85ZM130.457 85H131.757V60.232H130.457H129.157V85H130.457ZM130.457 60.232V61.532H136.937V60.232V58.932H130.457V60.232ZM136.937 60.232H135.637V63.688H136.937H138.237V60.232H136.937ZM136.937 63.688L137.984 64.4592C139.754 62.0568 142.101 60.86 145.145 60.86V59.56V58.26C141.278 58.26 138.153 59.8472 135.891 62.9168L136.937 63.688ZM145.145 59.56V60.86C147.524 60.86 149.275 61.544 150.514 62.7832L151.433 61.864L152.353 60.9448C150.52 59.112 148.047 58.26 145.145 58.26V59.56ZM151.433 61.864L150.514 62.7832C151.737 64.0059 152.437 65.8401 152.437 68.44H153.737H155.037C155.037 65.3759 154.202 62.7941 152.353 60.9448L151.433 61.864ZM153.737 68.44H152.437V85H153.737H155.037V68.44H153.737ZM160.591 50.824V49.524H159.291V50.824H160.591ZM184.495 69.976L185.312 70.987L185.323 70.9782L184.495 69.976ZM168.031 72.712V71.412H166.731V72.712H168.031ZM168.031 85V86.3H169.331V85H168.031ZM160.591 85H159.291V86.3H160.591V85ZM168.031 56.968V55.668H166.731V56.968H168.031ZM168.031 66.808H166.731V68.108H168.031V66.808ZM160.591 50.824V52.124H175.327V50.824V49.524H160.591V50.824ZM175.327 50.824V52.124C178.949 52.124 181.66 53.0265 183.629 54.6189L184.447 53.608L185.264 52.5971C182.722 50.5415 179.385 49.524 175.327 49.524V50.824ZM184.447 53.608L183.629 54.6189C185.508 56.1382 186.555 58.4582 186.555 61.816H187.855H189.155C189.155 57.8778 187.897 54.7258 185.264 52.5971L184.447 53.608ZM187.855 61.816H186.555C186.555 65.124 185.509 67.4518 183.667 68.9737L184.495 69.976L185.323 70.9782C187.896 68.8522 189.155 65.708 189.155 61.816H187.855ZM184.495 69.976L183.677 68.9651C181.704 70.5605 179.087 71.412 175.711 71.412V72.712V74.012C179.535 74.012 182.773 73.0395 185.312 70.9869L184.495 69.976ZM175.711 72.712V71.412H168.031V72.712V74.012H175.711V72.712ZM168.031 72.712H166.731V85H168.031H169.331V72.712H168.031ZM168.031 85V83.7H160.591V85V86.3H168.031V85ZM160.591 85H161.891V50.824H160.591H159.291V85H160.591ZM168.031 56.968H166.731V66.808H168.031H169.331V56.968H168.031ZM168.031 66.808V68.108H174.703V66.808V65.508H168.031V66.808ZM174.703 66.808V68.108C176.797 68.108 178.614 67.6731 179.921 66.5822C181.274 65.454 181.859 63.8148 181.859 61.912H180.559H179.259C179.259 63.2732 178.86 64.082 178.256 64.5858C177.607 65.1269 176.496 65.508 174.703 65.508V66.808ZM180.559 61.912H181.859C181.859 60.0104 181.275 58.3654 179.938 57.2264C178.639 56.1197 176.832 55.668 174.751 55.668V56.968V58.268C176.509 58.268 177.607 58.6562 178.252 59.2056C178.858 59.7226 179.259 60.5496 179.259 61.912H180.559ZM174.751 56.968V55.668H168.031V56.968V58.268H174.751V56.968ZM216.03 60.232H217.33V58.932H216.03V60.232ZM216.03 85V86.3H217.33V85H216.03ZM209.55 85H208.25V86.3H209.55V85ZM209.55 81.496H210.85V77.2619L208.474 80.7665L209.55 81.496ZM195.102 83.512L196.007 82.5783L196.007 82.5783L195.102 83.512ZM192.846 60.232V58.932H191.546V60.232H192.846ZM199.71 60.232H201.01V58.932H199.71V60.232ZM199.806 76.648L198.524 76.8617L198.524 76.8617L199.806 76.648ZM200.334 78.328L201.534 77.828L201.517 77.7867L201.497 77.7466L200.334 78.328ZM209.262 60.232V58.932H207.962V60.232H209.262ZM216.03 60.232H214.73V85H216.03H217.33V60.232H216.03ZM216.03 85V83.7H209.55V85V86.3H216.03V85ZM209.55 85H210.85V81.496H209.55H208.25V85H209.55ZM209.55 81.496L208.474 80.7665C206.803 83.2317 204.523 84.42 201.486 84.42V85.72V87.02C205.361 87.02 208.458 85.4243 210.626 82.2255L209.55 81.496ZM201.486 85.72V84.42C198.983 84.42 197.234 83.7671 196.007 82.5783L195.102 83.512L194.198 84.4457C196.043 86.2329 198.518 87.02 201.486 87.02V85.72ZM195.102 83.512L196.007 82.5783C194.817 81.4253 194.146 79.619 194.146 76.888H192.846H191.546C191.546 80.013 192.316 82.6227 194.198 84.4457L195.102 83.512ZM192.846 76.888H194.146V60.232H192.846H191.546V76.888H192.846ZM192.846 60.232V61.532H199.71V60.232V58.932H192.846V60.232ZM199.71 60.232H198.41V74.392H199.71H201.01V60.232H199.71ZM199.71 74.392H198.41C198.41 75.3095 198.406 76.155 198.524 76.8617L199.806 76.648L201.089 76.4343C201.014 75.989 201.01 75.3945 201.01 74.392H199.71ZM199.806 76.648L198.524 76.8617C198.635 77.5307 198.812 78.1896 199.171 78.9094L200.334 78.328L201.497 77.7466C201.281 77.3144 201.169 76.9173 201.089 76.4343L199.806 76.648ZM200.334 78.328L199.134 78.828C199.508 79.7258 200.18 80.3765 201.001 80.7868L201.582 79.624L202.164 78.4612C201.832 78.2955 201.64 78.0822 201.534 77.828L200.334 78.328ZM201.582 79.624L201.001 80.7868C201.86 81.2162 202.883 81.308 203.886 81.308V80.008V78.708C202.969 78.708 202.457 78.6078 202.164 78.4612L201.582 79.624ZM203.886 80.008V81.308C205.966 81.308 207.734 80.6163 208.935 79.0632C210.087 77.5732 210.562 75.4842 210.562 73H209.262H207.962C207.962 75.2198 207.526 76.6348 206.878 77.4728C206.279 78.2477 205.358 78.708 203.886 78.708V80.008ZM209.262 73H210.562V60.232H209.262H207.962V73H209.262ZM209.262 60.232V61.532H216.03V60.232V58.932H209.262V60.232ZM229.219 50.824H230.519V49.524H229.219V50.824ZM229.219 85V86.3H230.519V85H229.219ZM222.403 85H221.103V86.3H222.403V85ZM222.403 50.824V49.524H221.103V50.824H222.403ZM229.219 50.824H227.919V85H229.219H230.519V50.824H229.219ZM229.219 85V83.7H222.403V85V86.3H229.219V85ZM222.403 85H223.703V50.824H222.403H221.103V85H222.403ZM222.403 50.824V52.124H229.219V50.824V49.524H222.403V50.824ZM256.474 67.432L256.484 68.732L257.821 68.7219L257.774 67.3856L256.474 67.432ZM250.09 67.48L248.805 67.6777L248.976 68.7884L250.1 68.78L250.09 67.48ZM248.698 64.84L247.962 65.9113L247.985 65.9273L248.009 65.9424L248.698 64.84ZM242.554 64.696L243.257 65.7895L243.257 65.7895L242.554 64.696ZM242.698 68.392L242.117 69.5548L242.147 69.5697L242.177 69.583L242.698 68.392ZM246.826 69.544L246.548 70.8138L246.606 70.8266L246.665 70.834L246.826 69.544ZM247.594 69.688L247.183 70.9213L247.28 70.9535L247.381 70.9703L247.594 69.688ZM252.874 71.128L252.392 72.335L252.402 72.339L252.412 72.3428L252.874 71.128ZM255.178 72.472L254.304 73.4339L254.325 73.4528L254.346 73.4707L255.178 72.472ZM256.618 74.44L255.442 74.9935L255.449 75.0075L255.456 75.0214L256.618 74.44ZM254.218 83.464L253.446 82.4181L253.438 82.4239L253.431 82.4299L254.218 83.464ZM237.61 83.56L236.889 84.6417L236.9 84.6489L237.61 83.56ZM234.298 76.936V75.636H232.977L232.999 76.957L234.298 76.936ZM240.778 76.936L242.074 76.8243L241.971 75.636H240.778V76.936ZM249.37 80.248L248.621 79.1859L248.621 79.1859L249.37 80.248ZM249.466 76.024L248.855 77.1711L248.87 77.1791L248.885 77.1868L249.466 76.024ZM245.386 74.776L245.687 73.5114L245.539 73.476H245.386V74.776ZM245.002 74.68L245.584 73.5172L245.456 73.4534L245.318 73.4188L245.002 74.68ZM243.514 74.344L243.83 73.0828L243.792 73.0734L243.754 73.0663L243.514 74.344ZM241.93 74.008L242.341 72.7747L242.341 72.7747L241.93 74.008ZM240.442 73.576L240.085 74.826L240.085 74.826L240.442 73.576ZM238.906 73.048L238.185 74.1297L238.223 74.1545L238.261 74.1767L238.906 73.048ZM236.458 71.464L235.46 72.2962L235.465 72.3032L235.471 72.31L236.458 71.464ZM235.018 68.872L236.301 68.6583L236.299 68.6489L236.297 68.6394L235.018 68.872ZM237.706 61.48L236.966 60.4111L236.961 60.415L237.706 61.48ZM253.354 61.432L254.069 60.3463L254.054 60.3362L254.039 60.3267L253.354 61.432ZM256.474 67.432L256.465 66.132L250.081 66.18L250.09 67.48L250.1 68.78L256.484 68.732L256.474 67.432ZM250.09 67.48L251.375 67.2823C251.161 65.8876 250.63 64.5142 249.387 63.7376L248.698 64.84L248.009 65.9424C248.303 66.1258 248.636 66.5764 248.805 67.6777L250.09 67.48ZM248.698 64.84L249.435 63.7687C248.35 63.0227 246.933 62.772 245.386 62.772V64.072V65.372C246.72 65.372 247.511 65.6013 247.962 65.9113L248.698 64.84ZM245.386 64.072V62.772C244.087 62.772 242.831 62.9728 241.851 63.6025L242.554 64.696L243.257 65.7895C243.622 65.5552 244.286 65.372 245.386 65.372V64.072ZM242.554 64.696L241.851 63.6025C240.811 64.2711 240.246 65.305 240.246 66.52H241.546H242.846C242.846 66.199 242.954 65.9849 243.257 65.7895L242.554 64.696ZM241.546 66.52H240.246C240.246 67.1489 240.388 67.7662 240.727 68.3173C241.067 68.8689 241.554 69.2733 242.117 69.5548L242.698 68.392L243.28 67.2292C243.075 67.1267 242.986 67.0271 242.942 66.9547C242.897 66.8818 242.846 66.7551 242.846 66.52H241.546ZM242.698 68.392L242.177 69.583C243.077 69.9765 244.585 70.383 246.548 70.8138L246.826 69.544L247.105 68.2742C245.132 67.841 243.856 67.4795 243.219 67.201L242.698 68.392ZM246.826 69.544L246.665 70.834C246.839 70.8557 246.966 70.8757 247.057 70.893C247.152 70.9111 247.186 70.9223 247.183 70.9213L247.594 69.688L248.005 68.4547C247.733 68.3638 247.386 68.3038 246.988 68.254L246.826 69.544ZM247.594 69.688L247.381 70.9703C248.523 71.1607 249.423 71.3431 250.021 71.514L250.378 70.264L250.736 69.014C249.99 68.8009 248.97 68.5993 247.808 68.4057L247.594 69.688ZM250.378 70.264L250.021 71.514C250.649 71.6934 251.471 71.9669 252.392 72.335L252.874 71.128L253.357 69.921C252.358 69.5211 251.452 69.2186 250.736 69.014L250.378 70.264ZM252.874 71.128L252.412 72.3428C253.294 72.6788 253.915 73.0804 254.304 73.4339L255.178 72.472L256.053 71.5101C255.386 70.9036 254.471 70.3452 253.337 69.9132L252.874 71.128ZM255.178 72.472L254.346 73.4707C254.739 73.7982 255.115 74.2993 255.442 74.9935L256.618 74.44L257.795 73.8865C257.353 72.9487 256.77 72.1058 256.011 71.4733L255.178 72.472ZM256.618 74.44L255.456 75.0214C255.78 75.6708 255.942 76.424 255.942 77.32H257.242H258.542C258.542 76.104 258.32 74.9372 257.781 73.8586L256.618 74.44ZM257.242 77.32H255.942C255.942 79.5206 255.114 81.1875 253.446 82.4181L254.218 83.464L254.99 84.5099C257.355 82.7645 258.542 80.3034 258.542 77.32H257.242ZM254.218 83.464L253.431 82.4299C251.723 83.7308 249.306 84.42 245.914 84.42V85.72V87.02C249.627 87.02 252.682 86.2692 255.006 84.4981L254.218 83.464ZM245.914 85.72V84.42C242.742 84.42 240.269 83.7419 238.321 82.4711L237.61 83.56L236.9 84.6489C239.368 86.2581 242.367 87.02 245.914 87.02V85.72ZM237.61 83.56L238.331 82.4783C236.583 81.3129 235.64 79.5363 235.598 76.915L234.298 76.936L232.999 76.957C233.052 80.2877 234.317 82.9271 236.889 84.6417L237.61 83.56ZM234.298 76.936V78.236H240.778V76.936V75.636H234.298V76.936ZM240.778 76.936L239.483 77.0477C239.626 78.7086 240.253 80.1139 241.488 81.0713C242.685 81.9996 244.272 82.364 246.058 82.364V81.064V79.764C244.581 79.764 243.648 79.4564 243.081 79.0167C242.552 78.6061 242.17 77.9474 242.074 76.8243L240.778 76.936ZM246.058 81.064V82.364C247.572 82.364 248.989 82.1083 250.12 81.3101L249.37 80.248L248.621 79.1859C248.119 79.5397 247.329 79.764 246.058 79.764V81.064ZM249.37 80.248L250.12 81.3101C251.263 80.503 251.87 79.3957 251.87 77.992H250.57H249.27C249.27 78.5083 249.109 78.841 248.621 79.1859L249.37 80.248ZM250.57 77.992H251.87C251.87 77.3805 251.758 76.7564 251.448 76.1875C251.13 75.6048 250.648 75.1615 250.048 74.8612L249.466 76.024L248.885 77.1868C249.052 77.2705 249.123 77.3552 249.165 77.4325C249.215 77.5236 249.27 77.6915 249.27 77.992H250.57ZM249.466 76.024L250.078 74.8769C249.182 74.3989 247.661 73.9814 245.687 73.5114L245.386 74.776L245.085 76.0406C247.143 76.5306 248.311 76.8811 248.855 77.1711L249.466 76.024ZM245.386 74.776V73.476C245.454 73.476 245.499 73.4866 245.518 73.4918C245.539 73.4973 245.559 73.5047 245.584 73.5172L245.002 74.68L244.421 75.8428C244.639 75.9516 244.984 76.076 245.386 76.076V74.776ZM245.002 74.68L245.318 73.4188C245.193 73.3878 244.962 73.341 244.747 73.2949C244.504 73.2428 244.195 73.1741 243.83 73.0828L243.514 74.344L243.199 75.6052C243.602 75.7059 243.941 75.7812 244.202 75.8371C244.491 75.899 244.619 75.9242 244.687 75.9412L245.002 74.68ZM243.514 74.344L243.754 73.0663C242.922 72.9103 242.52 72.8344 242.341 72.7747L241.93 74.008L241.519 75.2413C241.916 75.3736 242.571 75.4897 243.275 75.6217L243.514 74.344ZM241.93 74.008L242.341 72.7747C242.018 72.6668 241.435 72.5077 240.8 72.326L240.442 73.576L240.085 74.826C240.793 75.0283 241.267 75.1572 241.519 75.2413L241.93 74.008ZM240.442 73.576L240.8 72.326C240.038 72.1085 239.714 72.012 239.551 71.9193L238.906 73.048L238.261 74.1767C238.771 74.468 239.502 74.6595 240.085 74.826L240.442 73.576ZM238.906 73.048L239.627 71.9663C239.415 71.8243 239.173 71.6979 238.967 71.5919C238.742 71.476 238.526 71.3687 238.281 71.2347L237.658 72.376L237.036 73.5173C237.318 73.6713 237.583 73.804 237.778 73.9041C237.992 74.014 238.11 74.0796 238.185 74.1297L238.906 73.048ZM237.658 72.376L238.281 71.2347C237.837 70.9925 237.597 70.7947 237.445 70.618L236.458 71.464L235.471 72.31C235.896 72.8053 236.424 73.1835 237.036 73.5173L237.658 72.376ZM236.458 71.464L237.457 70.6318C237.25 70.3833 236.989 70.0369 236.724 69.6389L235.642 70.36L234.561 71.0811C234.871 71.5471 235.187 71.9687 235.46 72.2962L236.458 71.464ZM235.642 70.36L236.724 69.6389C236.498 69.3005 236.357 68.9936 236.301 68.6583L235.018 68.872L233.736 69.0857C233.872 69.9024 234.21 70.5555 234.561 71.0811L235.642 70.36ZM235.018 68.872L236.297 68.6394C236.218 68.202 236.174 67.7055 236.174 67.096H234.874H233.574C233.574 67.8305 233.627 68.486 233.739 69.1046L235.018 68.872ZM234.874 67.096H236.174C236.174 65.0877 236.905 63.6277 238.452 62.545L237.706 61.48L236.961 60.415C234.668 62.0203 233.574 64.3043 233.574 67.096H234.874ZM237.706 61.48L238.446 62.5488C240.019 61.4602 242.409 60.812 245.722 60.812V59.512V58.212C242.123 58.212 239.138 58.9078 236.966 60.4111L237.706 61.48ZM245.722 59.512V60.812C248.605 60.812 250.9 61.4416 252.67 62.5373L253.354 61.432L254.039 60.3267C251.777 58.9264 248.984 58.212 245.722 58.212V59.512ZM253.354 61.432L252.639 62.5177C254.206 63.5492 255.092 65.1471 255.175 67.4784L256.474 67.432L257.774 67.3856C257.665 64.3409 256.439 61.9068 254.069 60.3463L253.354 61.432ZM285.568 77.32L286.818 77.6771L287.291 76.02H285.568V77.32ZM281.296 83.512L280.552 82.4458L280.544 82.4516L280.535 82.4575L281.296 83.512ZM264.736 82.168L265.673 81.2677L265.664 81.2583L264.736 82.168ZM264.784 63.256L265.73 64.1476L265.739 64.1378L264.784 63.256ZM282.64 63.352L281.658 64.2041L281.658 64.2041L282.64 63.352ZM285.952 74.344V75.644H287.252V74.344H285.952ZM268.192 74.344V73.044H266.892V74.344H268.192ZM269.728 79.24L270.706 78.3839L270.697 78.3736L270.688 78.3634L269.728 79.24ZM279.04 77.32V76.02H278.159L277.833 76.8372L279.04 77.32ZM278.992 70.024V71.324H280.411L280.287 69.9097L278.992 70.024ZM277.408 66.04L276.401 66.8632L276.412 66.8766L276.424 66.8897L277.408 66.04ZM269.92 65.944L269.023 65.0026L269 65.0245L268.978 65.0474L269.92 65.944ZM268.144 70.024L266.852 69.8804L266.691 71.324H268.144V70.024ZM285.568 77.32L284.318 76.9629C283.624 79.3899 282.349 81.1921 280.552 82.4458L281.296 83.512L282.039 84.5782C284.37 82.9519 285.975 80.6261 286.818 77.6771L285.568 77.32ZM281.296 83.512L280.535 82.4575C278.726 83.7622 276.554 84.42 273.904 84.42V85.72V87.02C277.013 87.02 279.738 86.2378 282.056 84.5665L281.296 83.512ZM273.904 85.72V84.42C270.395 84.42 267.687 83.3655 265.673 81.2677L264.736 82.168L263.798 83.0683C266.392 85.7705 269.828 87.02 273.904 87.02V85.72ZM264.736 82.168L265.664 81.2583C263.642 79.1942 262.58 76.4244 262.58 72.76H261.28H259.98C259.98 76.9676 261.221 80.4378 263.807 83.0777L264.736 82.168ZM261.28 72.76H262.58C262.58 69.2019 263.637 66.3685 265.73 64.1475L264.784 63.256L263.837 62.3645C261.226 65.1355 259.98 68.6381 259.98 72.76H261.28ZM264.784 63.256L265.739 64.1378C267.777 61.9297 270.396 60.812 273.712 60.812V59.512V58.212C269.731 58.212 266.398 59.5903 263.828 62.3742L264.784 63.256ZM273.712 59.512V60.812C277.119 60.812 279.722 61.9737 281.658 64.2041L282.64 63.352L283.621 62.4999C281.141 59.6423 277.792 58.212 273.712 58.212V59.512ZM282.64 63.352L281.658 64.2041C283.607 66.4499 284.652 69.5723 284.652 73.672H285.952H287.252C287.252 69.1317 286.088 65.3421 283.621 62.4999L282.64 63.352ZM285.952 73.672H284.652V74.344H285.952H287.252V73.672H285.952ZM285.952 74.344V73.044H268.192V74.344V75.644H285.952V74.344ZM268.192 74.344H266.892C266.892 76.7002 267.468 78.6927 268.768 80.1165L269.728 79.24L270.688 78.3634C269.972 77.5793 269.492 76.3078 269.492 74.344H268.192ZM269.728 79.24L268.749 80.0961C270.071 81.6068 271.916 82.22 274 82.22V80.92V79.62C272.435 79.62 271.4 79.1772 270.706 78.3839L269.728 79.24ZM274 80.92V82.22C275.425 82.22 276.72 81.8598 277.815 81.0779C278.903 80.3008 279.697 79.1757 280.247 77.8028L279.04 77.32L277.833 76.8372C277.422 77.8643 276.896 78.5392 276.304 78.9621C275.719 79.3802 274.974 79.62 274 79.62V80.92ZM279.04 77.32V78.62H285.568V77.32V76.02H279.04V77.32ZM278.992 70.024L280.287 69.9097C280.122 68.0428 279.504 66.479 278.391 65.1903L277.408 66.04L276.424 66.8897C277.135 67.713 277.573 68.7412 277.697 70.1383L278.992 70.024ZM277.408 66.04L278.414 65.2168C277.254 63.799 275.601 63.156 273.664 63.156V64.456V65.756C274.99 65.756 275.833 66.1689 276.401 66.8632L277.408 66.04ZM273.664 64.456V63.156C271.836 63.156 270.268 63.8167 269.023 65.0026L269.92 65.944L270.816 66.8854C271.587 66.1513 272.516 65.756 273.664 65.756V64.456ZM269.92 65.944L268.978 65.0474C267.799 66.2861 267.071 67.9058 266.852 69.8804L268.144 70.024L269.436 70.1676C269.6 68.6862 270.121 67.6179 270.861 66.8406L269.92 65.944ZM268.144 70.024V71.324H278.992V70.024V68.724H268.144V70.024Z" fill="black" mask="url(#path-3-outside-1_177_411)"/>
<path d="M11.8006 55.9393C13.7131 55.5527 15.2187 54.4947 15.9918 53.0095C16.6022 51.8294 16.6225 49.6321 16.0121 48.513C14.3234 45.3391 10.0101 44.5456 8.13832 47.0481C7.79244 47.5161 7.71106 47.923 7.71106 49.1234V50.629L7.32449 49.8762C6.49031 48.2689 6.10374 45.4408 6.51066 43.8335C6.75481 42.8366 7.73141 41.0258 8.36213 40.4561C8.89112 39.9678 10.5391 38.8488 10.7426 38.8488C10.7833 38.8488 10.7629 39.6219 10.7222 40.5782C10.5391 43.4876 11.0274 44.037 14.4659 44.7287C16.9481 45.2374 18.8402 45.2984 19.2064 44.8508C19.3489 44.688 19.6947 44.5456 19.9999 44.5456C21.3631 44.5456 21.8717 43.2638 20.9562 42.1651C20.5086 41.6362 18.9826 40.7409 17.9043 40.3951C17.6398 40.2933 17.5584 40.1509 17.6602 39.805C17.7212 39.5609 17.7822 38.9302 17.7822 38.4012V37.4449L19.7558 37.5466C20.8544 37.6077 22.1362 37.6891 22.6042 37.7501L23.4384 37.8518L23.9877 39.5202C24.2929 40.4358 24.8829 41.9413 25.3102 42.8569C25.9206 44.159 26.2461 44.627 26.8565 44.9932C28.0365 45.7257 28.2807 45.7867 30.6001 45.9698C33.0416 46.1529 34.6286 45.9698 34.9134 45.4815C35.0151 45.2984 35.361 45.156 35.6865 45.156C36.0935 45.156 36.3986 44.9932 36.6224 44.6473C36.9276 44.159 37.0497 44.1387 38.8198 44.1387C41.0578 44.1387 41.6682 43.8945 41.7496 42.9383C41.8513 41.982 40.5899 40.802 38.9215 40.334L37.7008 39.9678L37.7618 37.6484L37.8228 35.3086L38.4332 35.1458C38.7588 35.0645 40.5085 34.7186 42.2989 34.393C48.2602 33.274 52.9601 31.7277 56.0934 29.8763C57.9245 28.798 60.2846 26.5396 61.6478 24.5864C62.3395 23.6098 62.9703 22.9384 63.3568 22.7756C65.0862 22.0635 65.4931 20.1306 64.3741 17.9943C64.0282 17.3433 63.2958 16.2446 62.7465 15.5528C61.6681 14.21 58.7587 11.3819 58.4535 11.3819C58.3518 11.3819 58.0873 10.9954 57.8431 10.5071C56.1544 7.17036 53.5095 5.62408 49.5217 5.64443C48.4637 5.64443 47.2023 5.72581 46.7547 5.84788C45.9408 6.031 45.8594 6.01065 44.3132 4.93232C42.3396 3.5895 37.9856 1.4125 35.7883 0.68005C33.8758 0.0493305 30.8849 -0.194819 29.7252 0.171405C27.3854 0.944546 26.6123 3.42673 27.4465 7.41451C27.6093 8.18765 27.7517 8.85906 27.7517 8.87941C27.7517 8.9201 27.2634 8.94045 26.6733 8.96079C26.1037 8.96079 25.066 9.04218 24.3946 9.1439C23.1942 9.30667 23.1739 9.28633 22.5431 8.63526C20.8138 6.80414 19.532 7.10932 19.3285 9.38805C19.2878 9.95774 19.1454 10.2833 18.9623 10.324C18.7995 10.3647 17.9857 10.0188 17.1515 9.57117C16.3173 9.10321 15.4221 8.73699 15.1373 8.73699C14.1607 8.73699 14.0183 9.00148 14.0386 10.6698C14.0589 12.033 14.0386 12.1958 13.7334 12.0737C11.8413 11.2599 10.8647 11.1785 10.2543 11.7889C9.80668 12.2365 9.72529 13.091 10.0508 13.9252L10.2543 14.4745L8.99284 14.3321C7.26345 14.1693 6.71412 14.4542 6.63273 15.5935C6.59204 16.0615 6.71411 16.7532 6.87688 17.1602L7.18207 17.9129L6.10374 19.3168C4.1302 21.8804 2.4008 25.6444 1.30213 29.7949C0.203456 33.9047 -1.02799e-06 35.5528 -1.02799e-06 40.0695C-1.02799e-06 45.0949 0.244146 46.3971 1.6887 49.3269C3.35705 52.6839 5.98167 55.1254 8.76904 55.8375C10.0305 56.1631 10.5391 56.1834 11.8006 55.9393ZM7.71106 54.2099C5.83924 53.3146 3.94708 51.2597 2.82806 48.9606C1.44455 46.0919 1.22075 44.9322 1.22075 40.1713C1.22075 35.7359 1.32248 34.9017 2.64495 29.5914C3.41809 26.4989 4.82195 23.2435 6.40893 20.9241C7.65002 19.0727 10.6815 16.1429 12.7161 14.7797C16.5004 12.2772 21.4445 10.6088 26.2257 10.2629L28.0569 10.1205L29.2369 14.4745C30.4577 19.0116 31.0884 20.5986 31.6988 20.7003C32.0243 20.7614 32.065 20.6596 31.9836 19.8865C31.9226 19.4185 31.6377 18.1978 31.3325 17.1805C31.0274 16.1836 30.2746 13.3758 29.6642 10.975C28.362 5.90892 28.1179 3.77261 28.7079 2.63325C30.0304 0.110368 34.832 0.944546 42.2786 5.03405L44.6794 6.35653L43.0721 7.19071C40.3661 8.59457 38.7384 9.97808 38.7384 10.8733C38.7384 11.4023 39.2064 11.2192 40.6713 10.1408C43.7842 7.84177 46.9174 6.78379 50.0914 6.94656C53.4281 7.10932 55.2795 8.39111 56.9886 11.7889C58.0059 13.8031 58.3721 14.149 58.6366 13.4165C58.779 13.0096 58.9011 13.091 60.1625 14.4338C63.0313 17.4653 64.1707 19.6423 63.6417 21.0462C63.2551 22.0228 60.6508 22.5925 54.3843 23.0808C43.8859 23.8743 42.4617 24.037 40.8137 24.6474C39.5929 25.095 39.3895 25.624 40.4068 25.624C40.773 25.624 41.6072 25.5426 42.2582 25.4205C44.1504 25.1154 47.0192 24.8509 52.8787 24.4033C55.8899 24.1591 58.9621 23.8946 59.6742 23.7725C60.3863 23.6708 61.0171 23.6098 61.0781 23.6708C61.1188 23.7318 60.2236 24.7288 59.0639 25.8885C55.1778 29.7542 50.9052 31.626 42.1972 33.2537C40.1219 33.6606 37.2939 34.332 35.89 34.7796C31.536 36.1428 29.7863 36.4683 29.7863 35.919C29.7863 35.7562 30.417 34.9424 31.1901 34.1082C33.1026 32.0533 33.4688 31.3005 32.4312 31.626C31.7801 31.8295 29.3997 34.1489 28.9521 35.0034C28.4231 36.0614 28.4638 37.2822 29.0945 39.276C29.7863 41.4937 30.2135 41.8803 32.7364 42.6941C33.8554 43.0604 34.9541 43.4876 35.1575 43.63C35.8696 44.159 35.3 44.2201 34.2013 43.7521C31.8005 42.6738 30.9256 43.1824 32.9602 44.4642L33.7537 44.9729L31.2918 44.8915C29.2776 44.8304 28.6469 44.7287 27.8941 44.3625C26.9989 43.9352 26.9378 43.8538 26.063 41.6158C24.9033 38.7267 24.4963 37.1804 24.4963 35.6341C24.4963 33.4775 24.944 32.8468 28.0976 30.4867C29.9083 29.1438 30.417 28.4724 29.6235 28.4724C28.7486 28.4724 25.0457 31.097 24.2115 32.2974C23.5401 33.2944 23.2756 34.1692 23.2756 35.5731V36.6718L20.9765 36.5294C17.6805 36.3259 17.8636 36.4073 17.7212 34.861C17.3346 30.8325 13.6113 28.798 9.9084 30.6087C7.97555 31.565 6.20547 33.7623 6.18512 35.2272C6.18512 36.3666 6.73446 36.1224 7.46691 34.6779C9.23699 31.2191 13.4282 30.0594 15.5238 32.4399C16.3784 33.4164 16.5615 34.2913 16.5615 37.4246C16.5615 38.9302 16.6429 40.2933 16.7446 40.4358C16.826 40.5985 17.6398 41.1885 18.5147 41.7582C20.8341 43.2842 20.5696 44.159 18.2298 42.6941C17.6195 42.3279 16.9074 42.0634 16.4801 42.0431C15.1576 42.0024 15.2594 42.45 16.7649 43.2231C17.7212 43.7114 18.2095 44.1387 17.8229 44.1387C17.3753 44.1387 13.9572 43.508 13.3062 43.2842C11.8616 42.8366 11.8006 42.7145 12.004 39.8661C12.2075 36.8345 12.2075 35.4307 12.004 35.2272C11.7599 35.0034 11.3326 35.7359 11.1902 36.6107C11.0681 37.3635 10.9664 37.4653 9.82702 38.0349C7.52794 39.215 6.26651 40.7409 5.49337 43.3045C4.6185 46.2343 5.61544 50.3645 7.62968 52.1753C9.82702 54.1488 13.4893 53.2943 13.5706 50.7918C13.6317 48.6758 11.7395 47.4957 10.2746 48.7368C9.76598 49.1641 9.64391 49.4083 9.64391 50.1C9.64391 50.8528 9.60322 50.9138 9.33872 50.629C9.17596 50.4662 8.95215 50.0593 8.87077 49.7338C8.44351 48.2485 9.60322 46.7836 11.1902 46.7836C14.2217 46.7836 16.1749 49.7134 14.9542 52.3991C13.8962 54.7185 10.4984 55.573 7.71106 54.2099ZM10.9054 51.1987C10.6002 50.2017 10.7222 49.7134 11.3326 49.51C11.8209 49.3472 12.4923 50.039 12.4923 50.69C12.4923 51.0766 11.6581 52.0736 11.3326 52.0736C11.2309 52.0736 11.0478 51.687 10.9054 51.1987ZM35.8493 42.7552C35.6865 42.6331 35.1575 42.3483 34.6489 42.1448C33.7944 41.7786 33.6927 41.6362 33.4688 40.7409C33.3264 40.2119 33.1637 39.1133 33.1026 38.3198L32.9805 36.8752L34.8931 36.2649C35.951 35.9393 36.8259 35.6748 36.8462 35.6748C36.8666 35.6952 36.7852 36.3666 36.6835 37.1804C36.5614 37.9943 36.5004 39.0522 36.5411 39.5202C36.6021 40.3747 36.6021 40.3747 38.2705 41.1885C40.5085 42.2872 41.0375 42.7755 40.2033 42.979C39.5319 43.1621 36.1138 42.979 35.8493 42.7552ZM31.5563 41.2089C30.9867 40.9851 30.8442 40.7409 30.417 39.4388C30.1525 38.6046 29.888 37.8315 29.8473 37.7094C29.8066 37.5873 30.2542 37.4042 30.8646 37.3025L31.9836 37.099L32.0853 38.8284C32.1464 39.7847 32.2481 40.7816 32.3295 41.0461C32.5126 41.5751 32.4312 41.5955 31.5563 41.2089ZM7.81279 15.9191C7.81279 15.5121 7.91452 15.4511 8.66731 15.4511H9.52183L8.83008 16.1632C8.09763 16.916 7.81279 16.8346 7.81279 15.9191ZM11.1698 13.3962C11.0885 13.0503 11.1088 12.6841 11.1902 12.6027C11.3936 12.3992 13.1027 12.5823 13.1027 12.8061C13.1027 12.9689 11.6785 13.9862 11.4343 14.0066C11.3733 14.0269 11.2512 13.7421 11.1698 13.3962ZM15.1373 10.6291C15.1373 9.83566 15.2187 9.83566 16.5004 10.385L17.477 10.8123L16.4598 11.3006C15.3407 11.8296 15.1373 11.7278 15.1373 10.6291ZM20.5696 8.85906C20.712 8.59457 20.8341 8.61491 21.4445 9.00148L22.1362 9.44909L21.3427 9.6729C20.6103 9.87635 20.5289 9.85601 20.4679 9.53048C20.4272 9.32702 20.4679 9.02183 20.5696 8.85906Z" fill="black"/>
<path d="M51.1694 21.0666C55.1164 19.561 56.7848 16.4074 55.7268 12.501C54.8723 9.28634 52.4918 7.78075 48.5447 7.96386C46.266 8.06559 45.0046 8.57424 43.6211 9.95775C42.2375 11.3413 41.8917 12.2161 41.8917 14.4338C41.8917 16.2039 41.9527 16.4684 42.5427 17.5874C43.2141 18.8896 44.5163 20.2527 45.676 20.8631C46.5915 21.3514 50.1114 21.4735 51.1694 21.0666ZM46.4288 19.8458C45.147 19.2354 44.0687 18.1368 43.3973 16.7736C42.8072 15.5935 42.7665 15.3087 42.8479 14.1286C43.0514 11.7889 44.618 9.95775 47.0595 9.2253C49.1348 8.59458 52.0646 9.20496 53.4277 10.5071C54.7299 11.7482 55.2589 15.1866 54.4247 16.9771C53.7533 18.4623 52.207 19.6627 50.3962 20.1307C49.3179 20.3951 47.2833 20.2527 46.4288 19.8458Z" fill="black"/>
<path d="M51.9015 15.4308C52.3898 15.2476 52.8578 14.0676 52.6543 13.4979C52.2678 12.4196 50.9453 12.033 49.9687 12.7248C49.4193 13.1113 49.3583 14.1897 49.8669 14.8204C50.3146 15.3494 51.3115 15.6546 51.9015 15.4308ZM50.9656 14.6576C50.7215 14.4948 50.7215 14.4135 50.9249 14.149C51.0877 13.9659 51.3115 13.8234 51.4539 13.8234C51.8201 13.8234 51.9829 14.3321 51.6981 14.6169C51.4336 14.8814 51.3318 14.8814 50.9656 14.6576Z" fill="black"/>
<path d="M60.4263 19.093C60.5687 18.8488 59.9177 17.8722 59.4904 17.7298C59.2869 17.6484 59.2666 17.7705 59.3683 18.2181C59.6125 19.1744 60.1211 19.5813 60.4263 19.093Z" fill="black"/>
<path d="M37 40C40.5 41.2903 47.6 46.0968 48 55" stroke="black" stroke-width="1.3"/>
<path d="M10 46.5L12.4 43.5" stroke="black" stroke-width="1.3"/>
<path d="M17.5 40C19 39.3333 22.4 38 24 38" stroke="black" stroke-width="1.3"/>
<path d="M29.5 38C30.5 38.3333 32.6 39 33 39" stroke="black" stroke-width="1.4"/>
</svg>
