<?xml version="1.0" encoding="utf-8"?>
<!DOCTYPE svg PUBLIC "-//W3C//DTD SVG 1.0//EN" "http://www.w3.org/TR/2001/REC-SVG-20010904/DTD/svg10.dtd">
<svg version="1.0" xmlns="http://www.w3.org/2000/svg" width="394px" height="252px" viewBox="0 0 394 252" preserveAspectRatio="xMidYMid meet">
 <g fill="#000000">
  <path d="M 325.08 235.35 c -0.68 -0.15 -1.75 -0.45 -2.35 -0.68 -0.60 -0.20 -1.75 -0.52 -2.58 -0.68 -1.10 -0.22 -1.50 -0.43 -1.58 -0.77 -0.08 -0.28 -0.68 -0.77 -1.35 -1.10 -0.65 -0.35 -1.35 -0.82 -1.52 -1.10 -0.17 -0.25 -1.13 -1 -2.08 -1.65 -0.98 -0.68 -1.92 -1.45 -2.13 -1.73 -0.20 -0.30 -0.90 -1.05 -1.55 -1.67 -0.68 -0.65 -1.20 -1.33 -1.20 -1.55 0 -0.20 -0.40 -0.88 -0.90 -1.45 -0.50 -0.60 -1.17 -1.65 -1.52 -2.35 -0.32 -0.68 -0.82 -1.65 -1.10 -2.17 -0.28 -0.50 -0.60 -1.52 -0.73 -2.28 -0.13 -0.77 -0.50 -2 -0.85 -2.78 -1.50 -3.25 -1.58 -14.60 -0.13 -17.45 0.28 -0.52 0.60 -1.55 0.73 -2.25 0.35 -1.83 2.15 -5.35 3.63 -7.13 0.47 -0.57 1 -1.33 1.15 -1.67 0.17 -0.35 0.38 -0.65 0.47 -0.65 0.25 0 2.42 -1.92 3.47 -3.10 0.50 -0.52 1.48 -1.23 2.15 -1.58 0.70 -0.35 1.48 -0.82 1.75 -1.08 0.28 -0.22 1.08 -0.65 1.75 -0.90 1.08 -0.40 1.90 -0.47 6 -0.43 4.20 0.03 4.88 0.10 5.90 0.55 0.65 0.28 1.30 0.70 1.50 0.93 0.17 0.22 0.95 0.68 1.70 1 1.70 0.75 4.38 3.10 5.05 4.40 0.28 0.55 0.93 1.48 1.45 2.03 1.35 1.52 2.10 2.60 3 4.30 0.45 0.82 1.08 1.95 1.40 2.50 0.80 1.33 1.05 3.25 0.55 4.43 -0.52 1.23 -2.03 2.60 -3.67 3.38 -0.75 0.35 -1.42 0.70 -1.50 0.80 -0.50 0.73 -2.13 1.40 -4.57 1.95 -2.05 0.45 -2.97 0.77 -3.45 1.23 -0.47 0.47 -0.90 0.60 -1.88 0.60 -0.68 0 -2.03 0.17 -2.97 0.38 -0.98 0.20 -2.20 0.38 -2.75 0.38 -0.68 0 -1.35 0.22 -2.10 0.73 -1.10 0.73 -1.10 0.73 -0.38 0.88 0.40 0.05 -0.05 0.08 -1.02 0 -2.70 -0.15 -4.75 0.30 -5.50 1.20 -1.08 1.27 -0.68 3.90 0.88 5.88 0.28 0.35 0.50 0.85 0.50 1.10 0 0.25 0.68 1.20 1.50 2.13 1.08 1.23 1.83 1.83 2.65 2.13 0.63 0.25 1.38 0.65 1.65 0.90 0.47 0.43 1.33 0.45 13.30 0.45 13.77 0 13.52 -0.03 14.13 1.30 1.02 2.22 -0.80 5.13 -4.57 7.40 -2.22 1.33 -4.22 2.30 -5.20 2.55 -0.35 0.10 -0.90 0.45 -1.23 0.77 -0.40 0.43 -0.82 0.60 -1.52 0.60 -0.50 0 -1.88 0.17 -3 0.38 -7.10 1.33 -7.57 1.38 -9.38 0.98 z  m -1.45 -40.70 c 1.48 -0.10 2.90 -0.65 4.13 -1.63 0.60 -0.47 0.60 -0.47 -0.60 -1.73 -1.02 -1.05 -1.50 -1.35 -2.80 -1.70 -2.10 -0.55 -4.40 -0.38 -5.25 0.43 -0.32 0.30 -0.82 0.68 -1.15 0.82 -0.60 0.30 -1.10 1.13 -1.30 2.17 -0.10 0.43 -0.35 0.73 -0.70 0.82 -0.32 0.08 -0.70 0.35 -0.88 0.63 -0.30 0.45 -0.20 0.47 3.38 0.38 2.03 -0.08 4.35 -0.15 5.18 -0.20 z "/>
  <path d="M380.20 223.60 C 380.20 229.70 375.25 234.65 369.15 234.65 363.05 234.65 358.13 229.70 358.13 223.60 358.13 217.50 363.05 212.55 369.15 212.55 375.25 212.55 380.20 217.50 380.20 223.60 Z M366.50 234.10 "/>
  <path d="M 279.60 232.55 c -1 -1 -1.80 -2.10 -2.45 -3.45 -0.55 -1.08 -1.08 -2.20 -1.23 -2.45 -0.13 -0.25 -0.30 -1.38 -0.40 -2.50 -0.25 -2.63 -0.03 -14.43 0.25 -14.25 0.13 0.08 0.22 0 0.22 -0.15 0 -0.15 0.13 -0.20 0.25 -0.13 0.15 0.08 0.25 0.05 0.25 -0.08 0 -0.98 0.82 -8.07 1.10 -9.68 0.20 -1.10 0.50 -2.88 0.65 -3.92 0.25 -1.75 0.82 -3.63 1.83 -6 0.47 -1.13 1.02 -1.33 3.92 -1.33 2.83 0 3.50 0.35 4 2 0.28 1.02 0.35 3.63 0.35 14.25 0.03 7.15 -0.08 15.57 -0.20 18.70 -0.20 5.70 -0.20 5.70 -1.17 6.93 -0.55 0.68 -0.98 1.30 -0.98 1.40 0 0.08 -0.35 0.60 -0.77 1.13 -0.75 0.95 -0.80 0.98 -2.45 0.98 -1.70 0 -1.70 0 -3.17 -1.45 z "/>
  <path d="M 248.88 227.80 c -0.55 -0.05 -1.23 -0.28 -1.50 -0.52 -0.28 -0.25 -0.68 -0.52 -0.93 -0.60 -0.45 -0.15 -3.70 -4.10 -4.22 -5.13 -0.17 -0.38 -0.70 -1.10 -1.15 -1.63 -0.45 -0.50 -0.82 -1.05 -0.82 -1.20 0 -0.15 -0.63 -1.58 -1.40 -3.17 -2.80 -5.82 -3.08 -6.45 -3.35 -7.47 -0.15 -0.57 -0.52 -1.38 -0.85 -1.75 -0.32 -0.40 -0.77 -1.27 -0.98 -1.95 -0.47 -1.60 -1.38 -3.65 -1.77 -4.13 -0.35 -0.40 -0.65 -1.40 -0.82 -2.63 -0.05 -0.40 -0.35 -1.30 -0.70 -2 -0.32 -0.68 -0.90 -2.20 -1.25 -3.38 -0.38 -1.17 -0.95 -2.60 -1.27 -3.17 -0.32 -0.57 -0.60 -1.30 -0.60 -1.65 0 -0.93 -0.95 -3.47 -1.52 -4.07 -0.35 -0.38 -0.68 -1.35 -0.98 -2.80 -0.25 -1.23 -0.75 -2.95 -1.13 -3.83 -0.65 -1.55 -1.30 -3.88 -1.88 -6.78 -0.20 -1.02 -0.45 -1.52 -0.90 -1.80 -0.57 -0.40 -0.60 -0.52 -0.60 -3.03 0 -1.48 0.10 -2.63 0.22 -2.63 0.15 0 0.82 -0.55 1.52 -1.23 1.45 -1.38 2 -1.55 4.07 -1.27 1.75 0.25 2.30 0.60 3.72 2.28 0.60 0.70 1.50 1.77 2.03 2.40 0.50 0.60 0.93 1.38 0.93 1.67 0 0.32 0.32 1.30 0.75 2.17 0.40 0.88 1.02 2.60 1.38 3.83 0.35 1.25 0.80 2.42 1 2.65 0.20 0.22 0.65 1.52 1 2.88 0.38 1.42 0.95 2.95 1.38 3.58 0.50 0.75 0.75 1.52 0.88 2.63 0.20 1.98 0.55 3.10 1.25 4.05 0.55 0.75 1.63 3.83 1.63 4.65 0 0.70 0.52 1.67 1.13 2.08 0.40 0.28 0.63 0.80 0.88 2.20 0.30 1.70 1.58 4.32 1.98 4.07 0.10 -0.05 0.47 -0.80 0.88 -1.67 0.40 -0.88 0.85 -1.85 1.02 -2.20 0.52 -1.02 0.85 -2.28 1.10 -4.10 0.17 -1.13 0.45 -2.03 0.88 -2.63 0.73 -1.05 1.48 -3.85 1.10 -4.22 -0.15 -0.15 -0.13 -0.88 0.08 -1.95 0.17 -0.95 0.35 -1.58 0.40 -1.40 0.08 0.15 0.22 0.25 0.35 0.15 0.13 -0.08 0.22 0.03 0.22 0.22 0 0.17 0.17 0.35 0.38 0.35 0.38 0 0.88 -1.38 1.25 -3.42 0.10 -0.47 0.60 -1.77 1.13 -2.88 0.52 -1.10 1.13 -2.40 1.35 -2.88 1.13 -2.35 4.28 -6.95 5.32 -7.80 0.50 -0.38 1.20 -0.70 1.55 -0.70 0.35 0 1 -0.10 1.42 -0.22 1.38 -0.40 3 0.17 4.10 1.40 1.42 1.63 1.55 3.72 0.35 6.53 -0.20 0.52 -0.55 2 -0.75 3.30 -0.28 1.85 -0.50 2.60 -1.08 3.40 -0.38 0.55 -0.85 1.63 -1.02 2.38 -0.17 0.75 -0.68 2.20 -1.13 3.22 -0.47 1.02 -0.93 2.50 -1.02 3.25 -0.13 0.88 -0.38 1.58 -0.75 1.98 -0.32 0.35 -0.80 1.30 -1.08 2.13 -0.73 2.25 -1.23 3.60 -1.95 5.10 -0.40 0.88 -0.73 2.20 -0.95 3.88 -0.22 1.98 -0.50 2.92 -1.10 4.15 -0.63 1.20 -0.90 2.22 -1.15 4.15 -0.20 1.40 -0.57 3.20 -0.88 4.03 -0.30 0.80 -0.70 2.33 -0.90 3.35 -0.70 3.55 -1.17 5.38 -1.52 5.78 -0.17 0.22 -0.52 1 -0.77 1.73 -0.63 1.92 -1.65 2.53 -3.92 2.30 z  m 2.80 -42.85 c -0.08 -0.20 -0.15 -0.13 -0.15 0.15 -0.03 0.28 0.05 0.43 0.13 0.32 0.08 -0.08 0.10 -0.30 0.03 -0.47 z "/>
  <path d="M 107.15 221.57 c -0.82 -0.13 -3.05 -1.48 -3.67 -2.22 -0.75 -0.88 -2.67 -4.22 -3.13 -5.35 -0.22 -0.63 -0.57 -1.30 -0.75 -1.50 -0.17 -0.20 -0.65 -1.25 -1.08 -2.35 -0.43 -1.08 -0.93 -2.15 -1.10 -2.38 -0.60 -0.65 -1.10 -1.83 -1.42 -3.28 -0.17 -0.75 -0.63 -1.90 -1.02 -2.53 -0.40 -0.63 -0.90 -1.75 -1.13 -2.47 -0.22 -0.73 -0.77 -2.13 -1.23 -3.13 -0.47 -0.98 -0.93 -2.10 -1 -2.53 -0.08 -0.40 -0.43 -1.35 -0.75 -2.10 -0.32 -0.75 -1 -2.38 -1.52 -3.63 -0.50 -1.23 -1.20 -2.88 -1.52 -3.63 -0.35 -0.75 -0.82 -2.10 -1.10 -2.97 -0.25 -0.88 -0.63 -1.83 -0.82 -2.15 -0.20 -0.30 -0.65 -1.55 -1.02 -2.78 -0.38 -1.23 -0.95 -2.72 -1.27 -3.35 -0.32 -0.63 -0.82 -1.90 -1.13 -2.88 -0.30 -0.95 -0.75 -2.10 -1 -2.53 -0.25 -0.43 -0.65 -1.50 -0.88 -2.38 -0.22 -0.88 -0.77 -2.33 -1.25 -3.22 -0.45 -0.90 -1 -2.38 -1.20 -3.28 -0.20 -0.93 -0.77 -2.40 -1.25 -3.25 -0.45 -0.88 -0.98 -2.22 -1.15 -2.97 -0.17 -0.75 -0.60 -1.92 -0.93 -2.60 -0.35 -0.68 -0.80 -1.80 -1 -2.50 -0.20 -0.70 -0.60 -1.73 -0.85 -2.28 -0.25 -0.55 -0.80 -2 -1.25 -3.22 -0.43 -1.23 -0.93 -2.47 -1.13 -2.78 -0.20 -0.30 -0.68 -1.52 -1.10 -2.72 -0.40 -1.20 -1.05 -2.75 -1.48 -3.47 -0.40 -0.73 -0.88 -1.85 -1.05 -2.55 -0.15 -0.68 -0.55 -1.75 -0.85 -2.38 -0.32 -0.63 -0.93 -2.05 -1.38 -3.17 -0.43 -1.15 -0.88 -2.13 -1 -2.20 -0.13 -0.08 -0.45 -0.65 -0.73 -1.25 -0.28 -0.63 -0.60 -1.13 -0.70 -1.13 -0.90 0 -6.57 0.80 -8.07 1.13 -5.15 1.13 -10.77 1.23 -15.18 0.25 -0.93 -0.20 -2.80 -0.60 -4.15 -0.90 -1.35 -0.28 -3.10 -0.80 -3.88 -1.15 -0.77 -0.35 -2.05 -0.85 -2.80 -1.10 -0.73 -0.28 -1.40 -0.57 -1.50 -0.68 -0.22 -0.30 -1.83 -1.42 -3.08 -2.15 -1.20 -0.68 -4.15 -3.53 -5.40 -5.15 -0.35 -0.47 -0.77 -0.98 -0.95 -1.13 -0.35 -0.28 -2.10 -3.25 -2.80 -4.75 -0.85 -1.77 -2.22 -5.70 -2.53 -7.25 -0.45 -2.35 -0.63 -12.73 -0.25 -17.40 0.25 -3.58 0.40 -4.38 1.10 -6.22 0.45 -1.17 0.95 -2.67 1.13 -3.35 0.63 -2.55 3.95 -9.77 5.70 -12.40 1.58 -2.38 1.95 -2.90 3.22 -4.57 2.60 -3.38 5.53 -6.57 12.38 -13.43 3.83 -3.85 7.30 -6.68 8.65 -7.10 0.30 -0.10 1.10 -0.63 1.75 -1.17 0.65 -0.52 1.33 -0.98 1.48 -0.98 0.15 0 1.70 -0.95 3.47 -2.13 3.35 -2.22 3.88 -2.53 10.13 -5.97 0.90 -0.47 1.98 -0.90 2.38 -0.90 0.45 0 1.30 -0.38 2.08 -0.88 0.70 -0.50 1.83 -1 2.47 -1.13 0.68 -0.13 1.83 -0.50 2.58 -0.85 0.75 -0.35 2.17 -0.82 3.13 -1.05 0.98 -0.22 2.33 -0.57 3 -0.75 5.80 -1.63 8.38 -1.92 16.50 -1.95 7.95 -0.03 10.18 0.22 14.63 1.65 3.35 1.08 5.80 2.30 8.30 4.13 2.38 1.75 3.35 2.72 5.30 5.32 1.85 2.47 2.38 3.42 2.90 5.13 0.17 0.55 0.55 1.40 0.85 1.88 1.15 1.80 1.27 2.88 1.25 11 0 8.13 -0.17 9.73 -1.23 12.10 -0.32 0.73 -0.77 2.22 -0.98 3.30 -0.20 1.15 -0.75 2.70 -1.25 3.72 -0.50 0.95 -0.90 1.90 -0.90 2.15 0 0.57 -4.95 10.30 -6.07 11.95 -0.50 0.73 -0.93 1.45 -0.93 1.60 0 0.15 -0.43 0.77 -0.95 1.40 -0.52 0.63 -1.35 1.73 -1.83 2.40 -1.98 2.90 -3.90 5.32 -6.07 7.72 -2.72 2.97 -4.65 5.53 -4.65 6.15 0 0.25 0.35 1.27 0.77 2.28 1.33 3.17 1.45 4.03 1.73 10.48 0.38 8.80 0.65 12.63 0.90 13.02 0.75 1.20 1.10 3.85 1.35 10.32 0.22 5.72 0.35 7.18 0.90 9.60 0.35 1.60 0.75 3.15 0.88 3.47 0.13 0.32 0.22 1.08 0.22 1.65 0 0.57 0.13 1.50 0.28 2.05 0.13 0.55 0.35 3.20 0.47 5.88 0.13 2.67 0.40 5.55 0.60 6.38 0.38 1.60 0.90 6.43 1.52 14.25 0.20 2.65 0.65 6.07 1 7.75 0.47 2.28 0.70 4.28 0.88 8.38 0.35 8.15 0.65 10.68 1.40 11.82 0.63 0.95 0.65 1.08 0.68 6.25 0.05 5.80 0.05 5.78 -1.63 8.30 -1.77 2.65 -2.90 3.15 -6.05 2.70 z  m -4.65 -31.38 c 0 -4.43 -0.38 -9.25 -0.77 -9.98 -0.43 -0.80 -0.95 -5.43 -1.10 -9.73 -0.20 -4.85 -0.68 -8.98 -1.52 -13.13 -0.47 -2.28 -0.68 -4.32 -0.85 -8.45 -0.22 -5.65 -0.70 -9.23 -1.55 -11.80 -0.40 -1.27 -0.52 -2.67 -0.73 -9.50 -0.22 -7.65 -0.45 -11.50 -1 -15.63 -0.13 -1.02 -0.32 -3.22 -0.47 -4.85 -0.13 -1.63 -0.35 -3.10 -0.47 -3.22 -0.32 -0.32 -2.13 0.22 -2.58 0.77 -0.17 0.20 -1.52 1.20 -3 2.22 -1.50 1.02 -2.70 1.95 -2.70 2.08 0 0.10 -0.38 0.38 -0.85 0.60 -0.47 0.22 -1.42 0.77 -2.13 1.20 -3.38 2.17 -4.28 2.70 -5.80 3.40 -1.70 0.75 -4.47 2.65 -4.47 3.03 0 0.28 1.10 2.60 1.88 4 0.35 0.60 0.63 1.40 0.63 1.75 0 0.35 0.45 1.60 1 2.78 0.55 1.17 1 2.28 1 2.45 0 0.17 0.50 1.42 1.13 2.75 0.60 1.35 1.30 3.15 1.50 4 0.22 0.88 0.70 2.15 1.02 2.83 0.35 0.68 0.85 1.92 1.13 2.75 0.28 0.85 0.85 2.13 1.25 2.85 0.40 0.70 0.73 1.52 0.73 1.83 0 0.82 0.73 2.78 1.42 3.83 0.38 0.57 0.70 1.55 0.85 2.63 0.17 1.17 0.50 2.15 1.05 3.10 0.45 0.75 0.98 1.95 1.17 2.63 0.17 0.70 0.68 2.05 1.08 3 0.40 0.98 0.95 2.53 1.23 3.45 0.25 0.95 0.77 2.35 1.17 3.13 0.38 0.77 0.85 2 1.02 2.67 0.17 0.70 0.65 1.90 1.05 2.72 0.40 0.80 0.90 2.17 1.08 3.05 0.17 0.85 0.68 2.22 1.08 3.03 0.43 0.80 1 2.25 1.33 3.20 0.30 0.98 0.85 2.38 1.23 3.13 0.38 0.75 0.77 1.65 0.88 2 0.10 0.35 0.55 1.42 1 2.38 0.45 0.98 0.90 2.15 0.98 2.63 0.30 1.48 0.68 2.50 0.93 2.50 0.13 0 0.22 -1.75 0.22 -4.05 z  m -48.35 -79.43 c 2.58 -0.15 3.20 -0.28 4.32 -0.85 0.70 -0.38 2.22 -0.88 3.35 -1.08 1.40 -0.28 2.47 -0.65 3.42 -1.25 0.75 -0.45 1.88 -1 2.50 -1.17 0.63 -0.17 1.60 -0.65 2.20 -1 0.57 -0.38 1.65 -0.95 2.38 -1.27 1.40 -0.63 7.57 -4.32 8.70 -5.22 0.38 -0.30 1.63 -1.23 2.72 -2.05 3.13 -2.30 6.25 -5.07 10.57 -9.48 3.50 -3.55 7.53 -8.38 8.43 -10.13 0.17 -0.35 0.60 -0.90 0.93 -1.25 0.32 -0.35 0.77 -0.98 1 -1.40 0.22 -0.40 0.77 -1.20 1.23 -1.77 0.47 -0.55 1.08 -1.58 1.38 -2.25 0.30 -0.68 0.80 -1.55 1.10 -1.98 0.70 -0.95 2.70 -4.97 3.13 -6.28 0.17 -0.52 0.63 -1.67 1.02 -2.55 0.40 -0.85 0.90 -2.25 1.10 -3.10 0.22 -0.85 0.75 -2.45 1.15 -3.55 1 -2.78 1.48 -8.70 0.98 -12.35 -0.32 -2.40 -0.77 -3.88 -1.25 -4.18 -0.13 -0.08 -0.35 -0.60 -0.50 -1.13 -0.32 -1.17 -3 -4.63 -4.10 -5.28 -0.43 -0.25 -1.20 -0.75 -1.70 -1.13 -1.02 -0.75 -3.60 -1.83 -6.50 -2.72 -1.80 -0.55 -2.35 -0.60 -8.75 -0.63 -7.53 -0.08 -8.70 0.05 -13.68 1.38 -1.85 0.47 -3.53 0.88 -3.75 0.88 -0.20 0 -1.27 0.43 -2.38 0.98 -1.13 0.52 -2.63 1.02 -3.35 1.13 -0.80 0.10 -1.77 0.45 -2.45 0.90 -0.65 0.40 -1.50 0.80 -1.90 0.88 -0.95 0.22 -2.95 1.08 -3.45 1.50 -0.20 0.17 -1.05 0.55 -1.85 0.85 -0.82 0.30 -1.80 0.82 -2.20 1.15 -0.38 0.32 -0.95 0.68 -1.23 0.75 -0.85 0.28 -4.93 2.97 -6.70 4.43 -3.45 2.83 -12.88 12.80 -16.52 17.45 -1.73 2.20 -4.75 6.45 -4.75 6.68 0 0.08 -0.63 1.17 -1.38 2.45 -0.75 1.25 -1.38 2.58 -1.38 2.92 0 0.35 -0.45 1.48 -0.98 2.50 -0.55 1.02 -1.05 2.42 -1.15 3.10 -0.10 0.68 -0.57 2.70 -1.05 4.47 -0.88 3.15 -0.90 3.38 -0.88 7.50 0.03 3.58 0.13 4.53 0.57 6 0.28 0.98 0.80 2.72 1.13 3.92 0.32 1.20 0.98 2.78 1.40 3.50 0.88 1.42 3.88 5.20 4.15 5.20 0.10 0 0.80 0.50 1.55 1.13 0.75 0.63 1.92 1.30 2.63 1.52 0.68 0.22 1.38 0.50 1.50 0.60 0.15 0.13 0.88 0.45 1.63 0.77 2.13 0.85 8.88 1.05 17.65 0.50 z "/>
  <path d="M 66.25 86.93 c -0.22 -0.17 -0.60 -0.85 -0.88 -1.52 -0.25 -0.70 -0.82 -1.73 -1.27 -2.33 -1.27 -1.65 -1.58 -3.58 -1.67 -10.23 -0.13 -7.53 0.25 -18.85 0.65 -20.02 0.38 -1.13 2.15 -2.58 3.17 -2.58 0.38 0 1.35 0.25 2.13 0.55 2.38 0.90 2.25 -0.03 2.25 15.70 0 13.63 0 13.63 -0.60 14.75 -0.32 0.63 -0.80 1.40 -1.05 1.73 -0.28 0.32 -0.65 1.15 -0.85 1.85 -0.38 1.30 -1 2.42 -1.33 2.42 -0.10 0 -0.35 -0.15 -0.55 -0.32 z "/>
  <path d="M 79.18 86.75 c -0.45 -0.35 -0.88 -1.27 -1.55 -3.40 -0.93 -2.90 -0.93 -2.90 -0.75 -6.07 0.08 -1.73 0.30 -3.83 0.50 -4.65 0.55 -2.38 0.63 -3.80 0.65 -11 0.05 -8.32 0.15 -9.15 1.40 -10.43 0.50 -0.52 1.15 -1.02 1.40 -1.10 0.45 -0.15 1.83 0.25 3.60 1.05 1.50 0.68 1.50 0.73 1.65 12.35 0.08 5.85 0.05 11.88 -0.05 13.38 -0.17 2.53 -0.28 2.92 -1.23 4.93 -0.57 1.20 -1.05 2.35 -1.05 2.55 0 0.52 -1.40 2.10 -2.28 2.55 -0.95 0.47 -1.55 0.45 -2.30 -0.15 z "/>
  <path d="M 139.27 218.70 c -0.63 -0.22 -1.70 -1.55 -2.45 -3.05 -0.68 -1.35 -0.82 -2.30 -1.33 -8.52 -0.15 -1.92 -0.43 -4.50 -0.63 -5.75 -0.20 -1.23 -0.47 -3.67 -0.63 -5.40 -0.13 -1.75 -0.35 -3.47 -0.50 -3.88 -0.17 -0.47 -0.28 -3.88 -0.22 -10.10 0.03 -10.55 -0.40 -35.65 -0.77 -43.63 -0.15 -2.90 -0.25 -5.50 -0.25 -5.82 0 -0.30 -0.08 -0.52 -0.17 -0.52 -0.80 0.13 -0.82 0 -0.82 -8.10 0 -8.07 0 -8.07 1.08 -9.10 0.57 -0.55 1.58 -1.17 2.20 -1.40 1.27 -0.43 5.15 -1 9.35 -1.42 1.52 -0.15 3.97 -0.45 5.45 -0.65 3.15 -0.40 28.13 -0.47 35.30 -0.10 2.35 0.13 6.50 0.30 9.25 0.38 6.80 0.20 6.85 0.20 8.35 1.42 1.27 1.05 1.27 1.05 1.27 4.30 -0.03 2.38 -0.08 3.15 -0.28 2.83 -0.25 -0.43 -0.28 -0.40 -0.68 0.08 -0.52 0.65 -2.65 1.23 -4.93 1.38 -1.70 0.10 -7.43 0.17 -34.50 0.52 -7.15 0.08 -13.45 0.20 -14 0.25 -0.55 0.03 -2.05 0.08 -3.35 0.08 -2.33 0.03 -2.33 0.03 -2.17 21.35 0.10 11.70 0.22 21.60 0.30 21.98 0.17 0.90 1.25 1.20 4.22 1.17 2.95 -0.03 4.03 -0.43 1.25 -0.47 -1.10 -0.03 -2.22 -0.13 -2.50 -0.25 -0.47 -0.20 30.85 -0.10 32.55 0.13 1.17 0.13 3.58 1.70 4.32 2.80 0.93 1.38 0.88 3.20 -0.15 4.50 -1.13 1.42 -2.55 2.03 -5.60 2.35 -1.45 0.15 -2.83 0.38 -3.05 0.50 -0.25 0.13 -0.75 0.22 -1.15 0.22 -0.88 0 -5.35 0.68 -6.55 0.98 -0.47 0.15 -1.50 0.43 -2.25 0.63 -1.05 0.30 -3.08 0.40 -8.88 0.45 -7.50 0.08 -7.50 0.08 -8.75 0.73 -1.50 0.80 -1.50 0.85 -2.03 5.97 -0.70 7.07 -0.68 10.60 0.17 17.50 0.40 3.22 0.35 3.15 2.17 4.05 1.67 0.82 1.67 0.82 6.30 0.93 4.63 0.08 12.27 -0.47 13.38 -1 0.28 -0.13 1.30 -0.32 2.25 -0.47 2.17 -0.28 36.20 -0.65 38.20 -0.40 1.30 0.17 1.60 0.32 2.63 1.35 2.05 2.05 2.38 2.67 1.80 3.38 -1.15 1.42 -1.50 1.90 -1.50 2.13 0 0.28 -1.63 1.65 -2.75 2.35 -1.42 0.85 -3.88 1.42 -6.88 1.55 -1.65 0.08 -4.35 0.25 -6 0.38 -1.65 0.13 -5.20 0.38 -7.88 0.52 -2.67 0.13 -6.78 0.43 -9.13 0.63 -3.20 0.30 -8.52 0.40 -21.45 0.45 -9.48 0.03 -17.40 -0.03 -17.65 -0.13 z "/>
  <path d="M 231.15 201.35 c -0.17 -0.45 -0.20 -2.50 -0.03 -2.33 0.15 0.17 0.45 2.72 0.30 2.72 -0.08 0 -0.20 -0.17 -0.28 -0.40 z "/>
  <path d="M292.65 155.57 C 292.65 159.02 289.85 161.82 286.40 161.82 282.95 161.82 280.15 159.02 280.15 155.57 280.15 152.13 282.95 149.32 286.40 149.32 289.85 149.32 292.65 152.13 292.65 155.57 Z M285.65 161.27 "/>
 </g>
</svg>