<?xml version="1.0" encoding="utf-8"?>
<!DOCTYPE svg PUBLIC "-//W3C//DTD SVG 1.0//EN" "http://www.w3.org/TR/2001/REC-SVG-20010904/DTD/svg10.dtd">
<svg version="1.0" xmlns="http://www.w3.org/2000/svg" width="300px" height="350px" viewBox="0 0 300 350" preserveAspectRatio="xMidYMid meet">
 <g fill="#1c1c24">
  <path d="M26.2 342.8 c-2.4 -5.9 -3.4 -16.4 -3 -29.2 0.5 -11.1 1.2 -15.5 4.6 -28.6 2.2 -8.5 4.3 -19.1 4.7 -23.5 1.4 -17 2.7 -23.9 5.6 -30.2 1.6 -3.4 3.8 -10.1 4.9 -14.9 2.5 -10.5 6.6 -18.7 12.3 -24.2 2.3 -2.2 10.9 -7.7 19 -12.1 25.1 -13.7 33.2 -19.6 40.2 -29.2 l3.6 -4.8 -3.1 -8.6 c-1.6 -4.8 -3 -9.5 -3 -10.5 0 -1.1 -1.6 -3.5 -3.5 -5.4 -3.6 -3.7 -4.3 -5.5 -4.7 -12.6 -0.3 -4 -0.7 -4.8 -4.1 -7 -2.5 -1.5 -4 -3.4 -4.4 -5.2 -0.3 -1.5 -2.3 -4.8 -4.5 -7.3 -3.1 -3.5 -4.1 -5.7 -4.8 -9.8 -0.4 -2.8 -1.5 -7 -2.4 -9.1 -2.8 -6.3 -0.8 -12.8 7.3 -23.6 2.2 -3 4.4 -7 4.7 -9 0.9 -5.6 2.4 -8.8 5.8 -12.1 3.5 -3.5 13.9 -8.9 17.2 -8.9 1.2 0 3.8 -0.7 5.7 -1.5 6.4 -2.7 27 -1 31.3 2.6 0.7 0.6 3.5 1.1 6.3 1.3 6.2 0.3 12.5 4.3 15.8 10.1 1.2 2.1 3.3 4.5 4.7 5.2 4.2 2.2 5.7 6.6 6.6 19.2 0.5 6.8 1.5 13.2 2.4 15.3 2 4.6 2 7.5 0.2 8.5 -1.1 0.6 -1.5 4.2 -1.8 15.8 -0.3 16.1 -1.4 20.1 -5.6 22 -2.1 0.9 -2.2 1.6 -2.2 11.2 l0 10.2 3 1.6 c3.7 1.9 12.3 12.1 15.4 18.4 2.6 5.1 1.4 4.4 22.8 13.1 8.7 3.5 17.9 9.3 22 13.6 4.4 4.7 6.5 11.1 8.3 24.9 1 7.1 2.6 15.9 3.7 19.5 1.5 5 2.2 11.4 2.8 27.5 0.6 13.7 1.4 22.9 2.4 26.5 0.9 3 2 10.2 2.6 16 0.5 5.8 1.4 12.1 2 14.1 1.1 4 1.9 31.9 0.9 31.9 -1.2 0 -1.9 -6.2 -1.9 -17.6 0 -6.2 -0.5 -12.5 -1 -14 -0.6 -1.5 -1.5 -7.5 -2.1 -13.3 -0.5 -5.8 -1.7 -13.1 -2.5 -16.1 -1 -3.5 -1.9 -13.1 -2.4 -26.5 -0.6 -16 -1.3 -22.7 -2.8 -28 -1.1 -3.8 -3 -13.5 -4.1 -21.4 -1.1 -7.9 -2.2 -14.5 -2.4 -14.7 -0.1 -0.2 -0.8 7 -1.5 15.9 -0.7 10 -2.2 20.4 -3.8 27.2 -3.7 15.4 -3.9 16.9 -2.5 16.1 0.6 -0.4 2.5 -3.4 4.2 -6.7 1.6 -3.3 3.4 -5.7 4 -5.4 0.6 0.4 0.1 2.3 -1.4 4.8 -7.1 12.3 -8.4 16.4 -9.1 28.3 -0.3 5.5 -1.5 10.6 -3.6 16.3 -1.8 5 -3.4 11.8 -3.9 17 -0.5 4.7 -1.4 9.7 -1.9 11.1 -1.7 4.5 -2.3 12.4 -1.4 19.5 0.5 3.9 0.7 7.4 0.4 7.9 -1 1.7 -2.1 -2.1 -2.7 -9.8 -0.6 -6.5 -0.3 -9.9 1.4 -16.9 1.2 -4.9 2.1 -9.7 2.1 -10.8 0 -1.9 -0.1 -1.9 -2.9 0.2 -2.3 1.7 -3.9 2.1 -7.3 1.7 -4.5 -0.5 -14.8 -4.7 -14.8 -6 0 -1.1 0.2 -1.1 7.6 1.7 8.1 3 9.9 3.1 13.8 0.4 2.6 -1.8 3.7 -4 6.9 -13.9 2.2 -6.7 4.1 -15 4.4 -19.1 l0.6 -7.3 -3.9 3 c-7.2 5.7 -7.6 5.8 -16.9 3.3 -12.4 -3.2 -13.8 -4.3 -16.8 -13.4 -2.9 -8.4 -2.4 -11.9 1.7 -12.8 1.1 -0.3 9.9 -0.6 19.4 -0.6 12.5 -0.1 17.2 0.2 17.2 1.1 0 3.2 1.5 -1.2 3.6 -10.9 1.4 -6.4 2.9 -17.9 3.6 -28.5 l1.2 -17.8 -3.4 -3.6 c-5.2 -5.2 -11.9 -9.2 -23.1 -13.5 -5.6 -2.2 -11.4 -4.6 -13 -5.5 l-3 -1.5 1.6 3.1 c0.9 1.7 5.1 6.9 9.3 11.4 9.1 9.8 11.1 13 9.5 15.4 -1.5 2.3 -4.7 1.7 -10.7 -1.9 -3 -1.9 -5.2 -2.7 -5.4 -2 -0.7 2.1 -3.1 1.1 -4.6 -1.8 -0.9 -1.6 -2.5 -3.1 -3.7 -3.4 -1.9 -0.5 -2.1 -0.3 -1.5 2.4 0.9 4.6 -1 7.8 -9.5 16.5 l-8.1 8.1 3 6.9 c1.7 3.8 4.4 11.6 6.1 17.4 1.8 5.8 4.9 15.2 7.1 21 2.3 6.4 4.5 14.7 5.5 21.3 1.5 9.6 1.5 11.5 0.1 18.5 -1.6 8.5 -3.1 13.2 -4.3 13.2 -0.5 0 -2.7 -4.1 -5 -9 l-4.2 -9 -6.8 3.5 c-3.7 1.9 -7.9 3.5 -9.3 3.5 -5.3 0.1 -5.3 0 -4.5 23.4 0.4 13.6 0.4 21.6 -0.2 21.6 -1 0 -2.3 -20.3 -2.3 -35.2 0 -4.3 -0.2 -7.8 -0.4 -7.8 -0.3 0 -3.4 2.2 -7 4.9 -3.5 2.7 -8.8 5.6 -11.8 6.6 -9.5 3 -10.8 3.7 -10.8 5.7 0 6.6 -7.6 15.4 -16 18.5 -2.5 0.9 -6.7 3.2 -9.3 5 -5.4 3.8 -7.8 3.6 -3.2 -0.2 2.6 -2.1 2.8 -2.4 1 -2.5 -3.4 0 -9 -4.6 -11.5 -9.2 l-2.3 -4.5 -6.5 4 c-5.9 3.5 -17.8 8.7 -20.2 8.7 -0.6 0 -1 -0.4 -1 -1 0 -0.5 0.6 -1 1.3 -1 0.7 0 2.9 -0.8 5 -1.9 2 -1 4.6 -2.1 5.7 -2.4 1.2 -0.3 5 -2.3 8.6 -4.4 5.2 -3.1 6.3 -4.2 5.9 -5.8 -2.8 -10.1 -3.4 -14.9 -2 -18.2 1.3 -3.1 1.3 -3.4 -0.3 -2.9 -0.9 0.3 -6.4 1.6 -12.2 3 -5.8 1.4 -12.2 3.2 -14.3 4.1 -5.1 2.1 -11.3 8 -14.6 13.7 -1.5 2.6 -3 4.5 -3.4 4.2 -1 -1 3 -8.1 7 -12.4 2 -2.3 3 -4 2.2 -4 -0.8 0 -5.3 1.5 -10.1 3.4 -4.9 1.9 -9 3 -9.3 2.5 -0.4 -0.5 0.6 -1.4 2.2 -1.9 1.5 -0.6 6.3 -2.4 10.7 -4.1 4.3 -1.7 8.8 -2.9 10 -2.8 1.1 0.1 6.2 -1.1 11.2 -2.6 l9.1 -2.9 0.7 -9.8 c0.4 -5.4 1.6 -13.3 2.7 -17.6 3.9 -14.7 2.1 -37.5 -4.5 -56.8 -4.6 -13.7 -8.1 -18.2 -17 -21.9 -3.7 -1.6 -3.9 -1.6 -6.3 0.7 -3.4 3.2 -6.8 9.3 -8.6 15.4 l-1.5 5.2 3.8 3.7 c2.2 2.1 3.7 4.2 3.3 4.7 -0.3 0.6 -2 -0.5 -3.8 -2.2 -5.2 -5 -5.6 -1.7 -0.4 3.6 5.3 5.4 4.3 7.2 -1.1 1.9 -5.6 -5.5 -5.1 -2.1 0.6 3.6 2.5 2.6 4.2 4.9 3.7 5.2 -0.6 0.4 -2.7 -1.2 -4.8 -3.3 -2.2 -2.2 -4.3 -4 -4.7 -4 -1.9 0 -0.5 2.7 3.4 6.7 5.5 5.6 4 6.9 -1.6 1.4 -6.7 -6.6 -6.5 -2.7 0.2 4.2 6.7 6.8 4.9 7.8 -2 1 -3.9 -3.9 -4.8 -4.4 -4.8 -2.7 0 1.1 1.3 3.3 3 4.9 1.6 1.5 2.7 3.2 2.4 3.7 -0.4 0.5 -1.9 -0.3 -3.5 -1.8 -3.6 -3.4 -3.8 -1.3 -0.4 2.8 2.9 3.4 2.6 5.1 -0.4 2.3 -1.9 -1.7 -2 -1.6 -2.5 0.6 -0.3 1.3 -0.8 6 -1.1 10.3 -0.3 4.4 -2.4 14.9 -4.7 23.5 -5 19.4 -6.2 36.7 -3.4 49.5 1.8 7.9 1.6 12.1 -0.2 7.4z m92 -7.8 c2.9 -1.1 6.7 -3.1 8.3 -4.5 l3 -2.4 -3.2 -0.1 c-4.5 0 -9.4 -4.7 -12.8 -12.1 -2.4 -5.4 -2.6 -7 -2.2 -13.8 0.2 -4.2 0.8 -8.7 1.2 -10 0.8 -2.4 0.7 -2.4 -5.4 1 -3.5 1.9 -8 4.9 -10.2 6.7 -3.5 3 -3.9 3.8 -3.9 8.1 0 4.7 3.2 15.8 6.4 22 2 3.8 7 7.1 10.8 7.1 1.5 0 5.1 -0.9 8 -2z m13.2 -10.6 c0.9 -0.8 1.6 -2.4 1.6 -3.6 0 -1.8 -0.4 -1.7 -4 1.2 -2.2 1.7 -4 3.4 -4 3.6 0 1.1 5.1 0.2 6.4 -1.2z m4.6 -10.3 c1.9 -1.1 4 -2.1 4.7 -2.1 3.1 0 12.8 -4.5 17.4 -8.2 5.5 -4.4 10.6 -6.8 14.1 -6.8 2.9 0 14.8 -5.6 14.8 -6.9 0 -0.5 0.9 -1.2 2 -1.6 2.5 -0.8 6.3 -6.2 5.6 -8 -0.4 -1.1 -2.4 -0.7 -10.3 2.1 -9.9 3.4 -16.3 4.3 -16.3 2.3 0 -0.6 1.6 -2.9 3.5 -5.2 1.9 -2.2 3.5 -4.9 3.5 -5.8 0 -1 0.4 -2 0.9 -2.3 0.4 -0.3 1.1 -2 1.5 -3.8 0.3 -1.8 2.2 -5.9 4.2 -9.1 4.1 -6.6 4.1 -9.1 0.2 -9.5 -3.1 -0.4 -3.8 0.5 -13.8 18.1 -5 8.7 -7 11.3 -7 8.8 0 -0.4 2.3 -4.8 5.1 -9.7 6.6 -11.3 9.2 -17.2 8.5 -19 -1 -2.5 -2.3 -1.5 -8.2 6.4 -8.8 11.7 -16.4 18.1 -16.4 13.7 0 -0.8 2.5 -6.9 5.6 -13.5 5.4 -11.6 6.5 -16.8 3.8 -17.7 -2.1 -0.7 -6.9 4.4 -10.4 11.2 -3.3 6.2 -11.6 15.5 -14 15.5 -1.6 0 -1.2 -1.4 1 -2.8 1.1 -0.7 2 -2.2 2 -3.4 0 -1.2 0.9 -5.5 2.1 -9.6 2.6 -9.4 2 -12.7 -3.1 -17.7 -3.7 -3.6 -4.2 -3.8 -5.6 -2.3 -1.4 1.4 -1.4 2.4 -0.3 9.2 1.2 7.3 1.2 7.9 -1 12.9 -3 6.8 -4.7 13.4 -5.9 23 -0.8 6.3 -1.6 8.6 -3.9 11.5 -5.9 7.3 -6.8 10 -6.8 19.7 0 9.7 1.2 13.3 6.3 18.7 l2.5 2.8 5.1 -4.4 c2.8 -2.4 6.7 -5.3 8.6 -6.5z m63.9 -14.1 c1.2 -5.8 1.4 -19.6 0.2 -16.6 -0.6 1.6 -0.9 1.7 -1.6 0.6 -0.5 -0.9 -0.3 -1.7 0.7 -2.3 1.3 -0.9 1.3 -2 0.3 -8.6 -0.7 -4.2 -2.4 -10.3 -3.8 -13.6 -1.4 -3.3 -4.4 -12 -6.6 -19.3 -7.1 -23.1 -16.5 -44.2 -19.7 -44.2 -2 0 -3 3 -1.4 4 0.7 0.5 1 1.7 0.7 3 -0.3 1.2 0.6 5.8 1.9 10.3 1.7 5.5 2.7 11.8 3.1 19.2 0.7 13.4 1.8 15.6 7 14.8 2.8 -0.5 3.9 -0.2 4.9 1.2 2.1 2.8 1.7 4.6 -1.9 10.7 -1.9 3 -3.9 7.5 -4.5 9.8 -1 4.1 -0.9 4.6 1.6 7.6 3.1 3.8 3.7 3.9 8.7 1.9 7.8 -3.3 10.5 2.3 4.1 8.6 l-3.4 3.3 1.9 3.8 c1.3 2.5 2.4 3.6 3.4 3.2 0.9 -0.4 1.5 0 1.5 1 0 0.9 -0.4 1.6 -1 1.6 -0.6 0 -0.5 1 0.2 2.5 1.7 3.7 2.5 3.1 3.7 -2.5z m-111 -0.9 c2.3 -0.6 2.4 -1 2.2 -8.7 -0.2 -8.3 0.5 -13.4 1.9 -13.4 0.5 0 0.6 3.6 0.3 7.9 -0.3 4.3 -0.3 9 0.1 10.5 0.7 3 1 2.9 11.3 -3.1 3.9 -2.4 7.5 -4.3 8 -4.3 1.5 0 7.1 -6.3 8.2 -9.1 0.9 -2.6 0.9 -2.6 -4.7 -3.2 -3.1 -0.2 -9.6 -1.7 -14.5 -3.2 -10.7 -3.2 -12.1 -4.9 -12.1 -14.1 0 -9.3 0.4 -9.6 17.1 -10.5 7.6 -0.4 15.7 -0.8 17.9 -0.8 5.3 -0.1 5.8 -1.4 4.3 -10.8 -1 -6.3 -1 -7.6 0.5 -9.8 0.9 -1.4 2.3 -2.5 3.1 -2.5 2.3 0 8.7 6.2 10.5 10.2 l1.7 3.8 1.6 -8.8 c1 -4.8 2 -11.5 2.3 -15 0.6 -5.7 0.5 -6.5 -1.7 -8.8 -1.3 -1.5 -4.2 -3.9 -6.4 -5.4 -2.3 -1.5 -5 -4.4 -6 -6.4 -1.1 -2 -2.3 -3.6 -2.7 -3.6 -2.1 0 -17.1 6.6 -22.9 10.1 -7.3 4.4 -9.4 4.8 -10.8 2 -1 -1.7 -0.2 -5.8 3.7 -19.5 0.3 -1.2 0 -1.7 -0.9 -1.4 -0.8 0.2 -3.5 1 -6 1.7 l-4.6 1.3 0.5 4.4 c0.6 5.3 -0.6 5.6 -3.9 0.9 l-2.5 -3.4 -6.5 3 c-3.5 1.7 -7.2 3.7 -8.1 4.6 -1.6 1.4 -1.5 1.7 1.2 4 6 5 12.4 23.2 15.6 44.3 1.8 11.9 1.3 21.3 -1.7 32.5 -1.2 4.4 -1.9 10.5 -1.9 16.3 0 10 0 10 5.9 8.3z m93 -17.7 c0.3 -0.3 -0.8 -1.7 -2.3 -3.2 -2 -1.9 -3 -2.3 -3.3 -1.4 -0.3 0.7 -1.6 2.5 -2.9 4.1 l-2.3 2.8 5.2 -0.9 c2.9 -0.6 5.4 -1.2 5.6 -1.4z m-60.6 -8.8 c0.8 -0.8 1.7 -4.4 2 -7.9 0.5 -5.5 1.6 -9.1 4.5 -15.1 0.4 -0.8 -8.3 -0.5 -28 1 l-7.8 0.6 0 7.3 c0 4.8 0.4 7.6 1.3 8.4 1.7 1.3 15.1 5.8 19.2 6.4 5.9 0.8 7.4 0.7 8.8 -0.7z m108.2 -4.4 c1.1 -0.9 3.7 -3.2 5.8 -5.1 4.2 -4 4.7 -7.3 2.1 -13.6 l-1.5 -3.7 -17.2 0.7 c-9.5 0.4 -17.5 0.9 -17.9 1.2 -2.2 1.3 0.8 13.8 4 16.6 2.3 2.1 18.2 6.7 20.7 6 1.1 -0.3 2.9 -1.3 4 -2.1z m-71.7 -6.5 c1.2 -1.1 2.2 -2.5 2.2 -3 0 -0.6 -0.3 -0.7 -0.7 -0.4 -0.3 0.4 -1.2 0.2 -2 -0.4 -0.7 -0.6 -1.3 -0.9 -1.3 -0.6 0 0.2 -0.7 2.1 -1.6 4.2 -1.6 4 -0.9 4 3.4 0.2z m9 -11.7 c4.6 -6.2 5.2 -7.5 5.2 -11.9 0 -3.7 -0.4 -5 -1.7 -5.6 -1.7 -0.6 -1.7 -0.7 -0.2 -1.8 1.3 -1 1.5 -2.2 1 -5.8 -0.4 -2.4 -1 -5 -1.4 -5.6 -0.4 -0.6 -0.9 -2.5 -1.1 -4.3 -0.2 -1.7 -1.1 -3.7 -2.1 -4.4 -1 -0.7 -1.4 -1.6 -0.8 -1.9 1.4 -0.9 -0.9 -12.6 -2.7 -13.7 -0.8 -0.5 -2.8 -1 -4.3 -1 -2.4 0 -3.1 0.7 -4.7 4.3 -1 2.3 -2.4 8.7 -3 14.2 -0.6 5.5 -2.5 16.3 -4.1 23.9 -1.6 7.7 -2.9 14.4 -2.9 15 0 0.6 1.6 -1.8 3.5 -5.3 4.1 -7.7 6.8 -10.7 10.2 -11.6 5.9 -1.5 6.9 4.9 2.3 15.1 -1.6 3.5 -2.5 6.2 -2 5.9 0.5 -0.3 1.1 -0.1 1.5 0.5 1.1 1.8 2 1.1 7.3 -6z m29.4 -60.9 c-0.1 -4 -4.7 -16.1 -6.2 -16.1 -1 0 -2.7 4.4 -4 10.3 -0.5 2.6 -2.5 8.7 -4.4 13.6 -2.4 6.5 -3 9.3 -2.3 10.6 0.8 1.5 2 0.7 8.9 -6.3 7.5 -7.4 8 -8.2 8 -12.1z m-45.4 12.2 l1.1 -3.7 -6.8 -7.1 c-3.7 -3.8 -8.4 -9.5 -10.3 -12.5 -3.5 -5.5 -9.8 -19.7 -9.8 -22.2 -0.1 -1.3 -5.9 -8.3 -6.4 -7.6 -1.9 2.3 -8.3 15.4 -10.6 21.7 -4 10.8 -9 30.4 -8.1 31.4 0.4 0.4 6.8 -2.3 14.2 -6 7.4 -3.8 13.5 -6.9 13.7 -6.9 0.2 -0.1 -0.4 -1.9 -1.3 -4 -1.4 -3.4 -1.4 -3.9 0 -5.3 1.5 -1.5 1.8 -1.4 3.1 0.4 0.8 1.1 1.7 3.1 2 4.5 0.3 1.4 1 3.2 1.5 4 0.5 0.8 1.9 2.9 3 4.7 1.1 1.8 4.3 4.8 7 6.8 2.7 1.9 4.9 3.9 4.9 4.5 0 2.4 1.8 0.7 2.8 -2.7z m29.5 -6.6 c1.6 -4.1 3.2 -9 3.7 -11 l0.8 -3.6 -3.2 2.3 c-1.7 1.3 -4.6 3.1 -6.3 4 -2.6 1.3 -3.3 2.3 -3.3 4.7 0 2.7 3.8 10.9 5 10.9 0.3 0 1.8 -3.3 3.3 -7.3z m-25.7 -1.2 c1.9 -1.9 7.3 -1.9 9.8 0 1.3 1 2.4 1.1 3.7 0.4 2.3 -1.2 2.5 -5.5 0.4 -6.3 -1.1 -0.4 -1.4 -1.3 -1 -2.9 0.8 -2.9 -3.4 -6.4 -5.3 -4.5 -0.8 0.8 -1.6 0.8 -2.7 -0.2 -1.3 -1.1 -2.1 -1.1 -4.3 0 -1.6 0.7 -2.2 1.5 -1.4 1.7 1.4 0.5 1.7 4.3 0.3 4.3 -0.5 0 -1.1 -0.6 -1.4 -1.2 -0.2 -0.7 -0.8 0.8 -1.2 3.4 -1 6.3 0.2 8.3 3.1 5.3z m-84.9 -2.1 c5.6 -3.8 14.7 -7.7 24.6 -10.4 8.7 -2.4 8.8 -2.5 9.8 -6.4 0.6 -2.1 2.1 -6.3 3.4 -9.2 l2.4 -5.4 -5.2 3.9 c-7.8 5.7 -19.9 13 -32.2 19.6 -14.5 7.6 -14.4 7.6 -10.3 9.1 1.8 0.6 3.4 1.2 3.5 1.3 0.1 0 1.9 -1.1 4 -2.5z m153.3 0.8 c0 -1.3 -4.1 -6.4 -11.2 -14.1 -4.5 -4.8 -8.3 -10.3 -11.6 -16.9 -4.6 -8.9 -14.1 -21.2 -16.3 -21.2 -1.5 0 -1 7.3 0.7 10.5 4.4 7.9 5.4 10.7 5.4 14.5 0 2.6 0.9 5.3 2.5 7.8 1.3 2 2.9 5.2 3.6 6.9 0.6 1.8 1.4 3.1 1.9 2.8 0.4 -0.3 2.2 0 3.9 0.6 2.6 0.9 3.5 0.8 6.1 -1.1 1.7 -1.2 3.8 -1.9 4.6 -1.6 1.5 0.6 1.4 0.9 -0.1 3.2 -0.9 1.4 -1.4 3.2 -1.1 3.9 1 2.8 11.6 7 11.6 4.7z m-71.6 -11 c1.2 -2 -3.4 -5.9 -9.1 -7.8 -3.2 -1 -6.2 -1.8 -6.6 -1.9 -0.5 0 -1.5 -0.9 -2.3 -1.9 -2.5 -3.4 -1.5 -0.5 1.6 4.8 4.6 7.8 6.2 9.6 10.5 11.1 3.9 1.3 4 1.2 4.6 -1 0.4 -1.3 1 -2.8 1.3 -3.3z m23.7 3.1 c1.6 -1 2.9 -2.1 2.9 -2.6 0 -0.4 -0.4 -0.6 -0.9 -0.2 -1.5 0.9 -2.5 -1.5 -1.2 -2.8 0.9 -0.9 1.4 -0.9 2 0.2 0.6 1 1.2 0.3 2.1 -2.3 1.2 -3.6 4.1 -4.9 5.6 -2.5 0.4 0.8 0.9 0.7 1.5 -0.2 1.5 -2.3 1 -5.6 -0.8 -6.4 -1.7 -0.6 -1.7 -0.7 0 -1.9 2.1 -1.6 2.1 -2.5 0.1 -7.7 -1.8 -4.3 -3.4 -3.8 -3.4 1.2 0 6.9 -6.3 17.3 -12.3 20.5 -1.5 0.9 -1.5 1.3 -0.5 3.7 1.5 3.2 1.3 3.1 4.9 1z m-13.2 -7.6 c1.4 0.6 3.3 1.3 4.2 1.7 2.3 1 7.9 -3.3 11.1 -8.5 1.9 -3 3.1 -6.6 3.6 -10.9 0.9 -8 0.4 -21 -0.9 -21 -0.5 0 -0.9 0.6 -0.9 1.3 0 2.1 -5.9 10.9 -7 10.2 -0.5 -0.3 0.2 -2.2 1.5 -4.1 4.6 -6.7 6.5 -13.7 6.5 -23.5 0 -8.5 0.1 -9 1.9 -8.4 3.8 1.2 5.5 -3.5 5.9 -16.8 0.5 -12.2 -0.2 -14 -2.8 -7.8 -0.9 2.2 -0.9 3.8 -0.2 6.1 0.8 2.1 0.8 3.9 0.1 6 -1.3 3.5 -3.4 4.2 -2.3 0.8 1.2 -4 1 -5.2 -1.1 -5.3 -1.5 0 -2.5 -1.5 -4.3 -6.5 -1.2 -3.6 -3.4 -9 -4.7 -12.1 -1.7 -3.8 -2.5 -7.5 -2.5 -11.2 0 -4.9 -0.4 -6 -4 -10.3 -4.3 -5.2 -6.4 -11 -5.8 -15.4 l0.4 -2.7 -5 1.3 c-2.8 0.8 -8.1 1.3 -11.7 1.3 -3.7 -0.1 -7.2 0.2 -7.9 0.6 -0.6 0.4 -2.4 3.5 -4 6.9 -3 6.6 -5.9 9.9 -10.3 11.5 -4 1.6 -9.9 1.4 -12.4 -0.4 -2 -1.4 -2.2 -1.3 -3.9 3 -1.3 3.6 -1.5 5.9 -0.9 11.7 0.4 4 0.9 10.7 1 14.8 0.2 7.2 1.6 13.7 4.8 22.6 0.8 2.3 2.3 7.9 3.2 12.5 2.8 14.1 6.7 22.8 13.3 29.7 6.2 6.7 11 9.2 17.2 9.2 3.3 0 4 -0.3 4 -2 0 -1.6 -0.7 -2 -3.5 -2 -1.9 0 -3.5 -0.4 -3.5 -1 0 -0.5 1.4 -1 3.1 -1 1.6 0 2.8 -0.4 2.5 -0.9 -0.8 -1.3 1.2 -6.3 2.3 -5.7 0.5 0.3 1.7 3.3 2.7 6.6 1.6 5.1 2.2 5.9 3.9 5.4 1.1 -0.3 3 -1.7 4.2 -3.1 3.5 -4.3 5.3 -2.5 5.3 5.2 0 5.8 -0.2 6.5 -1.9 6.5 -1.6 0 -3.3 -1.8 -6.6 -6.8 -0.1 -0.1 -1 0 -1.9 0.4 -1.5 0.6 -1.4 0.9 0.5 4 1.1 1.9 1.6 3.4 0.9 3.4 -0.6 0 -2 -1.6 -3.1 -3.5 -2.2 -3.7 -5.9 -5.2 -3.9 -1.6 2 3.9 0.9 4.5 -2.1 1.1 -2.4 -2.8 -2.9 -3.1 -2.4 -1.2 0.8 2.8 -1 2.9 -2.5 0.2 -1.4 -2.6 -3.6 -2.6 -4.3 0 -0.6 2.4 -0.7 2.3 6.6 5 3.2 1.2 6.4 3.2 7.3 4.5 1.4 2.2 1.6 2.2 4.6 0.7 2.4 -1.1 3.8 -1.3 5.7 -0.5z m-31.4 -16.5 l-2.7 -2.5 0.7 2.4 c0.4 1.3 1.5 3.2 2.4 4.3 1.5 1.7 1.6 1.7 1.9 0.1 0.2 -1 -0.8 -2.9 -2.3 -4.3z m-20.6 -43.3 c-0.5 -2.3 -1.6 -5.3 -2.4 -6.8 l-1.4 -2.6 -0.1 4.1 c0 2.7 0.7 5 2.1 6.8 1.1 1.4 2.2 2.6 2.4 2.6 0.1 0 -0.1 -1.9 -0.6 -4.1z m-5.5 -17.9 c-1 -2.9 -1.3 -6 -0.9 -9.1 0.4 -2.6 0.1 -6.5 -0.5 -8.9 -1.7 -6.5 -1.4 -13.9 1 -20.3 1.2 -3.1 2.4 -5.7 2.7 -5.7 0.3 0 1.6 0.9 3 2 3.1 2.4 8.3 2.6 12.9 0.4 2.7 -1.3 4.2 -3.2 7 -9 1.9 -4.1 4.5 -7.9 5.7 -8.6 1.2 -0.6 5.8 -1.2 10.2 -1.3 4.4 -0.1 9.8 -0.7 11.9 -1.4 l3.9 -1.4 -2.9 -1.6 c-2 -1 -5.5 -1.6 -10.9 -1.6 -10.8 0 -14.5 2 -20.5 10.9 -5.1 7.5 -7.1 9.1 -12.3 10.1 -5.4 1 -4.6 -0.9 1 -2.6 4.2 -1.2 5.3 -2.2 9.8 -8.8 6.8 -10 10 -11.6 22.7 -11.6 l9.6 0 -2.9 -1.9 c-6.6 -4.1 -17.3 -4 -25.8 0.3 -2.2 1.2 -6.5 5.2 -9.9 9.4 -3.3 4 -8.5 9.2 -11.6 11.6 -7.5 5.8 -11.1 13 -11.1 22.1 0 4.3 0.7 8 1.9 10.7 1 2.3 1.6 4.7 1.3 5.5 -0.8 2.2 -5 -8.3 -5.5 -13.8 -0.2 -3.1 0.2 -7.5 1.2 -11 1.5 -5.3 2.7 -6.8 11 -14.9 5.1 -4.9 10.9 -11.1 13 -13.7 4.8 -6.1 10.4 -9.4 18.6 -10.9 5.5 -1 7.4 -0.9 11.8 0.4 6.1 1.7 6.8 1.4 1.5 -0.8 -13.1 -5.5 -30.1 -0.8 -37.6 10.3 -1.7 2.6 -7.3 8.8 -12.4 13.8 -5 5.1 -9.4 10.2 -9.7 11.5 -0.3 1.3 -0.7 3.3 -0.8 4.3 -0.2 1.1 -0.9 2.1 -1.6 2.4 -0.9 0.3 -1.1 -0.4 -0.7 -2.5 1.5 -6.5 3.4 -9.3 12.5 -18.3 5.2 -5.2 10.3 -11 11.3 -12.7 l1.8 -3.3 -2.6 1 c-3.4 1.3 -8.5 1.3 -8.5 0 0 -0.5 1.4 -1 3 -1 1.7 0 4.9 -0.9 7.3 -1.9 17.4 -8 25.8 -9.6 35.2 -6.7 2.7 0.9 5.3 1.2 5.8 0.7 1.2 -1.2 0.2 -1.7 -7 -3.5 -7.5 -2 -16.8 -2.1 -22.5 -0.3 -2.4 0.8 -6.8 2.1 -9.9 3.1 -9.9 2.9 -16.9 9.9 -16.9 16.8 0 2.6 -2.3 6.9 -7.4 13.8 -2.4 3.2 -4.8 7.8 -5.5 10.3 -1.2 4 -1.1 5 0.8 9.2 1.2 2.6 2.1 6 2.1 7.6 0 3.8 1.3 6.9 4.5 10.4 1.5 1.7 3.4 4.7 4.3 6.7 1.3 2.9 7.9 9 8.9 8.4 0.1 -0.1 -0.5 -2.2 -1.3 -4.6z m78 -8.2 c0.4 -1.8 0.8 -4.2 1 -5.3 0.1 -1.1 0.9 -2.1 1.7 -2.3 0.8 -0.1 2 -1.5 2.7 -3 0.6 -1.5 1.7 -3.5 2.4 -4.4 1 -1.4 0.9 -2.4 -0.6 -5.5 -1.2 -2.5 -2.1 -7.8 -2.7 -15.7 -0.7 -8.2 -1.5 -12.9 -2.7 -15 -2.1 -3.7 -4.2 -4.5 -4.2 -1.7 0 1.2 -0.4 2.1 -1 2.1 -0.5 0 -1 -1.1 -1 -2.5 0 -6 -5.3 -13.2 -11.5 -15.5 -2.8 -1.1 -10.6 -0.5 -10.4 0.8 0 0.4 1.7 2 3.6 3.7 l3.6 3 -0.7 -2.9 c-0.9 -3.8 1.4 -3 2.8 1 1 2.5 1.6 2.9 5 2.9 2.2 0 4.1 0.5 4.3 1.2 0.3 0.9 -0.4 1.1 -2.6 0.7 -1.7 -0.4 -3.8 -0.4 -4.7 0 -1.3 0.5 -0.8 1.2 2.2 3.2 5 3.4 6 4.8 8.1 11.2 0.9 2.9 2.8 6.4 4.1 7.7 1.2 1.3 1.9 2.6 1.3 2.9 -1.6 1 -5.9 -5.1 -7.5 -10.8 -1 -3.4 -2.6 -6.2 -4.3 -7.5 -3.6 -2.9 -3.9 -2.1 -0.9 2.3 2.6 3.8 2.9 4.7 6.7 18 1.7 6 3.1 8.7 5.7 11.2 3.4 3.3 3 4.4 -0.9 2.4 -2.7 -1.5 -5.3 -7.1 -7.9 -17 -2.5 -9.3 -6 -16.4 -9 -18 -1.7 -0.9 -2 -0.6 -2.6 2.4 -0.8 4.4 1 9.9 4.6 13.9 4 4.7 5 7.1 5 12.1 0 3 1.4 8 4 14.5 2.2 5.4 4 10.6 4 11.5 0 2.9 1.8 1.7 2.4 -1.6z"/>
  <path d="M131 294.4 c0 -0.5 1.1 -2.6 2.5 -4.5 1.4 -1.9 4.2 -6.3 6.2 -9.9 4.5 -8 5.6 -6.3 1.2 2 -3.2 6.1 -9.8 14.4 -9.9 12.4z"/>
  <path d="M156 294.1 c0 -1.2 5.6 -3.4 7.2 -2.9 0.8 0.3 0 1.2 -1.9 2.1 -3.6 1.9 -5.3 2.1 -5.3 0.8z"/>
  <path d="M147 289.2 c0 -1.3 8.1 -7.5 8.8 -6.7 0.4 0.3 -1.1 2.2 -3.3 4 -4.1 3.5 -5.5 4.2 -5.5 2.7z"/>
  <path d="M187.6 268.3 c-1.1 -1.1 -0.6 -2.3 0.9 -2.3 0.8 0 1.5 0.4 1.5 0.9 0 1.3 -1.6 2.2 -2.4 1.4z"/>
  <path d="M178 242.5 c0 -0.8 0.7 -1.5 1.5 -1.5 0.8 0 1.5 0.7 1.5 1.5 0 0.8 -0.7 1.5 -1.5 1.5 -0.8 0 -1.5 -0.7 -1.5 -1.5z"/>
  <path d="M174.5 218 c-0.4 -0.6 -0.3 -1.6 0.3 -2.2 0.6 -0.6 1.2 -0.6 1.7 0.2 0.4 0.6 0.3 1.6 -0.3 2.2 -0.6 0.6 -1.2 0.6 -1.7 -0.2z"/>
  <path d="M104 215.6 c-3.5 -1.1 -5.1 -3.9 -3.2 -5.8 0.6 -0.6 2.1 0 4.2 1.9 4.2 3.8 3.8 5.5 -1 3.9z"/>
  <path d="M114.2 269.1 c-0.8 -0.4 -1.2 -1.9 -1 -3.2 0.2 -1.9 0.9 -2.4 3.2 -2.4 3.6 0 5.6 2.6 3.7 4.9 -1.5 1.8 -3.9 2 -5.9 0.7z m4.1 -2.6 c0.1 -0.5 -0.6 -1.1 -1.5 -1.3 -1.1 -0.2 -1.8 0.3 -1.8 1.3 0 1.7 3 1.8 3.3 0z"/>
  <path d="M221.9 265.4 c-1.6 -2 -0.1 -4.8 2.9 -5.2 1.6 -0.2 2.3 0.3 2.8 2.2 0.3 1.4 0.3 3 -0.1 3.5 -0.9 1.6 -4.1 1.3 -5.6 -0.5z m4.1 -1.9 c0 -0.8 -0.4 -1.5 -0.9 -1.5 -1.3 0 -2.2 1.6 -1.4 2.4 1.1 1.1 2.3 0.6 2.3 -0.9z"/>
  <path d="M164.7 244.4 c-0.8 -0.8 0.1 -2.4 1.4 -2.4 0.5 0 0.9 0.7 0.9 1.5 0 1.5 -1.2 2 -2.3 0.9z"/>
  <path d="M154 212.4 c0 -0.9 0.5 -1.4 1.2 -1.2 1.8 0.6 2.1 2.8 0.4 2.8 -0.9 0 -1.6 -0.7 -1.6 -1.6z"/>
  <path d="M158 200.5 c0 -0.9 0.5 -1.5 1.1 -1.3 0.6 0.2 1.1 0.8 1.1 1.3 0 0.5 -0.5 1.1 -1.1 1.3 -0.6 0.2 -1.1 -0.4 -1.1 -1.3z"/>
  <path d="M109.5 189.1 c-2.8 -4.1 -3 -7.6 -0.5 -7.6 1.9 0 6.2 6.4 5.8 8.9 -0.5 3.4 -2.6 2.9 -5.3 -1.3z"/>
  <path d="M159.2 188.1 c0.2 -0.7 0.7 -1.2 1.1 -1.2 1.2 0.1 0.9 1.5 -0.3 2 -0.7 0.2 -1.1 -0.2 -0.8 -0.8z"/>
  <path d="M142.4 179.7 c-0.8 -2.1 0.2 -3.5 1.6 -2.1 0.5 0.5 0.6 1.5 0 2.4 -0.8 1.2 -1 1.2 -1.6 -0.3z"/>
  <path d="M132.3 139.3 c-4.5 -0.9 -2.2 -2.1 4.5 -2.6 3.7 -0.2 7.8 -0.8 9.2 -1.2 2.2 -0.8 2.3 -0.7 1.2 0.8 -1.1 1.3 -9.9 4 -12 3.6 -0.4 -0.1 -1.7 -0.4 -2.9 -0.6z"/>
  <path d="M121 135.1 c0 -2.2 0.5 -4.3 1 -4.6 0.6 -0.4 1 1.2 1 3.9 0 2.5 -0.4 4.6 -1 4.6 -0.5 0 -1 -1.8 -1 -3.9z"/>
  <path d="M124 133.2 c0 -2.6 0.6 -4.1 2 -5 1.9 -1.1 2 -1 2 2.6 0 2.6 -0.6 4.1 -2 5 -1.9 1.1 -2 1 -2 -2.6z"/>
  <path d="M129.6 133.3 c-0.3 -0.3 -0.6 -2.1 -0.6 -4 0 -3.2 1.3 -4 5.3 -3.4 0.4 0 0.7 -0.2 0.7 -0.6 0 -1.3 8.8 -1.4 9.6 -0.2 0.5 0.8 0.9 0.8 1.4 -0.1 0.6 -0.9 1.3 -0.3 2.5 1.9 2.1 4.2 1.4 6.6 -0.8 2.6 -1.7 -3 -1.7 -3 -1.1 -0.3 0.6 2.5 0.4 2.7 -2.2 2.2 -1.6 -0.3 -3.2 -1.1 -3.6 -1.7 -0.6 -0.9 -0.8 -0.9 -0.8 0.1 0 1.8 -1.8 1.5 -2.3 -0.5 -0.4 -1.5 -0.5 -1.4 -0.6 0.2 -0.1 2.9 -3.8 3 -4.4 0.2 -0.4 -1.8 -0.4 -1.8 -0.6 0.5 -0.1 2.7 -1.3 4.3 -2.5 3.1z"/>
  <path d="M162.3 132.3 c-0.3 -1 -1.2 -3.3 -1.9 -5.2 -1.7 -4 -1.8 -5.4 -0.4 -4.6 1 0.6 3 4.9 4.4 9.3 0.9 2.6 -1.2 3 -2.1 0.5z"/>
  <path d="M154.5 129.4 c-2 -3 -1 -4.8 1.1 -2 1.3 1.8 1.9 4.6 1 4.6 -0.2 0 -1.1 -1.2 -2.1 -2.6z"/>
  <path d="M150.2 128.5 c-1.7 -3.6 0.4 -4.1 2.3 -0.5 1.3 2.4 1.3 3 0.2 3 -0.8 0 -1.9 -1.1 -2.5 -2.5z"/>
  <path d="M128.5 120 c-1.7 -1.8 -1.7 -2.6 -0.7 -6.8 0.7 -2.6 1.3 -8.4 1.4 -13 0.1 -7.2 -0.1 -8.6 -2.1 -11.3 -1.3 -1.8 -1.8 -3 -1 -2.7 0.7 0.2 2.2 1.7 3.3 3.2 1.8 2.4 2.1 4 1.8 11.9 -0.1 5.1 -0.7 10.7 -1.4 12.6 -0.9 3.1 -0.8 3.7 1.1 5.2 1.1 0.9 2.1 2 2.1 2.3 0 1.4 -2.8 0.5 -4.5 -1.4z"/>
  <path d="M137 121.2 c0 -0.8 1.4 -1.6 6.3 -4 0.4 -0.2 0.7 0 0.7 0.5 0 0.8 -5.2 4.3 -6.4 4.3 -0.3 0 -0.6 -0.4 -0.6 -0.8z"/>
  <path d="M145.4 115.5 c0 -4.8 0.2 -5.4 1.3 -3.9 0.7 1 1.3 2.7 1.3 3.9 0 1.2 -0.6 2.9 -1.3 3.9 -1.1 1.5 -1.3 0.9 -1.3 -3.9z"/>
  <path d="M117.7 96 c-1.2 -1.8 -1.5 -1.8 -3.5 -0.4 -1.2 0.8 -2.2 1.1 -2.2 0.5 0 -1.5 5.1 -4.7 8.4 -5.4 1.7 -0.3 4 -0.1 5.3 0.4 l2.3 0.9 -2.6 3 c-3.2 3.5 -5.7 3.8 -7.7 1z m5.3 -1.5 c0 -0.8 -0.7 -1.5 -1.6 -1.5 -1.4 0 -1.4 0.3 -0.4 1.5 0.7 0.8 1.4 1.5 1.6 1.5 0.2 0 0.4 -0.7 0.4 -1.5z"/>
  <path d="M136.8 94.5 c-0.9 -1 0.7 -5.8 2.1 -6.3 1 -0.3 1.1 0.2 0.6 1.9 -1.1 3.5 -2 5 -2.7 4.4z"/>
  <path d="M144 90.8 c0 -2.2 5.3 -6.5 9 -7.3 3.4 -0.7 9.2 0.9 11.1 3.1 1.8 2.2 0.4 2.8 -2.5 0.9 -2.5 -1.7 -2.6 -1.7 -2.6 0.3 0 4.6 -7.1 5.5 -8.5 1.1 -0.7 -2 -0.8 -2 -3.6 0.7 -2.2 2.1 -2.9 2.4 -2.9 1.2z m12 -4.4 c0 -0.8 -0.7 -1.4 -1.5 -1.4 -1 0 -1.5 1 -1.5 2.6 0 2.2 0.2 2.5 1.5 1.4 0.8 -0.7 1.5 -1.9 1.5 -2.6z"/>
  <path d="M107 86.8 c0 -2 2.9 -4.5 6.2 -5.3 3.3 -0.8 9.4 1 10.2 3.1 0.8 2.2 -1.9 2.8 -6.8 1.4 -3.8 -1 -4.7 -1 -7 0.5 -2.2 1.4 -2.6 1.5 -2.6 0.3z"/>
  <path d="M162.3 79.6 c-2.8 -2.5 -5.9 -4.6 -6.9 -4.6 -0.9 0 -3.9 1.4 -6.6 3.1 -2.9 1.9 -5.5 2.9 -6.4 2.5 -1.5 -0.6 -1.5 -0.8 0.2 -2.8 2.6 -2.9 10.4 -7.8 12.4 -7.8 1.6 0 7.8 5.4 11.3 9.8 3.5 4.5 1.1 4.4 -4 -0.2z"/>
  <path d="M116 73.1 c0 -0.5 3.5 -1.1 7.8 -1.4 5.2 -0.3 10.1 -1.5 15.2 -3.5 8.1 -3.3 13.3 -4.3 13.8 -2.7 0.1 0.6 -1 1.1 -2.5 1.3 -1.5 0.2 -6.9 1.9 -12 3.8 -7 2.6 -10.8 3.4 -15.8 3.4 -3.6 0 -6.5 -0.4 -6.5 -0.9z"/>
  <path d="M121 67 c-1.8 -1.2 -2 -1.1 5.5 -1.5 3.4 -0.2 9 -1.4 12.8 -2.9 6.9 -2.7 12.7 -3.4 12.7 -1.6 0 0.6 -1 1 -2.1 1 -1.2 0 -6.4 1.4 -11.6 3 -9.6 3.1 -14.7 3.7 -17.3 2z"/>
  <path d="M234.2 326.8 c0.6 -1.8 6.5 -3.7 11.8 -3.7 5.4 -0.1 12 1.6 12 3.1 0 0.6 -0.9 0.8 -2.2 0.3 -5.3 -1.6 -13.4 -1.7 -17.2 -0.1 -4.6 1.9 -4.9 1.9 -4.4 0.4z"/>
  <path d="M240 316.1 c0 -0.5 1.3 -1.2 2.9 -1.6 1.7 -0.3 4.9 -2 7.1 -3.6 2.3 -1.7 4.4 -2.8 4.7 -2.5 1 0.9 -0.9 2.7 -6 5.6 -5.2 3 -8.7 3.8 -8.7 2.1z"/>
  <path d="M67 299.7 c-3.7 -2.3 -12.1 -2.9 -19.5 -1.4 -3.7 0.8 -3.8 0.7 -2.1 -0.7 2.4 -2 9.6 -3 14.7 -2.2 4.3 0.7 11.3 3.9 12.4 5.6 1 1.6 -1.7 1 -5.5 -1.3z"/>
  <path d="M73.3 288.3 c-0.3 -1 -2.6 -4.5 -5 -7.7 -5.6 -7.5 -8.7 -14.6 -6.5 -14.6 0.4 0 1.4 1.6 2.1 3.5 0.7 1.9 2.8 5.6 4.8 8.2 4 5.2 7.3 10.4 7.3 11.6 0 1.4 -2.1 0.7 -2.7 -1z"/>
  <path d="M78.4 248.3 c-0.4 -1.5 -3.8 -10.1 -7.5 -18.9 -6.8 -16 -7.9 -19.4 -5.9 -19.4 0.6 0 1 0.7 1 1.5 0 0.8 2.8 7.9 6.1 15.7 7.2 16.6 9.2 22.5 7.9 23.3 -0.5 0.3 -1.2 -0.7 -1.6 -2.2z"/>
  <path d="M206.2 217.8 c-2.3 -2.3 -1.2 -4.3 3.8 -6.5 2.7 -1.2 5.2 -1.8 5.4 -1.4 1.1 1.7 -1.7 8 -3.8 8.5 -3.1 0.8 -4.1 0.7 -5.4 -0.6z"/>
  <path d="M203.4 159.5 c-0.8 -2 3.3 -7.5 5.5 -7.5 1 0 2.4 0.7 3.1 1.5 1 1.2 0.7 2 -2 4.5 -3.5 3.3 -5.8 3.8 -6.6 1.5z"/>
 </g>
</svg>