<?xml version="1.0" encoding="utf-8"?>
<!DOCTYPE svg PUBLIC "-//W3C//DTD SVG 1.0//EN" "http://www.w3.org/TR/2001/REC-SVG-20010904/DTD/svg10.dtd">
<svg version="1.0" xmlns="http://www.w3.org/2000/svg" width="300px" height="350px" viewBox="0 0 300 350" preserveAspectRatio="xMidYMid meet">
 <g fill="#1c1c25">
  <path d="M269.6 339.7 c-0.3 -3.4 -0.1 -8.9 0.5 -12.1 0.9 -5 0.7 -6.6 -1.2 -12.8 -1.7 -5.5 -2.1 -9 -1.8 -16.6 0.4 -15.3 0.1 -18.2 -1.6 -17.6 -1.7 0.7 -2.9 -1.9 -3.9 -9 -0.7 -4.6 -0.6 -4.8 1.3 -4.3 2.1 0.5 2.1 0.2 2.1 -13.6 -0.1 -14.9 -1.7 -25 -4.4 -27 -0.8 -0.7 -2 -3.4 -2.6 -6.1 -0.9 -4.1 -0.8 -5 0.5 -6 1.4 -1 1.3 -1.9 -0.5 -9 -1.8 -7.3 -5.6 -15.3 -6.7 -14.2 -0.3 0.2 -0.6 9.8 -0.7 21.3 -0.3 20.9 -0.8 24.3 -5.1 34.6 -0.5 1.1 -0.3 1.7 0.7 1.7 1.5 0 3.8 -4 3.8 -6.5 0 -1.4 1.8 -3 2.6 -2.3 0.2 0.3 -0.3 2.4 -1.1 4.8 -1.6 4.4 -2 9 -0.8 9 0.4 0 1.7 -1 3 -2.2 1.9 -1.7 2.3 -1.9 2.3 -0.5 0 0.8 -1 2.4 -2.3 3.4 -1.2 1 -3 3.1 -4 4.6 l-1.8 2.8 4.6 2 c2.5 1.1 4.3 2.4 4 2.9 -0.6 0.9 -11.1 -3.2 -12.9 -5.1 -1.8 -1.7 -3.3 -0.9 -3.3 1.6 -0.1 1.4 -0.7 3.3 -1.6 4.3 -0.9 1 -1.8 4.8 -2.2 9.2 -0.3 4.1 -1.5 12.9 -2.5 19.5 -1 6.6 -2.1 16 -2.4 20.9 -0.4 5.9 -1.4 10.9 -3.1 15 -1.4 3.5 -2.5 7.5 -2.5 8.9 0 1.5 -0.4 2.7 -1 2.7 -1.7 0 -1.1 -6.3 1.1 -11 2.1 -4.5 4.8 -21.4 3.7 -22.5 -0.3 -0.4 -3 0.7 -6 2.4 -3 1.7 -6.3 3.1 -7.2 3.1 -3 0 -11.8 -5.3 -13.6 -8.2 l-1.7 -2.8 -2.1 6.8 c-1.2 3.7 -2.2 7.2 -2.2 7.8 0 1.9 -7.9 18.1 -9.5 19.4 -2.2 1.9 -4 0.6 -6.5 -4.5 -1.9 -3.9 -2.4 -7.3 -3 -18.4 -0.5 -9 -1.5 -16 -2.9 -20.6 -1.2 -3.8 -2.1 -7.9 -2.1 -9.1 0 -1.1 -0.9 -2.9 -2.1 -4 -1.2 -1 -3.3 -3.9 -4.7 -6.4 -2.5 -4.2 -2.7 -4.3 -3.3 -2 -0.4 1.4 -0.7 17.9 -0.8 36.8 -0.1 22.1 -0.5 34.2 -1.1 34.2 -0.6 0 -1 -13.7 -1.1 -38.7 -0.1 -35 -0.2 -38.2 -1.5 -32.8 -0.7 3.3 -1.9 15.2 -2.5 26.3 -1 15.6 -1.6 20.5 -2.6 20.9 -2.1 0.8 -7.1 -4.4 -10.3 -10.7 -4.7 -9.3 -5.1 -12.2 -3.4 -22.8 1.3 -8.5 1.3 -10.7 0 -21.1 -1.1 -8.6 -1.4 -17 -1 -32.7 l0.6 -21.2 -5.3 -2.8 c-5.8 -3.2 -9.9 -8.2 -9.9 -12.3 0 -5.6 -1.4 -5.6 -8.4 -0.2 -3.7 2.7 -8.5 6.1 -10.9 7.5 -4.7 2.7 -12.2 5 -13.7 4.1 -0.5 -0.3 0.5 -3.6 2.2 -7.3 5.2 -11.5 9.9 -26.2 8.3 -26.2 -0.7 0 -43.6 23.9 -44.8 25 -0.5 0.4 0.1 2.6 1.2 4.9 1.2 2.3 2.6 7.8 3.2 12.4 1.5 12 3.5 19.1 8.2 28.7 l4.2 8.5 -0.3 15.9 c-0.1 9.6 -0.8 18.4 -1.7 22.3 -0.8 3.5 -1.9 13 -2.5 21.1 -0.5 8.1 -1.4 16.5 -2 18.7 -0.5 2.2 -1 5.7 -1 7.7 0 3.6 -1.3 5.7 -2.4 3.9 -0.3 -0.5 0.3 -6 1.4 -12.2 1.1 -6.3 2 -14.9 2 -19.1 0 -4.2 0.9 -12.2 2 -17.8 1.1 -5.6 2 -12.6 2 -15.5 0 -5.1 -0.1 -5.4 -2.7 -5.7 -2.6 -0.3 -2.8 -0.7 -3.5 -6.3 -0.5 -3.6 -2.1 -8.8 -4.2 -13 -1.9 -3.8 -3.7 -7.7 -3.9 -8.5 -0.2 -0.8 -0.7 0.8 -1.1 3.6 -0.4 3.1 -1.4 5.8 -2.6 6.9 -1.9 1.7 -2 1.7 -2.8 -0.6 -1.9 -4.9 0.9 -12.9 4.5 -12.9 0.8 0 1.3 -0.6 1.2 -1.2 -0.3 -2.6 0.1 -3.9 1.1 -3.3 0.6 0.3 1 1.8 1 3.3 0 3.9 7.1 18.4 8.7 17.8 0.7 -0.3 1.3 -0.4 1.3 -0.3 0 0.1 0.9 2.7 2 5.7 l2 5.5 -0.4 -8 c-0.3 -7 -0.9 -9.2 -4.9 -17.5 -4.3 -9 -7.7 -21.3 -7.7 -27.8 0 -5.8 -2.9 -12.7 -6.9 -16.6 -5.4 -5.3 -6.3 -3 -2.2 5.3 3.3 6.5 3.5 7.1 2.3 7.1 -0.5 0 -1.9 -2.2 -3.2 -5 -1.3 -2.7 -2.7 -5 -3.2 -5 -1.6 0 -0.8 3.8 2.3 10.9 2.3 5.1 3.7 7.1 5 7.1 1.4 0 1.9 0.7 1.9 2.8 0 3.8 -3.2 9.7 -5.1 9.6 -1.2 -0.1 -1.5 0.4 -1.1 1.9 0.9 3.5 -1.4 1 -5.4 -5.8 -2.9 -4.9 -4 -6.1 -4.6 -5 -1 1.6 0.2 4.2 6.3 14.2 4.2 6.8 4.4 7.3 3 7.3 -0.5 0 -3.2 -3.9 -6 -8.7 -4.5 -7.8 -5 -8.4 -5.6 -6 -0.5 1.9 0.3 4 3.3 8.8 2.2 3.5 3.8 6.7 3.5 7.2 -0.3 0.5 -2.2 -1.6 -4.2 -4.7 -2 -3.1 -3.9 -5.6 -4.3 -5.6 -1.3 0 -0.9 3.4 0.5 5.5 4 5.8 4.8 7.5 3.8 7.5 -0.6 0 -2.1 -1.6 -3.3 -3.5 -1.3 -1.9 -2.6 -3.5 -2.9 -3.5 -1.1 0 -4.9 15.5 -3.9 15.8 0.6 0.2 1 3 1 6.3 0 5.1 -0.3 6.1 -2.5 7.5 -1.7 1.1 -2.5 2.5 -2.5 4.5 0 1.6 -0.9 8.4 -1.9 15.2 -3 18.6 -5.1 35.9 -5.4 43.9 -0.2 4 -0.7 7.3 -1.3 7.3 -1.8 0 -0.4 -17.2 3.6 -46.5 2.3 -16.2 5 -33.5 6.2 -38.5 1.7 -7.7 13.5 -45.4 18.6 -59.3 2 -5.5 6.7 -9.4 16.2 -13.3 7.9 -3.3 29.9 -14.9 38.7 -20.5 4.1 -2.6 5.9 -4.6 8.3 -9.4 1.7 -3.3 5.3 -8.4 8 -11.2 4.8 -5 5 -5.4 5 -10.7 -0.1 -5.2 -0.3 -5.7 -3.3 -7.6 -4.6 -2.9 -6.8 -8.2 -7.4 -17.8 -0.5 -6.7 -1 -8.7 -3 -11.1 -2.1 -2.5 -2.4 -3.6 -1.8 -7.6 0.5 -3.8 0.2 -5.6 -1.4 -8.8 -2.5 -4.9 -2.6 -8.5 -0.5 -14.3 0.9 -2.5 1.4 -6.9 1.3 -10.4 -0.3 -10 -0.2 -10.4 6.1 -16.9 3.3 -3.4 6.6 -7.8 7.5 -9.8 1.8 -4.3 2.8 -5.1 6.8 -5 1.6 0 5.7 -1.4 9.1 -3.2 3.6 -1.9 9.3 -3.9 13.2 -4.5 3.8 -0.7 7.2 -1.7 7.5 -2.3 0.5 -0.8 1.9 -0.8 4.9 0 3 0.7 4.9 0.7 6.6 0 3.5 -1.6 10.9 1.5 13.7 5.8 1.3 2 3 3.4 4.2 3.4 2.6 0 8.1 3.4 9.3 5.7 0.6 1 1.4 3.6 1.8 5.8 0.4 2.5 1.9 5.1 4.1 7.2 7.4 7.2 9.1 14.1 5.7 23.4 -0.9 2.7 -1.3 5.9 -1 8.1 0.4 2.4 -0.1 5.6 -1.3 9 -1 2.9 -2.1 7.9 -2.4 11.1 -0.3 3.2 -1.3 6.9 -2.1 8.2 -1.1 1.7 -1.6 4.8 -1.6 10 0 8.2 -1.6 13.4 -4.8 15.6 -1.9 1.4 -2.6 4.6 -2.3 10.4 0.1 1.2 2.8 6.6 6.2 12.2 5.8 9.7 6.3 10.3 12.7 13.6 3.7 1.9 10.9 5.1 16.1 7.1 13.4 5.2 18.3 8.1 24.6 14.7 6.8 7.1 9.8 13.5 12 25.4 0.9 5 2.5 13.3 3.6 18.5 1.4 6.8 1.9 13.7 1.9 24.5 0 8.3 0.5 17 1.2 19.5 0.6 2.5 1.2 11.9 1.3 21 0.1 12.8 0.5 17.5 1.9 21 1.3 3.5 1.5 5.8 1 10.5 -0.5 3.3 -0.7 9 -0.5 12.8 0.3 8.5 -1.4 8.8 -2.3 0.4z m-79 -10.4 c1.8 -4.1 3.9 -9.4 4.4 -11.6 0.6 -2.3 1.8 -6.1 2.7 -8.3 1.4 -3.9 1.4 -4.4 -0.3 -6.9 -1.9 -2.9 -21.2 -16 -22.1 -15.1 -0.3 0.3 0.5 3.8 1.8 7.8 1.6 5.2 2.4 11.1 2.9 20.6 0.6 11.8 0.9 13.5 2.9 15.3 1.2 1.1 1.9 2.5 1.5 3 -0.9 1.5 0.4 4.1 1.7 3.4 0.6 -0.4 2.6 -4.1 4.5 -8.2z m-34.2 -57 c0.8 -4.3 1.7 -9.5 2.1 -11.6 0.9 -5.4 -0.6 -52.1 -1.6 -50.5 -0.6 1 -1.1 1 -2 0.1 -1.3 -1.3 -0.4 -3.3 1.7 -3.3 1.1 0 1.4 -1.5 1.4 -6.2 -0.1 -5.9 -0.2 -6.2 -1.6 -4.3 -2.5 3.1 -4.4 8.1 -4.4 11.5 0 1.6 -0.5 3 -1.1 3 -2.1 0 -0.2 -9.9 2.6 -13.5 3 -4 3.1 -4.5 0.6 -4.5 -3.3 0 -5.1 1.1 -5.1 3.2 0 1.2 -0.6 1.8 -1.7 1.6 -1.9 -0.3 -4.8 4.1 -5.8 9 -0.6 2.9 -0.5 3.2 1.6 3 1.5 -0.2 2.4 0.3 2.7 1.5 0.3 1.3 -0.3 1.7 -2.2 1.7 l-2.6 0 0 10 c0 6 0.4 10 1 10 0.6 0 1 0.9 1 2 0 1.1 -0.4 2 -0.9 2 -2.9 0 -1.4 33.3 1.7 35.6 1.3 1 1.5 1.7 0.6 3.1 -0.6 1 -1.7 5.7 -2.4 10.5 -1.1 7.1 -1.1 9 0 10.3 0.8 1 0.9 1.9 0.2 2.8 -1.4 1.8 2.3 10.7 6.7 15.9 l3.6 4.2 1.2 -19.7 c0.6 -10.8 1.8 -23.2 2.7 -27.4z m68.6 37.6 c5.6 -3.4 5.4 -3 7.4 -16.4 2.1 -14.8 2.9 -23.5 1.9 -23.5 -0.5 0 -3 1.8 -5.7 4 -2.6 2.2 -5.2 4 -5.7 4 -0.5 0 -2.6 -1.1 -4.7 -2.5 -3.9 -2.6 -12.2 -5.8 -13 -5.1 -0.9 0.9 -2.3 24.3 -1.9 30 0.6 6.5 1.7 8.1 8.2 11.5 4.7 2.5 6.7 2.2 13.5 -2z m-25.4 -16.6 c-0.6 -6.5 -2 -12.6 -5.6 -23.3 -2.9 -8.6 -5.3 -18.1 -6 -23.3 -1.2 -10 -7.5 -28.5 -10.2 -30.5 -1.3 -1 -1.6 -1.8 -0.9 -3 1 -1.8 -2.4 -11.9 -5.9 -18 -1.1 -1.8 -2 -4.8 -2 -6.6 0 -2 -0.8 -4 -2 -5.1 -1.7 -1.6 -2.4 -1.6 -4.4 -0.6 -1.8 1 -2.8 1 -4.5 0.1 -2.9 -1.5 -5.7 -0.5 -6.5 2.3 -1.3 4.7 -0.8 5.4 4.2 6.1 l4.7 0.6 -0.3 21.1 c-0.3 14.9 0 20.9 0.7 20.4 0.6 -0.3 1.4 0.2 1.8 1.1 0.4 1 0.2 1.9 -0.5 2.2 -1.9 0.6 -1.4 14.5 0.8 24.6 3.1 14.2 8.4 21 22.7 29.5 3.9 2.3 8.6 5.8 10.5 7.6 1.8 1.9 3.5 3.4 3.7 3.4 0.2 0.1 0.1 -3.8 -0.3 -8.6z m1.8 -25.3 c-3.1 -3.8 -4.8 -19.6 -2.1 -20.5 0.6 -0.2 9.7 -0.6 20 -0.8 l18.8 -0.5 0.6 2.9 c0.9 4.8 1.9 4.2 4.7 -2.4 4.5 -11 4.9 -14.1 5 -37.1 0.1 -20.7 0 -22.1 -1.9 -23.9 -4.5 -4.3 -10.7 -7.7 -23 -12.6 -7.1 -2.9 -14.5 -6.2 -16.4 -7.2 -1.8 -1.1 -3.5 -1.8 -3.7 -1.6 -0.8 0.8 6.2 10.5 13.6 18.7 8.3 9.4 10.4 12.5 9.5 14 -1.2 1.9 -8.5 0.9 -8.5 -1.2 0 -0.5 1.6 -0.6 3.7 -0.2 l3.6 0.7 -2 -2.9 c-1.2 -1.6 -5.5 -6.6 -9.7 -11.2 -5.4 -6 -9 -11.3 -13 -19 -3 -5.9 -6.9 -12.7 -8.5 -15.1 -2.5 -3.7 -3.1 -4.2 -3.7 -2.7 -1.1 2.9 0.4 12.1 3.5 20.9 5.8 16.8 9.4 21.6 20 26.5 3.6 1.6 5 2.7 3.9 2.9 -1.7 0.4 -8.3 -2.5 -13 -5.8 l-2.6 -1.9 -0.7 3.2 c-1.2 5.4 -3.4 9 -10 15.8 -3.4 3.6 -6.5 7.5 -6.9 8.8 -0.5 1.5 0.1 4.6 1.8 9 3.7 9.7 4.5 12.5 6.1 23.3 0.8 5.3 2.9 13.6 4.6 18.5 1.7 4.9 3.8 11.4 4.7 14.4 l1.7 5.5 0.6 -8.5 c0.4 -6.1 0.2 -8.9 -0.7 -10z m25.6 4.5 c2.3 -1.9 5.8 -4.2 7.7 -5.2 l3.6 -1.7 -0.6 -8.4 c-0.4 -4.7 -0.8 -8.5 -0.9 -8.6 -0.2 -0.1 -8.5 0 -18.5 0.2 l-18.3 0.4 0 4.7 c0 8.3 1.6 11.7 6.1 13.8 3.7 1.6 16.2 7.8 16.6 8.2 0 0 2 -1.5 4.3 -3.4z m-182.3 -49.3 c-2.4 -4.4 -3.6 -5.9 -4 -4.8 -0.4 0.9 0.9 4.2 3.1 7.8 4.7 7.9 5.4 5.4 0.9 -3z m2.3 -7 c-2.9 -6.1 -3.3 -6.5 -4.1 -4.4 -1.2 3.1 5 15.2 6.4 12.6 0.6 -1.1 -0.1 -3.6 -2.3 -8.2z m148.6 -19.6 c3 -5.5 2.7 -9.8 -1.3 -18.1 -3.4 -7.2 -3.8 -7.7 -4.1 -5 -0.7 6.9 -5.3 18 -10.6 25.8 l-2.7 3.9 1.7 5.2 1.7 5.3 7.1 -7.4 c3.9 -4.2 7.6 -8.5 8.2 -9.7z m-56 9.2 c0.9 -3 0.6 -3.8 -3.1 -8.8 -3.8 -5 -5.3 -8.3 -11.7 -24.5 -1.5 -3.6 -2.2 -8.6 -2.7 -17.9 l-0.6 -13 -4.7 5.3 c-5.8 6.4 -9.3 13.4 -11.3 22.6 -3 13.2 -5.6 21.9 -9 29.2 -3.1 6.8 -3.2 7.3 -1.4 7.3 3 0 10.8 -4.3 18.9 -10.5 4.1 -3 8.1 -5.4 9 -5.3 0.9 0.2 2.1 2.6 3 6.3 1.3 5 2.2 6.4 5.8 9.2 5.4 4.1 6.7 4.1 7.8 0.1z m3.3 -7.6 c0.9 -1.6 0.5 -2.1 -2.4 -3 l-3.5 -1 2.1 2.9 c2.4 3.4 2.5 3.5 3.8 1.1z m37 -3.1 c2.3 -4.1 2.3 -4.3 0.3 -3.2 -1.1 0.6 -3.4 1.1 -5.1 1.1 l-3.1 0 1.7 3.5 c0.9 2 2.2 3.4 2.7 3.2 0.6 -0.2 2.2 -2.3 3.5 -4.6z m-123.5 3 c0.3 -0.5 10.9 -6.6 23.6 -13.6 12.6 -7 23 -13.3 23 -13.9 0 -0.6 0.3 -2.1 0.6 -3.4 0.6 -2 -0.6 -1.5 -9.2 3.6 -11.7 6.9 -20.6 11.6 -32.9 17.2 -4.9 2.2 -9.7 4.8 -10.7 5.7 -1.6 1.5 -1.6 1.6 0.5 3.4 2.4 2 4.3 2.4 5.1 1z m91.6 -6.2 c0 -0.4 -2.6 -1.7 -5.7 -2.9 -3.2 -1.1 -7 -3 -8.5 -4 l-2.7 -2 1 2.9 c1.3 3.8 3.5 5.6 8.9 7.4 4.3 1.4 7 0.9 7 -1.4z m32.4 -2.6 c4.4 -2 6.6 -7.2 7.4 -16.5 0.5 -6.7 -0.5 -18.4 -1.5 -17.4 -0.3 0.3 -1.5 3.4 -2.7 6.9 -2.5 7.4 -9.3 18.4 -11.9 19.3 -1.1 0.3 -1.6 1.2 -1.3 2.1 0.3 0.8 0.6 2.8 0.6 4.4 0 2.6 0.4 2.9 3 2.9 1.6 0 4.5 -0.7 6.4 -1.7z m-31.1 -3 c0.3 -1.6 0.5 -2.8 0.4 -2.9 -0.1 0 -3.4 -2.2 -7.4 -4.8 -7.5 -4.9 -13 -10.5 -16.4 -16.6 l-2 -3.5 0.6 4.3 c0.8 6.1 3.4 12.2 5 11.6 1.8 -0.7 2.9 1.4 1.5 3 -1.5 1.9 5.1 7.4 11.6 9.7 6.4 2.3 6.1 2.3 6.7 -0.8z m3.6 -5.4 c1.3 -0.9 2.6 -0.9 4.8 -0.2 1.9 0.7 3.5 0.7 4.7 0.1 1 -0.5 2.8 -0.7 4.1 -0.4 3.7 0.9 5.2 -0.2 9.3 -6.7 4.4 -7.1 6.6 -12.4 7.6 -18.2 l0.7 -4 -3.1 5.5 c-1.7 3 -4.4 6.9 -6 8.5 -2.7 2.8 -2.8 3.1 -1.2 4.2 0.9 0.6 1.4 1.4 1 1.8 -0.3 0.3 -1.5 0.1 -2.7 -0.6 -2.7 -1.7 -3.7 -0.5 -2.3 2.6 0.7 1.6 0.8 2.5 0.2 2.5 -0.6 0 -1.5 -1.1 -2.1 -2.4 -0.8 -1.6 -1.7 -2.2 -3 -1.9 -1.8 0.5 -1.9 0.7 -0.4 3 2.4 3.6 1 4 -2 0.7 -2.5 -2.7 -2.6 -2.7 -2.2 -0.6 0.4 1.4 0 2.2 -0.9 2.2 -0.8 0 -1.4 -0.9 -1.4 -2 0 -1.1 -0.7 -2 -1.5 -2 -1.2 0 -1.4 0.7 -0.9 2.6 0.8 3.2 -1.2 2.5 -2.7 -1 -0.9 -2.1 -1 -2.1 -0.5 0.1 0.6 3.5 -1.1 3.7 -2.3 0.3 -0.5 -1.7 -1.4 -3 -2 -3 -0.5 0 -1.7 -0.3 -2.6 -0.7 -1.5 -0.5 -1.6 -0.3 -0.6 1.5 0.6 1.2 0.7 2.3 0.2 2.6 -0.5 0.3 -1.6 -1.3 -2.6 -3.6 -1.2 -3 -1.9 -3.8 -2.5 -2.8 -0.6 0.9 -1.4 0.1 -3.1 -3.1 -1.6 -3.1 -2.4 -3.9 -2.7 -2.6 -0.6 2.9 -2.1 1.9 -2.8 -1.9 -0.4 -2 -2.2 -5.8 -4 -8.6 -3.1 -4.6 -3.4 -4.8 -3.4 -2.3 0 4.3 5.5 14.6 10.2 19.2 3.4 3.2 15.2 12 16.6 12.2 0.1 0.1 1.1 -0.4 2.1 -1z m10.6 -11 c8.9 -2.3 16.4 -11.8 22.2 -28.4 l2.7 -8 -0.2 -34.5 c-0.1 -19 -0.7 -36.8 -1.3 -39.6 l-1 -5.1 -8.5 -3.3 c-9.3 -3.6 -15.9 -4.2 -19.6 -1.6 -1.3 0.9 -4.3 5.3 -6.8 9.8 -6.6 12.1 -13 15.3 -22.5 11.4 -2.9 -1.3 -3.5 -1.3 -4.6 0 -0.9 1.1 -0.8 2.7 0.4 7 1.5 5.4 1.5 5.9 -0.5 11.7 -1.7 4.8 -2 7.5 -1.5 13.5 0.9 11.5 -1.9 15.5 -7.4 10.5 l-2.7 -2.4 0.8 4 c1 5.3 3.5 9.1 7.1 10.4 2.8 1.1 2.9 1.4 2.9 7.3 0 7.7 1.7 12.6 7.2 20.6 6.1 9.1 12.7 15.3 17.4 16.6 5.3 1.4 10.7 1.4 15.9 0.1z m31.3 -54.6 c0.5 -7.4 0.5 -7.5 -1.7 -6.2 -1.9 1.2 -2.1 2.3 -2.1 9.9 0 8.2 0.1 8.4 1.7 6.1 1 -1.5 1.8 -5.2 2.1 -9.8z m-74.8 -12.6 c0.1 -7 0.5 -11 1.5 -12.7 1.7 -3 1.9 -9.5 0.4 -13.9 -0.9 -2.4 -0.9 -3.9 0 -5.8 1 -2.1 0.9 -2.9 -0.5 -4.4 -2.4 -2.7 -0.9 -3.7 1.9 -1.2 3.1 2.8 9 5.3 12.5 5.3 4.9 0 9.2 -3.8 13.3 -12 6.7 -13.1 14 -15.4 28.6 -9.1 4 1.7 7.5 3.1 7.9 3.1 1.4 0 -3.1 -4.1 -8.5 -7.8 -5 -3.3 -6.3 -3.7 -12.1 -3.7 -5.5 0 -7.1 0.4 -10.7 2.8 -2.3 1.6 -5.8 5.3 -7.9 8.2 -5.4 7.9 -11.3 10 -20.6 7.5 -4 -1.1 -10.1 -5.6 -6.3 -4.6 1.1 0.2 3.8 1.2 6 2 8.1 3.1 14.1 1.5 18.6 -5 6.1 -8.9 12.9 -13.3 20.7 -13.4 5.6 0 10.4 2.1 17.7 7.8 l6 4.7 -3.3 -4.2 c-6.6 -8.4 -12.6 -12.2 -20.8 -13 -7.2 -0.8 -12.8 1.4 -18.4 7.2 -5.8 5.9 -12.3 8 -22 7 -6.6 -0.7 -7 -0.6 -9.6 2 -2.9 2.9 -4.1 2.8 -2.5 -0.4 1.8 -3.4 4.3 -4 14.2 -3.8 10.6 0.1 13.2 -0.8 18.9 -6.8 10.9 -11.6 28.2 -9.6 40 4.7 5.5 6.5 6.6 5.8 2.2 -1.3 -3.9 -6.1 -11.4 -12.4 -16.9 -14.3 -5.5 -1.9 -14.6 -2.1 -19.4 -0.4 -1.9 0.6 -6.1 2.9 -9.3 5 -6.4 4.1 -11.7 5 -15.2 2.3 -1.7 -1.3 -1.4 -1.4 3.1 -0.9 4.2 0.4 5.7 0.1 9 -2 9.8 -6.2 13.7 -7.6 21.5 -7.6 6.2 0 8.6 0.5 13.5 2.9 7.1 3.3 13.4 9.8 17.2 17.6 1.5 3 3.2 5.5 3.8 5.5 1 0.1 8.5 6.6 8.5 7.5 0 1.3 -2.2 0.2 -5 -2.5 -3.8 -3.8 -5.9 -3.9 -3 -0.2 4.2 5.4 6.9 10.2 6 10.7 -1 0.6 -4 -2.2 -4 -3.9 0 -0.6 -1.4 -2.7 -3 -4.6 l-3 -3.5 2 4.1 c3 5.9 3.4 10.4 2.1 18.9 -1.1 6.4 -1 7.8 0.4 10.5 2.1 4.1 1.3 4.9 -1.4 1.4 -2.4 -3.1 -2.5 -3.5 -1 -13.4 1.3 -8.5 0.3 -14.2 -3.2 -18.2 -1.8 -2 -2 -2 -1.3 -0.3 0.9 2.6 2.4 39 1.8 43.5 -0.3 1.9 -0.1 4.6 0.3 5.9 l0.9 2.3 2.7 -3.1 c3 -3.6 4.7 -8.8 4.7 -14.6 0.1 -2.2 0.7 -5.1 1.5 -6.5 0.8 -1.4 1.4 -5.2 1.5 -8.6 0 -3.4 0.7 -7.8 1.5 -9.7 1.9 -4.6 1.9 -12 0.1 -15.5 -0.8 -1.5 -3.1 -4.3 -5.1 -6.2 -2.3 -2.3 -4.1 -5.3 -5.1 -8.7 -1.6 -5.4 -5.1 -9.3 -8.5 -9.3 -0.9 0 -1.9 0.6 -2.2 1.3 -0.2 0.6 -1.4 -0.7 -2.6 -3 -2.3 -4.6 -4.9 -6.8 -9.3 -7.8 -3 -0.8 -4 0.8 -1.2 1.9 0.8 0.3 1.2 1 0.9 1.6 -0.4 0.6 -1.8 0.4 -3.7 -0.6 -2.9 -1.5 -3.2 -1.5 -4 0.1 -0.6 1 -1.4 1.3 -2.1 0.7 -4 -3.1 -19.3 -1.1 -26 3.4 -2.3 1.5 -6.1 2.9 -8.4 3.2 -4 0.4 -4.6 0.9 -6.8 5.1 -1.3 2.5 -4.6 6.8 -7.4 9.6 l-5.1 4.9 0 8.2 c0 4.7 -0.6 10 -1.5 12.4 -2.1 5.8 -1.9 9.6 0.6 13.7 1.7 2.8 2 4.4 1.6 8.4 -0.5 4.2 -0.3 5.3 1.8 7.8 1.4 1.6 2.5 3.9 2.5 5 0 4.7 5 12.8 7.1 11.6 0.5 -0.4 0.9 -5.2 0.9 -10.8z"/>
  <path d="M185.5 319 c-0.8 -1.3 0.4 -3.2 1.6 -2.5 1.2 0.8 1.2 3.5 0 3.5 -0.6 0 -1.3 -0.4 -1.6 -1z"/>
  <path d="M181.5 304.1 c-0.8 -1.5 0.3 -3.1 2.1 -3.1 0.9 0 1.4 0.7 1.2 1.7 -0.4 2 -2.4 2.8 -3.3 1.4z"/>
  <path d="M191.5 304.1 c-0.7 -1.2 1.2 -2.4 2.5 -1.6 1.1 0.7 0.4 2.5 -1 2.5 -0.5 0 -1.1 -0.4 -1.5 -0.9z"/>
  <path d="M148.4 287.9 c-0.9 -1.6 1.2 -3.3 3.1 -2.5 1.4 0.5 1.5 0.9 0.5 2.1 -1.5 1.8 -2.6 1.9 -3.6 0.4z"/>
  <path d="M152.3 264.4 c-0.7 -1.9 1.1 -3.9 2.6 -3 1.6 1 1.3 3.3 -0.4 4 -0.9 0.3 -1.8 -0.1 -2.2 -1z"/>
  <path d="M143.2 254.3 c0.4 -2.1 3.3 -2.5 3.3 -0.3 0 0.8 -0.8 1.6 -1.8 1.8 -1.4 0.3 -1.8 -0.1 -1.5 -1.5z"/>
  <path d="M151.3 244.4 c-0.8 -2 1.7 -3.6 3.4 -2.2 1 0.8 1 1.4 0.2 2.4 -1.5 1.8 -2.8 1.8 -3.6 -0.2z"/>
  <path d="M147 224.1 c0 -1.1 0.4 -2.2 0.8 -2.5 1.4 -0.9 3.5 1.2 2.9 2.8 -0.9 2.3 -3.7 2 -3.7 -0.3z"/>
  <path d="M192.6 283.3 c-1.1 -1.1 -0.6 -2.3 0.9 -2.3 0.8 0 1.5 0.4 1.5 0.9 0 1.3 -1.6 2.2 -2.4 1.4z"/>
  <path d="M177.4 281.6 c-0.4 -1 -0.2 -2.2 0.4 -2.8 0.8 -0.8 1.3 -0.7 1.8 0.6 0.4 1 0.2 2.2 -0.4 2.8 -0.8 0.8 -1.3 0.7 -1.8 -0.6z"/>
  <path d="M180.4 264.9 c-0.3 -0.6 -0.2 -1.5 0.2 -1.9 1.2 -1.2 3.8 0.5 3 1.9 -0.9 1.4 -2.3 1.4 -3.2 0z"/>
  <path d="M165.7 263.3 c-1.2 -1.1 -0.8 -2.3 0.8 -2.3 0.8 0 1.5 0.7 1.5 1.5 0 1.6 -1.2 2 -2.3 0.8z"/>
  <path d="M173 246.4 c0 -0.9 0.5 -1.4 1.2 -1.2 1.8 0.6 2.1 2.8 0.4 2.8 -0.9 0 -1.6 -0.7 -1.6 -1.6z"/>
  <path d="M175.5 231 c-1.1 -1.7 0.5 -3.2 2.1 -1.9 0.7 0.6 1.1 1.5 0.8 2 -0.7 1.2 -2.1 1.1 -2.9 -0.1z"/>
  <path d="M163.5 222.1 c-0.7 -1.2 1.2 -2.4 2.5 -1.6 1.1 0.7 0.4 2.5 -1 2.5 -0.5 0 -1.1 -0.4 -1.5 -0.9z"/>
  <path d="M166.4 206.6 c-0.4 -1 -0.2 -2.2 0.4 -2.8 0.8 -0.8 1.3 -0.7 1.8 0.6 0.4 1 0.2 2.2 -0.4 2.8 -0.8 0.8 -1.3 0.7 -1.8 -0.6z"/>
  <path d="M241.1 226.2 c-1.7 -3.2 -1.7 -8.6 -0.1 -9 2.3 -0.4 5.3 6.3 4 8.9 -1.3 2.4 -2.6 2.4 -3.9 0.1z"/>
  <path d="M220 268.1 c-2.1 -4 2.6 -7.9 5.8 -4.7 1.3 1.2 1.3 2 0.4 4.1 -1.4 3 -4.7 3.3 -6.2 0.6z m4.6 -1.2 c0.3 -0.6 0.1 -1.6 -0.5 -2.2 -0.9 -0.9 -1.4 -0.8 -2.1 0.3 -0.9 1.5 -0.4 3 1 3 0.5 0 1.2 -0.5 1.6 -1.1z"/>
  <path d="M138.3 191.3 c-1.8 -0.7 -1.6 -2.3 0.2 -2.3 0.8 0 1.5 0.7 1.5 1.5 0 0.8 -0.1 1.5 -0.2 1.4 -0.2 0 -0.9 -0.3 -1.5 -0.6z"/>
  <path d="M179.5 184 c-0.7 -1.2 0.2 -3 1.6 -3 1.2 0 1.2 2.7 0 3.5 -0.5 0.3 -1.2 0.1 -1.6 -0.5z"/>
  <path d="M140.5 183.1 c-0.6 -1.1 0.9 -2.3 1.9 -1.4 0.9 0.9 0.7 2.3 -0.3 2.3 -0.6 0 -1.2 -0.4 -1.6 -0.9z"/>
  <path d="M157.1 165.9 c-1.3 -1.1 -2.1 -2.2 -1.8 -2.5 0.9 -0.9 4.7 1.6 4.7 3.1 0 1.9 0 1.9 -2.9 -0.6z"/>
  <path d="M152.4 150 c-1.2 -0.5 -2.5 -1.4 -2.9 -2.1 -0.6 -0.9 -0.1 -1 2.1 -0.3 3.7 1 10.4 1.1 12.7 0 1.1 -0.5 1.7 -0.4 1.7 0.3 0 2.6 -9 4 -13.6 2.1z"/>
  <path d="M135 146.5 c0 -3.3 2.2 -8.6 4.4 -10.4 1.9 -1.6 13.6 -2.2 13.6 -0.6 0 0.7 0.3 0.7 0.8 0 0.4 -0.6 1.7 -1 3 -0.9 1.2 0.1 3 0.2 4 0.3 2 0.1 4.2 3.9 4.2 7.2 0 1.1 -0.4 1.7 -1 1.4 -0.5 -0.3 -1 -1.4 -1 -2.4 0 -0.9 -0.6 -2.5 -1.3 -3.5 -1.2 -1.6 -1.3 -1.3 -0.9 2 0.4 4 -1.1 3.9 -2.1 -0.1 -0.4 -1.8 -0.5 -1.8 -0.6 0.3 -0.2 3.2 -2.1 2.7 -2.2 -0.5 -0.1 -2.1 -0.2 -2.3 -0.6 -0.8 -0.9 3.5 -2.3 4.1 -2.4 1 l-0.1 -3 -0.9 2.6 c-1.3 3.5 -4.6 4.5 -5.2 1.5 -0.4 -2 -0.4 -2 -0.6 0.2 -0.1 2.4 -1.6 3 -2.4 1 -0.3 -0.8 -0.6 -0.6 -0.6 0.5 -0.1 0.9 -0.5 1.7 -1 1.7 -0.5 0 -1.2 -0.8 -1.4 -1.7 -0.3 -1.1 -0.5 -0.7 -0.6 1 -0.1 3 -1.7 3.7 -2.4 1 -0.3 -1 -0.5 -0.3 -0.6 1.5 -0.1 3.7 -2.1 4.4 -2.1 0.7z"/>
  <path d="M175.6 147.3 c-0.3 -0.3 -0.6 -1.4 -0.6 -2.3 0 -0.9 -0.7 -2.5 -1.5 -3.6 -1.5 -1.8 -1.5 -1.8 -0.9 0.9 0.4 1.6 0.2 2.7 -0.4 2.7 -0.6 0 -1.3 -1.3 -1.7 -3 -1 -4.4 -2.5 -4.7 -1.8 -0.4 0.4 2.7 0.3 3.5 -0.5 3 -0.7 -0.4 -1.2 -1.3 -1.2 -1.9 0 -0.7 -0.7 -2.5 -1.5 -4.1 -1.7 -3.2 -1.3 -4.5 0.9 -2.7 1.1 0.9 1.5 0.9 2 -0.1 0.5 -1 0.7 -1 1.2 -0.1 0.3 0.7 1.1 1 1.9 0.7 1.3 -0.5 3.4 2.5 5.5 8.1 0.9 2.3 0 4.2 -1.4 2.8z"/>
  <path d="M171.3 131.8 c-2.1 -2.8 -2.4 -3.8 -0.9 -3.8 0.8 0 1.8 0.9 2.1 2.1 0.8 2.5 0.2 3.4 -1.2 1.7z"/>
  <path d="M152.6 130.7 c-1 -0.8 -2.9 -1.2 -4.2 -0.9 -2.8 0.5 -3.9 -1.5 -3 -5.3 0.9 -3.6 2.7 -3.1 2 0.5 -0.5 2.3 -0.3 3 1 3 1.1 0 1.6 -0.9 1.6 -3.3 0 -1.8 0.6 -4.2 1.4 -5.2 1.3 -1.8 1.4 -1.4 1.3 3.5 l-0.2 5.5 3 -0.2 c1.7 -0.1 4.5 -0.5 6.3 -0.9 2.6 -0.5 3 -0.9 2.1 -2 -1.6 -1.9 -0.3 -3 1.6 -1.4 3.2 2.7 1.6 4.8 -4.4 6 -2 0.4 -4.3 1 -5.1 1.4 -0.9 0.4 -2.4 0 -3.4 -0.7z"/>
  <path d="M151.6 112.8 c0.4 -1.3 0.8 -4.9 1 -8.1 0.2 -7.3 1 -8.1 2.4 -2.8 0.9 3.5 0.8 4.8 -0.9 8.6 -2 4.6 -4 6.3 -2.5 2.3z"/>
  <path d="M129.1 101.6 c0.6 -3.1 5.6 -6.1 10.3 -6.1 4.4 0 10.1 2.9 9 4.6 -0.4 0.7 -1.2 0.5 -2.3 -0.5 -2.2 -2 -3.1 -2 -3.1 -0.2 0 4 -6.3 4.4 -7.5 0.5 -0.7 -2 -0.8 -2 -3.7 0.8 -2.5 2.3 -2.9 2.5 -2.7 0.9z m10.9 -3.2 c0 -0.8 -0.4 -1.4 -1 -1.4 -0.5 0 -1 0.9 -1 2.1 0 1.1 0.5 1.7 1 1.4 0.6 -0.3 1 -1.3 1 -2.1z"/>
  <path d="M169 100.5 c-1 -1.2 -1.6 -1.3 -2.7 -0.4 -1.6 1.4 -2.8 0.6 -1.8 -1.1 1 -1.6 6.9 -4 9.9 -4 1.3 0 3.4 0.9 4.7 2.1 l2.4 2.1 -2.3 -0.5 c-1.5 -0.4 -2.6 0.1 -3.2 1.4 -1.3 2.3 -5.3 2.5 -7 0.4z m4.5 -1.4 c0.7 -1.2 -1.2 -2.4 -2.5 -1.6 -1.1 0.7 -0.4 2.5 1 2.5 0.5 0 1.1 -0.4 1.5 -0.9z"/>
  <path d="M164 94.6 c-0.8 -1.1 0.2 -2 4.9 -4.5 3.3 -1.7 7.5 -3.1 9.3 -3.1 3.8 0 7.8 2.4 7.8 4.6 0 1.8 -0.5 1.8 -3.5 -0.2 -2.9 -1.9 -7.3 -1.4 -11.3 1.4 -4 2.8 -5.9 3.2 -7.2 1.8z"/>
  <path d="M126.4 93.8 c-1.1 -1.8 5.2 -6.8 8.7 -6.8 3.1 0 8.1 2.1 11.2 4.8 4 3.5 0.8 4.3 -5.3 1.2 -2.2 -1.1 -5 -2 -6.3 -2 -1.3 0 -3.4 0.9 -4.7 2 -2.7 2.3 -2.7 2.3 -3.6 0.8z"/>
  <path d="M148.6 81.1 c-0.6 -0.8 18.3 -2.1 19.4 -1.3 0.2 0.2 -0.2 0.7 -1 1.2 -1.9 1.2 -17.7 1.3 -18.4 0.1z"/>
  <path d="M27.5 342.2 c2.9 -2.9 18.7 -6.1 23.9 -4.8 4.4 1.1 2.9 2.5 -2.1 2 -2.9 -0.4 -7.3 0.1 -11.3 1.1 -10.9 2.7 -11.6 2.8 -10.5 1.7z"/>
  <path d="M234 334.6 c0 -1.3 6.6 -3.5 12.7 -4.1 6.3 -0.8 13.3 0.7 13.3 2.7 0 0.6 -0.7 0.7 -1.6 0.4 -5.1 -2 -13 -1.6 -22.1 1 -1.3 0.3 -2.3 0.3 -2.3 0z"/>
  <path d="M28.4 330.2 c1 -1.7 10.7 -3.3 15.3 -2.6 6.6 1 6.3 2.5 -0.4 2.2 -3.2 -0.2 -8 0.1 -10.7 0.5 -3.1 0.6 -4.6 0.5 -4.2 -0.1z"/>
  <path d="M95.5 324.3 c-4.4 -1.1 -14.1 -5.6 -16.2 -7.6 -2.1 -1.9 -2.3 -2.9 -2.3 -12.6 0 -13.3 1 -24.1 2.2 -24.1 0.6 0 0.6 6.2 0.2 15.4 -0.4 8.4 -0.4 16.5 -0.1 17.8 0.9 3.4 12.8 8.8 19.4 8.8 5.8 0 13.7 -3.8 20.1 -9.5 l4.4 -4 1.4 -14 c1.7 -17.4 2.2 -20.5 3.6 -20.5 0.6 0 0.8 1.1 0.5 2.8 -0.3 1.6 -1.1 8.6 -1.7 15.8 -0.6 7.1 -1.6 14.2 -2.2 15.7 -3 7.6 -21.7 17.8 -29.3 16z"/>
  <path d="M235 321.2 c0 -0.5 3 -1.2 6.8 -1.4 4.5 -0.3 8.4 -1.4 11.9 -3.2 5.4 -2.7 7.3 -3.2 7.3 -1.8 0 0.4 -2.8 2.1 -6.2 3.7 -6.5 2.9 -19.8 4.8 -19.8 2.7z"/>
  <path d="M58.5 307.9 c-0.4 -1.7 -2.4 -6.3 -4.5 -10.3 -4.9 -9 -8.6 -22.6 -6.2 -22.6 0.4 0 1.5 3.2 2.4 7.1 0.9 3.8 3.7 11.2 6.2 16.2 2.6 5.1 4.6 10 4.6 11 0 2.9 -1.8 1.9 -2.5 -1.4z"/>
  <path d="M240.5 286.4 c-1.4 -1.5 -1.4 -1.9 0.4 -4.8 3 -4.7 5.5 -6.1 7.4 -4.1 1.4 1.4 1.4 1.9 -0.6 6 -2.3 4.8 -4.4 5.6 -7.2 2.9z"/>
  <path d="M97.8 279.9 c-2.1 -1 -7 -2.6 -11 -3.4 -10.1 -2.1 -11.2 -3.5 -10.3 -14 0.4 -4.4 1 -8.3 1.4 -8.7 0.3 -0.4 7.8 -1.2 16.6 -1.9 17 -1.2 33.9 -0.7 36.1 1.2 1.8 1.5 1.8 11.5 0.1 14.9 -0.9 1.7 -3.3 3.2 -8.4 5.1 -3.9 1.4 -9.7 4 -12.7 5.8 -6.5 3.6 -6.9 3.6 -11.8 1z m9 -1.8 c2.3 -1.5 8.7 -4.5 19.9 -9.1 2.4 -1 3.7 -5.4 3.1 -11.1 l-0.3 -3.4 -7.5 -0.9 c-7.8 -0.8 -40.9 0.8 -42.1 2.2 -0.4 0.4 -1 3.6 -1.3 7.2 -0.9 8.6 0 9.7 9.2 11.6 4 0.8 8.8 2.4 10.5 3.4 4.1 2.4 5.3 2.4 8.5 0.1z"/>
  <path d="M100 274.5 c-1.7 -2 -0.5 -6.2 2 -7 2.9 -0.9 6 1.2 6 4 0 3.9 -5.5 6 -8 3z m5.5 -2.9 c0 -2.2 -1.4 -2.9 -3.4 -1.7 -1.9 1.2 -0.6 4.3 1.6 3.9 1 -0.2 1.8 -1.2 1.8 -2.2z"/>
  <path d="M272.2 253.3 c-0.5 -1 -1.3 -3.9 -1.6 -6.5 -0.7 -4.7 -0.7 -4.8 1.9 -4.8 1.8 0 2.8 0.7 3.5 2.6 1.5 4 1.2 9.1 -0.6 9.8 -2.2 0.8 -2.2 0.8 -3.2 -1.1z"/>
  <path d="M73.7 229.6 c-0.5 -1.3 0.9 -9.1 1.9 -10.8 0.3 -0.4 1.4 -0.3 2.6 0.3 1.7 0.9 1.9 1.7 1.3 4.7 -0.4 2 -1.1 4.5 -1.6 5.4 -1.2 2.1 -3.5 2.4 -4.2 0.4z"/>
 </g>
</svg>