<?xml version="1.0" encoding="utf-8"?>
<!DOCTYPE svg PUBLIC "-//W3C//DTD SVG 1.0//EN" "http://www.w3.org/TR/2001/REC-SVG-20010904/DTD/svg10.dtd">
<svg version="1.0" xmlns="http://www.w3.org/2000/svg" width="313px" height="395px" viewBox="0 0 313 395" preserveAspectRatio="xMidYMid meet">
 <g fill="#000000">
  <path d="M0 382.60 c0 -1.50 0.05 -1.50 3.15 -1.80 1.70 -0.15 4.80 -0.50 6.85 -0.75 2.05 -0.25 5.90 -0.75 8.50 -1.05 6.20 -0.75 11.35 -1.35 16 -1.95 2.05 -0.30 5.65 -0.75 8 -1 2.35 -0.30 5.40 -0.65 6.75 -0.85 1.40 -0.15 2.70 -0.50 3 -0.75 0.25 -0.25 1 -0.45 1.70 -0.45 2.20 0 7.25 -2.05 8.95 -3.65 1.55 -1.50 5.10 -7.90 5.10 -9.25 0 -0.35 0.20 -1 0.45 -1.50 0.25 -0.45 0.75 -1.85 1.10 -3.10 0.35 -1.25 0.80 -2.45 1.05 -2.70 0.20 -0.30 0.40 -1.10 0.40 -1.85 0 -0.75 0.25 -1.55 0.50 -1.70 0.30 -0.15 0.50 -0.95 0.50 -1.75 0 -0.80 0.25 -1.60 0.50 -1.75 0.30 -0.15 0.50 -0.85 0.50 -1.50 0 -0.65 0.25 -1.35 0.50 -1.50 0.30 -0.15 0.50 -0.85 0.50 -1.55 0 -0.65 0.25 -1.20 0.50 -1.20 0.30 0 0.50 -0.45 0.50 -1 0 -0.55 0.20 -1 0.40 -1 0.25 0 1 -1.05 1.65 -2.35 0.65 -1.35 1.30 -2.50 1.45 -2.65 0.15 -0.15 0.80 -1.95 1.45 -4 0.65 -2.05 1.35 -4.15 1.60 -4.60 0.25 -0.50 0.45 -1.50 0.45 -2.30 0 -0.75 0.20 -1.60 0.45 -1.85 0.25 -0.30 0.60 -1.50 0.75 -2.75 0.60 -4.95 0.90 -6.50 1.35 -6.80 0.25 -0.15 0.45 -0.80 0.45 -1.50 0 -0.65 0.20 -1.60 0.45 -2.10 0.25 -0.45 0.65 -1.40 0.95 -2.10 1.40 -3.50 2.70 -5.85 5.25 -9.85 0.75 -1.20 1.35 -2.25 1.35 -2.40 0 -0.30 1.65 -4.10 3.15 -7.15 1 -2.10 0.85 -3.30 -0.25 -2.20 -0.35 0.35 -1.10 0.60 -1.75 0.60 -0.65 0 -1.15 0.25 -1.15 0.50 0 0.30 -0.45 0.50 -1 0.50 -0.55 0 -1.40 0.20 -1.90 0.45 -0.85 0.45 -2.55 1.15 -4.70 2 -0.65 0.20 -1.80 0.70 -2.65 1.05 -1.40 0.60 -2.20 0.90 -4.85 1.95 -0.65 0.20 -2.15 0.90 -3.30 1.50 -1.20 0.55 -2.50 1.05 -2.90 1.05 -0.40 0 -0.70 0.25 -0.70 0.50 0 0.30 -0.30 0.50 -0.60 0.50 -0.50 0 -9.40 4.15 -14 6.55 -0.50 0.25 -1.25 0.45 -1.65 0.45 -0.40 0 -0.75 0.25 -0.75 0.50 0 0.30 -0.35 0.50 -0.75 0.50 -0.40 0 -1.15 0.20 -1.65 0.45 -0.45 0.25 -1.50 0.70 -2.35 1.05 -0.80 0.35 -1.90 0.80 -2.35 1.05 -1.55 0.80 -3.80 0.50 -4.80 -0.55 -0.55 -0.60 -1.50 -2.10 -2.15 -3.40 -0.65 -1.30 -1.30 -2.45 -1.50 -2.60 -0.15 -0.15 -0.40 -0.50 -0.50 -0.80 -0.70 -1.90 -9.10 -10.95 -9.80 -10.55 -0.40 0.25 -4.20 5.55 -5.90 8.25 -0.25 0.45 -0.90 1.25 -1.35 1.80 -0.50 0.55 -0.90 1.30 -0.90 1.65 0 0.35 -0.20 0.65 -0.45 0.65 -0.25 0 -0.80 0.75 -1.25 1.65 -1.20 2.55 -6.65 9.75 -8.10 10.70 -1.05 0.70 -1.55 0.70 -2.90 0.25 -0.90 -0.35 -2.10 -0.60 -2.70 -0.60 -0.55 0 -1.20 -0.20 -1.35 -0.50 -0.15 -0.25 -0.95 -0.50 -1.80 -0.50 -1.30 0 -1.45 -0.15 -1.45 -1.50 0 -1.35 0.15 -1.50 1.45 -1.50 0.85 0 1.65 0.25 1.80 0.50 0.15 0.30 0.85 0.50 1.55 0.50 0.65 0 1.65 0.25 2.20 0.60 1.35 0.85 2.95 -0.65 6.75 -6.50 0.30 -0.45 0.90 -1.25 1.40 -1.80 0.45 -0.55 0.85 -1.15 0.85 -1.35 0 -0.25 0.75 -1.45 1.65 -2.75 0.85 -1.25 1.85 -2.65 2.10 -3.10 0.30 -0.45 1.55 -2.20 2.90 -3.95 1.30 -1.70 2.35 -3.25 2.35 -3.45 0 -0.20 0.50 -0.75 1.15 -1.30 1.90 -1.70 4.15 -0.95 7.35 2.55 3.55 3.80 6.50 7.40 6.50 7.80 0 0.15 0.65 1.25 1.40 2.40 0.75 1.15 1.70 2.70 2.05 3.50 0.75 1.40 1.50 1.65 2.95 0.90 0.45 -0.25 1.40 -0.65 2.10 -0.95 1.55 -0.60 5.95 -2.55 7.10 -3.15 0.50 -0.25 1.25 -0.45 1.65 -0.45 0.40 0 0.75 -0.20 0.75 -0.50 0 -0.25 0.25 -0.50 0.60 -0.50 0.35 0 3.65 -1.50 7.40 -3.30 9.50 -4.65 9.10 -4.45 11.65 -5.25 1.30 -0.35 2.35 -0.85 2.35 -1.05 0 -0.20 0.55 -0.40 1.20 -0.40 0.70 0 1.40 -0.20 1.55 -0.50 0.15 -0.25 0.75 -0.50 1.30 -0.50 0.50 0 0.95 -0.20 0.95 -0.50 0 -0.25 0.45 -0.50 1 -0.50 0.55 0 1.40 -0.20 1.90 -0.45 0.45 -0.25 1.40 -0.65 2.10 -0.90 0.70 -0.30 1.80 -0.75 2.50 -1.05 0.70 -0.30 2.15 -0.80 3.25 -1.15 3.05 -0.90 3.40 -1.15 4.50 -3.25 0.55 -1.05 1.10 -2.05 1.25 -2.20 0.15 -0.15 0.85 -1.05 1.50 -2 1.55 -2.25 1.65 -2.30 5.50 -5.15 1.80 -1.35 3.60 -2.65 4.05 -3 0.40 -0.35 1.15 -0.80 1.55 -1.10 1.45 -0.90 7.65 -6.10 8.60 -7.20 1.20 -1.30 0.70 -1.90 -0.95 -1.15 -0.70 0.35 -2.75 0.60 -4.50 0.60 -1.75 0 -3.75 0.20 -4.45 0.50 -1.70 0.65 -23.70 0.75 -25.30 0.10 -0.70 -0.30 -2.60 -0.75 -4.25 -1.10 -1.65 -0.35 -3.45 -0.80 -4 -1 -0.55 -0.25 -1.65 -0.55 -2.50 -0.70 -0.80 -0.15 -2.60 -0.50 -4 -0.80 -1.35 -0.30 -3.30 -0.65 -4.25 -0.80 -0.95 -0.15 -2.20 -0.45 -2.75 -0.70 -0.55 -0.25 -1.90 -0.55 -3 -0.70 -1.10 -0.10 -3.10 -0.50 -4.50 -0.80 -1.35 -0.30 -3.50 -0.75 -4.75 -1 -1.25 -0.25 -3.35 -0.70 -4.75 -1 -3.80 -0.85 -6.75 -1.40 -9.25 -1.75 -1.25 -0.20 -2.70 -0.50 -3.25 -0.75 -0.55 -0.25 -1.90 -0.55 -3 -0.70 -1.10 -0.10 -3.10 -0.50 -4.50 -0.80 -1.35 -0.30 -3.30 -0.65 -4.25 -0.80 -0.95 -0.15 -2.20 -0.45 -2.75 -0.70 -0.55 -0.25 -1.65 -0.55 -2.50 -0.70 -0.80 -0.15 -2.60 -0.50 -4 -0.80 -4.55 -1 -7.95 -1.55 -11.60 -1.80 l-3.65 -0.30 0 -1.50 0 -1.50 3.40 0.30 c1.85 0.15 4.70 0.50 6.35 0.75 1.65 0.30 3.90 0.65 5 0.80 1.10 0.20 2.45 0.50 3 0.75 0.55 0.25 1.70 0.55 2.50 0.70 0.85 0.15 2.55 0.50 3.85 0.80 1.35 0.25 3.45 0.75 4.75 1 2.55 0.60 3.60 0.80 14.55 2.95 3 0.65 7.20 1.50 10.10 2.10 1.25 0.30 3.05 0.60 4 0.75 0.95 0.15 2.20 0.45 2.75 0.70 0.55 0.25 1.90 0.55 3 0.70 1.10 0.10 3.05 0.45 4.40 0.75 4 0.95 7 1.55 9 1.85 1.05 0.20 2 0.55 2.15 0.75 0.35 0.60 2.20 0.55 2.20 -0.05 0 -0.25 -0.45 -0.50 -1 -0.50 -0.55 0 -1 -0.20 -1 -0.45 0 -0.25 -0.40 -0.55 -0.85 -0.70 -1 -0.35 -4.75 -2.50 -6.75 -3.90 -0.70 -0.55 -1.45 -0.95 -1.65 -0.95 -0.15 0 -1.30 -0.65 -2.50 -1.50 -1.20 -0.80 -2.30 -1.50 -2.45 -1.50 -0.10 0 -1.95 -1.10 -4 -2.50 -2.10 -1.35 -3.90 -2.50 -4 -2.50 -0.15 0 -1.85 -1.05 -3.90 -2.40 -2 -1.30 -4.30 -2.70 -5.15 -3.10 -0.80 -0.40 -1.60 -0.85 -1.75 -1 -0.15 -0.15 -0.90 -0.60 -1.75 -1 -0.80 -0.40 -2.10 -1.10 -2.85 -1.60 -0.70 -0.50 -1.60 -0.90 -2 -0.90 -0.35 0 -1.20 -0.45 -1.90 -1 -0.70 -0.55 -1.75 -1 -2.35 -1 -0.65 0 -1.15 -0.20 -1.15 -0.50 0 -0.25 -0.45 -0.50 -1 -0.50 -0.65 0 -1 -0.35 -1 -0.95 0 -1 1.35 -2.40 1.85 -1.90 0.15 0.20 1.70 -0.85 3.35 -2.30 1.70 -1.50 3.60 -3.10 4.25 -3.65 0.65 -0.50 2 -1.65 3 -2.45 1 -0.85 2.60 -2.15 3.65 -2.90 1 -0.75 2.10 -1.60 2.50 -1.95 0.35 -0.35 1.45 -1.25 2.40 -1.95 0.95 -0.75 2.30 -1.80 2.95 -2.40 0.65 -0.55 1.60 -1.15 2.10 -1.30 1.35 -0.45 1.15 -0.90 -0.70 -1.65 -2.75 -1.15 -3.80 -1.60 -5.10 -2.10 -3.05 -1.20 -4.05 -1.65 -4.85 -2.05 -0.50 -0.25 -1.20 -0.45 -1.60 -0.45 -0.35 0 -0.80 -0.50 -0.95 -1.05 -0.25 -0.95 -0.55 -1 -2.45 -0.75 -3.25 0.50 -14 1.30 -24.40 1.80 -5.10 0.25 -11.20 0.60 -13.60 0.80 l-4.40 0.30 0 -1.50 0 -1.50 6.15 -0.30 c3.35 -0.20 10.15 -0.55 15.10 -0.80 11.20 -0.55 20.55 -1.30 22.40 -1.75 1.30 -0.35 1.35 -0.50 1.35 -3.30 0 -1.65 -0.20 -3.35 -0.45 -3.85 -0.25 -0.45 -0.60 -1.25 -0.75 -1.75 -0.15 -0.45 -0.70 -1 -1.15 -1.15 -0.50 -0.15 -1.35 -0.50 -1.90 -0.70 -0.55 -0.25 -1.80 -0.55 -2.75 -0.70 -0.95 -0.15 -3 -0.50 -4.50 -0.80 -1.50 -0.30 -4 -0.75 -5.50 -1 -3.25 -0.60 -7 -1.30 -10.50 -2 -9.25 -1.85 -12.55 -2.45 -15.40 -2.80 -1.95 -0.30 -2.10 -0.40 -2.10 -1.80 0 -1.45 0.05 -1.50 1.90 -1.20 3.25 0.45 10.90 1.90 15.35 2.85 1.40 0.25 3.70 0.70 5.15 1 5.40 0.95 7.90 1.45 10.35 1.90 1.40 0.30 3.30 0.65 4.25 0.80 0.95 0.15 2.60 0.55 3.60 0.85 1.65 0.50 2.05 0.45 2.95 -0.40 1.35 -1.25 6.45 -2.10 12.60 -2.15 2.65 -0.05 4.85 -0.25 4.85 -0.50 0 -0.25 -1.10 -1.65 -2.40 -3.15 -1.35 -1.45 -2.95 -3.30 -3.65 -4.15 -0.65 -0.80 -4.45 -4.85 -8.45 -8.90 l-7.25 -7.40 -19.60 0.15 c-19.65 0.15 -19.65 0.15 -19.65 -0.90 0 -2 1.65 -2.20 19 -2.20 9.95 0 16.50 -0.20 16.50 -0.45 0 -0.30 -1.45 -1.80 -3.25 -3.40 -1.80 -1.60 -3.25 -3.20 -3.25 -3.50 0 -1.25 2.55 -2.25 6.65 -2.70 5.60 -0.55 7.80 -1 8.15 -1.50 0.15 -0.25 0.80 -0.45 1.45 -0.45 0.65 0 1.35 -0.20 1.50 -0.50 0.15 -0.25 0.85 -0.50 1.50 -0.50 0.65 0 1.30 -0.20 1.45 -0.45 0.15 -0.25 1 -0.55 1.90 -0.70 0.90 -0.15 2.80 -0.55 4.15 -0.90 1.65 -0.40 6.80 -0.60 15.25 -0.60 12.50 0 16.80 0.30 17.70 1.20 0.30 0.25 1 0.45 1.60 0.45 0.65 0 1.30 0.20 1.45 0.50 0.45 0.70 1.25 0.60 1.25 -0.15 0 -1 -12.35 -12.35 -13.40 -12.35 -0.30 0 -0.60 -0.20 -0.70 -0.40 -0.25 -0.60 -6.80 -5.60 -7.35 -5.60 -0.25 0 -0.55 -0.20 -0.65 -0.40 -0.20 -0.60 -4.75 -3.60 -5.35 -3.60 -0.30 0 -0.55 -0.20 -0.55 -0.40 0 -0.25 -0.60 -0.75 -1.35 -1.15 -0.80 -0.40 -3.70 -2.20 -6.50 -4.10 -2.85 -1.85 -5.35 -3.35 -5.65 -3.35 -0.25 0 -0.50 -0.20 -0.50 -0.45 0 -0.25 -0.40 -0.55 -0.90 -0.70 -0.95 -0.30 -3.70 -1.95 -4.10 -2.40 -0.15 -0.20 -1.35 -0.85 -2.70 -1.50 l-2.40 -1.10 -0.95 1.20 c-0.50 0.65 -0.95 1.60 -0.95 2.10 0 0.45 -0.20 0.85 -0.50 0.85 -0.25 0 -0.50 0.30 -0.50 0.70 0 1.75 -5.75 11.55 -7.95 13.50 -0.90 0.85 -1.20 0.90 -2.30 0.30 -1.15 -0.60 -4.75 -5.50 -4.75 -6.40 0 -0.25 -0.45 -0.85 -1 -1.35 -0.55 -0.50 -1 -1.10 -1 -1.35 0 -0.70 -8.80 -13.55 -10.15 -14.80 -1 -0.95 -1.60 -1.15 -2.95 -0.85 -1.60 0.30 -3.20 0.90 -5 1.80 -0.50 0.25 -1.35 0.45 -1.90 0.45 -0.80 0 -1 -0.35 -1 -1.50 0 -1 0.25 -1.50 0.75 -1.50 0.40 0 1.15 -0.20 1.65 -0.45 1.15 -0.65 2.45 -1.10 4.90 -1.80 3.80 -1.05 5.55 0.50 12.65 11.25 2.80 4.15 5.05 7.65 5.05 7.80 0 0.45 3.25 5.20 3.60 5.20 0.65 0 3.20 -4.20 6.15 -10.20 1.60 -3.25 3.35 -6.35 3.90 -6.85 1.15 -1.05 2.85 -1.20 4.35 -0.45 2.30 1.15 3.25 1.65 4.80 2.55 0.95 0.50 2.50 1.40 3.50 1.95 0.95 0.55 3.80 2.35 6.20 4 2.45 1.65 4.70 3 5 3 0.25 0 0.50 0.20 0.50 0.40 0 0.25 0.60 0.75 1.35 1.15 0.75 0.40 3.05 1.85 5.10 3.20 2.05 1.40 4.05 2.75 4.45 3 0.45 0.30 1.35 1 2.05 1.60 0.70 0.65 1.45 1.15 1.60 1.15 0.15 0 0.85 0.50 1.50 1.05 0.65 0.60 2 1.65 2.95 2.40 0.95 0.70 1.85 1.40 2 1.55 2.90 2.80 4.55 4.15 4.75 3.90 0.15 -0.15 -0.25 -1.25 -0.95 -2.45 -0.70 -1.20 -3.25 -6.15 -5.65 -10.95 -2.40 -4.80 -4.50 -8.85 -4.65 -9 -0.15 -0.15 -3.20 -6.10 -6.85 -13.25 -3.60 -7.15 -7.20 -14.35 -8.05 -16 -0.85 -1.65 -1.95 -3.90 -2.50 -5 -0.50 -1.10 -1.15 -2.45 -1.45 -3 -0.60 -1.05 -3.15 -6.55 -4.75 -10.25 -0.55 -1.25 -1.45 -3.10 -1.95 -4.15 -0.55 -1.10 -0.95 -2.25 -0.95 -2.65 0 -0.40 -0.20 -0.70 -0.50 -0.70 -0.25 0 -0.50 -0.30 -0.50 -0.70 0 -0.40 -0.45 -1.65 -1 -2.75 -0.55 -1.15 -1.45 -2.95 -2 -4.10 -0.55 -1.10 -1 -2.35 -1 -2.75 0 -0.40 -0.15 -0.70 -0.40 -0.70 -0.20 0 -0.65 -0.65 -1 -1.50 -0.40 -0.90 -1.05 -1.50 -1.60 -1.50 -0.50 0 -1.05 -0.20 -1.20 -0.45 -0.15 -0.25 -0.90 -0.55 -1.65 -0.70 -0.80 -0.20 -2.50 -0.55 -3.90 -0.85 -1.35 -0.30 -3.85 -0.80 -5.50 -1.10 -3.55 -0.65 -24.95 -0.75 -28.35 -0.20 l-2.40 0.45 0 -1.50 c0 -1.50 0.05 -1.55 3.15 -1.90 4.80 -0.60 22.15 -0.50 26.60 0.15 2.20 0.35 4.95 0.75 6.15 0.90 1.15 0.15 2.25 0.50 2.40 0.75 0.35 0.60 1.70 0.60 1.70 0 0 -0.25 -0.70 -0.75 -1.50 -1.15 -0.85 -0.35 -1.50 -0.80 -1.50 -0.95 0 -0.15 -1.50 -1.05 -3.35 -2 -1.90 -0.95 -3.45 -1.85 -3.55 -2.05 -0.10 -0.25 -0.50 -0.40 -0.85 -0.40 -0.35 0 -1.65 -0.50 -2.85 -1.05 -1.15 -0.60 -2.70 -1.30 -3.40 -1.60 -0.70 -0.25 -1.65 -0.65 -2.10 -0.90 -0.50 -0.25 -1.35 -0.45 -1.90 -0.45 -0.55 0 -1 -0.20 -1 -0.45 0 -0.25 -0.75 -0.55 -1.60 -0.70 -0.90 -0.15 -2.65 -0.55 -3.90 -0.85 -1.25 -0.30 -3.05 -0.70 -4 -0.80 -0.95 -0.15 -2.20 -0.45 -2.75 -0.70 -0.55 -0.25 -2 -0.55 -3.25 -0.60 -2.05 -0.15 -2.25 -0.25 -2.40 -1.60 l-0.20 -1.45 2.95 0.30 c1.60 0.20 4.05 0.55 5.40 0.85 1.40 0.30 3.35 0.70 4.40 0.85 1 0.15 2 0.45 2.15 0.70 0.15 0.25 0.90 0.45 1.70 0.45 0.80 0 1.60 0.25 1.75 0.50 0.15 0.30 0.75 0.50 1.30 0.50 0.50 0 1.35 0.20 1.85 0.45 0.85 0.45 2.50 1.15 4.75 2 2.25 0.85 10.55 5.15 13.10 6.75 2.90 1.85 8.75 7.95 8.75 9.15 0 0.65 0.20 1.55 0.50 2.05 0.25 0.45 1.15 2.45 2.05 4.35 0.85 1.95 2.10 4.65 2.70 6 0.65 1.40 1.55 3.40 2 4.50 1.95 4.60 3.10 6.90 12.65 26 10 20.05 20.25 40.25 23.95 47.25 4.20 8 4.25 8.05 6.05 6.15 0.75 -0.80 2.80 -2.65 4.60 -4.15 1.80 -1.50 3.35 -2.85 3.50 -3 0.15 -0.15 0.85 -0.55 1.65 -0.95 0.75 -0.40 1.35 -0.90 1.35 -1.15 0 -0.20 0.25 -0.40 0.55 -0.40 0.30 0 1.45 -0.65 2.60 -1.40 1.15 -0.80 3.85 -2.25 5.95 -3.30 2.10 -1 5.50 -3.10 7.50 -4.55 2 -1.50 4.25 -3 5.05 -3.35 0.75 -0.35 1.35 -0.80 1.35 -1 0 -0.25 0.45 -0.40 0.95 -0.40 0.55 0 1.15 -0.25 1.30 -0.50 0.15 -0.30 0.85 -0.50 1.50 -0.50 0.65 0 1.30 -0.20 1.45 -0.45 0.15 -0.25 1.15 -0.60 2.15 -0.75 1.05 -0.20 3.25 -0.55 4.90 -0.85 1.65 -0.30 6.10 -0.65 9.90 -0.75 7.25 -0.30 7.65 -0.45 6.25 -2.70 -0.55 -0.80 -0.50 -1.15 0.25 -1.85 0.90 -0.85 0.95 -0.85 2.15 0.60 0.65 0.85 1.20 1.80 1.20 2.15 0 0.85 0.10 0.80 2.30 -1.30 1.95 -1.80 3.20 -2.55 9.45 -5.75 1.65 -0.85 3.10 -1.70 3.15 -1.95 0.10 -0.20 0.60 -0.40 1.15 -0.40 0.55 0 0.95 -0.35 0.95 -0.80 0 -0.40 0.35 -1.15 0.80 -1.55 0.65 -0.65 2.50 -0.80 11.10 -0.95 5.70 -0.05 12.80 -0.25 15.80 -0.45 4 -0.25 5.75 -0.20 6.60 0.30 1.05 0.55 1.30 0.50 1.95 -0.35 0.40 -0.50 0.75 -1.20 0.75 -1.55 0 -1.35 2.85 -2.65 5.75 -2.65 3.35 0 5.30 0.85 9.75 4.30 4.90 3.75 7.85 5.70 8.70 5.70 0.45 0 0.80 0.25 0.80 0.50 0 0.30 0.35 0.50 0.75 0.50 0.40 0 1.15 0.20 1.65 0.45 0.45 0.25 1.95 0.95 3.30 1.60 1.70 0.80 3.85 2.75 7.25 6.40 2.65 2.90 9.40 9.90 15.10 15.55 5.65 5.65 10.90 11.10 11.65 12.10 1.60 2.15 7.30 13.20 7.30 14.20 0 0.40 0.25 0.70 0.50 0.70 0.30 0 0.50 0.45 0.50 1 0 0.55 0.25 1.45 0.50 2 0.30 0.55 0.75 1.45 1 2 0.30 0.55 0.50 1.45 0.50 1.95 0 0.55 0.20 1.10 0.45 1.25 0.25 0.15 0.55 1 0.70 1.90 0.20 0.90 0.55 2.90 0.85 4.40 0.30 1.50 0.80 4.45 1.10 6.50 0.75 5.10 0.75 25.35 -0.05 29.75 -0.30 1.95 -0.70 4.35 -0.85 5.40 -0.20 1 -0.50 2 -0.75 2.15 -0.25 0.15 -0.45 1 -0.45 1.95 0 0.95 -0.20 1.85 -0.50 2 -0.25 0.15 -0.50 0.75 -0.50 1.30 0 0.90 -0.20 1.45 -1.60 4.10 -0.30 0.60 -0.85 1.65 -1.25 2.40 -0.35 0.70 -1.20 1.80 -1.90 2.45 -1.05 0.95 -1.25 1.65 -1.25 3.85 0 1.45 -0.20 3.05 -0.45 3.55 -0.25 0.45 -0.80 1.65 -1.25 2.70 -0.45 1 -1.85 3.25 -3.15 5 -2.55 3.45 -9.15 10.40 -9.85 10.40 -0.30 0 -0.95 0.40 -1.50 0.95 -1.50 1.35 -12.70 7.30 -16.05 8.55 -0.55 0.20 -1.60 0.60 -2.35 0.95 -0.80 0.30 -2 0.80 -2.75 1.10 -0.80 0.30 -1.80 0.75 -2.25 1 -0.50 0.25 -1.30 0.45 -1.80 0.45 -0.50 0 -1.10 0.20 -1.35 0.40 -0.30 0.25 -1.50 0.70 -2.75 1.05 -1.25 0.35 -2.70 0.85 -3.25 1.05 -0.90 0.40 -2.50 0.70 -7.25 1.30 -0.95 0.15 -2.20 0.45 -2.75 0.65 -2.05 0.85 -7.80 1.45 -9.40 1 -0.85 -0.25 -8.05 -0.45 -16 -0.45 -7.90 0 -14.75 -0.20 -15.25 -0.45 -0.45 -0.25 -1.85 -0.75 -3.10 -1.05 -1.25 -0.35 -2.70 -0.80 -3.25 -1 -1.60 -0.60 -3.95 -1.60 -4.85 -2.05 -0.50 -0.25 -1.25 -0.45 -1.65 -0.45 -0.40 0 -1.25 -0.25 -1.90 -0.60 -2.40 -1.25 -2.90 -1.40 -4.05 -1.40 -0.70 0 -1.40 -0.20 -1.55 -0.50 -0.15 -0.25 -0.95 -0.50 -1.75 -0.50 -0.80 0 -1.60 -0.20 -1.75 -0.50 -0.15 -0.30 -1.10 -0.50 -2.05 -0.50 -1.55 0 -1.70 -0.10 -1.70 -1.50 0 -1.35 0.15 -1.50 1.65 -1.50 0.90 0 1.95 0.30 2.25 0.60 0.50 0.50 0.75 0.50 1.10 -0.10 0.75 -1.15 0.60 -1.50 -0.65 -1.50 -0.65 0 -1.35 -0.20 -1.60 -0.45 -1 -0.95 -30.25 -1 -30.25 -0.05 0 0.30 0.35 0.50 0.80 0.50 1.45 0 0.55 2.10 -1.30 3.10 -0.95 0.55 -3 2.25 -4.50 3.80 -4.50 4.65 -10.30 9.50 -17.25 14.35 -2.65 1.90 -5.25 4.35 -5.25 5.05 0 0.40 -0.20 0.70 -0.50 0.70 -0.25 0 -0.50 0.30 -0.50 0.65 0 0.30 -0.45 1.15 -1 1.85 -0.55 0.70 -1 1.75 -1 2.30 0 0.60 -0.35 1.35 -0.75 1.70 -0.75 0.60 -1.55 2.20 -3.60 7 -1.60 3.70 -2.90 6.30 -4.15 8.25 -0.70 1.10 -2.05 3.60 -2.95 5.50 -0.90 1.95 -1.85 3.90 -2.10 4.35 -0.25 0.50 -0.45 1.35 -0.45 1.85 0 0.55 -0.20 1.10 -0.45 1.25 -0.45 0.30 -0.75 1.85 -1.35 6.80 -0.15 1.25 -0.50 2.45 -0.75 2.75 -0.25 0.25 -0.45 1.20 -0.45 2.05 0 0.90 -0.20 1.80 -0.50 1.95 -0.25 0.15 -0.50 0.85 -0.50 1.55 0 0.65 -0.20 1.60 -0.45 2.10 -0.25 0.45 -0.75 1.85 -1.10 3.10 -0.60 2.10 -1.05 3 -3.40 7.20 -1.35 2.40 -1.85 3.35 -2.55 5.05 -0.35 0.85 -0.80 1.90 -1.05 2.35 -0.25 0.50 -0.45 1.45 -0.45 2.10 0 0.70 -0.20 1.40 -0.50 1.55 -0.25 0.15 -0.50 0.95 -0.50 1.75 0 0.80 -0.20 1.60 -0.50 1.75 -0.25 0.15 -0.50 0.95 -0.50 1.75 0 0.80 -0.20 1.60 -0.50 1.75 -0.25 0.15 -0.50 0.85 -0.50 1.50 0 0.65 -0.25 1.35 -0.50 1.50 -0.25 0.15 -0.50 0.70 -0.50 1.25 0 0.50 -0.45 1.75 -0.95 2.85 -0.55 1.05 -1.35 2.75 -1.80 3.80 -0.45 1.05 -1.50 2.70 -2.35 3.65 -1.55 1.75 -6.15 4.20 -7.90 4.20 -0.50 0 -1.10 0.25 -1.25 0.50 -0.15 0.30 -1.20 0.50 -2.25 0.50 -1.05 0 -2.05 0.20 -2.20 0.45 -0.25 0.40 -1.20 0.55 -9.80 1.55 -3.45 0.40 -6.05 0.70 -16.25 2 -1.90 0.25 -5.65 0.70 -8.25 1 -2.60 0.30 -6.45 0.80 -8.50 1.05 -2.05 0.25 -5.05 0.60 -6.60 0.75 l-2.90 0.30 0 -1.50z m225.25 -122.35 c1.10 -0.15 2.45 -0.50 3 -0.75 0.55 -0.25 1.90 -0.55 3 -0.70 5.55 -0.80 6.55 -0.95 7 -1.30 0.30 -0.15 1.50 -0.60 2.75 -1 1.25 -0.35 2.45 -0.85 2.70 -1.10 0.30 -0.20 0.90 -0.40 1.40 -0.40 0.50 0 1.30 -0.20 1.80 -0.45 0.45 -0.25 1.55 -0.70 2.35 -1.05 0.85 -0.35 1.90 -0.80 2.35 -1.05 0.50 -0.25 1.15 -0.45 1.45 -0.45 0.80 0 8.80 -3.95 11.20 -5.50 1.10 -0.70 2.70 -1.60 3.50 -2 1.85 -0.90 11.25 -9.90 11.25 -10.80 0 -0.35 0.20 -0.70 0.40 -0.80 0.45 -0.20 3.05 -4 4.05 -6 0.50 -0.95 0.60 -2.35 0.40 -4.55 -0.30 -3.05 -0.25 -3.25 0.90 -3.75 1.25 -0.60 4.25 -4.60 4.25 -5.70 0 -0.40 0.20 -0.90 0.40 -1.15 0.25 -0.30 0.70 -1.50 1.05 -2.75 0.40 -1.25 0.85 -2.80 1.05 -3.50 0.40 -1.20 0.80 -3.15 2 -9.75 0.70 -3.55 0.35 -23.75 -0.45 -28.75 -0.30 -1.80 -0.65 -4.20 -0.85 -5.40 -0.15 -1.15 -0.50 -2.25 -0.75 -2.40 -0.25 -0.15 -0.45 -0.90 -0.45 -1.75 0 -0.80 -0.20 -1.90 -0.50 -2.45 -0.25 -0.55 -0.70 -1.45 -1 -2 -0.25 -0.55 -0.50 -1.45 -0.50 -2 0 -0.55 -0.20 -1 -0.50 -1 -0.25 0 -0.50 -0.35 -0.50 -0.80 0 -1.25 -5.40 -12 -7.35 -14.60 -0.95 -1.30 -6.20 -6.75 -11.60 -12.10 -5.45 -5.35 -10.95 -11.05 -12.25 -12.60 -3.55 -4.35 -8.20 -8.90 -9.05 -8.90 -0.40 0 -0.75 -0.20 -0.75 -0.50 0 -0.25 -0.30 -0.50 -0.65 -0.50 -0.35 0 -1.60 -0.45 -2.75 -1 -1.10 -0.55 -2.40 -1 -2.85 -1 -0.40 0 -0.75 -0.20 -0.75 -0.45 0 -0.25 -0.40 -0.55 -0.85 -0.70 -0.95 -0.30 -3.75 -1.90 -4.15 -2.40 -0.75 -0.85 -7.05 -5.45 -7.50 -5.45 -0.25 0 -0.50 -0.20 -0.50 -0.50 0 -0.25 -1.15 -0.50 -2.60 -0.50 -2.90 0 -4.40 0.95 -4.40 2.80 0 0.65 -0.20 1.30 -0.50 1.45 -0.25 0.15 -0.50 0.75 -0.50 1.30 0 1.05 -0.80 2.65 -2.10 4.10 -1.35 1.55 -2.90 5.20 -2.90 6.70 0 0.80 0.70 2.75 1.50 4.40 0.85 1.65 1.50 3.25 1.50 3.60 0 1 -2.85 0.80 -3.15 -0.20 -0.15 -0.50 -0.60 -1.45 -1 -2.15 -1.20 -2 -2 -5.30 -1.65 -6.70 0.15 -0.70 0.45 -1.90 0.65 -2.65 0.15 -0.80 1.20 -2.70 2.30 -4.35 1.80 -2.70 1.90 -2.95 1.15 -3.70 -0.65 -0.70 -1.80 -0.80 -6.05 -0.75 -2.85 0.05 -5.65 0.35 -6.20 0.60 -1.25 0.70 -12.30 0.70 -13.55 0.05 -0.80 -0.45 -1.05 -0.25 -1.75 1.20 -0.90 1.85 -4.65 6.45 -6.55 7.90 -0.65 0.55 -1.20 1.25 -1.20 1.60 0 0.30 -0.45 0.90 -1 1.30 -0.55 0.40 -1 1.10 -1 1.50 0 0.45 -0.90 1.70 -2 2.75 -1.10 1.05 -2 2.25 -2 2.60 0 0.35 -0.25 0.65 -0.55 0.65 -0.30 0 -1.25 0.75 -2.20 1.65 -3.80 3.70 -5.85 5.35 -6.25 5.10 -0.25 -0.15 -1.35 -0.05 -2.45 0.20 -3.90 0.85 -18.60 -1.20 -24.30 -3.40 -1.90 -0.75 -4 -1.65 -4.85 -2.10 -1.60 -0.80 -3.35 -0.45 -5 0.95 -0.90 0.80 -2.70 2.15 -4 3.05 -1.75 1.15 -2.40 1.90 -2.40 2.80 0 0.70 -0.25 2.25 -0.60 3.45 -0.80 3 0 4.95 1.80 4.50 1 -0.25 1.65 0.15 3.50 2 1.25 1.25 2.30 2.60 2.30 3.05 0 0.40 0.25 0.75 0.50 0.75 0.30 0 0.50 0.55 0.50 1.20 0 0.70 0.25 1.40 0.50 1.55 0.30 0.15 0.50 1.20 0.50 2.25 0 1.05 0.25 2.10 0.50 2.25 0.30 0.15 0.50 0.85 0.50 1.50 0 2.45 2.65 6.25 4.35 6.25 2 0 5.85 -2.55 6.85 -4.60 1.50 -2.90 0.55 -6.55 -1.95 -7.90 -1.90 -1 -1.65 -2.50 0.40 -2.50 2.40 0.05 3 0.70 4.80 5.15 0.30 0.75 0.55 1.95 0.55 2.65 0 1.65 -1.85 5.45 -4.10 8.45 -1.05 1.40 -1.90 2.80 -1.90 3.15 0 0.30 -0.20 0.60 -0.45 0.60 -0.20 0 -1.35 1.95 -2.55 4.40 -2 4.10 -2.55 5.35 -3.55 8 -0.25 0.60 -0.65 1.60 -0.90 2.25 -2.60 6.70 -6.45 11.10 -11.30 12.85 -0.55 0.20 -2 0.85 -3.15 1.45 -3.10 1.50 -4.10 1.40 -4.10 -0.45 0 -0.95 0.25 -1.50 0.70 -1.50 0.40 0 1.55 -0.45 2.65 -0.95 1.05 -0.55 2.75 -1.30 3.75 -1.75 1.05 -0.45 2.10 -1.25 2.40 -1.80 0.65 -1.20 0.65 -5.50 0 -5.50 -0.25 0 -0.50 -0.45 -0.50 -1 0 -0.55 -0.20 -1 -0.50 -1 -0.25 0 -0.50 -0.20 -0.50 -0.50 0 -0.25 -1.05 -2.10 -2.35 -4.10 -1.35 -2 -2.70 -4.20 -3.10 -4.90 -1.45 -2.65 -3.55 -7.05 -3.55 -7.50 0 -0.50 -0.25 -1.15 -1.40 -3.35 -0.35 -0.65 -0.60 -1.55 -0.60 -2.05 0 -0.50 -0.25 -1.15 -0.55 -1.45 -0.35 -0.35 -0.60 -2.90 -0.65 -6.35 0 -3.20 -0.15 -5.80 -0.30 -5.80 -0.55 0 -2.25 2.70 -2.70 4.20 -0.70 2.50 -0.95 9.85 -0.35 10.45 0.30 0.30 0.55 0.90 0.55 1.35 0 2.10 5.05 9.75 8.10 12.20 3.15 2.55 3.90 3.40 3.90 4.35 0 1.80 -1.45 1.60 -4.10 -0.60 -3.25 -2.70 -3.20 -2.65 -5.65 -5.70 -1.90 -2.35 -2.45 -3.20 -4.15 -6.50 -2.25 -4.30 -2.40 -13.85 -0.30 -18.60 0.80 -1.85 4.50 -5.15 5.70 -5.15 0.45 0 1.45 -0.90 2.30 -1.95 1.35 -1.90 2.35 -2.60 4.35 -3.25 0.55 -0.15 0.85 -0.80 0.85 -1.80 0 -0.80 -0.20 -1.50 -0.40 -1.50 -0.25 0 -1.65 0.75 -3.15 1.60 -1.50 0.90 -3.35 1.95 -4.10 2.35 -0.75 0.40 -1.35 0.90 -1.35 1.15 0 0.20 -0.30 0.40 -0.60 0.40 -0.35 0 -1.30 0.60 -2.15 1.40 -0.80 0.75 -2.30 2 -3.25 2.80 -0.95 0.75 -3 2.55 -4.50 4 -1.50 1.40 -3.55 3.15 -4.50 3.90 -3.55 2.65 -9.40 8.80 -10.25 10.70 -0.45 1.05 -1.05 2.35 -1.30 2.80 -0.70 1.35 -0.75 11.30 -0.05 12 0.35 0.35 0.60 1.05 0.60 1.55 0 1.80 4.80 8.10 10.40 13.55 4.45 4.40 5.60 5.80 5.60 6.90 0 1 -0.25 1.40 -0.90 1.40 -0.90 0 -14.10 -12.95 -14.10 -13.85 0 -0.25 -0.40 -0.90 -0.90 -1.45 -1.15 -1.20 -3.10 -5.40 -3.10 -6.60 0 -0.50 -0.25 -1.15 -0.60 -1.50 -0.35 -0.35 -0.55 -2.15 -0.50 -4.85 0.05 -4.25 -0.25 -5.10 -1.15 -3.25 -0.30 0.50 -1.25 2.50 -2.20 4.35 -0.90 1.85 -1.85 3.80 -2.10 4.25 -0.25 0.50 -0.45 1.50 -0.45 2.30 0 0.75 -0.20 1.60 -0.45 1.90 -1.10 1.15 -1.90 19.45 -1 22.45 0.35 1.10 1.65 3.25 2.95 4.75 1.30 1.50 2.75 3.30 3.30 3.95 0.50 0.70 1.85 2.25 3 3.50 1.10 1.25 2.70 3.10 3.50 4.05 0.80 0.95 3.05 3.45 5 5.50 1.95 2.05 4.20 4.55 5 5.50 0.80 0.95 2.35 2.75 3.45 4 1.10 1.25 3.15 3.60 4.50 5.25 3.50 4.20 12.30 12.85 15.65 15.35 4.65 3.50 7.15 4.55 9.70 4.15 1.15 -0.20 7.85 -0.45 14.80 -0.55 6.90 -0.15 12.60 -0.30 12.60 -0.40 0 -0.05 -0.90 -1.10 -2 -2.25 -1.85 -1.90 -2 -2.30 -2 -4.80 0 -1.50 0.20 -2.75 0.40 -2.75 0.20 0 0.95 -1.10 1.65 -2.50 1 -2.10 1.45 -2.50 2.60 -2.50 1.05 0 1.35 0.25 1.35 1.15 0 0.60 -0.45 1.65 -1 2.35 -0.55 0.70 -1 1.55 -1 1.90 0 0.30 -0.20 0.60 -0.50 0.60 -0.25 0 -0.50 0.75 -0.50 1.65 0 1.25 0.45 2.10 2.15 3.70 2.10 2.10 6.55 4.65 8 4.65 0.45 0 0.90 0.20 1.05 0.45 0.65 1.05 11.30 2.25 31.55 3.50 3.60 0.25 7.15 0.60 7.90 0.80 2.90 0.80 7.10 -1.35 8.60 -4.45 0.85 -1.65 1.05 -8.30 0.25 -8.30 -0.25 0 -0.50 -0.30 -0.50 -0.65 0 -1.05 -1.90 -2.60 -5.60 -4.55 -3.40 -1.75 -4.25 -1.90 -2.45 -0.35 2.10 1.80 3.10 4.55 3.15 8.30 0 3.70 -0.45 5.15 -2.25 7.15 -1.30 1.40 -4.85 1.60 -4.85 0.20 0 -0.45 0.65 -1.15 1.45 -1.50 2.25 -1 4.50 -6.45 3.05 -7.35 -0.25 -0.15 -0.50 -0.70 -0.50 -1.15 0 -1.25 -2.80 -4.45 -4.65 -5.35 -1 -0.45 -3.45 -0.80 -6.35 -0.85 l-4.75 -0.15 -0.15 -1.35 -0.15 -1.40 5.25 0 c2.95 0 5.40 0.20 5.55 0.50 0.15 0.30 0.65 0.50 1.05 0.50 0.40 0 0.70 -0.20 0.70 -0.50 0 -0.25 -0.20 -0.50 -0.45 -0.50 -0.30 0 -1.50 -0.65 -2.70 -1.50 -1.25 -0.80 -2.50 -1.50 -2.80 -1.50 -0.30 0 -0.55 -0.20 -0.55 -0.50 0 -0.25 -0.45 -0.50 -0.95 -0.50 -0.55 0 -1.15 -0.20 -1.30 -0.50 -0.15 -0.25 -1.05 -0.50 -1.95 -0.50 -0.85 0 -1.80 -0.20 -2.05 -0.45 -0.30 -0.25 -1.50 -0.60 -2.75 -0.75 -4.95 -0.60 -6.50 -0.90 -6.80 -1.35 -0.15 -0.25 -0.60 -0.45 -1 -0.45 -1.65 0 -2.40 -1.55 -2.45 -4.95 -0.05 -2.65 -0.25 -3.60 -1.20 -4.90 -1.30 -1.70 -1.15 -3.15 0.30 -3.15 0.50 0 1.45 -0.45 2.15 -1 0.70 -0.55 1.40 -1 1.60 -1 0.85 0 6.40 -4.65 9.40 -7.85 4.35 -4.65 9.75 -10.70 12.85 -14.40 3.10 -3.70 6.40 -6.75 7.30 -6.75 0.35 0 0.85 -0.20 1.10 -0.45 0.30 -0.30 3.55 -0.60 7.25 -0.70 3.70 -0.10 7.90 -0.50 9.25 -0.80 8.90 -2.10 13.65 -2.20 19.10 -0.35 1.25 0.45 1.75 1.45 1.35 2.55 -0.35 0.85 -2 1 -2.45 0.25 -0.15 -0.25 -0.80 -0.50 -1.45 -0.50 -0.60 0 -1.35 -0.25 -1.65 -0.55 -0.60 -0.60 -5.80 -0.35 -9.90 0.45 -1.35 0.30 -3.95 0.80 -5.75 1.15 -1.80 0.35 -5.15 0.70 -7.50 0.70 -8.05 0.15 -7.60 0 -10.50 2.90 -1.45 1.40 -3.65 3.85 -4.95 5.35 -1.25 1.50 -3.50 4.05 -5 5.60 -1.45 1.55 -3 3.35 -3.45 4 -1.95 2.85 -7.20 7.75 -11.25 10.50 -3.85 2.60 -4.40 3.15 -4.10 4.05 0.75 2.30 0.85 3.75 0.30 4.70 -0.40 0.80 -0.30 1.20 0.60 2 1.05 1 1.65 1.15 7.10 2.15 2.55 0.45 5.50 1.15 7.75 1.80 0.70 0.20 2.60 1.20 4.25 2.20 1.65 1 3.55 2.15 4.25 2.55 0.70 0.40 1.35 0.85 1.50 1 0.15 0.15 2.05 1.25 4.30 2.40 7.15 3.75 8.70 5.85 8.70 11.80 0 2 -0.20 3.85 -0.50 4 -0.25 0.15 -0.50 0.80 -0.50 1.35 0 2.45 -3.55 5.45 -7.25 6.10 -1.55 0.25 -14 -0.35 -23.50 -1.20 -3 -0.25 -7.85 -0.65 -10.75 -0.85 -2.90 -0.25 -5.50 -0.55 -5.80 -0.75 -0.35 -0.20 -0.85 -0.05 -1.20 0.35 -0.50 0.60 -0.45 0.80 0.30 1.05 0.55 0.15 1.35 0.50 1.80 0.75 0.50 0.25 1.35 0.45 1.85 0.45 0.55 0 1.15 0.25 1.30 0.50 0.15 0.30 0.75 0.50 1.30 0.50 0.50 0 1.35 0.20 1.85 0.45 0.45 0.25 2.20 0.95 3.85 1.55 1.65 0.60 3.45 1.25 4 1.50 3.60 1.35 5.35 1.50 18.05 1.55 7.40 0 13.90 0.20 14.45 0.45 1 0.45 4.05 0.35 8 -0.25z m-112 -5.55 c0.55 -0.15 2.70 -0.50 4.75 -0.75 6.40 -0.75 8 -1.05 8 -1.50 0 -0.25 0.55 -0.45 1.25 -0.45 1.55 0 1.60 -0.65 0.15 -1.35 -0.65 -0.30 -2.45 -1.15 -4 -1.85 -6.20 -2.90 -15.90 -11.70 -25.40 -23.05 -3.65 -4.35 -8 -9.20 -10.50 -11.75 -0.70 -0.70 -2 -2.15 -2.95 -3.25 -0.90 -1.10 -2.75 -3.10 -4 -4.50 -1.30 -1.35 -2.70 -3 -3.15 -3.65 -0.40 -0.60 -1.55 -1.95 -2.50 -3 -0.95 -1 -2.15 -2.50 -2.60 -3.25 -1 -1.45 -2.30 -1.80 -2.30 -0.60 0 0.80 -5.90 7.25 -6.65 7.25 -0.30 0 -4.50 3.10 -8 5.95 -4.25 3.45 -5.60 4.50 -7.65 6.05 -1.30 0.95 -3.50 2.75 -4.90 4 -1.40 1.25 -3.20 2.75 -4 3.40 -0.80 0.60 -1.35 1.20 -1.25 1.25 0.10 0.10 2.25 1.15 4.70 2.35 2.50 1.25 4.60 2.35 4.75 2.50 0.25 0.25 0.60 0.45 4.45 2.60 1 0.55 2.40 1.45 3.15 1.95 0.70 0.55 1.45 0.95 1.60 0.95 0.20 0 2 1.15 4.05 2.50 2.05 1.40 3.80 2.50 3.95 2.50 0.15 0 1.25 0.70 2.45 1.50 1.25 0.85 2.50 1.50 2.80 1.50 0.30 0 0.55 0.20 0.55 0.40 0 0.25 0.60 0.75 1.40 1.15 0.75 0.35 2.30 1.30 3.45 2.05 1.15 0.75 2.25 1.40 2.40 1.40 0.20 0 0.95 0.40 1.65 0.95 2.25 1.55 11.15 6.05 12.05 6.05 0.45 0 1.05 0.20 1.35 0.45 0.25 0.30 1.70 0.55 3.20 0.65 3.50 0.25 16.45 -0.10 17.75 -0.40z m-49.70 -56.05 c0.70 -0.80 1.55 -2.05 1.90 -2.90 0.35 -0.80 0.85 -1.90 1.10 -2.35 1 -1.95 0.25 -10.10 -1.05 -11.40 -0.15 -0.15 -0.55 -0.85 -0.95 -1.60 -0.40 -0.75 -0.95 -1.40 -1.25 -1.50 -0.30 -0.10 -4.10 -0.05 -8.40 0.10 -8.50 0.25 -9.50 0.60 -8.55 2.60 1.25 2.75 1.65 5 1.65 9.05 0 3.55 0.15 4.35 0.75 4.35 0.40 0 1.20 0.25 1.75 0.50 0.55 0.30 1.45 0.75 2 1 0.55 0.30 1.25 0.50 1.50 0.50 0.30 0 1.50 0.45 2.60 1 1.15 0.55 2.40 1 2.75 1 0.35 0 0.65 0.25 0.65 0.50 0 1.05 2.35 0.45 3.55 -0.85z m5.90 -22.50 c0.95 -8.35 1.50 -11.55 2.10 -11.95 0.25 -0.15 0.45 -0.70 0.45 -1.25 0 -0.50 0.20 -1.35 0.45 -1.85 0.25 -0.45 0.75 -1.55 1.15 -2.40 1.25 -2.80 4.65 -7.65 5.75 -8.15 0.60 -0.30 1.80 -1.75 2.65 -3.20 0.85 -1.50 2.95 -4.10 4.75 -5.80 1.80 -1.75 3.25 -3.20 3.25 -3.30 0 -0.90 -12.05 -2.90 -17.25 -2.85 -3.95 0.05 -14.55 1.05 -17 1.60 -1.35 0.30 -3.10 0.65 -3.90 0.85 -0.75 0.15 -1.50 0.45 -1.65 0.70 -0.15 0.25 -0.70 0.45 -1.25 0.45 -0.50 0 -1.35 0.20 -1.85 0.45 -0.45 0.25 -1.85 0.70 -3.10 1.05 -1.25 0.30 -2.95 0.80 -3.80 1.05 -0.85 0.25 -2.55 0.45 -3.85 0.45 -1.30 0 -2.35 0.15 -2.35 0.30 0 0.20 4.80 5.10 10.65 10.95 13.40 13.35 20.90 22.05 22.90 26.65 0.35 0.85 0.80 1.60 1 1.60 0.15 0 0.55 -2.40 0.90 -5.35z m60.45 -6.05 c0.60 -1.30 1.10 -2.75 1.10 -3.25 0 -0.45 0.25 -0.85 0.50 -0.85 0.30 0 0.50 -0.45 0.50 -1 0 -0.55 0.20 -1.40 0.45 -1.90 0.25 -0.45 1.50 -3.05 2.80 -5.70 1.25 -2.70 2.55 -5 2.80 -5.15 1 -0.65 0.30 -1 -2.15 -1.05 -2.35 -0.05 -2.75 -0.25 -4.25 -1.95 -0.90 -1.05 -1.65 -2.30 -1.65 -2.80 0 -0.50 -0.20 -1 -0.45 -1.15 -0.25 -0.15 -0.55 -1.15 -0.70 -2.15 -0.85 -5.75 -1.20 -6.75 -3.60 -10 -1.55 -2.20 -2.25 -2.65 -2.25 -1.45 0 0.75 -1.35 1.45 -2 1.05 -0.65 -0.40 -2 -3.30 -2 -4.30 0 -0.50 -0.25 -1.05 -0.55 -1.20 -0.55 -0.35 -2.45 1.10 -2.45 1.85 0 0.25 -0.45 0.90 -0.95 1.45 -0.50 0.55 -1.05 1.75 -1.20 2.60 -0.15 0.90 -0.45 2.25 -0.65 3.05 -0.45 1.75 1.30 10.30 2.40 11.50 0.20 0.30 0.40 0.80 0.40 1.15 0 0.40 0.45 1.65 1 2.75 0.55 1.15 1 2.40 1 2.75 0 0.35 0.25 0.65 0.50 0.65 0.30 0 0.50 0.45 0.50 1 0 0.55 0.25 1 0.50 1 0.30 0 0.50 0.20 0.50 0.50 0 0.25 1.05 2.10 2.35 4.10 1.35 2 2.65 4.10 2.95 4.65 0.30 0.55 0.75 1.45 1.05 2 0.30 0.55 0.85 1.75 1.15 2.65 0.35 0.85 0.75 1.60 0.95 1.60 0.15 0 0.80 -1.10 1.45 -2.40z m20.75 -57.05 c-0.75 -2.40 -0.75 -2.65 0 -3.40 0.65 -0.65 0.95 -0.70 1.55 -0.15 0.45 0.35 0.80 1.05 0.80 1.55 0 0.50 0.25 1.05 0.50 1.20 0.30 0.15 0.50 0.70 0.50 1.20 0 0.50 0.45 1.30 1 1.80 0.95 0.90 1 0.85 1 -0.05 0 -0.55 -0.25 -1.25 -0.55 -1.55 -0.35 -0.35 -0.50 -1.75 -0.35 -3.65 l0.20 -3.05 -4.50 0.25 c-5.95 0.30 -9.45 0.80 -10 1.35 -0.30 0.25 -1.10 0.45 -1.85 0.45 -0.75 0 -1.55 0.25 -1.70 0.50 -0.15 0.30 -0.75 0.50 -1.30 0.50 -1.55 0 -1.10 0.80 1.20 1.85 2.70 1.30 5.40 2.15 6.75 2.15 0.55 0 1.20 0.25 1.35 0.50 0.15 0.30 1.25 0.50 2.40 0.50 1.15 0 2.45 0.20 2.85 0.50 1.05 0.65 1.10 0.40 0.15 -2.45z m19.40 -2.90 c1.20 -1.60 2.95 -3.85 3.95 -4.95 1.70 -2.05 4 -5.85 4 -6.75 0 -0.80 -1.70 -0.45 -3 0.55 -0.70 0.55 -1.45 1 -1.75 1 -0.25 0 -1.50 0.75 -2.75 1.65 -1.55 1.20 -2.25 2.05 -2.25 2.90 0 0.85 -0.30 1.25 -1.10 1.35 -1 0.15 -1.15 0.45 -1.15 2.35 0 2.40 0.70 4.75 1.45 4.75 0.25 0 1.40 -1.30 2.60 -2.85z m-8.30 -1.20 c1.10 -0.25 1.45 -2.25 0.40 -2.15 -0.35 0.05 -1.45 0.10 -2.40 0.15 -1.70 0.05 -1.75 0.10 -1.75 2.10 l0 2 1.40 -0.95 c0.75 -0.55 1.80 -1.05 2.35 -1.15z"/>
  <path d="M180.50 246.15 c-1.55 -0.30 -4.50 -3.05 -4.50 -4.20 0 -0.50 -0.20 -1.05 -0.50 -1.20 -0.25 -0.15 -0.50 -0.75 -0.50 -1.30 0 -0.85 -0.25 -0.90 -2 -0.65 -4.10 0.65 -6.80 -2.10 -5.50 -5.75 1.05 -3.05 2.20 -3.70 4.40 -2.60 5.60 2.80 6.40 3 8.10 1.95 1.15 -0.70 2.75 -0.05 2.75 1.10 0 0.90 -2.70 2.40 -4.35 2.45 -1.40 0.05 -1.85 0.70 -0.90 1.30 0.30 0.15 0.50 0.95 0.50 1.70 0 1.05 0.55 1.95 2 3.25 1.80 1.65 2.10 1.75 3.35 1.20 0.80 -0.30 2.55 -1.45 3.95 -2.50 2.90 -2.15 3 -2.20 4.05 -1.10 0.75 0.75 0.65 0.95 -1 2.50 -0.95 0.95 -1.95 1.70 -2.15 1.70 -0.20 0 -0.85 0.45 -1.40 0.95 -1.10 1 -4.20 1.60 -6.30 1.20z m-4.50 -10.65 c0 -0.25 -0.40 -0.50 -0.85 -0.50 -0.50 0 -1.65 -0.45 -2.55 -1 -0.90 -0.55 -1.85 -0.90 -2.15 -0.75 -0.50 0.35 -0.60 1.90 -0.10 2.40 0.50 0.55 5.65 0.40 5.65 -0.15z"/>
  <path d="M130.50 235.50 c-0.40 -0.25 -1.35 -0.50 -2.10 -0.50 -0.75 0 -1.50 -0.20 -1.65 -0.50 -0.15 -0.25 -0.75 -0.50 -1.30 -0.50 -0.50 0 -1.45 -0.25 -2.10 -0.60 -2.35 -1.20 -2.85 -1.40 -3.60 -1.40 -0.40 0 -0.75 -0.15 -0.75 -0.40 0 -0.20 -0.75 -0.65 -1.60 -1.05 -1.40 -0.60 -5.65 -3.30 -6.40 -4.05 -0.15 -0.15 -2.40 -2.15 -5 -4.50 -9.15 -8.20 -13 -12.60 -13 -14.70 0 -1.90 1.45 -1.65 3.25 0.55 3.15 3.85 7.70 8.45 12.50 12.60 5.05 4.40 10.75 8.55 11.75 8.55 0.25 0 0.90 0.20 1.40 0.45 4.15 2.10 8.90 3.55 11.75 3.55 1.95 0 2.35 0.15 2.35 0.90 0 0.50 -0.25 1.15 -0.60 1.50 -0.70 0.70 -3.85 0.80 -4.90 0.10z"/>
  <path d="M282 211.80 c0 -0.70 0.25 -1.40 0.50 -1.55 0.95 -0.60 0.50 -4 -0.85 -6.65 -1.35 -2.55 -3.10 -4.40 -12.10 -12.60 -1.95 -1.80 -3.55 -3.45 -3.55 -3.65 0 -0.25 -0.65 -1.25 -1.45 -2.25 -1.60 -2.05 -3.95 -5.85 -4.40 -7.20 -0.30 -1 -0.95 -1.15 -1.40 -0.40 -0.85 1.40 -2.25 0.20 -5.90 -5.20 -2.10 -3.15 -3.85 -6.10 -3.85 -6.50 0 -0.45 -0.20 -0.80 -0.50 -0.80 -0.25 0 -0.50 -0.45 -0.50 -0.95 0 -0.55 -0.20 -1.15 -0.50 -1.30 -0.25 -0.15 -0.50 -0.85 -0.50 -1.50 0 -0.65 -0.20 -1.35 -0.50 -1.50 -0.25 -0.15 -0.50 -0.85 -0.50 -1.50 0 -0.65 -0.20 -1.30 -0.45 -1.45 -0.80 -0.55 -2.20 -12.15 -2.20 -18.80 0 -5.35 0.60 -10.90 1.20 -11.30 0.25 -0.15 0.45 -0.65 0.45 -1.20 0 -0.50 0.35 -1.05 0.80 -1.20 1 -0.40 2.40 1 1.90 1.80 -1.75 2.75 -1.85 24.85 -0.15 26.65 0.25 0.25 0.45 0.90 0.45 1.45 0 2.40 3.85 12.15 5.25 13.30 0.40 0.35 0.75 0.90 0.75 1.25 0 0.35 0.35 0.90 0.75 1.25 0.45 0.35 1.15 1.40 1.55 2.30 0.90 1.90 1.70 2.20 1.70 0.70 0 -0.55 -0.20 -1 -0.50 -1 -0.25 0 -0.50 -0.40 -0.50 -0.85 0 -0.80 -0.70 -3.30 -1.55 -5.40 -0.20 -0.55 -0.50 -1.65 -0.70 -2.50 -0.15 -0.80 -0.55 -2.50 -0.85 -3.75 -0.25 -1.25 -0.60 -5.40 -0.75 -9.30 -0.20 -5.95 -0.10 -7.10 0.55 -7.65 0.65 -0.55 0.95 -0.55 1.50 -0.05 0.55 0.45 0.80 2.30 1 7.65 0.20 7.65 0.65 11.20 1.35 11.65 0.25 0.15 0.45 0.75 0.45 1.30 0 1.15 0.85 4.05 1.55 5.50 0.25 0.50 0.45 1.25 0.45 1.65 0 0.40 0.20 1.15 0.45 1.65 0.25 0.45 0.95 2 1.60 3.35 0.65 1.40 1.30 2.60 1.45 2.75 0.15 0.15 0.70 1.05 1.20 2 1.85 3.35 4.65 6.75 8 9.75 8.80 7.80 10.55 9.90 12.75 15.40 1.30 3.30 0 7.85 -2.25 7.85 -0.95 0 -1.20 -0.25 -1.20 -1.20z"/>
  <path d="M111.25 193.40 c-3.80 -1.30 -6 -2.75 -6.15 -4.10 -0.15 -1.05 0.05 -1.30 1 -1.30 0.65 0 1.70 0.45 2.40 1 0.70 0.55 1.65 1 2.10 1 0.45 0 1 0.25 1.15 0.50 0.35 0.60 5.10 0.70 5.45 0.10 0.15 -0.20 1.40 -0.70 2.80 -1.10 1.40 -0.40 2.65 -0.90 2.80 -1.10 0.45 -0.70 2.10 -0.45 2.40 0.35 0.40 1.05 -0.15 2.25 -1 2.25 -0.40 0 -1.10 0.20 -1.60 0.45 -4.55 2.35 -8.30 2.95 -11.35 1.95z"/>
  <path d="M170.25 191.40 c-0.10 -0.35 -0.30 -1.75 -0.45 -3.15 -0.50 -4.15 -1.15 -7.90 -1.75 -9.90 -0.65 -1.95 -0.40 -2.85 0.65 -2.85 1.95 0 3.05 3.65 4.10 13.90 0.30 2.55 0.25 2.60 -1 2.60 -0.75 0 -1.40 -0.30 -1.55 -0.60z"/>
  <path d="M164.95 190.40 c-0.05 -0.35 0 -2.60 0.05 -4.95 0.05 -2.65 -0.15 -4.45 -0.45 -4.70 -0.30 -0.15 -0.55 -0.75 -0.55 -1.25 0 -0.55 -0.45 -1.75 -1 -2.75 -1.40 -2.45 -1.30 -3.75 0.20 -3.75 1 0 1.45 0.50 2.45 2.65 1.65 3.45 2 5 2 8.85 -0.05 4.55 -0.55 6.50 -1.70 6.50 -0.55 0 -0.95 -0.30 -1 -0.60z"/>
  <path d="M156.30 186.15 c-0.20 -0.45 -0.10 -1.05 0.20 -1.35 0.25 -0.25 0.50 -1.10 0.50 -1.85 0 -0.75 0.25 -1.55 0.50 -1.70 0.30 -0.15 0.50 -0.90 0.50 -1.60 0 -2.20 1.10 -4.65 2.10 -4.65 0.75 0 0.90 0.45 0.90 2.95 0 1.65 -0.20 3.15 -0.50 3.30 -0.25 0.15 -0.50 0.95 -0.50 1.75 0 0.80 -0.20 1.60 -0.50 1.75 -0.25 0.15 -0.50 0.75 -0.50 1.30 0 1.20 -2.25 1.35 -2.70 0.10z"/>
  <path d="M177.10 185.65 c-1 -1.40 -2.30 -3.70 -4.25 -7.30 -1 -1.80 -1 -1.90 -0.15 -2.75 0.80 -0.80 0.95 -0.75 2.10 0.65 0.65 0.85 1.75 2.65 2.45 4 0.70 1.40 1.65 3.10 2.10 3.85 0.70 1.10 0.75 1.45 0.20 2.10 -0.95 1.10 -1.35 1 -2.45 -0.55z"/>
  <path d="M179.60 177.40 c-0.75 -0.75 -0.80 -2.40 -0.10 -2.40 0.30 0 0.50 -0.45 0.50 -0.95 0 -0.55 0.25 -1.15 0.50 -1.30 0.30 -0.15 0.50 -0.75 0.50 -1.30 0 -0.55 0.70 -2 1.50 -3.20 0.85 -1.20 1.50 -2.50 1.50 -2.85 0 -0.35 0.45 -1.40 1 -2.30 1.10 -1.85 1.30 -5.05 0.40 -6.05 -0.55 -0.50 -0.40 -0.80 0.55 -1.60 0.90 -0.75 1.05 -1.15 0.65 -1.55 -0.35 -0.35 -0.60 -1.15 -0.60 -1.80 0 -1.75 -1.85 -4.20 -9.25 -12.20 -0.95 -1.05 -1.75 -2.25 -1.75 -2.65 0 -0.40 -0.80 -1.05 -1.75 -1.50 -0.95 -0.50 -1.85 -1.25 -2 -1.80 -0.20 -0.50 -0.55 -0.95 -0.80 -0.95 -0.25 0 -0.45 -0.45 -0.45 -1 0 -0.65 -0.35 -1 -1 -1 -0.65 0 -1 -0.35 -1 -1 0 -1.15 -0.50 -1.30 -1.40 -0.40 -0.75 0.75 -10.70 0.55 -12.40 -0.20 -0.65 -0.30 -1.20 -1 -1.20 -1.55 0 -0.90 0.30 -0.95 5.15 -0.70 2.80 0.15 5.85 0.45 6.75 0.60 1.45 0.30 1.70 0.20 1.95 -0.70 0.15 -0.60 0.65 -1.05 1.20 -1.05 0.55 0 0.95 -0.20 0.95 -0.50 0 -0.25 0.45 -0.50 0.95 -0.50 0.55 0 1.15 -0.20 1.30 -0.50 0.50 -0.80 2.75 -0.60 2.75 0.20 0 0.40 0.60 1.05 1.40 1.40 1.05 0.55 1.30 1 1.20 2 -0.10 0.95 0.15 1.40 0.90 1.65 0.55 0.15 1 0.55 1 0.85 0 0.30 0.70 1.20 1.50 2 0.85 0.75 1.50 1.60 1.50 1.85 0 0.20 1.05 0.90 2.30 1.55 1.90 1 2.25 1.40 2.05 2.40 -0.15 0.80 0.15 1.60 0.95 2.45 0.65 0.70 1.20 1.55 1.20 1.90 0 0.35 0.45 1 1 1.50 0.55 0.50 1 1.35 1 1.85 0 0.55 0.65 1.65 1.50 2.45 1.30 1.30 1.45 1.80 1.45 4.35 -0.05 1.55 -0.25 3.25 -0.50 3.70 -0.30 0.50 -0.25 0.95 0.05 1.15 0.90 0.55 0.55 2.10 -0.55 2.40 -0.85 0.25 -0.95 0.50 -0.65 2.05 0.30 1.60 0.20 1.80 -0.75 1.80 -0.65 0 -1.25 0.45 -1.50 1.15 -0.25 0.65 -0.80 1.45 -1.25 1.80 -0.45 0.35 -0.80 1.05 -0.80 1.50 -0.05 1 -1.20 2.55 -1.90 2.55 -0.65 0 -2.10 2.80 -2.10 4 0 0.75 -1.95 3 -2.55 3 -0.15 0 -0.50 -0.25 -0.85 -0.60z"/>
  <path d="M248 175.15 c-0.05 -1.80 -7.05 -10.55 -14.50 -18.15 -0.55 -0.55 -2.30 -3.35 -2.85 -4.50 -0.80 -1.70 -1.20 -3.25 -1.70 -6.50 -0.20 -1.50 -0.65 -3.85 -0.90 -5.25 -0.30 -1.35 -0.65 -3.30 -0.80 -4.25 -0.20 -0.95 -0.50 -2.20 -0.70 -2.75 -1.10 -2.70 -2.90 -6.20 -4.15 -8.10 -0.75 -1.15 -1.40 -2.40 -1.40 -2.85 0 -0.40 -0.20 -0.90 -0.50 -1.05 -0.25 -0.15 -0.50 -1.05 -0.50 -2 0 -0.95 -0.20 -1.85 -0.50 -2 -0.25 -0.15 -0.50 -1.05 -0.50 -2 0 -0.95 -0.20 -1.85 -0.50 -2 -0.30 -0.20 -0.50 -3 -0.45 -6.90 0.05 -7.20 0.70 -9.45 2.85 -9.75 0.90 -0.15 1.10 0.10 1.10 1.25 0 0.80 -0.25 1.70 -0.50 1.95 -0.75 0.75 -0.75 12.65 -0.05 13.35 0.30 0.30 0.55 1.10 0.55 1.80 0 2.40 1.05 4.95 5.05 12.35 1.10 2 1.95 4.05 1.95 4.60 0 0.60 0.20 1.15 0.45 1.30 0.25 0.15 0.55 1.15 0.75 2.15 0.15 1.05 0.50 3.25 0.75 4.90 1.90 11.65 0.95 9.90 13.85 24.25 3.10 3.40 6.20 8.30 6.20 9.70 0 1.10 -0.20 1.30 -1.50 1.30 -1.10 0 -1.50 -0.25 -1.50 -0.85z"/>
  <path d="M185.80 174.90 c-1.25 -0.70 -1 -1.15 1.65 -2.90 4.05 -2.55 5.85 -4.90 8.05 -10.25 1.85 -4.45 1.80 -12.80 -0.10 -14.95 -0.20 -0.30 -0.40 -0.85 -0.40 -1.35 0 -0.45 -1.35 -2.20 -3 -3.90 -3.35 -3.50 -3.75 -4.55 -1.55 -4.55 1.10 0 2.05 0.65 4 2.80 1.40 1.50 2.55 3.10 2.55 3.45 0 0.35 0.15 0.75 0.40 0.85 0.75 0.35 2.60 6.90 2.60 9.35 0 2.60 -0.75 6.60 -1.55 8.15 -0.25 0.50 -0.45 1.35 -0.45 1.85 0 0.55 -0.20 1.15 -0.50 1.30 -0.25 0.15 -0.50 0.70 -0.50 1.15 -0.05 1.35 -3.35 5.50 -5.80 7.25 -2.65 1.90 -4.25 2.40 -5.40 1.75z"/>
  <path d="M139.60 174.40 c-0.35 -0.35 -0.60 -1.20 -0.60 -1.90 0 -1.75 0.85 -2.50 2.90 -2.50 1.95 0 3.10 0.95 3.10 2.60 0 1.70 -0.90 2.40 -3 2.40 -1 0 -2.05 -0.25 -2.40 -0.60z"/>
  <path d="M164.80 171.25 c-0.45 -0.65 -0.80 -1.45 -0.80 -1.75 0 -0.25 -0.15 -0.50 -0.40 -0.50 -0.60 0 -3.60 -6.95 -3.60 -8.40 0 -0.40 0.45 -1.35 1.05 -2.15 0.85 -1.20 1.35 -1.45 3.20 -1.45 2.45 0 3 -0.50 2.25 -2 -0.25 -0.55 -0.70 -1.45 -1 -2 -0.25 -0.55 -0.50 -1.45 -0.50 -2 0 -0.55 -0.20 -1 -0.45 -1 -0.25 0 -0.55 -0.60 -0.65 -1.35 -0.20 -1.75 -1.25 -1.80 -2.05 -0.15 -0.35 0.70 -1.15 1.30 -1.75 1.40 -1.50 0.25 -1.50 -1.70 0.10 -4.50 1.45 -2.65 3.45 -3.15 4.90 -1.30 0.45 0.60 0.90 1.55 0.90 2.05 0 0.45 0.25 0.85 0.50 0.85 0.30 0 0.50 0.45 0.50 1 0 0.55 0.25 1.50 0.60 2.15 1.20 2.40 1.40 2.85 1.40 3.80 0 0.55 0.20 1.10 0.45 1.25 0.50 0.30 0.95 2.65 1.40 6.75 0.25 2.65 -0.25 5.10 -1.65 8.35 -1.10 2.50 -3.10 2.95 -4.40 0.95z"/>
  <path d="M156.65 168.90 c-3.10 -4.65 -3.80 -7.10 -3.50 -12.25 0.40 -6.90 0.85 -8.35 2.50 -8.55 1.25 -0.15 1.35 -0.05 1.35 1.85 0 1.10 -0.20 2.15 -0.50 2.30 -0.30 0.15 -0.50 2.40 -0.50 5 0 2.60 0.20 4.85 0.50 5 0.30 0.15 0.50 0.65 0.50 1.05 0 0.45 0.70 1.75 1.50 2.95 1.75 2.55 2 4.75 0.50 4.75 -0.55 0 -1.50 -0.85 -2.35 -2.10z"/>
  <path d="M208.20 169.45 c-0.15 -0.30 -0.05 -1.10 0.25 -1.75 0.30 -0.65 0.80 -1.70 1.10 -2.35 0.85 -1.95 -0.05 -14.95 -1.10 -15.65 -0.25 -0.15 -0.45 -0.70 -0.45 -1.25 0 -0.50 -0.20 -1.40 -0.50 -1.95 -0.25 -0.55 -0.70 -1.45 -1 -2 -0.25 -0.55 -0.50 -1.35 -0.50 -1.75 0 -0.40 -0.20 -0.75 -0.50 -0.75 -0.25 0 -0.50 -0.45 -0.50 -1 0 -0.55 -0.20 -1 -0.50 -1 -0.25 0 -0.50 -0.35 -0.50 -0.80 0 -0.85 -1.70 -3.45 -6.40 -9.65 -5.40 -7.20 -6.65 -10.35 -6.65 -17.35 0 -2.75 0.20 -5.05 0.50 -5.35 0.30 -0.30 0.55 -1.05 0.55 -1.70 0 -0.65 0.20 -1.55 0.45 -2.05 0.40 -0.80 0.85 -1.80 2.05 -4.85 1.65 -4.15 2.50 -4.95 3.85 -3.60 0.70 0.70 0.70 0.95 -0.05 2.55 -1.55 3.40 -2.20 5.05 -2.85 7.05 -0.35 1.10 -0.85 2.25 -1.05 2.55 -0.60 0.85 -0.55 10.45 0.05 11.55 0.25 0.50 0.85 1.75 1.25 2.75 0.45 1 2.45 4.05 4.50 6.75 2.05 2.70 4.20 5.80 4.80 6.90 2.85 5 5 9.65 5 10.80 0 0.50 0.25 1.05 0.50 1.20 0.30 0.15 0.50 0.85 0.50 1.50 0 0.65 0.20 1.30 0.45 1.45 0.60 0.40 1.10 3.60 1.40 9.30 0.25 4.80 -0.25 7.45 -1.75 9.90 -0.75 1.15 -2.30 1.45 -2.90 0.55z"/>
  <path d="M173 168 c0 -0.55 0.45 -1.70 1 -2.60 0.75 -1.30 1 -2.55 1 -5.50 0 -2.30 -0.20 -3.90 -0.50 -3.90 -0.25 0 -0.50 -0.45 -0.50 -1 0 -0.55 -0.20 -1 -0.50 -1 -0.25 0 -0.50 -0.30 -0.50 -0.70 0 -0.35 -1.35 -2 -3.05 -3.70 -2.25 -2.20 -3 -3.30 -2.85 -4.15 0.10 -0.60 0.40 -1.20 0.70 -1.30 0.75 -0.25 6.45 5 7.35 6.75 0.35 0.75 0.95 1.85 1.25 2.50 0.35 0.60 0.85 1.55 1.10 2.10 1.20 2.35 0.45 9.10 -1.40 12.40 -0.85 1.45 -3.10 1.55 -3.10 0.10z"/>
  <path d="M202.65 168.45 c-0.40 -0.40 -0.30 -1.05 0.40 -2.30 0.90 -1.55 1 -2.50 0.80 -7.60 -0.25 -5.95 -0.55 -8.45 -1.40 -10.40 -0.25 -0.65 -0.65 -1.65 -0.90 -2.25 -1.80 -4.65 -5.70 -11 -10.75 -17.50 -2.85 -3.65 -3.80 -5.65 -3.80 -7.75 0 -2.65 1.55 -2.20 3 0.90 0.60 1.40 1.70 3.25 2.45 4.15 5.70 6.80 10.10 14 12.05 19.80 0.35 0.95 0.80 2.20 1 2.75 1.15 2.70 1.95 16 1.05 16.90 -0.30 0.30 -0.55 0.95 -0.55 1.50 0 1.85 -2.15 3 -3.35 1.80z"/>
  <path d="M216 166.55 c0 -0.85 0.25 -1.55 0.50 -1.55 0.30 0 0.50 -0.45 0.50 -0.95 0 -0.55 0.25 -1.15 0.50 -1.30 0.70 -0.45 0.65 -11 -0.05 -13.20 -2 -6.20 -4.60 -10.90 -10.05 -17.90 -1.30 -1.70 -2.40 -3.30 -2.40 -3.55 0 -0.25 -0.45 -0.85 -1 -1.35 -0.55 -0.50 -1 -1.10 -1 -1.40 0 -0.25 -0.40 -1.05 -0.90 -1.75 -0.50 -0.75 -1.20 -2.15 -1.55 -3.10 -0.35 -0.95 -0.80 -2.20 -1.05 -2.75 -1.90 -5 -1.90 -12.05 0.05 -15.85 0.25 -0.50 0.45 -1.30 0.45 -1.85 0 -1.65 2.10 -5.05 3.15 -5.05 0.80 0 0.90 0.25 0.70 1.90 -0.50 3.40 -0.95 5.10 -1.35 5.10 -0.45 0 -1 2.65 -1.35 6.95 -0.25 3.55 0.50 6.90 2.40 10.65 0.25 0.50 0.45 1.25 0.45 1.65 0 0.40 0.25 0.75 0.50 0.75 0.30 0 0.50 0.30 0.50 0.65 0 0.30 1.55 2.70 3.50 5.20 4.80 6.45 7.05 9.85 8.85 13.65 2.20 4.70 2.65 5.90 2.65 7.25 0 0.65 0.25 1.35 0.50 1.50 0.60 0.40 0.70 11.40 0.10 12.65 -0.25 0.45 -0.85 1.75 -1.40 2.85 -1.25 2.65 -3.20 3.10 -3.20 0.80z"/>
  <path d="M184.20 111.25 c0.15 -0.95 0.45 -2.55 0.60 -3.50 0.15 -0.95 0.50 -1.90 0.75 -2.05 0.25 -0.15 0.45 -0.70 0.45 -1.25 0 -0.95 0.25 -1.55 1.50 -3.95 0.40 -0.70 1 -1.85 1.35 -2.55 0.95 -1.90 1.95 -2.60 3.15 -2.20 1.25 0.40 1.25 1.15 0 2.75 -0.55 0.70 -1 1.55 -1 1.90 0 0.30 -0.20 0.60 -0.50 0.60 -0.25 0 -0.50 0.35 -0.50 0.75 0 0.75 -0.20 1.25 -1.40 3.60 -0.35 0.65 -0.60 1.70 -0.60 2.35 0 0.70 -0.20 1.40 -0.50 1.55 -0.25 0.15 -0.50 0.80 -0.50 1.45 0 1.35 -0.90 2.30 -2.15 2.30 -0.80 0 -0.90 -0.25 -0.65 -1.75z"/>
 </g>
</svg>