<svg width="205" height="119" viewBox="0 0 205 119" fill="none" xmlns="http://www.w3.org/2000/svg">
<path d="M51.5028 116.968C50.2497 115.577 50.5281 113.073 52.3382 109.643C53.2201 107.928 53.9627 106.166 53.9627 105.702C53.9627 104.96 53.8698 104.96 52.5703 105.61C47.1864 108.252 43.6591 99.5363 48.9501 96.7084C50.4817 95.8739 50.853 95.8739 52.199 96.4302C53.0344 96.7547 54.1483 97.0792 54.6589 97.172C55.4943 97.2647 55.5871 97.5892 55.4943 100.695L55.4479 104.126L56.8402 102.364C58.2326 100.649 59.3001 100.417 58.7432 101.947C58.5575 102.364 57.8613 103.616 57.1187 104.682C56.0048 106.351 55.8192 107.047 55.8192 110.014C55.8192 114.093 55.1694 116.69 53.9627 117.339C52.7559 117.988 52.3846 117.941 51.5028 116.968ZM53.6842 115.206C54.1483 114.001 54.566 109.457 54.2411 109.457C53.6842 109.457 52.1062 113.305 52.1062 114.696C52.1062 116.087 53.2201 116.458 53.6842 115.206ZM53.4985 102.967C54.1483 101.762 54.0555 98.98 53.3593 98.4237C51.0851 96.5229 47.929 98.0528 47.929 101.066C47.929 102.874 48.6252 104.08 49.7855 104.451C50.853 104.775 52.988 103.894 53.4985 102.967Z" fill="#1E1E26" stroke="#1E1E26"/>
<path d="M181.226 116.597C179.509 115.438 179.834 112.564 182.061 108.855C184.057 105.564 184.336 104.544 183.175 105.007C181.272 105.749 180.205 105.749 178.905 105.1C175.749 103.477 175.099 100.325 177.374 97.775C178.488 96.5233 179.044 96.2915 180.483 96.2915C181.504 96.3379 183.082 96.7087 184.103 97.126L185.867 97.9141L185.542 101.02L185.264 104.126L186.888 102.365C187.816 101.391 188.791 100.742 189.023 100.881C189.58 101.206 189.394 101.623 187.306 104.173C185.821 106.027 185.774 106.166 185.774 110.57C185.774 114.743 185.681 115.16 184.614 116.18C183.314 117.524 182.665 117.617 181.226 116.597ZM183.639 115.206C184.475 114.372 184.753 108.252 183.918 108.762C182.293 109.782 180.901 115.114 182.201 115.624C182.479 115.763 182.804 115.902 182.85 115.902C182.897 115.948 183.268 115.624 183.639 115.206ZM183.175 102.875C183.964 101.762 184.15 99.8612 183.547 98.934C182.943 97.9605 180.762 97.4041 179.555 97.8677C177.466 98.6559 176.724 101.437 178.209 103.06C179.323 104.312 182.247 104.173 183.175 102.875Z" fill="#1E1E26" stroke="#1E1E26"/>
<path d="M67.0046 115.994C65.5194 114.511 65.7515 112.332 67.8865 108.252C69.6501 104.961 69.975 103.477 68.7219 104.729C68.397 105.053 67.5151 105.285 66.6797 105.285C64.8232 105.285 63.0595 103.338 62.5954 100.881L62.2705 99.1657L61.203 100.139C59.0681 102.179 58.9288 100.927 61.0174 98.0531C61.8064 96.9404 62.6882 96.0596 62.9667 96.1523C63.2452 96.245 63.6165 97.5431 63.8021 99.0266C64.2199 102.225 65.1945 103.894 66.6797 103.894C68.3506 103.894 69.3252 102.365 69.6965 99.3048C70.0678 96.245 70.2999 95.7351 71.1817 96.245C71.553 96.5232 71.6459 97.4968 71.4138 99.6757L71.0889 102.735L72.2028 101.391C73.9665 99.2121 74.245 100.788 72.5741 103.477C71.2746 105.61 71.1353 106.166 71.1353 109.597C71.1353 115.438 69.2788 118.266 67.0046 115.994ZM69.3252 113.584C69.5109 112.981 69.6501 111.544 69.6965 110.385C69.6965 108.438 69.6501 108.345 69.0003 109.226C68.0721 110.478 67.2367 113.398 67.608 114.325C67.9793 115.392 68.9539 114.975 69.3252 113.584Z" fill="#1E1E26" stroke="#1E1E26"/>
<path d="M81.8102 107.742C78.8862 106.815 77.6331 105.146 77.6331 101.947L77.5867 99.9537L76.0086 101.808C74.9412 103.06 74.2914 103.523 73.9665 103.199C73.5488 102.782 74.4306 101.345 77.4474 97.7284C78.5613 96.384 79.0255 97.2648 79.0255 100.603C79.0255 104.636 80.0465 106.212 82.692 106.212C84.6414 106.212 85.7089 105.332 86.2194 103.292C86.6371 101.623 87.6582 101.947 87.519 103.709C87.3333 105.981 83.9452 108.438 81.8102 107.742Z" fill="#1E1E26" stroke="#1E1E26"/>
<path d="M153.239 107.232C151.615 107.047 150.129 105.47 150.872 104.729C151.29 104.311 151.615 104.404 152.264 104.96C153.564 106.166 156.349 105.98 157.695 104.59C159.226 103.106 159.18 101.808 157.602 100.788C156.859 100.371 155.745 99.5363 155.096 98.9336L153.889 97.821L153.146 98.9336C152.032 100.649 150.918 101.622 150.454 101.344C149.897 100.973 153.61 95.5493 154.399 95.5493C154.771 95.5493 155.281 96.152 155.513 96.8938C155.792 97.6355 156.488 98.5164 157.091 98.7945C159.18 99.9072 160.247 101.252 160.247 102.689C160.201 105.609 156.952 107.696 153.239 107.232Z" fill="#1E1E26" stroke="#1E1E26"/>
<path d="M125.438 106.63C124.788 106.352 123.86 105.749 123.303 105.239C122.421 104.451 122.096 104.358 120.147 104.822C118.94 105.1 117.734 105.192 117.501 105.053C116.666 104.497 117.084 103.987 118.615 103.663C121.539 103.06 121.539 103.06 121.354 101.252C121.261 100.278 121.4 98.9339 121.679 98.1921C122.7 95.5959 126.227 95.3641 127.527 97.8676C128.408 99.5829 127.898 101.113 125.809 102.55C124.974 103.106 124.185 103.663 124.046 103.802C123.489 104.265 125.763 105.285 127.387 105.285C128.64 105.285 129.429 104.961 130.218 104.08C130.961 103.338 131.472 103.06 131.657 103.384C132.168 104.219 131.008 105.795 129.383 106.491C127.573 107.232 127.016 107.279 125.438 106.63ZM126.273 99.7684C126.459 98.5166 125.624 97.404 124.51 97.404C123.442 97.404 122.468 99.8147 122.839 101.391L123.164 102.55L124.649 101.715C125.484 101.206 126.181 100.371 126.273 99.7684Z" fill="#1E1E26" stroke="#1E1E26"/>
<path d="M144.235 106.49C143.492 106.166 142.193 105.331 141.404 104.682C140.522 103.941 139.362 103.431 138.526 103.431C137.273 103.431 137.088 103.616 136.948 104.914C136.855 105.702 136.531 106.444 136.252 106.583C135.788 106.722 135.649 105.934 135.649 103.709C135.649 102.04 135.51 100.649 135.37 100.649C135.231 100.649 134.674 101.205 134.164 101.854C133.467 102.689 133.05 102.874 132.725 102.55C132.4 102.225 132.678 101.53 133.653 100.278C134.999 98.6556 135.092 98.192 135.231 94.205C135.417 90.218 135.51 89.8471 136.67 88.8272C138.109 87.5755 139.501 87.7146 140.522 89.1981C141.59 90.6816 141.358 92.3506 139.826 94.7613C138.573 96.7548 138.526 96.9402 139.362 96.9402C140.801 96.9402 142.471 97.9138 143.121 99.1192C143.632 100.093 143.585 100.464 142.843 101.854L141.961 103.523L143.075 104.404C144.792 105.702 147.159 105.563 147.809 104.126C148.087 103.477 148.459 102.967 148.644 102.967C150.083 102.967 148.691 106.027 146.973 106.676C146.324 106.954 145.767 107.139 145.72 107.139C145.674 107.093 145.024 106.815 144.235 106.49ZM141.45 101.298C142.379 100.371 142.147 99.6755 140.708 98.8874C138.944 97.9138 137.041 98.841 137.041 100.649C137.041 101.947 137.134 102.04 138.851 102.04C139.919 102.04 140.986 101.715 141.45 101.298ZM139.408 92.7678C140.058 91.1916 139.547 89.5226 138.434 89.5226C137.134 89.5226 136.577 90.9134 136.577 94.0195L136.623 96.7084L137.784 95.3176C138.434 94.5759 139.176 93.4169 139.408 92.7678Z" fill="#1E1E26" stroke="#1E1E26"/>
<path d="M2.25908 105.517C1.60931 104.914 1.05236 103.987 1.05236 103.431C1.05236 102.921 1.05236 102.364 1.00594 102.179C0.913118 101.298 1.93419 101.669 2.21267 102.596C3.0481 105.239 4.9046 105.98 6.43621 104.312C7.17881 103.477 7.36446 102.364 7.55011 96.0594C7.68935 91.7479 7.96783 88.8272 8.2463 88.8736C8.47836 88.8736 10.7526 91.887 13.2124 95.5495C15.7187 99.2119 17.9001 102.364 18.0858 102.55C18.3178 102.782 18.4107 100.464 18.3178 97.4966C18.1786 92.6751 18.2714 91.887 19.1068 90.5889C19.8959 89.3836 20.36 89.059 21.6131 89.059C22.4485 89.059 23.6089 89.3836 24.1658 89.8008C25.3725 90.6353 26.7185 93.0924 26.3472 93.695C25.8367 94.5295 25.2333 94.205 24.9084 92.9996C24.5371 91.6088 23.0519 90.4498 21.6131 90.4498C19.8494 90.4498 19.4781 92.2115 19.8494 99.3973C20.1743 105.517 20.1743 105.749 19.2925 105.749C18.5963 105.749 17.0647 103.802 13.6766 98.7019L8.94249 91.6088V97.0793C8.94249 100.742 8.71043 103.06 8.29271 104.126C7.1324 106.861 4.39406 107.51 2.25908 105.517Z" fill="#1E1E26" stroke="#1E1E26"/>
<path d="M167.395 105.471C165.724 104.312 165.446 104.265 163.357 104.775C162.104 105.053 160.897 105.146 160.665 105.007C159.83 104.497 161.129 103.57 162.986 103.245L164.796 102.967L164.749 100.695C164.703 96.8012 167.209 94.5296 169.762 96.1986C172.175 97.7748 171.851 100.974 169.066 102.643C167.534 103.523 167.302 103.848 167.813 104.265C169.112 105.378 171.294 105.424 172.964 104.451C174.635 103.477 175.192 103.523 174.775 104.636C174.403 105.61 172.129 106.676 170.551 106.676C169.808 106.676 168.37 106.12 167.395 105.471ZM168.787 101.066C170.226 99.9537 170.365 98.0993 169.112 97.4039C167.952 96.8012 167.859 96.8012 167.024 97.6821C166.095 98.6093 166.003 102.04 166.931 102.04C167.256 102.04 168.091 101.623 168.787 101.066Z" fill="#1E1E26" stroke="#1E1E26"/>
<path d="M196.913 106.166C196.31 105.934 195.428 105.378 195.01 105.007C194.407 104.451 193.85 104.404 192.04 104.822C190.648 105.146 189.627 105.146 189.394 104.914C188.838 104.358 189.58 103.848 191.529 103.431C192.829 103.153 192.968 102.967 192.829 101.577C192.643 99.3976 193.525 97.1259 194.918 96.0133C196.496 94.8079 197.656 94.8543 199.002 96.2451C200.998 98.1922 200.301 101.345 197.563 102.782C196.681 103.245 195.985 103.802 195.985 103.941C195.985 104.544 199.188 105.378 200.255 105.054C200.858 104.868 201.787 104.265 202.39 103.755C204.061 102.226 204.664 103.431 202.993 105.007C201.508 106.444 198.77 106.954 196.913 106.166ZM197.749 100.835C198.955 99.4903 199.048 98.2386 198.027 97.2187C197.192 96.3378 197.099 96.3378 195.985 96.9405C194.918 97.4968 194.175 99.6757 194.453 101.298C194.639 102.318 194.871 102.457 195.707 102.226C196.217 102.086 197.145 101.437 197.749 100.835Z" fill="#1E1E26" stroke="#1E1E26"/>
<path d="M28.6214 104.636C27.5075 103.524 27.0434 102.643 27.0434 101.623C27.0434 99.8147 28.1573 97.5894 29.3176 96.9404C30.6172 96.2913 33.2163 96.3841 34.2373 97.1258C35.0264 97.6821 35.212 97.6821 35.6761 96.9867C36.6508 95.735 37.347 97.0331 37.4862 100.278C37.579 101.901 37.6255 103.338 37.6719 103.477C37.7183 103.848 39.9461 104.822 40.8279 104.822C41.1992 104.822 42.2667 104.033 43.1021 103.106C44.6802 101.391 44.6802 101.391 44.6802 102.596C44.6802 104.265 42.3131 106.212 40.3174 106.212C39.4355 106.212 38.2752 105.795 37.6719 105.332C36.558 104.451 36.5116 104.451 35.4441 105.332C34.7479 105.888 33.634 106.212 32.288 106.212C30.5243 106.212 29.9674 105.981 28.6214 104.636ZM34.2838 104.451C36.9293 102.689 35.1656 97.8676 31.8239 97.8676C28.6678 97.8676 27.2755 101.391 29.5961 103.663C30.71 104.822 33.1699 105.239 34.2838 104.451Z" fill="#1E1E26" stroke="#1E1E26"/>
<path d="M103.717 105.471C102.649 104.729 102.325 103.431 103.253 103.431C103.531 103.431 104.135 103.756 104.599 104.173C105.666 105.146 106.734 104.729 107.337 103.199C107.894 101.716 107.94 91.3774 107.43 91.3774C107.198 91.3774 106.641 91.7946 106.177 92.3046C105.62 92.9536 105.156 93.0927 104.831 92.7682C104.227 92.1655 105.759 90.4965 107.662 89.7084C111.886 87.9003 116.62 90.172 116.62 93.9272C116.62 96.6161 114.021 98.795 110.818 98.795C109.24 98.795 109.194 98.8413 109.194 100.603C109.194 105.193 106.641 107.511 103.717 105.471ZM113.371 96.7088C116.898 94.9007 114.949 90.4502 110.586 90.4502H109.194V93.9272V97.4042H110.586C111.375 97.4042 112.628 97.0797 113.371 96.7088Z" fill="#1E1E26" stroke="#1E1E26"/>
<path d="M77.6331 93.5098C77.6331 93.0462 78.0508 92.7681 78.6077 92.7681C79.7216 92.7681 79.5824 93.8344 78.4221 94.0662C77.9579 94.1589 77.6331 93.9271 77.6331 93.5098Z" fill="#1E1E26" stroke="#1E1E26"/>
<path d="M123.396 93.8342C123.257 93.6951 123.117 92.5361 123.117 91.2844C123.117 89.6154 123.303 89.0591 123.814 89.0591C124.324 89.0591 124.51 89.6154 124.51 91.3307C124.51 93.5097 124.092 94.4832 123.396 93.8342Z" fill="#1E1E26" stroke="#1E1E26"/>
<path d="M167.024 92.7217C166.42 91.0527 166.513 89.291 167.209 89.291C167.673 89.291 167.952 89.8473 168.045 90.8673C168.23 92.5362 167.441 93.927 167.024 92.7217Z" fill="#1E1E26" stroke="#1E1E26"/>
<path d="M82.5992 85.5821C79.6752 84.5622 77.1689 81.6879 77.1689 79.3699C77.1689 78.8599 76.7976 78.3499 76.3335 78.2109C74.5698 77.6545 72.899 75.2902 72.6669 73.1112C72.5277 71.9522 72.2956 70.9787 72.1564 70.9787C70.9497 70.9787 61.992 77.7009 59.3465 80.6216C57.0723 83.0787 56.8867 81.6879 59.1145 78.8599C61.2494 76.171 69.0003 70.8396 75.3124 67.7335L79.1647 65.8327L77.5402 64.1174C75.5445 62.0312 73.6416 58.786 73.2239 56.607C72.9918 55.5407 72.2492 54.4281 70.9961 53.4082C67.3759 50.2557 66.3548 45.2488 68.5826 41.4009L69.7429 39.361L68.6754 36.9967C67.84 35.0032 67.6544 33.7515 67.6544 29.9499C67.6544 25.5921 67.7472 25.0821 69.2324 22.1151C71.4602 17.5254 75.4981 13.6775 80.6035 11.1277C83.249 9.82963 84.8734 8.71698 85.2911 7.92886C86.3122 6.02809 88.7721 3.75645 91.3248 2.50472C94.0167 1.11392 99.0757 0.557596 102.046 1.39208C105.713 2.36564 109.286 5.79629 109.983 8.99514C110.168 9.96871 110.911 10.6178 113.092 11.7304C116.991 13.8166 121.679 18.5453 123.535 22.3469C125.716 26.7511 125.995 31.3871 124.417 36.1158C123.303 39.361 123.303 39.5001 124.092 39.9637C126.227 41.0764 126.97 45.2951 125.716 48.8649C124.278 52.8055 120.89 56.0507 118.801 55.4944C117.78 55.2626 117.594 55.4944 116.852 57.4415C115.877 60.0377 114.067 63.2829 113.139 64.0246C112.582 64.4883 113.371 65.0446 117.223 66.9453C122.282 69.4951 130.636 74.8266 132.121 76.4955C133.05 77.5155 132.771 78.4427 131.75 77.7009C131.425 77.4227 128.548 75.522 125.392 73.3894L119.636 69.4951L119.312 71.6741C118.94 74.2702 117.919 75.8929 116.109 76.9128C115.181 77.4691 114.577 78.3036 114.253 79.5553C112.396 86.3239 102.232 87.9929 98.1938 82.1515C97.0799 80.5752 96.6622 80.2971 95.2234 80.2507C93.7846 80.2507 93.4597 80.4361 92.9492 81.6415C92.2066 83.4496 90.118 85.2112 87.9367 85.8139C85.7088 86.4166 84.7806 86.3702 82.5992 85.5821ZM89.5611 83.3568C90.3965 82.8005 91.2784 81.8733 91.5104 81.2706C92.1602 79.9262 92.1602 79.7871 91.464 79.7871C90.2573 79.7871 85.2447 77.0982 84.038 75.8001C82.5064 74.1312 80.9284 70.7005 80.8819 68.9852C80.8819 68.2898 80.6035 67.5944 80.2786 67.4553C79.3967 67.1308 74.5698 69.4024 74.1985 70.2833C73.2703 72.7404 74.5698 75.7074 77.0297 76.9128C78.5613 77.6082 78.747 77.9327 78.8398 79.4626C78.979 83.8668 85.3375 86.1384 89.5611 83.3568ZM107.894 83.9595C110.215 83.3105 112.257 81.2706 112.907 78.9526C113.278 77.4691 113.835 76.7273 115.227 75.8465C116.527 75.012 117.177 74.1775 117.594 72.8794C118.476 69.9588 117.873 68.7534 115.088 67.5017L112.675 66.4354L112.164 68.4752C111.421 71.2105 110.029 73.343 107.291 75.8001C105.202 77.7009 100.932 79.7871 99.2149 79.7871C98.1938 79.7871 98.3795 80.3434 99.8183 81.966C101.628 84.0986 104.645 84.8404 107.894 83.9595ZM102 77.4227C106.409 75.8001 109.983 71.8595 110.772 67.7798C111.004 66.4354 110.957 66.2499 110.215 66.4817C106.038 67.8262 104.692 68.3361 104.088 68.6607C98.7044 71.9059 98.658 71.9059 95.8268 71.9059C92.4851 71.9059 88.4936 70.5614 86.9156 68.8925C86.1266 68.058 85.3376 67.7335 84.038 67.7335C82.5064 67.7335 82.2743 67.8725 82.2743 68.7997C82.2743 69.3561 82.692 70.7005 83.2026 71.8132C85.9409 77.84 94.2023 80.3434 102 77.4227ZM101.768 68.4289C103.671 67.3162 105.62 66.3427 106.13 66.3427C107.569 66.3427 111.468 63.9783 112.675 62.3557C113.324 61.4748 114.531 59.2959 115.274 57.4415C117.037 53.2691 117.316 52.9909 118.476 53.7327C120.565 55.0308 124.046 50.9974 124.788 46.5005C125.624 41.3082 122.328 39.0365 119.126 42.5599C117.316 44.5534 117.223 44.4607 116.945 38.9902C116.48 31.2017 113.788 27.261 107.198 24.8503C100.886 22.486 98.101 20.9561 96.8015 19.0089L95.5947 17.2009L92.81 19.8434C90.8142 21.6515 88.5864 23.0886 85.2911 24.6185C77.958 28.0492 76.2407 29.9499 75.034 36.0695C73.9201 41.5863 73.9201 54.289 74.9876 57.3951C76.7512 62.402 81.114 66.3427 84.9663 66.3427C86.2194 66.3427 87.0548 66.6208 87.4725 67.1771C89.0506 69.2633 91.9745 70.4687 95.734 70.5151C98.0082 70.5151 98.7508 70.2369 101.768 68.4289ZM71.7387 42.0036C70.6248 40.5201 70.4391 40.5664 69.5573 42.4208C68.1649 45.3415 68.9075 49.3748 71.2745 51.8783L72.2956 52.9909L72.4349 48.0768C72.5277 43.9507 72.4349 42.9771 71.7387 42.0036ZM74.8947 31.2944C76.3335 28.3273 79.4896 25.6848 84.5021 23.3668C89.5147 21.0488 92.4387 18.9162 94.2023 16.2273C94.8521 15.2074 95.5483 14.4193 95.7804 14.4193C95.966 14.4193 96.5694 15.3001 97.0335 16.4128C98.2867 19.1944 100.143 20.5852 105.341 22.5787C110.679 24.6185 114.113 26.7511 115.599 28.9764C117.037 31.1089 118.476 35.7913 118.476 38.3411C118.476 40.6128 118.476 40.6591 120.286 39.6856C121.122 39.2683 121.957 38.202 122.607 36.7185C127.248 25.9166 119.59 14.2338 105.249 10.2005C100.05 8.71698 92.3458 8.71698 87.1476 10.2005C76.612 13.1676 69.5109 20.3534 68.9075 28.6982C68.6754 32.407 69.6037 36.2086 71.5066 39.1756L72.7133 41.0764L73.3167 37.1358C73.6416 35.0032 74.3842 32.3607 74.8947 31.2944ZM107.755 7.4189C107.059 6.16717 105.805 4.91545 104.367 3.98825C102.278 2.73652 101.721 2.59744 98.101 2.59744C94.6201 2.59744 93.831 2.78288 91.6961 3.94189C89.1434 5.33269 86.5443 7.74342 87.0548 8.20702C87.1941 8.3461 88.6793 8.25338 90.3037 7.97522C95.5483 7.04802 103.16 7.60434 107.337 9.22695C107.987 9.45875 108.59 9.59783 108.683 9.50511C108.776 9.45875 108.358 8.48518 107.755 7.4189Z" fill="#1E1E26" stroke="#1E1E26"/>
<path d="M91.4176 58.8786C90.4894 58.6468 88.8649 58.0441 87.8438 57.5341L85.9873 56.5606L85.5232 57.7659C85.1055 58.9249 84.5486 59.2031 83.9916 58.6468C83.249 57.8587 86.8692 51.9709 88.1223 51.9709C89.0506 51.9709 88.9113 52.759 87.8438 53.9181C87.3333 54.4744 86.9156 55.0771 86.9156 55.2625C86.9156 55.7725 91.1855 57.4414 93.5062 57.7659C96.1517 58.1832 101.582 56.6997 102.928 55.2161C103.717 54.3353 103.717 54.2426 103.021 53.4544C102.185 52.5272 102 51.5073 102.649 51.5073C103.949 51.5073 107.523 57.3951 106.873 58.4613C106.595 58.9249 106.223 58.6931 105.481 57.3951L104.46 55.7261L103.253 56.6069C101.443 57.905 96.9871 59.3885 94.945 59.3422C93.9703 59.2958 92.3923 59.1104 91.4176 58.8786Z" fill="#1E1E26" stroke="#1E1E26"/>
<path d="M93.1349 52.4809C91.6961 51.8783 90.6286 50.1629 90.6286 48.494C90.6286 46.8714 92.6708 42.2354 93.4134 42.2354C94.0631 42.2354 94.0167 42.7917 92.9492 45.2488C91.8353 47.8449 91.7425 49.7921 92.7636 50.6265C93.7847 51.461 96.523 51.2756 97.6369 50.302C99.0293 49.0503 99.7255 50.1629 98.3795 51.461C97.1264 52.62 94.6201 53.0836 93.1349 52.4809Z" fill="#1E1E26" stroke="#1E1E26"/>
<path d="M119.219 50.2555C119.079 50.1164 118.94 49.282 118.94 48.4938C118.94 47.0567 120.658 44.5532 121.679 44.5532C122.746 44.5532 122.653 45.5731 121.539 46.454C120.75 47.103 120.333 47.8448 120.333 48.7256C120.333 50.0701 119.776 50.8118 119.219 50.2555Z" fill="#1E1E26" stroke="#1E1E26"/>
<path d="M81.0212 43.3946C80.8356 42.7919 81.114 42.2356 82.0423 41.4011C83.1562 40.4739 83.7131 40.3348 85.4304 40.5203C87.6118 40.7521 89.6075 42.2356 89.0042 43.1628C88.7721 43.5337 88.4472 43.4873 87.8439 42.931C87.3797 42.5138 86.2658 42.0965 85.384 41.9111C83.9916 41.6793 83.5275 41.8647 82.5528 42.931C81.4853 44.09 81.3461 44.1364 81.0212 43.3946Z" fill="#1E1E26" stroke="#1E1E26"/>
<path d="M108.219 43.2554C106.827 41.3083 103.531 40.891 102.185 42.5136C101.489 43.3481 100.839 43.3481 100.839 42.4673C100.839 41.5401 103.531 39.9175 105.016 39.9175C106.409 39.9175 109.101 41.4937 109.519 42.5136C109.983 43.6727 108.915 44.3217 108.219 43.2554Z" fill="#1E1E26" stroke="#1E1E26"/>
<path d="M108.637 36.3477C107.198 35.5596 105.666 35.1887 103.903 35.1423C101.675 35.0496 101.303 34.9105 101.303 34.1688C101.303 33.3806 101.582 33.3343 104.135 33.6124C107.012 33.8906 111.839 36.0232 111.653 36.904C111.514 37.6458 110.911 37.5531 108.637 36.3477Z" fill="#1E1E26" stroke="#1E1E26"/>
<path d="M78.7934 36.7187C78.4221 36.116 80.7891 34.5397 82.9705 33.937C85.616 33.1953 88.54 33.288 89.2362 34.1225C89.5611 34.4934 89.7468 34.8179 89.6539 34.8643C89.5611 34.8643 87.9831 34.9106 86.173 35.0033C83.7595 35.0961 82.3672 35.4206 81.1604 36.116C79.2111 37.275 79.1647 37.275 78.7934 36.7187Z" fill="#1E1E26" stroke="#1E1E26"/>
<path d="M88.4936 30.1356C88.0759 29.3938 88.7257 28.9302 90.8142 28.3739C95.1306 27.3076 102.928 28.1884 102.928 29.7183C102.928 30.0892 102.603 30.321 102.232 30.2283C98.9364 29.4402 98.0082 29.2547 95.966 29.2547C94.6665 29.2547 92.5315 29.5329 91.1855 29.9038C89.8396 30.2283 88.6328 30.321 88.4936 30.1356Z" fill="#1E1E26" stroke="#1E1E26"/>
</svg>
