<?xml version="1.0" encoding="utf-8"?>
<!DOCTYPE svg PUBLIC "-//W3C//DTD SVG 1.0//EN" "http://www.w3.org/TR/2001/REC-SVG-20010904/DTD/svg10.dtd">
<svg version="1.0" xmlns="http://www.w3.org/2000/svg" width="326px" height="437px" viewBox="0 0 326 437" preserveAspectRatio="xMidYMid meet">
 <g fill="#1c1c24">
  <path d="M202.75 433 c-0.20 -0.30 -0.50 -2.60 -0.75 -5.15 -0.90 -9.60 -1.55 -17.30 -2 -23.85 -0.30 -3.70 -0.80 -9.30 -1.20 -12.40 l-0.65 -5.60 -2.60 -2.90 c-1.40 -1.55 -4.05 -4.70 -5.95 -6.95 -1.85 -2.25 -3.75 -4.10 -4.20 -4.15 -0.50 0 -4.15 3.25 -8.15 7.20 l-7.25 7.20 0 2.95 c0 3.55 1.25 18.60 2.25 27.40 0.85 7.50 0.95 12.05 0.30 12.50 -0.85 0.50 -1.45 -1.35 -2 -6.50 -0.30 -2.75 -0.80 -6.90 -1.05 -9.25 -0.85 -7.50 -1.50 -15.65 -1.65 -19.75 l-0.10 -3.95 -4.05 6.20 c-2.25 3.45 -5.35 8.45 -6.90 11.10 -1.55 2.70 -3.35 5.20 -3.95 5.65 -1.40 0.95 -3.70 0.60 -7.45 -1.25 -6.75 -3.30 -22.70 -16.40 -36.60 -30 -10.25 -10.05 -14.15 -14.45 -18.55 -21 -5.75 -8.55 -13.70 -26.95 -15.60 -36.15 -0.70 -3.50 -1.05 -4.30 -1.65 -4.05 -0.40 0.15 -4.25 1.60 -8.50 3.20 -7.80 2.85 -32.50 12.85 -49.15 19.85 -9 3.75 -12.35 4.75 -12.35 3.75 0 -0.35 0.55 -0.90 1.20 -1.35 2.95 -1.95 42.90 -18.35 59.05 -24.25 l10.50 -3.85 0.30 -2.25 c0.40 -2.60 2.10 -7.05 5.70 -14.70 3.15 -6.65 6.05 -11.05 9.60 -14.55 l2.65 -2.60 0 -3.40 c0 -1.85 -0.45 -7.90 -1 -13.40 -0.55 -5.50 -1.35 -13.25 -1.75 -17.20 -0.40 -3.95 -0.85 -7.30 -0.95 -7.45 -0.15 -0.10 -1.30 -0.40 -2.60 -0.65 -5.25 -1 -9.60 -4.45 -15.30 -12.10 -2.90 -3.90 -7.30 -12.15 -10.10 -18.70 -2.60 -6.25 -6.30 -21.70 -6.30 -26.40 0 -3.10 1.80 -10.95 3.15 -13.95 1.50 -3.25 6.35 -8.30 9.70 -9.95 l2.35 -1.25 -0.15 -12.45 c-0.20 -16.45 0.85 -27.35 3.75 -38.40 1.55 -6 3.35 -10.55 7.10 -18.10 l2.95 -5.90 -1.55 -1 c-2.20 -1.45 -3.50 -5.40 -2.75 -8.65 0.70 -3.15 1.45 -4.20 4.70 -6.60 2.25 -1.70 2.75 -2.30 2.75 -3.55 0 -0.80 -0.35 -2.05 -0.80 -2.75 -1.80 -2.70 0.55 -10.40 3.95 -12.90 2.25 -1.60 2.85 -3.30 2.85 -7.65 0 -4.50 0.65 -5.85 3.30 -6.95 3 -1.25 5.45 -0.90 7.65 1.05 1.05 0.95 2.15 1.75 2.45 1.75 0.85 0 3.40 -4.25 5.10 -8.55 1.85 -4.60 3.10 -5.65 7 -6.20 1.95 -0.25 2.75 -0.75 4.80 -2.85 3.75 -3.80 5.55 -4.55 11.05 -4.50 4.50 0.05 4.65 0 8.10 -2 4.15 -2.40 6.85 -2.85 10.20 -1.70 2.05 0.70 2.60 0.70 4 0.10 0.90 -0.35 2.05 -1.15 2.60 -1.80 2.60 -2.85 5.45 -3.15 9.80 -1 l2.95 1.55 4.10 -0.85 c5.10 -1.05 8.90 -0.75 12.30 1 3.05 1.55 3.45 1.55 7.50 0.30 3.60 -1.15 6.60 -1.25 9.85 -0.45 1.80 0.45 2.70 0.40 4.95 -0.30 4.85 -1.55 8.75 -0.90 15.60 2.45 6.55 3.15 8.05 3.40 13.10 1.80 3.10 -1 7.25 -1.30 8.80 -0.70 1.05 0.40 1.10 4.20 0.10 6.10 -1.70 3.25 -4.70 5.05 -9.55 5.80 -1.10 0.20 -2.60 0.45 -3.40 0.60 l-1.35 0.30 1.30 1.55 c1.75 2.15 2.70 2.60 7.65 3.55 2.90 0.60 5.20 0.75 7.30 0.55 4.25 -0.45 5.90 0 8.60 2.35 2.30 2 2.40 2 5.35 1.75 2.65 -0.25 3.50 -0.10 6.55 1.25 2.20 1 4.80 1.70 7.10 1.90 4.50 0.45 7.20 1.80 7.95 3.95 0.35 1.10 1.10 1.90 2.55 2.60 3.35 1.65 4.20 5.75 1.40 7.05 -1 0.45 -1.55 0.30 -3.45 -0.80 -2.80 -1.60 -3.80 -1.65 -5.30 -0.05 -1.60 1.70 -2.50 1.60 -4.55 -0.55 l-1.70 -1.75 -1.10 1.40 c-1 1.25 -1.40 1.40 -3.85 1.30 -3.30 -0.15 -3.90 0.45 -3.70 3.70 0.15 2.35 0.20 2.40 2.15 2.80 5 1.05 7.75 4.05 7.75 8.50 0 3.20 0.65 4.20 2.95 4.85 1.05 0.25 2.50 0.95 3.20 1.50 1.90 1.50 4.65 5.95 6.70 10.75 1.25 3 2.40 4.85 3.85 6.20 4.15 3.85 4 3.45 5.15 13.90 0.25 2.40 0.15 2.70 -1.20 4.10 -1.40 1.40 -4.30 2.55 -6.40 2.55 -2.20 0 -5 -2.25 -7 -5.60 -2.85 -4.70 -4 -5.75 -8.60 -7.90 -4.25 -2 -5.75 -3.50 -6.40 -6.60 -0.45 -1.85 -1.55 -1.75 -2.55 0.20 -1.20 2.30 -0.65 4.80 2 9.25 1.25 2.10 2.45 4.55 2.60 5.40 0.45 2.40 -0.55 5.25 -2.85 8.25 -1.10 1.50 -2.45 3.60 -3 4.60 -0.95 1.80 -0.95 1.85 0.35 5.75 1.90 6 4 14.75 5.20 21.75 1.10 6.45 1.15 9.10 0.20 23.95 -0.25 3.65 -0.05 5.15 1.05 9.50 4.35 16.90 4.95 21.30 4.90 35.70 -0.10 19.40 -2.95 35.55 -9.15 52 -2.95 7.90 -12.75 26.85 -16.20 31.40 -0.85 1.15 -2.35 3.25 -3.30 4.60 -0.95 1.40 -2.90 3.80 -4.40 5.35 l-2.75 2.90 0.80 3.10 c0.45 1.75 1.05 4.65 1.40 6.55 0.60 3.10 0.75 3.40 2.15 3.80 2.65 0.75 8.65 3.30 20.10 8.45 14.90 6.75 22.75 9.80 40.15 15.65 14.80 4.95 17.30 6 16.90 7.10 -0.30 1 -2.50 0.45 -17.05 -4.50 -18.25 -6.15 -26.85 -9.55 -44.80 -17.75 -16.25 -7.40 -16.50 -7.55 -16.50 -7 0.05 0.20 0.35 1.80 0.75 3.60 1.55 7 0.75 23.85 -1.55 33.50 -1.45 5.95 -4.70 16.85 -5.75 19.35 -0.55 1.30 -1.85 4.55 -2.80 7.15 -2.65 7 -5.90 13.80 -7.35 15.25 -1.60 1.55 -4 1.65 -6.95 0.20 -1.30 -0.60 -5.30 -4.30 -10.30 -9.35 -7.60 -7.75 -8.15 -8.25 -7.90 -6.60 0.35 2.10 1.05 9.20 2.15 20.75 1.40 15.30 1.80 21.25 1.50 22 -0.30 0.85 -1.10 1 -1.55 0.25z m-47.20 -28.90 c7.75 -13.65 15.75 -23.85 24.10 -30.70 l5.05 -4.10 -6 -0.90 c-8.80 -1.25 -17.50 -4.45 -30.45 -11.10 -9.80 -5.05 -15.55 -8.55 -23.45 -14.45 -11.50 -8.55 -21.90 -18.35 -26.15 -24.60 -4.20 -6.20 -7.85 -15 -9.70 -23.35 -0.30 -1.60 -0.85 -2.90 -1.15 -2.90 -1.25 0.05 -8.15 13.65 -10.60 20.85 -1.50 4.45 -1.50 5.70 0.05 11.70 3.15 12.55 10.75 28.75 17.70 37.95 7.60 10.10 29.25 30.55 43.75 41.35 5 3.75 7.55 5.25 10.75 6.40 2.20 0.80 2.20 0.75 6.10 -6.15z m68.55 -0.45 c1.35 -1.50 3.80 -6.85 7.20 -15.55 6.10 -15.60 9.35 -28.90 10.15 -41.60 0.45 -7.15 0.05 -15.05 -0.95 -18.25 -0.25 -0.80 -0.80 -3.75 -1.25 -6.50 -0.45 -2.75 -1 -5.30 -1.20 -5.65 -0.25 -0.45 -1.20 1.60 -2.50 5.45 -4.10 12.10 -10 22.45 -16.85 29.85 -3.55 3.85 -9.85 9 -13.80 11.30 -2.95 1.70 -9.55 3.95 -14.15 4.80 -1.90 0.40 -3.60 0.75 -3.70 0.85 -1.05 0.75 28.10 32 32.40 34.75 2.60 1.60 3.60 1.75 4.65 0.55z m-35.60 -38.60 c9.95 -1.30 17.25 -5.10 25.85 -13.25 7.60 -7.25 12.95 -15.75 17.65 -28.30 3 -7.85 3.10 -8.60 0.95 -6.80 -9.15 7.75 -31.55 12.70 -45.70 10.10 -6.80 -1.25 -13.80 -3.20 -16.05 -4.55 -2.80 -1.70 -13.30 -7.45 -14.25 -7.85 -0.50 -0.20 -1 -0.55 -1.20 -0.85 -0.45 -0.75 -1.40 -0.70 -0.95 0.10 0.20 0.30 -0.55 -0.20 -1.60 -1.25 -1.05 -1 -2.80 -2.20 -3.80 -2.75 -1 -0.50 -3.30 -1.95 -5.15 -3.25 -3.50 -2.55 -4 -2.80 -3.60 -1.75 0.10 0.30 -1.35 -0.90 -3.25 -2.80 -3.60 -3.45 -6.40 -5.50 -4.90 -3.55 0.40 0.50 1.15 1.45 1.70 2.10 0.55 0.60 0.85 1.10 0.65 1.10 -0.15 0 -1.60 -1.65 -3.20 -3.60 -3.10 -3.90 -4.85 -5.55 -6.10 -5.75 -1 -0.10 -4.05 -3.55 -4.05 -4.50 0 -0.40 -0.20 -0.55 -0.50 -0.40 -0.25 0.15 -0.50 0.10 -0.50 -0.15 0 -0.25 -0.90 -1.45 -2 -2.65 -5.90 -6.35 -12.75 -15.95 -15.55 -21.80 -2.05 -4.35 -4.80 -12 -6.25 -17.65 -0.65 -2.60 -1.30 -5.05 -1.45 -5.40 -0.15 -0.50 -0.75 -0.35 -2.25 0.50 -1.95 1.10 -2.05 1.25 -1.80 3.15 0.10 1.10 0.70 7.05 1.25 13.20 0.60 6.15 1.15 11.30 1.25 11.50 0.15 0.25 1.30 21.40 1.95 36.05 0.20 4.10 1.25 6.70 4.95 12.15 6 8.85 21.70 22.50 36.95 32.10 6.35 4 22.35 12.10 27.45 13.85 10.55 3.70 14.30 4.15 23.50 2.95z m4.25 -42.30 c-0.05 -0.85 -0.20 -3.20 -0.40 -5.25 -0.20 -2.15 -0.15 -3.30 0.10 -2.75 0.30 0.65 0.45 -0.20 0.45 -2.70 0.05 -3.80 0.55 -5.65 0.65 -2.25 l0.05 1.95 0.45 -1.70 c0.75 -2.55 1 -1.55 0.40 1.65 -0.95 5.20 0.20 9.30 1.25 4.30 0.25 -1.25 0.55 -2 0.65 -1.65 0.10 0.30 -0.15 1.85 -0.55 3.40 -0.65 2.60 -0.65 3 0.05 4.05 0.90 1.40 1.90 1.60 1.40 0.35 -0.40 -1.10 -0.40 -1.10 -0.25 -2.65 0.05 -1.15 0.10 -1.15 0.50 -0.25 0.55 1.25 0.60 4.10 0.10 4.45 -0.60 0.35 -3.60 -2.60 -3.60 -3.55 0 -0.50 -0.25 -1.25 -0.50 -1.65 -0.35 -0.55 -0.50 -0.30 -0.50 1.05 0 0.95 0.25 2 0.55 2.30 0.40 0.40 0.40 0.85 0 1.60 -0.55 1.05 -0.50 1.05 3.40 1.05 2.20 0 5.70 -0.25 7.80 -0.55 3.30 -0.50 3.75 -0.70 3.80 -1.65 0.05 -0.90 0.10 -0.90 0.30 -0.15 0.20 0.80 0.55 0.85 2.30 0.60 2.55 -0.45 2.65 -0.50 1.80 -1.55 -0.60 -0.75 -0.70 -0.70 -1 0.15 -0.25 0.60 -0.40 0.20 -0.40 -1.20 -0.05 -2.50 0.95 -2.55 1.95 -0.10 0.50 1.10 0.95 1.45 2.05 1.45 1.95 0 2.15 -0.65 0.95 -2.85 -1.15 -2.20 -1.35 -3.25 -0.25 -1.85 0.40 0.50 0.75 0.75 0.75 0.45 0 -0.25 0.35 0.25 0.75 1.15 0.80 1.80 2.65 2.20 3.75 0.85 0.35 -0.45 0.95 -0.70 1.30 -0.55 0.85 0.35 1.75 -0.85 1.25 -1.65 -0.25 -0.40 -0.65 -0.55 -0.90 -0.40 -0.25 0.15 -0.50 -0.35 -0.55 -1.15 -0.05 -0.80 0.10 -1.55 0.40 -1.75 0.25 -0.15 0.50 0 0.50 0.35 0 0.35 0.25 1 0.50 1.40 0.45 0.65 0.55 0.65 1 0 0.40 -0.60 0.50 -0.45 0.50 0.60 0 1.30 0.10 1.30 1.50 0.80 2.15 -0.70 2.25 -1.25 0.65 -2.60 -1.25 -1.10 -1.45 -1.15 -1.75 -0.40 -0.30 0.75 -0.35 0.75 -0.35 -0.10 -0.05 -0.50 0.35 -1.20 0.80 -1.55 0.80 -0.60 0.80 -0.75 0 -2.85 -0.55 -1.40 -0.85 -3.45 -0.80 -5.65 0.10 -3.90 0 -4.25 1.45 4.50 0.70 4.35 1.15 6 1.55 5.70 0.15 -0.10 0.65 0.10 1.05 0.45 0.65 0.55 1 0.45 2.15 -0.55 1.20 -1 1.30 -1.30 0.80 -2.20 -0.30 -0.60 -0.55 -1.60 -0.50 -2.25 0 -1 0.10 -0.90 0.60 0.45 0.80 2.15 1.10 2.35 2.30 1.55 1.35 -0.85 1.70 -1.85 0.95 -2.80 -0.60 -0.65 -0.55 -0.70 0.40 -0.10 0.95 0.60 1.20 0.55 1.95 -0.20 0.75 -0.75 0.80 -1.05 0.25 -2.10 -0.35 -0.65 -0.55 -1.35 -0.40 -1.50 0.20 -0.15 0.45 0.20 0.65 0.75 0.15 0.60 0.55 1.05 0.80 1.05 0.90 0 1.05 -1.45 0.25 -2.60 -0.45 -0.60 -0.80 -1.85 -0.80 -2.75 0 -0.85 -0.20 -1.75 -0.50 -1.90 -0.25 -0.15 -0.50 -0.95 -0.50 -1.80 0 -0.80 0.25 -1.45 0.50 -1.45 0.30 0 0.50 0.10 0.50 0.20 0 0.85 1.55 7.95 1.80 8.35 0.45 0.75 3.70 -2.80 3.70 -3.95 0 -0.50 -0.35 -1.35 -0.75 -1.95 -0.60 -0.90 -0.70 -2.30 -0.55 -7.25 0.35 -9.65 0.25 -8.95 1.30 -6.65 0.50 1.10 0.90 2.35 0.90 2.75 0 0.40 -0.30 0.10 -0.65 -0.75 -0.65 -1.35 -0.70 -1 -0.70 4.25 0 3.25 0.30 6.50 0.65 7.45 l0.60 1.70 0.85 -1.30 c1.05 -1.60 1.10 -2.35 0.10 -2.35 -0.60 0 -0.75 -0.60 -0.70 -2.85 0.05 -1.60 0.20 -2.40 0.30 -1.75 0.35 1.75 1.10 1.30 0.85 -0.50 -0.35 -2.35 -1.10 -7.35 -1.45 -9.40 -0.30 -1.65 -0.25 -1.70 0.45 -0.80 0.45 0.55 0.95 1.70 1.10 2.65 0.15 0.90 0.50 1.65 0.70 1.65 0.20 0 0.50 0.75 0.65 1.65 0.85 4.95 0.85 5.10 0.05 2.60 -1 -3 -1.45 -2.30 -0.80 1.20 0.25 1.40 0.25 2.40 0.05 2.25 -0.25 -0.15 -0.45 0.45 -0.45 1.25 0 0.85 0.20 1.55 0.45 1.55 0.60 0 5.20 -7.25 5.90 -9.25 0.30 -0.80 0.70 -1.95 0.95 -2.45 0.25 -0.65 0.20 -0.85 -0.15 -0.65 -0.55 0.35 -1.15 -0.65 -1.15 -1.95 0 -0.40 0.45 -1.15 1 -1.70 1.30 -1.30 1.75 -3.35 1.10 -5.20 -0.85 -2.50 -1.20 -6.45 -0.65 -7.80 0.45 -1.10 0.50 -1 0.50 1.10 0.05 2.70 1 3.85 1.10 1.30 0.10 -2.50 -0.10 -3.50 -0.90 -5.05 -0.40 -0.80 -0.65 -1.65 -0.55 -1.95 0.10 -0.30 0.60 0.55 1.15 1.90 0.50 1.35 1.35 3.05 1.85 3.85 0.55 0.75 1.10 2.60 1.25 4.15 0.15 1.50 0.45 2.55 0.70 2.35 1.20 -1.30 0.30 -6.25 -1.65 -9.05 -0.85 -1.20 -1.40 -2.30 -1.25 -2.45 0.15 -0.10 0.65 0.45 1.10 1.35 1.45 2.75 1.40 1.20 0 -2.75 -0.75 -2.05 -1.30 -3.90 -1.15 -4.05 0.45 -0.45 2.90 6.80 3.50 10.35 0.35 1.90 0.75 3.45 0.95 3.45 1.45 0 0.65 -6.85 -1.30 -11.20 -0.70 -1.60 -1.20 -3.30 -1.15 -3.75 0.10 -0.45 0.60 0.40 1.15 1.85 0.50 1.40 1.15 2.60 1.40 2.60 0.20 0 0.30 -0.40 0.15 -0.85 -0.45 -1.55 -1.30 -5.40 -1.25 -5.90 0 -0.25 0.35 0.40 0.80 1.50 0.40 1.10 0.90 4.30 1 7.15 0.20 3.80 0.45 5 0.85 4.60 0.55 -0.55 0.60 -5.70 0.05 -12.75 -0.15 -2.70 -0.10 -3.15 0.25 -2 0.25 0.85 0.65 3.55 0.80 6.10 0.35 4.95 0.90 5.65 1.35 1.75 0.20 -1.70 -0.05 -3.70 -0.95 -6.85 -0.65 -2.50 -1.15 -4.85 -1.15 -5.25 0.05 -1.10 2.40 6.05 2.45 7.35 0 0.60 0.25 1.25 0.50 1.40 0.30 0.15 0.50 -0.05 0.50 -0.50 0 -0.50 0.30 -1.55 0.70 -2.40 0.35 -0.90 0.95 -2.95 1.30 -4.60 0.35 -1.65 0.80 -3.55 1.05 -4.25 0.20 -0.70 0.55 -2.80 0.70 -4.75 0.20 -1.90 0.65 -5.65 1.10 -8.25 0.55 -3.35 0.80 -8.55 0.85 -17.50 0.05 -14.40 -0.20 -16.50 -4 -31.35 -2.35 -9.25 -2.80 -14.70 -1.65 -18.80 0.60 -2.15 0.25 -2.90 -2.95 -6.45 -2.60 -2.90 -6.50 -5.25 -10.20 -6.20 -3.85 -1 -10 -0.70 -16.85 0.75 -5.95 1.30 -6.35 1.30 -7.80 -0.20 -1.50 -1.45 -1.60 -3.65 -0.30 -6.50 1.10 -2.45 2.05 -3.30 5.45 -5 4.35 -2.15 9.85 -3.05 15.10 -2.40 5.85 0.75 9.90 2.65 14.20 6.70 3.25 3 3.40 3.10 3.15 1.70 -0.15 -0.85 -0.75 -3.95 -1.35 -7 -0.60 -3 -1.70 -7.90 -2.50 -10.85 -0.85 -2.95 -1.50 -5.65 -1.50 -6 0 -0.35 -0.35 -1.30 -0.80 -2.15 -1.55 -2.95 -6.65 -15.60 -8.95 -22.20 -4.65 -13.30 -9.55 -18.15 -21.35 -21.10 -3.65 -0.90 -4.55 -1 -7.70 -0.45 -3.20 0.50 -3.90 0.45 -6.65 -0.50 -2.55 -0.85 -3.75 -0.95 -7 -0.70 -3.15 0.25 -4.45 0.15 -6.45 -0.55 -2.25 -0.85 -2.75 -0.85 -4.65 -0.25 -2.20 0.75 -6.90 0.85 -22.95 0.55 -8.40 -0.15 -9.50 -0.10 -11.95 0.85 -3.75 1.45 -6.40 1.75 -9.75 1.15 -3 -0.55 -3.15 -0.55 -9.30 1.95 -2.20 0.90 -4.20 1.20 -10.25 1.50 -5.25 0.25 -7.95 0.60 -9 1.15 -2 1 -6 5.30 -7.10 7.55 -0.75 1.60 -1.90 2.45 -3.45 2.50 -0.90 0.05 -8.95 8.95 -9.55 10.55 -2.65 7.25 -3.50 9.10 -5.15 11.15 -1.85 2.30 -4.05 4.45 -5.50 5.35 -0.40 0.25 0.75 -1.15 2.55 -3.15 3.45 -3.75 5.50 -7.40 6.65 -11.85 0.40 -1.40 2.05 -5 3.75 -7.95 1.70 -2.95 3.05 -5.55 3.05 -5.70 0 -0.65 -2.20 -1.75 -2.35 -1.25 -0.10 0.30 -1.45 2.50 -2.95 4.90 -3.95 6.30 -6.45 11 -7.90 14.75 -1.65 4.45 -3.75 9 -4.05 9 -0.15 0 0.10 -0.85 0.55 -1.85 0.45 -1.05 1.55 -3.85 2.50 -6.25 1.75 -4.60 2.60 -6.30 6.20 -12.15 3.65 -6 3.30 -5.75 -2.05 1.50 -7.60 10.20 -8.20 11.40 -9.55 17.85 -0.30 1.55 -0.70 2.75 -0.85 2.65 -0.15 -0.10 -0.30 0.80 -0.35 1.90 -0.05 2.85 -2.90 9.65 -6.90 16.35 -1.85 3.10 -3.55 6.55 -3.80 7.70 -0.45 2.05 -1.15 12.15 -0.80 11.75 0.45 -0.50 9.90 -24.50 13.40 -34.10 0.30 -0.75 0.60 -1.30 0.70 -1.20 0.40 0.40 -12.75 34.65 -14.35 37.35 -0.25 0.45 -0.35 -2.15 -0.20 -6.40 0.15 -4.90 0.05 -7.05 -0.30 -6.80 -0.30 0.15 -0.20 -0.35 0.25 -1.15 0.75 -1.55 2.10 -8.05 1.70 -8.40 -0.15 -0.15 -1.05 2.05 -2.10 4.90 -2.20 6.05 -2.70 7.30 -2.75 6.50 -0.05 -0.35 0.75 -2.80 1.75 -5.50 3.20 -8.85 9.20 -28.35 9.20 -30.05 0 -0.20 -0.95 1.05 -2.15 2.75 -1.15 1.65 -2.70 3.80 -3.45 4.70 -1.35 1.75 -5.40 11.55 -6.40 15.45 -0.35 1.40 -0.50 6.25 -0.40 12.70 l0.15 10.50 2.90 1.45 c2.10 1.10 3.40 2.20 4.85 4.25 2.55 3.50 6.85 12.30 7.30 14.75 0.30 1.75 0.20 1.95 -0.60 1.75 -0.55 -0.05 -1.40 -1.05 -1.95 -2.15 -7.50 -14.75 -10.15 -17.55 -15.60 -16.50 -1.25 0.20 -2.70 1.30 -5.35 3.90 -3.95 3.95 -5.20 6.60 -6.35 13.55 -0.75 4.40 -0.35 7.95 1.75 16.60 2.25 9.05 3.70 13.05 7.60 20.75 6.50 12.85 14.30 20.90 20.30 20.95 2.45 0 3.90 -0.60 6.15 -2.55 1 -0.90 2.30 -1.65 2.90 -1.70 1.10 -0.10 1.10 -0.25 1.40 -11.05 0.40 -14.40 0.40 -13.80 0.95 -13.45 0.25 0.15 0.40 5.05 0.30 12.40 -0.20 14.05 -0.15 13 -0.90 12.55 -2.15 -1.35 4.35 20.75 8.30 28.15 0.70 1.30 0.70 1.10 0.50 -3.60 -0.25 -7.15 -1 -14.20 -1.45 -14.65 -0.20 -0.20 -0.25 1.95 -0.05 4.80 0.25 3.40 0.15 5.10 -0.20 5.10 -0.25 0 -0.50 -0.55 -0.50 -1.20 0 -0.65 -0.35 -2.65 -0.80 -4.40 -0.65 -2.40 -0.75 -4.05 -0.45 -7.15 0.25 -2.20 0.40 -4.65 0.35 -5.50 -0.15 -2.80 -0.10 -6.50 0.10 -7.50 0.15 -0.55 0.25 -2.55 0.30 -4.50 l0.10 -3.50 0.50 2.50 c0.30 1.70 0.25 3.60 -0.15 5.90 -0.35 1.85 -0.50 3.45 -0.35 3.60 0.30 0.35 1.25 -4.20 1.85 -9.20 0.25 -2 0.75 -3.95 1.05 -4.25 0.45 -0.40 0.55 -0.30 0.35 0.45 -0.60 2 -0.55 16.70 0.05 23.75 0.35 4 1.15 9.65 1.75 12.60 0.65 2.95 1 5.25 0.80 5.15 -0.20 -0.15 -0.50 -1.10 -0.70 -2.15 -0.15 -1 -0.55 -2.20 -0.80 -2.60 -0.40 -0.55 -0.45 -0.20 -0.20 1.25 0.20 1.10 0.45 3.55 0.55 5.40 0.25 4.15 1.10 5.90 5.95 12.25 3.80 5.05 5.75 7.15 5.75 6.20 0 -0.30 -0.25 -0.70 -0.55 -0.90 -0.40 -0.25 -0.40 -0.40 0 -0.65 0.35 -0.25 0.20 -1 -0.40 -2.30 -1.55 -3.25 -1.70 -4.70 -0.25 -2.10 0.95 1.65 1.50 2.15 1.80 1.75 0.25 -0.45 0.40 -0.25 0.40 0.60 0 0.70 0.45 2.20 1 3.40 1.15 2.60 0.95 2.70 -0.45 0.30 -1.45 -2.45 -1.90 -1.80 -0.60 0.90 0.65 1.40 2.95 3.85 6.50 7.05 4.95 4.45 14.20 11.85 14.80 11.85 0.10 0 0 -0.60 -0.30 -1.35 -0.30 -0.80 -0.65 -3.30 -0.75 -5.65 -0.15 -2.35 -0.45 -4.90 -0.70 -5.75 -0.20 -0.80 -0.65 -2.60 -0.90 -4 -0.25 -1.35 -1.40 -6 -2.55 -10.25 -1.10 -4.25 -2 -8.20 -2 -8.75 0 -0.55 0.35 0.30 0.75 1.90 0.75 3.25 1.95 5.70 1.50 3.10 -0.80 -4.35 -0.95 -6.40 -0.40 -6.05 0.35 0.20 0.60 0.75 0.60 1.25 0 0.45 0.20 1.05 0.45 1.35 0.25 0.25 1.30 3.15 2.35 6.40 1.55 4.70 2 5.70 2.25 4.75 0.20 -0.65 0.35 -0.85 0.40 -0.40 0.05 0.45 0.40 3 0.80 5.75 0.50 3.25 0.65 6.20 0.40 8.70 -0.30 3.40 -0.35 3.60 -0.75 2 -0.20 -0.95 -0.25 -2.80 -0.10 -4.05 0.35 -3.10 -0.60 -8.05 -2.30 -11.70 -0.75 -1.65 -1.60 -3.65 -1.80 -4.50 -0.35 -1.40 -0.40 -1.45 -0.60 -0.30 -0.10 0.65 0.15 2 0.60 3 1.40 3.20 2.25 8.15 2.50 14.05 0.10 3.15 0.45 6.95 0.80 8.40 0.50 2.35 0.85 2.80 3.35 4.60 1.55 1.10 2.90 1.90 3 1.85 0.15 -0.20 -0.95 -2.25 -3 -5.60 -0.35 -0.55 -0.90 -1.20 -1.20 -1.40 -0.35 -0.20 -0.65 -0.80 -0.60 -1.25 0 -0.70 0.10 -0.65 0.45 0.15 0.30 0.75 0.45 0.20 0.55 -2 0.05 -1.65 0.20 -2.30 0.30 -1.50 0.45 3.75 0.85 4.05 1.20 0.75 l0.30 -3.25 0 4 c0 3.70 0.15 4.30 1.95 7.70 2.15 4.05 2.30 4.20 12.85 10.30 3.25 1.85 6 3.25 6.15 3.10 0.15 -0.15 0.05 -0.75 -0.30 -1.30 -0.35 -0.70 -0.35 -1.05 0 -1.05 0.25 0 0.50 0.30 0.50 0.65 0 2.95 10.30 7.55 20 8.85 3.95 0.55 4.25 0.45 4.25 -1.25z m-99.95 -29.85 c-0.20 -3.10 -0.55 -5.85 -0.80 -6.10 -0.20 -0.20 -0.80 0.20 -1.25 0.90 -0.85 1.25 -0.85 1.50 0.25 5.45 1.50 5.60 1.45 5.35 1.80 5.35 0.20 0 0.20 -2.55 0 -5.60z m165.15 -14.40 c1.10 -2.60 1 -4.60 -0.50 -8.30 l-0.60 -1.45 -0.35 1.25 c-0.55 1.75 -0.60 11 -0.05 11 0.25 0 0.90 -1.10 1.50 -2.50z m9.35 -120.45 c-0.20 -0.25 -0.40 -1.65 -0.55 -3.10 -0.20 -2.80 -2.05 -5.75 -4.15 -6.70 -0.60 -0.25 -1.10 -0.75 -1.10 -1.05 0 -0.60 -2.90 -3.50 -3.20 -3.15 -0.15 0.10 0.75 1.80 1.90 3.70 1.15 1.95 2.85 4.85 3.80 6.50 0.90 1.65 1.85 3.30 2.15 3.65 0.55 0.70 1.55 0.85 1.15 0.15z m-4.50 -4.65 c-0.40 -0.65 -1.95 -3.15 -3.35 -5.55 -2.30 -3.90 -4.25 -6.20 -4.85 -5.65 -0.20 0.25 6.55 10.40 7.70 11.55 1.15 1.10 1.45 0.90 0.50 -0.35z m-6.10 -6.25 c-1.80 -2.70 -3.85 -5.20 -4.50 -5.55 -0.65 -0.35 -1.20 -0.50 -1.20 -0.35 0 0.20 1.30 1.95 2.90 3.90 1.60 2 3.40 4.35 4.05 5.25 0.60 0.85 1.35 1.60 1.60 1.60 0.25 0 -1 -2.20 -2.85 -4.85z m-19.55 3.75 c0.75 0.05 1.35 -0.15 1.35 -0.35 0 -0.25 -1.65 -1.45 -3.60 -2.70 -3.30 -2.10 -3.70 -2.25 -4.25 -1.50 -0.95 1.25 -0.85 1.40 1.75 3.10 1.30 0.85 2.10 1.55 1.85 1.55 -0.30 0 -1.40 -0.60 -2.40 -1.30 -2.35 -1.55 -3.15 -1.10 -1.15 0.65 1.25 1.05 1.75 1.20 3.25 0.90 1 -0.20 2.40 -0.35 3.20 -0.35z m18.55 -2.25 c-3.25 -4.40 -6.40 -7.65 -7.30 -7.65 -0.75 0 0.15 1.25 3.45 4.75 4.50 4.85 6.35 6.20 3.85 2.90z m-9.90 0.70 c0.30 -0.30 -7.65 -6.50 -8.95 -7 -1.85 -0.70 -0.75 0.95 1.90 2.85 2.70 1.95 5.40 4.50 3.70 3.50 -0.40 -0.25 -2.25 -1.55 -4.10 -2.85 -1.85 -1.35 -3.70 -2.35 -4.20 -2.25 -0.55 0.10 0.25 0.85 2.45 2.30 3.05 2 4.95 3.60 4.25 3.60 -0.15 0 -1.90 -1.10 -3.90 -2.50 -3.50 -2.40 -4.95 -3 -4.95 -2.05 0 0.25 1.65 1.45 3.65 2.75 3.45 2.15 3.75 2.25 6.75 2.05 1.75 -0.10 3.30 -0.25 3.40 -0.40z m4.95 -1.20 c-0.80 -0.70 -3 -2.55 -4.85 -4.20 -2 -1.80 -3.80 -2.95 -4.50 -2.95 -0.95 0 -0.70 0.35 1.60 2.40 4.75 4.10 6.25 5.55 5.75 5.60 -0.25 0 -2.05 -1.40 -4 -3.05 -4.60 -4.05 -5.70 -4.70 -6.30 -4.10 -0.30 0.30 0.25 0.95 1.65 1.90 1.15 0.75 3.15 2.35 4.40 3.55 2 1.85 2.60 2.15 4.40 2.10 1.20 0 2.30 0.10 2.45 0.30 0.20 0.15 0.45 0.15 0.60 0 0.15 -0.15 -0.35 -0.85 -1.20 -1.55z m0 -2.25 c-2.20 -2.30 -4.20 -4.45 -4.55 -4.85 -0.40 -0.45 -0.85 -0.50 -1.40 -0.20 -0.60 0.35 -0.05 1.10 3.10 3.85 2.10 1.90 4.15 3.85 4.50 4.40 0.35 0.50 1 0.90 1.45 0.90 0.50 0 -0.70 -1.60 -3.10 -4.10z m-169.40 -7.75 c4.05 -7 4.65 -8.45 5.70 -13.30 0.55 -2.55 1.40 -5.65 1.95 -6.95 2.05 -4.85 0.85 -3.95 -2.05 1.60 -3.70 6.85 -5.30 9.50 -5.90 9.50 -0.40 0 -1.25 3.95 -2.50 11.35 -0.20 1.45 -0.25 2.50 -0.05 2.40 0.20 -0.10 1.50 -2.20 2.85 -4.60z m-6.40 -10.65 c1.10 -2.90 2.40 -6.35 2.85 -7.75 1.20 -3.65 7.80 -19.80 8 -19.60 0.10 0.10 -0.50 1.85 -1.35 3.90 -2.10 5 -5.95 15.60 -5.70 15.85 0.25 0.25 4.95 -6.80 6.45 -9.75 2 -3.95 6.80 -12.30 7.70 -13.30 1.45 -1.65 1.25 -0.35 -0.25 1.55 -2.10 2.60 -8.15 14.05 -7.85 14.80 0.20 0.55 -2.40 11.10 -3.60 14.55 l-0.30 1 0.70 -1 c2.05 -2.80 8.60 -16.15 9.45 -19.35 1.55 -5.75 3 -10.40 3.25 -10.40 0.30 0 -0.20 1.95 -1.60 6.50 -0.65 2.05 -1.20 4.10 -1.20 4.50 0.05 1 2.10 -3 4 -7.80 1.60 -4 3.15 -6.90 5.60 -10.55 2.35 -3.45 1.60 -3.10 -2.35 1.10 -2.05 2.20 -3.70 3.75 -3.75 3.45 0 -0.30 1.90 -2.35 4.20 -4.60 2.30 -2.25 4.05 -4.20 3.90 -4.35 -0.15 -0.15 -0.75 -0.25 -1.30 -0.25 -0.60 0 -1.60 -0.35 -2.20 -0.80 -0.65 -0.45 -1.45 -0.65 -1.85 -0.50 -0.40 0.15 -0.85 0.05 -1 -0.20 -0.65 -1.05 -3.80 -0.50 -6 1 -2.75 1.90 -3.55 3 -7.75 11.10 -1.90 3.65 -3.50 6.50 -3.50 6.25 0 -0.50 5.15 -10.55 6.75 -13.25 l1.35 -2.15 -2.05 1 c-1.75 0.90 -2.40 1.75 -4.25 5.45 -2.25 4.45 -5.50 13.05 -5.10 13.45 0.10 0.15 -0.10 1 -0.50 1.90 -0.40 0.95 -0.70 2.10 -0.70 2.60 0.05 1.25 2.45 -3.35 2.50 -4.70 0 -0.60 0.75 -1.85 1.65 -2.75 0.90 -0.90 2.40 -2.85 3.30 -4.25 1.70 -2.70 2.25 -3.30 1.70 -1.75 -0.30 0.75 -0.25 0.80 0.60 0.10 0.85 -0.65 0.90 -0.65 0.50 0 -0.25 0.40 -1.40 1.90 -2.55 3.35 -1.15 1.40 -2.25 3.30 -2.45 4.25 -0.35 1.35 -0.45 1.50 -0.75 0.65 -0.25 -0.75 -0.75 -0.15 -2.45 3 -2.50 4.75 -3.55 8.35 -3.80 12.75 -0.10 1.80 -0.40 4.85 -0.70 6.75 -0.30 1.95 -0.50 3.95 -0.50 4.50 l0 1 0.40 -1 c0.25 -0.55 1.35 -3.35 2.50 -6.25z m186.70 -18.50 l-1.40 -2.15 -0.15 1.60 c-0.10 0.90 0.20 2.20 0.65 2.90 0.75 1.10 0.95 1.15 1.55 0.55 0.65 -0.65 0.55 -1 -0.65 -2.90z m5.35 -2.20 c0 -0.70 -0.20 -1.40 -0.50 -1.55 -0.30 -0.20 -0.50 0.35 -0.50 1.20 0 0.85 0.25 1.55 0.50 1.55 0.30 0 0.50 -0.55 0.50 -1.20z m26.40 0.20 c0.60 -0.60 1.10 -1.40 1.10 -1.90 0 -2.05 -1.50 -9.80 -1.95 -10.25 -0.75 -0.75 -0.70 2.35 0 5.55 0.50 2.15 0.45 2.70 -0.35 4.40 -0.80 1.65 -1.35 2.05 -3.20 2.55 l-2.25 0.55 2.80 0.05 c2.15 0.05 3 -0.20 3.85 -0.95z m-36.45 -4.30 c-1.55 -1.85 -1.95 -0.10 -0.55 2.70 l0.85 1.85 0.15 -1.90 c0.10 -1.05 -0.10 -2.25 -0.45 -2.65z m5.05 -0.40 c-0.65 -1.60 -1.35 -2.80 -1.80 -2.80 -0.55 0 -0.35 0.75 0.85 3.05 0.80 1.70 1.60 2.95 1.75 2.80 0.15 -0.10 -0.25 -1.50 -0.80 -3.05z m27.90 0.25 c0.15 -1.40 0.05 -1.65 -0.65 -1.35 -0.45 0.15 -1.40 0.45 -2.05 0.60 -1.45 0.35 -1.45 0.60 -0.35 1.80 1.35 1.50 2.85 0.95 3.05 -1.05z m-188.40 -6.75 c4.20 -5.70 5.50 -7.80 5.40 -8.75 -0.25 -2.35 -1.70 -1.80 -3.70 1.30 -1.90 2.90 -8.20 14.80 -8.20 15.50 0 0.55 0.60 -0.20 6.50 -8.05z m12.70 -6.05 c2.30 -4.85 2.10 -5.25 -0.90 -2 -2.35 2.55 -7.30 10 -7.30 11.05 0 1 7.20 -6.90 8.20 -9.05z m173.80 8.75 c0 -0.25 -0.35 -0.50 -0.75 -0.50 -0.40 0 -0.75 0.25 -0.75 0.50 0 0.30 0.35 0.50 0.75 0.50 0.40 0 0.75 -0.20 0.75 -0.50z m-7.50 -1.95 c-0.35 -0.75 -1.05 -1.05 -2.15 -1.05 -0.90 0 -2.75 -0.55 -4.15 -1.20 -2.95 -1.35 -3.40 -2.30 -4 -7.90 -0.15 -1.90 -0.45 -3.40 -0.65 -3.40 -0.20 0 -0.90 0.70 -1.50 1.55 l-1.20 1.60 1.05 0.80 c0.60 0.45 1.40 1.80 1.85 3 1.05 3.10 1.45 3.45 6.10 5.65 2.30 1.10 4.30 2.25 4.50 2.55 0.60 1 0.75 -0.50 0.15 -1.60z m4.45 -0.35 c1 -0.50 2.20 -0.70 3.15 -0.50 1.40 0.25 1.50 0.20 1.20 -0.85 -0.15 -0.60 -0.30 -1.40 -0.30 -1.70 0 -1 -1 -0.75 -2 0.50 l-0.90 1.10 -1.20 -1.15 c-0.70 -0.60 -1.40 -0.95 -1.55 -0.75 -0.35 0.30 -0.50 4.15 -0.20 4.15 0.10 0 0.90 -0.35 1.80 -0.80z m-5.70 -3.70 c0.15 -0.25 -0.15 -0.50 -0.75 -0.50 -0.60 0 -0.90 0.25 -0.75 0.50 0.15 0.30 0.50 0.50 0.75 0.50 0.25 0 0.60 -0.20 0.75 -0.50z m-16.55 -3.30 c0.90 -2.05 0.90 -2.10 -0.15 -3.15 -0.55 -0.55 -1.15 -1.60 -1.35 -2.30 -0.40 -1.55 -1 -1.60 -1.45 -0.20 -0.25 0.80 0 1.35 1.05 2.20 1.40 1.10 1.40 1.35 0.40 5.25 -0.50 1.80 0.40 0.70 1.50 -1.80z m15.80 -0.80 c0 -0.20 -0.25 -0.50 -0.60 -0.70 -0.60 -0.40 -2 1.20 -1.60 1.85 0.25 0.45 2.20 -0.55 2.20 -1.15z m-4.50 -0.15 c0 -0.45 0.30 -1.40 0.70 -2.20 0.45 -0.85 0.55 -1.65 0.30 -2.05 -0.50 -0.80 -0.70 -0.45 -1.15 2 -0.10 0.70 -0.40 1.65 -0.60 2.15 -0.20 0.50 -0.15 0.85 0.20 0.85 0.30 0 0.55 -0.35 0.55 -0.75z m-22.30 -1.35 c0.65 -1.80 0.30 -2.05 -1.60 -1.35 -1.80 0.60 -1.80 0.60 -0.95 1.95 0.80 1.35 1.95 1.05 2.55 -0.60z m-140.80 -3.55 c-1.35 -0.25 -2.55 -0.35 -2.65 -0.25 -0.15 0.10 0.25 1.15 0.85 2.35 l1.05 2.15 1.65 -1.90 1.60 -1.95 -2.50 -0.40z m-22.75 0.95 c1.15 -0.85 1.10 -1.25 -0.15 -0.95 -1.25 0.35 -2.45 1.65 -1.45 1.65 0.40 0 1.10 -0.35 1.60 -0.70z m15.05 -1.25 c0.30 -0.50 -4.60 -2.35 -5 -1.90 -0.30 0.25 3.25 2.25 4.15 2.30 0.30 0.05 0.70 -0.15 0.85 -0.40z m17.45 -1.25 c0.90 -0.70 2.30 -1.50 3.10 -1.80 1.45 -0.55 1.45 -0.60 0.55 -1.30 -1.35 -1 -1.75 -0.90 -2.30 0.55 -0.25 0.70 -1.15 1.70 -2 2.15 -0.80 0.45 -1.50 1 -1.50 1.25 0 0.60 0.50 0.40 2.15 -0.85z m125.85 -0.80 c0.75 -1.85 0.20 -2.65 -0.80 -1.25 -0.65 0.85 -0.85 0.90 -1.75 0.35 -1.65 -1.05 -1.80 -0.15 -0.20 1.15 1.90 1.55 2 1.55 2.75 -0.25z m30.85 0.70 c0.40 -1.05 -1.20 -4.35 -2 -4.05 -1 0.30 -1 2.20 0 3.55 1.05 1.50 1.55 1.60 2 0.50z m-190.10 -2.50 c1 -1.90 0.65 -3.30 -0.90 -3.60 -0.70 -0.15 -0.80 0.10 -0.55 1.40 0.30 1.30 0.15 1.60 -0.75 1.85 -1.20 0.30 -1.30 0.70 -0.45 1.55 1 1 1.60 0.70 2.65 -1.20z m29.30 -1.10 c2.30 0.15 2.70 0 2.85 -0.80 0.20 -0.85 0 -0.90 -1.75 -0.55 -4.95 1 -7.25 -0.60 -7.80 -5.40 -0.20 -1.50 -0.50 -3.10 -0.65 -3.55 -0.55 -1.45 -1.15 -0.85 -0.85 0.85 0.15 1.10 -0.05 2.30 -0.60 3.40 -0.85 1.60 -0.85 1.70 0 2.20 0.50 0.25 1.55 1.05 2.35 1.70 1.30 1.05 1.45 1.40 1.15 3 l-0.35 1.80 1.50 -1.40 c1.35 -1.30 1.80 -1.45 4.15 -1.25z m-10.85 0.05 c-0.40 -2.25 -0.45 -2.35 -1.15 -1.90 -0.60 0.35 -0.75 2.90 -0.20 3.40 0.15 0.20 0.65 0.35 1 0.35 0.55 0 0.60 -0.45 0.35 -1.85z m159.30 0.65 c0 -0.60 0.25 -1.85 0.55 -2.75 0.50 -1.40 0.45 -1.75 -0.60 -2.85 -1.55 -1.65 -2.15 -1.50 -1.15 0.40 0.60 1.15 0.70 2.20 0.50 4 -0.20 1.50 -0.15 2.40 0.20 2.40 0.25 0 0.50 -0.55 0.50 -1.20z m-10.55 -1 l1.60 -1.65 -1.25 -0.25 c-1.45 -0.30 -2.05 0.25 -2.55 2.25 -0.45 1.80 0.20 1.70 2.20 -0.35z m-153.45 0.60 c0 -0.35 0.15 -1.15 0.30 -1.75 0.25 -1 0.10 -1.15 -1 -1.15 -1 0 -1.30 0.25 -1.30 1.15 0 1.15 0.85 2.35 1.60 2.35 0.20 0 0.40 -0.30 0.40 -0.60z m39.05 -0.65 c-0.05 -0.75 -1.20 -0.60 -1.45 0.15 -0.15 0.45 0.10 0.65 0.60 0.50 0.50 -0.05 0.85 -0.35 0.85 -0.65z m121.65 -0.35 c0.30 -1.35 -0.35 -2.15 -1.45 -1.75 -1.10 0.45 -1.55 1.85 -0.70 2.40 1.15 0.70 1.80 0.50 2.15 -0.65z m8.80 -0.35 c0 -1.30 -0.85 -1.80 -1.75 -1.05 -1.15 0.95 -0.90 2 0.50 2 0.90 0 1.25 -0.25 1.25 -0.95z m-30 -0.30 c-0.35 -0.40 -0.85 -0.75 -1.10 -0.75 -0.30 0 -0.25 0.35 0.10 0.75 0.35 0.40 0.85 0.75 1.10 0.75 0.30 0 0.25 -0.35 -0.10 -0.75z m-157.50 -1.05 c0 -0.40 0.40 -1.35 0.85 -2.10 l0.85 -1.35 -1.35 1.20 c-1.25 1.15 -2 4 -0.85 3.30 0.30 -0.15 0.50 -0.65 0.50 -1.05z m63.55 0.30 c0.50 -0.30 0.95 -0.75 0.95 -1 0 -0.85 -1.25 -0.55 -1.90 0.50 -0.70 1.10 -0.45 1.25 0.95 0.50z m87.55 -0.60 c-1.05 -1.30 -4.15 -2.60 -4.95 -2.10 -1.40 0.85 -0.90 1.35 2.10 2.20 3.25 0.90 3.70 0.85 2.85 -0.10z m-137.85 0.10 c0.15 -0.25 -0.05 -0.50 -0.45 -0.50 -0.40 0 -0.90 0.25 -1.05 0.50 -0.15 0.30 0.05 0.50 0.45 0.50 0.40 0 0.90 -0.20 1.05 -0.50z m33 0 c-0.15 -0.25 -0.75 -0.50 -1.25 -0.50 -2.50 0 -3.35 -3.55 -1.25 -5.50 1 -0.95 1.55 -1.10 3.60 -0.85 1.30 0.15 2.95 0.45 3.65 0.65 1.10 0.35 1.20 0.30 0.55 -0.45 -0.35 -0.45 -1.10 -0.85 -1.65 -0.85 -0.55 0 -1.65 -0.70 -2.50 -1.55 -2.30 -2.30 -3.80 -1.90 -5.55 1.55 -1.10 2.20 -1.25 3 -0.85 4 0.25 0.70 0.70 1.85 0.95 2.65 0.45 1.15 0.80 1.35 2.55 1.35 1.25 0 1.95 -0.20 1.75 -0.50z m27.65 -0.60 c0.20 -1.10 -0.80 -1.15 -2.60 -0.25 -1.55 0.85 -1.10 1.45 0.95 1.25 0.95 -0.10 1.55 -0.45 1.65 -1z m117.60 -0.35 c0 -0.25 -0.35 -1.10 -0.75 -1.90 -0.40 -0.75 -0.85 -2.05 -1.05 -2.90 l-0.40 -1.50 -0.30 2 c-0.35 2.25 0.60 4.75 1.75 4.75 0.40 0 0.75 -0.20 0.75 -0.45z m-139.80 -0.80 c-1.10 -0.80 -2.20 -0.95 -2.20 -0.30 0 0.45 1.05 0.90 2.45 1 0.50 0.05 0.45 -0.20 -0.25 -0.70z m8.85 -0.85 c0.80 -0.90 1.60 -2.05 1.75 -2.55 0.35 -1.10 -0.75 -2.50 -1.15 -1.50 -0.70 1.90 -2.25 3.10 -4.30 3.25 l-2.10 0.15 1.75 1.10 c0.95 0.65 1.95 1.15 2.15 1.15 0.20 0 1.05 -0.75 1.90 -1.60z m-52.90 -0.25 c0.25 -1.25 -0.25 -2.10 -1.20 -2.15 -0.50 0 -1.05 2.45 -0.70 3 0.60 0.95 1.65 0.45 1.90 -0.85z m76.70 0.55 l2.70 -0.35 -1.80 -1.75 -1.85 -1.80 -1.65 2 c-1.85 2.15 -2.20 2.95 -0.95 2.50 0.45 -0.15 2 -0.45 3.55 -0.60z m19.40 0.40 c-1 -0.90 -5.75 -2.60 -7.15 -2.60 -0.80 0 -2 0.45 -2.65 0.95 l-1.20 0.95 2.75 0.30 c1.50 0.15 3.45 0.40 4.25 0.45 3 0.40 4.45 0.35 4 -0.05z m24 -0.20 c3.35 -0.65 4.05 -1.50 1.45 -1.80 -1.45 -0.20 -7.05 1.20 -7.90 2 -0.75 0.60 2.75 0.50 6.45 -0.20z m30.25 -1.70 c0 -0.70 -0.35 -1.95 -0.80 -2.80 l-0.80 -1.60 -0.95 2.45 c-0.95 2.55 -0.85 3 0.80 3.35 1.40 0.30 1.75 0.05 1.75 -1.40z m6.25 1.30 c0.30 -0.45 2.55 -1.60 4.30 -2.15 0.75 -0.25 1.80 -3.65 1.30 -4.20 -0.15 -0.10 -0.80 0.75 -1.45 1.95 -1.15 2.10 -1.25 2.15 -3.55 2.05 -2.40 -0.05 -2.75 0.25 -2.05 2.05 0.35 0.90 1 1.05 1.45 0.30z m13.75 -1.35 c0 -0.90 -1.85 -0.80 -2.20 0.15 -0.55 1.40 -0.30 1.70 0.95 1.10 0.70 -0.30 1.25 -0.85 1.25 -1.25z m-147 -1.10 c0 -1.65 -0.30 -2.80 -1 -3.70 -1.30 -1.65 -1.75 -3.95 -1.10 -5.85 0.70 -1.95 0.10 -1.95 -1.05 0 -0.50 0.85 -1.10 1.50 -1.40 1.50 -0.90 0 -0.45 1.45 0.55 1.75 1.40 0.45 2.30 2.45 2.70 5.90 0.45 3.50 1.30 3.75 1.30 0.40z m83.50 1.65 c0 -0.45 -0.35 -0.70 -0.85 -0.60 -1.25 0.25 -1.40 1.40 -0.20 1.40 0.60 0 1.05 -0.30 1.05 -0.80z m28.80 0.10 c1.40 -1.05 0.55 -1.50 -1.65 -0.75 -1.60 0.50 -1.75 0.65 -0.90 1 1.40 0.55 1.45 0.55 2.55 -0.25z m-123.75 -1.25 c0.35 -0.90 0.30 -1.10 -0.45 -0.95 -0.45 0.10 -0.95 0.70 -1 1.35 -0.25 1.50 0.90 1.20 1.45 -0.40z m49.85 1.15 c1.60 -0.45 1.35 -1.60 -0.60 -2.40 -2 -0.85 -2.55 -2.10 -1.90 -4.50 0.55 -2 0.40 -2.30 -1.25 -2.30 -1.35 0 -1.40 0.40 -0.40 2.85 0.40 0.95 0.75 2.70 0.75 3.90 0 2.80 0.55 3.20 3.40 2.45z m104.40 -2.45 c1.05 -2.25 1.15 -2.95 0.70 -3.50 -1 -1.20 -1.25 -0.90 -1.90 2.15 -1.05 5.05 -0.75 5.40 1.20 1.35z m13 -1.65 c0.40 -3.50 -0.25 -5.10 -2.05 -5.10 -1.55 0 -1.60 1.05 -0.25 4.25 0.55 1.30 1 3.05 1 3.90 0.05 2.60 0.95 0.45 1.30 -3.05z m-77.30 2.65 c2.90 -1.50 1.30 -2.40 -3.75 -2.15 -1.60 0.10 -3 0.40 -3.10 0.70 -0.10 0.30 0.90 0.90 2.20 1.35 3.05 1 2.90 1 4.65 0.10z m-30.80 -0.50 c0.40 -0.45 1.15 -1.45 1.60 -2.25 0.50 -0.75 1.40 -1.65 2.05 -1.95 0.70 -0.30 1.15 -0.85 1.05 -1.15 -0.40 -1.20 -1.20 -0.80 -2.80 1.35 -2 2.75 -3.85 3.40 -5.10 1.75 -1.10 -1.45 -1.65 -0.60 -0.85 1.45 0.45 1.20 0.85 1.55 1.90 1.55 0.75 0 1.70 -0.35 2.15 -0.75z m42.55 0.25 c0.20 -0.30 -0.45 -0.50 -1.60 -0.50 -1.40 0 -1.70 0.15 -1.15 0.50 1 0.65 2.35 0.65 2.75 0z m15.50 -0.60 c0.15 -0.65 0.55 -1.65 0.90 -2.30 0.45 -0.95 0.40 -1.25 -0.15 -1.60 -0.45 -0.25 -0.95 -0.25 -1.30 0.05 -0.90 0.75 -1.85 3.35 -1.50 4.20 0.40 1.15 1.70 0.90 2.05 -0.35z m-44.85 -0.40 l1.60 -1 -1.10 -1.75 c-0.65 -0.95 -1.30 -1.75 -1.50 -1.75 -0.20 0 -0.80 1.05 -1.40 2.35 -0.80 1.80 -0.90 2.40 -0.40 2.75 0.90 0.55 0.95 0.55 2.80 -0.60z m60.80 -0.60 c0.50 -1.45 -0.10 -4.15 -0.90 -4.15 -0.45 0 -1.80 3.90 -1.80 5.15 0 1.25 2.20 0.40 2.70 -1z m26.45 -0.40 c-0.15 -0.55 -0.45 -1 -0.65 -1 -0.25 0 -0.30 0.45 -0.15 1 0.15 0.55 0.45 1 0.65 1 0.25 0 0.30 -0.45 0.15 -1z m-47.20 -0.15 c0.90 -1.10 2.05 -4.80 1.75 -5.60 -0.35 -0.90 -1.40 -0.95 -2.75 -0.20 -0.95 0.50 -0.95 0.60 -0.25 1.70 0.90 1.40 1.05 3.05 0.30 3.50 -0.60 0.40 -0.65 1.25 -0.05 1.25 0.25 0 0.70 -0.30 1 -0.65z m15.60 -0.65 c0.65 -1.80 0.25 -2.05 -1.80 -1.05 -2.35 1.15 -2.30 2.35 0.10 2.35 0.80 0 1.35 -0.40 1.70 -1.30z m-108.55 -0.70 c0 -0.30 0.45 -1.45 0.95 -2.65 0.95 -2.05 1.80 -5.85 1.35 -5.85 -0.90 0 -6.25 2.35 -7.05 3.10 -1.10 1 -0.75 1.10 1.60 0.45 3.90 -1.10 4.90 0.65 2.10 3.65 -1.30 1.45 -1.75 2.30 -1.35 2.45 0.80 0.25 2.40 -0.50 2.40 -1.15z m-30.65 0.30 c-0.15 -0.40 -0.45 -1.55 -0.65 -2.50 -0.15 -1.05 -0.60 -1.80 -1 -1.80 -1 0 -0.90 2.95 0.15 4.10 0.95 1.05 1.85 1.20 1.50 0.20z m153.45 -0.55 c0.45 -0.70 0.75 -1.35 0.65 -1.45 -0.10 -0.10 -1.05 -0.05 -2.10 0.15 -1.85 0.30 -1.85 0.35 -1.10 1.45 1.05 1.40 1.55 1.40 2.55 -0.15z m-105.70 -0.50 c0 -0.25 -0.25 -0.55 -0.55 -0.65 -0.30 -0.10 -0.55 0.20 -0.55 0.65 0 0.45 0.25 0.75 0.55 0.65 0.30 -0.10 0.55 -0.40 0.55 -0.65z m16.10 -1.25 c1.60 -2.45 1.65 -3 0.05 -3 -1.35 0 -1.50 0.20 -2 3.15 -0.40 2.40 0.30 2.35 1.95 -0.15z m29.05 1.25 c1.10 -0.40 3 -0.70 4.15 -0.75 1.50 0 2.10 -0.20 1.95 -0.60 -0.10 -0.45 -1.05 -0.60 -2.65 -0.55 -1.35 0.05 -3.90 0.15 -5.70 0.25 -3.20 0.15 -3.25 0.15 -3.40 -1.20 -0.10 -0.80 0.45 -2.40 1.35 -4 2.80 -4.95 1.90 -5.70 -2.15 -1.90 l-2.65 2.50 1.15 2.40 c1.40 2.80 3.35 4.60 4.85 4.60 0.60 0 2 -0.35 3.10 -0.75z m22.65 -0.65 c-0.80 -0.10 -2 -0.10 -2.75 0 l-1.40 0.20 1.25 0.55 c0.90 0.35 1.70 0.35 2.75 -0.05 l1.50 -0.55 -1.35 -0.15z m-35.40 -3 c0 -0.40 -0.45 -0.60 -1.10 -0.50 -1.20 0.15 -1.80 2.15 -1.15 3.80 0.25 0.70 0.50 0.50 1.25 -0.90 0.55 -0.95 0.95 -2.05 1 -2.40z m-75.60 2.05 c0.10 -0.60 -0.25 -1.85 -0.70 -2.75 l-0.90 -1.65 -0.35 2.25 c-0.15 1.25 -0.20 2.55 -0.05 2.90 0.35 1 1.85 0.45 2 -0.75z m168.10 0.40 c0 -0.45 -1.35 -2.05 -1.75 -2.05 -0.10 0 0.10 0.55 0.40 1.25 0.60 1.25 1.35 1.70 1.35 0.80z m-160.05 -1.25 c0.45 -0.55 0.30 -0.90 -0.75 -1.75 -1.20 -0.95 -2.20 -1.35 -2.20 -0.85 0 0.05 0.25 0.85 0.55 1.75 0.60 1.65 1.45 2 2.40 0.85z m118.55 -0.50 c0 -0.70 -1.80 -2.30 -2.60 -2.30 -0.85 0 -0.35 1.50 0.70 2.20 1.40 1 1.90 1 1.90 0.10z m4 -1.05 c0.65 -1.65 0.20 -2.60 -1.30 -2.90 -1.40 -0.25 -1.50 0.05 -0.45 1.45 0.40 0.50 0.75 1.35 0.75 1.85 0 1.20 0.45 1.05 1 -0.40z m4.35 0.10 c-0.30 -1 -1.35 -0.95 -1.35 0.10 0 0.70 0.25 0.95 0.75 0.70 0.45 -0.15 0.70 -0.50 0.60 -0.80z m-94.35 -1.90 c0.55 -1.05 0.80 -1.95 0.55 -1.95 -0.75 0 -2.55 2.55 -2.55 3.60 0 1.35 0.85 0.65 2 -1.65z m122.50 2.10 c0 -0.25 -0.35 -0.70 -0.75 -1.05 -0.80 -0.70 -0.90 -0.50 -0.45 0.70 0.30 0.85 1.20 1.10 1.20 0.35z m-11 -1.05 c0 -0.25 -0.35 -0.50 -0.75 -0.50 -0.40 0 -0.75 0.25 -0.75 0.50 0 0.30 0.35 0.50 0.75 0.50 0.40 0 0.75 -0.20 0.75 -0.50z m-105 -1.10 c0 -0.35 0.50 -1.10 1.10 -1.75 1.20 -1.30 1.15 -1.45 -0.65 -1.90 -1.15 -0.30 -1.35 -0.15 -1.55 0.95 -0.35 1.70 0.10 3.85 0.65 3.50 0.25 -0.15 0.45 -0.50 0.45 -0.80z m-35.05 -0.10 c0.45 -0.55 0.25 -0.75 -1.10 -1 -2.35 -0.45 -3.40 -1.80 -3.90 -4.90 -0.45 -2.85 -1 -3.70 -2.15 -3.25 -2.15 0.85 0.10 5.60 3.90 8.35 2.30 1.70 2.45 1.75 3.25 0.80z m96.05 0.45 c0 -1 -1.80 -2.75 -2.80 -2.75 -1.65 0 -1.50 0.85 0.45 2 1.60 1 2.35 1.25 2.35 0.75z m-116 -2 c0 -0.95 -0.20 -1.75 -0.50 -1.75 -0.25 0 -0.50 0.80 -0.50 1.75 0 0.95 0.25 1.75 0.50 1.75 0.30 0 0.50 -0.80 0.50 -1.75z m119.45 -0.75 c-2.10 -1.95 -3.15 -2.25 -2.15 -0.60 0.40 0.65 3.45 2.60 4.10 2.60 0.10 0 -0.80 -0.90 -1.95 -2z m28.25 -6.45 c-0.15 -0.15 -0.50 0.10 -0.75 0.55 -1.30 2.35 -3.10 3.90 -4.50 3.90 -1.85 0 -1.85 0.60 0.10 2.15 l1.55 1.20 1.95 -3.75 c1.05 -2.10 1.80 -3.90 1.65 -4.05z m-142.20 5.95 c0 -1.15 0.30 -1.65 1.25 -2.10 1.65 -0.75 1.55 -1 -0.50 -2 -1.70 -0.85 -1.70 -0.85 -2.75 0.45 -0.60 0.80 -1 2.05 -1 3.20 0 1.85 0.10 1.95 1.50 1.95 1.35 0 1.50 -0.15 1.50 -1.50z m38.50 1.05 c0 -0.25 -0.35 -0.70 -0.75 -1.05 -0.40 -0.35 -0.75 -1.25 -0.75 -2.05 0 -1.80 -0.85 -1.85 -1.60 -0.15 -0.55 1.20 -0.45 1.45 0.75 2.50 1.45 1.25 2.35 1.55 2.35 0.75z m22 0.10 c0 -0.25 -0.20 -0.70 -0.45 -1.10 -0.40 -0.60 -0.60 -0.60 -1.25 -0.10 -1.15 0.95 -1 1.55 0.45 1.55 0.70 0 1.25 -0.15 1.25 -0.35z m38.20 -0.90 c-1.75 -1.05 -6.60 -2.55 -6.95 -2.15 -0.05 0.10 -0.30 0.70 -0.50 1.35 -0.30 1.05 -0.25 1.15 0.55 0.85 2.10 -0.85 4 -0.80 5.95 0.15 2.85 1.35 3.40 1.25 0.95 -0.20z m56.25 0.25 c1.75 0 1.90 -0.30 0.75 -1.95 l-0.80 -1.15 -1.70 1.65 c-1.90 1.80 -2.25 2.75 -0.75 1.95 0.55 -0.25 1.65 -0.50 2.50 -0.50z m-82.45 -0.50 c0 -0.75 -0.35 -1 -1.45 -1 -1.75 0 -2.30 -0.70 -2.15 -2.60 0.10 -1.10 -0.15 -1.45 -1.15 -1.70 -1.70 -0.40 -2.75 0.05 -2.75 1.30 0 0.70 0.80 1.40 2.95 2.50 1.65 0.80 3.10 1.70 3.30 2 0.50 0.85 1.25 0.55 1.25 -0.50z m-49.75 -0.65 c-0.20 -0.75 0.05 -1.60 0.80 -2.55 0.85 -1.05 1.10 -2.15 1.20 -4.40 l0.05 -3 -1.65 3.25 c-0.90 1.80 -1.85 3.40 -2.15 3.60 -0.80 0.50 -0.60 1.65 0.65 2.95 1.40 1.50 1.45 1.55 1.10 0.15z m54.80 -0.80 c0.65 -0.55 1.05 -1.15 0.85 -1.35 -0.60 -0.55 -2.90 0.65 -2.90 1.55 0 1 0.65 0.95 2.05 -0.20z m41.35 -0.60 c0.35 -0.60 0.55 -1.15 0.40 -1.30 -0.35 -0.35 -3.30 0.85 -3.30 1.35 0 1.35 2.05 1.30 2.90 -0.05z m7.90 0.25 c-0.15 -0.45 -0.30 -1.15 -0.30 -1.60 0 -0.75 -0.10 -0.75 -0.50 -0.10 -0.75 1.15 -0.60 2.50 0.30 2.50 0.55 0 0.70 -0.25 0.50 -0.80z m34.50 -0.45 c0.45 -0.70 0.70 -1.40 0.55 -1.60 -0.50 -0.45 -2.85 1.30 -2.85 2.10 0 1.20 1.40 0.85 2.30 -0.50z m-144.45 -0.10 c0.15 -0.35 -0.15 -0.45 -0.80 -0.30 -0.60 0.15 -1.05 0.50 -1.05 0.75 0 0.65 1.60 0.30 1.85 -0.45z m39.45 0.10 c0.20 -0.50 -0.50 -1.55 -1.95 -2.90 l-2.25 -2.10 -1.30 1.35 c-0.70 0.75 -1.30 1.45 -1.30 1.55 0 0.15 0.90 0.40 2.05 0.60 1.15 0.20 2.40 0.80 2.85 1.30 1 1.15 1.55 1.20 1.90 0.20z m-14.25 -2.10 c-0.45 -0.80 -0.50 -0.75 -0.55 0.40 0 0.70 0.15 1.45 0.40 1.65 0.60 0.60 0.70 -1.10 0.15 -2.05z m44.90 -1.15 c1.70 0 2 -0.75 0.85 -2.30 -0.70 -0.95 -0.75 -0.90 -2.15 0.35 -0.75 0.75 -1.90 1.60 -2.50 1.90 -0.80 0.40 -1.15 1.05 -1.15 2 l0 1.45 1.70 -1.70 c1.20 -1.20 2.15 -1.70 3.25 -1.70z m21.60 2.50 c1.50 -0.85 1.20 -2 -0.55 -2 -1.10 0 -1.50 0.25 -1.50 0.90 0 1.60 0.55 1.85 2.05 1.10z m39.95 -3.60 c0 -0.20 -0.60 -0.40 -1.40 -0.40 -1.20 0 -1.45 0.25 -1.90 2.25 l-0.50 2.30 1.90 -1.90 c1.05 -1 1.90 -2.05 1.90 -2.25z m20.50 2.75 c0 -1.25 -0.05 -1.30 -0.80 -0.55 -0.45 0.45 -0.65 1.05 -0.50 1.35 0.65 1 1.30 0.55 1.30 -0.80z m-136.30 -0.45 c0.20 -0.50 0.05 -0.70 -0.30 -0.60 -0.75 0.25 -1.15 1.40 -0.50 1.40 0.25 0 0.65 -0.35 0.80 -0.80z m104.40 0 c0.25 -0.20 -0.90 -3.95 -1.45 -4.65 -0.40 -0.60 -1.65 1.25 -1.65 2.50 0 1.70 2.10 3.15 3.10 2.15z m-41.85 -1.45 c-2.75 -2.30 -4.90 -2.25 -2.75 0 0.75 0.80 1.70 1.25 2.70 1.25 l1.55 -0.05 -1.50 -1.20z m58.25 -0.35 c0 -0.80 -0.15 -0.95 -0.55 -0.55 -0.30 0.30 -0.40 0.80 -0.25 1.10 0.55 0.85 0.80 0.65 0.80 -0.55z m-106.35 -0.70 c0.90 -1.20 0.90 -1.25 -0.25 -2.20 -1.45 -1.20 -1.55 -1.20 -2.60 -0.10 -0.75 0.90 -0.75 1.05 0.25 2.25 1.25 1.65 1.45 1.65 2.60 0.05z m11.70 -0.20 c-0.55 -1.45 -1.85 -2.10 -1.85 -0.90 0 0.65 1.45 2.40 2.05 2.40 0.20 0 0.10 -0.65 -0.20 -1.50z m100.65 0.75 c1.75 -0.90 1.80 -1.10 0.65 -2.35 -1.10 -1.25 -1.45 -1.15 -2.10 0.65 -0.95 2.70 -0.80 2.85 1.45 1.70z m-155 -1.70 c0.35 -0.70 0.10 -0.80 -1.55 -0.65 -2.20 0.25 -2.30 0.40 -1.10 1.70 0.85 0.95 1.75 0.60 2.65 -1.05z m12 0.85 c0 -0.95 -0.10 -1 -0.50 -0.40 -0.65 0.95 -0.65 1.50 0 1.50 0.30 0 0.50 -0.50 0.50 -1.10z m13.90 -0.55 c1.40 -1.45 1.55 -1.80 0.90 -2.30 -0.40 -0.35 -0.80 -1.10 -0.90 -1.70 -0.10 -0.60 -0.35 -1 -0.65 -0.85 -1.15 0.50 -2.40 6.50 -1.35 6.50 0.20 0 1.15 -0.75 2 -1.65z m-17.95 -0.90 c-1.45 -0.90 -2 -0.50 -1.15 0.85 0.80 1.15 0.90 1.20 1.35 0.45 0.30 -0.60 0.25 -1 -0.20 -1.30z m117.85 0.80 c1.20 -1.80 0.70 -1.90 -1.30 -0.20 -1.55 1.30 -1.60 1.45 -0.60 1.45 0.60 0 1.45 -0.55 1.90 -1.25z m-60 -2.30 l-0.05 -2.50 -1.35 1.55 c-0.80 0.80 -1.40 1.70 -1.40 1.95 0 0.25 0.60 0.70 1.40 0.95 0.75 0.30 1.35 0.55 1.40 0.55 0 0.05 0 -1.10 0 -2.50z m31.20 0.85 c0 -1.65 -1 -2.65 -2.05 -2 -0.70 0.40 -0.55 2.05 0.35 2.90 1.20 1.25 1.70 0.95 1.70 -0.90z m10.85 0.35 c0.15 -0.35 0.15 -0.85 -0.05 -1 -0.40 -0.40 -4.35 1.40 -4.05 1.80 0.35 0.60 3.80 -0.05 4.10 -0.80z m56.95 0.75 c0.20 -0.35 0.35 -1.40 0.30 -2.45 -0.10 -1 0.10 -2.45 0.40 -3.20 0.65 -1.70 -0.45 -3.75 -2.10 -3.75 -1 0 -1 0.05 -0.15 0.95 0.70 0.85 0.85 1.70 0.70 5 -0.20 3.85 0.05 4.80 0.85 3.45z m-148.20 -2.05 l0.90 -2.10 -1.25 1.40 c-0.70 0.75 -1.25 1.75 -1.25 2.15 0 1.35 0.75 0.70 1.60 -1.45z m155.90 1.70 c0 -0.25 -0.60 -0.70 -1.35 -0.95 -0.80 -0.25 -1.80 -0.65 -2.25 -0.85 -0.75 -0.30 -0.90 -0.10 -0.90 0.95 0 1.20 0.15 1.30 2.25 1.30 1.25 0 2.25 -0.20 2.25 -0.45z m17 0 c0 -0.55 -1.55 -1.20 -1.95 -0.80 -0.15 0.15 0.05 0.50 0.45 0.75 0.95 0.60 1.50 0.60 1.50 0.05z m-113.40 -0.45 c0.10 -0.20 0.90 -0.90 1.80 -1.55 0.85 -0.60 1.60 -1.35 1.60 -1.60 0 -0.55 -4.45 2.60 -4.50 3.20 0 0.45 0.85 0.45 1.10 -0.05z m44.05 -2.85 c0.75 -1.55 1.35 -2.95 1.35 -3.20 0 -0.40 -2.20 -1.55 -3 -1.55 -0.30 0 -0.50 0.40 -0.50 0.90 0 0.45 -0.65 2 -1.45 3.45 -1.25 2.25 -1.30 2.65 -0.60 2.80 2.35 0.65 2.85 0.35 4.20 -2.40z m-72.15 1.75 c0 -0.25 -0.40 -1.25 -0.85 -2.25 -0.80 -1.70 -0.80 -1.80 0.35 -3.35 0.95 -1.25 1 -1.50 0.30 -1.25 -0.50 0.20 -1.05 0.35 -1.30 0.35 -0.60 0 -2.15 5.20 -1.60 5.40 0.25 0.05 0.90 0.45 1.40 0.85 1.10 0.85 1.70 0.95 1.70 0.25z m23.10 -0.35 c0.45 -0.50 0.95 -1.45 1.15 -2.15 0.20 -0.70 1 -2.30 1.80 -3.55 1.85 -2.90 1.80 -3.20 -0.10 -2.10 -1.50 0.90 -1.55 0.90 -2.45 -0.20 l-0.90 -1.15 0.25 2 c0.20 1.50 -0.05 2.55 -1.05 4.50 -0.75 1.40 -1.20 2.75 -1.05 3 0.45 0.75 1.50 0.60 2.35 -0.35z m107.65 -0.90 c0 -0.65 -0.50 -1.05 -1.70 -1.35 -1.90 -0.50 -1.90 -0.50 -2.15 0.80 -0.10 0.70 0.20 1.10 1.10 1.35 1.85 0.55 2.75 0.30 2.75 -0.80z m-181 -1.10 c-0.20 -1.05 -0.55 -3 -0.75 -4.40 -0.45 -3.10 -0.60 -2.60 -0.70 2.35 -0.05 3.50 0.05 3.90 0.90 3.90 0.80 0 0.90 -0.25 0.55 -1.85z m35.90 0.35 c-0.35 -1.35 -1.05 -1.70 -1.90 -1 -1.05 0.85 -0.95 1.25 0.40 1.85 1.40 0.65 1.85 0.40 1.50 -0.85z m52.10 -0.50 c-1.60 -1.65 -2.25 -1.90 -2.25 -0.75 0 0.40 0.60 1.05 1.40 1.45 2.10 1.20 2.40 0.95 0.85 -0.70z m39.25 -0.30 c0 -0.40 -0.20 -0.70 -0.50 -0.70 -0.25 0 -0.50 0.20 -0.50 0.45 0 0.25 -0.15 0.90 -0.35 1.40 -0.30 0.80 -0.25 0.80 0.50 0.20 0.45 -0.35 0.85 -1 0.85 -1.35z m35.20 0.70 c0.50 -1.95 0.35 -2.20 -0.45 -0.70 -0.85 1.65 -0.90 1.80 -0.30 1.80 0.25 0 0.55 -0.50 0.75 -1.10z m-122.20 -0.10 c0 -0.35 -0.30 -0.95 -0.70 -1.25 -0.55 -0.45 -0.60 -0.30 -0.40 0.70 0.25 1.30 1.10 1.75 1.10 0.55z m16.90 -0.30 c0.05 -0.45 -0.35 -1.90 -0.95 -3.25 l-1.10 -2.50 -0.55 1.35 c-0.30 0.70 -0.95 1.75 -1.40 2.25 -0.80 0.90 -0.80 1.05 -0.10 2.10 0.95 1.30 3.85 1.35 4.10 0.05z m59.05 -1.25 c0 -0.25 -0.30 -0.05 -0.70 0.45 -0.40 0.55 -0.75 1.20 -0.75 1.50 0 0.25 0.35 0.05 0.75 -0.50 0.40 -0.50 0.70 -1.15 0.70 -1.45z m40 -2.45 c-2.60 -3.75 -3.70 -4.45 -5.35 -3.40 -0.40 0.30 -0.15 0.75 1 1.60 0.90 0.65 2.75 2.40 4.15 3.90 1.35 1.50 2.55 2.50 2.65 2.20 0.10 -0.30 -1.05 -2.25 -2.45 -4.30z m18.55 3.80 c0 -0.50 0.35 -1.40 0.80 -2 0.95 -1.40 0.25 -1.40 -2 0.05 -2.10 1.30 -2.15 1.55 -0.65 2.25 1.55 0.75 1.85 0.70 1.85 -0.30z m-31.80 -1.85 c-2.10 -2.55 -3.10 -2.95 -1.95 -0.75 0.60 1.15 2.70 2.85 3.65 3 0.10 0 -0.65 -1 -1.70 -2.25z m-129.80 1.15 c-0.35 -0.95 -1.90 -1.10 -1.90 -0.20 0 0.50 0.45 0.80 1.05 0.80 0.60 0 0.95 -0.25 0.85 -0.60z m31.30 -1.20 c0.40 -1.60 -0.40 -2.70 -2.05 -2.70 -1.35 0 -1.35 0 0.10 2.35 1.20 2 1.55 2.05 1.95 0.35z m17.75 -5.65 c0.75 -1.30 0.70 -1.40 -0.45 -1.70 -1.35 -0.35 -3.15 1.20 -3.10 2.70 0 0.65 0.55 2.35 1.15 3.70 l1.15 2.50 0.35 -3.10 c0.20 -1.70 0.60 -3.55 0.90 -4.10z m47.90 5.60 c0.15 -0.35 -0.55 -1.45 -1.50 -2.50 l-1.75 -1.90 -0.85 1.85 c-1.25 2.60 -0.75 3.50 1.85 3.30 1.15 -0.10 2.15 -0.40 2.25 -0.75z m42.15 0.45 c0 -0.80 -2.40 -2.70 -3.25 -2.50 -0.75 0.15 -0.75 0.30 0.25 1.55 1 1.25 3 1.90 3 0.95z m-21.50 -3.15 c-0.35 -0.80 -0.90 -1.45 -1.25 -1.45 -0.40 0 -1 -0.15 -1.45 -0.30 -1.35 -0.50 -0.90 0.65 1.10 2.80 2 2.25 2.75 1.75 1.60 -1.05z m-125.50 2.35 c0 -0.75 -1.20 -3.30 -1.55 -3.30 -0.50 0 -0.60 1.55 -0.15 2.70 0.25 0.65 1.70 1.20 1.70 0.60z m3.75 -2.25 c-0.15 -0.60 -0.65 -1.05 -1 -1.05 -0.55 0 -0.60 0.30 -0.15 1.55 0.60 1.70 1.70 1.25 1.15 -0.50z m56.35 0.80 c0.30 -1.40 -0.05 -2.45 -0.65 -2.05 -0.60 0.35 -0.60 3.20 0 3.20 0.25 0 0.55 -0.50 0.65 -1.15z m-35.65 -1.40 c1.20 -3.50 0.35 -3.95 -1.30 -0.70 -1.05 2.15 -1.05 2.25 -0.20 2.25 0.60 0 1.15 -0.55 1.50 -1.55z m56.50 -2.10 c0.20 -1.30 0.70 -2.65 1.05 -3.05 0.60 -0.75 0.30 -1.80 -0.50 -1.80 -0.40 0 -2 6.10 -2 7.55 0 1.45 1 -0.45 1.45 -2.70z m14.05 2.10 c0 -1.20 -1.15 -1.05 -1.40 0.20 -0.10 0.50 0.15 0.85 0.60 0.85 0.50 0 0.80 -0.45 0.80 -1.05z m13.40 -0.40 c0.50 -1.35 0.40 -1.45 -1.80 -2.45 -1.25 -0.60 -2.40 -1 -2.50 -0.90 -0.20 0.25 3.05 4.75 3.50 4.75 0.15 0.05 0.55 -0.60 0.80 -1.40z m59.30 0.65 c0.20 -0.55 -0.25 -0.95 -1.50 -1.50 -2.15 -0.90 -2.40 -0.80 -1.55 0.95 0.65 1.50 2.55 1.85 3.05 0.55z m-158.95 -1.30 c0.20 -0.90 0.85 -2.45 1.35 -3.55 0.55 -1.05 0.85 -2.05 0.65 -2.25 -0.20 -0.20 -0.50 -0.05 -0.60 0.30 -0.15 0.35 -1 1.80 -1.95 3.20 -1.35 1.95 -1.60 2.70 -1.15 3.20 0.90 1.10 1.35 0.85 1.70 -0.90z m124.45 0.35 c0.25 -0.95 0.65 -1.25 1.70 -1.25 0.75 0 1.65 0.25 2 0.60 0.30 0.30 0.70 0.45 0.90 0.30 0.15 -0.20 -0.55 -0.85 -1.65 -1.55 -1.05 -0.65 -2.20 -1.80 -2.60 -2.55 -0.40 -0.70 -0.85 -1.30 -1 -1.30 -0.15 0 -0.35 1.60 -0.45 3.50 -0.15 3.45 0.50 4.70 1.10 2.25z m20.80 0.80 c0 -0.30 -0.55 -1.15 -1.25 -1.90 l-1.30 -1.40 1.10 1.90 c1.05 1.85 1.45 2.25 1.45 1.40z m-67.10 -1.80 c-0.60 -1.35 -2.40 -1.75 -2.40 -0.50 0 0.75 1.30 1.70 2.35 1.75 0.50 0 0.50 -0.30 0.05 -1.25z m4.60 -2.40 c-0.20 -0.25 -0.80 -0.35 -1.35 -0.25 -0.90 0.15 -0.95 0.25 -0.25 1.90 l0.70 1.75 0.65 -1.50 c0.35 -0.85 0.45 -1.70 0.25 -1.90z m27.70 2.70 c0.45 -0.70 -0.20 -2.05 -0.95 -2.05 -1.05 0 -1.40 0.95 -0.75 1.75 0.70 0.85 1.30 0.95 1.70 0.30z m23.30 -0.05 c0 -0.25 -0.35 -0.50 -0.75 -0.50 -0.40 0 -0.75 0.25 -0.75 0.50 0 0.30 0.35 0.50 0.75 0.50 0.40 0 0.75 -0.20 0.75 -0.50z m-122.95 -5.95 c1.35 -1.70 1.30 -5.35 -0.05 -6.05 -1.10 -0.60 -1.65 -0.40 -3.40 1.15 l-1.10 1.05 1.50 0.60 c2.45 1.05 2.05 2.90 -1.25 5.95 -1.50 1.45 -2.75 2.75 -2.75 2.95 0 0.55 5.95 -4.20 7.05 -5.65z m137.95 5.80 c0 -0.10 -0.50 -0.60 -1.05 -1.15 -1.10 -0.95 -1.10 -0.95 -0.50 0.20 0.50 0.90 1.55 1.55 1.55 0.95z m-126.30 -2.10 c0.35 -1.45 0.35 -1.45 -0.65 -0.55 -0.80 0.75 -0.90 1.10 -0.50 1.65 0.70 0.80 0.70 0.80 1.15 -1.10z m12.50 1.30 c0.15 -0.20 -0.05 -0.85 -0.45 -1.35 -0.50 -0.75 -0.80 -0.80 -1.30 -0.35 -0.30 0.30 -0.45 0.95 -0.30 1.35 0.35 0.85 1.60 1.10 2.05 0.35z m55 -0.70 c0.60 -0.95 0.15 -1.60 -0.95 -1.20 -0.85 0.35 -1.05 2.55 -0.15 2.25 0.30 -0.10 0.80 -0.60 1.10 -1.05z m-60.70 -0.30 c1.25 -2.35 -0.10 -3.35 -2.40 -1.75 -1.40 1 -1.40 2.05 0.05 2.35 0.60 0.10 1.25 0.25 1.45 0.30 0.20 0 0.60 -0.40 0.90 -0.90z m-39.50 -0.05 c0 -0.25 -0.45 -0.50 -1.05 -0.50 -0.55 0 -0.85 0.25 -0.70 0.50 0.15 0.30 0.65 0.50 1.05 0.50 0.40 0 0.70 -0.20 0.70 -0.50z m49.50 -0.75 c0 -0.40 -0.20 -0.75 -0.50 -0.75 -0.25 0 -0.50 0.35 -0.50 0.75 0 0.40 0.25 0.75 0.50 0.75 0.30 0 0.50 -0.35 0.50 -0.75z m29.70 -0.80 c0.60 -3.05 0.20 -7.45 -0.70 -7.45 -0.60 0 -3 3.75 -3 4.70 0 0.50 0.55 1.35 1.25 1.90 0.70 0.55 1.25 1.30 1.25 1.70 0 1.35 0.85 0.70 1.20 -0.85z m52.30 0.85 c0 -0.60 -1.15 -3.30 -1.40 -3.30 -0.20 0 -0.75 0.35 -1.30 0.75 -1.40 1.05 -2.65 0.10 -3.45 -2.60 -0.40 -1.30 -0.95 -2.45 -1.25 -2.55 -0.85 -0.25 -0.70 0.85 0.40 3.15 1.40 2.95 2.65 4.15 4.55 4.40 0.95 0.10 1.85 0.25 2.10 0.25 0.20 0.05 0.35 0 0.35 -0.10z m-106.65 -1.15 c-0.45 -0.45 -1 -0.65 -1.20 -0.45 -0.20 0.20 -0.05 0.55 0.35 0.80 1.25 0.80 1.75 0.55 0.85 -0.35z m90.15 -1.40 c0 -1.65 -0.20 -2.25 -0.75 -2.25 -0.85 0 -1 0.80 -0.25 1.25 0.30 0.15 0.50 0.95 0.50 1.80 0 0.80 0.10 1.45 0.25 1.45 0.15 0 0.25 -1 0.25 -2.25z m-3.75 0.70 c0 -0.40 -0.60 -0.75 -1.35 -0.85 -1.55 -0.20 -1.85 0.60 -0.50 1.35 1.05 0.65 1.85 0.45 1.85 -0.50z m31.15 0.30 c0.50 -0.50 -0.40 -0.85 -2.75 -1.15 l-2.40 -0.25 1 1.10 c0.75 0.85 1.30 1.05 2.45 0.85 0.80 -0.20 1.60 -0.40 1.70 -0.55z m-72.65 -1.45 c0 -1.20 -0.30 -1.60 -1.60 -2.15 -1.60 -0.65 -1.65 -0.60 -1.65 0.65 0 1.95 0.90 3.30 2.15 3.10 0.85 -0.10 1.10 -0.50 1.10 -1.60z m-22.25 -4.80 c-1.90 -1.25 -4.20 1 -3.30 3.30 0.30 0.80 0.55 0.65 2.20 -0.95 1.55 -1.55 1.70 -1.95 1.10 -2.35z m-19.60 0.40 c0 -0.90 0.15 -2.40 0.35 -3.25 0.40 -1.95 0 -2.10 -1.30 -0.50 -0.65 0.75 -0.90 1.90 -0.95 3.75 0 2.45 0.05 2.60 0.95 2.10 0.65 -0.35 1 -1 0.95 -2.10z m64.60 2.10 c0 -0.25 -0.65 -0.35 -1.50 -0.20 -1 0.20 -1.95 0.05 -2.80 -0.55 -1.10 -0.70 -1.50 -0.75 -2.50 -0.25 -0.65 0.35 -1.05 0.85 -0.90 1.10 0.35 0.55 7.70 0.50 7.70 -0.10z m6.40 -0.75 c0.30 -0.70 0.80 -1.25 1.10 -1.25 0.25 0 0.50 -0.20 0.50 -0.50 0 -0.60 -2.85 -0.70 -3.15 -0.10 -0.35 0.50 0.20 3.10 0.65 3.10 0.20 0 0.60 -0.55 0.90 -1.25z m7.25 -0.45 c1.30 -1 1.05 -1.30 -1.25 -1.30 -2 0 -2.05 0 -1.15 1 1.05 1.15 1.20 1.20 2.40 0.30z m13.70 -1.15 c-0.45 -0.45 -0.85 -0.55 -1.05 -0.25 -0.15 0.30 0.10 0.90 0.55 1.40 0.60 0.60 0.90 0.65 1.05 0.20 0.10 -0.30 -0.10 -0.95 -0.55 -1.35z m-81.45 0.40 c1.55 -1.35 1.40 -1.55 -1.15 -1.55 -2.45 0 -2.50 0.05 -1.75 1.55 0.65 1.20 1.45 1.20 2.90 0z m46.10 -2.05 c0 -0.30 -0.30 -0.50 -0.70 -0.50 -0.40 0 -1.05 -0.15 -1.50 -0.30 -0.95 -0.35 -1.10 0.80 -0.20 1.70 0.60 0.60 2.40 -0.05 2.40 -0.90z m31.50 1 c0 -0.25 -0.30 -0.50 -0.70 -0.50 -0.40 0 -0.90 0.25 -1.05 0.50 -0.15 0.30 0.15 0.50 0.70 0.50 0.60 0 1.05 -0.20 1.05 -0.50z m15.25 -0.35 c-0.60 -1.40 -0.40 -2.70 0.60 -3.45 0.80 -0.60 0.75 -0.65 -0.65 -0.70 -1.80 0 -2.35 0.85 -1.90 2.90 0.45 1.85 0.65 2.10 1.55 2.10 0.55 0 0.65 -0.25 0.40 -0.85z m-81.55 -2.45 c0.55 -1.35 0.35 -1.85 -0.45 -1.20 -0.80 0.70 -1 2 -0.30 2 0.25 0 0.60 -0.35 0.75 -0.80z m56.55 0 c-2.70 -0.95 -7.75 -1.50 -7.75 -0.80 0 0.30 0.95 0.65 2.15 0.80 1.15 0.15 2.65 0.35 3.35 0.50 0.70 0.10 1.95 0.20 2.75 0.20 1.40 0.05 1.40 0 -0.50 -0.70z m-61.75 -1.30 c1.25 -2.10 1.25 -2.40 -0.10 -2.40 -1.40 0 -4.35 -1.70 -4.70 -2.75 -0.35 -0.80 -2.20 -1.05 -2.20 -0.30 0 0.30 0.70 0.90 1.50 1.40 1.45 0.85 1.75 1.45 1.55 3.35 -0.20 2.60 2.50 3.05 3.95 0.70z m18.80 0.85 c0.50 -0.40 0.70 -0.75 0.35 -0.75 -0.95 0 -2.15 0.55 -2.15 1.05 0 0.65 0.70 0.55 1.80 -0.30z m63.30 -1.50 c0.10 -0.55 0.90 -1.45 1.75 -2 1.95 -1.20 2 -1.45 0.45 -2.15 -1.25 -0.55 -2.30 0 -2.30 1.25 0 0.35 -0.45 0.85 -1 1.15 -1.10 0.60 -1.30 2 -0.40 2.90 0.70 0.70 1.25 0.30 1.50 -1.15z m-102.60 0.75 c0.40 -0.25 0.55 -0.60 0.35 -0.80 -0.20 -0.20 -0.75 0 -1.20 0.45 -0.90 0.90 -0.40 1.15 0.85 0.35z m11.95 -0.05 c0.85 -0.30 1.55 -0.75 1.55 -1 0 -0.40 -3.65 -2.95 -4.25 -2.95 -0.30 0 0.20 3.45 0.60 4.15 0.25 0.45 0.20 0.45 2.10 -0.20z m21.25 -0.90 c1.60 -1.70 1.45 -3.20 -0.25 -2.95 -1.40 0.20 -3.20 2.55 -2.80 3.60 0.45 1.20 1.50 0.95 3.05 -0.65z m41.35 -1.55 c0.50 0 1.05 -0.20 1.20 -0.50 0.80 -1.30 -3.50 0.50 -4.60 1.95 -1.20 1.55 -0.60 1.65 0.95 0.10 0.85 -0.85 2 -1.55 2.45 -1.55z m-8.55 1.60 c0 -0.50 -6.90 -2.35 -7.30 -1.95 -0.15 0.10 0.35 0.70 1.10 1.30 0.95 0.75 2.05 1.05 3.75 1.05 1.35 0 2.45 -0.20 2.45 -0.40z m24.95 -0.40 c0.10 -0.10 -1.45 -0.15 -3.50 -0.15 -2.60 0.05 -3.25 0.15 -2.20 0.40 1.40 0.35 5.25 0.15 5.70 -0.25z m-42.90 -1 c2.40 -0.40 2.55 -1.20 0.25 -1.20 -2.50 0 -4.30 -1.70 -4.65 -4.40 -0.30 -2.30 -1.25 -2.75 -2.15 -1.05 -0.50 0.85 -0.35 1.25 0.70 2.30 0.70 0.70 1.55 2.15 1.85 3.25 0.35 1.45 0.70 1.90 1.25 1.70 0.45 -0.15 1.65 -0.45 2.75 -0.60z m33.95 -0.20 c-1.95 -1.05 -3.25 -1.30 -2.75 -0.45 0.45 0.65 2.20 1.40 3.50 1.40 0.75 0 0.55 -0.25 -0.75 -0.95z m-53.50 -1.40 c0 -0.95 -0.90 -2.10 -1.60 -2.10 -0.50 0 -0.55 2.20 -0.05 2.65 0.65 0.70 1.65 0.35 1.65 -0.55z m11.90 0.05 c-0.10 -0.50 -0.60 -0.90 -1.15 -0.90 -0.55 0 -1.05 0.40 -1.15 0.90 -0.15 0.65 0.15 0.85 1.15 0.85 1 0 1.30 -0.20 1.15 -0.85z m30.95 -1 c1.05 -0.50 2.65 -1.50 3.55 -2.25 2 -1.70 3.45 -1.75 5.80 -0.15 1.15 0.80 1.80 1 1.80 0.55 0 -1.10 -2.30 -2.85 -4.15 -3.15 -1.50 -0.20 -2.10 -0.05 -3.35 1.05 -0.90 0.70 -2.15 1.30 -2.80 1.30 -1.60 0 -4.70 1.30 -4.70 1.95 0 0.40 1.30 1.45 1.85 1.55 0.05 0 0.95 -0.40 2 -0.85z m51.15 -2.45 c0 -1.25 -0.60 -1.40 -3 -0.75 l-1.25 0.35 1.15 0.60 c0.70 0.40 1.10 1.10 1.10 2 l0.05 1.35 0.95 -1.20 c0.55 -0.65 1 -1.70 1 -2.35z m-10.20 2 c0.90 -0.75 0.90 -0.75 -0.30 -0.50 -0.70 0.15 -1.65 0.30 -2.10 0.30 -0.50 0 -0.90 0.25 -0.90 0.50 0 0.80 2.20 0.60 3.30 -0.30z m-24.25 -2.55 c0.15 -1.15 0.60 -2.45 1 -2.95 0.65 -0.80 0.60 -0.85 -0.75 -0.50 -0.75 0.20 -2.05 0.50 -2.85 0.65 -0.80 0.15 -1.45 0.35 -1.45 0.40 0 0.05 0.45 1.20 1.05 2.45 1.30 3 2.55 3 3 -0.05z m-63.55 0.95 c0 -0.65 -0.60 -1.10 -1.10 -0.80 -0.50 0.30 -0.05 1.20 0.65 1.20 0.25 0 0.45 -0.20 0.45 -0.40z m70.25 -1.10 c-0.95 -1.05 -2.50 -1.30 -3 -0.50 -0.15 0.30 0.10 0.50 0.60 0.50 0.55 0 1.40 0.30 1.95 0.70 1.30 0.95 1.55 0.55 0.45 -0.70z m-44.25 -0.25 c0 -1.30 0.25 -1.40 4.35 -1.95 1.80 -0.25 2.20 -0.15 3.10 1.05 1.25 1.55 1.95 1.20 1.25 -0.75 -0.65 -1.90 -3.55 -2.10 -7.40 -0.40 -2.55 1.15 -3.35 2.10 -2.45 2.95 0.65 0.70 1.15 0.30 1.15 -0.90z m50 0.75 c0.65 -0.45 0.60 -0.65 -0.45 -1.50 -1.80 -1.55 -2.60 -1.35 -1.90 0.50 0.60 1.60 1.10 1.80 2.35 1z m-34.50 -0.75 c1.20 -0.65 1.20 -0.70 0.25 -1 -0.85 -0.30 -2.55 -1 -3.85 -1.65 -0.55 -0.25 -0.50 1.30 0.10 2.45 0.60 1.10 1.75 1.20 3.50 0.20z m-44.75 -0.30 c0.20 -0.30 0.85 -0.75 1.45 -1 0.85 -0.40 0.80 -0.40 -0.40 -0.20 -0.80 0.20 -1.95 0.65 -2.50 1.05 l-1 0.70 1.05 0 c0.60 0 1.25 -0.25 1.40 -0.55z m5.55 -1.20 c-1.10 -0.85 -1.80 -0.95 -1.80 -0.35 0 0.70 0.60 1.10 1.70 1.10 1.05 -0.05 1.05 -0.05 0.10 -0.75z m12.60 -1.25 c0.45 -0.80 1 -1.50 1.25 -1.50 0.20 0 0.35 -0.35 0.35 -0.75 0 -1.05 -1.45 -0.95 -3.40 0.25 -1.90 1.15 -2.55 2.40 -1.55 3.05 1.30 0.80 2.50 0.45 3.35 -1.05z"/>
  <path d="M190.50 335 c0.70 -0.20 1.80 -0.40 2.50 -0.40 l1.25 0 -1.25 0.40 c-0.70 0.20 -1.80 0.40 -2.50 0.40 l-1.25 0 1.25 -0.40z"/>
  <path d="M197.55 334.30 c0.35 -0.35 5.65 -2.30 5.80 -2.10 0.20 0.20 -4.80 2.30 -5.50 2.30 -0.30 0 -0.40 -0.10 -0.30 -0.20z"/>
  <path d="M179.75 331.70 c-1.35 -1.25 -2.05 -2.05 -1.50 -1.75 0.95 0.45 4.70 4.05 4.20 4.05 -0.10 0 -1.30 -1.05 -2.70 -2.30z"/>
  <path d="M185.50 333.05 c0.40 -0.30 1.40 -0.55 2.20 -0.55 1.95 0 1.55 0.30 -0.95 0.70 -1.45 0.25 -1.80 0.20 -1.25 -0.15z"/>
  <path d="M170.40 331.70 c-2.35 -1.20 -3.25 -2 -1.50 -1.35 1.15 0.45 4.10 2.20 4.10 2.45 0 0.30 0 0.30 -2.60 -1.10z"/>
  <path d="M197.50 332.20 c0 -0.30 4.60 -2.20 5.45 -2.20 0.60 0 0.65 -0.10 0.15 -0.45 -0.55 -0.35 -0.50 -0.50 0.15 -0.75 1.20 -0.45 2.85 -0.35 2.55 0.15 -0.55 0.85 -8.30 3.90 -8.30 3.25z"/>
  <path d="M197 330.30 c0.70 -0.45 1.60 -0.75 2 -0.75 0.65 0 0.65 0.05 0 0.40 -0.40 0.25 -1.30 0.60 -2 0.75 l-1.25 0.35 1.25 -0.75z"/>
  <path d="M169.75 327.75 c-0.80 -0.70 -1.25 -1.25 -1 -1.25 0.30 0.05 1.20 0.60 2 1.25 0.85 0.70 1.30 1.25 1 1.25 -0.25 -0.05 -1.15 -0.60 -2 -1.25z"/>
  <path d="M179.75 326.25 c-1.25 -0.60 -1.30 -0.70 -0.25 -0.45 1.40 0.35 3 1.15 2.25 1.15 -0.25 0 -1.15 -0.30 -2 -0.70z"/>
  <path d="M173.10 325.30 c-2.30 -1.65 -2.65 -2.15 -0.70 -1 0.95 0.50 1.90 1.25 2.20 1.60 0.75 0.85 0.40 0.70 -1.50 -0.60z"/>
  <path d="M153.45 321.35 c-2.45 -2.30 -1.80 -2 1.20 0.55 1.05 0.90 1.70 1.60 1.50 1.60 -0.20 0 -1.45 -0.95 -2.70 -2.15z"/>
  <path d="M158.65 320.20 c-1.20 -0.70 -2.15 -1.35 -2.15 -1.50 0 -0.30 3.35 1.65 4.25 2.40 0.85 0.75 0.05 0.40 -2.10 -0.90z"/>
  <path d="M162.25 320.60 c-0.25 -0.20 -1.50 -1.50 -2.75 -2.85 l-2.25 -2.50 2.90 2.75 c1.55 1.50 2.85 2.80 2.85 2.85 0 0.25 -0.20 0.15 -0.75 -0.25z"/>
  <path d="M147.50 313.45 c-1.80 -1.65 -2.80 -2.80 -2.25 -2.55 0.95 0.50 6.25 5.65 5.75 5.60 -0.15 -0.05 -1.70 -1.40 -3.50 -3.05z"/>
  <path d="M150.20 312.15 c-1.05 -1.35 -1.40 -1.95 -0.75 -1.40 1.20 1.05 3.30 3.75 2.90 3.75 -0.15 0 -1.10 -1.05 -2.15 -2.35z"/>
  <path d="M136.15 310.95 c-0.90 -0.60 -1.65 -1.15 -1.65 -1.25 0 -0.25 2.20 0.90 3.50 1.75 1.45 1 -0.25 0.50 -1.85 -0.50z"/>
  <path d="M138.35 307.45 l-2.10 -2.05 2.40 1.85 c1.30 1.05 2.35 1.95 2.35 2.05 0 0.55 -0.75 0 -2.65 -1.85z"/>
  <path d="M130.25 304.70 c-0.90 -0.80 -1.10 -1.10 -0.45 -0.75 0.90 0.45 2.65 2.10 2.15 2.05 -0.10 -0.05 -0.85 -0.60 -1.70 -1.30z"/>
  <path d="M133.35 303.55 c-2.05 -1.30 -2.30 -1.80 -0.50 -0.85 0.85 0.45 1.75 1 1.90 1.30 0.40 0.65 0.30 0.60 -1.40 -0.45z"/>
  <path d="M199.20 320.95 c-0.50 -1.15 -1.25 -2.40 -1.60 -2.80 -0.55 -0.55 -0.60 -1.05 -0.20 -2.30 0.35 -1.15 0.50 -1.30 0.55 -0.55 0.05 0.55 0.50 1.90 1 3 1.05 2.15 1.80 4.70 1.45 4.70 -0.15 0 -0.65 -0.95 -1.20 -2.05z"/>
  <path d="M202.50 321.15 c-0.35 -1.05 -1.05 -2.60 -1.55 -3.50 -0.85 -1.35 -1.85 -6.70 -1.65 -8.50 0.05 -0.35 0.10 -1.20 0.15 -1.90 0 -0.70 0.20 -1.25 0.45 -1.25 0.20 0 0.30 1.80 0.20 4 -0.15 2.70 -0.05 4 0.35 4 0.30 0 0.55 0.60 0.55 1.40 0 0.75 0.30 1.80 0.70 2.35 0.85 1.25 2 4.75 1.65 5.05 -0.15 0.15 -0.55 -0.60 -0.85 -1.65z"/>
  <path d="M205.25 321.50 c-0.45 -0.90 -0.70 -1.70 -0.60 -1.85 0.15 -0.10 0.60 0.50 1.05 1.40 0.45 0.90 0.70 1.70 0.60 1.85 -0.15 0.10 -0.60 -0.50 -1.05 -1.40z"/>
  <path d="M186.30 320.50 c-0.70 -1.10 -1.10 -2 -0.80 -2 0.25 0 0.95 0.90 1.50 2 0.55 1.10 0.95 2 0.85 2 -0.15 0 -0.80 -0.90 -1.55 -2z"/>
  <path d="M184.05 319.90 c-0.60 -1.10 -0.90 -1.85 -0.60 -1.70 0.60 0.40 2.20 3.30 1.95 3.55 -0.10 0.10 -0.70 -0.75 -1.35 -1.85z"/>
  <path d="M214.75 319.45 c-0.45 -0.85 -0.75 -1.65 -0.65 -1.75 0.15 -0.10 0.60 0.60 1.05 1.55 1.05 2.15 0.65 2.35 -0.40 0.20z"/>
  <path d="M188.35 319.25 c-1.90 -1.35 -2.25 -1.95 -1.30 -2.55 0.60 -0.35 0.40 -2.45 -0.45 -5 -0.30 -0.90 -0.30 -1.85 -0.05 -2.25 0.30 -0.50 0.45 -0.20 0.45 0.90 0 0.85 0.25 1.75 0.50 1.90 0.30 0.20 0.50 -1.55 0.50 -4.85 0 -2.85 0.25 -5.50 0.55 -5.90 0.35 -0.55 0.45 0.85 0.25 4.75 -0.10 3.05 -0.05 4.70 0.15 3.75 0.20 -0.95 0.60 -2.20 0.95 -2.75 0.55 -0.95 0.55 -0.95 0.55 0.25 0 0.70 -0.30 2.60 -0.70 4.20 -0.40 1.60 -0.60 3.65 -0.45 4.50 0.10 0.85 0.10 1.25 -0.10 0.95 -0.15 -0.35 -0.50 -0.65 -0.75 -0.65 -0.55 0 -0.60 2 -0.05 2 0.55 0.05 2.90 2 2.35 2 -0.30 0 -1.35 -0.55 -2.40 -1.25z"/>
  <path d="M179.75 316.15 c-0.50 -1.85 -1.10 -3.60 -1.35 -3.85 -0.20 -0.30 -0.40 -1 -0.40 -1.60 0 -0.65 -0.20 -1.30 -0.50 -1.45 -0.70 -0.45 -0.60 2.35 0.20 6.25 0.75 3.45 0.65 4.75 -0.10 1.95 -0.25 -0.95 -0.70 -1.65 -1.05 -1.55 -0.30 0.05 -0.55 -0.40 -0.55 -1 0 -0.65 -0.45 -2.15 -1 -3.40 -0.55 -1.25 -0.70 -1.85 -0.35 -1.35 1.75 2.70 1.80 2.70 1.85 0.60 0 -1.15 0.25 -2.30 0.60 -2.65 0.35 -0.35 0.60 -2.25 0.60 -4.95 0 -2.45 0.10 -3.65 0.20 -2.70 0.15 1.35 0.30 1.55 0.70 1 0.40 -0.55 0.45 -0.55 0.25 0.15 -0.65 1.90 -0.95 7.15 -0.45 6.65 0.30 -0.25 0.65 -1.15 0.75 -2 0.15 -0.80 0.20 -0.35 0.15 1 -0.05 1.40 0.30 4.60 0.80 7.20 0.50 2.60 0.80 4.80 0.70 4.90 -0.10 0.10 -0.60 -1.35 -1.05 -3.20z"/>
  <path d="M172.75 318 c-0.20 -0.55 -0.90 -1.75 -1.65 -2.65 -1.15 -1.35 -1.15 -1.45 -0.15 -0.60 l1.15 1 -0.30 -2.50 -0.35 -2.50 0.75 1.65 c0.85 1.85 1.45 2.10 1.05 0.50 -0.10 -0.65 -0.35 -2.05 -0.45 -3.15 -0.10 -1.10 -0.35 -2.90 -0.50 -4 l-0.35 -2 0.80 1.70 c0.40 0.95 0.90 2.75 1 4 0.15 1.25 0.40 3.15 0.55 4.20 0.25 1.55 0.15 1.80 -0.50 1.55 -0.55 -0.20 -0.80 0 -0.80 0.70 0 0.60 0.25 1.20 0.50 1.35 0.65 0.40 0.65 1.75 0.05 1.75 -0.25 0 -0.65 -0.45 -0.80 -1z"/>
  <path d="M219.40 317.50 c-0.15 -0.80 -0.05 -1.65 0.20 -1.90 0.20 -0.20 0.25 -1.55 0.05 -3 -0.25 -2.10 -0.40 -2.50 -0.95 -2.05 -0.60 0.45 -0.70 0.10 -0.70 -2.05 0 -2.20 0.10 -2.55 0.70 -2.05 0.60 0.50 0.75 0.40 0.90 -0.55 0.15 -0.75 0.45 -0.15 0.85 1.85 0.50 2.25 0.55 3.75 0.20 6 -0.30 1.70 -0.35 3.35 -0.10 3.85 0.30 0.55 0.20 0.90 -0.25 1.05 -0.45 0.20 -0.75 -0.20 -0.90 -1.15z"/>
  <path d="M205.10 315.50 c0 -1.80 0.20 -3.90 0.40 -4.75 0.30 -1.15 0.40 -0.70 0.40 1.75 0 1.80 -0.20 3.95 -0.40 4.75 -0.30 1.15 -0.40 0.70 -0.40 -1.75z"/>
  <path d="M182.65 316.90 c-1.20 -0.60 -1.50 -2.10 -0.65 -3.40 0.40 -0.60 0.50 -0.45 0.50 0.65 0 0.75 0.20 1.35 0.40 1.35 0.25 0 0.65 -0.60 1 -1.35 0.50 -1.20 0.50 -1.25 0.25 -0.15 -0.20 0.70 -0.35 1.75 -0.40 2.40 0 0.60 0 1.10 0 1.05 0 0 -0.50 -0.25 -1.10 -0.55z"/>
  <path d="M211.80 316.45 c-1 -3.05 -1.80 -6.60 -1.75 -7.80 0.05 -1.30 0.10 -1.30 0.45 0.35 0.20 0.95 0.75 3.10 1.20 4.70 0.45 1.65 0.70 3.10 0.55 3.20 -0.10 0.15 -0.35 -0.05 -0.45 -0.45z"/>
  <path d="M214.10 313.50 c-0.60 -1.05 -1.10 -2.60 -1.15 -3.35 0 -1.25 -0.05 -1.30 -0.45 -0.40 -0.40 0.90 -0.45 0.85 -0.45 -0.35 -0.10 -3.10 2.05 -0.70 2.95 3.30 0.30 1.35 0.45 2.50 0.40 2.60 -0.10 0.05 -0.65 -0.75 -1.30 -1.80z"/>
  <path d="M201.65 313.20 c-0.55 -1.65 -0.55 -3.35 -0.15 -5.45 0.05 -0.25 0.25 0.05 0.45 0.75 0.35 1.15 0.40 1.10 1.15 -1 1.15 -3.15 1.10 -0.85 0 3.95 l-0.85 3.75 -0.60 -2z"/>
  <path d="M208.80 312.70 c-0.15 -1.30 -0.20 -2.45 -0.10 -2.60 0.15 -0.10 0.40 0.85 0.55 2.15 0.20 1.25 0.25 2.40 0.15 2.55 -0.15 0.10 -0.40 -0.85 -0.60 -2.10z"/>
  <path d="M207.25 312.30 c-0.20 -1.25 -0.15 -2.85 0.10 -3.55 0.35 -1.05 0.45 -0.60 0.50 2.20 0.05 1.95 0 3.55 -0.10 3.55 -0.10 0 -0.35 -1 -0.50 -2.20z"/>
  <path d="M169 312.75 c-0.35 -0.40 -0.80 -0.65 -1 -0.50 -0.35 0.25 -1.05 -1.85 -2 -6.25 -0.45 -2.15 -0.70 -7.40 -0.30 -6.95 0.20 0.25 0.75 5.10 0.80 6.90 0 1 0.10 1.10 0.80 0.55 0.55 -0.50 0.70 -1.20 0.45 -2.70 -0.25 -1.55 -0.20 -1.85 0.25 -1.30 0.30 0.45 0.40 2 0.25 4 -0.25 2.65 -0.10 3.60 0.65 5.15 1.05 2 1.10 2.30 0.10 1.10z"/>
  <path d="M197.50 310.40 c0 -3.70 0.25 -3.65 0.70 0.25 0.25 1.90 0.20 2.85 -0.15 2.85 -0.35 0 -0.55 -1.20 -0.55 -3.10z"/>
  <path d="M229.75 311 c0.20 -1.55 0.10 -3.80 -0.25 -5.20 -0.70 -3.20 -0.35 -3.45 0.65 -0.45 0.60 1.90 0.65 2.95 0.25 5.15 -0.65 3.65 -1.10 3.95 -0.65 0.50z"/>
  <path d="M191.65 311.25 c0 -1.10 0.10 -1.50 0.20 -0.85 0.10 0.60 0.10 1.50 0 2 -0.15 0.45 -0.25 -0.05 -0.20 -1.15z"/>
  <path d="M163.40 310.35 c-0.30 -1.25 -0.75 -2.20 -1 -2.05 -0.50 0.30 -1.40 -1.95 -1.40 -3.60 0 -0.65 0.25 -1.20 0.55 -1.20 0.40 0 0.45 -0.60 0.20 -1.85 -0.55 -2.95 -0.75 -18.60 -0.20 -17.25 0.25 0.65 0.55 3.35 0.65 6 0.35 6.80 0.85 10.65 1.60 12.20 0.40 0.75 0.70 1.65 0.70 2 -0.05 0.35 -0.40 -0.15 -0.85 -1.10 l-0.80 -1.75 -0.50 1.95 c-0.35 1.40 -0.30 2 0.10 2.30 0.65 0.40 2.25 5.95 1.85 6.35 -0.15 0.15 -0.55 -0.75 -0.90 -2z"/>
  <path d="M165.75 311.50 c-0.20 -0.60 -0.25 -1.20 -0.10 -1.35 0.15 -0.10 0.40 0.25 0.60 0.85 0.20 0.60 0.25 1.20 0.10 1.35 -0.15 0.10 -0.40 -0.25 -0.60 -0.85z"/>
  <path d="M169.70 310.25 c-0.15 -0.70 -0.15 -2.05 0 -3 0.35 -1.70 -0.45 -5.50 -1.30 -6.45 -0.20 -0.30 -0.40 -2.10 -0.35 -4 0.05 -4.20 0.85 -3.15 0.95 1.20 0 1.85 0.35 3.15 0.95 3.95 0.75 0.95 0.80 1.60 0.45 3.75 -0.25 1.40 -0.30 3.30 -0.15 4.20 0.35 1.90 -0.10 2.15 -0.55 0.35z"/>
  <path d="M185.30 309.50 c0.40 -1.40 0.45 -5.45 0.05 -7.75 -0.75 -4.40 -0.90 -6 -0.35 -4.80 0.30 0.65 0.75 3.40 1.05 6.05 0.45 4.30 0.45 5.10 -0.30 6.35 -0.75 1.30 -0.80 1.30 -0.45 0.15z"/>
  <path d="M206.25 306.40 c0.10 -1.55 0.40 -3.25 0.75 -3.75 0.45 -0.70 0.45 -0.55 0.20 0.85 -0.20 0.95 -0.55 2.65 -0.75 3.75 -0.35 1.70 -0.40 1.60 -0.20 -0.85z"/>
  <path d="M215.65 305.70 c0.15 -1.60 0.60 -3.85 0.95 -4.95 0.60 -1.90 0.60 -1.95 0.80 -0.60 0.10 0.75 -0.20 2.40 -0.70 3.60 -0.45 1.20 -0.70 2.70 -0.55 3.25 0.15 0.55 0 1.15 -0.25 1.35 -0.40 0.20 -0.45 -0.65 -0.25 -2.65z"/>
  <path d="M154.75 303.20 c-0.70 -2.35 -1.20 -4.45 -1.05 -4.60 0.40 -0.35 0.40 -0.30 1.40 2.65 0.95 2.90 1.65 6.25 1.25 6.25 -0.15 0 -0.90 -1.95 -1.60 -4.30z"/>
  <path d="M152.85 306.50 c-1.55 -3.80 -2.75 -8.10 -2.50 -9.05 0.15 -0.90 0.10 -1 -0.25 -0.50 -0.35 0.50 -0.60 -0.40 -0.85 -3.15 -0.20 -2.10 -0.25 -4 -0.05 -4.15 0.15 -0.20 0.30 0.40 0.30 1.25 0 0.85 0.90 4.40 2 7.90 1.15 3.50 1.95 6.85 1.85 7.40 -0.15 0.80 -0.25 0.90 -0.50 0.30z"/>
  <path d="M209.60 305.50 c0 -0.95 0.10 -1.35 0.25 -0.85 0.10 0.45 0.10 1.25 0 1.75 -0.15 0.45 -0.25 0.05 -0.25 -0.90z"/>
  <path d="M181.65 304.75 c0 -1.10 0.10 -1.50 0.20 -0.85 0.10 0.60 0.10 1.50 0 2 -0.15 0.45 -0.25 -0.05 -0.20 -1.15z"/>
  <path d="M231.60 305 c0 -0.95 0.10 -1.35 0.25 -0.85 0.10 0.45 0.10 1.25 0 1.75 -0.15 0.45 -0.25 0.05 -0.25 -0.90z"/>
  <path d="M222.35 305.70 c-0.50 -0.55 -0.45 -8.20 0.10 -8.20 0.65 0 1.15 5.45 0.70 7.15 -0.25 0.80 -0.60 1.25 -0.80 1.05z"/>
  <path d="M195.35 304.85 c-0.55 -1.45 -0.45 -3.45 0.20 -3.05 0.35 0.20 0.45 -0.25 0.30 -1.50 -0.15 -1 -0.05 -1.80 0.20 -1.80 0.50 0 0.55 1.80 0.05 5 -0.30 1.65 -0.45 2 -0.75 1.35z"/>
  <path d="M235.05 303.95 c-0.30 -0.90 -0.50 -3.20 -0.50 -5.15 0.05 -1.95 0.15 -3.15 0.30 -2.65 0.10 0.45 0.45 0.85 0.70 0.85 0.20 0 0.20 0.50 -0.10 1.15 -0.40 0.90 -0.35 1.65 0.25 3.10 0.90 2.05 1.05 4.25 0.35 4.25 -0.25 0 -0.70 -0.70 -1 -1.55z"/>
  <path d="M219.75 302.30 c0 -1.25 0.15 -2 0.35 -1.65 0.50 0.80 0.50 3.85 0.05 3.85 -0.25 0 -0.40 -1 -0.40 -2.20z"/>
  <path d="M232.50 303.60 c0 -0.55 -0.40 -1.35 -0.90 -1.70 -0.80 -0.55 -0.90 -1.10 -0.65 -3.15 l0.30 -2.50 0.95 3.90 c0.50 2.15 0.80 4.05 0.60 4.20 -0.15 0.20 -0.30 -0.15 -0.30 -0.75z"/>
  <path d="M174.75 302 c-0.20 -1.15 -0.25 -2.20 -0.10 -2.30 0.15 -0.15 0.40 0.65 0.60 1.80 0.20 1.15 0.25 2.20 0.10 2.30 -0.15 0.15 -0.40 -0.65 -0.60 -1.80z"/>
  <path d="M204.60 302.25 c0 -0.80 0.15 -1.95 0.40 -2.50 0.40 -0.90 0.45 -0.90 0.40 0.25 0 0.70 -0.20 1.80 -0.40 2.50 -0.40 1.20 -0.40 1.20 -0.40 -0.25z"/>
  <path d="M172.70 300.45 c-0.25 -1.70 -0.50 -2.30 -0.75 -1.85 -0.25 0.35 -0.30 1.25 -0.15 2.05 0.15 0.75 0.05 1.35 -0.20 1.35 -0.25 0 -0.45 -2 -0.40 -4.50 0.05 -3.95 0.10 -4.30 0.60 -2.85 l0.55 1.60 0.40 -2.40 c0.20 -1.40 0.15 -3.60 -0.20 -5.20 -0.70 -3.60 -0.70 -4 0.15 -4 0.50 0 0.85 1.10 1.25 3.65 0.45 3.05 0.40 3.85 -0.30 5.20 -0.60 1.25 -0.70 2.50 -0.50 5.55 0.30 4.45 0.05 5.20 -0.45 1.40z"/>
  <path d="M241.85 302.15 c-0.20 -0.15 -0.35 -0.80 -0.30 -1.35 0 -0.95 0.05 -0.95 0.50 0.15 0.50 1.20 0.40 1.80 -0.20 1.20z"/>
  <path d="M157.55 299.20 c0.05 -1.60 0.25 -3.60 0.45 -4.45 0.25 -0.85 0.30 0.30 0.15 2.75 -0.35 4.95 -0.70 6 -0.60 1.70z"/>
  <path d="M155.55 299.65 c0 -0.60 -0.20 -1.50 -0.35 -2 -0.25 -0.85 -0.25 -0.85 0.30 0 0.30 0.50 0.45 1.40 0.35 2 -0.20 1.10 -0.20 1.10 -0.30 0z"/>
  <path d="M166.20 298.75 c-0.60 -0.65 -1.25 -1.85 -1.40 -2.60 -0.20 -0.75 -0.45 -1.85 -0.60 -2.40 -0.30 -0.95 -0.25 -0.95 0.45 0.05 0.65 0.85 2.95 6.20 2.70 6.20 -0.05 0 -0.60 -0.55 -1.15 -1.25z"/>
  <path d="M186.60 297.75 c0 -0.80 0.20 -2.15 0.40 -3 l0.40 -1.50 0 1.50 c0 0.85 -0.20 2.20 -0.40 3 l-0.40 1.50 0 -1.50z"/>
  <path d="M190.65 296.75 c0 -1.35 0.10 -1.90 0.20 -1.10 0.10 0.75 0.10 1.85 0 2.50 -0.10 0.60 -0.20 0 -0.20 -1.40z"/>
  <path d="M177.70 292.75 c0 -3 0.05 -4.20 0.15 -2.60 0.10 1.60 0.10 4.05 0 5.50 -0.10 1.45 -0.15 0.15 -0.15 -2.90z"/>
  <path d="M180.80 293.60 c-0.25 -2.30 -0.30 -4.25 -0.15 -4.40 0.35 -0.40 1 5.80 0.75 7.35 -0.10 0.65 -0.40 -0.65 -0.60 -2.95z"/>
  <path d="M153.80 294.55 c-0.20 -1.45 -0.25 -2.75 -0.10 -2.90 0.30 -0.35 0.95 4.15 0.70 4.95 -0.15 0.35 -0.40 -0.55 -0.60 -2.05z"/>
  <path d="M140.30 294.20 c-0.45 -1.30 -0.80 -2.75 -0.75 -3.15 0 -0.45 0.45 0.50 1 2.15 0.55 1.60 0.90 3 0.80 3.15 -0.15 0.10 -0.60 -0.85 -1.05 -2.15z"/>
  <path d="M241.05 294.95 c-0.65 -1.90 -0.75 -6.05 -0.10 -5.05 0.20 0.35 0.30 1.25 0.15 1.95 -0.15 0.90 -0.05 1.20 0.35 0.95 0.35 -0.25 0.55 0.25 0.55 1.65 0 2.45 -0.20 2.55 -0.95 0.50z"/>
  <path d="M236.50 294.55 c0 -0.80 0.30 -1.55 0.65 -1.70 0.45 -0.15 0.60 0.25 0.45 1.45 -0.25 2.05 -1.10 2.25 -1.10 0.25z"/>
  <path d="M135.40 292.75 c-1.20 -4.05 -1.35 -5.05 -1.60 -8.25 -0.10 -1.55 -0.70 -4.75 -1.25 -7.20 -1.20 -5.05 -1.30 -6.60 -0.25 -3.30 1.45 4.40 3 11 2.60 11 -0.65 0 -0.45 1.70 0.65 5.25 0.55 1.80 0.95 3.80 0.85 4.40 -0.10 0.70 -0.45 0 -1 -1.90z"/>
  <path d="M159.90 292.75 c-0.15 -0.70 -0.05 -1.25 0.15 -1.25 0.25 0 0.45 0.55 0.45 1.25 0 0.70 -0.10 1.25 -0.20 1.25 -0.10 0 -0.30 -0.55 -0.40 -1.25z"/>
  <path d="M132.85 291.85 c-0.45 -0.85 -1.15 -2.05 -1.55 -2.60 -0.50 -0.70 -0.60 -1.25 -0.30 -1.75 0.40 -0.60 0.50 -0.50 0.55 0.50 l0.05 1.25 0.35 -1.25 c0.30 -1.05 0.50 -0.75 1.15 2 0.50 1.75 0.80 3.30 0.70 3.35 -0.05 0.10 -0.50 -0.60 -0.95 -1.50z"/>
  <path d="M136.30 288.95 c-0.45 -1.70 -0.70 -3.20 -0.60 -3.35 0.30 -0.25 0.40 0.05 1.30 3.55 0.95 3.55 0.30 3.35 -0.70 -0.20z"/>
  <path d="M158.30 290.45 c-0.65 -4.35 -0.85 -7.45 -0.40 -7.45 0.25 0 0.60 1.95 0.70 4.40 0.25 4.55 0.15 5.85 -0.30 3.05z"/>
  <path d="M138 289.20 c0 -0.85 -0.35 -2.55 -0.75 -3.70 -0.95 -2.65 -0.90 -3.80 0 -1.75 1.05 2.25 0.90 1 -0.55 -4.50 -1.90 -7.60 -1.80 -7.10 -1.25 -6.25 0.50 0.80 4.05 14.15 4.05 15.20 0 0.35 -0.35 1.05 -0.75 1.60 -0.70 0.90 -0.70 0.85 -0.75 -0.60z"/>
  <path d="M167.80 288.35 c-0.45 -1.70 -0.35 -10.85 0.15 -10.85 0.40 0 1.05 5.80 1.05 9.55 0 2.15 -0.75 3 -1.20 1.30z"/>
  <path d="M150.10 288.40 c-0.35 -0.35 -0.60 -1.50 -0.60 -2.60 0 -3.05 -1.30 -8.75 -2.75 -12 -1.45 -3.30 -1.70 -5.45 -0.30 -2.80 0.50 0.95 1.65 3.75 2.50 6.15 1.20 3.35 1.45 4.90 1.25 6.40 -0.20 1.15 -0.05 2.55 0.30 3.45 0.70 1.70 0.50 2.30 -0.40 1.40z"/>
  <path d="M153.85 286.40 c-0.15 -1.45 -1.20 -5.35 -2.30 -8.70 -1.15 -3.35 -2.05 -6.35 -2 -6.75 0 -0.40 0.90 1.85 2 5 2.10 6.25 2.70 7.35 2.25 4.30 l-0.30 -2 0.75 2.35 c1.20 3.70 1.90 3.60 1.65 -0.30 -0.20 -3.35 0.25 -4.45 0.80 -1.90 0.70 3.20 0.80 4.05 0.30 4.35 -0.25 0.15 -0.50 1.15 -0.55 2.15 -0.05 1 -0.25 2.40 -0.50 3.10 -0.35 1.05 -0.40 1 -0.20 -0.50 0.15 -1.15 -0.15 -2.35 -0.80 -3.50 -1 -1.75 -1 -1.75 -0.65 -0.25 0.30 1.45 0.30 4.80 0 5.10 -0.10 0.10 -0.30 -1 -0.45 -2.45z"/>
  <path d="M170.15 286.75 c0 -1.35 0.10 -1.90 0.20 -1.10 0.10 0.75 0.10 1.85 0 2.50 -0.10 0.60 -0.20 0 -0.20 -1.40z"/>
  <path d="M250.40 287.75 c-0.20 -0.80 -0.80 -3.05 -1.30 -5 -0.90 -3.30 -1 -3.40 -1.20 -1.75 -0.15 1.15 -0.25 0.65 -0.30 -1.50 -0.10 -3.75 0.45 -3.40 1.65 1 0.45 1.50 1 3.55 1.30 4.55 0.30 0.95 0.45 2.30 0.35 3 -0.20 1.15 -0.20 1.10 -0.50 -0.30z"/>
  <path d="M127.55 287.65 c-0.95 -1.90 -2.10 -4.90 -1.60 -4.40 0.55 0.60 2.60 5.25 2.30 5.25 -0.10 0 -0.40 -0.40 -0.70 -0.85z"/>
  <path d="M127.90 284.90 c-0.95 -1.45 -2 -2.60 -2.35 -2.50 -0.45 0.10 -0.55 -0.15 -0.40 -0.65 0.20 -0.40 0.10 -0.75 -0.10 -0.75 -0.25 0 -0.60 -0.40 -0.75 -0.85 -0.30 -0.75 -0.25 -0.75 0.65 0.05 1.20 1.10 5.15 6.85 4.90 7.10 -0.10 0.15 -1 -0.95 -1.95 -2.40z"/>
  <path d="M165 286.25 c-0.10 -1.45 -0.10 -1.50 -0.45 -0.25 -0.35 1.15 -0.40 1.05 -0.75 -0.80 -0.40 -2.35 0 -5.45 0.95 -6.95 0.35 -0.60 0.75 -1.50 0.90 -2 0.10 -0.55 0.25 1.15 0.25 3.75 0 2.60 -0.20 5.45 -0.40 6.25 l-0.40 1.50 -0.10 -1.50z"/>
  <path d="M251.55 285.15 c-0.30 -1.05 -0.65 -2.90 -0.80 -4.15 l-0.25 -2.25 0.65 2.05 c0.80 2.30 1.50 6.20 1.15 6.20 -0.15 0 -0.50 -0.85 -0.75 -1.85z"/>
  <path d="M130.15 285.90 c-0.30 -0.35 -0.80 -1.50 -1.10 -2.50 -0.35 -1.05 -0.80 -1.90 -1.05 -1.90 -0.20 0 -0.30 -0.50 -0.15 -1.10 0.20 -0.95 0.15 -1 -0.30 -0.40 -0.30 0.45 -0.55 0.50 -0.55 0.15 0 -0.30 -0.15 -1 -0.30 -1.50 -0.25 -0.75 -0.20 -0.75 0.25 -0.15 0.85 1.20 0.70 -0.20 -0.45 -4.45 -0.60 -2.05 -0.95 -4.05 -0.85 -4.50 0.10 -0.50 0.35 -0.20 0.55 0.70 2 8.30 2.50 10.05 2.80 10.50 0.40 0.55 2 5.75 1.75 5.75 -0.05 0 -0.35 -0.30 -0.60 -0.60z"/>
  <path d="M131.55 285.95 c-0.05 -0.45 -0.50 -2.10 -1.05 -3.75 -0.50 -1.65 -1.05 -4 -1.20 -5.20 -0.15 -1.25 -0.15 -1.80 0 -1.25 0.15 0.55 0.80 3 1.50 5.45 0.70 2.40 1.15 4.65 1 5 -0.10 0.30 -0.25 0.20 -0.25 -0.25z"/>
  <path d="M147.75 283.15 c-0.45 -1 -0.70 -2 -0.65 -2.25 0.10 -0.25 0.55 0.55 1 1.85 1 2.70 0.75 3.05 -0.35 0.40z"/>
  <path d="M131.75 280.50 c-0.20 -0.85 -0.25 -1.70 -0.10 -1.80 0.15 -0.15 0.40 0.45 0.60 1.30 0.20 0.85 0.25 1.70 0.10 1.80 -0.15 0.15 -0.40 -0.45 -0.60 -1.30z"/>
  <path d="M135.35 279.60 c-0.55 -1.30 -1.15 -2.80 -1.35 -3.35 -0.95 -2.30 -2.10 -6.80 -1.80 -7.10 0.15 -0.15 0.30 0.05 0.30 0.55 0 0.45 0.35 1.40 0.80 2.05 0.45 0.70 1.25 2.90 1.80 4.85 0.55 2 1.10 4.05 1.25 4.55 0.55 1.75 -0.15 0.75 -1 -1.55z"/>
  <path d="M145.15 278.10 c-0.30 -0.20 -0.85 -1.50 -1.20 -2.85 -0.30 -1.40 -0.95 -3.15 -1.35 -4 -0.90 -1.80 -2.20 -6.85 -1.60 -6.50 0.20 0.10 0.50 1.15 0.70 2.25 0.15 1.10 0.50 2 0.75 2 0.20 0 0.80 1.40 1.25 3.15 0.50 1.70 1.20 3.85 1.60 4.75 0.75 1.75 0.75 1.75 -0.15 1.20z"/>
  <path d="M252.50 277.30 c-0.65 -1.70 -1.50 -2.10 -1.55 -0.70 -0.05 1 -0.10 1 -0.30 0.20 -0.15 -0.55 0.05 -2.70 0.40 -4.75 0.50 -3 0.70 -3.55 1 -2.55 0.20 0.70 0.35 2.40 0.40 3.85 0.05 1.40 0.25 3.15 0.55 3.85 0.25 0.70 0.35 1.30 0.25 1.30 -0.15 0 -0.50 -0.55 -0.75 -1.20z"/>
  <path d="M130.30 275.20 c-1.35 -4.15 -1.75 -6.20 -1.30 -6.20 0.45 0 2.65 7.80 2.40 8.60 -0.10 0.25 -0.60 -0.80 -1.10 -2.40z"/>
  <path d="M125.55 275.20 c-0.35 -1.25 -0.50 -2.40 -0.40 -2.55 0.15 -0.10 0.50 0.85 0.80 2.15 0.35 1.25 0.50 2.40 0.40 2.55 -0.15 0.10 -0.50 -0.85 -0.80 -2.15z"/>
  <path d="M157.05 272.75 c-1.20 -4.90 -1.20 -7.25 -0.05 -2.90 0.35 1.30 1 3 1.40 3.70 0.50 0.95 0.60 1.70 0.30 2.65 -0.45 1.25 -0.60 0.85 -1.65 -3.45z"/>
  <path d="M119.75 273.90 c-0.45 -1.45 -0.90 -3.65 -1 -4.90 l-0.20 -2.25 0.70 2.50 c1.25 4.55 1.80 6.90 1.55 7.10 -0.15 0.15 -0.60 -0.95 -1.05 -2.45z"/>
  <path d="M121.95 275.40 c-1.10 -2.05 -2.40 -8.65 -2.70 -13.65 -0.15 -2.75 -0.45 -5.80 -0.65 -6.75 -0.30 -1.75 -0.30 -1.75 -0.65 0.75 -0.20 1.70 -0.30 0.65 -0.30 -3.25 0.05 -3.15 -0.25 -7.40 -0.60 -9.40 -0.75 -4.20 -0.50 -5.25 0.45 -1.75 0.30 1.30 1.10 4.10 1.75 6.15 0.65 2.20 1.05 4.40 0.90 5.35 -0.15 0.95 0.20 3.15 0.85 5.20 1.10 3.75 1.15 5.40 0 1.95 -0.40 -1.15 -0.85 -2.15 -1.10 -2.30 -0.50 -0.30 -0.15 1.65 1.45 8.25 1.15 4.80 1.95 10.55 1.40 10.55 -0.10 0 -0.50 -0.50 -0.80 -1.10z"/>
  <path d="M211.65 273.65 c0.45 -0.10 1.25 -0.10 1.75 0 0.45 0.15 0.05 0.25 -0.90 0.25 -0.95 0 -1.35 -0.10 -0.85 -0.25z"/>
  <path d="M153.50 271.15 c-0.90 -3.30 -2.05 -9.25 -1.85 -9.50 0.20 -0.20 1.05 3.05 2.60 10.25 0.45 1.85 -0.15 1.25 -0.75 -0.75z"/>
  <path d="M114 272.20 c0 -0.25 -0.35 -2.45 -0.75 -4.95 -0.40 -2.45 -0.70 -5.40 -0.65 -6.50 0.05 -2.20 0.05 -2.10 1.20 5.95 0.40 2.95 0.65 5.55 0.50 5.70 -0.20 0.15 -0.30 0.05 -0.30 -0.20z"/>
  <path d="M114.55 264.80 c-0.65 -3.45 -1.35 -6.30 -1.55 -6.30 -0.25 0 -0.35 -1.05 -0.20 -2.35 0.30 -2.95 -0.20 -5.60 -0.85 -4.60 -0.30 0.45 -0.45 -0.20 -0.45 -1.80 0 -1.40 -0.45 -4.10 -0.95 -6 -1.10 -4.15 -1.80 -8.15 -1.30 -7.65 0.20 0.15 0.65 1.50 1.05 3 0.55 2.20 0.65 2.35 0.45 0.65 -0.50 -4.30 -0.60 -5.45 -0.40 -4.50 0.15 0.55 0.40 1.25 0.65 1.50 0.20 0.30 0.75 2.40 1.20 4.75 1.35 6.80 1.80 7.75 1.40 3 -0.60 -6.95 -0.05 -16.65 0.95 -17.30 0.25 -0.15 0.45 1.60 0.45 3.90 0 2.85 -0.15 3.90 -0.50 3.40 -0.35 -0.55 -0.50 0.15 -0.50 2.35 0 1.70 0.20 3.15 0.50 3.25 0.25 0.10 0.60 3.30 0.75 7.15 0.15 4.10 0.05 6.50 -0.20 5.75 -0.35 -1.10 -0.45 -1.15 -0.80 -0.35 -0.20 0.45 -0.20 1.25 0 1.75 0.20 0.45 0.75 3.45 1.25 6.60 0.50 3.15 1.10 6.65 1.30 7.70 0.25 1.35 0.20 1.85 -0.20 1.60 -0.25 -0.15 -0.60 -0.05 -0.70 0.25 -0.10 0.30 -0.70 -2.30 -1.35 -5.75z"/>
  <path d="M133.35 270.30 c-0.20 -0.50 -0.35 -1.30 -0.35 -1.85 0 -0.55 -0.20 -1.35 -0.45 -1.85 -0.60 -1.10 -2.10 -8.05 -2 -9.35 0 -0.55 0.45 0.45 1 2.25 1 3.40 1.10 3.70 2 7.80 0.60 2.65 0.45 4.70 -0.20 3z"/>
  <path d="M111.50 267.90 c-0.80 -2.80 -1.20 -6.40 -0.55 -5.45 0.55 0.85 1.75 7 1.45 7.35 -0.15 0.10 -0.55 -0.75 -0.90 -1.90z"/>
  <path d="M124.05 269.40 c0 -0.45 -0.20 -1.25 -0.35 -1.75 -0.25 -0.85 -0.25 -0.85 0.30 0 0.30 0.50 0.45 1.25 0.35 1.75 -0.20 0.75 -0.25 0.75 -0.30 0z"/>
  <path d="M148.85 268.55 c-0.20 -0.90 -0.30 -2.85 -0.30 -4.25 l0.05 -2.55 0.50 2.75 c0.25 1.50 0.35 3.45 0.30 4.25 l-0.15 1.50 -0.40 -1.70z"/>
  <path d="M144.45 266.95 l-0.65 -2.20 -0.30 2 c-0.20 1.50 -0.40 0.55 -0.70 -3.75 -0.20 -3.15 -0.30 -6.30 -0.15 -7 0.15 -0.95 0.25 -0.80 0.30 0.60 0.05 2.30 0.90 6.40 1.90 9.55 0.40 1.35 0.65 2.55 0.50 2.70 -0.15 0.15 -0.55 -0.75 -0.90 -1.90z"/>
  <path d="M146.85 268.30 c-0.20 -0.50 -0.35 -1.25 -0.30 -1.70 0 -0.55 0.20 -0.45 0.50 0.35 0.25 0.65 0.40 1.45 0.30 1.75 -0.10 0.25 -0.30 0.10 -0.50 -0.40z"/>
  <path d="M126.30 267.75 c-0.40 -1 -1.25 -11.30 -1.55 -18 -0.05 -1.90 -0.25 -5.40 -0.40 -7.75 l-0.30 -4.25 0.75 4.75 c0.40 2.60 1.40 7.90 2.20 11.80 1.50 7.05 2.05 14.90 0.90 12.20 -0.55 -1.25 -0.55 -1.25 -0.85 0.50 -0.25 1.50 -0.35 1.60 -0.75 0.75z"/>
  <path d="M163.30 264.95 c-0.50 -1.40 -0.75 -2.65 -0.65 -2.80 0.15 -0.10 0.65 0.95 1.10 2.35 0.45 1.40 0.75 2.65 0.60 2.80 -0.10 0.15 -0.60 -0.90 -1.05 -2.35z"/>
  <path d="M204 267 c-2.35 -0.20 -5.40 -0.80 -6.80 -1.35 -2.65 -1.05 -7.65 -4.15 -8.70 -5.40 -1.15 -1.40 0.90 -1.45 2.90 -0.15 6.30 4.20 9.35 4.85 22.35 4.90 9.70 0 10.10 -0.05 12.75 -1.30 1.85 -0.85 4.05 -2.60 6.90 -5.55 2.30 -2.35 4.30 -4.15 4.45 -3.95 1.45 1.40 -4.10 7.60 -9.70 10.80 l-3.90 2.25 -8 0.05 c-4.40 0.05 -9.90 -0.10 -12.25 -0.30z"/>
  <path d="M136.55 263 c-0.10 -1.15 -0.15 -1.15 -0.50 -0.25 -0.35 0.80 -0.45 0.70 -0.70 -0.70 -0.55 -2.60 -0.40 -11.95 0.15 -12.30 0.30 -0.15 0.50 0.15 0.50 0.70 0 1.60 1 1.80 1.05 0.20 0.05 -1.40 0.05 -1.35 0.70 0.35 0.45 1.10 0.65 3.85 0.65 7.50 l0 5.75 -0.65 -3.50 -0.60 -3.50 -0.20 3.50 c-0.15 1.95 -0.30 2.95 -0.40 2.25z"/>
  <path d="M145.80 260.35 c-0.25 -2.15 -0.30 -4 -0.15 -4.15 0.40 -0.40 0.95 4.80 0.75 6.55 -0.10 0.90 -0.35 -0.10 -0.60 -2.40z"/>
  <path d="M156.15 260 c0 -1.50 0.10 -2.15 0.20 -1.35 0.10 0.75 0.10 1.95 0 2.75 -0.10 0.75 -0.20 0.10 -0.20 -1.40z"/>
  <path d="M117.30 260.70 c-0.20 -0.70 -0.25 -1.45 -0.10 -1.55 0.15 -0.15 0.40 0.35 0.60 1.05 0.15 0.75 0.20 1.45 0.05 1.60 -0.10 0.15 -0.40 -0.35 -0.55 -1.10z"/>
  <path d="M122.75 258.65 c-1.35 -3.35 -1.70 -5.25 -2.80 -16.60 -0.45 -4.95 -0.30 -10.55 0.35 -9.95 0.10 0.15 0.55 2.25 1 4.70 0.75 3.90 0.85 7 0.65 15.70 -0.05 1.40 0.45 3.50 1.30 5.65 0.75 1.85 1.25 3.50 1.10 3.65 -0.10 0.15 -0.85 -1.30 -1.60 -3.15z"/>
  <path d="M162.30 258.25 c0.15 -1.90 0.40 -3.60 0.50 -3.70 0.55 -0.55 0.50 0.50 -0.10 3.70 l-0.70 3.50 0.30 -3.50z"/>
  <path d="M139.80 256.85 c-0.20 -1.90 -0.25 -3.55 -0.15 -3.70 0.35 -0.35 1 5 0.75 6.15 -0.10 0.55 -0.40 -0.60 -0.60 -2.45z"/>
  <path d="M110.65 257.75 c0 -1.10 0.10 -1.50 0.20 -0.85 0.10 0.60 0.10 1.50 0 2 -0.15 0.45 -0.25 -0.05 -0.20 -1.15z"/>
  <path d="M165.10 258 c0 -0.95 0.10 -1.35 0.25 -0.85 0.10 0.45 0.10 1.25 0 1.75 -0.15 0.45 -0.25 0.05 -0.25 -0.90z"/>
  <path d="M159.75 256.25 c0.10 -1.10 -0.05 -3.10 -0.25 -4.50 l-0.35 -2.50 -0.65 1.65 c-0.95 2.50 -1.10 1.60 -0.20 -1.20 0.95 -2.75 2.05 -4.30 1.50 -2.10 -0.20 0.85 0 2.15 0.45 3.20 0.80 1.95 1.05 7.50 0.30 6.25 -0.35 -0.60 -0.50 -0.55 -0.70 0.25 -0.10 0.50 -0.15 0.05 -0.10 -1.05z"/>
  <path d="M131.60 252 l0.05 -5.75 0.50 4.20 c0.30 2.75 0.30 4.70 -0.05 5.75 -0.40 1.20 -0.50 0.35 -0.50 -4.20z"/>
  <path d="M115.75 256 c-0.20 -0.60 -0.25 -1.20 -0.10 -1.35 0.15 -0.10 0.40 0.25 0.60 0.85 0.20 0.60 0.25 1.20 0.10 1.35 -0.15 0.10 -0.40 -0.25 -0.60 -0.85z"/>
  <path d="M130.05 255.45 c-0.05 -0.20 -0.50 -2.55 -1.05 -5.20 -0.55 -2.70 -0.90 -5 -0.80 -5.10 0.35 -0.35 2.40 9.25 2.15 9.95 -0.15 0.35 -0.30 0.50 -0.30 0.35z"/>
  <path d="M109.75 250.75 c-0.20 -2.10 -0.25 -3.95 -0.10 -4.05 0.15 -0.15 0.40 1.45 0.60 3.55 0.20 2.10 0.25 3.90 0.10 4.05 -0.10 0.15 -0.40 -1.45 -0.60 -3.55z"/>
  <path d="M167.15 250.50 c0 -2.35 0.10 -3.30 0.20 -2.10 0.10 1.15 0.10 3.05 0 4.25 -0.10 1.15 -0.20 0.20 -0.20 -2.15z"/>
  <path d="M127.35 248.95 c-0.45 -2.60 -0.85 -5.30 -0.85 -5.95 0 -1.15 0 -1.15 0.75 -0.20 0.40 0.50 0.70 1.20 0.75 1.45 0 0.30 -0.25 0.15 -0.55 -0.25 -0.40 -0.60 -0.50 -0.50 -0.25 0.50 0.75 3.75 1.35 8.05 1.20 8.55 -0.10 0.35 -0.60 -1.50 -1.05 -4.10z"/>
  <path d="M251.35 251.65 c-0.15 -1.05 -0.45 -2.45 -0.65 -3.15 -0.20 -0.85 -0.15 -1.10 0.15 -0.75 0.30 0.30 0.75 1.55 1.10 2.85 0.65 2.80 0.65 2.90 0.10 2.90 -0.20 0 -0.55 -0.85 -0.70 -1.85z"/>
  <path d="M266.10 251.65 c-0.80 -2.10 -1.70 -6.25 -1.40 -6.50 0.15 -0.15 0.55 0.95 1 2.40 1 3.70 1.35 5.45 1.10 5.45 -0.10 0 -0.40 -0.60 -0.70 -1.35z"/>
  <path d="M201 251.95 c-1.80 -0.25 -8.05 -0.60 -13.85 -0.75 -13.85 -0.40 -14.55 -0.85 -8.20 -4.95 4 -2.55 8.55 -4.40 14.10 -5.75 7 -1.65 9.65 -1.75 15.85 -0.50 6.30 1.25 8.55 1.20 15.85 -0.45 5.60 -1.25 8.65 -1.15 11.85 0.50 2.80 1.45 6.40 5.15 6.40 6.60 0 1.10 -0.30 1.25 -2.35 1.50 -1.35 0.15 -4.30 0.60 -6.65 1 -14 2.45 -27.25 3.60 -33 2.80z m15.20 -2.45 c5.75 -0.70 19.50 -2.45 21.70 -2.80 2.05 -0.30 1.90 -1 -0.85 -3.05 -3.65 -2.80 -5.30 -3 -12.80 -1.50 -7.50 1.55 -10.20 1.65 -14.75 0.55 -8.20 -1.95 -19.70 -0.10 -27.25 4.35 l-2 1.20 3 0.30 c1.65 0.20 5.50 0.40 8.50 0.40 3.05 0.05 6.40 0.30 7.50 0.50 2.90 0.65 11.75 0.65 16.95 0.05z"/>
  <path d="M132.80 251.25 c-0.15 -0.45 -0.25 -1.55 -0.25 -2.40 0.05 -1.35 0.15 -1.20 0.45 0.65 0.40 2.40 0.30 3.05 -0.20 1.75z"/>
  <path d="M153.70 249.65 c2.20 -9.25 7.05 -16.35 15.45 -22.40 1.65 -1.25 3.25 -2.25 3.45 -2.25 0.90 0 0.25 0.80 -1.60 2.15 -4.90 3.45 -8.65 7.20 -11.15 11.05 -3.20 4.95 -3.55 5.70 -4.65 9.70 -0.45 1.70 -1.05 3.10 -1.30 3.10 -0.30 0 -0.35 -0.60 -0.20 -1.35z"/>
  <path d="M101.75 250 c-0.25 -0.45 -1.70 -10.30 -1.75 -11.85 0 -0.35 0.25 -0.65 0.50 -0.65 0.30 0 0.50 0.70 0.50 1.60 0 0.95 0.20 1.40 0.45 1.15 0.25 -0.30 0.30 -6.60 0.10 -14.10 -0.15 -7.50 -0.15 -13.45 0.05 -13.25 0.75 0.75 1.25 10.30 1 18.35 -0.15 4.70 -0.25 10.90 -0.25 13.90 -0.05 2.95 -0.10 5.35 -0.15 5.35 -0.10 0 -0.30 -0.20 -0.45 -0.50z"/>
  <path d="M162.80 248.15 c-0.20 -1.35 -0.10 -3.40 0.15 -4.65 0.40 -2.05 0.45 -1.80 0.50 2.40 0.05 2.50 -0.05 4.60 -0.15 4.60 -0.10 0 -0.35 -1.05 -0.50 -2.35z"/>
  <path d="M266.85 246.30 c-0.95 -2.90 -1.05 -4.30 -0.45 -4.30 0.45 0 1.85 6.40 1.50 6.75 -0.10 0.15 -0.60 -0.95 -1.05 -2.45z"/>
  <path d="M165.65 244 c0 -2.35 0.10 -3.30 0.20 -2.10 0.10 1.15 0.10 3.05 0 4.25 -0.10 1.15 -0.20 0.20 -0.20 -2.15z"/>
  <path d="M169.55 243.15 c0 -2.60 0.15 -4.70 0.45 -4.90 0.60 -0.35 0.60 2.65 0 6.75 -0.35 2.60 -0.35 2.45 -0.45 -1.85z"/>
  <path d="M248.30 245.20 c-0.15 -1.30 -0.30 -2.95 -0.30 -3.65 0.05 -2.25 0.85 -0.10 1.15 3.10 0.35 3.40 -0.35 3.85 -0.85 0.55z"/>
  <path d="M175.85 244.30 c-0.60 -1.50 -0.95 -8.05 -0.45 -7.55 0.30 0.30 0.65 2.25 0.85 4.40 0.35 3.65 0.20 4.75 -0.40 3.15z"/>
  <path d="M172.05 241.60 c0 -1.20 0.15 -2.05 0.40 -1.90 0.60 0.40 1.05 2.30 0.55 2.30 -0.25 0 -0.55 0.40 -0.65 0.90 -0.15 0.45 -0.25 -0.10 -0.30 -1.30z"/>
  <path d="M268.10 240.80 c-0.30 -1.65 -0.50 -3.05 -0.40 -3.20 0.40 -0.35 1.35 3.90 1.20 5.05 -0.10 0.65 -0.45 -0.20 -0.80 -1.85z"/>
  <path d="M254.75 241.90 c-0.10 -0.35 -0.55 -2.10 -0.95 -3.90 -0.90 -3.55 -3.70 -9.55 -5.45 -11.50 -0.60 -0.70 -1.85 -1.85 -2.75 -2.60 -1 -0.80 -1.40 -1.45 -1.05 -1.70 0.90 -0.55 6.10 5.30 7.80 8.85 1.25 2.55 3.65 9.90 3.65 11.20 0 0.55 -1.05 0.20 -1.25 -0.35z"/>
  <path d="M246.15 239.25 c0 -1.10 0.10 -1.50 0.20 -0.85 0.10 0.60 0.10 1.50 0 2 -0.15 0.45 -0.25 -0.05 -0.20 -1.15z"/>
  <path d="M244.40 239.85 c-0.25 -0.50 -0.40 -2.10 -0.40 -3.50 0.05 -2 0.15 -2.40 0.55 -1.70 0.25 0.45 0.45 2.05 0.35 3.50 -0.10 1.75 -0.25 2.30 -0.50 1.70z"/>
  <path d="M116.05 235 c0 -2.45 0.25 -4.20 0.70 -5 0.70 -1.15 0.75 -0.95 0.45 2.50 -0.50 5.65 -1.10 6.95 -1.15 2.50z"/>
  <path d="M183.60 236.15 c-0.70 -2.40 -0.75 -4 -0.15 -4.40 0.50 -0.25 1.30 4.70 0.95 5.80 -0.10 0.30 -0.45 -0.30 -0.80 -1.40z"/>
  <path d="M269.65 234.25 c0 -1.10 0.10 -1.50 0.20 -0.85 0.10 0.60 0.10 1.50 0 2 -0.15 0.45 -0.25 -0.05 -0.20 -1.15z"/>
  <path d="M108.65 232.75 c0 -1.65 0.10 -2.25 0.20 -1.35 0.10 0.90 0.10 2.25 0 3 -0.10 0.75 -0.20 0 -0.20 -1.65z"/>
  <path d="M109.70 231.15 c-0.50 -2.65 0.30 -8.90 0.95 -7.75 0.35 0.50 0 9.55 -0.40 10 -0.05 0.05 -0.30 -0.95 -0.55 -2.25z"/>
  <path d="M196.30 230.35 c-0.25 -1.30 -0.30 -2.55 -0.10 -2.70 0.60 -0.65 0.85 0.30 0.70 2.65 l-0.15 2.45 -0.45 -2.40z"/>
  <path d="M204.85 232.15 c-0.55 -0.50 -0.40 -4.80 0.15 -5.65 0.35 -0.55 0.50 0.25 0.50 2.65 0 3.35 -0.05 3.65 -0.65 3z"/>
  <path d="M234.65 230.50 c0 -1.25 0.10 -1.75 0.20 -1.10 0.10 0.60 0.10 1.60 0 2.25 -0.10 0.60 -0.20 0.10 -0.20 -1.15z"/>
  <path d="M192.80 229.55 c-0.20 -1.20 -0.25 -2.30 -0.10 -2.40 0.35 -0.35 0.95 3.15 0.70 3.95 -0.15 0.35 -0.40 -0.35 -0.60 -1.55z"/>
  <path d="M199.65 229.75 c0 -1.10 0.10 -1.50 0.20 -0.85 0.10 0.60 0.10 1.50 0 2 -0.15 0.45 -0.25 -0.05 -0.20 -1.15z"/>
  <path d="M221.65 228 c-0.55 -1.90 -0.85 -3.40 -0.65 -3.25 0.45 0.25 2.15 6.25 1.85 6.55 -0.10 0.10 -0.65 -1.35 -1.20 -3.30z"/>
  <path d="M231.80 229.95 c-0.15 -0.85 -0.30 -2.15 -0.30 -2.90 0.05 -1.15 0.10 -1.20 0.55 -0.40 0.30 0.50 0.40 1.25 0.25 1.65 -0.15 0.40 -0.05 1.25 0.20 1.95 0.25 0.70 0.30 1.25 0.05 1.25 -0.25 0 -0.55 -0.70 -0.75 -1.55z"/>
  <path d="M225.75 227.85 c-0.20 -1.30 -0.25 -2.50 -0.10 -2.65 0.40 -0.40 1 3 0.75 4.15 -0.15 0.50 -0.40 -0.20 -0.65 -1.50z"/>
  <path d="M223.75 227 c-0.20 -0.85 -0.25 -1.70 -0.10 -1.80 0.15 -0.15 0.40 0.45 0.60 1.30 0.20 0.85 0.25 1.70 0.10 1.80 -0.15 0.15 -0.40 -0.45 -0.60 -1.30z"/>
  <path d="M99.85 220.60 c-0.15 -2.40 -0.10 -5.15 0.15 -6.10 0.30 -1.25 0.40 0 0.45 4.40 0.05 3.35 -0.05 6.10 -0.15 6.10 -0.05 0 -0.30 -1.95 -0.45 -4.40z"/>
  <path d="M189.50 220.90 c-2.75 -1.90 -3.60 -4 -3.40 -8.65 0.15 -3.45 0.35 -4.25 1.50 -5.75 0.75 -0.95 2.35 -2.40 3.55 -3.15 1.25 -0.80 2.65 -2.20 3.15 -3.15 1.10 -2 1.70 -2.20 1.70 -0.45 0 2 -1.30 4.05 -3.30 5.25 -1 0.65 -2.45 2.05 -3.25 3.15 -1.20 1.70 -1.45 2.50 -1.45 5 0 2.75 0.15 3.10 1.90 4.85 1 1 2.30 2.05 2.80 2.35 1.10 0.60 0.65 1.65 -0.65 1.65 -0.50 0 -1.65 -0.50 -2.55 -1.10z"/>
  <path d="M103.65 218.25 c0 -1.35 0.10 -1.90 0.20 -1.10 0.10 0.75 0.10 1.85 0 2.50 -0.10 0.60 -0.20 0 -0.20 -1.40z"/>
  <path d="M95.60 218.50 c0 -0.95 0.20 -2.40 0.40 -3.25 l0.40 -1.50 0 1.75 c0 0.95 -0.20 2.45 -0.40 3.25 l-0.40 1.50 0 -1.75z"/>
  <path d="M233.30 219.55 c-0.15 -0.25 0.80 -1.25 2.15 -2.25 1.85 -1.30 2.65 -2.25 3 -3.65 1.05 -3.80 0.45 -6.70 -2.20 -10.45 -1.90 -2.65 -2.20 -3.70 -1.05 -3.70 0.95 0 4.05 3.80 5.05 6.15 1.05 2.55 0.95 7.60 -0.25 10.20 -1.35 3 -5.70 5.35 -6.70 3.70z"/>
  <path d="M218 218.50 c0 -0.25 1.20 -1.35 2.65 -2.45 4 -2.95 7.15 -6.65 7.80 -9.25 1.15 -4.65 0.75 -6.20 -3.85 -14 -4.50 -7.65 -5.25 -9.85 -5.50 -16.85 -0.25 -7.15 1.10 -13.25 3.50 -15.65 2.10 -2.10 2.75 -1.05 1.15 1.80 -1.70 3.05 -2.90 9.70 -2.60 14.40 0.25 4.75 1.60 8.65 4.90 14.30 4.35 7.50 4.95 9.05 4.95 12.95 0 2.40 -0.35 4.20 -1 5.65 -1.05 2.25 -5.55 7.05 -8.20 8.65 -1.65 1 -3.80 1.25 -3.80 0.45z"/>
  <path d="M70.35 213.45 c-1.70 -1.80 -3.75 -4.50 -4.60 -6 -1.50 -2.65 -1.50 -2.75 -1.40 -9.85 0.10 -7.30 0.85 -11.30 2.45 -12.60 1 -0.85 0.90 -0.05 -0.40 2.80 -0.95 2.10 -1.10 3.40 -1.10 9.45 -0.05 8.40 0.40 9.70 5.55 15.25 1.80 1.95 3.15 3.70 2.95 3.85 -0.20 0.20 -1.75 -1.10 -3.45 -2.90z"/>
  <path d="M83.55 215.40 c-3.25 -5.15 -3.30 -5.45 -3.30 -15.90 l0 -9.75 -2.45 -5 c-3.15 -6.30 -6.30 -9.75 -8.90 -9.75 -1.40 0 -2.10 0.35 -3.25 1.65 -1.40 1.60 -1.70 2.25 -3.25 6.60 -0.40 1.10 -1 2 -1.40 2 -2 0 -0.40 -7.05 2.35 -10.25 4.95 -5.75 10.95 -3 16.30 7.35 3.10 6.10 3.45 8.05 3.30 17.95 l-0.15 8.45 1.60 3.70 c0.90 2.05 1.60 3.75 1.60 3.85 0 0.70 -1.90 0 -2.45 -0.90z"/>
  <path d="M195.45 215.70 c-1 -1.25 0.05 -2.35 3.30 -3.40 2.85 -0.95 3.15 -0.95 7.65 -0.20 5 0.85 5.95 1.30 5.40 2.65 -0.25 0.75 -0.85 0.85 -4.45 0.55 -2.95 -0.25 -4.85 -0.10 -6.85 0.45 -3.50 0.95 -4.20 0.95 -5.05 -0.05z"/>
  <path d="M95.55 209.45 c0.05 -1.20 0.25 -2.75 0.45 -3.45 0.30 -0.80 0.35 -0.05 0.15 2 -0.35 3.80 -0.65 4.65 -0.60 1.45z"/>
  <path d="M74.20 206.30 c-1.75 -1.75 -1.80 -1.95 -1.60 -4.75 0.25 -3.30 2.10 -7.40 4.50 -10 2.10 -2.20 2.45 -1.50 0.45 0.95 -2.30 2.85 -4.05 6.90 -4.05 9.35 0 1.65 0.35 2.50 1.55 3.90 2.15 2.40 1.45 2.85 -0.85 0.55z"/>
  <path d="M96.60 202.75 c0 -0.80 0.20 -2.15 0.40 -3 l0.40 -1.50 0 1.75 c0 0.95 -0.20 2.30 -0.40 3 -0.40 1.20 -0.40 1.20 -0.40 -0.25z"/>
  <path d="M92.55 201.50 c0 -0.40 0.20 -1.20 0.45 -1.75 0.25 -0.65 0.45 -0.70 0.45 -0.25 0 0.40 -0.20 1.20 -0.45 1.75 -0.25 0.65 -0.45 0.70 -0.45 0.25z"/>
  <path d="M93.55 198 c0 -0.40 0.20 -1.20 0.45 -1.75 0.25 -0.65 0.45 -0.70 0.45 -0.25 0 0.40 -0.20 1.20 -0.45 1.75 -0.25 0.65 -0.45 0.70 -0.45 0.25z"/>
  <path d="M97.55 197.15 c-0.05 -0.60 0.20 -1.25 0.45 -1.40 0.60 -0.35 0.60 0.10 0 1.50 -0.40 0.95 -0.45 0.95 -0.45 -0.10z"/>
  <path d="M94.55 194.50 c0 -0.40 0.20 -1.20 0.45 -1.75 0.25 -0.65 0.45 -0.70 0.45 -0.25 0 0.40 -0.20 1.20 -0.45 1.75 -0.25 0.65 -0.45 0.70 -0.45 0.25z"/>
  <path d="M91.55 191.20 c-0.05 -0.75 2.90 -9.75 3.50 -10.70 0.40 -0.60 0.45 -0.50 0.20 0.25 -0.65 2.45 -3.70 10.95 -3.70 10.45z"/>
  <path d="M234 188.10 c-1.50 -0.50 -2.65 -1.10 -2.55 -1.35 0.05 -0.30 0.40 -0.40 0.75 -0.30 5.80 1.85 10.50 1.90 16.60 0 1.80 -0.55 3.55 -0.90 3.85 -0.80 1 0.40 -3.20 1.95 -7.15 2.65 -4.95 0.90 -8.15 0.80 -11.50 -0.20z"/>
  <path d="M156.30 187.45 c-1.90 -0.25 -3.60 -0.55 -3.70 -0.70 -0.70 -0.70 0.80 -0.75 5.50 -0.20 4.40 0.45 6.25 0.45 11.45 -0.25 3.40 -0.40 7.55 -1.25 9.20 -1.80 1.60 -0.55 3.20 -0.95 3.50 -0.80 1.20 0.45 -4.50 2.30 -10.20 3.25 -6.50 1.10 -10.05 1.20 -15.75 0.50z"/>
  <path d="M90.55 181.10 c-0.05 -0.60 0.75 -3.20 1.75 -5.75 1 -2.55 2.45 -6.50 3.25 -8.85 0.75 -2.35 1.40 -3.80 1.45 -3.25 0 0.90 -1.85 6.40 -5.25 15.75 -0.70 1.85 -1.20 2.75 -1.20 2.10z"/>
  <path d="M163.85 180.70 c-0.20 -0.20 -2.05 -0.65 -4.15 -1 -2.10 -0.35 -3.95 -0.80 -4.10 -0.95 -0.60 -0.60 0.40 -0.70 2.70 -0.30 1.35 0.25 2.55 0.40 2.65 0.30 0.10 -0.10 -0.45 -0.90 -1.15 -1.80 -0.75 -0.85 -1.50 -2.25 -1.65 -3 -0.15 -0.80 -0.35 -1.45 -0.45 -1.45 -0.15 0 -3.15 1.35 -6.70 3.05 -6.35 2.95 -8.25 3.40 -8.25 1.95 0 -0.95 11.15 -6.50 16.50 -8.20 8.55 -2.70 13.10 -2.70 18.55 -0.05 3.85 1.90 9.20 6.10 9.20 7.25 0 0.55 -0.25 1 -0.60 1 -0.30 0 -2.75 -1.45 -5.45 -3.25 -2.65 -1.80 -5 -3.25 -5.15 -3.25 -0.15 0 -0.30 0.65 -0.30 1.40 0 0.75 -0.45 2.20 -0.95 3.25 -1.05 2.10 -1.05 2.15 1 1.05 1.80 -0.90 2.60 -0.55 1.15 0.55 -3 2.20 -11.70 4.55 -12.85 3.45z"/>
  <path d="M231.50 180.05 c0 -0.30 0.85 -0.55 2 -0.55 1.85 0 2.60 -0.55 1.55 -1.25 -0.25 -0.15 -0.85 -1.45 -1.35 -2.90 -0.45 -1.40 -0.90 -2.65 -0.95 -2.75 -0.05 -0.05 -1.85 0.90 -4.05 2.10 -2.15 1.20 -4.45 2.35 -5.10 2.55 -1 0.30 -1.15 0.20 -1 -0.80 0.20 -1.50 7.30 -5.35 13.30 -7.25 3.55 -1.15 4.70 -1.30 8.75 -1.10 5.45 0.30 9.50 1.65 12.10 4.10 1.80 1.70 2.25 2.80 1.10 2.80 -0.35 0 -2.40 -0.90 -4.60 -2 -5.15 -2.60 -5.55 -2.55 -5.95 0.20 -0.20 1.25 -0.80 2.80 -1.35 3.50 -1.25 1.55 -1.15 1.55 2.05 0.30 2.95 -1.15 4.15 -1.25 2.80 -0.25 -2.25 1.70 -8.50 3.35 -13.90 3.60 -3.90 0.20 -5.40 0.15 -5.40 -0.30z"/>
  <path d="M147 170.10 c0 -0.50 6.80 -4.45 10.25 -5.95 7.10 -3.15 16.05 -3.45 22.70 -0.85 2.05 0.80 3.80 1.75 3.95 2.10 0.15 0.50 -0.30 0.45 -1.70 -0.20 -5.40 -2.30 -7.80 -2.80 -13.20 -2.55 -6.30 0.25 -10.45 1.55 -17 5.30 -4.50 2.60 -5 2.85 -5 2.15z"/>
  <path d="M254.25 167.20 c-0.80 -0.70 -2.75 -1.90 -4.25 -2.60 -2.50 -1.25 -3.30 -1.35 -8.80 -1.35 l-6 0 -4 2 c-5 2.55 -4.70 2.40 -4.70 1.90 0 -0.70 4.35 -3.10 7.50 -4.15 2.05 -0.70 4.30 -1 7.15 -1 6.30 0 11.15 1.75 14.30 5.20 1.55 1.65 0.75 1.65 -1.20 0z"/>
  <path d="M83.20 166 c0.45 -1.60 1.95 -5.05 2.15 -4.85 0.10 0.15 -0.40 1.45 -1.10 2.90 -0.70 1.50 -1.15 2.35 -1.05 1.95z"/>
  <path d="M91.50 163.80 c0.50 -1.25 1.40 -3.85 2 -5.80 1.05 -3.50 3.50 -9.70 8.35 -21 3.25 -7.50 12.95 -26.20 14.05 -27.10 0.75 -0.55 0.75 -0.55 0.30 0.10 -0.35 0.40 -3.30 6.15 -6.60 12.75 -6.70 13.40 -12.65 27 -15.10 34.50 -1.55 4.75 -3.25 8.75 -3.75 8.75 -0.10 0 0.20 -1 0.75 -2.20z"/>
  <path d="M80.50 162.80 c0 -1.30 13.60 -29.20 13.90 -28.40 0.05 0.25 -0.90 2.60 -2.20 5.20 -1.30 2.55 -4.20 8.70 -6.50 13.60 -3.80 8.10 -5.20 10.75 -5.20 9.60z"/>
  <path d="M130.50 159.30 c0 -2.30 11 -11.05 18.25 -14.55 9.15 -4.40 15.65 -5.95 25.25 -5.95 5.80 -0.05 7.25 0.10 10.35 1.15 3.80 1.25 7.65 4 7.65 5.50 0 0.45 -0.30 1.25 -0.70 1.80 -0.35 0.55 -0.80 1.80 -1 2.80 -0.15 1 -0.85 2.30 -1.50 2.90 -1.20 1.10 -1.45 1.15 -7.40 0.85 -24.85 -1.20 -25.25 -1.15 -38 3 -9.75 3.15 -12.90 3.80 -12.90 2.50z m10.30 -3.80 c2.45 -0.80 4.90 -1.70 5.45 -1.95 1.90 -0.95 10.95 -2.55 14.25 -2.55 3.40 0 3.60 -0.10 8.35 -3.05 6.65 -4.15 8.85 -5.45 9.30 -5.45 0.30 0 -1.50 1.25 -3.95 2.80 -6.05 3.75 -7.70 4.90 -7.70 5.25 0 0.20 2.20 0.45 4.90 0.65 2.65 0.15 5.90 0.45 7.20 0.60 2.15 0.25 2.65 0.10 5 -1.40 3.30 -2.15 4.50 -2.80 2.95 -1.50 -0.90 0.75 -1.05 1.05 -0.50 1.25 0.45 0.15 0.35 0.30 -0.35 0.30 -0.55 0.05 -1.45 0.40 -2 0.80 -0.90 0.65 -0.85 0.70 0.80 0.75 2.30 0 3.85 -1.10 4.25 -3.15 0.20 -0.85 0.60 -1.85 0.85 -2.20 0.50 -0.60 -0.30 -2.65 -1 -2.65 -0.20 0 -2.70 1.25 -5.55 2.75 -2.85 1.50 -5.30 2.65 -5.40 2.55 -0.25 -0.25 7.65 -4.55 9.25 -5.05 1.45 -0.40 0.85 -1.40 -0.70 -1.10 -0.65 0.10 -1.10 0 -1.05 -0.25 0.10 -0.55 -4.15 -1.85 -6 -1.90 -0.60 0 -2.40 0.75 -4 1.70 -1.55 0.95 -3.15 1.55 -3.55 1.45 -0.40 -0.20 0.65 -0.95 2.50 -1.85 2.70 -1.35 2.95 -1.55 1.85 -1.70 -0.80 -0.10 -2.60 0.55 -4.65 1.65 -1.80 1 -3.30 1.70 -3.30 1.55 0 -0.15 1.05 -0.85 2.40 -1.50 l2.35 -1.25 -1.80 -0.05 c-0.95 0 -2.05 0.30 -2.40 0.65 -0.55 0.50 -0.65 0.50 -0.35 0 0.45 -0.85 -0.45 -0.80 -2.90 0.10 -1.10 0.40 -2.15 0.60 -2.40 0.45 -0.70 -0.45 -8.90 3.15 -8.90 3.90 0 0.20 -0.30 0.40 -0.65 0.40 -0.40 0 -2 0.90 -3.65 2.05 l-2.95 2 2.50 -2.25 c1.35 -1.25 2.20 -2.30 1.90 -2.30 -0.35 0 -0.70 0.20 -0.85 0.45 -0.15 0.25 -1.55 1 -3.05 1.75 -2.40 1.10 -11.75 7.95 -11.75 8.60 0 0.40 0.85 0.20 5.30 -1.30z"/>
  <path d="M149.25 150.75 c0.85 -0.70 1.70 -1.25 1.95 -1.25 0.30 0 -0.25 0.55 -1.20 1.25 -2.15 1.60 -2.70 1.60 -0.75 0z"/>
  <path d="M154.05 149.70 c1.35 -1.45 2.20 -1.60 1.50 -0.25 -0.30 0.50 -1 1.05 -1.60 1.20 -1.05 0.30 -1.05 0.30 0.10 -0.95z"/>
  <path d="M170.50 150.10 c0 -0.80 2 -2.80 2.40 -2.40 0.15 0.20 -0.30 0.95 -1.05 1.70 -0.75 0.70 -1.35 1.05 -1.35 0.70z"/>
  <path d="M180.50 150.30 c0 -0.30 6.55 -4.20 7.85 -4.60 0.75 -0.30 0.75 -0.20 -0.10 0.40 -1.55 1.15 -7.75 4.50 -7.75 4.20z"/>
  <path d="M173.50 148.80 c0 -0.30 10.60 -5.40 10.80 -5.20 0.15 0.20 -8.65 4.70 -9.90 5.10 -0.50 0.15 -0.90 0.20 -0.90 0.10z"/>
  <path d="M154.50 147.35 c0 -0.10 0.75 -0.80 1.65 -1.65 l1.60 -1.45 -1.45 1.65 c-1.40 1.50 -1.80 1.85 -1.80 1.45z"/>
  <path d="M162.60 145.40 c1 -0.90 2.55 -2.05 3.50 -2.60 1.65 -0.90 1.65 -0.90 -0.30 0.75 -1.10 0.95 -2.65 2.10 -3.50 2.60 -1.50 0.90 -1.45 0.85 0.30 -0.75z"/>
  <path d="M175.25 146.15 c0.30 -0.30 2.10 -1.40 4 -2.40 1.95 -1.05 3.30 -1.65 3 -1.35 -0.25 0.25 -2.05 1.35 -4 2.40 -1.90 1 -3.25 1.60 -3 1.35z"/>
  <path d="M160.50 144.25 c0.35 -0.40 0.85 -0.75 1.10 -0.75 0.30 0 0.25 0.35 -0.10 0.75 -0.35 0.40 -0.85 0.75 -1.10 0.75 -0.30 0 -0.25 -0.35 0.10 -0.75z"/>
  <path d="M90.50 158.20 c0 -1.85 11.35 -31 11.90 -30.50 0.25 0.30 -2 6.15 -6.15 16.05 -1.75 4.15 -3.65 9.15 -4.25 11.15 -0.95 3.10 -1.50 4.35 -1.50 3.30z"/>
  <path d="M98 158.45 c0 -1.15 6.55 -15.45 8.20 -17.95 1.55 -2.30 3.15 -5.85 5.30 -12 2.80 -7.95 3.95 -10.75 4 -9.95 0 0.50 -6.45 18.95 -7.05 20.10 -0.35 0.60 -1.25 1.95 -2.10 3 -0.80 1.05 -2.85 5.10 -4.45 9 -2.55 6.05 -3.90 8.75 -3.90 7.80z"/>
  <path d="M87 156.35 c0 -0.95 2.60 -7.65 6.30 -16.30 2.30 -5.30 4.20 -9.95 4.20 -10.25 0 -0.55 1.55 -3.10 5.70 -9.35 4.55 -6.80 9.15 -15.90 11.10 -21.80 1.05 -3.20 2 -5.55 2.05 -5.30 0.25 0.70 -2.50 8.90 -4.25 12.65 -1.35 2.95 -3.80 7.30 -11.10 19.75 -2.75 4.70 -6.80 13.55 -11.10 24.25 -2.35 5.95 -2.90 7.10 -2.90 6.35z"/>
  <path d="M84.60 147.75 c0 -0.55 0.15 -1.45 0.40 -2 0.55 -1.25 0.55 0.05 0 1.75 -0.30 1 -0.40 1.05 -0.40 0.25z"/>
  <path d="M85.60 143.75 c0 -0.55 0.15 -1.45 0.40 -2 0.55 -1.25 0.55 0.05 0 1.75 -0.30 1 -0.40 1.05 -0.40 0.25z"/>
  <path d="M90 138.35 c0 -0.35 3.80 -14.65 4.80 -18 0.15 -0.50 0.40 -0.80 0.55 -0.70 0.30 0.35 -3.55 15.10 -4.55 17.35 -0.40 0.95 -0.75 1.55 -0.80 1.35z"/>
  <path d="M94.50 132.45 c0 -0.30 2.35 -5.30 5.20 -11.15 2.85 -5.80 7 -14.30 9.20 -18.90 2.20 -4.65 4.15 -8.40 4.35 -8.40 0.15 0 0.10 0.40 -0.15 0.90 -0.25 0.45 -2.35 4.90 -4.60 9.85 -2.25 4.95 -6.15 13.05 -8.70 18 -2.50 4.95 -4.50 9.30 -4.50 9.65 0.05 0.30 -0.10 0.60 -0.35 0.60 -0.25 0 -0.45 -0.25 -0.45 -0.55z"/>
  <path d="M256.80 273.70 c-0.20 -0.70 -0.25 -1.40 -0.15 -1.55 0.15 -0.10 0.40 0.40 0.55 1.15 0.20 0.70 0.25 1.40 0.15 1.55 -0.15 0.10 -0.40 -0.40 -0.55 -1.15z"/>
  <path d="M264.05 152.45 c-1.15 -2 -1.95 -3.70 -1.85 -3.80 0.10 -0.15 1.15 1.35 2.30 3.35 1.20 1.95 2 3.65 1.90 3.80 -0.15 0.10 -1.20 -1.40 -2.35 -3.35z"/>
  <path d="M233.30 148.95 c-1.35 -0.80 -2.30 -1.65 -2.15 -1.80 0.25 -0.25 4.85 2.80 4.85 3.20 0 0.30 -0.30 0.15 -2.70 -1.40z"/>
  <path d="M74.30 121.50 c0.15 -0.70 0.55 -1.60 0.80 -2 0.30 -0.50 0.35 -0.35 0.10 0.50 -0.15 0.70 -0.55 1.60 -0.80 2 -0.30 0.50 -0.35 0.35 -0.10 -0.50z"/>
  <path d="M75.80 117.50 c0.15 -0.70 0.55 -1.60 0.80 -2 0.30 -0.50 0.35 -0.35 0.10 0.50 -0.15 0.70 -0.55 1.60 -0.80 2 -0.30 0.50 -0.35 0.35 -0.10 -0.50z"/>
  <path d="M83.75 108.50 c0.45 -0.80 0.90 -1.50 1.05 -1.50 0.10 0 -0.10 0.70 -0.55 1.50 -0.45 0.85 -0.90 1.50 -1.05 1.50 -0.10 0 0.10 -0.65 0.55 -1.50z"/>
  <path d="M85.90 104.70 c0.55 -1.10 1.35 -2.30 1.80 -2.65 1.35 -1.15 5.55 -8.20 7.05 -11.80 0.75 -1.90 1.60 -3.70 1.85 -4 0.25 -0.25 0.05 0.65 -0.50 2 -0.55 1.40 -1.40 3.50 -1.90 4.75 -0.45 1.25 -2.55 4.60 -4.60 7.50 -4.40 6.20 -5.05 6.95 -3.70 4.20z"/>
  <path d="M87.60 95.10 c2 -2.80 8.60 -10.55 8.80 -10.35 0.25 0.20 -8.80 11.25 -9.20 11.25 -0.15 0 0.05 -0.40 0.40 -0.90z"/>
  <path d="M85.95 94.75 c0.25 -0.55 0.85 -1.45 1.30 -2 l0.80 -1 -0.50 1 c-0.25 0.55 -0.85 1.45 -1.30 2 l-0.80 1 0.50 -1z"/>
  <path d="M89.40 89.30 c0.75 -1.20 1.45 -2.10 1.55 -2 0.20 0.20 -2.35 4.20 -2.70 4.20 -0.10 0 0.40 -1 1.15 -2.20z"/>
  <path d="M183.05 393.15 c-2.60 -1.35 -3.80 -3.30 -3.80 -6.15 0 -1.90 0.25 -2.70 1.25 -3.75 1.45 -1.60 3.90 -2.75 5.80 -2.75 1.90 0 4.95 3.20 5.40 5.65 0.90 4.90 -4.40 9.15 -8.65 7z m5.05 -3 c1.65 -1.50 0.65 -6.55 -1.50 -7.40 -1.15 -0.45 -4 1.10 -4.80 2.70 -0.85 1.65 -0.65 2.75 0.85 4.45 1.25 1.35 4.10 1.50 5.45 0.25z"/>
 </g>
</svg>