<svg width="35" height="70" viewBox="0 0 35 70" fill="none" xmlns="http://www.w3.org/2000/svg">
<g clip-path="url(#clip0_508_2763)">
<path d="M3.89997 37.5001C5.09997 36.8001 6.09997 38.2001 15.1 52.3001C19 58.3001 22.6 63.0001 23.5 63.0001C25.5 63.0001 26.8 59.5001 28.3 49.6001C29.2 43.7001 30 41.5001 31 41.5001C32.8 41.5001 32.6 47.3001 30.4 57.0001C27 71.9001 22.6 70.4001 9.59997 50.2001C2.79997 39.7001 2.29997 38.5001 3.89997 37.5001Z" fill="black"/>
<path d="M18.9999 7.5C19.5999 7.1 20.4999 7.2 20.9999 7.6C21.3999 8.1 21.9999 17.4 22.1999 28.3C22.5999 44 22.3999 48 21.3999 48C20.6999 48 19.8999 47.7 19.6999 47.3C19.3999 46.8 18.8999 37.9 18.4999 27.4C17.9999 13 18.0999 8.1 18.9999 7.5Z" fill="black"/>
</g>
<defs>
<clipPath id="clip0_508_2763">
<rect width="70" height="35" fill="white" transform="matrix(0 1 -1 0 35 0)"/>
</clipPath>
</defs>
</svg>
