<?xml version="1.0" encoding="utf-8"?>
<!DOCTYPE svg PUBLIC "-//W3C//DTD SVG 1.0//EN" "http://www.w3.org/TR/2001/REC-SVG-20010904/DTD/svg10.dtd">
<svg version="1.0" xmlns="http://www.w3.org/2000/svg" width="70px" height="35px" viewBox="0 0 70 35" preserveAspectRatio="xMidYMid meet">
 <g fill="#000000">
  <path d="M37.5 31.1 c-0.7 -1.2 0.7 -2.2 14.8 -11.2 6 -3.9 10.7 -7.5 10.7 -8.4 0 -2 -3.5 -3.3 -13.4 -4.8 -5.9 -0.9 -8.1 -1.7 -8.1 -2.7 0 -1.8 5.8 -1.6 15.5 0.6 14.9 3.4 13.4 7.8 -6.8 20.8 -10.5 6.8 -11.7 7.3 -12.7 5.7z"/>
  <path d="M7.5 16 c-0.4 -0.6 -0.3 -1.5 0.1 -2 0.5 -0.4 9.8 -1 20.7 -1.2 15.7 -0.4 19.7 -0.2 19.7 0.8 0 0.7 -0.3 1.5 -0.7 1.7 -0.5 0.3 -9.4 0.8 -19.9 1.2 -14.4 0.5 -19.3 0.4 -19.9 -0.5z"/>
 </g>
</svg>