<svg width="110" height="92" viewBox="0 0 110 92" fill="none" xmlns="http://www.w3.org/2000/svg">
<g filter="url(#filter0_i_200_1400)">
<mask id="path-1-inside-1_200_1400" fill="white">
<path d="M108.513 77.4952C108.933 77.4952 109.268 77.6078 109.519 77.832C109.771 78.0422 109.924 78.3292 109.98 78.6936C110.036 79.0579 109.973 79.4503 109.792 79.8708L105.033 90.5919C104.782 91.1523 104.502 91.5234 104.195 91.7055C103.901 91.9017 103.524 92 103.063 92C102.63 92 102.28 91.8881 102.015 91.6638C101.749 91.4397 101.582 91.1453 101.512 90.7811C101.456 90.4167 101.519 90.0309 101.701 89.6245L102.766 87.3124L99.5204 79.8708C99.3387 79.4503 99.2758 79.0579 99.3317 78.6936C99.4016 78.3292 99.5904 78.0422 99.8978 77.832C100.205 77.6078 100.624 77.4952 101.156 77.4952C101.603 77.4952 101.959 77.6006 102.224 77.8108C102.504 78.007 102.756 78.3994 102.979 78.988L104.728 83.5486L106.585 78.9668C106.808 78.3925 107.06 78.0071 107.339 77.8108C107.632 77.6006 108.024 77.4952 108.513 77.4952Z"/>
<path fill-rule="evenodd" clip-rule="evenodd" d="M31.4202 77.4535C32.1888 77.4535 32.8877 77.5797 33.5165 77.832C34.1454 78.0702 34.6834 78.4275 35.1305 78.904C35.5777 79.3664 35.9132 79.9268 36.1368 80.5854C36.3744 81.2441 36.4931 81.9801 36.4931 82.7929C36.4931 83.0731 36.4165 83.2834 36.2628 83.4235C36.1091 83.5496 35.8644 83.6127 35.5291 83.6127H29.5612C29.6564 84.1605 29.8494 84.5811 30.1414 84.874C30.5886 85.2944 31.2739 85.5046 32.1962 85.5046C32.5036 85.5046 32.8529 85.4694 33.244 85.3994C33.6492 85.3153 34.0335 85.2033 34.3968 85.0632C34.7601 84.9231 35.0748 84.9016 35.3404 84.9997C35.6058 85.0838 35.8083 85.2381 35.9481 85.4623C36.1018 85.6724 36.1855 85.9179 36.1995 86.1981C36.2135 86.4643 36.1505 86.7305 36.0108 86.9968C35.871 87.249 35.6407 87.4456 35.3192 87.5857C34.8302 87.8099 34.3058 87.9778 33.7468 88.0899C33.202 88.202 32.6501 88.258 32.0913 88.258C30.8336 88.258 29.7434 88.0413 28.8211 87.6069C27.9128 87.1584 27.2139 86.5278 26.7248 85.715C26.2356 84.9022 25.991 83.9417 25.991 82.8346C25.991 81.7696 26.222 80.8376 26.6832 80.0388C27.1583 79.2261 27.8009 78.5954 28.6113 78.147C29.4357 77.6845 30.3722 77.4535 31.4202 77.4535ZM31.5878 79.8708C31.1547 79.8708 30.7775 79.9762 30.4562 80.1864C30.1488 80.3826 29.9112 80.6768 29.7435 81.0691C29.6468 81.2956 29.5791 81.5548 29.5382 81.8466H33.4251C33.4043 81.4517 33.3372 81.1223 33.2229 80.8587C33.0832 80.5364 32.8735 80.291 32.5941 80.1229C32.3286 79.9548 31.993 79.8708 31.5878 79.8708Z"/>
<path d="M40.6813 74.489C41.282 74.4891 41.743 74.6505 42.0643 74.9727C42.3857 75.2951 42.5467 75.7649 42.5467 76.3815V77.6844H44.2656C44.7266 77.6845 45.0759 77.8036 45.3134 78.0418C45.5649 78.266 45.6908 78.6025 45.6908 79.0509C45.6908 79.4993 45.565 79.8429 45.3134 80.0812C45.0759 80.3193 44.7266 80.4385 44.2656 80.4385H42.5467V83.7385C42.5467 84.257 42.6654 84.6429 42.903 84.8951C43.1545 85.1333 43.5459 85.2525 44.0769 85.2525C44.2725 85.2525 44.4613 85.231 44.643 85.189C44.8245 85.147 44.9922 85.1261 45.1458 85.1261C45.3694 85.1121 45.5511 85.1824 45.6908 85.3365C45.8305 85.4767 45.9007 85.806 45.9007 86.3245C45.9007 86.7448 45.8377 87.1022 45.712 87.3964C45.5862 87.6767 45.3623 87.8798 45.0409 88.0059C44.8453 88.0759 44.5798 88.1319 44.2445 88.174C43.9091 88.23 43.6365 88.258 43.4269 88.258C42.3789 88.258 41.5125 88.0972 40.8278 87.7749C40.1571 87.4526 39.6541 86.969 39.3187 86.3245C38.9833 85.6658 38.8153 84.8458 38.8153 83.8649V80.4385H38.1026C37.6556 80.4385 37.3063 80.3193 37.0548 80.0812C36.8172 79.8429 36.6985 79.4993 36.6985 79.0509C36.6985 78.6025 36.8172 78.266 37.0548 78.0418C37.3063 77.8036 37.6556 77.6844 38.1026 77.6844H38.8153V76.3815C38.8153 75.7649 38.9762 75.2951 39.2976 74.9727C39.619 74.6505 40.0804 74.489 40.6813 74.489Z"/>
<path fill-rule="evenodd" clip-rule="evenodd" d="M67.5458 77.4535C68.6916 77.4535 69.6347 77.6215 70.3753 77.9577C71.1298 78.28 71.6893 78.7845 72.0526 79.4711C72.4299 80.1438 72.6187 81.0131 72.6187 82.0782V86.3245C72.6187 86.9409 72.4719 87.4103 72.1786 87.7326C71.8852 88.0549 71.4587 88.2163 70.8998 88.2163C70.3269 88.2163 69.8863 88.0549 69.5788 87.7326C69.323 87.4515 69.1785 87.0584 69.1458 86.5535C69.0596 86.8027 68.9388 87.0279 68.7824 87.2284C68.5309 87.5506 68.2024 87.8026 67.7973 87.9847C67.392 88.1669 66.9306 88.258 66.4136 88.258C65.6171 88.258 64.9116 88.1109 64.2968 87.8166C63.696 87.5224 63.2208 87.1233 62.8715 86.6189C62.5361 86.1004 62.368 85.5115 62.368 84.8528C62.368 84.096 62.564 83.5006 62.9553 83.0662C63.3466 82.6317 63.9754 82.3233 64.8418 82.1411C65.7081 81.9449 66.8609 81.8466 68.3001 81.8466H69.0971V81.5522C69.0971 81.0478 68.9641 80.6904 68.6986 80.4802C68.4471 80.2701 68.0069 80.1652 67.3782 80.1652C67.0429 80.1652 66.6652 80.2069 66.246 80.2909C65.8268 80.361 65.3588 80.4945 64.8418 80.6906C64.4645 80.8308 64.1426 80.8516 63.8771 80.7535C63.6117 80.6554 63.402 80.4874 63.2483 80.2492C63.1085 80.011 63.0391 79.7514 63.0391 79.4711C63.0531 79.1909 63.144 78.9246 63.3116 78.6724C63.4933 78.4202 63.7659 78.2242 64.1292 78.0841C64.7998 77.8319 65.4145 77.6633 65.9734 77.5792C66.5464 77.4951 67.0707 77.4535 67.5458 77.4535ZM68.3001 83.6127C67.7553 83.6128 67.3013 83.6545 66.9381 83.7385C66.5888 83.8085 66.3299 83.9277 66.1622 84.0958C65.9945 84.25 65.9108 84.4536 65.9108 84.7059C65.9108 85.0281 66.0224 85.2944 66.246 85.5046C66.4835 85.7148 66.819 85.8196 67.2522 85.8196C67.6016 85.8196 67.9092 85.7428 68.1747 85.5886C68.4541 85.4345 68.6774 85.2242 68.8451 84.958C69.0127 84.6778 69.0971 84.3555 69.0971 83.9912V83.6127H68.3001Z"/>
<path fill-rule="evenodd" clip-rule="evenodd" d="M26.1689 0C26.3981 0.000100144 26.7295 0.216995 27.2007 0.663975C27.5828 1.03442 28.2576 1.67367 28.7034 2.09521L29.5062 2.86119L30.6782 2.26072C31.9259 1.60959 32.8046 1.36701 32.8052 1.67309C32.8052 1.8647 32.0156 2.61889 30.6654 3.67913C29.812 4.35611 29.7478 4.43263 29.8369 4.79024C29.8752 5.00738 29.9136 5.51827 29.9009 5.92702C29.8882 6.57849 29.9394 6.73196 30.2579 7.12795L30.627 7.58792L30.3084 7.88174C30.1047 8.07326 30.0029 8.26468 30.0538 8.39239C30.1048 8.49458 30.0663 8.661 29.9898 8.76319C29.9134 8.85297 29.8118 9.19742 29.7736 9.52917C29.659 10.3466 29.4678 10.4365 28.3599 10.2194C27.7996 10.1173 27.4046 10.0916 27.328 10.1681C27.1242 10.3725 26.4363 12.4799 26.4363 12.9016C26.4363 13.5914 28.1429 16.606 29.1365 17.6919C30.0536 18.6755 30.6398 19.7361 30.6398 20.3876C30.6397 20.9499 30.2956 22.712 30.0154 23.6061C29.8371 24.1554 29.7607 24.8456 29.7352 26.3274L29.6841 28.32L30.4485 29.1758C30.8688 29.6484 32.2319 30.9255 33.4929 32.0113C35.6583 33.8635 35.8239 33.9918 36.8046 34.3112C37.9128 34.6816 38.3209 35.0136 38.9323 36.0227C39.1996 36.4695 39.2502 36.6228 39.1357 36.8015C39.0211 36.9804 39.0469 37.0827 39.1997 37.2615C39.3144 37.3893 39.8617 38.22 40.4222 39.1142C41.8998 41.4518 42.8426 42.6654 44.5112 44.326C48.9185 48.7202 56.154 52.7436 62.1026 54.0976C62.8413 54.2637 63.6055 54.4681 63.8093 54.5448C64.3954 54.7619 67.1967 55.3112 67.7704 55.3114C68.0506 55.3114 68.535 55.3752 68.8534 55.4519C69.1591 55.5157 69.6305 55.5415 69.8853 55.5032C70.3437 55.4266 70.3694 55.3879 70.6241 54.5704C70.7642 54.0978 71.0318 53.4973 71.2101 53.2418C71.5284 52.7694 71.5281 52.7435 71.4007 51.6451C71.2861 50.7128 71.2993 50.3423 71.4903 49.2823C71.6176 48.58 71.7702 48.0434 71.8466 48.0686C71.9103 48.0941 72.165 48.4388 72.407 48.8474C72.649 49.2562 73.0568 49.8186 73.3115 50.0996C73.7573 50.6105 73.7701 50.6103 74.2666 50.4698C75.2984 50.1888 76.3687 50.3808 76.3687 50.8534C76.3689 51.3259 76.9549 51.5305 78.394 51.5816C79.1328 51.6071 79.7953 51.6838 79.859 51.7349C80.0242 51.9012 79.8207 52.5524 79.4515 52.9993C79.235 53.2547 78.8527 53.4971 78.4324 53.6376L77.7441 53.8808L78.2923 54.1746C79.1837 54.6727 79.0817 54.7619 77.5151 54.8257L76.0885 54.8642L75.5915 55.4005C75.324 55.6943 75.0694 56.0904 75.0311 56.2948C74.9929 56.4864 74.8784 56.8185 74.7765 57.0101C74.5217 57.4955 74.5342 57.6493 74.8526 57.8409C75.1965 58.058 75.1201 58.4407 74.7125 58.4407C74.407 58.4407 74.3941 58.4797 74.305 59.5396C74.2668 60.1528 74.178 60.7533 74.1016 60.8811C74.0379 61.0216 73.9485 61.3662 73.8975 61.6599C73.7574 62.5923 73.3118 63.6018 72.6494 64.4704C72.1018 65.2112 72.0248 65.3645 72.1012 65.7348C72.1904 66.2713 72.8406 67.14 73.5284 67.6382C74.127 68.0853 74.4579 68.571 74.4579 69.0053C74.4577 69.1716 74.1902 69.7076 73.8719 70.1927C73.5535 70.6908 73.1843 71.2914 73.0441 71.5342C72.662 72.1984 72.2543 72.4543 71.7321 72.3521C71.4901 72.3138 71.2605 72.1855 71.2223 72.0833C71.1208 71.8148 71.503 71.0486 71.8722 70.7932C72.6746 70.2312 72.9039 69.9757 73.0186 69.5031C73.1586 68.9794 73.0441 68.596 72.7384 68.596C72.6492 68.596 72.0632 68.4302 71.4391 68.213C70.5604 67.9193 70.2292 67.7404 69.9109 67.3701L69.5027 66.8973L68.9046 67.1526C68.3569 67.3697 68.2799 67.4594 68.0634 68.0854C67.452 69.8354 67.1213 72.9012 67.4525 73.757C67.5162 73.9486 67.6687 74.0893 67.8088 74.0894C68.4202 74.0894 69.0061 74.9704 68.522 75.162C68.2418 75.2769 67.3125 75.239 66.9938 75.1113C66.739 75.0091 66.5605 74.6764 66.3694 73.9611C66.3184 73.7822 66.1525 73.5144 66.0125 73.3612C65.7832 73.1058 65.7706 73.0161 65.898 72.5946C66.14 71.7515 66.14 67.076 65.898 67.0121C65.8077 66.9862 64.9931 66.7308 64.0767 66.4373C62.2298 65.8497 61.5036 65.7091 61.0195 65.8368C60.6756 65.9262 60.6758 65.9266 60.7649 66.7952C60.8159 67.2933 60.7901 67.8678 60.7138 68.1617C60.5609 68.7238 59.7075 69.6313 58.8285 70.1806C58.281 70.5254 57.8991 71.0616 57.899 71.5213C57.899 72.109 59.3001 73.1951 60.0517 73.1951C60.7394 73.1952 61.4909 73.9616 61.0707 74.2299C60.988 74.2817 60.6866 74.3231 60.3376 74.3376C60.3649 74.488 60.3805 74.6506 60.3805 74.8258V86.4714C60.3805 87.0039 60.2409 87.4314 59.9615 87.7538C59.682 88.0621 59.3043 88.2163 58.8292 88.2163C58.3542 88.2163 57.977 88.1323 57.6975 87.9642C57.432 87.782 57.1452 87.5015 56.8378 87.1232L50.7804 79.5147V86.3873C50.7804 86.9899 50.6265 87.4455 50.3191 87.7538C50.0257 88.0621 49.5851 88.2163 48.9981 88.2163C48.4113 88.2163 47.9641 88.0621 47.6567 87.7538C47.3493 87.4455 47.1954 86.9899 47.1954 86.3873V74.931C47.1954 74.3144 47.3492 73.8446 47.6567 73.5222C47.9641 73.1859 48.3697 73.018 48.8728 73.018C48.9478 73.018 49.0201 73.021 49.0896 73.0257C49.1603 72.905 49.2591 72.7592 49.3647 72.6203C49.5939 72.3265 49.8869 71.6877 50.078 71.0364C50.2563 70.436 50.4981 69.7201 50.6 69.4646C50.7909 69.0178 50.842 68.9796 51.3004 68.9796C52.2558 68.9796 52.9821 68.4687 53.3769 67.5362C53.5298 67.1786 53.5551 66.8207 53.4914 66.0671C53.4278 65.1346 53.4405 65.0066 53.9373 63.6909C54.2298 62.9257 54.4586 62.2624 54.4593 62.1968C54.4593 62.1457 54.1281 61.9923 53.7333 61.8645C52.6762 61.5324 52.0523 60.868 51.6702 59.6801C51.3135 58.5688 51.3387 57.2785 51.7335 56.7548C52.1921 56.1416 53.0076 55.6562 53.6827 55.5924C54.4468 55.5285 54.5356 55.7076 54.0007 56.2185C53.4021 56.7678 53.0072 57.7133 53.0072 58.569C53.0072 59.4503 53.2497 60.0124 53.8228 60.4211C54.4851 60.8936 55.0329 60.8807 56.1155 60.3826C57.3129 59.8333 59.491 59.3099 61.2869 59.1438C64.0893 58.8756 64.8793 58.7089 66.5607 57.9936C67.4395 57.6231 68.3947 57.1761 68.6749 56.9973C69.1972 56.6779 69.5668 56.2436 69.4394 56.1158C69.4007 56.0775 68.9293 56.0013 68.3819 55.9375C66.9426 55.7587 64.6114 55.3112 63.4396 54.9791C62.8791 54.8258 61.9618 54.5961 61.4014 54.4684C58.2552 53.7913 53.1857 51.5044 49.8739 49.2945C47.0971 47.4296 46.065 46.6248 44.4728 45.0919C42.817 43.4953 41.3651 41.707 40.0787 39.6377C38.7667 37.5556 38.3076 36.9936 38.0783 37.1852C37.9511 37.2872 37.8493 37.3 37.7348 37.1852C37.633 37.1086 37.5185 37.083 37.4802 37.1339C37.4293 37.1721 37.3145 37.134 37.2 37.0447C37.0853 36.9553 36.9701 36.9166 36.9192 36.9677C36.8675 37.0052 36.2187 36.4308 35.4677 35.6904C34.7289 34.9495 33.7603 34.1194 33.34 33.8384C32.4484 33.2891 30.1053 32.0629 29.9137 32.0626C29.7609 32.0626 29.6459 33.2125 29.544 36.0356L29.455 38.1686L30.2323 39.8039C31.2131 41.8988 32.1555 44.2877 32.6523 45.9227C33.4675 48.6052 34.2064 51.5943 34.3974 53.0122C34.7286 55.4901 34.843 56.0651 35.3525 58.1854C35.9512 60.5997 36.2446 61.6473 36.614 62.567C36.7668 62.9501 36.8555 63.3715 36.8046 63.5376C36.6391 64.189 38.8426 68.7749 39.6833 69.5416C40.4093 70.2058 42.0908 70.9848 43.3009 71.2275C44.2817 71.4319 44.3204 71.4322 44.9955 71.1512C45.6705 70.8702 46.1165 70.8831 46.0273 71.1897C45.9378 71.458 44.8039 72.1474 43.7596 72.5433C42.8934 72.8882 42.5875 72.9398 41.5558 72.9398C40.8937 72.9398 40.1681 72.9778 39.9386 73.0161C39.5819 73.0927 39.5434 73.1439 39.5816 73.4761C39.658 73.9231 39.5177 74.0379 38.8172 74.1529L38.2824 74.2427L37.7732 73.1309C37.3656 72.2367 37.2633 71.8792 37.2633 71.266C37.2633 70.2186 36.7539 68.9668 35.302 66.4123L34.1044 64.3171L33.0726 64.2786C32.1682 64.253 31.9389 64.2915 31.1874 64.6109C29.9646 65.1346 29.939 65.1471 26.5763 65.2748C21.8125 65.4665 20.2457 65.2239 17.4944 63.8699C16.9214 63.589 16.3864 63.3594 16.3097 63.3593C16.1186 63.3593 15.1251 64.9049 14.45 66.2589C13.5967 67.9451 13.3545 69.7717 13.6984 71.8921C13.8381 72.7218 13.9329 72.9782 14.372 73.299C14.5849 73.2386 14.8215 73.2073 15.0821 73.2073H20.2388C21.9156 73.2073 23.2084 73.6414 24.1167 74.5102C25.039 75.3651 25.4997 76.5494 25.4997 78.0629C25.4997 79.5765 25.039 80.768 24.1167 81.6369C23.2084 82.4917 21.9156 82.9186 20.2388 82.9186H16.9897V86.2609C16.9897 86.8775 16.8286 87.3611 16.5073 87.7114C16.1859 88.0478 15.7037 88.2163 15.061 88.2163C14.4461 88.2163 13.9711 88.0478 13.6357 87.7114C13.3003 87.3611 13.1322 86.8775 13.1322 86.2609V75.162C13.1322 74.6866 13.2276 74.2949 13.4182 73.9867L13.3011 73.911C12.7305 73.5255 12.3526 73.0269 12.0422 72.2366C11.8766 71.8151 11.5202 71.0235 11.2528 70.4744C10.8326 69.6317 10.7305 69.4906 10.5651 69.6308C10.4634 69.7072 10.3613 69.7586 10.3482 69.7334C10.3227 69.7079 10.0937 69.4138 9.83901 69.0945C9.58425 68.7751 9.36755 68.43 9.36755 68.3279C9.36777 68.1107 9.74963 67.74 10.7173 67.0249C11.851 66.1818 13.0107 64.419 13.5839 62.6562L13.8641 61.7875L13.5583 61.5579C13.0743 61.1874 8.11967 59.1056 7.06204 58.8243C5.82646 58.505 5.16384 58.5687 4.39957 59.0797L3.73747 59.5268L2.93464 59.0797C2.13233 58.6199 2.13245 58.6198 2.27254 58.2367C2.42539 57.8535 2.39958 57.8281 1.76269 57.2533C0.947465 56.4996 -0.0837557 55.2093 0.00540946 55.0432C0.158543 54.8132 1.91562 53.7401 2.92184 53.2547C3.94085 52.782 6.34834 51.8494 8.985 50.9041C10.539 50.3421 11.1763 49.9461 11.966 49.0135C12.2719 48.6557 13.2271 47.5321 14.0931 46.5232C14.959 45.5143 15.9142 44.4029 16.2201 44.0321C17.0863 42.9719 18.1691 40.5828 19.4302 36.9805C19.7995 35.9332 20.2967 34.669 20.5388 34.1835C21.0228 33.2254 23.0352 29.8145 23.6721 28.882C24.0414 28.3456 24.0415 28.3199 23.8505 27.9113C23.7359 27.6814 23.5828 26.8894 23.5064 26.1741C23.43 25.446 23.3412 24.8196 23.303 24.7685C23.2771 24.7174 22.8058 24.5896 22.2711 24.4747C21.0997 24.2193 20.4497 23.9514 20.4492 23.7216C20.4492 23.6321 20.6152 23.2871 20.8318 22.9549C21.0356 22.6228 21.3154 22.1371 21.4555 21.8688C21.723 21.332 22.4238 17.9854 22.5257 16.7719C22.6021 15.8397 22.462 15.7505 21.8252 16.287C21.3667 16.6702 21.2137 16.6826 21.2137 16.3505C21.2136 16.0441 21.0736 16.0317 20.5516 16.2998L20.1562 16.5038L20.2202 15.9162L20.2963 15.3157L19.9528 15.5332L19.6214 15.7506L20.1306 15.163L19.5575 15.2522C19.0227 15.3288 18.9976 15.3289 19.2395 15.1373C19.4942 14.9458 19.4943 14.9453 19.2523 14.7537C19.1123 14.6516 18.8955 14.5626 18.7809 14.5625C18.3096 14.5625 18.3603 14.1916 18.857 14.0128C18.9333 13.9745 18.9461 13.9111 18.8954 13.8601C18.8444 13.809 18.717 13.8342 18.6024 13.9236C18.5005 14.013 18.4112 14.0258 18.4111 13.9493C18.4111 13.7832 18.717 13.6683 19.1756 13.6683C19.3794 13.6683 19.634 13.5786 19.7359 13.4636C19.9779 13.2337 19.9782 13.2081 19.7999 12.876C19.5835 12.4801 19.8635 11.9949 20.5765 11.5224C21.2771 11.0625 21.3792 10.8578 20.9079 10.8578C20.7296 10.8577 20.5514 10.794 20.5132 10.7301C20.3603 10.4746 20.9714 9.47818 21.863 8.54571C22.9202 7.4216 22.9206 7.34497 22.1054 5.64603C21.8253 5.05858 21.5957 4.42012 21.5956 4.2411C21.5956 3.74298 22.2325 2.72112 23.0221 1.95472C23.8246 1.16273 25.6976 0 26.1689 0ZM56.88 69.1073C56.8036 69.1073 56.5102 69.2859 56.2172 69.4903C55.5676 69.9757 54.6248 70.2569 53.7077 70.2569C51.6444 70.2825 50.9439 70.9212 50.4599 73.2586C50.4303 73.3983 50.3949 73.5279 50.3594 73.648C50.4869 73.7795 50.6204 73.9339 50.7593 74.1112L56.8173 81.7004V74.8258C56.8173 74.2373 56.964 73.7889 57.2574 73.4806C57.4163 73.3213 57.6125 73.2034 57.8459 73.1264C57.4729 72.83 57.0967 72.5477 56.8672 72.4028C56.5105 72.1856 56.2428 71.9301 56.2428 71.8152C56.243 71.6872 56.421 71.253 56.6247 70.8317C56.994 70.0911 57.1471 69.108 56.88 69.1073ZM16.9897 79.9548H19.5677C20.2943 79.9548 20.8531 79.8005 21.2444 79.4922C21.6357 79.1699 21.8316 78.6936 21.8316 78.0629C21.8316 77.4183 21.6357 76.9419 21.2444 76.6336C20.8531 76.3254 20.2943 76.1711 19.5677 76.1711H16.9897V79.9548ZM32.1303 51.0959C32.0539 51.1726 31.3914 54.302 30.9456 56.7163C30.7035 58.0192 30.6012 59.0541 30.5502 60.9574C30.4611 64.0232 30.5251 64.3679 31.0601 63.9719C31.251 63.8187 31.2511 63.6778 31.0601 61.9537C30.8053 59.7183 30.8942 58.4919 31.5821 54.9919C32.0277 52.7701 32.2828 50.9696 32.1303 51.0959ZM21.4555 40.1997C21.6211 39.3055 21.443 39.6121 20.9463 41.0555C20.717 41.758 20.36 42.576 20.1562 42.8825C19.7356 43.5215 17.9397 45.5394 17.1119 46.3057C13.1251 50.0355 12.1827 50.8662 11.1383 51.5816C10.1575 52.2458 7.88986 53.5355 5.7372 54.6724C3.55902 55.8093 2.51444 56.4355 2.24695 56.7676C1.95402 57.1125 2.32369 57.0106 3.03699 56.538C3.66089 56.1421 6.28175 54.6742 6.3993 54.6724C6.42477 54.6724 7.0873 54.3022 7.87702 53.8551C8.66673 53.4208 9.71125 52.8333 10.1953 52.565C12.3607 51.3771 13.2142 50.7 15.7998 48.1071C18.6658 45.2329 19.1628 44.6961 20.0417 43.5337C20.6659 42.7034 21.2389 41.3366 21.4555 40.1997ZM23.5576 30.2741C23.4047 30.2741 22.1054 33.366 22.1054 33.7492C22.1055 34.0169 22.2457 33.7613 22.6786 32.6759C23.557 30.4673 23.6338 30.2743 23.5576 30.2741ZM20.0673 13.6041C20.3219 13.2977 20.1435 13.2468 19.876 13.5406C19.7488 13.681 19.7107 13.7959 19.7743 13.7959C19.8508 13.7959 19.9782 13.7063 20.0673 13.6041ZM20.5765 12.0074C21.0733 11.6497 21.0733 11.4324 20.5765 11.6879C20.1053 11.9306 19.7742 12.4166 19.8888 12.6976C20.0035 13.004 20.1946 12.9398 20.1946 12.595C20.1947 12.3907 20.3346 12.1861 20.5765 12.0074Z"/>
<path d="M81.7026 77.4535C82.5269 77.4535 83.2046 77.6144 83.7356 77.9366C84.2666 78.2449 84.6651 78.7356 84.9306 79.4082C85.1961 80.0669 85.3291 80.9011 85.3291 81.9101V86.3245C85.3291 86.941 85.1682 87.4103 84.8468 87.7326C84.5254 88.0549 84.064 88.2163 83.4631 88.2163C82.8623 88.2163 82.4014 88.0549 82.08 87.7326C81.7586 87.4103 81.5977 86.941 81.5977 86.3245V82.0571C81.5977 81.4265 81.486 80.9781 81.2625 80.7118C81.0529 80.4455 80.7381 80.3121 80.3189 80.3121C79.76 80.3122 79.3128 80.4944 78.9774 80.8587C78.6421 81.209 78.4747 81.6855 78.4746 82.288V86.3245C78.4746 87.5856 77.8456 88.2162 76.5881 88.2163C76.0012 88.2163 75.547 88.0549 75.2255 87.7326C74.9042 87.4103 74.7432 86.941 74.7432 86.3245V79.3665C74.7432 78.7639 74.897 78.3012 75.2044 77.9789C75.5259 77.6566 75.9801 77.4952 76.567 77.4952C77.1539 77.4952 77.6011 77.6566 77.9085 77.9789C78.1718 78.255 78.3211 78.634 78.3588 79.1157C78.6718 78.6385 79.0731 78.259 79.5647 77.9789C80.1935 77.6286 80.9061 77.4535 81.7026 77.4535Z"/>
<path d="M94.4149 77.4535C95.2392 77.4535 95.9169 77.6144 96.4479 77.9366C96.9789 78.2449 97.3773 78.7356 97.6429 79.4082C97.9084 80.0669 98.0414 80.9011 98.0414 81.9101V86.3245C98.0414 86.941 97.8804 87.4103 97.5591 87.7326C97.2376 88.0549 96.7763 88.2163 96.1754 88.2163C95.5746 88.2163 95.1137 88.0549 94.7923 87.7326C94.4709 87.4103 94.31 86.941 94.31 86.3245V82.0571C94.31 81.4265 94.1983 80.9781 93.9748 80.7118C93.7652 80.4455 93.4504 80.3121 93.0312 80.3121C92.4723 80.3122 92.0251 80.4944 91.6897 80.8587C91.3544 81.209 91.187 81.6855 91.1869 82.288V86.3245C91.1869 87.5856 90.5579 88.2162 89.3004 88.2163C88.7135 88.2163 88.2593 88.0549 87.9378 87.7326C87.6164 87.4103 87.4555 86.941 87.4555 86.3245V79.3665C87.4555 78.7639 87.6093 78.3012 87.9167 77.9789C88.2381 77.6566 88.6924 77.4952 89.2793 77.4952C89.8662 77.4952 90.3134 77.6566 90.6208 77.9789C90.8841 78.255 91.0334 78.634 91.0711 79.1157C91.3841 78.6385 91.7854 78.259 92.277 77.9789C92.9058 77.6286 93.6184 77.4535 94.4149 77.4535Z"/>
</mask>
<path d="M108.513 77.4952C108.933 77.4952 109.268 77.6078 109.519 77.832C109.771 78.0422 109.924 78.3292 109.98 78.6936C110.036 79.0579 109.973 79.4503 109.792 79.8708L105.033 90.5919C104.782 91.1523 104.502 91.5234 104.195 91.7055C103.901 91.9017 103.524 92 103.063 92C102.63 92 102.28 91.8881 102.015 91.6638C101.749 91.4397 101.582 91.1453 101.512 90.7811C101.456 90.4167 101.519 90.0309 101.701 89.6245L102.766 87.3124L99.5204 79.8708C99.3387 79.4503 99.2758 79.0579 99.3317 78.6936C99.4016 78.3292 99.5904 78.0422 99.8978 77.832C100.205 77.6078 100.624 77.4952 101.156 77.4952C101.603 77.4952 101.959 77.6006 102.224 77.8108C102.504 78.007 102.756 78.3994 102.979 78.988L104.728 83.5486L106.585 78.9668C106.808 78.3925 107.06 78.0071 107.339 77.8108C107.632 77.6006 108.024 77.4952 108.513 77.4952Z" stroke="black" stroke-width="3" mask="url(#path-1-inside-1_200_1400)"/>
<path fill-rule="evenodd" clip-rule="evenodd" d="M31.4202 77.4535C32.1888 77.4535 32.8877 77.5797 33.5165 77.832C34.1454 78.0702 34.6834 78.4275 35.1305 78.904C35.5777 79.3664 35.9132 79.9268 36.1368 80.5854C36.3744 81.2441 36.4931 81.9801 36.4931 82.7929C36.4931 83.0731 36.4165 83.2834 36.2628 83.4235C36.1091 83.5496 35.8644 83.6127 35.5291 83.6127H29.5612C29.6564 84.1605 29.8494 84.5811 30.1414 84.874C30.5886 85.2944 31.2739 85.5046 32.1962 85.5046C32.5036 85.5046 32.8529 85.4694 33.244 85.3994C33.6492 85.3153 34.0335 85.2033 34.3968 85.0632C34.7601 84.9231 35.0748 84.9016 35.3404 84.9997C35.6058 85.0838 35.8083 85.2381 35.9481 85.4623C36.1018 85.6724 36.1855 85.9179 36.1995 86.1981C36.2135 86.4643 36.1505 86.7305 36.0108 86.9968C35.871 87.249 35.6407 87.4456 35.3192 87.5857C34.8302 87.8099 34.3058 87.9778 33.7468 88.0899C33.202 88.202 32.6501 88.258 32.0913 88.258C30.8336 88.258 29.7434 88.0413 28.8211 87.6069C27.9128 87.1584 27.2139 86.5278 26.7248 85.715C26.2356 84.9022 25.991 83.9417 25.991 82.8346C25.991 81.7696 26.222 80.8376 26.6832 80.0388C27.1583 79.2261 27.8009 78.5954 28.6113 78.147C29.4357 77.6845 30.3722 77.4535 31.4202 77.4535ZM31.5878 79.8708C31.1547 79.8708 30.7775 79.9762 30.4562 80.1864C30.1488 80.3826 29.9112 80.6768 29.7435 81.0691C29.6468 81.2956 29.5791 81.5548 29.5382 81.8466H33.4251C33.4043 81.4517 33.3372 81.1223 33.2229 80.8587C33.0832 80.5364 32.8735 80.291 32.5941 80.1229C32.3286 79.9548 31.993 79.8708 31.5878 79.8708Z" stroke="black" stroke-width="3" mask="url(#path-1-inside-1_200_1400)"/>
<path d="M40.6813 74.489C41.282 74.4891 41.743 74.6505 42.0643 74.9727C42.3857 75.2951 42.5467 75.7649 42.5467 76.3815V77.6844H44.2656C44.7266 77.6845 45.0759 77.8036 45.3134 78.0418C45.5649 78.266 45.6908 78.6025 45.6908 79.0509C45.6908 79.4993 45.565 79.8429 45.3134 80.0812C45.0759 80.3193 44.7266 80.4385 44.2656 80.4385H42.5467V83.7385C42.5467 84.257 42.6654 84.6429 42.903 84.8951C43.1545 85.1333 43.5459 85.2525 44.0769 85.2525C44.2725 85.2525 44.4613 85.231 44.643 85.189C44.8245 85.147 44.9922 85.1261 45.1458 85.1261C45.3694 85.1121 45.5511 85.1824 45.6908 85.3365C45.8305 85.4767 45.9007 85.806 45.9007 86.3245C45.9007 86.7448 45.8377 87.1022 45.712 87.3964C45.5862 87.6767 45.3623 87.8798 45.0409 88.0059C44.8453 88.0759 44.5798 88.1319 44.2445 88.174C43.9091 88.23 43.6365 88.258 43.4269 88.258C42.3789 88.258 41.5125 88.0972 40.8278 87.7749C40.1571 87.4526 39.6541 86.969 39.3187 86.3245C38.9833 85.6658 38.8153 84.8458 38.8153 83.8649V80.4385H38.1026C37.6556 80.4385 37.3063 80.3193 37.0548 80.0812C36.8172 79.8429 36.6985 79.4993 36.6985 79.0509C36.6985 78.6025 36.8172 78.266 37.0548 78.0418C37.3063 77.8036 37.6556 77.6844 38.1026 77.6844H38.8153V76.3815C38.8153 75.7649 38.9762 75.2951 39.2976 74.9727C39.619 74.6505 40.0804 74.489 40.6813 74.489Z" stroke="black" stroke-width="3" mask="url(#path-1-inside-1_200_1400)"/>
<path fill-rule="evenodd" clip-rule="evenodd" d="M67.5458 77.4535C68.6916 77.4535 69.6347 77.6215 70.3753 77.9577C71.1298 78.28 71.6893 78.7845 72.0526 79.4711C72.4299 80.1438 72.6187 81.0131 72.6187 82.0782V86.3245C72.6187 86.9409 72.4719 87.4103 72.1786 87.7326C71.8852 88.0549 71.4587 88.2163 70.8998 88.2163C70.3269 88.2163 69.8863 88.0549 69.5788 87.7326C69.323 87.4515 69.1785 87.0584 69.1458 86.5535C69.0596 86.8027 68.9388 87.0279 68.7824 87.2284C68.5309 87.5506 68.2024 87.8026 67.7973 87.9847C67.392 88.1669 66.9306 88.258 66.4136 88.258C65.6171 88.258 64.9116 88.1109 64.2968 87.8166C63.696 87.5224 63.2208 87.1233 62.8715 86.6189C62.5361 86.1004 62.368 85.5115 62.368 84.8528C62.368 84.096 62.564 83.5006 62.9553 83.0662C63.3466 82.6317 63.9754 82.3233 64.8418 82.1411C65.7081 81.9449 66.8609 81.8466 68.3001 81.8466H69.0971V81.5522C69.0971 81.0478 68.9641 80.6904 68.6986 80.4802C68.4471 80.2701 68.0069 80.1652 67.3782 80.1652C67.0429 80.1652 66.6652 80.2069 66.246 80.2909C65.8268 80.361 65.3588 80.4945 64.8418 80.6906C64.4645 80.8308 64.1426 80.8516 63.8771 80.7535C63.6117 80.6554 63.402 80.4874 63.2483 80.2492C63.1085 80.011 63.0391 79.7514 63.0391 79.4711C63.0531 79.1909 63.144 78.9246 63.3116 78.6724C63.4933 78.4202 63.7659 78.2242 64.1292 78.0841C64.7998 77.8319 65.4145 77.6633 65.9734 77.5792C66.5464 77.4951 67.0707 77.4535 67.5458 77.4535ZM68.3001 83.6127C67.7553 83.6128 67.3013 83.6545 66.9381 83.7385C66.5888 83.8085 66.3299 83.9277 66.1622 84.0958C65.9945 84.25 65.9108 84.4536 65.9108 84.7059C65.9108 85.0281 66.0224 85.2944 66.246 85.5046C66.4835 85.7148 66.819 85.8196 67.2522 85.8196C67.6016 85.8196 67.9092 85.7428 68.1747 85.5886C68.4541 85.4345 68.6774 85.2242 68.8451 84.958C69.0127 84.6778 69.0971 84.3555 69.0971 83.9912V83.6127H68.3001Z" stroke="black" stroke-width="3" mask="url(#path-1-inside-1_200_1400)"/>
<path fill-rule="evenodd" clip-rule="evenodd" d="M26.1689 0C26.3981 0.000100144 26.7295 0.216995 27.2007 0.663975C27.5828 1.03442 28.2576 1.67367 28.7034 2.09521L29.5062 2.86119L30.6782 2.26072C31.9259 1.60959 32.8046 1.36701 32.8052 1.67309C32.8052 1.8647 32.0156 2.61889 30.6654 3.67913C29.812 4.35611 29.7478 4.43263 29.8369 4.79024C29.8752 5.00738 29.9136 5.51827 29.9009 5.92702C29.8882 6.57849 29.9394 6.73196 30.2579 7.12795L30.627 7.58792L30.3084 7.88174C30.1047 8.07326 30.0029 8.26468 30.0538 8.39239C30.1048 8.49458 30.0663 8.661 29.9898 8.76319C29.9134 8.85297 29.8118 9.19742 29.7736 9.52917C29.659 10.3466 29.4678 10.4365 28.3599 10.2194C27.7996 10.1173 27.4046 10.0916 27.328 10.1681C27.1242 10.3725 26.4363 12.4799 26.4363 12.9016C26.4363 13.5914 28.1429 16.606 29.1365 17.6919C30.0536 18.6755 30.6398 19.7361 30.6398 20.3876C30.6397 20.9499 30.2956 22.712 30.0154 23.6061C29.8371 24.1554 29.7607 24.8456 29.7352 26.3274L29.6841 28.32L30.4485 29.1758C30.8688 29.6484 32.2319 30.9255 33.4929 32.0113C35.6583 33.8635 35.8239 33.9918 36.8046 34.3112C37.9128 34.6816 38.3209 35.0136 38.9323 36.0227C39.1996 36.4695 39.2502 36.6228 39.1357 36.8015C39.0211 36.9804 39.0469 37.0827 39.1997 37.2615C39.3144 37.3893 39.8617 38.22 40.4222 39.1142C41.8998 41.4518 42.8426 42.6654 44.5112 44.326C48.9185 48.7202 56.154 52.7436 62.1026 54.0976C62.8413 54.2637 63.6055 54.4681 63.8093 54.5448C64.3954 54.7619 67.1967 55.3112 67.7704 55.3114C68.0506 55.3114 68.535 55.3752 68.8534 55.4519C69.1591 55.5157 69.6305 55.5415 69.8853 55.5032C70.3437 55.4266 70.3694 55.3879 70.6241 54.5704C70.7642 54.0978 71.0318 53.4973 71.2101 53.2418C71.5284 52.7694 71.5281 52.7435 71.4007 51.6451C71.2861 50.7128 71.2993 50.3423 71.4903 49.2823C71.6176 48.58 71.7702 48.0434 71.8466 48.0686C71.9103 48.0941 72.165 48.4388 72.407 48.8474C72.649 49.2562 73.0568 49.8186 73.3115 50.0996C73.7573 50.6105 73.7701 50.6103 74.2666 50.4698C75.2984 50.1888 76.3687 50.3808 76.3687 50.8534C76.3689 51.3259 76.9549 51.5305 78.394 51.5816C79.1328 51.6071 79.7953 51.6838 79.859 51.7349C80.0242 51.9012 79.8207 52.5524 79.4515 52.9993C79.235 53.2547 78.8527 53.4971 78.4324 53.6376L77.7441 53.8808L78.2923 54.1746C79.1837 54.6727 79.0817 54.7619 77.5151 54.8257L76.0885 54.8642L75.5915 55.4005C75.324 55.6943 75.0694 56.0904 75.0311 56.2948C74.9929 56.4864 74.8784 56.8185 74.7765 57.0101C74.5217 57.4955 74.5342 57.6493 74.8526 57.8409C75.1965 58.058 75.1201 58.4407 74.7125 58.4407C74.407 58.4407 74.3941 58.4797 74.305 59.5396C74.2668 60.1528 74.178 60.7533 74.1016 60.8811C74.0379 61.0216 73.9485 61.3662 73.8975 61.6599C73.7574 62.5923 73.3118 63.6018 72.6494 64.4704C72.1018 65.2112 72.0248 65.3645 72.1012 65.7348C72.1904 66.2713 72.8406 67.14 73.5284 67.6382C74.127 68.0853 74.4579 68.571 74.4579 69.0053C74.4577 69.1716 74.1902 69.7076 73.8719 70.1927C73.5535 70.6908 73.1843 71.2914 73.0441 71.5342C72.662 72.1984 72.2543 72.4543 71.7321 72.3521C71.4901 72.3138 71.2605 72.1855 71.2223 72.0833C71.1208 71.8148 71.503 71.0486 71.8722 70.7932C72.6746 70.2312 72.9039 69.9757 73.0186 69.5031C73.1586 68.9794 73.0441 68.596 72.7384 68.596C72.6492 68.596 72.0632 68.4302 71.4391 68.213C70.5604 67.9193 70.2292 67.7404 69.9109 67.3701L69.5027 66.8973L68.9046 67.1526C68.3569 67.3697 68.2799 67.4594 68.0634 68.0854C67.452 69.8354 67.1213 72.9012 67.4525 73.757C67.5162 73.9486 67.6687 74.0893 67.8088 74.0894C68.4202 74.0894 69.0061 74.9704 68.522 75.162C68.2418 75.2769 67.3125 75.239 66.9938 75.1113C66.739 75.0091 66.5605 74.6764 66.3694 73.9611C66.3184 73.7822 66.1525 73.5144 66.0125 73.3612C65.7832 73.1058 65.7706 73.0161 65.898 72.5946C66.14 71.7515 66.14 67.076 65.898 67.0121C65.8077 66.9862 64.9931 66.7308 64.0767 66.4373C62.2298 65.8497 61.5036 65.7091 61.0195 65.8368C60.6756 65.9262 60.6758 65.9266 60.7649 66.7952C60.8159 67.2933 60.7901 67.8678 60.7138 68.1617C60.5609 68.7238 59.7075 69.6313 58.8285 70.1806C58.281 70.5254 57.8991 71.0616 57.899 71.5213C57.899 72.109 59.3001 73.1951 60.0517 73.1951C60.7394 73.1952 61.4909 73.9616 61.0707 74.2299C60.988 74.2817 60.6866 74.3231 60.3376 74.3376C60.3649 74.488 60.3805 74.6506 60.3805 74.8258V86.4714C60.3805 87.0039 60.2409 87.4314 59.9615 87.7538C59.682 88.0621 59.3043 88.2163 58.8292 88.2163C58.3542 88.2163 57.977 88.1323 57.6975 87.9642C57.432 87.782 57.1452 87.5015 56.8378 87.1232L50.7804 79.5147V86.3873C50.7804 86.9899 50.6265 87.4455 50.3191 87.7538C50.0257 88.0621 49.5851 88.2163 48.9981 88.2163C48.4113 88.2163 47.9641 88.0621 47.6567 87.7538C47.3493 87.4455 47.1954 86.9899 47.1954 86.3873V74.931C47.1954 74.3144 47.3492 73.8446 47.6567 73.5222C47.9641 73.1859 48.3697 73.018 48.8728 73.018C48.9478 73.018 49.0201 73.021 49.0896 73.0257C49.1603 72.905 49.2591 72.7592 49.3647 72.6203C49.5939 72.3265 49.8869 71.6877 50.078 71.0364C50.2563 70.436 50.4981 69.7201 50.6 69.4646C50.7909 69.0178 50.842 68.9796 51.3004 68.9796C52.2558 68.9796 52.9821 68.4687 53.3769 67.5362C53.5298 67.1786 53.5551 66.8207 53.4914 66.0671C53.4278 65.1346 53.4405 65.0066 53.9373 63.6909C54.2298 62.9257 54.4586 62.2624 54.4593 62.1968C54.4593 62.1457 54.1281 61.9923 53.7333 61.8645C52.6762 61.5324 52.0523 60.868 51.6702 59.6801C51.3135 58.5688 51.3387 57.2785 51.7335 56.7548C52.1921 56.1416 53.0076 55.6562 53.6827 55.5924C54.4468 55.5285 54.5356 55.7076 54.0007 56.2185C53.4021 56.7678 53.0072 57.7133 53.0072 58.569C53.0072 59.4503 53.2497 60.0124 53.8228 60.4211C54.4851 60.8936 55.0329 60.8807 56.1155 60.3826C57.3129 59.8333 59.491 59.3099 61.2869 59.1438C64.0893 58.8756 64.8793 58.7089 66.5607 57.9936C67.4395 57.6231 68.3947 57.1761 68.6749 56.9973C69.1972 56.6779 69.5668 56.2436 69.4394 56.1158C69.4007 56.0775 68.9293 56.0013 68.3819 55.9375C66.9426 55.7587 64.6114 55.3112 63.4396 54.9791C62.8791 54.8258 61.9618 54.5961 61.4014 54.4684C58.2552 53.7913 53.1857 51.5044 49.8739 49.2945C47.0971 47.4296 46.065 46.6248 44.4728 45.0919C42.817 43.4953 41.3651 41.707 40.0787 39.6377C38.7667 37.5556 38.3076 36.9936 38.0783 37.1852C37.9511 37.2872 37.8493 37.3 37.7348 37.1852C37.633 37.1086 37.5185 37.083 37.4802 37.1339C37.4293 37.1721 37.3145 37.134 37.2 37.0447C37.0853 36.9553 36.9701 36.9166 36.9192 36.9677C36.8675 37.0052 36.2187 36.4308 35.4677 35.6904C34.7289 34.9495 33.7603 34.1194 33.34 33.8384C32.4484 33.2891 30.1053 32.0629 29.9137 32.0626C29.7609 32.0626 29.6459 33.2125 29.544 36.0356L29.455 38.1686L30.2323 39.8039C31.2131 41.8988 32.1555 44.2877 32.6523 45.9227C33.4675 48.6052 34.2064 51.5943 34.3974 53.0122C34.7286 55.4901 34.843 56.0651 35.3525 58.1854C35.9512 60.5997 36.2446 61.6473 36.614 62.567C36.7668 62.9501 36.8555 63.3715 36.8046 63.5376C36.6391 64.189 38.8426 68.7749 39.6833 69.5416C40.4093 70.2058 42.0908 70.9848 43.3009 71.2275C44.2817 71.4319 44.3204 71.4322 44.9955 71.1512C45.6705 70.8702 46.1165 70.8831 46.0273 71.1897C45.9378 71.458 44.8039 72.1474 43.7596 72.5433C42.8934 72.8882 42.5875 72.9398 41.5558 72.9398C40.8937 72.9398 40.1681 72.9778 39.9386 73.0161C39.5819 73.0927 39.5434 73.1439 39.5816 73.4761C39.658 73.9231 39.5177 74.0379 38.8172 74.1529L38.2824 74.2427L37.7732 73.1309C37.3656 72.2367 37.2633 71.8792 37.2633 71.266C37.2633 70.2186 36.7539 68.9668 35.302 66.4123L34.1044 64.3171L33.0726 64.2786C32.1682 64.253 31.9389 64.2915 31.1874 64.6109C29.9646 65.1346 29.939 65.1471 26.5763 65.2748C21.8125 65.4665 20.2457 65.2239 17.4944 63.8699C16.9214 63.589 16.3864 63.3594 16.3097 63.3593C16.1186 63.3593 15.1251 64.9049 14.45 66.2589C13.5967 67.9451 13.3545 69.7717 13.6984 71.8921C13.8381 72.7218 13.9329 72.9782 14.372 73.299C14.5849 73.2386 14.8215 73.2073 15.0821 73.2073H20.2388C21.9156 73.2073 23.2084 73.6414 24.1167 74.5102C25.039 75.3651 25.4997 76.5494 25.4997 78.0629C25.4997 79.5765 25.039 80.768 24.1167 81.6369C23.2084 82.4917 21.9156 82.9186 20.2388 82.9186H16.9897V86.2609C16.9897 86.8775 16.8286 87.3611 16.5073 87.7114C16.1859 88.0478 15.7037 88.2163 15.061 88.2163C14.4461 88.2163 13.9711 88.0478 13.6357 87.7114C13.3003 87.3611 13.1322 86.8775 13.1322 86.2609V75.162C13.1322 74.6866 13.2276 74.2949 13.4182 73.9867L13.3011 73.911C12.7305 73.5255 12.3526 73.0269 12.0422 72.2366C11.8766 71.8151 11.5202 71.0235 11.2528 70.4744C10.8326 69.6317 10.7305 69.4906 10.5651 69.6308C10.4634 69.7072 10.3613 69.7586 10.3482 69.7334C10.3227 69.7079 10.0937 69.4138 9.83901 69.0945C9.58425 68.7751 9.36755 68.43 9.36755 68.3279C9.36777 68.1107 9.74963 67.74 10.7173 67.0249C11.851 66.1818 13.0107 64.419 13.5839 62.6562L13.8641 61.7875L13.5583 61.5579C13.0743 61.1874 8.11967 59.1056 7.06204 58.8243C5.82646 58.505 5.16384 58.5687 4.39957 59.0797L3.73747 59.5268L2.93464 59.0797C2.13233 58.6199 2.13245 58.6198 2.27254 58.2367C2.42539 57.8535 2.39958 57.8281 1.76269 57.2533C0.947465 56.4996 -0.0837557 55.2093 0.00540946 55.0432C0.158543 54.8132 1.91562 53.7401 2.92184 53.2547C3.94085 52.782 6.34834 51.8494 8.985 50.9041C10.539 50.3421 11.1763 49.9461 11.966 49.0135C12.2719 48.6557 13.2271 47.5321 14.0931 46.5232C14.959 45.5143 15.9142 44.4029 16.2201 44.0321C17.0863 42.9719 18.1691 40.5828 19.4302 36.9805C19.7995 35.9332 20.2967 34.669 20.5388 34.1835C21.0228 33.2254 23.0352 29.8145 23.6721 28.882C24.0414 28.3456 24.0415 28.3199 23.8505 27.9113C23.7359 27.6814 23.5828 26.8894 23.5064 26.1741C23.43 25.446 23.3412 24.8196 23.303 24.7685C23.2771 24.7174 22.8058 24.5896 22.2711 24.4747C21.0997 24.2193 20.4497 23.9514 20.4492 23.7216C20.4492 23.6321 20.6152 23.2871 20.8318 22.9549C21.0356 22.6228 21.3154 22.1371 21.4555 21.8688C21.723 21.332 22.4238 17.9854 22.5257 16.7719C22.6021 15.8397 22.462 15.7505 21.8252 16.287C21.3667 16.6702 21.2137 16.6826 21.2137 16.3505C21.2136 16.0441 21.0736 16.0317 20.5516 16.2998L20.1562 16.5038L20.2202 15.9162L20.2963 15.3157L19.9528 15.5332L19.6214 15.7506L20.1306 15.163L19.5575 15.2522C19.0227 15.3288 18.9976 15.3289 19.2395 15.1373C19.4942 14.9458 19.4943 14.9453 19.2523 14.7537C19.1123 14.6516 18.8955 14.5626 18.7809 14.5625C18.3096 14.5625 18.3603 14.1916 18.857 14.0128C18.9333 13.9745 18.9461 13.9111 18.8954 13.8601C18.8444 13.809 18.717 13.8342 18.6024 13.9236C18.5005 14.013 18.4112 14.0258 18.4111 13.9493C18.4111 13.7832 18.717 13.6683 19.1756 13.6683C19.3794 13.6683 19.634 13.5786 19.7359 13.4636C19.9779 13.2337 19.9782 13.2081 19.7999 12.876C19.5835 12.4801 19.8635 11.9949 20.5765 11.5224C21.2771 11.0625 21.3792 10.8578 20.9079 10.8578C20.7296 10.8577 20.5514 10.794 20.5132 10.7301C20.3603 10.4746 20.9714 9.47818 21.863 8.54571C22.9202 7.4216 22.9206 7.34497 22.1054 5.64603C21.8253 5.05858 21.5957 4.42012 21.5956 4.2411C21.5956 3.74298 22.2325 2.72112 23.0221 1.95472C23.8246 1.16273 25.6976 0 26.1689 0ZM56.88 69.1073C56.8036 69.1073 56.5102 69.2859 56.2172 69.4903C55.5676 69.9757 54.6248 70.2569 53.7077 70.2569C51.6444 70.2825 50.9439 70.9212 50.4599 73.2586C50.4303 73.3983 50.3949 73.5279 50.3594 73.648C50.4869 73.7795 50.6204 73.9339 50.7593 74.1112L56.8173 81.7004V74.8258C56.8173 74.2373 56.964 73.7889 57.2574 73.4806C57.4163 73.3213 57.6125 73.2034 57.8459 73.1264C57.4729 72.83 57.0967 72.5477 56.8672 72.4028C56.5105 72.1856 56.2428 71.9301 56.2428 71.8152C56.243 71.6872 56.421 71.253 56.6247 70.8317C56.994 70.0911 57.1471 69.108 56.88 69.1073ZM16.9897 79.9548H19.5677C20.2943 79.9548 20.8531 79.8005 21.2444 79.4922C21.6357 79.1699 21.8316 78.6936 21.8316 78.0629C21.8316 77.4183 21.6357 76.9419 21.2444 76.6336C20.8531 76.3254 20.2943 76.1711 19.5677 76.1711H16.9897V79.9548ZM32.1303 51.0959C32.0539 51.1726 31.3914 54.302 30.9456 56.7163C30.7035 58.0192 30.6012 59.0541 30.5502 60.9574C30.4611 64.0232 30.5251 64.3679 31.0601 63.9719C31.251 63.8187 31.2511 63.6778 31.0601 61.9537C30.8053 59.7183 30.8942 58.4919 31.5821 54.9919C32.0277 52.7701 32.2828 50.9696 32.1303 51.0959ZM21.4555 40.1997C21.6211 39.3055 21.443 39.6121 20.9463 41.0555C20.717 41.758 20.36 42.576 20.1562 42.8825C19.7356 43.5215 17.9397 45.5394 17.1119 46.3057C13.1251 50.0355 12.1827 50.8662 11.1383 51.5816C10.1575 52.2458 7.88986 53.5355 5.7372 54.6724C3.55902 55.8093 2.51444 56.4355 2.24695 56.7676C1.95402 57.1125 2.32369 57.0106 3.03699 56.538C3.66089 56.1421 6.28175 54.6742 6.3993 54.6724C6.42477 54.6724 7.0873 54.3022 7.87702 53.8551C8.66673 53.4208 9.71125 52.8333 10.1953 52.565C12.3607 51.3771 13.2142 50.7 15.7998 48.1071C18.6658 45.2329 19.1628 44.6961 20.0417 43.5337C20.6659 42.7034 21.2389 41.3366 21.4555 40.1997ZM23.5576 30.2741C23.4047 30.2741 22.1054 33.366 22.1054 33.7492C22.1055 34.0169 22.2457 33.7613 22.6786 32.6759C23.557 30.4673 23.6338 30.2743 23.5576 30.2741ZM20.0673 13.6041C20.3219 13.2977 20.1435 13.2468 19.876 13.5406C19.7488 13.681 19.7107 13.7959 19.7743 13.7959C19.8508 13.7959 19.9782 13.7063 20.0673 13.6041ZM20.5765 12.0074C21.0733 11.6497 21.0733 11.4324 20.5765 11.6879C20.1053 11.9306 19.7742 12.4166 19.8888 12.6976C20.0035 13.004 20.1946 12.9398 20.1946 12.595C20.1947 12.3907 20.3346 12.1861 20.5765 12.0074Z" stroke="black" stroke-width="3" mask="url(#path-1-inside-1_200_1400)"/>
<path d="M81.7026 77.4535C82.5269 77.4535 83.2046 77.6144 83.7356 77.9366C84.2666 78.2449 84.6651 78.7356 84.9306 79.4082C85.1961 80.0669 85.3291 80.9011 85.3291 81.9101V86.3245C85.3291 86.941 85.1682 87.4103 84.8468 87.7326C84.5254 88.0549 84.064 88.2163 83.4631 88.2163C82.8623 88.2163 82.4014 88.0549 82.08 87.7326C81.7586 87.4103 81.5977 86.941 81.5977 86.3245V82.0571C81.5977 81.4265 81.486 80.9781 81.2625 80.7118C81.0529 80.4455 80.7381 80.3121 80.3189 80.3121C79.76 80.3122 79.3128 80.4944 78.9774 80.8587C78.6421 81.209 78.4747 81.6855 78.4746 82.288V86.3245C78.4746 87.5856 77.8456 88.2162 76.5881 88.2163C76.0012 88.2163 75.547 88.0549 75.2255 87.7326C74.9042 87.4103 74.7432 86.941 74.7432 86.3245V79.3665C74.7432 78.7639 74.897 78.3012 75.2044 77.9789C75.5259 77.6566 75.9801 77.4952 76.567 77.4952C77.1539 77.4952 77.6011 77.6566 77.9085 77.9789C78.1718 78.255 78.3211 78.634 78.3588 79.1157C78.6718 78.6385 79.0731 78.259 79.5647 77.9789C80.1935 77.6286 80.9061 77.4535 81.7026 77.4535Z" stroke="black" stroke-width="3" mask="url(#path-1-inside-1_200_1400)"/>
<path d="M94.4149 77.4535C95.2392 77.4535 95.9169 77.6144 96.4479 77.9366C96.9789 78.2449 97.3773 78.7356 97.6429 79.4082C97.9084 80.0669 98.0414 80.9011 98.0414 81.9101V86.3245C98.0414 86.941 97.8804 87.4103 97.5591 87.7326C97.2376 88.0549 96.7763 88.2163 96.1754 88.2163C95.5746 88.2163 95.1137 88.0549 94.7923 87.7326C94.4709 87.4103 94.31 86.941 94.31 86.3245V82.0571C94.31 81.4265 94.1983 80.9781 93.9748 80.7118C93.7652 80.4455 93.4504 80.3121 93.0312 80.3121C92.4723 80.3122 92.0251 80.4944 91.6897 80.8587C91.3544 81.209 91.187 81.6855 91.1869 82.288V86.3245C91.1869 87.5856 90.5579 88.2162 89.3004 88.2163C88.7135 88.2163 88.2593 88.0549 87.9378 87.7326C87.6164 87.4103 87.4555 86.941 87.4555 86.3245V79.3665C87.4555 78.7639 87.6093 78.3012 87.9167 77.9789C88.2381 77.6566 88.6924 77.4952 89.2793 77.4952C89.8662 77.4952 90.3134 77.6566 90.6208 77.9789C90.8841 78.255 91.0334 78.634 91.0711 79.1157C91.3841 78.6385 91.7854 78.259 92.277 77.9789C92.9058 77.6286 93.6184 77.4535 94.4149 77.4535Z" stroke="black" stroke-width="3" mask="url(#path-1-inside-1_200_1400)"/>
</g>
<defs>
<filter id="filter0_i_200_1400" x="0" y="0" width="110" height="96" filterUnits="userSpaceOnUse" color-interpolation-filters="sRGB">
<feFlood flood-opacity="0" result="BackgroundImageFix"/>
<feBlend mode="normal" in="SourceGraphic" in2="BackgroundImageFix" result="shape"/>
<feColorMatrix in="SourceAlpha" type="matrix" values="0 0 0 0 0 0 0 0 0 0 0 0 0 0 0 0 0 0 127 0" result="hardAlpha"/>
<feOffset dy="4"/>
<feGaussianBlur stdDeviation="2"/>
<feComposite in2="hardAlpha" operator="arithmetic" k2="-1" k3="1"/>
<feColorMatrix type="matrix" values="0 0 0 0 0 0 0 0 0 0 0 0 0 0 0 0 0 0 0.25 0"/>
<feBlend mode="normal" in2="shape" result="effect1_innerShadow_200_1400"/>
</filter>
</defs>
</svg>
