<?xml version="1.0" encoding="utf-8"?>
<!DOCTYPE svg PUBLIC "-//W3C//DTD SVG 1.0//EN" "http://www.w3.org/TR/2001/REC-SVG-20010904/DTD/svg10.dtd">
<svg version="1.0" xmlns="http://www.w3.org/2000/svg" width="295px" height="284px" viewBox="0 0 295 284" preserveAspectRatio="xMidYMid meet">
 <g fill="#1c1c25">
  <path d="M189.45 224.65 c-0.35 -0.95 -0.35 -2.30 0 -4.45 0.30 -1.65 0.55 -5.05 0.55 -7.55 0 -4.25 0.95 -9.10 2.10 -10.50 0.25 -0.35 1.50 -2.60 2.75 -5 9.85 -19.05 11.30 -21.85 11.80 -22.05 0.20 -0.10 0.35 -0.45 0.35 -0.85 0 -0.35 0.35 -0.90 0.75 -1.25 0.40 -0.35 2 -3.20 3.50 -6.30 1.50 -3.15 3.20 -6.15 3.75 -6.70 1.05 -1.05 4.30 -1.35 5.90 -0.55 5.80 3.05 8.60 4.85 9.05 5.85 0.75 1.70 0.15 3.35 -3.25 8.70 -1.10 1.80 -2.90 4.95 -3.90 7 -1.05 2.05 -2.50 4.65 -3.20 5.75 -0.75 1.10 -1.60 2.55 -1.95 3.25 -0.30 0.70 -1.35 2.95 -2.30 5 -0.95 2.05 -2.10 4.65 -2.60 5.75 -2.80 6.70 -6.20 12.55 -8.75 15.20 -3.25 3.35 -12.05 10.05 -13.20 10.05 -0.45 0 -1.05 -0.60 -1.35 -1.35z m11 -9.45 c0.85 -0.70 1.55 -1.45 1.55 -1.70 0 -0.50 -7.25 -5.50 -7.90 -5.50 -0.60 0 -1.10 1.80 -1.10 4.15 0 1.35 0.20 1.85 0.80 1.85 0.40 0 1.60 0.55 2.60 1.25 1 0.70 2 1.25 2.20 1.25 0.15 0 1 -0.60 1.85 -1.30z m7 -10.50 c1.40 -2.80 2.55 -5.25 2.55 -5.50 0 -0.75 6.60 -13.80 8.35 -16.55 0.90 -1.45 1.65 -2.95 1.65 -3.35 0 -0.90 -6.75 -4.30 -8.60 -4.30 -1.45 0 -2 0.80 -6.05 8.55 -1.20 2.30 -2.40 4.65 -2.70 5.20 -0.30 0.55 -1.20 2.35 -2.05 4 -0.80 1.65 -2.40 4.75 -3.55 6.90 -1.10 2.10 -2.05 4.15 -2.05 4.50 0 0.80 9.05 6.50 9.55 6 0.20 -0.25 1.50 -2.70 2.90 -5.45z m14.45 -29.55 c-0.10 -0.50 -1.30 -1.45 -2.65 -2.10 -1.40 -0.65 -2.90 -1.40 -3.35 -1.65 -1.20 -0.55 -2.90 -0.50 -2.90 0.10 0 0.30 0.85 0.85 1.90 1.25 1 0.45 2.85 1.30 4.10 1.95 2.80 1.50 3.10 1.50 2.90 0.45z m3.80 -5.35 c1.25 -1.70 1.75 -3.80 0.85 -3.80 -0.25 0 -2 -0.90 -3.85 -2 -4.65 -2.70 -5.30 -2.65 -7 0.75 -0.75 1.50 -1.25 2.85 -1.10 3 0.15 0.15 1.75 0.85 3.60 1.50 1.80 0.65 3.70 1.40 4.15 1.70 1.45 0.85 1.95 0.65 3.35 -1.15z"/>
  <path d="M221 204.40 c-1.60 -2.60 -1.30 -9.70 0.50 -13.40 0.20 -0.40 0.85 -0.80 1.45 -0.90 0.90 -0.15 1.05 0.05 1.05 1.60 0 0.95 -0.20 1.90 -0.50 2.05 -0.60 0.35 -0.70 9.25 -0.10 9.25 0.85 0 2.05 -3.30 3.15 -8.75 0.70 -3.45 1.20 -4.25 2.55 -4.25 0.90 0 0.95 0.25 0.70 2 -0.15 1.10 -0.45 2.95 -0.60 4.15 -0.15 1.15 -0.50 2.30 -0.75 2.60 -0.25 0.25 -0.45 0.95 -0.45 1.60 0 0.65 -0.30 1.65 -0.60 2.30 -2.15 3.80 -4.70 4.50 -6.40 1.75z"/>
  <path d="M231.60 204.40 c-0.90 -0.90 -0.75 -1.45 1 -4.85 1.65 -3.20 1.65 -2.95 -0.10 -6.65 -0.85 -1.75 -0.35 -3 1.10 -2.80 0.75 0.10 1.20 0.55 1.30 1.30 0.10 0.60 0.30 1.10 0.45 1.10 0.45 0 1.60 -1.70 1.65 -2.40 0 -0.90 1.25 -2.10 2.20 -2.10 1.25 0 0.95 2.40 -0.70 5.75 -0.85 1.65 -1.30 3.05 -1 3.15 0.25 0.10 0.50 0.45 0.50 0.80 0 0.35 0.60 1.80 1.30 3.20 1.40 2.80 1.30 4.10 -0.25 4.10 -0.65 0 -1.30 -0.75 -2 -2.25 -1.05 -2.25 -2.05 -2.95 -2.05 -1.45 0 0.90 -1.85 3.70 -2.45 3.70 -0.20 0 -0.60 -0.25 -0.95 -0.60z"/>
  <path d="M181.90 183.60 c-2.85 -3.40 -4.90 -11.40 -3.30 -13 1.05 -1.05 2.40 0.75 2.40 3.20 0 1.20 0.25 2.30 0.50 2.45 0.30 0.15 0.50 0.75 0.50 1.30 0 0.95 2 4.45 2.55 4.45 0.85 0 1.45 -3.15 1.45 -7.80 l0 -5.25 1.40 0.15 1.35 0.15 0.15 5.20 c0.10 3.15 -0.05 5.40 -0.40 5.75 -0.25 0.25 -0.50 1 -0.50 1.55 0 1.55 -1.80 3.25 -3.50 3.25 -0.95 0 -1.80 -0.45 -2.60 -1.40z"/>
  <path d="M195.25 183.90 c-0.60 -2 -0.90 -4.85 -1.10 -10.50 -0.20 -6.10 -0.15 -6.40 0.75 -6.40 1.40 0 1.65 0.95 2.05 8.25 0.20 3.60 0.50 6.80 0.75 7.15 0.45 0.75 -0.50 2.10 -1.55 2.10 -0.35 0 -0.75 -0.30 -0.90 -0.60z"/>
  <path d="M106.50 154.90 c-1.90 -1.30 -3.60 -4.05 -3.20 -5.15 0.45 -1.10 1.35 -0.90 2.45 0.60 1.75 2.30 2.30 2.65 4.15 2.65 2.40 -0.05 3.60 -1 4.15 -3.35 0.90 -3.95 0.85 -4.05 -2.70 -3.80 -3.10 0.25 -3.20 0.25 -4.25 -1.25 -0.60 -0.80 -1.10 -1.95 -1.10 -2.45 0 -1.65 2.60 -4 5.60 -5.05 2.55 -0.90 2.95 -0.90 3.50 -0.25 1.05 1.30 1.85 5.20 1.90 9.25 0 3 -0.25 4.25 -1.10 5.95 -2.10 3.85 -6.10 5.05 -9.40 2.85z m6.20 -12.35 c1.65 -1.70 1.35 -2.55 -0.75 -2.55 -2.40 0 -3.75 2 -2.35 3.40 0.90 0.90 1.60 0.75 3.10 -0.85z"/>
  <path d="M143 144.50 c0 -4.95 0.10 -5.50 0.90 -5.50 0.50 0 1.15 0.25 1.50 0.60 0.45 0.45 0.75 0.45 1.20 0 0.35 -0.35 1.70 -0.60 3 -0.60 2.05 0 2.40 0.15 2.40 1 0 0.65 -0.35 1 -1 1 -1.30 0 -3.50 1 -4.85 2.20 -0.95 0.80 -1.15 1.50 -1.15 3.90 0 2.55 -0.10 2.90 -1 2.90 -0.95 0 -1 -0.35 -1 -5.50z"/>
  <path d="M133.35 147.75 c-3.25 -3.30 -1.60 -9.75 2.45 -9.75 1.30 0 1.95 0.40 2.95 1.70 0.70 0.90 1.15 2 1 2.35 -0.15 0.40 -1.40 1 -2.85 1.35 -2.95 0.70 -3.10 0.80 -2.75 1.85 0.20 0.50 0.95 0.75 2.30 0.75 3.40 0 4.50 0.95 2.70 2.30 -1.50 1.15 -4.35 0.85 -5.80 -0.55z"/>
  <path d="M127.80 147.40 c-0.45 -0.60 -0.80 -2 -0.80 -3.05 0 -2.05 -1.20 -4.35 -2.25 -4.35 -0.95 0 -2.75 2.65 -2.75 4.10 -0.05 1.25 -1.05 2.90 -1.90 2.90 -0.85 0 -1.10 -1.40 -1.10 -6.80 0 -4.80 0.10 -5.20 0.95 -5.20 0.60 0 1.15 0.55 1.45 1.45 0.50 1.35 0.70 1.45 2.80 1.40 2.65 -0.10 4.05 1 5.10 4 1.45 4.05 0.30 8.15 -1.50 5.55z"/>
  <path d="M73.75 144.50 c-0.15 -0.25 -0.80 -0.50 -1.40 -0.50 -2.10 -0.05 -4.40 -2.75 -4.30 -5.10 0.05 -1.50 1.45 -3.90 2.70 -4.60 3.60 -1.95 4.25 -2.80 4.25 -5.20 0.05 -3.50 1.20 -7.30 2.25 -7.55 0.85 -0.15 0.85 0.25 0.55 5.50 -0.20 3.15 -0.35 5.95 -0.35 6.20 0 0.30 0.20 1.35 0.45 2.35 0.35 1.40 0.30 2.10 -0.20 2.75 -0.35 0.50 -0.70 1.90 -0.70 3.20 0 1.25 -0.25 2.50 -0.60 2.85 -0.75 0.75 -2.25 0.80 -2.65 0.10z m0.25 -6.05 c0 -1.90 -0.20 -2.45 -0.80 -2.45 -1.05 0 -1.95 1 -2.35 2.50 -0.35 1.50 0.05 2.30 1.40 2.60 1.55 0.35 1.75 0.05 1.75 -2.65z"/>
  <path d="M91.65 144 c-2.30 -1.40 -2.05 -2 0.85 -2 1.40 0 2.50 -0.20 2.50 -0.40 0 -0.25 -0.65 -1.05 -1.50 -1.85 -1.85 -1.80 -2.05 -4.20 -0.40 -5.75 1.25 -1.15 3.70 -1.30 5.10 -0.25 1.45 1.10 0.65 2.25 -1.65 2.25 -1.10 0 -2.10 0.20 -2.25 0.40 -0.15 0.25 0.60 1.20 1.70 2.15 2.50 2.15 2.65 3.90 0.55 5.40 -1.80 1.30 -2.85 1.30 -4.90 0.05z"/>
  <path d="M99.15 142.65 c0.50 -4.50 0.90 -5.65 1.90 -5.65 0.85 0 0.95 0.40 0.95 3.05 0 3.50 -0.60 4.95 -2.05 4.95 -0.95 0 -1 -0.20 -0.80 -2.35z"/>
  <path d="M81.45 142.80 c-1.30 -1.35 -2.60 -5.15 -1.90 -5.60 0.25 -0.15 0.45 -0.65 0.45 -1.15 0 -1.40 2.10 -3.05 3.90 -3.05 1.15 0 1.85 0.40 2.85 1.70 0.70 0.90 1.15 2 1 2.35 -0.15 0.40 -1.40 1 -2.85 1.35 -2.95 0.70 -3.10 0.80 -2.75 1.85 0.20 0.50 0.95 0.75 2.30 0.75 3.40 0 4.50 0.95 2.70 2.30 -1.50 1.10 -4.40 0.85 -5.70 -0.50z"/>
  <path d="M101.25 131.50 c-0.20 -0.35 -0.15 -0.80 0.15 -1.10 0.70 -0.70 2.35 -0.30 2.35 0.60 0 0.90 -2 1.30 -2.50 0.50z"/>
  <path d="M164.75 110.50 c-0.15 -0.25 -0.80 -0.50 -1.40 -0.50 -2.10 -0.05 -4.40 -2.75 -4.30 -5.10 0.05 -1.50 1.45 -3.90 2.70 -4.60 3.60 -1.95 4.25 -2.80 4.25 -5.20 0.05 -3.50 1.20 -7.30 2.25 -7.55 0.85 -0.15 0.85 0.25 0.55 5.50 -0.20 3.15 -0.35 5.95 -0.35 6.20 0 0.30 0.20 1.35 0.45 2.35 0.35 1.40 0.30 2.10 -0.20 2.75 -0.35 0.50 -0.70 1.90 -0.70 3.20 0 1.25 -0.25 2.50 -0.60 2.85 -0.75 0.75 -2.25 0.80 -2.65 0.10z m0.25 -6.05 c0 -1.90 -0.20 -2.45 -0.80 -2.45 -1.05 0 -1.95 1 -2.35 2.50 -0.35 1.50 0.05 2.30 1.40 2.60 1.55 0.35 1.75 0.05 1.75 -2.65z"/>
  <path d="M209.95 109.40 c-0.95 -0.90 -2.50 -2.70 -3.45 -4 -0.95 -1.30 -2 -2.40 -2.30 -2.40 -0.35 0 -1 0.60 -1.50 1.40 -1.20 1.80 -4.75 5.60 -5.30 5.60 -0.20 0 -0.40 -0.65 -0.40 -1.50 0 -0.80 0.20 -1.50 0.40 -1.50 0.20 0 0.75 -0.60 1.20 -1.35 0.45 -0.80 1.40 -2.05 2.10 -2.90 1.75 -2 1.65 -3.30 -0.45 -6.05 -2.65 -3.40 -3.45 -5.20 -2.75 -5.90 0.55 -0.55 2.85 1.55 5.60 5.30 l1.40 1.80 3.35 -3.45 c3.15 -3.30 4.65 -4.20 4.65 -2.80 0 0.55 -1.30 2.75 -2 3.35 -0.15 0.15 -1.20 1.35 -2.35 2.70 l-2.10 2.40 1.55 2.35 c0.90 1.25 1.85 2.60 2.20 2.90 1.50 1.55 2.75 4.15 2.30 4.90 -0.35 0.70 -0.70 0.55 -2.15 -0.85z"/>
  <path d="M182.90 108.15 c-4 -2.10 -5.20 -6.85 -4.15 -16.40 0.35 -3.20 0.80 -4.20 1.90 -4.25 0.20 0 0.35 3.20 0.35 7.15 -0.10 9.75 0.75 11.35 5.95 11.35 2.25 0 2.65 -0.15 3.75 -1.65 1.25 -1.65 1.30 -1.95 1.30 -8.55 0 -5.65 0.15 -6.90 0.75 -7.10 0.40 -0.20 1.10 -0.05 1.50 0.30 0.60 0.50 0.75 1.95 0.75 7.05 0 3.70 -0.20 6.50 -0.50 6.70 -0.25 0.15 -0.50 0.70 -0.50 1.20 0 0.90 -2.55 3.55 -4.35 4.50 -1.45 0.75 -5.10 0.60 -6.75 -0.30z"/>
  <path d="M155.80 106.40 c-0.45 -0.60 -0.80 -2 -0.80 -3.05 0 -2.05 -1.20 -4.35 -2.25 -4.35 -0.95 0 -2.75 2.65 -2.75 4.10 -0.05 1.25 -1.05 2.90 -1.90 2.90 -0.85 0 -1.10 -1.40 -1.10 -6.80 0 -4.80 0.10 -5.20 0.95 -5.20 0.60 0 1.15 0.55 1.45 1.45 0.50 1.35 0.70 1.45 2.80 1.40 2.65 -0.10 4.05 1 5.10 4 1.45 4.05 0.30 8.15 -1.50 5.55z"/>
  <path d="M142.40 103.55 c-0.60 -0.85 -1 -0.95 -2.35 -0.55 -2.25 0.65 -3.90 -0.10 -4.30 -1.95 -0.60 -2.80 1.30 -6.05 3.60 -6.05 0.65 0 1.30 -0.35 1.45 -0.75 0.45 -1.10 1.95 -0.90 2.60 0.40 0.80 1.55 1 9.45 0.25 9.70 -0.30 0.10 -0.90 -0.25 -1.25 -0.80z m-2.30 -3.40 c1.35 -1.25 1.15 -2.25 -0.45 -2.05 -1.10 0.10 -1.45 0.45 -1.55 1.55 -0.20 1.55 0.60 1.75 2 0.50z"/>
  <path d="M114.65 101.05 c-3.15 -0.25 -3.50 -0.40 -3 -1.10 0.35 -0.45 1.40 -0.95 2.35 -1.15 3.25 -0.60 3.25 -0.60 3.25 -7.90 l0 -6.65 -3.10 -0.15 c-1.75 -0.10 -3.15 -0.30 -3.15 -0.50 0 -0.70 1.20 -1.60 2.10 -1.60 0.55 0 1.80 -0.40 2.80 -0.90 1.40 -0.65 3.25 -0.95 7 -1 2.80 -0.05 5.10 0.10 5.10 0.35 0 0.70 -1.15 1.40 -2.75 1.70 -0.80 0.15 -2.30 0.45 -3.25 0.70 l-1.75 0.45 -0.15 7 -0.15 7 3.55 -0.20 c3.35 -0.20 4.40 0.25 2.90 1.25 -1.05 0.65 -4.05 1.65 -5.05 1.65 -0.50 0 -1.25 0.35 -1.65 0.75 -0.45 0.40 -0.90 0.70 -1.10 0.65 -0.20 -0.05 -1.95 -0.20 -3.95 -0.35z"/>
  <path d="M96.90 98.15 c-4 -2.10 -5.20 -6.85 -4.15 -16.40 0.35 -3.20 0.80 -4.20 1.90 -4.25 0.20 0 0.35 3.20 0.35 7.15 -0.10 9.75 0.75 11.35 5.95 11.35 2.25 0 2.65 -0.15 3.75 -1.65 1.25 -1.65 1.30 -1.95 1.30 -8.55 0 -5.65 0.15 -6.90 0.75 -7.10 0.40 -0.20 1.10 -0.05 1.50 0.30 0.60 0.50 0.75 1.95 0.75 7.05 0 3.70 -0.20 6.50 -0.50 6.70 -0.25 0.15 -0.50 0.70 -0.50 1.20 0 0.90 -2.55 3.55 -4.35 4.50 -1.45 0.75 -5.10 0.60 -6.75 -0.30z"/>
  <path d="M80.40 96.55 c-0.60 -0.85 -1 -0.95 -2.35 -0.55 -2.25 0.65 -3.90 -0.10 -4.30 -1.95 -0.60 -2.80 1.30 -6.05 3.60 -6.05 0.65 0 1.30 -0.35 1.45 -0.75 0.45 -1.10 1.95 -0.90 2.60 0.40 0.80 1.55 1 9.45 0.25 9.70 -0.30 0.10 -0.90 -0.25 -1.25 -0.80z m-2.30 -3.40 c1.35 -1.25 1.15 -2.25 -0.45 -2.05 -1.10 0.10 -1.45 0.45 -1.55 1.55 -0.20 1.55 0.60 1.75 2 0.50z"/>
  <path d="M212.50 79.20 c-0.30 -0.70 -0.50 -4.50 -0.50 -8.45 0 -4.25 -0.20 -7.30 -0.50 -7.50 -0.25 -0.15 -0.50 -0.85 -0.50 -1.50 0 -2.15 5.10 -3.55 7.60 -2.10 2 1.10 2.55 1.90 2.60 3.75 0.05 2.45 -1.70 4.90 -4.25 5.95 l-1.95 0.75 0 4.60 c0 4.35 -0.40 5.80 -1.60 5.80 -0.25 0 -0.65 -0.60 -0.90 -1.30z m5.20 -13.50 c1.25 -1.30 1.70 -2.90 0.95 -3.35 -0.25 -0.15 -1.15 -0.40 -2 -0.60 l-1.65 -0.35 0 2.80 c0 3.25 0.60 3.55 2.70 1.50z"/>
  <path d="M246 73.60 c0 -0.55 0.45 -1.35 1 -1.85 0.55 -0.50 1 -1.50 1 -2.20 0 -2 0.80 -2.90 1.85 -2.25 1.70 1.05 1.15 4.15 -1.10 6.40 -1.15 1.10 -2.75 1.05 -2.75 -0.10z"/>
  <path d="M233.65 72 c-2.30 -1.40 -2.05 -2 0.85 -2 1.40 0 2.50 -0.20 2.50 -0.40 0 -0.25 -0.65 -1.05 -1.50 -1.85 -1.85 -1.80 -2.05 -4.20 -0.40 -5.75 1.25 -1.15 3.70 -1.30 5.10 -0.25 1.45 1.10 0.65 2.25 -1.65 2.25 -1.10 0 -2.10 0.20 -2.25 0.40 -0.15 0.25 0.60 1.20 1.70 2.15 2.50 2.15 2.65 3.90 0.55 5.40 -1.80 1.30 -2.85 1.30 -4.90 0.05z"/>
  <path d="M241.15 70.65 c0.50 -4.50 0.90 -5.65 1.90 -5.65 0.85 0 0.95 0.40 0.95 3.05 0 3.50 -0.60 4.95 -2.05 4.95 -0.95 0 -1 -0.20 -0.80 -2.35z"/>
  <path d="M223.55 70.15 c-1.55 -1.85 -2.05 -4.30 -1.05 -4.90 0.30 -0.15 0.50 -0.95 0.50 -1.70 0 -1.30 0.80 -2.55 1.60 -2.55 0.20 0 0.40 1.65 0.40 3.70 0 2.10 0.25 3.90 0.55 4.05 0.70 0.45 2.45 -1.20 2.45 -2.30 0 -0.50 0.25 -1.05 0.50 -1.20 0.30 -0.15 0.50 -0.75 0.50 -1.30 0 -0.60 0.35 -0.95 1 -0.95 0.80 0 1 0.35 1 1.80 0 2.35 -1.65 5.20 -3.55 6.35 -2.05 1.15 -2.15 1.15 -3.90 -1z"/>
  <path d="M207.40 66.55 c-0.60 -0.85 -1 -0.95 -2.35 -0.55 -2.25 0.65 -3.90 -0.10 -4.30 -1.95 -0.60 -2.80 1.30 -6.05 3.60 -6.05 0.65 0 1.30 -0.35 1.45 -0.75 0.45 -1.10 1.95 -0.90 2.60 0.40 0.80 1.55 1 9.45 0.25 9.70 -0.30 0.10 -0.90 -0.25 -1.25 -0.80z m-2.30 -3.40 c1.35 -1.25 1.15 -2.25 -0.45 -2.05 -1.10 0.10 -1.45 0.45 -1.55 1.55 -0.20 1.55 0.60 1.75 2 0.50z"/>
  <path d="M194.25 63.25 c-2.30 -2 -9.70 -7 -9.95 -6.70 -0.05 0.10 -0.45 1.65 -0.90 3.45 -0.50 2.35 -0.95 3.30 -1.65 3.40 -0.80 0.20 -0.85 -0.20 -0.55 -5.75 0.65 -12.50 0.80 -13.65 1.85 -13.65 0.85 0 0.95 0.40 0.95 4.50 0 2.50 0.10 4.50 0.25 4.50 0.15 0 2.65 -1.55 5.50 -3.50 5.05 -3.40 7.25 -4.25 7.25 -2.80 0 0.35 -0.85 1.30 -1.85 2.10 -1.05 0.75 -2 1.55 -2.15 1.70 -0.55 0.65 -4.95 3.50 -5.45 3.50 -1.20 0 -0.35 0.85 3.35 3.60 5.75 4.25 7.10 5.45 7.10 6.45 0 1.45 -1.50 1.10 -3.75 -0.80z"/>
  <path d="M169.40 62.55 c-0.60 -0.85 -1 -0.95 -2.35 -0.55 -2.25 0.65 -3.90 -0.10 -4.30 -1.95 -0.60 -2.80 1.30 -6.05 3.60 -6.05 0.65 0 1.30 -0.35 1.45 -0.75 0.45 -1.10 1.95 -0.90 2.60 0.40 0.80 1.55 1 9.45 0.25 9.70 -0.30 0.10 -0.90 -0.25 -1.25 -0.80z m-2.30 -3.40 c1.35 -1.25 1.15 -2.25 -0.45 -2.05 -1.10 0.10 -1.45 0.45 -1.55 1.55 -0.20 1.55 0.60 1.75 2 0.50z"/>
  <path d="M156.70 62.10 c-0.30 -0.20 -0.85 -1.25 -1.20 -2.35 -0.35 -1.10 -0.80 -2.45 -1.05 -3 -0.20 -0.55 -0.50 -1.65 -0.65 -2.50 -0.15 -0.80 -0.40 -2.10 -0.55 -2.80 -0.25 -1 -0.10 -1.40 0.55 -1.65 0.45 -0.20 1.05 -0.15 1.30 0.10 0.45 0.45 1.20 2.90 1.75 5.75 0.30 1.40 1.15 1.90 1.15 0.60 0 -1.35 2.65 -5.25 3.60 -5.25 0.75 0 0.40 2.90 -0.65 5.10 -0.60 1.15 -1.30 2.70 -1.60 3.40 -1.10 2.85 -1.60 3.35 -2.65 2.60z"/>
  <path d="M124.85 59.65 c-0.20 -0.15 -0.35 -1.40 -0.35 -2.75 0 -1.30 -0.15 -2.40 -0.35 -2.40 -0.25 0 -0.95 0.55 -1.55 1.25 -1.05 1.05 -1.30 1.15 -1.90 0.55 -0.40 -0.40 -0.70 -1.30 -0.70 -2.05 0 -1.05 -0.20 -1.30 -1.05 -1.15 -1.20 0.15 -1.55 0.70 -2.50 3.80 -0.45 1.50 -0.90 2.10 -1.55 2.10 -0.65 0 -0.90 -0.35 -0.90 -1.25 0 -1.30 -0.75 -1.70 -1.20 -0.60 -0.15 0.40 -0.55 0.25 -1.20 -0.50 -0.85 -0.95 -1.20 -1.05 -2.55 -0.65 -2.25 0.65 -3.90 -0.10 -4.30 -1.95 -0.60 -2.80 1.30 -6.05 3.60 -6.05 0.65 0 1.30 -0.35 1.45 -0.75 0.20 -0.40 0.65 -0.75 1.05 -0.75 1.30 0 2.10 1.60 2.15 4.25 0 3.20 0.60 4.25 1.40 2.50 0.35 -0.70 0.60 -1.70 0.60 -2.20 0 -1.15 1.45 -2.45 1.90 -1.70 0.35 0.55 2.45 1.05 6.10 1.50 3 0.35 3.95 1.55 4 5.20 0 3.05 -1 4.75 -2.15 3.60z m-15.75 -6.50 c1.35 -1.25 1.15 -2.25 -0.45 -2.05 -1.10 0.10 -1.45 0.45 -1.55 1.55 -0.20 1.55 0.60 1.75 2 0.50z"/>
  <path d="M243.25 59.50 c-0.20 -0.35 -0.15 -0.80 0.15 -1.10 0.70 -0.70 2.35 -0.30 2.35 0.60 0 0.90 -2 1.30 -2.50 0.50z"/>
  <path d="M142.50 59.15 c-2.30 -0.10 -4.50 -0.45 -4.90 -0.75 -0.70 -0.60 -0.65 -3.05 0.20 -15.05 l0.30 -4.45 4.85 0.25 c7.05 0.40 8.55 0.75 8.55 1.95 0 0.95 -0.20 1 -3.35 0.70 -1.90 -0.15 -4.25 -0.45 -5.35 -0.60 -2.45 -0.40 -2.80 0.10 -2.80 4.45 l0 3.35 2.65 0 c1.60 0 3.05 0.30 3.65 0.75 0.95 0.75 0.95 0.75 -0.05 1.55 -0.65 0.50 -1.85 0.70 -3.45 0.65 -2.40 -0.15 -2.50 -0.10 -3.20 1.50 -1.10 2.75 -0.15 3.25 6.20 3.45 5.05 0.20 5.25 0.25 5.10 1.25 -0.15 1.25 -0.85 1.30 -8.40 1z"/>
  <path d="M83.65 54.05 c-3.15 -0.25 -3.50 -0.40 -3 -1.10 0.35 -0.45 1.40 -0.95 2.35 -1.15 3.25 -0.60 3.25 -0.60 3.25 -7.90 l0 -6.65 -3.10 -0.15 c-1.75 -0.10 -3.15 -0.30 -3.15 -0.50 0 -0.70 1.20 -1.60 2.10 -1.60 0.55 0 1.80 -0.40 2.80 -0.90 1.40 -0.65 3.25 -0.95 7 -1 2.80 -0.05 5.10 0.10 5.10 0.35 0 0.70 -1.15 1.40 -2.75 1.70 -0.80 0.15 -2.30 0.45 -3.25 0.70 l-1.75 0.45 -0.15 7 -0.15 7 3.55 -0.20 c3.35 -0.20 4.40 0.25 2.90 1.25 -1.05 0.65 -4.05 1.65 -5.05 1.65 -0.50 0 -1.25 0.35 -1.65 0.75 -0.45 0.40 -0.90 0.70 -1.10 0.65 -0.20 -0.05 -1.95 -0.20 -3.95 -0.35z"/>
 </g>
 <g fill="#ffffff">
 </g>
</svg>