<?xml version="1.0" encoding="utf-8"?>
<!DOCTYPE svg PUBLIC "-//W3C//DTD SVG 1.0//EN" "http://www.w3.org/TR/2001/REC-SVG-20010904/DTD/svg10.dtd">
<svg version="1.0" xmlns="http://www.w3.org/2000/svg" width="319px" height="88px" viewBox="0 0 319 88" preserveAspectRatio="xMidYMid meet">
 <g fill="#1c1c24">
  <path d="M126.75 80.45 c-14.85 -0.15 -44.70 -0.35 -66.30 -0.40 -44.65 -0.05 -41.10 0.30 -46.05 -4.45 -6.60 -6.30 -9.70 -15.05 -9.25 -26.35 0.35 -9 1.35 -13.85 4.65 -22 3.90 -9.80 10.15 -15.15 19.55 -16.80 2.55 -0.45 18 -0.50 63.15 -0.30 32.85 0.20 90.80 0.50 128.75 0.65 37.95 0.15 69.45 0.45 70 0.70 0.55 0.25 1.90 0.70 2.95 1.05 6.15 1.85 11.80 6.65 14.70 12.40 1.85 3.70 2.10 4.30 3.15 8.05 2 7.05 2.65 17.95 1.40 22.70 -0.30 1.10 -0.75 2.95 -1.05 4.05 -1.60 6.15 -4.85 12.60 -8.20 16.25 -4.90 5.25 4.05 4.70 -78.20 4.75 -39.75 0 -84.40 -0.15 -99.25 -0.30z m163.70 -2.70 c0.30 -0.35 -3.40 -4.70 -8 -9.30 l-4.30 -4.30 -11.95 -0.35 c-6.60 -0.20 -29.60 -0.55 -51.20 -0.85 -21.60 -0.25 -55.80 -0.70 -76 -0.95 -20.20 -0.25 -51.55 -0.60 -69.60 -0.80 l-32.80 -0.35 -3.15 2.95 c-3.70 3.55 -10.45 12.40 -9.85 12.95 1.05 1.05 265.80 2 266.85 1z m12.90 -4.50 c3.10 -4 5.90 -10.40 7.05 -16 1.25 -5.90 1.60 -8.80 1.25 -9.40 -0.35 -0.55 -0.80 -2.90 -1.50 -7.50 -0.15 -1 -0.45 -2 -0.70 -2.15 -0.25 -0.15 -0.45 -0.70 -0.45 -1.25 0 -0.50 -0.20 -1.35 -0.45 -1.85 -0.25 -0.45 -1.40 -2.85 -2.55 -5.35 -1.60 -3.45 -2.55 -4.80 -4 -5.85 l-1.90 -1.30 -0.30 8.55 c-0.50 14.65 -1.80 24.70 -3.40 26.60 -0.20 0.25 -0.40 2.70 -0.40 5.50 0 5 0.30 6.40 2.70 11.90 0.80 1.85 0.85 1.85 1.95 1 0.65 -0.45 1.85 -1.75 2.70 -2.90z m-280.90 0.40 c0.95 -1.60 2.35 -3.65 3.15 -4.55 0.75 -0.90 1.40 -1.90 1.40 -2.15 0 -0.30 0.55 -1.70 1.25 -3.05 0.70 -1.40 1.20 -2.60 1.15 -2.65 -0.10 -0.05 -1.40 -0.45 -2.90 -0.85 -1.50 -0.45 -3.15 -0.95 -3.60 -1.15 -0.65 -0.25 -0.90 -0.10 -0.90 0.60 0 1.45 -1.65 5.65 -3.95 9.95 l-2.10 3.95 1.50 1.35 c2.30 2.05 3.10 1.80 5 -1.45z m271.50 -1.40 c-0.25 -1.90 -0.55 -5 -0.75 -6.85 l-0.35 -3.30 -1.55 0.95 c-1.15 0.70 -2.50 0.95 -5.30 0.95 l-3.75 0 6 5.95 c3.30 3.30 6 5.95 6.05 5.90 0 -0.05 -0.15 -1.65 -0.35 -3.60z m-278.50 -3.85 c2.65 -5.95 3.15 -9.70 3.55 -27.15 0.25 -8.50 0.55 -16.95 0.75 -18.75 0.35 -2.95 0.30 -3.15 -0.40 -2.55 -1.55 1.25 -4.60 6.20 -8.20 13.30 -4 7.80 -4.80 18.35 -2.20 28.50 0.70 2.75 4.05 9.25 4.75 9.25 0.35 0 1.15 -1.20 1.75 -2.60z m276.10 -8.40 c1.45 -0.80 3.10 -4.40 3.55 -7.75 0.20 -1.65 0.60 -4.55 0.90 -6.50 1 -6.85 1.15 -11.45 0.55 -16.45 -0.75 -6 -1.30 -8.35 -2.70 -11.05 -2 -3.90 1.90 -3.55 -44.20 -3.90 -22.75 -0.20 -67.60 -0.40 -99.65 -0.45 -32.05 0 -72.60 -0.20 -90.15 -0.35 -31.55 -0.30 -31.90 -0.30 -32.85 0.70 -3 3.20 -4.35 11.55 -4.80 29.65 l-0.30 10.65 1.80 1.70 1.80 1.70 18.65 0.20 c10.20 0.15 50.35 0.50 89.10 0.85 116.45 0.95 157 1.30 157.15 1.40 0.10 0.05 0.60 -0.15 1.15 -0.40z"/>
  <path d="M179 51.95 c-4.70 -1.30 -5.65 -2.50 -5.60 -6.80 0.05 -2.70 1.05 -4.35 3.65 -6 3.90 -2.55 3.60 -1.85 4 -9.70 0.20 -3.95 0.35 -7.25 0.40 -7.30 0 -0.10 0.35 -0.15 0.75 -0.15 1 0 1.30 2.30 1.30 9.35 0 5.20 0.15 6.50 1 8.15 1.15 2.25 1.30 4 0.40 4.95 -0.40 0.35 -0.65 2 -0.65 4.20 l0 3.60 -1.75 0.10 c-0.95 0.05 -2.55 -0.15 -3.50 -0.40z m1.90 -3.05 c1.40 -1.40 0.30 -8.40 -1.35 -8.40 -1.60 0 -3.65 2.75 -3.90 5.20 -0.15 1.25 -0.20 2.30 -0.10 2.30 0.10 0 1.10 0.35 2.20 0.75 2.50 0.90 2.40 0.90 3.15 0.15z"/>
  <path d="M143.85 49 c-3.15 -2.75 -3.45 -7.80 -0.60 -10.80 2.20 -2.35 4.85 -2.15 6.75 0.50 1.65 2.25 1.60 2.80 -0.35 3.65 -1 0.40 -2.60 0.85 -3.55 1 -2.05 0.35 -2.50 1.25 -1.40 2.90 0.75 1.15 1.15 1.25 4.35 1.25 3.95 0 4.35 0.60 1.40 2.10 -2.55 1.35 -4.65 1.15 -6.60 -0.60z m3.65 -8.55 c0 -0.90 -1.45 -1.50 -2.45 -0.95 -1.60 0.85 -1.25 1.55 0.70 1.40 0.95 -0.05 1.75 -0.25 1.75 -0.45z"/>
  <path d="M168.60 49.85 c-0.30 -0.35 -0.90 -2.20 -1.35 -4.15 -0.90 -4.05 -2.15 -5.70 -4.20 -5.70 -1.90 0 -2.95 1.65 -3.80 6.05 -0.70 3.85 -1 4.40 -1.80 3.60 -0.70 -0.70 -2.30 -15 -1.75 -15.50 0.55 -0.60 2.30 1.80 2.30 3.15 0 1.60 0.60 1.80 2.30 0.65 0.80 -0.50 2 -0.95 2.65 -0.95 1.85 0 4.80 2.30 5.75 4.40 1.10 2.50 1.80 7.15 1.25 8.25 -0.60 1 -0.65 1.05 -1.35 0.20z"/>
  <path d="M128.65 45.15 c-1.65 -0.30 -4.15 -3 -4.15 -4.45 0 -1.60 0.50 -1.50 2.30 0.35 1.95 2.05 3.40 2.60 5.60 2 3.35 -0.95 5 -3.60 3.45 -5.55 -0.35 -0.45 -2.40 -1.80 -4.55 -3 -4.65 -2.65 -5.80 -4.40 -4.85 -7.55 1.45 -4.75 9.15 -7.40 10.20 -3.45 0.25 1 0.15 1.05 -1.90 0.75 -2.35 -0.40 -3.95 0.20 -5.35 1.95 -2.05 2.50 -0.70 4.85 4 6.80 1.40 0.60 3.30 1.90 4.15 2.90 1.35 1.50 1.50 2.05 1.30 3.70 -0.55 4.15 -5 6.55 -10.20 5.55z"/>
 </g>
</svg>