<?xml version="1.0" encoding="utf-8"?>
<!DOCTYPE svg PUBLIC "-//W3C//DTD SVG 1.0//EN" "http://www.w3.org/TR/2001/REC-SVG-20010904/DTD/svg10.dtd">
<svg version="1.0" xmlns="http://www.w3.org/2000/svg" width="588px" height="432px" viewBox="0 0 588 432" preserveAspectRatio="xMidYMid meet">
 <g fill="#1c1c24">
  <path d="M348 420.10 c-1.80 -0.10 -3.45 -0.35 -3.70 -0.65 -0.30 -0.25 -0.90 -0.45 -1.40 -0.45 -0.50 0 -1.30 -0.20 -1.80 -0.45 -0.45 -0.25 -1.65 -0.80 -2.65 -1.25 -1 -0.45 -2.10 -1.10 -2.45 -1.55 -0.35 -0.40 -0.85 -0.75 -1.15 -0.75 -1.45 0 -5.85 -6.60 -5.85 -8.75 0 -1.60 1.55 -3.25 3.10 -3.25 1.65 0 3.45 1.10 7.20 4.45 5.35 4.85 9.95 5.80 15.10 3.25 2.55 -1.25 5.60 -4.70 5.60 -6.30 0 -0.40 0.25 -0.95 0.50 -1.20 0.35 -0.35 0.55 -3.15 0.55 -6.85 0 -8.75 -1 -10.20 -5.15 -7.30 -0.70 0.55 -1.65 0.95 -2.10 0.95 -0.45 0 -0.80 0.20 -0.80 0.45 0 0.95 -7.20 1.85 -8.80 1.10 -0.65 -0.30 -1.80 -0.85 -2.50 -1.15 -1.70 -0.80 -4.30 -4.10 -5.10 -6.45 -2.50 -7.40 2.05 -14.85 12.15 -19.95 2.45 -1.25 5.55 -3.10 6.85 -4.10 1.30 -1.05 2.55 -1.90 2.80 -1.90 0.85 0 5.60 5.15 5.60 6.05 0 0.55 0.25 0.95 0.50 0.95 0.30 0 0.50 0.55 0.50 1.20 0 0.70 0.20 1.35 0.45 1.50 0.25 0.15 0.60 1 0.75 1.90 0.20 0.90 0.55 2.80 0.85 4.15 0.30 1.40 0.60 3.50 0.75 4.75 0.15 1.25 0.45 2.70 0.70 3.25 1.10 2.45 1.95 20.50 1.05 21.40 -0.30 0.30 -0.55 1.15 -0.55 1.90 0 0.75 -0.20 1.55 -0.50 1.70 -0.25 0.15 -0.50 0.70 -0.50 1.15 0 1.10 -3.80 6.10 -6 7.90 -0.95 0.80 -1.85 1.55 -2 1.70 -0.25 0.25 -1.90 1.05 -4.10 1.95 -1.50 0.65 -3.95 0.85 -7.90 0.65z m8.60 -4.20 c4.60 -2.40 8.20 -7 9.85 -12.65 0.75 -2.40 0.45 -14.55 -0.40 -18.75 -0.70 -3.45 -1.50 -8.15 -1.85 -10.75 -0.20 -1.10 -0.50 -2.20 -0.75 -2.50 -0.25 -0.25 -0.45 -1.10 -0.45 -1.85 0 -0.75 -0.20 -1.40 -0.50 -1.40 -0.25 0 -0.50 -0.50 -0.50 -1.15 0 -1.10 -2.85 -4.85 -3.65 -4.85 -0.25 0 -1.35 0.65 -2.50 1.40 -1.15 0.75 -3.85 2.25 -6 3.35 -7.05 3.55 -10.85 8.10 -10.85 13 0 5.10 3.80 9.25 8.45 9.25 1.80 0 7.85 -2.55 8.60 -3.65 0.15 -0.20 1.50 -0.35 2.90 -0.25 2.55 0.15 2.70 0.25 3.85 2.30 1.10 1.95 1.20 2.70 1.20 8.85 0 3.90 -0.20 6.80 -0.50 7 -0.25 0.15 -0.50 0.70 -0.50 1.25 0 2.25 -4.60 8.50 -6.30 8.50 -0.40 0 -0.70 0.25 -0.70 0.50 0 0.30 -0.55 0.50 -1.20 0.50 -0.70 0 -1.40 0.25 -1.55 0.50 -0.15 0.30 -2.10 0.50 -4.25 0.50 -2.15 0 -4.10 -0.20 -4.25 -0.50 -0.15 -0.25 -0.65 -0.50 -1.05 -0.50 -1.05 0 -4.50 -2.40 -7.85 -5.50 -3.65 -3.30 -4.70 -3.35 -3.10 -0.10 1.50 2.90 4.65 5.15 11.25 8 0.70 0.30 3.30 0.55 5.85 0.55 3.80 0.05 4.90 -0.15 6.75 -1.05z"/>
  <path d="M345.25 385.40 c-2.60 -1.40 -3.25 -2.50 -3.25 -5.25 0 -4.75 2 -7.10 8.15 -9.60 1.80 -0.75 5.05 -1.05 7.50 -0.75 l2.20 0.30 0.35 3.60 c0.20 1.95 0.15 4.30 0 5.25 -0.40 1.90 -4.05 6.05 -5.35 6.05 -0.45 0 -0.85 0.25 -0.85 0.50 0 0.70 -7.50 0.60 -8.75 -0.10z m7.25 -2.40 c1.15 0 4.20 -3.05 5 -5 0.55 -1.25 0.50 -1.90 -0.05 -3.60 -0.35 -1.10 -0.95 -2.15 -1.35 -2.25 -1.30 -0.55 -7.45 1.95 -9.25 3.70 -2.25 2.15 -2.70 3.90 -1.45 5.60 1.10 1.45 2.75 2.10 4.80 1.75 0.80 -0.10 1.80 -0.20 2.30 -0.20z"/>
  <path d="M206.55 394.15 c-0.85 -1.05 -1.55 -2.25 -1.55 -2.65 0 -0.45 -0.20 -1 -0.45 -1.25 -0.55 -0.60 -0.95 -3.55 -1.35 -9.75 -0.30 -4.15 -0.50 -5 -1.75 -6.85 -2.10 -3.05 -1.95 -6.50 0.45 -9.10 0.90 -0.90 1.80 -3.15 1.60 -3.80 -0.10 -0.25 -0.35 -1.60 -0.55 -3 -0.25 -1.35 -0.65 -3.75 -0.95 -5.25 -1.05 -5.65 -1.60 -9.35 -2.05 -13 -1 -8.90 -1.05 -10.60 -0.50 -11.15 0.30 -0.30 0.55 -1.05 0.55 -1.70 0 -1.35 1.75 -2.25 3.40 -1.80 1.25 0.30 3.60 3.70 3.60 5.15 0 0.55 0.20 1 0.45 1 0.45 0 0.70 0.95 1.30 4.50 0.20 0.95 0.50 2.20 0.75 2.75 0.25 0.55 0.55 2 0.70 3.25 0.15 1.25 0.50 3.70 0.80 5.50 0.30 1.80 0.65 4.10 0.80 5.15 0.20 1 0.50 2 0.75 2.15 0.25 0.15 0.45 0.65 0.45 1.20 0 1.50 3.15 4.20 5.80 4.95 4.35 1.15 7.55 3 9.95 5.65 1.25 1.35 2.25 2.80 2.25 3.20 0 0.40 0.25 0.70 0.50 0.70 0.30 0 0.50 0.45 0.50 1 0 0.55 0.25 1 0.50 1 0.30 0 0.50 0.50 0.50 1.15 0 0.65 0.20 1.35 0.40 1.65 1.25 1.40 2.25 7.75 1.80 11.20 -0.45 3.35 -1.95 5.10 -4.45 5.10 -2.55 0 -3.95 -1.70 -5.25 -6.60 -1.95 -7.45 -2.65 -9 -5.30 -11.75 -3.20 -3.30 -4.95 -3.90 -6.30 -2.20 -0.80 1.05 -0.90 1.80 -0.65 5.70 0.85 15.35 0.85 16.40 -0.20 18.15 -0.90 1.35 -1.30 1.60 -3 1.60 -1.65 0 -2.20 -0.30 -3.50 -1.85z m4.10 -7.70 c-0.05 -3.40 -0.25 -8.15 -0.40 -10.50 -0.30 -3.75 -0.20 -4.60 0.70 -6.55 1.40 -2.90 3.50 -3.80 6.30 -2.60 2.45 1 7.10 5.40 8.05 7.65 0.45 1 1 2.20 1.25 2.65 0.25 0.50 0.45 1.35 0.45 1.85 0 0.55 0.25 1.15 0.50 1.30 0.30 0.15 0.50 0.90 0.50 1.60 0 2.90 1.90 6.50 3.15 6 1.15 -0.45 1.95 -4.15 1.40 -6.10 -0.30 -0.95 -0.80 -2.60 -1.10 -3.60 -1.25 -4.50 -2.90 -7.65 -5.35 -10.25 -2.25 -2.45 -3.60 -3.20 -7.35 -4.35 -5.35 -1.65 -7.15 -3.30 -9 -8.30 -0.40 -1.10 -1 -3.85 -1.80 -8.75 -0.30 -1.80 -0.75 -4.35 -1 -5.75 -0.20 -1.35 -0.55 -3.35 -0.75 -4.40 -0.15 -1 -0.50 -2 -0.75 -2.15 -0.25 -0.15 -0.45 -0.65 -0.45 -1.20 0 -1.15 -2.05 -5 -2.65 -5 -0.25 0 -0.35 1.85 -0.15 4.40 0.35 5.85 1.05 10.70 2.80 20.25 0.25 1.40 0.70 3.95 0.95 5.60 0.25 1.65 0.65 3.45 0.80 4.05 0.25 0.75 -0.10 1.50 -1.25 2.70 -0.85 0.90 -1.90 2.35 -2.30 3.10 -0.75 1.40 -0.70 1.60 0.90 4.05 1.50 2.35 1.70 3 2 7.85 0.45 7.55 1 9.90 2.85 12.15 1.45 1.75 1.80 0.65 1.70 -5.70z"/>
  <path d="M380.60 394.40 c-0.35 -0.35 -0.60 -1.10 -0.60 -1.70 0 -0.65 -0.20 -1.25 -0.45 -1.40 -0.25 -0.15 -0.55 -1.60 -0.75 -3.15 -0.95 -8.95 -1.40 -10.95 -2.95 -13.90 -1.15 -2.20 -1.40 -6.15 -0.50 -8.60 2.05 -5.50 2 -6.60 -0.40 -18.15 -0.30 -1.50 -0.65 -6.20 -0.80 -10.45 -0.30 -10.70 0.65 -13.45 4.60 -12.95 2.60 0.30 4.45 5.40 5.25 14.65 0.25 2.50 0.60 6.25 0.80 8.40 0.15 2.10 0.55 4 0.75 4.15 0.25 0.15 0.45 0.80 0.45 1.50 0 0.65 0.15 1.20 0.40 1.20 0.20 0 0.60 0.50 0.85 1.10 0.30 0.60 1.40 1.55 2.50 2.05 1.10 0.55 2.40 1.15 2.85 1.40 0.50 0.25 1.25 0.45 1.65 0.45 0.40 0 0.75 0.25 0.75 0.50 0 0.30 0.35 0.50 0.80 0.50 1.35 0 5.90 5.10 7.55 8.50 3.90 8 5.65 17.60 3.85 21.40 -0.85 1.85 -2 3.05 -2.95 3.10 -0.75 0 -3.25 -2.25 -3.25 -2.95 0 -0.30 -0.20 -0.95 -0.45 -1.45 -0.75 -1.55 -1.55 -4.40 -1.55 -5.75 0 -0.70 -0.20 -1.45 -0.50 -1.60 -0.25 -0.15 -0.50 -1.20 -0.50 -2.25 0 -1.05 -0.20 -2.10 -0.50 -2.25 -0.25 -0.15 -0.50 -0.75 -0.50 -1.25 0 -2.15 -3.15 -6.55 -5.65 -7.80 -1.25 -0.70 -1.50 -0.65 -2.75 0.25 -2.35 1.65 -2.55 2.70 -2.80 12.55 -0.20 9.50 -0.55 12.80 -1.40 13.90 -0.65 0.75 -3 0.80 -3.80 0z m2.40 -14.35 c0 -6.15 0.20 -10.10 0.50 -10.30 0.30 -0.15 0.50 -0.70 0.50 -1.20 0 -1.20 2.35 -3.20 4.60 -3.95 1.60 -0.55 2.10 -0.50 4.05 0.40 4.95 2.35 7.75 7.90 9.20 18.15 0.15 1 0.45 2 0.70 2.15 0.25 0.15 0.45 0.75 0.45 1.40 0 1.10 0.85 2.30 1.65 2.30 0.45 0 0.20 -6.20 -0.35 -8.75 -1.05 -4.65 -1.65 -6.40 -3.35 -9.95 -1.40 -2.80 -5.20 -7.30 -6.25 -7.30 -0.40 0 -0.70 -0.15 -0.70 -0.40 0 -0.20 -0.75 -0.65 -1.60 -1 -4.65 -1.90 -7.40 -3.55 -7.40 -4.35 0 -0.20 -0.40 -0.95 -0.95 -1.65 -1.15 -1.70 -1.55 -3.35 -2.05 -8.60 -1.25 -12.65 -1.65 -15.30 -2.85 -17.90 -0.95 -2.15 -1.80 -1.80 -2.35 0.95 -0.75 3.95 -0.45 8.40 1.20 17.70 0.85 4.95 1.60 9.95 1.60 11 0.05 1.55 -0.65 5.90 -1.05 7 -1.45 3.75 -1.50 4.30 -0.50 6.05 0.50 0.95 0.95 2.05 0.95 2.45 0 0.40 0.25 0.75 0.50 0.75 0.30 0 0.50 0.75 0.50 1.65 0 0.90 0.20 1.85 0.45 2.15 0.25 0.25 0.60 2.05 0.75 3.95 0.85 10.80 1.80 9.40 1.80 -2.70z"/>
  <path d="M277.75 390.40 c-3.20 -1.15 -5.85 -3.50 -7.10 -6.40 -0.90 -2.10 -1.10 -10.40 -0.30 -12.10 0.30 -0.65 0.95 -2.05 1.40 -3.10 1.75 -3.90 5.75 -7.35 10.75 -9.15 2 -0.75 9.60 -0.85 10.90 -0.20 0.45 0.25 1.45 0.70 2.15 1.05 0.90 0.40 1.50 1.25 1.95 2.70 0.35 1.10 0.85 2.65 1.10 3.45 0.30 0.75 0.40 2.55 0.25 4 -0.75 6.30 -1 7.90 -1.40 8.15 -0.25 0.15 -0.45 0.70 -0.45 1.20 0 1.30 -1.85 4.40 -3.95 6.65 -1.65 1.80 -2.45 2.25 -6.20 3.80 -1.70 0.70 -7.05 0.65 -9.10 -0.05z m9.60 -3.40 c2.30 -1.10 5.65 -4.25 5.65 -5.30 0 -0.40 0.25 -0.70 0.50 -0.70 0.30 0 0.50 -0.55 0.50 -1.20 0 -0.70 0.20 -1.35 0.45 -1.50 0.95 -0.60 1.95 -11.10 1.10 -11.95 -0.30 -0.30 -0.55 -0.95 -0.55 -1.40 0 -0.50 -0.70 -1.40 -1.60 -2 -1.30 -0.95 -2.20 -1.15 -5.50 -1.10 -2.25 0 -4.20 0.25 -4.55 0.60 -0.30 0.30 -0.95 0.55 -1.45 0.55 -0.50 0 -0.90 0.25 -0.90 0.50 0 0.30 -0.25 0.50 -0.60 0.50 -0.85 0 -5.40 4.55 -5.40 5.35 0 0.35 -0.20 0.65 -0.50 0.65 -0.25 0 -0.50 0.35 -0.50 0.75 0 0.40 -0.20 1.15 -0.45 1.65 -1 1.90 -1.65 5.10 -1.35 6.45 0.20 0.75 0.50 2 0.65 2.80 0.15 0.75 0.45 1.35 0.70 1.35 0.25 0 0.45 0.30 0.45 0.65 0 0.90 2.65 3.35 3.60 3.35 0.45 0 1 0.25 1.15 0.50 0.55 0.90 6.40 0.60 8.60 -0.50z"/>
  <path d="M278.25 383.35 c-1.45 -0.90 -1.95 -1.45 -2.65 -3 -0.70 -1.70 -0.80 -5.15 -0.10 -5.60 0.30 -0.15 0.50 -0.75 0.50 -1.30 0 -0.55 1.20 -2.25 2.70 -3.75 l2.75 -2.70 3.40 0 c3.10 0 3.60 0.15 5.30 1.55 1.55 1.30 1.85 1.85 1.85 3.50 0 1.10 -0.20 2.35 -0.45 2.85 -0.25 0.45 -0.70 1.55 -1.05 2.40 -1.70 4.60 -8.85 8.10 -12.25 6.05z m5.90 -3.45 c2.20 -1.55 2.65 -2 3.80 -4.10 1.40 -2.50 1.35 -4 -0.30 -5.30 -2.40 -1.90 -5.95 -0.60 -8.35 3 -3.35 5.05 0.20 9.70 4.85 6.40z"/>
  <path d="M311.50 390.15 c-3 -0.45 -7.50 -3.75 -7.50 -5.45 0 -0.40 -0.20 -0.70 -0.50 -0.70 -0.25 0 -0.50 -0.45 -0.50 -1 0 -0.55 -0.20 -1.40 -0.45 -1.90 -0.90 -1.70 -1.70 -8 -1.35 -10.65 0.20 -1.50 0.50 -3.60 0.65 -4.70 0.15 -1.10 0.45 -2.20 0.70 -2.45 0.25 -0.30 0.45 -0.80 0.45 -1.20 0 -1.25 2.75 -3.10 4.70 -3.10 1.45 0 1.70 0.90 2.30 9.25 1 13.25 1.30 14.05 4.20 10.70 1 -1.20 1.80 -2.55 1.80 -3 0 -0.50 0.25 -1.05 0.50 -1.20 0.30 -0.15 0.50 -1.05 0.50 -2 0 -0.95 0.25 -1.85 0.50 -2 0.30 -0.15 0.50 -0.85 0.50 -1.55 0 -0.65 0.20 -1.60 0.45 -2.10 0.25 -0.45 0.75 -1.50 1.10 -2.35 0.90 -1.95 2.90 -3.75 4.25 -3.75 0.55 0 1.50 0.50 2.10 1.15 1 1.05 1.10 1.70 1.10 6.75 0 3.15 -0.20 5.65 -0.50 5.85 -0.25 0.15 -0.50 0.85 -0.50 1.55 0 0.65 -0.20 1.65 -0.50 2.20 -0.25 0.55 -0.70 1.45 -1 2 -0.25 0.55 -0.50 1.35 -0.50 1.75 0 0.40 -0.20 0.75 -0.50 0.75 -0.25 0 -0.50 0.30 -0.50 0.65 0 1.10 -3.45 4.80 -5.15 5.55 -1.80 0.80 -4.50 1.20 -6.35 0.95z m6.90 -5.30 c1.10 -1.20 2.35 -3.10 2.85 -4.15 0.45 -1.05 1.05 -2.35 1.30 -2.80 0.25 -0.50 0.45 -1.35 0.45 -1.85 0 -0.55 0.25 -1.15 0.50 -1.30 0.30 -0.15 0.50 -1.20 0.50 -2.25 0 -1.05 0.25 -2.55 0.50 -3.25 0.35 -0.95 0.35 -1.95 -0.05 -3.30 -0.60 -1.85 -0.65 -1.90 -1.55 -1.15 -0.50 0.50 -0.90 1.15 -0.90 1.55 0 0.35 -0.20 1.05 -0.45 1.55 -0.70 1.45 -1.55 4.35 -1.55 5.50 0 0.55 -0.20 1.20 -0.50 1.35 -0.25 0.15 -0.50 0.75 -0.50 1.25 0 2.55 -4.60 8 -6.70 8 -1.30 0 -2.90 -1.35 -3.70 -3 -0.55 -1.20 -0.75 -3.30 -1.40 -13.60 -0.15 -2.70 -0.45 -4.90 -0.65 -4.90 -1.25 0 -2.75 6.80 -2.40 11 0.45 4.95 0.90 7.50 1.40 7.50 0.25 0 0.45 0.35 0.45 0.85 0 1.10 2.40 4.15 3.30 4.15 0.35 0 0.70 0.25 0.70 0.50 0 0.30 1.40 0.50 3.20 0.50 3.10 0 3.20 -0.05 5.20 -2.15z"/>
  <path d="M179.65 389.25 c-2.45 -2.75 -3.10 -5.40 -3.50 -13.75 -0.30 -7.45 -0.35 -7.50 -6.40 -7.50 -5.15 0 -7.25 -0.70 -8.15 -2.80 -0.50 -1.10 -0.45 -1.50 0.40 -2.70 1.20 -1.70 4.90 -3.50 7.10 -3.50 0.90 0 2.85 -0.15 4.30 -0.30 l2.60 -0.35 0 -7.10 c0 -7.60 0.55 -9.90 2.50 -10.50 2.60 -0.85 5.50 1.90 5.50 5.20 0 0.85 0.25 1.65 0.50 1.80 0.30 0.15 0.50 1.45 0.50 2.80 0 1.40 0.35 3.15 0.75 3.90 0.70 1.45 1.05 1.55 6.40 2.35 1.85 0.30 3.85 2.25 3.85 3.75 0 1.75 -4.25 5.45 -6.25 5.45 -0.35 0 -1.35 0.65 -2.20 1.45 l-1.55 1.45 0 8.80 c0 8.70 -0.20 9.85 -1.85 11.65 -0.75 0.85 -3.75 0.80 -4.50 -0.10z m3.25 -11.65 c0.15 -10.80 0.40 -11.55 4.65 -13.70 5.10 -2.60 6.60 -3.90 4.50 -3.90 -0.55 0 -1.15 -0.20 -1.30 -0.50 -0.15 -0.25 -1.35 -0.50 -2.60 -0.50 -3 0 -4.95 -1.40 -5.35 -3.85 -0.20 -1.05 -0.55 -3.15 -0.80 -4.65 -0.85 -5.35 -1.45 -7 -2.60 -7 -0.30 0 -0.45 3.40 -0.35 8.65 l0.15 8.60 -3.50 0.30 c-6.80 0.65 -10.95 1.85 -10.75 3.20 0 0.30 2.35 0.60 5.15 0.75 8.10 0.40 8.75 1.10 9.05 10.05 0.25 6.80 0.60 9.10 1.75 10.85 1.55 2.35 1.85 1 2 -8.30z"/>
  <path d="M240.75 387.35 c-1.35 -1.55 -2.55 -6.80 -3.05 -13.35 -0.40 -5.35 -0.40 -6.75 0.05 -12.10 0.35 -3.80 0.60 -4.55 1.90 -6.15 1.95 -2.40 3.90 -2.30 4.40 0.15 0.65 3.10 1 3.10 7.95 -0.65 1.75 -0.95 3 -1.20 5.80 -1.25 4.10 0 6.50 0.95 7.25 2.90 1.10 2.90 -0.85 4.75 -5.55 5.25 -5.25 0.60 -7.85 1.65 -9.90 4.15 -1.75 2.10 -2.05 3.25 -2.60 9.95 -0.70 8.65 -1.85 11.75 -4.40 11.75 -0.75 -0.05 -1.60 -0.30 -1.85 -0.65z m2.50 -4.20 c0.20 -0.80 0.55 -3.65 0.75 -6.40 0.45 -5.75 0.85 -8 1.65 -9.75 2.15 -4.75 6.10 -6.95 14 -7.85 2.25 -0.25 3.10 -1.10 1.85 -1.90 -0.75 -0.45 -7.10 -0.40 -7.45 0.10 -0.15 0.20 -0.85 0.70 -1.50 1.05 -0.65 0.40 -2 1.15 -3 1.70 -3.25 1.85 -7.55 1.10 -7.55 -1.30 0 -0.45 -0.20 -0.80 -0.45 -0.80 -1.20 0 -1.60 11.75 -0.65 18.75 0.85 6.15 1.20 7.75 1.60 7.75 0.20 0 0.55 -0.60 0.75 -1.35z"/>
  <path d="M415.25 378.35 c-1.50 -0.95 -1.95 -1.50 -2.50 -3.10 -0.95 -2.70 1.10 -7.25 3.30 -7.25 0.50 0 1.05 -0.20 1.20 -0.50 0.50 -0.85 3.10 -0.55 5.50 0.55 2.30 1.10 4.25 3.20 4.25 4.70 0 1.40 -1.45 3.65 -3.15 4.95 -1.40 1.05 -2.20 1.30 -4.65 1.25 -1.60 0 -3.40 -0.30 -3.95 -0.60z m7.50 -3.45 c1.60 -1.35 1.55 -1.75 -0.10 -3.50 -1 -1.05 -1.80 -1.40 -3.15 -1.40 -1.35 0 -2.15 0.35 -3.15 1.40 -1.55 1.65 -1.65 2.40 -0.50 3.70 1.20 1.35 5.25 1.25 6.90 -0.20z"/>
  <path d="M417.60 359 c-0.30 -0.55 -0.60 -1.45 -0.60 -1.95 0 -0.55 -0.20 -1.10 -0.45 -1.25 -0.50 -0.35 -0.85 -2.30 -1.60 -9.55 -1.15 -10.60 -0.65 -15.80 2.15 -21.60 1.75 -3.55 5.05 -5.65 8.80 -5.65 4.10 0.05 5.35 2 4.95 7.80 -0.40 4.90 -0.80 7.65 -1.35 8.95 -0.25 0.55 -0.55 1.85 -0.70 2.90 -0.65 4.15 -0.95 5.35 -1.35 5.65 -0.25 0.15 -0.45 0.80 -0.45 1.50 0 0.65 -0.20 1.60 -0.45 2.10 -0.25 0.45 -0.70 1.75 -1 2.85 -1.10 3.65 -2.50 6.70 -3.75 8.15 -1.20 1.40 -3.35 1.45 -4.20 0.10z m3.60 -5.15 c0.40 -0.90 1 -2.50 1.35 -3.60 0.35 -1.10 0.85 -2.20 1.05 -2.45 0.20 -0.30 0.40 -1.10 0.40 -1.85 0 -0.75 0.20 -1.50 0.45 -1.65 0.20 -0.15 0.55 -1.10 0.70 -2.15 0.20 -1.05 0.55 -2.90 0.85 -4.15 1.30 -5.35 1.60 -7.50 1.70 -11.50 l0.05 -4.25 -1.80 -0.15 c-2.70 -0.25 -4.85 1.20 -6.45 4.35 -1.80 3.45 -2.20 5.65 -2.15 12.05 0 5.35 1 14 1.95 16.90 0.30 0.95 1.05 0.30 1.90 -1.55z"/>
  <path d="M551.25 291.40 c-6.70 -1.70 -13.50 -6.50 -16.15 -11.45 -1.90 -3.55 -1.20 -6.90 1.50 -6.95 1.10 0 4.05 1.60 6.50 3.55 1 0.80 2.10 1.45 2.35 1.45 0.30 0 0.55 0.20 0.55 0.40 0 0.25 1.20 0.95 2.65 1.55 1.40 0.65 3 1.35 3.45 1.60 0.50 0.25 1.25 0.45 1.75 0.45 1.20 0 4.15 -1.15 4.15 -1.60 0 -0.20 0.30 -0.40 0.65 -0.40 1.30 0 4.35 -5.05 5.80 -9.55 0.90 -2.90 0.70 -9 -0.40 -10.40 -0.85 -1.15 -1.05 -1.15 -2.60 -0.60 -2.25 0.85 -3.40 1.30 -5.10 2 -0.75 0.30 -3.20 0.55 -5.35 0.55 -3.10 0 -4.40 -0.25 -5.80 -1.05 -2.65 -1.45 -2.90 -1.85 -4.65 -6.10 -0.70 -1.75 -0.75 -6.70 -0.05 -7.10 0.30 -0.15 0.50 -0.75 0.50 -1.30 0 -1.65 2.05 -4.55 5.70 -8.10 2.10 -1.95 8.30 -5.35 9.85 -5.35 0.50 0 1.05 -0.20 1.20 -0.50 0.15 -0.25 1.05 -0.50 2 -0.50 0.95 0 1.85 -0.20 2 -0.50 0.15 -0.25 0.95 -0.50 1.75 -0.50 1.05 0 1.85 0.50 2.95 1.85 0.85 1.05 1.55 2.15 1.55 2.50 0 0.35 0.15 0.65 0.40 0.65 0.40 0 1.10 1.55 2.20 4.75 0.35 1.10 0.80 2.10 0.95 2.25 0.15 0.15 0.45 0.80 0.60 1.50 0.15 0.70 0.55 2.15 0.85 3.25 1.25 4.35 2.65 14.40 2.60 19 0 3.45 -0.70 9.25 -1.15 9.55 -0.25 0.15 -0.45 0.65 -0.45 1.20 0 2.60 -6.25 10.35 -9.60 11.90 -5.70 2.55 -8.90 3.05 -13.15 2z m7.30 -2.95 c7.20 -2.30 12.65 -8.55 13.75 -15.70 0.90 -6.35 0 -16.55 -2.25 -24.25 -0.25 -0.95 -0.65 -2.30 -0.80 -3 -0.80 -3 -4.10 -9.70 -5.30 -10.80 -0.85 -0.75 -1.20 -0.80 -3.10 -0.20 -4.35 1.30 -9.20 3.60 -11.15 5.25 -0.80 0.70 -1.60 1.25 -1.75 1.25 -0.35 0 -2.40 3.05 -3.95 5.80 -1.95 3.45 -0.95 9.10 1.95 11.15 1.20 0.85 2.20 1.05 5.45 1.05 2.25 0 4.20 -0.20 4.35 -0.50 0.15 -0.25 0.75 -0.50 1.30 -0.50 0.50 0 1.45 -0.25 2.10 -0.60 3.25 -1.65 3.75 -1.75 5.45 -0.75 1.65 0.90 2.40 1.70 2.40 2.55 0 0.40 0.25 0.90 0.50 1.05 0.30 0.15 0.50 2.30 0.50 4.75 0 2.45 -0.20 4.60 -0.50 4.75 -0.25 0.15 -0.50 0.95 -0.50 1.80 0 0.80 -0.20 1.85 -0.45 2.35 -0.25 0.45 -0.75 1.55 -1.15 2.35 -2.05 4.35 -4.85 7 -8.80 8.25 -1.70 0.55 -2.50 0.55 -3.80 0.10 -0.90 -0.35 -1.95 -0.60 -2.40 -0.60 -1.10 0 -7.50 -3.45 -8.40 -4.55 -0.45 -0.50 -4.20 -2.95 -4.60 -2.95 -0.25 0 -0.40 0.35 -0.40 0.75 0 0.40 0.25 0.75 0.50 0.75 0.30 0 0.50 0.30 0.50 0.70 0 0.35 1.30 2 2.95 3.60 2.80 2.85 7.50 5.70 9.40 5.70 0.50 0 1.25 0.25 1.65 0.50 1 0.65 4.45 0.65 6.55 -0.05z"/>
  <path d="M549 253.90 c-2.35 -1.35 -2.95 -2.30 -3 -4.60 0 -4.55 6.10 -8.30 13.65 -8.30 3.15 0 3.35 0.05 3.65 1.30 0.20 0.70 0.20 2.90 0 4.85 -0.35 3.85 -1.45 5.60 -4.40 7.15 -2.05 1.10 -7.75 0.85 -9.90 -0.40z m9.25 -2.70 c1.60 -1.05 2.85 -3.70 2.65 -5.55 -0.15 -1.30 -0.30 -1.40 -2.85 -1.55 -1.50 -0.10 -2.95 0.10 -3.20 0.35 -0.30 0.30 -0.85 0.55 -1.20 0.55 -0.35 0 -1.55 0.60 -2.65 1.30 -2.20 1.50 -2.65 3.15 -1.15 4.80 1.10 1.20 6.60 1.30 8.40 0.10z"/>
  <path d="M81.60 267.40 c-0.35 -0.35 -0.60 -1 -0.60 -1.45 0 -0.50 -0.20 -1.05 -0.50 -1.20 -0.30 -0.20 -0.50 -3.60 -0.50 -8.50 l0 -8.20 -2 -3.10 c-1.10 -1.70 -2 -3.65 -2 -4.25 0 -1.65 2.25 -6.40 4 -8.40 l1.50 -1.70 -0.80 -2.45 c-0.45 -1.30 -1 -2.60 -1.25 -2.90 -0.25 -0.25 -0.45 -0.95 -0.45 -1.55 0 -0.65 -0.20 -1.30 -0.50 -1.45 -0.25 -0.15 -0.50 -0.85 -0.50 -1.50 0 -0.65 -0.20 -1.35 -0.50 -1.50 -0.25 -0.15 -0.50 -0.95 -0.50 -1.70 0 -0.75 -0.20 -1.55 -0.45 -1.80 -0.65 -0.70 -1.10 -4.90 -1.35 -12.50 -0.20 -6.05 -0.10 -6.65 0.95 -8.75 1 -1.90 1.45 -2.30 2.80 -2.40 1.95 -0.20 4.15 1.60 5.40 4.40 0.40 0.95 0.95 2.15 1.20 2.60 0.25 0.50 0.45 1.35 0.45 1.85 0 0.55 0.25 1.15 0.50 1.30 0.30 0.15 0.50 1.05 0.50 1.95 0 0.85 0.20 1.80 0.45 2.05 0.25 0.30 0.60 2.55 0.75 5 0.85 12.05 1.05 13.50 2 15.10 0.55 0.85 1.55 1.85 2.25 2.15 0.70 0.35 1.70 0.80 2.15 1.05 0.50 0.25 1.35 0.45 1.90 0.45 2.15 0 7.45 3.10 9.85 5.70 2.55 2.80 4.65 6.30 4.65 7.80 0 0.55 0.20 1.05 0.45 1.20 1 0.65 1.55 10.25 0.80 13.80 -0.75 3.55 -3.55 6.45 -6.10 6.50 -2 0 -3.45 -1.15 -4.45 -3.50 -0.45 -0.95 -1 -2.15 -1.25 -2.60 -0.25 -0.50 -0.45 -1.45 -0.45 -2.10 0 -0.70 -0.20 -1.40 -0.50 -1.55 -0.25 -0.15 -0.50 -0.85 -0.50 -1.50 0 -0.65 -0.20 -1.70 -0.45 -2.35 -0.25 -0.65 -0.75 -2.15 -1.10 -3.40 -1.75 -6.05 -5.45 -9.80 -6.95 -7.05 -0.30 0.60 -0.50 4.80 -0.50 10.25 0 5.60 -0.20 9.35 -0.50 9.55 -0.25 0.15 -0.50 0.85 -0.50 1.50 0 0.65 -0.20 1.35 -0.50 1.50 -0.25 0.15 -0.50 0.65 -0.50 1.05 0 0.35 -0.50 1.25 -1.10 1.95 -1.20 1.35 -4.20 1.75 -5.30 0.65z m3.65 -3.90 c2.25 -4.35 2.90 -9.85 2 -17.85 -0.60 -5.65 0.90 -8.65 4.50 -8.65 1.70 0 2.40 0.30 4 1.90 1.90 1.80 2.50 2.80 3.80 6 0.30 0.75 0.75 1.75 1 2.20 0.25 0.50 0.45 1.55 0.45 2.35 0 0.85 0.25 1.65 0.50 1.80 0.30 0.15 0.50 1.05 0.50 2 0 0.95 0.25 1.85 0.50 2 0.30 0.15 0.50 0.75 0.50 1.30 0 1.40 1.90 4.95 2.85 5.30 1.75 0.65 4.15 -4.25 4.15 -8.45 0 -7.45 -4.70 -16.45 -9.90 -18.90 -0.75 -0.35 -1.75 -0.80 -2.20 -1.05 -0.50 -0.25 -1.35 -0.45 -1.85 -0.45 -0.55 0 -1.15 -0.20 -1.30 -0.50 -0.15 -0.25 -0.70 -0.50 -1.20 -0.50 -2.25 0 -6.05 -3.05 -6.80 -5.50 -0.20 -0.70 -0.60 -3.60 -0.80 -6.50 -0.90 -11.60 -1.05 -13.25 -1.50 -13.75 -0.25 -0.25 -0.45 -1.05 -0.45 -1.80 0 -0.75 -0.20 -1.55 -0.50 -1.70 -0.25 -0.15 -0.50 -0.75 -0.50 -1.25 0 -0.55 -0.55 -1.95 -1.25 -3.10 -2.30 -3.95 -2.10 -3.75 -3 -2.65 -0.65 0.85 -0.75 2.15 -0.55 7.75 0.25 7.70 0.75 11.05 2.30 15.25 1.15 3.20 2.15 6.15 2.35 7.15 0.15 0.60 0.45 1.10 0.70 1.10 0.25 0 0.45 0.55 0.45 1.20 0 0.70 0.25 1.40 0.50 1.55 1 0.60 0.55 2.75 -0.65 3.20 -1.20 0.45 -1.95 1.45 -3.85 4.80 -1.35 2.40 -1.25 3.70 0.40 5.75 2.50 3.05 2.60 3.45 2.60 12.40 0 4.65 0.15 8.60 0.35 8.80 0.55 0.50 1.20 0.10 1.90 -1.20z"/>
  <path d="M463.50 266.50 c-0.40 -0.25 -1.25 -0.50 -1.85 -0.50 -1.50 0 -5 -1.95 -6.90 -3.85 -0.85 -0.85 -2.10 -2.65 -2.75 -4 -0.65 -1.30 -1.35 -2.80 -1.60 -3.25 -0.60 -1.25 -0.50 -11.25 0.10 -11.65 0.30 -0.15 0.50 -0.75 0.50 -1.25 0 -1.05 6.65 -8 7.65 -8 1.05 0 4.80 -3.90 5.60 -5.80 0.60 -1.45 0.75 -4.20 0.70 -13.90 0 -8.65 0.15 -12.55 0.60 -13.60 0.85 -2 2.45 -3.70 3.45 -3.70 1.50 0 3.55 3 4.25 6.25 1.25 5.90 1.50 8.55 2.80 31 0.70 12.05 0.75 17.15 0.25 22.50 -0.55 6.20 -1.50 8 -5.25 9.55 -1.90 0.80 -6.45 0.90 -7.55 0.20z m7.85 -3.90 c2.90 -2.90 2.95 -4.55 1.70 -29.60 -1 -18.90 -1.50 -24.55 -2.65 -28.75 -0.95 -3.55 -0.85 -3.40 -1.60 -2.80 -0.90 0.75 -1.50 6.30 -1.30 11.30 0.30 7 0.20 13.95 -0.25 15.95 -0.50 2.45 -2 4.15 -6.50 7.55 -6.75 5.10 -7.75 6.80 -7.75 12.85 0.05 4.05 0.20 5 1.40 7.40 1.45 2.95 5.50 6.50 7.45 6.50 0.60 0 1.25 0.25 1.40 0.50 0.15 0.30 1.75 0.50 3.50 0.50 2.80 0 3.35 -0.15 4.60 -1.40z"/>
  <path d="M461.50 259.15 c-1.25 -0.25 -3.95 -1.90 -4.65 -2.85 -2.90 -4.10 -3.55 -7.50 -2.10 -11 0.90 -2.10 4.35 -5.75 6.25 -6.60 0.70 -0.30 2.25 -1.05 3.40 -1.65 3.20 -1.55 3.45 -1.45 3.85 1.85 0.65 5.70 0.80 16.25 0.30 16.75 -0.30 0.30 -0.55 0.85 -0.55 1.25 0 1.65 -3.40 2.85 -6.50 2.25z m4.40 -11.10 c0.10 -6.75 0.05 -7.60 -0.75 -7.90 -0.45 -0.20 -0.95 -0.05 -1.05 0.25 -0.10 0.35 -0.60 0.60 -1.15 0.60 -0.50 0 -0.95 0.25 -0.95 0.50 0 0.30 -0.35 0.50 -0.75 0.50 -0.40 0 -1.50 1.05 -2.50 2.40 -1.45 1.95 -1.75 2.80 -1.75 5 0 1.40 0.25 2.60 0.50 2.60 0.30 0 0.50 0.30 0.50 0.65 0 0.90 1.40 2.15 3.80 3.30 1.65 0.85 2.10 0.90 2.95 0.35 0.90 -0.60 1 -1.30 1.15 -8.25z"/>
  <path d="M43.15 262.10 c-1.40 -1.10 -3.15 -4.30 -3.15 -5.75 0 -0.65 -0.20 -1.35 -0.45 -1.60 -1.30 -1.40 -1.60 -18.95 -0.55 -31.50 0.90 -10.95 0.75 -13.85 -0.65 -15.60 -0.60 -0.85 -6.55 -0.85 -10.40 -0.05 -3.85 0.80 -9.40 -0.20 -10.95 -1.95 -1.35 -1.60 -1.30 -4.20 0.10 -5.50 1.60 -1.45 4.75 -3.15 5.90 -3.15 0.50 0 1.10 -0.20 1.25 -0.50 0.15 -0.25 1.20 -0.50 2.25 -0.50 1.05 0 2.05 -0.20 2.20 -0.45 0.75 -1.20 6.50 -1.40 15.05 -0.60 7.25 0.75 15 1.45 20.40 1.85 2.40 0.20 4.50 0.50 4.65 0.75 0.15 0.25 0.70 0.45 1.30 0.45 1.65 0 3.90 1.90 3.90 3.30 0 2.40 -1.80 4.65 -3.80 4.70 -0.55 0 -1.20 0.20 -1.50 0.45 -0.60 0.60 -4.50 1.05 -12.25 1.35 -7.50 0.35 -7.75 0.50 -7.25 5.75 0.50 5.70 1.45 22.10 1.45 25.45 0 6.10 -0.80 17.55 -1.20 17.80 -0.25 0.15 -0.45 0.85 -0.45 1.55 0 1.35 -2.90 4.65 -4.10 4.65 -0.35 0 -1.15 -0.40 -1.75 -0.90z m2.85 -4 c0 -0.50 0.20 -1.10 0.45 -1.35 1.60 -1.75 1.45 -29 -0.25 -44.15 -0.35 -2.95 0.25 -4.95 1.95 -6.50 0.95 -0.90 1.95 -1.05 8.10 -1.30 8.25 -0.30 10.90 -0.60 13.15 -1.60 2 -0.95 2 -1.45 0 -2.40 -1.80 -0.80 -3.90 -1.10 -13.90 -1.80 -3.70 -0.25 -8.75 -0.70 -11.25 -1 -9.45 -1.05 -10.40 -1.10 -11.45 -0.60 -1.45 0.65 -5.60 1.60 -7.05 1.60 -0.65 0 -1.35 0.25 -1.50 0.50 -0.15 0.30 -0.65 0.50 -1.10 0.50 -0.95 0 -4.15 2.35 -4.15 3 0 0.25 0.70 0.85 1.55 1.25 1.60 0.85 1.50 0.85 13.45 0 4.25 -0.30 4.25 -0.30 6.15 1.30 l1.90 1.55 -0.30 10.85 c-0.45 17.20 -0.50 30.65 -0.10 32.80 0.60 2.90 1.40 5.85 2 7.15 0.65 1.35 2.35 1.50 2.35 0.20z"/>
  <path d="M226.75 261.95 c-2.90 -1.10 -6.25 -4.35 -6.25 -6.10 0 -0.65 0.45 -1.60 1 -2.10 0.85 -0.75 1.55 -0.85 4.35 -0.60 4.15 0.40 6.55 0.05 8.15 -1.15 1.20 -0.90 1.20 -0.95 0.30 -1.95 -0.55 -0.60 -1.25 -1.05 -1.65 -1.05 -0.35 0 -0.65 -0.20 -0.65 -0.40 0 -0.25 -0.60 -0.75 -1.35 -1.15 -1.55 -0.80 -4.65 -3.60 -4.65 -4.25 0 -0.25 -0.45 -1 -1 -1.70 -1.45 -1.85 -1.40 -7.75 0.05 -10.35 1.20 -2.10 2.90 -3.75 4.90 -4.65 0.70 -0.35 1.70 -0.80 2.15 -1.05 1.20 -0.60 10.25 -0.55 10.65 0.05 0.15 0.30 0.65 0.50 1.10 0.50 0.45 0 1.55 0.55 2.50 1.30 2.05 1.55 2.30 3.95 0.50 5.60 -1 0.95 -1.75 1.10 -4.90 1.10 -4.05 0 -7 0.80 -8.50 2.35 -1.65 1.65 -0.60 3.20 4.55 6.65 5.35 3.60 7.95 6.75 8 9.65 0 2.20 -0.60 3.40 -3 6 -1.60 1.80 -2.40 2.25 -6.15 3.80 -2.05 0.80 -7.25 0.60 -10.10 -0.50z m10 -2.65 c2.45 -0.85 6.25 -4.55 6.25 -6.10 0 -2.20 -2 -4.55 -6.15 -7.30 -2.25 -1.45 -4.65 -3.30 -5.40 -4.05 -2.55 -2.65 -2.30 -6.35 0.55 -8.45 1.75 -1.25 6.50 -2.40 10.05 -2.40 2.15 0 2.95 -0.20 2.85 -0.60 -0.85 -2.50 -9.55 -3.35 -13.40 -1.25 -5.60 2.95 -6.45 8.55 -2.15 13.35 1.25 1.40 2.55 2.50 2.95 2.50 0.40 0 0.70 0.20 0.70 0.40 0 0.25 0.60 0.75 1.40 1.15 3.05 1.60 4.45 4.55 2.95 6.50 -1.55 2.05 -4.20 2.95 -8.85 2.95 -2.50 0 -4.50 0.15 -4.50 0.30 0 0.55 1.55 1.80 3.40 2.75 2.20 1.10 6.50 1.20 9.35 0.25z"/>
  <path d="M175.65 260.90 c-1.25 -2.70 -1.60 -3.75 -1.90 -5.40 -1.85 -10.70 -2.95 -13.25 -6.95 -15.45 -1.55 -0.90 -2 -0.95 -3.15 -0.45 -2.65 1.15 -6.65 6.55 -6.65 8.90 0 0.55 -0.20 1.10 -0.50 1.25 -0.25 0.15 -0.50 2.25 -0.50 4.60 0 4.80 -0.45 5.60 -3.35 5.65 -2.50 0 -3.55 -1.90 -4.45 -8 -0.15 -0.95 -0.45 -2.20 -0.70 -2.75 -0.25 -0.55 -0.55 -1.90 -0.70 -3 -0.15 -1.10 -0.50 -3.25 -0.80 -4.75 -0.35 -1.50 -0.70 -5.70 -0.85 -9.35 -0.30 -8 0.15 -9.15 3.55 -9.15 1.60 0 2.40 0.30 3.10 1.15 1.20 1.35 3.05 5.10 3.45 7 0.30 1.50 1.30 1.75 2.45 0.60 0.40 -0.40 1.05 -0.75 1.50 -0.75 0.40 0 0.90 -0.20 1.05 -0.50 0.15 -0.25 2.20 -0.50 4.50 -0.50 2.30 0 4.35 0.25 4.50 0.50 0.15 0.30 0.75 0.50 1.25 0.50 1.60 0 7.10 5.60 8.90 9.10 0.90 1.70 1.60 3.65 1.60 4.25 0 0.60 0.25 1.25 0.50 1.40 0.30 0.20 0.50 3.15 0.50 7.20 0 6.55 -0.05 6.95 -1.15 7.95 -1.60 1.55 -4.50 1.50 -5.20 0z m3.60 -4 c0.60 -3.40 0.25 -8.80 -0.75 -11.15 -2.50 -6.15 -5.75 -10.40 -9.30 -12.05 -2.85 -1.35 -8.50 -0.90 -10.20 0.80 -0.75 0.75 -3 1.55 -4 1.40 -1.25 -0.15 -1.60 -0.65 -2.45 -3.65 -1.75 -5.85 -4.15 -8.10 -4.70 -4.35 -0.25 2 0.30 8.60 1.10 13.10 2.95 16.05 3.70 18.45 4.20 12.65 0.55 -6.35 2.60 -11.30 6.10 -14.60 2.15 -2 2.30 -2.05 5.65 -2.05 3.20 0 3.55 0.10 5.50 1.80 1.15 0.95 2.45 2.60 2.90 3.60 0.40 1 1 2.25 1.25 2.70 0.25 0.50 0.45 1.55 0.45 2.35 0 0.85 0.25 1.65 0.50 1.80 0.30 0.15 0.50 1.10 0.50 2.10 0 1 0.25 2.65 0.55 3.60 1.50 4.80 2.10 5.20 2.70 1.95z"/>
  <path d="M317.25 261 c-3.95 -0.95 -6.10 -2.65 -8.15 -6.50 -0.90 -1.75 -1.10 -2.90 -1.10 -6.80 0 -2.60 0.20 -5.10 0.45 -5.60 0.25 -0.45 0.80 -1.65 1.25 -2.70 1.60 -3.70 6.60 -7.60 11.05 -8.70 3.20 -0.75 9.20 -0.35 12 0.80 0.55 0.20 1.35 0.50 1.80 0.65 0.45 0.15 1.40 1.45 2.15 2.90 1.10 2.25 1.30 3.30 1.30 7.15 0 4.15 -0.45 6.70 -1.55 8.90 -0.25 0.50 -0.45 1.20 -0.45 1.60 0 1.30 -4.50 5.75 -7.15 7 -2.75 1.35 -8.70 2 -11.60 1.30z m7 -2.75 c2.25 -0.50 4.30 -1.55 6.10 -3.15 1.80 -1.60 3.65 -4.70 3.65 -6.10 0 -0.50 0.25 -1.10 0.50 -1.25 0.30 -0.15 0.50 -2.40 0.50 -4.95 0 -5.25 -0.70 -7.25 -2.85 -8.25 -0.80 -0.40 -1.80 -0.85 -2.25 -1.10 -1.25 -0.65 -6.25 -0.55 -8.35 0.15 -3.15 1 -4.55 1.65 -4.55 2 0 0.25 -0.35 0.40 -0.75 0.40 -0.90 0 -4.20 4.40 -4.25 5.60 0 0.45 -0.20 1 -0.50 1.15 -0.25 0.15 -0.50 0.85 -0.50 1.55 0 0.70 -0.25 1.75 -0.55 2.30 -1.25 2.30 2.60 10.40 4.90 10.40 0.35 0 0.65 0.20 0.65 0.40 0 0.55 4 1.50 5.50 1.30 0.70 -0.05 1.95 -0.30 2.75 -0.45z"/>
  <path d="M318.70 256.05 c-2.85 -1.30 -3.70 -2.85 -3.70 -6.75 0 -2.40 0.30 -3.80 1.05 -5.15 2.10 -3.80 5.20 -6.15 8.05 -6.15 1.05 0 1.55 -0.30 1.75 -1 0.60 -2.35 3.25 -0.70 5.60 3.50 0.85 1.60 0.90 7.15 0 8.90 -1.05 2.20 -5.65 6.45 -7.25 6.75 -0.80 0.15 -1.90 0.40 -2.45 0.55 -0.55 0.15 -1.90 -0.15 -3.05 -0.65z m5.30 -3.15 c1.95 -1.05 5 -4.60 5 -5.85 0 -0.30 0.25 -0.95 0.55 -1.45 0.40 -0.60 0.30 -1.35 -0.25 -2.65 -0.65 -1.60 -1.05 -1.85 -2.65 -2 -2.95 -0.30 -3.95 0 -5.60 1.55 -2.40 2.35 -3.10 3.75 -3.15 6.55 -0.05 2.25 0.10 2.75 1.30 3.80 1.70 1.45 2.15 1.45 4.80 0.05z"/>
  <path d="M398.75 259.95 c-2.35 -1.15 -3.70 -2.75 -3.75 -4.35 0 -2.55 2.35 -3.60 7.95 -3.60 2.50 0 4.55 -0.20 4.55 -0.45 0 -0.20 -0.90 -1.05 -2 -1.80 -1.10 -0.75 -3.45 -2.90 -5.20 -4.75 -2.65 -2.85 -3.20 -3.75 -3.50 -5.70 -1 -6.55 2.85 -11.75 10.70 -14.50 3.25 -1.15 7.95 -1.05 10.35 0.25 3.25 1.70 4.15 5.20 1.80 6.85 -2.10 1.40 -3.55 1.60 -5.45 0.75 -1.45 -0.70 -1.95 -0.75 -3.80 -0.15 -3.25 1.05 -4.40 1.95 -4.40 3.40 0 1.25 0.55 1.85 7.70 8.50 1.25 1.20 2.30 2.60 2.30 3.10 0 0.50 0.25 1.10 0.50 1.25 1.70 1.05 -1.25 9.20 -3.35 9.25 -0.20 0 -0.95 0.45 -1.65 1 -0.70 0.55 -1.75 1 -2.35 1 -0.60 0 -1.25 0.25 -1.40 0.50 -0.55 0.90 -6.85 0.55 -9 -0.55z m9 -2.45 c0.15 -0.25 0.75 -0.50 1.30 -0.50 0.50 0 0.95 -0.20 0.95 -0.50 0 -0.25 0.35 -0.50 0.70 -0.50 1.05 0 3.30 -3.15 3.30 -4.60 0 -1.85 -1.30 -4.15 -3.25 -5.75 -5.85 -4.70 -7.75 -7.20 -7.75 -10 0.05 -2.30 0.65 -3.20 3.25 -4.65 1.65 -0.95 2.75 -1.15 6.65 -1.15 2.55 0 4.75 -0.20 4.95 -0.50 0.15 -0.25 -0.25 -0.90 -0.90 -1.40 -1.30 -1 -6.75 -1.35 -8.35 -0.50 -0.45 0.25 -1.65 0.80 -2.60 1.25 -2.30 0.95 -5.65 4.55 -6.40 6.85 -0.50 1.50 -0.50 2.10 0.20 3.70 0.80 1.95 5.30 6.65 7.70 8.05 1.35 0.85 3.50 3.75 3.50 4.85 0 0.35 -0.55 1.20 -1.25 1.85 -1.10 1.05 -1.60 1.15 -6.20 1.05 -2.75 -0.05 -5.10 0.15 -5.25 0.40 -0.20 0.25 0.30 0.95 1.05 1.50 1.10 0.80 2.15 1 4.75 1.05 1.85 0 3.50 -0.20 3.65 -0.50z"/>
  <path d="M483.10 259.85 c-0.60 -0.65 -1.10 -1.65 -1.10 -2.25 0 -0.55 -0.20 -1.20 -0.50 -1.35 -0.65 -0.40 -0.65 -10.80 -0.05 -12.35 0.25 -0.65 0.75 -2.25 1.15 -3.55 0.35 -1.30 1.45 -3.45 2.40 -4.75 1.60 -2.10 2 -2.35 3.70 -2.35 1.70 0 2 0.20 3.10 2.15 1.05 1.85 1.20 2.80 1.20 6.85 0 4.40 -0.25 6.15 -1.60 11.50 -0.70 2.65 -0.70 2.70 -2.05 5 -1 1.75 -1.45 2 -3.15 2.15 -1.55 0.10 -2.20 -0.10 -3.10 -1.05z m4.10 -3.10 c0.45 -0.65 0.80 -1.65 0.80 -2.20 0 -0.55 0.20 -1.10 0.45 -1.25 0.65 -0.40 1.10 -3.80 1.35 -10.20 0.20 -4.65 0.10 -5.75 -0.50 -6.40 -0.70 -0.70 -0.90 -0.65 -2.05 0.65 -0.65 0.75 -1.25 1.70 -1.25 2.05 0 0.35 -0.20 1 -0.45 1.50 -1.10 2.20 -1.55 4.80 -1.55 9.40 0 6.85 1.25 9.40 3.20 6.45z"/>
  <path d="M281.50 258.85 c-1.25 -1.10 -1.85 -2.15 -3 -5.15 -0.50 -1.45 -0.50 -5.60 0.10 -10.95 0.15 -1.50 0.15 -1.50 -2.70 -1.65 -2.50 -0.15 -3 -0.35 -3.90 -1.60 -1.15 -1.60 -1.25 -2.85 -0.40 -4.85 0.80 -1.80 2.25 -3.10 3.85 -3.50 0.70 -0.15 2 -0.70 2.80 -1.15 1.30 -0.70 1.55 -1.20 1.85 -3.55 0.40 -3.15 1.25 -9.30 1.70 -12.35 0.15 -1.15 0.50 -2.25 0.75 -2.40 0.25 -0.15 0.45 -0.90 0.45 -1.70 0 -0.80 0.25 -1.60 0.50 -1.75 0.30 -0.15 0.50 -0.75 0.50 -1.30 0 -0.50 0.20 -1.35 0.45 -1.85 0.25 -0.45 1.20 -2.40 2.10 -4.30 1.95 -4.05 4.30 -6.20 7.70 -7.10 3.50 -0.85 6.75 0 9.55 2.45 2 1.75 2.20 2.15 2.20 4.30 0 1.30 -0.25 2.60 -0.60 2.95 -0.70 0.70 -4.40 0.80 -4.40 0.10 0 -0.25 -0.95 -0.50 -2.10 -0.50 -5.75 0 -8.50 6.45 -8.60 20.25 l-0.05 5.50 3.75 0.15 c4.75 0.20 6 1.15 6 4.55 0 2 -0.25 2.50 -1.60 3.75 -1.75 1.50 -4.90 2.80 -6.85 2.80 -2.20 0 -2.50 1.15 -2.55 9.40 0 6.95 -0.10 7.85 -1.05 9.15 -0.85 1.20 -1.35 1.45 -3.10 1.45 -1.45 0 -2.50 -0.35 -3.35 -1.15z m4.25 -2.40 c0.20 -0.25 0.30 -3.75 0.30 -7.70 -0.05 -4.30 0.15 -7.30 0.45 -7.50 0.25 -0.15 0.50 -0.65 0.50 -1.10 0 -1.60 2.05 -3.15 4.20 -3.20 3.30 -0.05 6.35 -2.30 5.65 -4.15 -0.25 -0.65 -1.05 -0.80 -4 -0.80 -3.25 0 -3.80 -0.15 -4.80 -1.20 -1.10 -1.15 -1.15 -1.50 -0.85 -6.90 0.35 -7.45 1.10 -12.40 2.60 -17.40 0.45 -1.55 3.50 -4.85 5.30 -5.80 1.65 -0.85 6.50 -0.90 7.30 -0.10 0.45 0.45 0.60 0.40 0.60 -0.30 0 -1.20 -2.15 -3 -4.50 -3.80 -3.55 -1.15 -7.15 1.05 -9.45 5.80 -0.65 1.35 -1.35 2.85 -1.60 3.30 -0.25 0.50 -0.45 1.35 -0.45 1.85 0 0.55 -0.20 1.15 -0.50 1.30 -0.25 0.15 -0.50 0.85 -0.50 1.50 0 0.65 -0.20 1.30 -0.45 1.45 -0.25 0.15 -0.60 1.25 -0.75 2.40 -0.20 1.20 -0.55 3.60 -0.80 5.40 -0.30 1.80 -0.65 4.90 -0.80 6.90 -0.25 3.10 -0.50 3.85 -1.65 5 -0.75 0.75 -2.40 1.65 -3.70 2 -1.40 0.45 -2.60 1.20 -3.10 1.95 -1.30 1.90 -0.65 2.65 2.25 2.65 4.05 0 4.30 0.45 4.10 8.30 -0.10 4.25 0.05 6.70 0.35 6.95 0.30 0.15 0.55 0.65 0.55 1.10 0 1.85 2.90 3.50 3.75 2.10z"/>
  <path d="M437.65 259.40 c-2.55 -3.50 -3.20 -15.25 -1.15 -20.15 0.25 -0.55 0.70 -1.75 1.10 -2.60 0.55 -1.45 0.90 -1.65 2.50 -1.65 1.50 0 2.10 0.35 3.30 1.80 0.80 1 1.65 2.70 1.85 3.85 0.80 4.20 0.25 13.50 -0.80 14.15 -0.25 0.15 -0.45 0.60 -0.45 1.05 0 0.45 -0.55 1.55 -1.30 2.50 -0.95 1.30 -1.60 1.65 -2.90 1.65 -0.95 0 -1.90 -0.30 -2.15 -0.60z m4.60 -6.85 c1.15 -6.25 0.70 -12.10 -1.15 -14 -0.60 -0.65 -0.80 -0.60 -1.30 0.25 -0.85 1.45 -1.35 4.05 -1.65 8.65 -0.25 3.85 -0.10 4.75 1.20 9.05 0.35 1.15 2.50 -1.75 2.90 -3.95z"/>
  <path d="M525.35 258.85 c-1.45 -1.75 -3.35 -6.40 -3.35 -8.10 0 -0.65 -0.20 -1.35 -0.50 -1.50 -0.25 -0.15 -0.50 -0.85 -0.50 -1.50 0 -0.65 -0.25 -1.85 -0.55 -2.60 -0.30 -0.75 -0.80 -1.95 -1.05 -2.65 -2.40 -5.95 -4.60 -6.95 -7.55 -3.50 -0.90 1.10 -1.95 2.95 -2.30 4.10 -0.35 1.20 -0.85 2.85 -1.10 3.70 -0.25 0.85 -0.45 1.95 -0.45 2.45 0 1 -0.85 4 -1.55 5.35 -0.25 0.50 -0.45 1.20 -0.45 1.55 0 1.20 -2.25 2.85 -3.85 2.85 -1.70 0 -2.70 -1.15 -3.40 -3.75 -0.40 -1.65 -0.95 -8 -1.75 -19.75 -0.25 -4.25 -0.60 -8.95 -0.80 -10.35 -0.35 -3 0.35 -4.15 2.55 -4.15 2.65 0 4.75 2.40 5.45 6.25 0.70 4 0.95 4.75 1.50 4.75 0.35 0 0.80 -0.20 1.10 -0.45 1.85 -1.80 4.40 -2.55 8.45 -2.55 2.30 0 4.35 0.25 4.50 0.50 0.15 0.30 0.70 0.50 1.20 0.50 1.70 0 6.30 5.10 8.15 9.05 2.60 5.50 2.90 6.80 2.90 12.50 0 4.30 -0.15 5.50 -1 6.85 -0.85 1.35 -1.30 1.60 -2.85 1.60 -1.35 0 -2.15 -0.35 -2.80 -1.15z m3.75 -4.40 c0.60 -4.10 -0.25 -9.10 -2.40 -13.70 -1.45 -3.15 -3.35 -5.50 -6.05 -7.30 -1.80 -1.25 -2.55 -1.45 -5.65 -1.45 -3.15 0 -3.85 0.20 -5.75 1.50 -1.20 0.85 -2.85 1.65 -3.60 1.80 -1.95 0.40 -3.65 -1.15 -3.65 -3.35 -0.05 -1.80 -1 -5.80 -1.65 -6.80 -0.95 -1.50 -1.45 -0.55 -1.15 2.25 0.20 1.55 0.55 6.55 0.80 11.10 0.70 12.15 1.45 17.50 2.45 17.50 0.50 0 1.30 -1.80 1.95 -4.25 0.30 -1.10 0.75 -2.95 1.05 -4.05 0.30 -1.15 0.55 -2.65 0.55 -3.35 0 -0.70 0.25 -1.45 0.50 -1.60 0.30 -0.15 0.50 -0.70 0.50 -1.20 0 -3.05 4.55 -7.55 7.60 -7.55 2.95 0 4.95 1.60 6.80 5.55 0.90 1.90 1.60 3.90 1.60 4.40 0 0.55 0.25 1.15 0.50 1.30 0.30 0.15 0.50 0.95 0.50 1.80 0 0.80 0.20 1.85 0.45 2.35 0.25 0.45 0.75 1.90 1.15 3.25 0.35 1.30 0.75 2.35 0.95 2.35 0.20 0 0.45 0.45 0.60 1.05 0.45 1.70 1.55 0.80 1.95 -1.60z"/>
  <path d="M186.65 258.40 c-1.80 -2.40 -1.90 -5.75 -0.65 -20.90 0.30 -3.45 0.75 -12.55 1 -20.25 0.50 -14.90 0.80 -19.20 1.55 -20 0.25 -0.25 0.45 -0.90 0.45 -1.50 0 -0.55 0.70 -1.85 1.55 -2.90 1.75 -2.10 3.25 -2.35 5.70 -0.90 l1.50 0.90 -0.05 6.70 c-0.05 3.70 -0.35 9.85 -0.65 13.70 -0.55 6.95 -0.35 12.25 0.45 12.25 0.25 0 0.75 -0.35 1.20 -0.75 0.40 -0.40 0.85 -0.75 1.05 -0.75 0.20 0 1.25 -0.65 2.40 -1.40 1.15 -0.75 2.80 -1.70 3.60 -2.05 0.85 -0.35 1.90 -0.85 2.35 -1.10 0.50 -0.25 2 -0.45 3.30 -0.45 3.90 0 5.55 2.45 3.85 5.80 -1.40 2.80 -3.90 4.80 -10.10 7.90 -0.65 0.30 -1.15 0.70 -1.15 0.95 0 0.20 -0.30 0.35 -0.65 0.35 -1.05 0 -4.35 3 -4.35 4 0 1.10 1.70 2.35 5.50 4 1.50 0.65 3.30 1.55 4 2 0.70 0.45 1.85 1.10 2.60 1.45 1.65 0.85 4.45 3.40 5.30 4.95 1 1.80 0.75 4.30 -0.55 5.50 -1.25 1.20 -4.55 1.50 -6.35 0.60 -0.55 -0.25 -1.45 -0.70 -2 -1 -1.85 -0.90 -3.25 -1.75 -3.50 -2.05 -0.85 -1.05 -7.30 -5.45 -8 -5.45 -0.95 0 -1.60 1.15 -2.50 4.50 -0.35 1.25 -1.20 3.20 -1.85 4.40 -1.05 1.80 -1.40 2.10 -2.85 2.10 -0.95 0 -1.90 -0.30 -2.15 -0.60z m2.85 -3.95 c0.20 -0.40 0.60 -1.20 0.90 -1.80 0.35 -0.65 0.60 -1.60 0.60 -2.15 0 -0.55 0.45 -2 1.05 -3.25 1 -2.15 1.15 -2.25 3.25 -2.25 1.95 0 3.90 0.65 4.70 1.50 0.15 0.15 1.05 0.85 2 1.50 0.95 0.70 2.25 1.70 2.90 2.25 2.05 1.75 6.10 3.75 7.60 3.75 1.25 0 1.50 -0.20 1.50 -1.20 0 -1.80 -3.15 -4.25 -9.40 -7.35 -6.55 -3.20 -8.60 -5 -8.60 -7.30 0 -0.95 0.35 -2.25 0.85 -2.95 0.80 -1.25 5.10 -4.35 7.90 -5.70 4.05 -1.95 8.45 -5.60 8.10 -6.75 -0.25 -0.80 -2.80 -0.90 -4.55 -0.20 -0.85 0.35 -3.20 1.70 -5.20 3 -4.40 2.90 -6.40 3.40 -8 2 -1.15 -0.95 -1.15 -1 -0.85 -10.90 0.60 -22.05 0.60 -22.40 -0.50 -22.40 -1.20 0 -2.25 2 -2.90 5.50 -0.25 1.40 -0.65 8.60 -0.90 16 -0.25 7.45 -0.65 16.45 -0.95 20 -0.95 12.40 -1.15 19.90 -0.45 19.65 0.35 -0.10 0.80 -0.55 0.95 -0.95z"/>
  <path d="M343.60 258.15 c-2.25 -1.55 -2.60 -3.55 -2.85 -15.55 -0.15 -6.20 -0.35 -11.40 -0.50 -11.50 -0.80 -0.85 -0.15 -3.10 1.20 -4.05 2.25 -1.65 6.55 -1.05 6.55 0.85 0 1.10 1.05 1.15 2.45 0.15 0.80 -0.60 1.80 -1.05 2.20 -1.05 0.45 0 0.95 -0.20 1.10 -0.50 0.15 -0.25 0.85 -0.50 1.50 -0.50 0.65 0 1.35 -0.20 1.50 -0.50 0.45 -0.75 5.15 -0.60 7.50 0.20 2.15 0.75 4.25 2.85 4.25 4.20 0 0.50 -0.35 1.40 -0.80 2 -0.65 0.95 -1.20 1.10 -4.45 1.10 -9.25 0 -13.75 3.35 -13.05 9.60 1.15 9.95 0.95 13 -1.15 15.55 -0.90 1.10 -3.90 1.10 -5.45 0z m3.90 -2.90 c0.40 -0.50 0.50 -2.20 0.30 -6.10 -0.65 -10.55 -0.50 -11.80 1.45 -14.40 1.15 -1.60 4.35 -3.40 7 -4 0.85 -0.20 3.15 -0.45 5.15 -0.60 1.95 -0.15 3.60 -0.40 3.60 -0.55 0 -0.70 -2.75 -1.60 -4.70 -1.60 -2.30 0 -4.50 0.70 -8.25 2.60 -3.75 1.95 -5.25 1.80 -6.20 -0.75 -0.20 -0.60 -0.75 -0.85 -1.45 -0.75 l-1.15 0.15 0.05 9.75 c0 5.35 0.20 11 0.45 12.50 0.55 3.85 2.25 5.60 3.75 3.75z"/>
  <path d="M137.05 255.55 c-0.60 -0.80 -1.05 -1.80 -1.05 -2.15 0 -1.15 -1.85 -2.60 -2.60 -2.05 -0.75 0.55 -3.15 1.30 -6.70 2.20 -2.70 0.65 -3.15 0.55 -7.45 -1.35 -1.75 -0.75 -4.25 -3.35 -4.25 -4.40 0 -0.40 -0.20 -0.90 -0.50 -1.05 -0.30 -0.15 -0.50 -2.40 -0.50 -5 0 -5 0.65 -7 3.15 -9.40 1.40 -1.40 5.15 -3.35 6.35 -3.35 0.55 0 1.10 -0.20 1.25 -0.50 0.15 -0.25 0.95 -0.50 1.70 -0.50 1.10 0 1.60 -0.40 2.35 -1.85 0.90 -1.70 1.20 -1.90 3.25 -2.05 2.05 -0.15 2.50 0.05 4 1.55 1.55 1.55 3.35 4.60 4.45 7.60 0.20 0.55 0.65 1.65 0.95 2.40 0.30 0.75 0.55 1.95 0.55 2.60 0 0.65 0.25 1.35 0.50 1.50 0.30 0.20 0.50 3.25 0.50 7.55 0 8.40 -0.45 9.70 -3.25 9.70 -1.30 0 -1.95 -0.35 -2.70 -1.45z m3.65 -7.30 c-0.15 -0.80 -0.50 -2.95 -0.70 -4.75 -0.50 -3.75 -0.90 -5.85 -1.50 -7.25 -1.20 -3.05 -3.75 -7.80 -4.55 -8.55 -1.20 -1.10 -2.65 -0.70 -2.85 0.80 -0.30 2.15 -1.55 3.10 -3.65 2.75 -1 -0.20 -2.25 -0.10 -2.75 0.15 -0.55 0.30 -1.80 0.90 -2.80 1.30 -4.05 1.80 -6.10 6.60 -4.95 11.75 0.75 3.35 4.40 6.55 7.45 6.55 1.60 0 5.70 -1.25 8.20 -2.55 2.45 -1.25 4.40 0 6.15 3.80 l0.90 1.95 0.70 -2.20 c0.35 -1.25 0.55 -2.90 0.35 -3.75z"/>
  <path d="M123.25 247.40 c-0.55 -0.30 -1.50 -1 -2.10 -1.55 -2.45 -2.20 -0.85 -7.20 2.90 -9.05 1.80 -0.90 6.20 -1.05 6.70 -0.25 0.20 0.25 0.85 0.45 1.40 0.35 1.80 -0.20 2.30 0.45 2 2.50 -0.55 3.95 -2.40 6.35 -6.10 7.90 -2 0.85 -3.45 0.85 -4.80 0.10z m5.65 -4.20 c1.15 -0.95 2.10 -2 2.10 -2.25 0 -1.10 -1.50 -1.95 -3.35 -1.95 -3.50 0 -6.05 3.60 -3.75 5.30 1.40 1.10 2.80 0.80 5 -1.10z"/>
  <path d="M426 256.35 c-1.05 -0.85 -2 -2.65 -2 -3.75 0 -0.50 -0.20 -1.10 -0.45 -1.35 -0.60 -0.65 -0.95 -4.35 -1.60 -17.25 -0.75 -15.70 -0.65 -20.10 0.85 -28.65 0.30 -1.75 3.05 -5.35 4.10 -5.35 0.80 0 4.10 3.65 4.10 4.55 0 0.50 0.20 1 0.45 1.15 0.25 0.15 0.60 1.25 0.80 2.40 1.10 7 2.15 42.70 1.30 43.55 -0.30 0.30 -0.55 0.90 -0.55 1.30 0 0.40 -0.55 1.45 -1.30 2.40 -1 1.35 -1.60 1.65 -3.10 1.65 -1 0 -2.20 -0.30 -2.60 -0.65z m4.15 -4.35 c0.85 -1.55 0.90 -2.60 0.65 -15.70 -0.40 -18.20 -1.30 -30.30 -2.30 -30.30 -0.20 0 -0.50 -0.45 -0.65 -1 -0.35 -1.40 -1.30 -1.25 -1.95 0.40 -1.60 3.85 -1.95 14.85 -1 31.35 0.65 11.05 1.25 14.70 2.75 16.65 0.70 0.90 1.40 0.50 2.50 -1.40z"/>
  <path d="M440.55 222.25 c-2.30 -0.80 -3.55 -2.55 -3.55 -5.05 0 -2.10 0.75 -3.10 3.35 -4.55 1.35 -0.75 4.65 -0.85 4.65 -0.15 0 0.30 0.45 0.50 1 0.50 0.90 0 1 0.35 1 3.40 0 2.90 -0.15 3.55 -1.10 4.40 -1.90 1.65 -3.45 2.05 -5.35 1.45z m2.65 -2.90 c1.10 -0.80 0.90 -3.25 -0.30 -4.05 -0.65 -0.40 -1.10 -0.30 -1.85 0.40 -1.25 1.15 -1.35 2.15 -0.20 3.40 0.95 1.05 1.20 1.10 2.35 0.25z"/>
  <path d="M485.45 220.20 c-0.35 -0.45 -0.60 -1.60 -0.60 -2.60 0.10 -2.80 3.05 -4.45 5.55 -3.15 0.45 0.25 1.25 0.60 1.75 0.75 1.15 0.35 1.10 2.15 -0.15 4.20 -0.90 1.45 -1.20 1.60 -3.45 1.60 -1.60 0 -2.65 -0.25 -3.10 -0.80z m3.75 -2 c1.10 -0.45 1 -1.20 -0.15 -1.20 -1.05 0 -1.70 0.65 -1.20 1.20 0.40 0.35 0.40 0.35 1.35 0z"/>
  <path d="M288.25 73.95 c-1.35 -0.25 -3.75 -0.65 -5.25 -0.90 -1.50 -0.30 -4.10 -0.75 -5.75 -1 -1.65 -0.30 -3.90 -0.75 -5 -1 -1.10 -0.30 -2.65 -0.65 -3.50 -0.80 -1.90 -0.40 -2.55 -0.70 -8 -3.30 -3.35 -1.65 -5.40 -3.10 -8.10 -5.70 -2 -1.90 -3.65 -3.75 -3.65 -4.05 0 -0.30 -0.35 -0.85 -0.75 -1.20 -0.90 -0.75 -3.25 -5.45 -3.25 -6.55 0 -0.50 -0.20 -1.05 -0.50 -1.20 -0.70 -0.40 -0.65 -7.35 0.05 -9.10 1.70 -4.25 2.90 -6.15 5.20 -8.40 2.65 -2.60 6.15 -4.75 7.75 -4.75 0.55 0 1.10 -0.20 1.25 -0.50 0.20 -0.30 2.95 -0.50 6.55 -0.50 6.05 0 6.25 -0.05 6.65 -1.15 0.90 -2.30 8.30 -8.85 10 -8.85 0.30 0 0.95 -0.20 1.45 -0.45 2.05 -1.05 4.65 -1.55 7.75 -1.55 6.60 0 11.65 4.50 15.30 13.65 1.65 4.05 1.75 4.90 1.75 11.35 -0.05 6.30 -0.60 9.80 -1.80 11.20 -0.20 0.30 -0.40 0.85 -0.40 1.30 0 0.85 -4.65 10.25 -7.30 14.75 -0.80 1.40 -1.80 3.15 -2.20 3.90 -1.15 2.30 -4 5.35 -4.90 5.30 -0.45 -0.05 -1.95 -0.30 -3.35 -0.50z m3.90 -3.30 c0.20 -0.50 0.90 -1.90 1.65 -3.15 4.65 -7.80 8.45 -14.90 9.70 -18.25 2.90 -7.55 2.80 -16.20 -0.15 -22.75 -1.75 -3.80 -5.50 -8.35 -8.20 -9.85 -1.30 -0.75 -7.75 -0.85 -9.05 -0.20 -0.45 0.25 -1.50 0.75 -2.35 1.10 -3.15 1.45 -6.70 4.10 -8.20 6.20 -0.85 1.20 -1.55 2.35 -1.55 2.65 0 0.25 -0.40 0.80 -0.90 1.25 -0.80 0.75 -1.30 0.75 -3.40 0.30 -6.45 -1.45 -13.15 0.40 -17.85 4.95 -3.35 3.25 -4.85 6.70 -4.85 11.10 0 1.95 0.20 3.90 0.45 4.40 0.25 0.45 0.95 2 1.60 3.35 1.70 3.70 8.85 10.60 12.95 12.60 1.80 0.85 4.15 1.85 5.25 2.20 1.10 0.35 2.20 0.85 2.45 1.05 0.30 0.20 1.35 0.40 2.35 0.40 1.05 0 2.05 0.25 2.20 0.50 0.15 0.30 1.40 0.50 2.75 0.50 1.35 0 2.55 0.20 2.70 0.45 0.15 0.25 1.60 0.55 3.15 0.75 1.60 0.15 4.05 0.50 5.40 0.75 3.65 0.60 3.60 0.60 3.90 -0.30z"/>
  <path d="M251.35 45.65 c-0.55 -0.55 -0.40 -4.50 0.25 -6 1.70 -3.95 7.15 -8.40 8.70 -7.10 1.20 1 0.80 1.85 -1.50 3.20 -2.65 1.55 -4.80 4.60 -4.80 6.85 -0.05 2.35 -1.60 4.15 -2.65 3.05z"/>
 </g>
</svg>