<?xml version="1.0" encoding="utf-8"?>
<!DOCTYPE svg PUBLIC "-//W3C//DTD SVG 1.0//EN" "http://www.w3.org/TR/2001/REC-SVG-20010904/DTD/svg10.dtd">
<svg version="1.0" xmlns="http://www.w3.org/2000/svg" width="314px" height="409px" viewBox="0 0 314 409" preserveAspectRatio="xMidYMid meet">
 <g fill="#1c1c24">
  <path d="M134.13 403.50 c-1.77 -0.25 -4.20 -0.65 -5.38 -0.85 -1.17 -0.22 -3.75 -0.68 -5.75 -1.05 -8 -1.42 -12.93 -2.65 -19.75 -4.90 -12.10 -3.97 -24.80 -10.10 -33.35 -16.05 -8.27 -5.78 -13.15 -13.75 -15.32 -25.02 -0.57 -2.92 -0.68 -4.20 -0.70 -7.68 0 -2.33 -0.08 -4.20 -0.15 -4.20 -0.10 0 -0.32 0.17 -0.50 0.43 -0.20 0.22 -3.38 2.42 -7.10 4.90 -7.80 5.18 -7.15 4.72 -16.13 11.40 -11.68 8.70 -14.38 11.05 -20.95 18.33 -1.83 2.05 -3.55 3.83 -3.83 3.97 -0.28 0.13 -0.85 0.22 -1.30 0.17 -0.77 -0.08 -0.80 -0.10 -0.77 -1.23 0 -0.93 0.20 -1.40 0.98 -2.50 2.85 -3.95 8.88 -10.13 13.48 -13.85 2.60 -2.10 11.02 -8.45 15.90 -11.98 5.70 -4.13 19.20 -12.80 20.42 -13.13 0.50 -0.13 0.73 -0.50 1.23 -2.03 0.73 -2.17 2.40 -5.60 3.75 -7.68 1.40 -2.17 4.38 -5.80 5.82 -7.10 l1.27 -1.15 0 -5.40 c0 -5.47 -0.10 -6.20 -1.02 -7.40 -1.50 -1.98 -2.50 -3.33 -3.50 -4.78 -0.63 -0.90 -2.08 -2.90 -3.20 -4.47 -2.80 -3.88 -5.20 -7.95 -8.25 -14.02 -1.40 -2.83 -2.65 -5.30 -2.78 -5.50 -2.35 -4.20 -6.97 -17.48 -8.52 -24.38 -0.88 -3.92 -1.70 -9.80 -1.98 -13.85 -0.15 -2.15 -0.38 -4.80 -0.50 -5.90 -0.32 -2.60 -0.32 -11.50 0 -14.57 0.15 -1.33 0.47 -4.10 0.75 -6.18 0.28 -2.05 0.60 -4.75 0.75 -6 0.13 -1.23 0.43 -3.42 0.60 -4.88 0.20 -1.45 0.50 -4.38 0.65 -6.50 0.15 -2.13 0.38 -4.72 0.50 -5.75 0.35 -2.95 0.28 -8.98 -0.13 -13.77 -0.22 -2.42 -0.35 -4.57 -0.32 -4.75 0.05 -0.20 -0.10 -0.32 -0.30 -0.30 -0.20 0.05 -0.88 0.15 -1.50 0.28 -0.63 0.10 -2.05 0.20 -3.17 0.17 -1.65 0 -2.17 -0.10 -2.75 -0.52 -1.85 -1.35 -2.03 -3.75 -0.50 -6.90 0.90 -1.85 2.88 -4 6.40 -6.97 l1.38 -1.15 -0.30 -1.73 c-0.60 -3.53 -0.63 -10.52 -0.08 -18.15 0.28 -3.95 0.63 -7.65 0.75 -8.25 0.15 -0.60 0.38 -2.83 0.52 -4.95 0.52 -7.07 2.03 -14.55 3.70 -18.38 1.30 -2.95 4.63 -7.75 10.52 -15.13 1.98 -2.47 3.70 -4.95 4.32 -6.18 l1.05 -2.03 -1.17 -1.77 c-0.68 -1.02 -1.63 -2.05 -2.22 -2.45 -0.93 -0.63 -1.33 -0.73 -3.67 -0.82 -2.38 -0.13 -2.75 -0.20 -3.67 -0.82 -1.27 -0.88 -1.50 -0.88 -3.85 -0.20 -3.67 1.05 -4.60 1.13 -6.97 0.65 -1.17 -0.25 -2.97 -0.73 -4 -1.05 -1.90 -0.60 -2.85 -0.60 -3.90 0.03 -2.28 1.38 -3.55 1.58 -14.23 2.33 -2.10 0.15 -5.22 -0.40 -6.35 -1.10 -1.45 -0.90 -1.73 -4.10 -0.65 -7.28 1.33 -3.97 3.80 -6.53 7.53 -7.82 1.20 -0.40 6.53 -1.40 9.82 -1.85 7.10 -0.95 9.15 -1.48 11.38 -3 2.05 -1.42 3.83 -1.90 7.50 -2.05 l3.25 -0.15 -1.27 -0.43 c-0.68 -0.25 -1.58 -0.60 -2 -0.82 -0.40 -0.20 -1.90 -0.80 -3.35 -1.33 l-2.63 -0.95 -8.75 -0.17 c-11.48 -0.20 -12.30 -0.43 -15.68 -3.88 -0.85 -0.90 -1.88 -2.10 -2.25 -2.65 -1.38 -2.03 -0.70 -4.22 2.08 -6.95 1.92 -1.90 3.90 -3.15 5.78 -3.65 1.50 -0.40 6.22 -0.45 8.57 -0.08 0.82 0.13 3.03 0.32 4.88 0.45 3.60 0.25 5.43 0.65 7.72 1.70 2.20 1 3.08 1.08 5.32 0.55 2.53 -0.60 4.75 -0.60 7.55 0.03 3.38 0.75 5.72 1.98 9.40 4.90 1.65 1.30 2.15 1.50 7.13 2.97 2.95 0.88 5.63 2.30 7.57 4 2.67 2.33 3.60 3.72 4.57 6.88 0.45 1.50 0.57 2.47 0.57 4.93 l0.03 3.08 1.83 -1.95 c1.15 -1.20 1.92 -2.28 2.10 -2.88 l0.30 -0.98 -1.27 -1.15 c-1.65 -1.52 -2.15 -2.28 -3.63 -5.63 -0.68 -1.55 -1.52 -3.13 -1.90 -3.50 -0.38 -0.40 -1.52 -1.15 -2.58 -1.67 -2.92 -1.48 -3.63 -2.40 -5.82 -7.68 -0.65 -1.55 -1.50 -3.25 -1.90 -3.80 -0.82 -1.13 -2.30 -2.08 -4.13 -2.60 -0.68 -0.22 -2.22 -0.68 -3.42 -1.02 -2.38 -0.73 -6.22 -3.08 -8.02 -4.93 -0.85 -0.88 -0.93 -1.08 -0.93 -2.35 0 -1.83 0.45 -2.85 2.03 -4.50 2.72 -2.88 6.07 -4.57 12.20 -6.15 4.20 -1.08 7.22 -0.30 10.07 2.55 1.02 1 1.75 2.08 2.50 3.60 1.33 2.75 2.20 3.53 6.15 5.40 3.15 1.52 5 2.90 5.72 4.32 0.22 0.43 0.50 1.77 0.60 2.97 0.30 3.20 1 4.22 5.15 7.57 2.35 1.92 4.38 4.20 5.25 5.97 1.75 3.45 1.90 9 0.40 14.20 -0.10 0.38 0.10 0.35 1.40 -0.30 1.48 -0.75 1.52 -0.82 1.98 -2.33 0.28 -0.88 0.57 -2.08 0.68 -2.70 0.08 -0.63 0.32 -1.92 0.52 -2.92 0.95 -4.88 -0.28 -9.77 -3.30 -13.15 -1.35 -1.52 -2.25 -3.38 -2.58 -5.30 -0.65 -3.83 -0.77 -4.40 -1.17 -5.05 -0.25 -0.38 -1.80 -2.10 -3.47 -3.83 -3.33 -3.42 -4 -4.53 -4.28 -6.90 -0.22 -2.10 0.32 -3.92 1.65 -5.43 1.25 -1.40 2.15 -1.98 4.22 -2.65 2.45 -0.80 3.97 -0.70 6.03 0.38 3.08 1.60 5.22 4.25 6.38 7.85 1.08 3.30 1.52 3.97 4.97 7.38 3.72 3.70 4.65 5.20 5.70 9.25 l0.55 2.25 2.28 2.25 c2.60 2.58 3.83 4.75 5.03 8.88 0.60 2.03 0.70 2.83 0.68 5.38 0 2.65 -0.10 3.25 -0.73 5.18 -0.43 1.20 -0.63 2.08 -0.47 1.98 0.13 -0.10 0.98 -0.50 1.88 -0.85 5.40 -2.20 11.80 -2.50 15.98 -0.75 l1.60 0.68 2.28 -2.38 c1.25 -1.30 3.53 -3.80 5.03 -5.57 5.80 -6.75 7.50 -9.52 8.27 -13.60 0.55 -2.90 1.33 -5.25 2.28 -7.05 1.92 -3.53 3.17 -5 7.35 -8.52 3.28 -2.75 4.32 -4.13 5.63 -7.40 1.88 -4.80 4.05 -8.13 6.38 -9.82 2.58 -1.85 6.35 -1.48 7.85 0.80 1.30 1.95 1.08 4.68 -0.80 10.45 -0.32 1.02 -1.05 3.60 -1.60 5.75 -1.92 7.45 -2.53 8.73 -5.78 12.20 -2.78 2.95 -3 3.45 -3.22 7.55 -0.30 5.70 -1.63 8.60 -5.55 12.02 -1.13 0.98 -2.35 2.22 -2.72 2.78 -0.95 1.38 -2.08 6.68 -1.50 7.05 0.28 0.15 3.22 -0.80 4.57 -1.48 1.45 -0.75 3.50 -2.35 5.82 -4.57 1.23 -1.15 3.20 -2.72 4.38 -3.50 4.35 -2.80 4.82 -3.15 5.75 -4.20 0.52 -0.60 1.15 -1.63 1.38 -2.28 0.25 -0.68 0.57 -1.52 0.73 -1.95 0.38 -1.02 2.75 -3.47 6.07 -6.28 2.85 -2.40 4.15 -3.78 7.90 -8.38 3.85 -4.72 6.80 -6.85 16.33 -11.85 4.65 -2.42 6.43 -3.65 9.13 -6.25 3.58 -3.45 5.13 -4.47 8.13 -5.45 3.15 -1.02 8.30 -0.95 10.05 0.15 2.10 1.33 3.42 3.55 3.42 5.80 0.03 2.97 -2.67 7.07 -5.88 8.95 -0.65 0.38 -2.58 1.17 -4.28 1.77 -5.13 1.80 -6.72 2.78 -10.93 6.78 -3.28 3.08 -4.18 3.70 -6.90 4.68 -3.70 1.35 -4.78 2.40 -6.72 6.53 -0.85 1.80 -2.05 3.78 -3.38 5.55 -1.15 1.50 -2.67 3.95 -3.45 5.50 -2.53 5.05 -4.10 6.80 -9.43 10.50 -4.88 3.38 -7 5.80 -7.57 8.65 -0.15 0.73 -0.13 0.77 0.45 0.60 1.58 -0.50 3.13 -1.55 5.57 -3.80 8.80 -8.15 10.82 -10.07 13.68 -12.98 1.80 -1.88 4.35 -4.88 6.03 -7.13 4.63 -6.18 7.07 -8.07 11.65 -9.02 4.45 -0.90 6.15 -1.55 10.43 -4.07 2.30 -1.35 6.78 -3.53 8.88 -4.30 1.73 -0.65 2.17 -0.70 5.25 -0.70 l3.38 0 2.10 1.13 c2.67 1.45 4.63 3.47 6.78 7.13 2.38 4.05 3.88 7.78 5.13 12.63 0.65 2.58 1.58 4.70 3.03 7.10 2.15 3.58 2.45 4.53 2.47 8.02 0 1.65 -0.15 4 -0.35 5.20 -0.32 1.98 -0.32 2.45 0.05 4.55 0.22 1.30 0.70 3.35 1.05 4.55 1.15 3.92 1.27 5.38 0.65 7.93 -1.13 4.75 -3.65 8.23 -6.78 9.43 -1.35 0.50 -2.05 0.60 -4.03 0.57 -4.68 -0.05 -8.45 -1.80 -14.70 -6.82 -4.47 -3.58 -4.85 -3.83 -6.35 -4.40 -1.20 -0.45 -1.25 -0.45 -2.10 0 -0.50 0.28 -1.58 1.45 -2.63 2.85 -3.08 4.13 -5.20 5.72 -9.13 6.93 -5.18 1.55 -5.43 1.65 -6.47 2.70 -0.77 0.77 -1.17 1.45 -1.58 2.75 -0.28 0.93 -0.52 2.03 -0.52 2.42 0 1.60 1.63 5.18 3.83 8.48 0.70 1.02 1.70 2.70 2.25 3.72 0.52 1.02 1.25 2.08 1.58 2.35 0.35 0.25 0.77 0.88 1 1.38 0.77 1.88 1.90 6.18 2.53 9.75 l0.63 3.67 0.05 19.33 c0.03 17.05 0.08 19.27 0.40 19.15 2.15 -0.85 6.55 -1.08 9.63 -0.47 4.13 0.77 8.20 3.83 11.35 8.45 2.75 4.03 4.30 10.75 4.35 18.80 0.05 6.03 -0.82 10.48 -3.22 16.38 -3.47 8.55 -3.75 9.48 -4.97 16.75 -1.55 9.15 -3.13 13.07 -6.32 16.02 -4.20 3.85 -11.48 6.25 -15.70 5.20 -0.63 -0.15 -1.17 -0.22 -1.25 -0.17 -0.08 0.08 0.05 0.52 0.25 0.98 0.65 1.48 3.28 16.27 3.78 21.23 0.08 0.75 0.30 2.67 0.50 4.25 0.43 3.50 1 11.70 0.98 14.18 l-0.03 1.77 1.40 0.17 c3.55 0.43 8.23 2.30 11.45 4.57 2.30 1.65 6.03 5.20 7.85 7.50 1.80 2.22 2.95 4.32 3.85 6.93 l0.70 2.03 1.27 0.03 c2.63 0.05 9.32 2.03 16.15 4.75 6.07 2.42 19.30 9.65 23.35 12.75 2.33 1.77 2.72 3.58 0.80 3.58 -1.02 0 -1.23 -0.10 -8.77 -4.38 -12.48 -7.07 -19.25 -10 -29.05 -12.57 -1.48 -0.40 -2.90 -0.80 -3.13 -0.90 -0.43 -0.20 -0.45 0.03 -0.45 2.50 0 6.53 -2.67 11.77 -11.05 21.77 -5.90 7.03 -14.23 13.65 -25.90 20.63 -11.15 6.63 -29.05 13.68 -41.30 16.23 -7 1.45 -9.32 1.73 -14.82 1.73 -2.92 0 -5.75 0.13 -6.30 0.25 -0.55 0.15 -2 0.47 -3.25 0.75 -1.23 0.25 -3.60 0.75 -5.25 1.13 -6.55 1.42 -8.50 1.67 -14.50 1.80 -3.40 0.08 -6.65 0.03 -7.88 -0.15 -1.17 -0.13 -3.08 -0.38 -4.25 -0.52 -2.47 -0.32 -8.20 -1.45 -12.88 -2.53 -15.20 -3.55 -28.75 -9.82 -36.35 -16.85 -3.10 -2.88 -7.07 -8.15 -10.02 -13.25 -5.18 -8.98 -7.25 -16.40 -7.35 -26.30 -0.03 -1.52 -0.10 -2.72 -0.17 -2.63 -0.80 0.90 -4.10 5.50 -4.82 6.72 -2.63 4.40 -3.58 7.55 -3.80 12.70 -0.15 3.10 -0.08 3.97 0.52 7.50 1.17 7.13 2.47 10.77 5.55 15.60 3.22 5.10 8.40 9.20 18.23 14.50 11.30 6.07 24.50 10.95 36.35 13.40 11.73 2.40 18.38 3.33 26.17 3.63 6.60 0.22 7.30 0.43 7.32 1.92 0 0.38 -0.25 0.70 -0.75 0.95 -1.10 0.57 -12.20 0.47 -16.63 -0.13z m14.63 -18.38 c3.63 -0.32 6.35 -0.80 13.50 -2.38 1.95 -0.43 6.28 -1.23 6.75 -1.25 0.08 0 0.10 -1.73 0.05 -3.83 -0.08 -3.40 -0.03 -4.10 0.55 -6.35 0.75 -3.08 1.25 -4.10 2.85 -5.85 2.70 -2.92 5.55 -4 20.17 -7.53 3.08 -0.73 14.15 -4.25 14.75 -4.68 0.15 -0.10 0.82 -0.40 1.50 -0.65 1.90 -0.68 6.95 -2.95 9.75 -4.40 4.95 -2.55 14.27 -8.43 19.05 -12.02 6.78 -5.07 11.05 -11.75 11.07 -17.27 0 -1.73 -1.08 -3.65 -3.58 -6.45 -1.15 -1.30 -2.47 -2.67 -2.90 -3.10 l-0.80 -0.73 0.15 1.73 c0.60 7.60 0.60 11.40 0.03 12.32 -0.20 0.32 -1.60 0.40 -2.05 0.10 -0.38 -0.25 -0.57 -0.90 -1 -3.05 -0.68 -3.47 -0.88 -8.63 -0.70 -17.50 0.17 -8.88 -0.05 -14.30 -0.77 -19.38 -0.40 -2.72 -1.25 -9.23 -1.63 -12.63 -0.25 -2.03 -1.60 -10.38 -2.38 -14.57 -0.35 -1.88 -0.43 -2 -1.85 -3.42 -0.82 -0.82 -1.92 -2.17 -2.47 -2.97 l-1 -1.50 -0.43 2.80 c-1.13 7.35 -3.30 13.63 -7.55 21.67 -3.83 7.25 -8.52 14.02 -15.65 22.63 -3.20 3.85 -9.93 11.38 -12.93 14.45 -2.58 2.70 -11.20 10.45 -14.85 13.38 -6.03 4.88 -16.95 11.43 -23.88 14.32 -4.50 1.90 -11.70 4.03 -18.40 5.43 l-3.25 0.68 -11.13 0 c-10.52 0 -11.30 -0.05 -14.13 -0.57 -9.40 -1.80 -14.48 -3.63 -19.80 -7.22 -4.30 -2.90 -7.18 -5.43 -8.43 -7.43 -0.63 -0.98 -1.98 -2.72 -3.05 -3.90 -2.33 -2.55 -4.28 -5.47 -4.68 -7 -0.28 -1.02 -0.30 -0.75 -0.43 3.25 -0.15 5.22 0.03 8.80 0.73 14 1.08 8.18 2.45 12.30 6.53 19.40 5.57 9.63 10.90 14.93 20.05 19.80 4.20 2.25 12.20 5.50 16.58 6.75 4.45 1.27 5.35 1.52 6.63 1.80 0.75 0.15 2.67 0.57 4.25 0.90 10.30 2.20 17.40 2.83 24.75 2.22z m33.63 -3.88 c1.60 -0.28 3.03 -0.50 3.15 -0.50 0.35 0 0.25 -3.95 -0.15 -5.85 -0.50 -2.38 -0.88 -2.90 -2.15 -2.90 -0.55 0 -1.30 0.15 -1.67 0.35 -1.05 0.55 -2.28 1.95 -2.45 2.83 -0.17 0.95 0.17 1.20 2.45 1.65 1.50 0.30 1.58 0.35 1.58 1.05 0 1.15 -1.25 1.70 -3.45 1.55 -2.85 -0.17 -4.05 -1.55 -3.85 -4.32 0.25 -3.42 3.28 -6.28 6.90 -6.55 2.33 -0.15 3.72 0.47 4.78 2.10 1.17 1.88 1.55 3.50 1.45 6.63 -0.05 1.50 -0.03 2.72 0.03 2.72 0.22 0 4.85 -1.30 7.78 -2.17 5.72 -1.73 17.08 -6.20 23.52 -9.25 7.30 -3.47 17.38 -9.95 23.98 -15.40 5.57 -4.63 8.77 -8.02 13.40 -14.25 5.05 -6.78 6.32 -10.30 6 -16.45 -0.22 -3.78 -0.68 -5.45 -2.17 -7.93 -1.90 -3.13 -6.13 -7.43 -9.43 -9.63 -2.50 -1.65 -6.22 -3.22 -9.60 -4.03 l-0.70 -0.15 0 2.10 0 2.13 1 0.60 c2.70 1.60 7.07 6.32 8.55 9.27 0.68 1.30 0.80 1.88 0.90 3.90 0.13 2.88 -0.28 4.70 -1.73 7.75 -3.05 6.40 -6.65 10.05 -16.23 16.42 -15.15 10.10 -24.95 14.25 -46.85 19.83 -8.75 2.22 -10.07 2.75 -12.07 4.57 -1.45 1.33 -2 2.42 -2.60 5.25 -0.52 2.40 -0.80 8.25 -0.40 8.88 0.35 0.50 6.60 0.40 10.05 -0.20z m-50.38 -41.97 c5.95 -1.10 13 -3.10 17.95 -5.05 6.45 -2.55 17.13 -8.80 23.17 -13.55 2.67 -2.10 8.82 -7.45 12.98 -11.27 8.75 -8.07 24.33 -27.13 28.27 -34.55 0.35 -0.65 0.73 -1.30 0.85 -1.45 0.13 -0.15 0.95 -1.67 1.83 -3.40 3 -5.80 5.03 -11.15 6.05 -15.88 0.77 -3.53 1.65 -9.07 1.85 -11.75 0.28 -3.55 1 -5.38 2.08 -5.38 0.88 0 1.02 0.35 1.63 3.20 0.73 3.53 2.92 7.65 5.28 9.85 1.83 1.70 5.07 2.53 8.02 2 1.48 -0.25 4.22 -1.23 5.85 -2.08 1.25 -0.63 3.25 -2.30 4.18 -3.47 1.60 -2.03 3.35 -7 3.90 -11.13 0.35 -2.60 1.38 -7.85 1.90 -9.77 0.30 -1.08 1.20 -3.60 2.03 -5.60 2.30 -5.60 3.67 -9.77 3.97 -12.07 0.13 -1.13 0.38 -2.63 0.52 -3.33 0.47 -2.28 -0.20 -10.93 -1.15 -14.32 -1.17 -4.32 -2.72 -6.93 -5.90 -9.85 -2.35 -2.17 -4.20 -3.05 -7.15 -3.45 -3.05 -0.38 -5.10 -0.05 -7.72 1.25 -4.18 2.08 -7.70 5.57 -11.90 11.88 -2.47 3.67 -3.63 5.93 -4.97 9.88 -1.25 3.55 -1.88 4.63 -2.78 4.72 -2.13 0.25 -2.83 -3.13 -3.22 -15.57 -0.25 -7.40 -0.55 -11.55 -1.10 -14.63 -0.43 -2.25 -1.05 -6.13 -1.42 -8.60 -0.20 -1.35 -1.58 -6.97 -3.13 -12.77 -1.35 -5.07 -1.85 -8.60 -2.08 -15 -0.15 -3.38 -0.30 -6.22 -0.38 -6.32 -0.08 -0.13 -0.30 -2.08 -0.52 -4.32 -0.20 -2.25 -0.43 -4.35 -0.50 -4.65 -0.08 -0.30 -0.22 -1.63 -0.38 -2.95 -1 -9.73 -5.47 -16.35 -13.38 -19.85 -3.28 -1.48 -6.60 -2.63 -9.25 -3.25 -2.45 -0.60 -10.48 -0.93 -18.38 -0.77 -2.95 0.05 -10.10 0.10 -15.88 0.10 -12.32 0.03 -11.35 0.20 -21.75 -3.83 -1.92 -0.77 -5.82 -1.77 -8.13 -2.15 -0.63 -0.10 -2.70 -0.55 -4.63 -1 -2.55 -0.60 -4.43 -0.88 -6.88 -1 -1.85 -0.10 -4.10 -0.32 -4.97 -0.55 -1.15 -0.25 -3.05 -0.35 -6.60 -0.35 -4.25 0.03 -5.25 0.10 -6.53 0.50 -3.05 0.98 -9.25 2.85 -12.90 3.90 -8.05 2.30 -12.63 4 -16.15 6.07 -7.50 4.38 -15.77 12.57 -18.35 18.17 -1.33 2.88 -1.90 4.95 -2.72 10.02 -1.17 6.95 -1.58 11.02 -2 20.10 -0.15 2.92 0.10 11.18 0.35 11.45 0.05 0.05 1.15 -0.38 5.68 -2.30 1.20 -0.50 3.22 -1.20 4.50 -1.55 2.25 -0.63 2.63 -0.65 10.95 -0.73 9.25 -0.10 10.63 0 13.30 1.02 2.35 0.90 3.92 2 4.90 3.45 0.68 1.02 0.80 1.42 0.80 2.67 0 1.27 -0.10 1.58 -0.77 2.33 -1.02 1.17 -3.33 2.28 -6.10 2.92 -1.92 0.45 -3.45 0.55 -10.63 0.73 -7.45 0.17 -8.57 0.25 -10.10 0.70 -2.30 0.70 -4.40 1.73 -7.63 3.65 -1.48 0.90 -2.97 1.75 -3.33 1.88 -0.82 0.30 -0.90 0.77 -0.68 4.40 0.28 4.25 0.25 15.65 -0.05 17.88 -0.13 1.02 -0.32 4.03 -0.45 6.63 -0.13 2.63 -0.35 5.47 -0.50 6.38 -0.15 0.90 -0.28 2.20 -0.28 2.88 0 0.70 -0.22 2.58 -0.50 4.20 -1.23 7.22 -1.85 14.63 -1.50 17.98 0.15 1.42 0.38 4.50 0.50 6.82 0.28 4.93 1.05 11.23 1.90 15.25 0.82 4 4.78 16.52 6.28 19.88 0.35 0.75 0.95 2.28 1.35 3.38 0.80 2.13 4.78 10.32 6.68 13.73 1.10 1.98 3.08 4.95 4.97 7.55 0.52 0.70 1.63 2.22 2.45 3.38 0.82 1.15 2.28 2.90 3.25 3.85 1.90 1.90 3.35 4.13 5.22 8 2.35 4.85 4.32 7.53 8.82 11.90 5.70 5.57 8.10 7.40 12.20 9.18 3.83 1.67 8.73 2.97 14.23 3.80 4.60 0.70 4.63 0.70 13.65 0.63 7.10 -0.05 8.50 -0.13 11 -0.60z m96.55 -152.23 c0.98 -1.48 2.15 -3.05 2.60 -3.55 l0.80 -0.88 -1.23 0 -1.23 0 -0.25 1.38 c-0.38 1.92 -1.13 3.47 -2.28 4.70 -0.52 0.60 -0.98 1.20 -0.98 1.35 0 0.52 0.73 -0.35 2.55 -3z m-5.80 1.42 c0 -0.45 -0.10 -0.70 -0.25 -0.60 -0.13 0.08 -0.25 0.50 -0.25 0.90 0 0.45 0.10 0.70 0.25 0.60 0.15 -0.08 0.25 -0.50 0.25 -0.90z m3.63 -8.73 c0.43 -1.25 0.47 -1.75 0.17 -1.75 -0.38 0 -1.50 3.65 -1.35 4.40 0.13 0.70 0.15 0.70 0.47 -0.40 0.17 -0.63 0.50 -1.63 0.70 -2.25z m9.90 -1.70 c-0.52 -0.17 -1 0.15 -1.42 0.98 l-0.40 0.82 1.05 -0.85 c0.60 -0.47 0.95 -0.90 0.77 -0.95z m-2.65 -3.67 c0.60 -1.52 1.13 -2.85 1.13 -2.97 0 -0.43 -0.82 -1.15 -1.30 -1.15 -0.25 0 -0.45 0.03 -0.47 0.08 -0.03 0.03 -0.13 1.30 -0.22 2.80 -0.13 1.52 -0.30 3.10 -0.40 3.50 -0.30 1.27 0.08 0.60 1.27 -2.25z m-9.68 -1.15 c0.05 -1.25 0 -1.52 -0.22 -1.30 -0.17 0.17 -0.35 0.95 -0.43 1.73 -0.10 1.13 -0.05 1.40 0.22 1.30 0.25 -0.08 0.38 -0.63 0.43 -1.73z m-188.95 -1.70 c0 -0.28 -1.73 -0.88 -1.92 -0.68 -0.08 0.08 0 0.30 0.17 0.52 0.32 0.40 1.75 0.52 1.75 0.15z m203.85 -1.83 c0.20 -1.85 0.17 -4.03 -0.08 -4.40 -0.13 -0.22 -0.40 0.22 -0.85 1.42 l-0.65 1.75 0.55 1.25 c0.30 0.70 0.63 1.27 0.70 1.27 0.08 0 0.22 -0.60 0.32 -1.30z m-194.35 -1.42 c0.30 -0.20 0.17 -0.28 -0.52 -0.28 -0.77 0 -0.93 0.10 -1.02 0.60 -0.13 0.60 -0.10 0.60 0.52 0.28 0.35 -0.20 0.82 -0.47 1.02 -0.60z m177.35 -0.10 c0.20 -0.55 0.15 -0.77 -0.30 -1.25 -0.30 -0.32 -0.55 -0.70 -0.55 -0.85 0 -0.15 -0.17 -0.40 -0.38 -0.57 -0.52 -0.43 -0.50 0.22 0.05 2.05 0.47 1.52 0.80 1.70 1.17 0.63z m-175.10 -4.70 c0 -0.25 -0.10 -0.47 -0.25 -0.47 -0.13 0 -0.25 0.30 -0.25 0.65 0 0.35 0.10 0.57 0.25 0.47 0.15 -0.08 0.25 -0.38 0.25 -0.65z m8.13 0 c0.55 -0.30 1.33 -0.80 1.70 -1.13 0.77 -0.65 1.17 -0.60 1.17 0.17 0 0.40 0.17 0.47 1 0.47 1.30 0 1.13 -0.52 -0.45 -1.20 l-1.15 -0.50 -1.02 0.50 c-1.58 0.80 -3.30 2.20 -2.72 2.20 0.28 0 0.93 -0.25 1.48 -0.52z m169.02 0.20 c0.15 -0.45 -0.32 -1.67 -0.65 -1.67 -0.28 0 -0.35 1.58 -0.08 1.83 0.25 0.28 0.57 0.20 0.73 -0.15z m-154.45 -0.85 l0.52 -0.20 -0.52 -0.82 c-0.45 -0.73 -0.55 -0.77 -0.93 -0.47 -0.22 0.20 -0.93 0.55 -1.58 0.80 -0.68 0.25 -1.20 0.52 -1.20 0.60 0 0.25 3.08 0.32 3.70 0.10z m164.15 0.03 c0.22 -0.08 0.40 -0.32 0.40 -0.52 0 -0.50 -0.85 -0.30 -0.95 0.25 -0.10 0.47 -0.03 0.50 0.55 0.28z m-190.45 -2.65 c-0.52 -0.30 -1.05 0.10 -0.80 0.52 0.13 0.20 0.32 0.20 0.70 0 0.50 -0.28 0.50 -0.30 0.10 -0.52z m20.10 0.22 c0 -0.28 -0.98 -0.93 -1.38 -0.93 -0.25 0 -0.13 0.65 0.17 0.95 0.40 0.40 1.20 0.38 1.20 -0.03z m11.23 -1.20 c-0.57 -0.35 -0.93 -0.25 -1.60 0.45 -0.93 1.02 -0.77 1.13 0.65 0.40 0.95 -0.45 1.20 -0.70 0.95 -0.85z m164 0.22 c-0.28 -1.58 -0.68 -2.45 -1.08 -2.45 -0.35 0 -0.65 0.50 -0.65 1.10 0 0.17 0.35 0.68 0.75 1.10 0.43 0.45 0.75 0.98 0.75 1.17 0 0.22 0.10 0.35 0.22 0.28 0.13 -0.08 0.13 -0.63 0 -1.20z m-184.23 -2.95 c0.28 -0.17 0.15 -0.25 -0.55 -0.25 -0.50 0 -1 0.13 -1.08 0.25 -0.20 0.32 1.13 0.32 1.63 0z m12.13 -0.15 l1.25 -0.32 -1.23 0.10 c-0.68 0.08 -1.85 0.13 -2.63 0.13 -1 0 -1.30 0.08 -1.02 0.25 0.52 0.32 2.13 0.28 3.63 -0.15z m-4.68 -0.28 c-0.25 -0.05 -0.65 -0.05 -0.88 0 -0.25 0.08 -0.05 0.13 0.43 0.13 0.47 0 0.68 -0.05 0.45 -0.13z m172.52 -2.70 c-0.45 -1 -0.50 -1.48 -0.38 -2.78 0.15 -1.38 0.10 -1.60 -0.30 -1.83 -0.28 -0.15 -0.52 -0.20 -0.60 -0.15 -0.05 0.05 0 0.80 0.15 1.63 0.17 1.05 0.17 1.83 -0.03 2.53 -0.25 1 -0.25 1 0.65 1.45 0.50 0.28 0.93 0.45 0.98 0.43 0.03 -0.05 -0.17 -0.63 -0.47 -1.27z m-12.52 -0.88 c0.65 0 0.63 0.05 0.28 -0.98 -0.17 -0.50 -0.60 -0.95 -1.20 -1.25 -0.93 -0.50 -1.75 -1.27 -2.22 -2.15 -0.28 -0.47 -0.28 -0.47 -0.30 0.13 0 0.63 0.63 3.90 0.88 4.57 0.13 0.30 0.28 0.30 1.08 0.03 0.50 -0.17 1.17 -0.32 1.50 -0.35z m5.20 -1.30 c0.17 -0.28 -1.38 -3.67 -1.70 -3.70 -0.13 0 -0.20 0.55 -0.20 1.23 0 0.98 0.15 1.40 0.65 2 0.70 0.82 0.98 0.95 1.25 0.47z m10.85 -3.33 c0 -0.47 -0.10 -0.88 -0.25 -0.88 -0.13 0 -0.25 0.40 -0.25 0.88 0 0.47 0.13 0.88 0.25 0.88 0.15 0 0.25 -0.40 0.25 -0.88z m-5.25 -3.35 c0 -0.60 -0.93 -1.77 -1.40 -1.77 -0.52 0 -0.43 0.82 0.17 1.60 0.60 0.75 1.23 0.85 1.23 0.17z m-8.30 -0.65 c0.73 -0.32 0.85 -0.45 0.55 -0.63 -0.50 -0.32 -1.92 -0.30 -2.13 0 -0.22 0.35 0.03 1 0.38 1 0.15 0 0.68 -0.17 1.20 -0.38z m-5.85 -1.95 c0.22 -0.38 0.15 -0.55 -0.43 -0.98 -1.63 -1.20 -2.58 -4 -1.83 -5.47 0.40 -0.80 0.32 -1.40 -0.10 -0.73 -0.65 1.08 -0.80 2.70 -0.38 4.60 0.22 1.05 0.65 2.17 0.93 2.53 0.57 0.73 1.38 0.75 1.80 0.05z m19.95 -0.98 c-0.57 -0.60 -0.70 -0.38 -0.38 0.75 0.13 0.52 0.17 0.55 0.55 0.20 0.35 -0.38 0.32 -0.45 -0.17 -0.95z m-10.80 -2.33 c0 -0.30 -0.88 -1.88 -1.05 -1.88 -0.10 0 -0.20 0.45 -0.20 1 0 0.90 0.08 1 0.63 1 0.35 0 0.63 -0.05 0.63 -0.13z m-7.63 -1.38 c0.17 -0.80 -0.25 -1.95 -0.45 -1.25 -0.08 0.20 -0.20 0.73 -0.28 1.15 -0.22 1.35 0.43 1.42 0.73 0.10z m16.52 -0.13 c0.45 -1.10 0.45 -3.08 -0.03 -5.13 -0.57 -2.47 -0.55 -2.42 -1.48 -1.35 l-0.82 0.98 0.68 0.43 c0.95 0.57 1.33 1.88 1.20 4.10 -0.08 1.02 -0.08 1.85 -0.03 1.85 0.05 0 0.28 -0.40 0.47 -0.88z m-9.50 -5.28 c0.10 -0.43 0.05 -0.73 -0.17 -0.88 -0.57 -0.35 -0.73 -0.25 -0.73 0.47 0 1.20 0.63 1.48 0.90 0.40z m3.35 -2.50 c0 -0.20 -0.50 -0.90 -1.13 -1.55 -1.05 -1.10 -1.13 -1.15 -1.13 -0.55 0 0.73 1.35 2.50 1.90 2.50 0.20 0 0.35 -0.17 0.35 -0.40z m-15.50 -3.03 c0 -0.40 -0.13 -0.88 -0.25 -1.08 -0.20 -0.30 -0.25 -0.22 -0.25 0.30 0 0.35 -0.08 0.82 -0.15 1.05 -0.10 0.28 -0.03 0.40 0.25 0.40 0.28 0 0.40 -0.22 0.40 -0.68z m19.75 -3.67 c0 -0.50 -0.60 -0.90 -0.98 -0.65 -0.20 0.10 -0.28 0.38 -0.20 0.60 0.20 0.50 1.17 0.52 1.17 0.05z m-16.63 -0.90 c0 -0.17 -0.15 -0.38 -0.30 -0.43 -0.20 -0.08 -0.32 0.10 -0.32 0.43 0 0.32 0.13 0.50 0.32 0.45 0.15 -0.08 0.30 -0.28 0.30 -0.45z m3.38 -0.47 c-0.13 -0.28 -0.25 -0.77 -0.25 -1.10 0 -0.80 -1.27 -2.17 -2.03 -2.17 -0.55 0 -0.55 0.03 0.17 0.82 0.43 0.43 1.05 1.27 1.42 1.88 0.68 1.05 1.17 1.48 0.68 0.57z m-7.40 -1.42 c0.20 -0.73 -0.03 -1.60 -0.38 -1.60 -0.13 0 -0.22 0.50 -0.22 1.13 0 1.23 0.35 1.50 0.60 0.47z m13.98 -1.48 c-0.08 -0.20 -0.30 -0.38 -0.47 -0.38 -0.30 0 -0.30 0.10 -0.10 0.50 0.30 0.57 0.80 0.45 0.57 -0.13z m2.85 -2.78 c0.15 -0.40 -0.38 -0.93 -0.73 -0.70 -0.10 0.08 -0.20 0.35 -0.20 0.63 0 0.57 0.70 0.65 0.93 0.08z m-7.85 -0.95 c0.15 -0.40 -0.32 -1.45 -0.75 -1.58 -0.35 -0.13 -0.70 1 -0.47 1.55 0.17 0.47 1.05 0.50 1.23 0.03z m4.10 -2.33 c-0.22 -1.80 -1.88 -5.32 -2.47 -5.32 -0.13 0 -0.05 0.30 0.15 0.70 0.75 1.30 1.40 3.33 1.40 4.28 0 1.02 0.13 1.27 0.70 1.27 0.28 0 0.32 -0.22 0.22 -0.93z m-9.93 -1.50 c0 -0.52 -0.43 -1.25 -0.60 -1.08 -0.05 0.08 -0.17 0.43 -0.28 0.82 -0.15 0.57 -0.10 0.68 0.35 0.68 0.32 0 0.52 -0.15 0.52 -0.43z m-169.88 -2.25 c0.52 -0.80 1.17 -1.73 1.48 -2.05 0.32 -0.38 0.40 -0.55 0.17 -0.47 -0.35 0.10 -2.78 3.40 -2.78 3.75 0 0.40 0.20 0.17 1.13 -1.23z m175 -4.80 c0 -0.45 -0.20 -0.68 -0.70 -0.85 -0.88 -0.28 -0.90 -0.25 -0.75 0.77 0.13 0.73 0.22 0.82 0.80 0.75 0.50 -0.05 0.65 -0.22 0.65 -0.68z m-14.13 -0.30 c0 -0.50 -0.60 -0.65 -0.88 -0.22 -0.20 0.32 0.35 1.05 0.65 0.85 0.13 -0.08 0.22 -0.35 0.22 -0.63z m-156.15 -0.52 c-0.22 -0.35 -0.60 0.05 -0.60 0.63 0.03 0.52 0.03 0.52 0.38 0.08 0.20 -0.25 0.30 -0.57 0.22 -0.70z m153.90 -2.33 c0 -0.43 -0.77 -0.70 -1.35 -0.47 -0.47 0.17 -0.30 0.55 0.45 0.85 0.60 0.22 0.90 0.10 0.90 -0.38z m19.10 -2.47 c-0.08 -0.20 -0.30 -0.43 -0.50 -0.50 -0.28 -0.10 -0.35 0.13 -0.35 0.95 0 0.57 0.08 1.15 0.17 1.25 0.28 0.25 0.85 -1.25 0.68 -1.70z m-167.95 0.75 c0.05 -0.15 -0.10 -0.68 -0.35 -1.17 -0.38 -0.75 -0.55 -0.88 -0.90 -0.68 -0.32 0.17 -0.38 0.43 -0.25 1.15 0.10 0.50 0.20 1 0.25 1.10 0.15 0.22 1.13 -0.08 1.25 -0.40z m154.55 -0.88 c0.20 -0.10 0.30 -0.50 0.25 -0.88 l-0.08 -0.65 -0.85 0.43 c-1 0.52 -1.25 0.98 -0.60 1.15 0.73 0.17 0.93 0.17 1.27 -0.05z m-9.85 -0.55 c1.08 -0.85 0.77 -1.73 -0.60 -1.73 -0.47 0 -0.77 0.40 -1.25 1.60 -0.22 0.60 -0.17 0.65 0.47 0.65 0.40 0 1 -0.22 1.38 -0.52z m15.77 -1 c0.43 -0.80 0.47 -1.48 0.13 -1.48 -0.47 0 -1.50 1.10 -1.50 1.63 0 1.10 0.80 1 1.38 -0.15z m16.95 -0.08 c0.93 -0.47 1.38 -0.80 1.23 -0.95 -0.35 -0.35 -1.05 -0.05 -2.17 0.95 -1.13 1 -1.10 1 0.95 0z m-28.58 -1.02 c-0.55 -0.90 -1.13 -1.23 -0.80 -0.43 0.47 1.08 1.17 2.03 1.25 1.67 0.05 -0.20 -0.15 -0.77 -0.45 -1.25z m-143.90 0.40 c0.08 -0.13 -0.08 -0.50 -0.35 -0.85 -0.60 -0.75 -0.63 -1.55 -0.15 -2.47 0.43 -0.77 0.17 -0.93 -0.40 -0.25 -0.90 1.02 -0.98 1.45 -0.38 2.65 0.52 1.10 0.98 1.42 1.27 0.93z m134.15 -0.95 c0 -0.60 -0.17 -0.63 -3.75 -0.95 -1.92 -0.17 -1.70 0.13 0.70 0.88 0.88 0.28 1.83 0.65 2.13 0.88 0.60 0.43 0.93 0.15 0.93 -0.80z m42.50 0.52 c0.68 -0.22 1.38 -0.55 1.52 -0.75 0.20 -0.25 -0.08 -0.20 -0.80 0.15 -0.60 0.28 -1.35 0.50 -1.65 0.50 -0.30 0 -0.63 0.13 -0.70 0.25 -0.22 0.35 0.22 0.30 1.63 -0.15z m37.67 -1.10 c1.13 -0.65 1.35 -1.10 0.70 -1.35 -0.22 -0.08 -0.63 -0.57 -0.95 -1.08 l-0.55 -0.95 -0.15 1.25 c-0.08 0.70 -0.25 1.63 -0.35 2.10 -0.20 0.93 -0.20 0.93 1.30 0.03z m-52.53 0.20 c0.10 0.10 0.10 0.03 0 -0.13 -0.20 -0.38 -1.30 -0.43 -1.50 -0.10 -0.22 0.35 0.13 0.50 0.73 0.28 0.32 -0.13 0.65 -0.15 0.77 -0.05z m19.38 -2.25 c0.80 -0.82 1.48 -1.63 1.48 -1.77 0 -0.17 -0.47 0.20 -1.05 0.82 -0.57 0.63 -1.52 1.55 -2.08 2.08 -0.65 0.63 -0.80 0.88 -0.43 0.68 0.32 -0.15 1.25 -0.98 2.08 -1.80z m-55.03 0.88 c-1.55 -0.73 -5.10 -1.08 -8.50 -0.82 -2.72 0.17 -1.17 0.55 2.10 0.47 2.40 -0.03 4.88 0.25 6.53 0.75 1.33 0.40 1.27 0.25 -0.13 -0.40z m22.25 0.30 c0.77 -0.05 0.88 -0.15 0.95 -0.77 l0.08 -0.73 -1.50 0.08 c-1.38 0.08 -1.48 0.15 -1.60 0.75 -0.17 0.88 0 1.10 0.65 0.90 0.30 -0.10 0.95 -0.20 1.42 -0.22z m-141.50 -1.17 c0.55 -0.20 0.57 -0.28 0.25 -0.52 -0.22 -0.17 -0.65 -0.68 -0.98 -1.10 -0.30 -0.45 -0.68 -0.82 -0.80 -0.82 -0.28 0 -0.82 1.25 -1.15 2.65 l-0.25 1.05 1.15 -0.50 c0.63 -0.28 1.42 -0.60 1.77 -0.75z m146.73 -0.08 c0.57 -0.82 0.57 -1.63 0.03 -1.63 -0.28 0 -1.23 1.88 -1.25 2.42 0 0.50 0.60 0.13 1.23 -0.80z m16.52 0.75 c0.45 -0.52 0.13 -1.17 -0.55 -1.08 -0.77 0.10 -1 1.45 -0.25 1.45 0.28 0 0.63 -0.17 0.80 -0.38z m-86.10 -0.20 c0.08 -0.20 0 -0.68 -0.15 -1.08 l-0.30 -0.73 -0.35 0.85 c-0.20 0.45 -0.28 0.93 -0.20 1.05 0.20 0.35 0.85 0.28 1 -0.10z m5.53 0.17 c0.38 -0.10 0.75 -0.65 1.23 -1.75 0.38 -0.88 0.60 -1.67 0.52 -1.75 -0.30 -0.30 -1.17 0.20 -1.17 0.68 0 0.63 -0.57 1.77 -1.10 2.20 -0.75 0.63 -0.50 0.90 0.52 0.63z m8.73 -0.05 c0.38 -0.22 -0.57 -2.80 -1.05 -2.80 -0.28 0 -1.60 2.15 -1.60 2.60 0 0.08 0.47 0.17 1.08 0.22 0.57 0.05 1.10 0.10 1.17 0.13 0.08 0.03 0.25 -0.05 0.40 -0.15z m108.93 -2.17 c0.10 -1.23 0.13 -2.40 0.05 -2.58 -0.22 -0.57 -0.57 -0.08 -0.75 1.02 -0.08 0.57 -0.32 1.58 -0.52 2.22 -0.43 1.33 -0.30 1.77 0.47 1.65 0.50 -0.08 0.57 -0.28 0.75 -2.33z m-103.25 0.82 c-0.22 -1.80 -0.77 -1.90 -1.45 -0.28 -0.52 1.25 -0.50 1.33 0.60 1.33 l0.98 0 -0.13 -1.05z m-26.38 -1.45 c0.63 -1.27 0.40 -1.52 -0.68 -0.77 -0.77 0.57 -1.17 1.35 -0.90 1.77 0.32 0.55 1 0.10 1.58 -1z m65.75 0.85 c0.77 -0.22 0.68 -0.52 -0.22 -0.73 -0.88 -0.20 -1.10 -0.08 -0.90 0.50 0.17 0.43 0.30 0.45 1.13 0.22z m-130.75 -0.43 c0.15 -0.17 0.28 -0.82 0.25 -1.45 0 -0.60 0.17 -1.52 0.40 -2.08 0.35 -0.85 0.35 -0.93 0 -0.80 -0.22 0.08 -0.55 0.15 -0.73 0.15 -0.50 0 -0.65 0.75 -0.38 1.73 0.20 0.70 0.15 1 -0.25 1.65 -0.28 0.45 -0.50 0.88 -0.50 0.98 0 0.28 0.93 0.15 1.20 -0.17z m71.55 -1.35 c0 -0.17 -0.13 -0.32 -0.25 -0.32 -0.38 0 -0.70 1 -0.55 1.63 0.13 0.45 0.17 0.43 0.45 -0.25 0.17 -0.43 0.32 -0.90 0.35 -1.05z m128.90 0.03 c-0.13 -0.65 -0.25 -0.85 -0.45 -0.65 -0.20 0.20 -0.17 0.50 0.05 1.05 0.40 0.98 0.60 0.77 0.40 -0.40z m-35.17 0.68 c0.25 -0.17 0.28 -0.32 0.05 -0.75 -0.40 -0.70 -1.02 -0.68 -1.02 0.05 0 0.88 0.32 1.10 0.98 0.70z m-64.78 -0.32 c-0.17 -0.50 -1.20 -0.57 -1.20 -0.10 0 0.28 0.22 0.40 0.65 0.40 0.40 0 0.60 -0.13 0.55 -0.30z m-41.20 -0.47 c0 -0.15 0.50 -0.77 1.13 -1.45 1.15 -1.23 1.20 -1.52 0.22 -1.52 -0.45 0 -0.70 0.25 -1.05 1.10 -0.28 0.60 -0.63 1.17 -0.77 1.25 -0.43 0.28 -0.35 1.15 0.10 1 0.20 -0.10 0.38 -0.25 0.38 -0.38z m128.75 -0.45 c0 -1.05 0.50 -2.30 1.17 -2.88 0.63 -0.55 0.60 -1.25 -0.08 -1.50 -0.25 -0.10 -0.57 0.35 -1.10 1.52 -0.43 0.93 -0.95 1.90 -1.20 2.15 -0.40 0.45 -0.40 0.50 0.17 0.95 0.80 0.65 1.02 0.60 1.02 -0.25z m-181.48 0.22 c0.15 0 0.17 -0.38 0.08 -0.88 -0.13 -0.65 -0.03 -1.10 0.38 -1.75 0.68 -1.15 0.68 -1.48 0.05 -1.13 -0.50 0.25 -1.52 2.63 -1.52 3.53 0 0.38 0.13 0.47 0.40 0.38 0.22 -0.08 0.50 -0.15 0.63 -0.15z m130.07 -1.13 c1.20 -1.10 1.20 -1.67 0 -1.58 -0.82 0.08 -0.95 0.17 -1.38 1.33 -0.25 0.70 -0.47 1.27 -0.47 1.30 0 0.25 1.15 -0.40 1.85 -1.05z m-148.90 0.47 c0.45 -0.30 0.55 -0.63 0.55 -1.65 0 -0.70 -0.08 -1.20 -0.15 -1.13 -0.15 0.15 -1.35 2.92 -1.35 3.13 0 0.17 0.45 0 0.95 -0.35z m129.43 -1.23 c0 -0.68 -0.10 -0.75 -0.80 -0.82 -0.75 -0.08 -0.82 -0.03 -0.82 0.65 0 0.90 0.20 1.10 1 1 0.50 -0.05 0.63 -0.20 0.63 -0.82z m-29.63 0.28 c-0.88 -0.32 -0.88 -0.32 -1 -2.05 -0.10 -1.38 -0.20 -1.73 -0.55 -1.80 -0.38 -0.08 -0.45 0.10 -0.45 0.95 0 0.55 -0.17 1.40 -0.35 1.88 -0.38 0.88 -0.38 0.88 0.30 0.90 0.38 0 0.90 0.10 1.17 0.22 0.28 0.13 0.77 0.22 1.13 0.22 0.52 -0.03 0.50 -0.05 -0.25 -0.32z m-34.90 -0.75 c0.20 -0.47 0.65 -1.13 1 -1.42 0.85 -0.73 0.50 -0.98 -1.38 -0.98 -1.50 0 -1.73 0.17 -1.73 1.38 0 0.35 -0.22 0.73 -0.50 0.88 -0.82 0.43 -0.57 0.73 0.70 0.82 0.65 0.05 1.25 0.10 1.35 0.13 0.10 0.03 0.35 -0.32 0.55 -0.80z m4.15 0.10 c0 -0.28 -0.17 -0.50 -0.38 -0.50 -0.20 0 -0.38 0.22 -0.38 0.50 0 0.28 0.17 0.50 0.38 0.50 0.20 0 0.38 -0.22 0.38 -0.50z m34.35 0.25 c0.65 -0.22 0.80 -0.77 0.50 -1.60 -0.30 -0.80 -0.85 -0.28 -1.20 1.17 -0.17 0.75 -0.17 0.77 0.70 0.43z m16.40 -0.13 c0.88 0.17 0.88 0.17 0.40 -0.35 -0.28 -0.30 -0.55 -0.95 -0.63 -1.48 -0.13 -0.77 -0.28 -0.95 -0.82 -1 -0.63 -0.08 -0.70 0.03 -0.98 1.08 -0.17 0.65 -0.45 1.23 -0.63 1.30 -0.20 0.08 -0.35 0.28 -0.35 0.45 0 0.25 0.25 0.28 1.08 0.08 0.57 -0.13 1.45 -0.15 1.92 -0.08z m64.10 0.17 c0.08 -0.13 -0.38 -0.65 -1 -1.15 l-1.15 -0.95 0.05 -2.92 c0.05 -3.92 -0.20 -6.78 -0.63 -6.78 -0.43 0 -1.38 1.17 -1.38 1.70 0 0.20 0.17 0.50 0.40 0.68 0.57 0.40 0.77 3.50 0.35 5 -0.32 1.13 -0.30 1.17 0.45 1.95 0.43 0.45 0.85 1.15 0.95 1.55 0.10 0.43 0.22 0.82 0.28 0.95 0.15 0.25 1.52 0.22 1.67 -0.03z m-156.98 -2.15 c0 -1.42 -0.03 -1.60 -0.30 -1.23 -0.40 0.50 -0.82 1.98 -0.82 2.75 0 0.47 0.08 0.52 0.55 0.35 0.50 -0.17 0.55 -0.38 0.57 -1.88z m64.30 0.80 c-0.03 -0.45 0.05 -1.20 0.17 -1.65 l0.20 -0.85 -1.23 0.20 c-1.85 0.28 -2.28 0.50 -2.70 1.50 -0.20 0.50 -0.38 1 -0.38 1.13 0 0.10 0.82 0.25 1.83 0.30 0.98 0.03 1.88 0.10 1.98 0.13 0.10 0.03 0.15 -0.32 0.13 -0.75z m-32.67 -0.08 c0 -0.70 -0.20 -0.75 -1.13 -0.32 -0.98 0.45 -0.77 0.95 0.43 0.95 0.57 0 0.70 -0.10 0.70 -0.63z m23.20 0.08 c0.08 -0.28 0.45 -1.13 0.85 -1.88 0.80 -1.48 0.65 -1.60 -1 -0.80 -1.08 0.52 -1.40 1 -1.90 2.67 -0.17 0.50 -0.10 0.55 0.85 0.55 0.85 0 1.08 -0.10 1.20 -0.55z m129.05 0.03 c0.17 -0.28 0.22 -0.60 0.13 -0.68 -0.22 -0.22 -1 0.32 -1.08 0.80 -0.13 0.57 0.63 0.50 0.95 -0.13z m-204.40 -0.75 c0.35 -0.28 0.77 -0.75 0.93 -1.05 0.22 -0.40 0.08 -0.35 -0.73 0.30 -0.57 0.45 -1.10 0.93 -1.17 1.05 -0.28 0.40 0.30 0.25 0.98 -0.30z m169.38 0.25 c0.43 -0.15 0.77 -0.32 0.77 -0.40 0 -0.08 -0.35 -0.55 -0.75 -1.10 -0.47 -0.57 -0.88 -1.50 -1.08 -2.35 -0.30 -1.50 -0.68 -1.65 -1.02 -0.43 -0.17 0.60 -0.10 0.95 0.30 1.60 0.28 0.45 0.57 1.30 0.68 1.90 0.10 0.57 0.20 1.05 0.22 1.05 0.05 0 0.43 -0.13 0.88 -0.28z m-121.13 -0.77 c0.30 -0.82 -0.05 -2.05 -0.60 -2.13 -0.22 -0.05 -0.60 0.43 -0.98 1.25 -0.35 0.70 -0.68 1.40 -0.73 1.50 -0.05 0.13 0.38 0.17 0.98 0.13 0.93 -0.08 1.13 -0.17 1.33 -0.75z m87.32 0.25 c0.28 -0.32 0.65 -0.82 0.80 -1.13 0.25 -0.47 0.22 -0.57 -0.08 -0.57 -0.20 0 -0.65 0.50 -0.98 1.13 -0.70 1.23 -0.57 1.48 0.25 0.57z m22.20 -0.25 c1.23 -0.88 1.33 -1.08 0.73 -1.30 -0.82 -0.32 -1.33 -0.13 -1.83 0.70 -1 1.60 -0.60 1.80 1.10 0.60z m33.47 0.22 c0.30 -0.47 0.08 -0.80 -0.47 -0.60 -0.43 0.17 -0.52 1.27 -0.08 1.13 0.15 -0.05 0.40 -0.30 0.55 -0.52z m-150.70 -0.55 c0.03 -0.43 0.28 -1.15 0.57 -1.63 0.68 -1.10 0.65 -1.30 -0.03 -1.20 -0.40 0.05 -0.65 0.35 -0.82 0.95 -0.15 0.47 -0.40 1.13 -0.57 1.42 -0.47 0.85 -0.38 1.38 0.25 1.27 0.43 -0.05 0.57 -0.25 0.60 -0.82z m158.55 0.70 c-0.20 -0.45 -0.73 -1.63 -0.95 -2.20 -0.13 -0.35 -0.43 -0.63 -0.63 -0.63 -0.63 0 -0.40 1.75 0.25 2.10 0.28 0.15 0.60 0.43 0.70 0.60 0.20 0.32 0.77 0.43 0.63 0.13z m-11.70 -1.25 c0 -0.32 0.13 -0.85 0.30 -1.15 0.15 -0.30 0.28 -1.33 0.25 -2.28 -0.03 -0.98 0.08 -2.13 0.22 -2.58 0.15 -0.47 0.20 -1.15 0.10 -1.52 -0.15 -0.65 -0.17 -0.65 -0.50 -0.20 -0.28 0.35 -0.35 1.20 -0.30 3.13 0.05 2.38 0 2.75 -0.50 3.55 -0.57 0.90 -0.73 1.73 -0.40 2.05 0.28 0.30 0.82 -0.38 0.82 -1z m-153.35 0 c0.08 -0.40 0.25 -1.02 0.38 -1.42 0.28 -0.93 0.30 -0.90 -0.13 -0.90 -0.38 0 -1.95 2.63 -1.70 2.88 0.08 0.08 0.40 0.13 0.70 0.13 0.45 0 0.63 -0.17 0.75 -0.68z m35.47 -0.22 c0.65 -0.85 0.70 -1.42 0.08 -0.90 -0.50 0.40 -1.25 1.80 -1 1.80 0.13 0 0.55 -0.40 0.93 -0.90z m82.88 0.52 c0.43 -0.50 0.10 -0.88 -0.75 -0.88 -0.65 0 -1.25 0.55 -1.25 1.10 0 0.32 1.70 0.13 2 -0.22z m-146.38 -0.70 c0.52 -0.75 0.47 -0.93 -0.22 -0.93 -0.45 0 -0.68 0.20 -0.88 0.77 -0.15 0.45 -0.28 0.82 -0.28 0.88 0 0.25 1.10 -0.32 1.38 -0.73z m116.13 -0.55 c0 -0.65 -0.73 -1.88 -1.13 -1.88 -0.20 0 -0.47 0.22 -0.63 0.47 -0.20 0.40 -0.10 0.60 0.57 1.13 0.93 0.75 1.17 0.80 1.17 0.28z m-110.18 -0.38 c0.98 -0.43 1.15 -0.63 1.30 -1.42 0.08 -0.52 0.32 -1.20 0.52 -1.50 l0.35 -0.55 -1.05 0.55 c-1.63 0.88 -2.45 1.75 -2.45 2.65 0 0.43 0.05 0.77 0.10 0.77 0.05 0 0.60 -0.22 1.23 -0.50z m40.25 0.10 c0.08 -0.10 -0.03 -0.57 -0.22 -1.10 -0.35 -0.88 -0.35 -0.98 0.15 -1.80 0.47 -0.80 0.47 -0.90 0.10 -1.05 -0.55 -0.20 -2.22 0.25 -2.60 0.73 -0.17 0.22 -0.28 0.43 -0.22 0.45 0.05 0.05 0.45 0.32 0.90 0.63 0.43 0.32 0.93 0.95 1.08 1.42 0.28 0.85 0.50 1.05 0.82 0.73z m12.15 -0.45 c0.22 -0.28 0.20 -0.38 -0.13 -0.50 -0.95 -0.38 -1.85 0 -1.48 0.60 0.22 0.38 1.27 0.30 1.60 -0.10z m36.17 -0.13 c0.43 -0.28 0.85 -0.75 0.90 -1.08 0.08 -0.30 0.22 -0.80 0.32 -1.08 0.13 -0.28 -0.28 0.03 -0.85 0.68 -0.65 0.73 -1.33 1.23 -1.85 1.35 -0.70 0.15 -0.75 0.20 -0.30 0.38 0.75 0.30 0.93 0.28 1.77 -0.25z m-105.75 -0.35 l0.68 -0.57 -0.85 -0.55 -0.85 -0.52 -0.17 0.80 c-0.35 1.50 0.10 1.80 1.20 0.85z m61.85 0.20 c0.17 -0.22 0.25 -0.45 0.17 -0.52 -0.22 -0.22 -1.20 0.40 -1.05 0.68 0.22 0.32 0.52 0.28 0.88 -0.15z m60.70 -0.95 c0.08 -0.52 -0.03 -0.68 -0.38 -0.68 -0.95 0 -1.48 1.10 -0.63 1.33 0.70 0.17 0.93 0.05 1 -0.65z m-99.97 -0.10 c0.30 -0.35 0.47 -0.70 0.40 -0.77 -0.25 -0.28 -1.38 0.55 -1.38 1 0 0.65 0.38 0.55 0.98 -0.22z m63.75 0.20 c0.30 -0.52 0.13 -0.77 -0.52 -0.77 -0.32 0 -0.45 0.17 -0.45 0.63 0 0.75 0.63 0.85 0.98 0.15z m31.83 0 c0.28 -0.25 -0.08 -1.52 -0.43 -1.52 -0.15 0 -0.50 0.22 -0.73 0.47 -1.02 1.15 -2.75 0.85 -4.07 -0.68 l-0.82 -0.93 -0.75 0.82 c-0.40 0.45 -0.75 1.05 -0.75 1.33 0 0.47 0.10 0.50 1.33 0.35 0.88 -0.10 1.58 -0.05 2.13 0.17 0.80 0.35 3.72 0.32 4.10 -0.03z m35.78 -1.17 l0.70 -0.82 -0.98 -0.98 c-0.60 -0.60 -1.08 -1.38 -1.23 -1.95 l-0.22 -0.98 -0.43 0.80 c-0.25 0.45 -0.80 1.10 -1.27 1.48 l-0.85 0.68 0.77 0.40 c0.47 0.25 1.10 0.93 1.55 1.73 0.65 1.15 0.77 1.27 1 0.90 0.13 -0.22 0.57 -0.80 0.95 -1.25z m32.40 1.42 c0.38 -0.22 0.22 -1.02 -0.20 -1.02 -0.13 0 -0.43 0.17 -0.63 0.40 -0.65 0.65 0 1.15 0.82 0.63z m-91.20 -0.55 c0.63 -0.32 1.60 -0.28 2.58 0.13 l0.82 0.35 -0.05 -1.80 -0.08 -1.77 -0.85 -0.08 c-0.75 -0.08 -0.85 0 -0.90 0.57 -0.10 1.38 -0.70 2.08 -2.05 2.35 -0.70 0.15 -1.70 0.28 -2.20 0.28 -0.70 0 -0.85 0.08 -0.55 0.28 0.43 0.28 2.58 0.08 3.28 -0.30z m103.38 -1.38 c0.17 -0.63 -0.25 -1.35 -0.77 -1.35 -0.20 0 -0.30 0.52 -0.32 1.58 l-0.05 1.55 0.50 -0.60 c0.28 -0.32 0.57 -0.85 0.65 -1.17z m-29.42 0.55 l0.82 -0.85 -0.65 -0.43 c-0.35 -0.25 -0.73 -0.70 -0.80 -1.02 -0.08 -0.32 -0.30 -0.60 -0.45 -0.60 -0.32 0 -0.90 1.02 -0.90 1.60 0 0.50 0.73 2.15 0.95 2.15 0.13 0 0.57 -0.38 1.02 -0.85z m-78.53 0.17 c-0.03 -0.25 0.05 -0.95 0.15 -1.58 0.15 -0.85 0.13 -1.05 -0.10 -0.85 -0.35 0.35 -0.82 2.30 -0.63 2.63 0.25 0.38 0.60 0.25 0.57 -0.20z m118.53 -0.55 c1.60 -0.15 2.28 -0.60 1.35 -0.93 -0.25 -0.10 -0.70 -0.40 -0.98 -0.65 -0.50 -0.45 -0.57 -0.45 -1.42 -0.05 -0.57 0.28 -1 0.70 -1.17 1.17 -0.32 0.98 -0.32 1 0.20 0.77 0.22 -0.10 1.15 -0.25 2.03 -0.32z m-69.53 -1.40 c-0.03 -1.27 0.30 -1.75 2 -2.92 0.57 -0.40 1.05 -0.90 1.05 -1.10 0 -0.25 -0.55 0.05 -1.60 0.90 -0.90 0.70 -2.13 1.45 -2.75 1.65 -1.40 0.47 -1.63 0.77 -0.82 1.08 0.35 0.13 0.88 0.57 1.17 1 0.70 1 0.95 0.82 0.95 -0.60z m-143.20 0.93 c0 -0.28 -1.23 -1.55 -1.50 -1.55 -0.43 0 -0.28 0.75 0.20 0.93 0.22 0.10 0.52 0.30 0.63 0.50 0.22 0.35 0.68 0.45 0.68 0.13z m13.93 -0.17 c0.08 -0.22 0.08 -0.45 0 -0.55 -0.28 -0.25 -1.42 0.17 -1.42 0.55 0 0.50 1.23 0.50 1.42 0z m-5.90 -0.32 c0.65 -0.55 0.50 -1.30 -0.25 -1.30 -0.52 0 -1.02 0.68 -1.02 1.35 0 0.52 0.57 0.50 1.27 -0.05z m24.98 -0.30 c0.88 -0.80 0.88 -1.15 0.03 -0.88 -0.55 0.17 -1.48 1.63 -1.05 1.63 0.13 0 0.57 -0.35 1.02 -0.75z m5.43 -0.90 c0.47 -0.85 0.50 -1 0.17 -1.17 -0.63 -0.35 -1.05 0 -1.35 1.08 -0.15 0.57 -0.35 1.23 -0.45 1.45 -0.30 0.82 1.02 -0.30 1.63 -1.35z m-19.45 -0.08 c0.28 -0.50 0.13 -0.77 -0.38 -0.77 -0.25 0 -1.35 1.52 -1.35 1.90 0 0.28 1.50 -0.70 1.73 -1.13z m25.65 0.45 c1 -0.88 1.10 -1.23 0.38 -1.23 -0.57 0 -1.75 1.13 -1.75 1.65 0 0.55 0.40 0.43 1.38 -0.43z m9.13 0.05 l1 -0.73 -0.88 -0.10 c-0.47 -0.05 -0.88 -0.03 -0.88 0.08 0 0.10 -0.45 0.25 -1 0.35 -1.45 0.25 -1.33 1.05 0.20 1.10 0.30 0.03 1 -0.30 1.55 -0.70z m71.22 -0.90 c0.30 -0.30 0.25 -0.35 -0.38 -0.28 -0.40 0.05 -0.88 0.10 -1.02 0.13 -0.17 0 -0.32 0.20 -0.32 0.43 0 0.32 0.15 0.38 0.70 0.22 0.38 -0.08 0.82 -0.32 1.02 -0.50z m-172.90 -0.63 c-0.40 -1 -0.82 -1.13 -0.82 -0.25 0 0.77 0.28 1.25 0.75 1.25 0.43 0 0.43 -0.05 0.08 -1z m239.68 -0.22 c0.40 -1.70 0.17 -2.28 -0.88 -2.28 -0.47 0 -0.93 0.13 -1.02 0.28 -0.08 0.15 -0.03 0.93 0.15 1.75 0.28 1.27 0.40 1.48 0.88 1.48 0.47 0 0.63 -0.20 0.88 -1.23z m-122.03 -0.65 c0.65 -0.32 0.77 -0.47 0.50 -0.65 -0.20 -0.13 -0.55 -0.22 -0.80 -0.22 -0.25 0 -0.77 -0.38 -1.20 -0.80 l-0.73 -0.80 0 0.65 c0 0.38 0.13 0.75 0.25 0.82 0.15 0.08 0.25 0.68 0.25 1.33 0 1.15 0.03 1.17 0.45 0.65 0.22 -0.30 0.80 -0.75 1.27 -0.98z m-102.60 0.35 c0.43 -0.30 0.52 -0.45 0.25 -0.35 -0.28 0.10 -0.70 0.25 -0.93 0.30 -0.25 0.08 -0.45 0.22 -0.45 0.35 0 0.35 0.32 0.28 1.13 -0.30z m14.13 0.28 c0.25 -0.17 -0.15 -0.25 -1.38 -0.22 -1.20 0 -1.60 0.08 -1.25 0.22 0.68 0.30 2.17 0.30 2.63 0z m9.20 -0.50 c-0.47 -0.65 -0.70 -0.75 -1.67 -0.73 l-1.15 0 1.25 0.38 c0.70 0.22 1.42 0.55 1.63 0.75 0.57 0.55 0.55 0.40 -0.05 -0.40z m99.25 0.45 c-0.08 -0.17 -0.38 -0.32 -0.70 -0.32 -0.32 0 -0.63 0.15 -0.68 0.32 -0.08 0.20 0.15 0.30 0.68 0.30 0.52 0 0.75 -0.10 0.70 -0.30z m6.55 -0.20 c0 -0.13 -0.22 -0.25 -0.47 -0.25 -0.28 0 -0.57 0.13 -0.65 0.25 -0.10 0.15 0.13 0.25 0.47 0.25 0.35 0 0.65 -0.10 0.65 -0.25z m13 -0.45 c0 -0.13 -0.22 -0.43 -0.50 -0.68 -0.50 -0.45 -0.63 -0.28 -0.35 0.47 0.15 0.43 0.85 0.57 0.85 0.20z m69.20 -0.77 c0.13 -1.23 -0.08 -1.60 -0.70 -1.27 -0.35 0.17 -0.50 0.52 -0.50 1.10 0 0.93 0.17 1.20 0.75 1.10 0.22 -0.05 0.40 -0.40 0.45 -0.93z m-191.95 0.30 c0.30 -0.10 0.25 -0.17 -0.17 -0.32 -0.68 -0.28 -1.58 -0.05 -1.58 0.40 0 0.35 0.63 0.32 1.75 -0.08z m10.43 -0.25 c0.10 -0.28 0 -0.52 -0.30 -0.68 -0.25 -0.15 -0.75 -0.52 -1.15 -0.85 l-0.70 -0.57 -0.75 0.82 -0.75 0.82 1.17 0.43 c1.52 0.55 2.28 0.55 2.47 0.03z m7.95 -0.17 c0.40 -0.30 0.43 -0.40 0.15 -0.75 -0.65 -0.77 -1.55 -0.22 -1.17 0.73 0.17 0.47 0.43 0.47 1.02 0.03z m198.13 0.10 c0 -0.35 -1.20 -1.08 -1.50 -0.88 -0.40 0.25 -0.30 0.52 0.32 0.82 0.70 0.35 1.17 0.38 1.17 0.05z m-243 -0.13 c0 -0.10 -0.17 -0.50 -0.40 -0.93 -0.22 -0.43 -0.35 -1.15 -0.30 -1.60 0.05 -0.50 0 -0.85 -0.17 -0.85 -0.13 0 -0.52 -0.08 -0.88 -0.17 -0.52 -0.13 -0.57 -0.10 -0.32 0.20 0.17 0.20 0.43 0.93 0.57 1.60 0.38 1.77 0.43 1.88 1 1.88 0.28 0 0.50 -0.05 0.50 -0.13z m120.25 -0.35 c0 -0.57 -0.40 -0.93 -1.33 -1.15 -0.73 -0.20 -0.80 -0.03 -0.52 1.08 0.20 0.75 1.85 0.82 1.85 0.08z m5.03 -0.13 c0.50 -0.35 1.27 -0.73 1.73 -0.82 l0.85 -0.22 -1.38 -0.32 c-2 -0.47 -2.33 -0.35 -2.42 0.93 -0.05 0.57 0.03 1.05 0.13 1.05 0.13 0 0.60 -0.28 1.10 -0.60z m17.98 0.30 c0 -0.52 -1.33 -1.70 -1.90 -1.70 -1.27 0 -1.48 1.52 -0.22 1.77 1.25 0.28 2.13 0.25 2.13 -0.08z m-28.58 -0.85 l0.60 -0.80 -0.63 -0.10 c-0.82 -0.17 -1.05 0.03 -1.27 1 -0.15 0.73 -0.10 0.82 0.25 0.75 0.25 -0.03 0.70 -0.43 1.05 -0.85z m-19.63 0.10 c0.50 -0.40 0.75 -1.23 0.47 -1.65 -0.13 -0.20 -0.57 -0.30 -1.17 -0.25 -0.93 0.08 -0.98 0.13 -1.05 1 -0.05 0.70 0.03 0.93 0.38 1.02 0.77 0.20 0.98 0.17 1.38 -0.13z m-90.05 -0.03 c0 -0.03 -0.22 -0.50 -0.50 -1.05 -0.28 -0.55 -0.50 -1.13 -0.50 -1.30 0 -0.17 -0.13 -0.32 -0.25 -0.32 -0.30 0 -0.10 1.58 0.30 2.33 0.17 0.35 0.95 0.63 0.95 0.35z m70.63 -0.22 c0.80 -0.38 0.90 -1.58 0.10 -1.83 -0.28 -0.10 -0.52 -0.13 -0.55 -0.08 -0.03 0.03 -0.28 0.43 -0.57 0.82 -0.93 1.35 -0.93 1.38 -0.25 1.38 0.35 0 0.93 -0.13 1.27 -0.30z m78.50 -0.75 c-0.25 -1.45 -0.45 -1.73 -0.65 -0.82 -0.32 1.48 -0.25 1.88 0.30 1.88 0.47 0 0.50 -0.10 0.35 -1.05z m9.70 0.88 c0.08 -0.13 0.20 -0.85 0.30 -1.63 0.15 -1.25 0.13 -1.45 -0.22 -1.45 -0.30 0 -0.40 0.22 -0.40 0.85 0 0.45 -0.08 1.20 -0.15 1.63 -0.15 0.70 0.17 1.10 0.47 0.60z m-141.57 -1 c0 -1.67 -0.30 -2.83 -0.68 -2.83 -0.28 0 -0.35 0.17 -0.22 0.70 0.08 0.38 0.22 1.20 0.30 1.88 0.20 1.40 0.60 1.58 0.60 0.25z m125.75 0.05 c0 -0.47 -0.10 -0.88 -0.25 -0.88 -0.13 0 -0.25 0.40 -0.25 0.88 0 0.47 0.13 0.88 0.25 0.88 0.15 0 0.25 -0.40 0.25 -0.88z m-130.88 -0.05 c0.08 -0.40 0.22 -1.13 0.35 -1.63 0.22 -1.08 0.22 -1.10 -0.60 -0.55 -0.77 0.50 -1.30 1.98 -0.88 2.47 0.47 0.57 0.98 0.45 1.13 -0.30z m33.38 0.30 c0.77 -0.40 1.50 -1.52 1.50 -2.30 0 -0.35 -0.08 -0.32 -0.32 0.15 -0.15 0.32 -0.70 0.75 -1.17 0.90 -0.68 0.22 -0.90 0.45 -0.95 0.95 -0.10 0.77 -0.03 0.80 0.95 0.30z m7.35 -0.40 c0.15 -0.13 0.15 -0.47 0 -0.90 -0.20 -0.57 -0.40 -0.73 -1.17 -0.77 -0.80 -0.08 -0.95 0 -1.17 0.57 -0.35 0.95 -0.32 1.13 0.32 1.38 0.60 0.25 1.65 0.10 2.03 -0.28z m-46.60 -0.95 c0 -1.15 -0.03 -1.20 -0.63 -1.08 -0.35 0.05 -0.98 -0.03 -1.38 -0.20 -0.43 -0.17 -0.80 -0.28 -0.85 -0.22 -0.22 0.22 0.32 2.30 0.63 2.50 0.20 0.13 0.77 0.22 1.30 0.22 l0.93 0 0 -1.23z m202.68 0.52 c-0.20 -0.25 -0.50 -0.88 -0.68 -1.42 -0.47 -1.55 -0.75 -1.63 -0.75 -0.20 0 1.10 0.10 1.38 0.65 1.80 0.75 0.60 1.33 0.45 0.77 -0.17z m23.30 0.47 c0.77 -0.47 -0.32 -1 -1.33 -0.63 -0.57 0.22 -0.50 0.55 0.17 0.68 0.30 0.05 0.60 0.13 0.68 0.13 0.08 0.03 0.28 -0.05 0.47 -0.17z m-77.68 -0.82 c0.22 -0.45 0.47 -1.08 0.57 -1.38 0.10 -0.32 0.43 -0.65 0.77 -0.73 0.45 -0.13 0.57 -0.28 0.45 -0.57 -0.10 -0.22 -0.22 -0.98 -0.28 -1.67 l-0.13 -1.30 -0.88 0.52 -0.88 0.50 0.17 1.95 c0.13 1.52 0.10 2.13 -0.20 2.70 -0.22 0.43 -0.30 0.77 -0.22 0.77 0.10 0 0.38 -0.38 0.60 -0.80z m16.35 -0.38 c0.25 -0.68 0.77 -1.70 1.20 -2.33 0.88 -1.33 3.58 -4 5.10 -5.05 1.13 -0.77 1.13 -1.05 0 -1.33 -0.57 -0.15 -0.68 -0.08 -0.82 0.60 -0.10 0.50 -0.98 1.60 -2.55 3.20 -2.30 2.35 -4.32 5.03 -4.32 5.75 0 0.17 0.22 0.32 0.47 0.32 0.35 0 0.60 -0.32 0.93 -1.17z m26.35 0.45 c0.35 -0.65 0.32 -1.70 -0.05 -1.92 -0.17 -0.10 -0.57 0.15 -1 0.68 l-0.70 0.85 0.55 0.43 c0.73 0.55 0.88 0.55 1.20 -0.03z m23 -0.95 c0 -0.80 0.15 -1.75 0.35 -2.13 l0.35 -0.68 -0.88 0.55 c-1.52 0.95 -1.67 1.38 -0.93 2.63 0.35 0.57 0.73 1.05 0.88 1.05 0.13 0 0.22 -0.65 0.22 -1.42z m-54.25 -1.80 c0 -0.75 -0.10 -1.27 -0.20 -1.13 -1.05 1.23 -1.55 2.17 -1.55 2.92 0 1.23 0.28 1.33 1.05 0.38 0.55 -0.68 0.70 -1.08 0.70 -2.17z m-142.65 2.33 c0.08 -0.22 0.15 -0.65 0.15 -0.95 0 -0.47 -0.10 -0.55 -0.68 -0.47 -0.40 0.08 -1.20 0 -1.80 -0.13 l-1.08 -0.25 0.70 0.77 c0.40 0.45 0.88 0.95 1.08 1.13 0.52 0.43 1.45 0.38 1.63 -0.10z m104.05 -0.98 c0.17 -0.70 0.15 -0.73 -0.25 -0.40 -0.60 0.50 -0.95 1.23 -0.75 1.55 0.22 0.40 0.77 -0.22 1 -1.15z m-93.07 0.10 c-0.30 -0.90 -0.30 -1.20 0.03 -2.25 0.17 -0.68 0.28 -1.23 0.17 -1.23 -0.52 0 -1.02 0.80 -1.38 2.13 -0.38 1.45 -0.35 1.52 0.15 1.95 0.28 0.22 0.70 0.43 0.95 0.43 0.40 0 0.43 -0.08 0.08 -1.02z m81.93 0.05 c0 -0.13 -0.13 -0.82 -0.30 -1.52 l-0.30 -1.30 -0.43 1.35 c-0.22 0.73 -0.38 1.40 -0.30 1.52 0.15 0.25 1.33 0.22 1.33 -0.05z m44.63 -0.05 c0.25 -0.35 0.03 -0.52 -0.47 -0.32 -0.22 0.08 -0.32 0.25 -0.25 0.38 0.17 0.30 0.52 0.28 0.73 -0.05z m65.80 -0.52 c0.45 -0.45 0.82 -0.90 0.82 -1 0 -0.10 -0.45 -0.20 -0.98 -0.20 -1.02 0 -1.27 0.28 -1.27 1.40 0 0.82 0.45 0.75 1.42 -0.20z m25.45 0.55 c0.25 -0.40 -0.30 -0.93 -1.15 -1.10 -1.05 -0.20 -2.38 -1.60 -2.72 -2.85 -0.28 -1.05 -0.28 -1.08 -1.20 -0.93 -0.50 0.10 -1.08 0.20 -1.25 0.28 -0.43 0.13 1.88 2.85 2.40 2.85 0.20 0 0.85 0.45 1.45 1 1.08 0.98 2.13 1.30 2.47 0.75z m-261.13 -0.17 c0 -0.25 -1.30 -1.58 -1.55 -1.58 -0.43 0 -0.17 0.63 0.50 1.17 0.70 0.57 1.05 0.70 1.05 0.40z m75.63 -0.68 c1.17 -0.40 1.52 -0.65 1.58 -1.10 0.10 -0.57 -0.17 -0.73 -0.60 -0.30 -0.13 0.13 -0.95 0.35 -1.83 0.45 -1.60 0.22 -2.28 0.68 -2.28 1.50 0 0.40 0.85 0.25 3.13 -0.55z m69.40 -0.25 c0.17 -0.35 0.20 -0.93 0.13 -1.30 -0.20 -0.77 -0.43 -0.63 -1.38 0.98 l-0.57 0.93 0.77 0 c0.60 0 0.85 -0.15 1.05 -0.60z m-94.43 0.20 c0.20 -0.08 0.45 -0.55 0.55 -1.05 0.10 -0.52 0.38 -1.35 0.63 -1.85 0.65 -1.30 0.60 -2.10 -0.15 -2.60 -0.35 -0.22 -0.68 -0.38 -0.73 -0.32 -0.03 0.05 -0.25 1 -0.50 2.10 -0.22 1.10 -0.50 2.42 -0.63 2.95 -0.22 0.95 -0.05 1.13 0.82 0.77z m41.83 -0.28 c0.10 -0.25 -0.05 -0.57 -0.43 -0.88 -0.57 -0.47 -0.63 -0.47 -0.93 -0.05 -0.17 0.25 -0.32 0.65 -0.32 0.90 0 0.60 1.45 0.63 1.67 0.03z m14.80 -0.50 c0.93 -3.67 1 -5.38 0.20 -5.53 -0.43 -0.08 -0.45 0.05 -0.30 1.65 0.15 1.45 0.10 1.90 -0.35 2.92 -0.63 1.40 -0.65 1.88 -0.15 1.88 0.20 0 0.45 -0.40 0.60 -0.93z m116.22 0.50 c-0.10 -0.57 -1.20 -0.77 -1.20 -0.25 0 0.22 0.15 0.45 0.32 0.50 0.63 0.28 0.95 0.17 0.88 -0.25z m28.65 -1.88 l0.77 -0.68 -1.45 -0.03 c-1.35 0 -1.45 0.05 -1.70 0.68 -0.15 0.38 -0.17 1.10 -0.10 1.58 l0.17 0.88 0.75 -0.88 c0.43 -0.47 1.10 -1.17 1.55 -1.55z m-112.57 1.05 c0.22 0 0.82 -0.50 1.33 -1.10 l0.90 -1.13 -1.08 0.38 c-0.65 0.22 -1.58 0.85 -2.30 1.60 l-1.23 1.25 0.98 -0.50 c0.55 -0.28 1.17 -0.50 1.40 -0.50z m57.10 0.22 c1.38 -1.23 0.70 -1.52 -0.73 -0.32 -0.63 0.52 -1.15 1 -1.15 1.02 0 0.05 0.22 0.08 0.50 0.08 0.25 0 0.88 -0.35 1.38 -0.77z m-112.78 -0.03 c0.45 -0.65 0.52 -1.27 0.13 -1.15 -0.13 0.05 -0.47 0.45 -0.75 0.90 -0.45 0.68 -0.45 0.80 -0.15 0.80 0.22 0 0.57 -0.25 0.77 -0.55z m12.77 0.25 c0.77 -0.35 0.82 -1.15 0.08 -1.42 -0.77 -0.30 -0.95 -0.15 -0.95 0.88 0 0.95 0 0.95 0.88 0.55z m23.38 -0.25 c0.45 -0.32 1.10 -0.95 1.45 -1.40 l0.65 -0.82 -0.75 0.17 c-0.75 0.17 -2.88 1.77 -3.05 2.30 -0.15 0.50 0.82 0.35 1.70 -0.25z m32 -0.45 c0 -0.38 -0.17 -0.50 -0.63 -0.50 -0.50 0 -0.63 0.13 -0.63 0.57 0 0.32 0.08 0.68 0.15 0.75 0.30 0.28 1.10 -0.32 1.10 -0.82z m-149.80 -0.05 c-0.05 -0.32 -0.25 -0.57 -0.45 -0.57 -0.20 0 -0.40 0.25 -0.45 0.57 -0.08 0.43 0.05 0.55 0.45 0.55 0.40 0 0.52 -0.13 0.45 -0.55z m54.65 -1.25 c-0.25 -0.40 -0.60 0.32 -0.57 1.17 l0 0.75 0.35 -0.85 c0.20 -0.45 0.30 -0.95 0.22 -1.08z m-48.05 0.90 c0.73 -0.38 1.30 -1.23 1.08 -1.58 -0.08 -0.13 -0.47 -0.15 -0.95 -0.03 -0.43 0.10 -1.23 0.28 -1.73 0.38 -1.05 0.17 -1.27 0.77 -0.55 1.50 0.43 0.40 0.90 0.35 2.15 -0.28z m29.05 -0.50 c0.22 -0.20 0.40 -0.55 0.40 -0.73 0 -0.57 1 -1.10 1.85 -0.95 0.77 0.13 0.77 0.10 1.17 -1.48 0.22 -0.88 0.47 -1.77 0.57 -2 0.25 -0.57 -0.57 -0.60 -1.58 -0.08 -0.57 0.30 -0.75 0.57 -0.90 1.55 -0.17 1.20 -1.33 2.83 -2.03 2.83 -0.43 0 -0.93 0.68 -0.73 1 0.22 0.38 0.77 0.30 1.23 -0.15z m63.15 -0.70 c0 -0.63 -0.10 -1.17 -0.22 -1.25 -0.28 -0.17 -0.63 1.73 -0.40 2.10 0.35 0.57 0.63 0.20 0.63 -0.85z m12.32 -0.28 c1.52 -1.45 1.55 -1.60 0.05 -0.98 -0.52 0.20 -1.08 0.32 -1.27 0.25 -0.40 -0.15 -0.50 -0.03 -0.70 1.17 -0.25 1.30 0.17 1.20 1.92 -0.45z m131.43 0.85 c0 -0.40 -0.13 -0.50 -0.68 -0.43 -0.43 0.05 -0.73 0.25 -0.77 0.52 -0.08 0.32 0.08 0.43 0.68 0.43 0.63 0 0.77 -0.10 0.77 -0.52z m18.92 -1.15 c-0.05 -0.40 -0.10 -0.13 -0.10 0.55 0 0.70 0.05 1 0.10 0.70 0.05 -0.32 0.05 -0.88 0 -1.25z m-242.98 1 c0.13 -0.25 0.32 -1.10 0.40 -1.88 0.17 -1.35 0.15 -1.40 -0.35 -1.27 -0.77 0.20 -1 0.85 -0.82 2.30 0.15 1.33 0.40 1.58 0.77 0.85z m147.55 -0.35 c0.25 -0.60 0.43 -0.73 0.88 -0.63 0.50 0.13 0.57 0.03 0.73 -1.02 0.22 -1.75 0.17 -3.38 -0.10 -3.20 -0.13 0.08 -0.25 0.60 -0.25 1.15 0 0.80 -0.17 1.17 -0.98 2.05 -0.52 0.57 -1 1.23 -1.02 1.42 -0.17 1.20 0.30 1.35 0.75 0.22z m-152.77 -0.25 c0.40 -1.15 0.38 -1.20 -0.65 -1.05 -1.20 0.17 -1.42 0.40 -1.23 1.17 0.13 0.50 0.32 0.65 0.88 0.65 0.60 0 0.77 -0.15 1 -0.77z m70.78 -1.52 c0 -0.52 -0.80 -0.10 -1.38 0.73 -0.93 1.38 -0.77 1.58 0.38 0.45 0.55 -0.52 1 -1.08 1 -1.17z m-60.17 0.38 c0.08 -0.80 0.20 -1.73 0.30 -2.08 0.13 -0.47 0.03 -0.43 -0.35 0.25 -0.50 0.88 -0.73 3.25 -0.30 3.25 0.13 0 0.28 -0.65 0.35 -1.42z m36.38 0.43 l0.47 -1 -0.95 0 c-1.05 0 -1.17 0.22 -0.73 1.35 0.32 0.90 0.63 0.82 1.20 -0.35z m144 -0.47 c0.10 -0.68 -0.57 -0.70 -0.95 -0.05 -0.40 0.77 -0.30 1.02 0.32 0.80 0.30 -0.10 0.57 -0.45 0.63 -0.75z m-133.35 0.20 c0.45 -0.35 0.60 -0.63 0.45 -0.77 -0.38 -0.38 -1.20 0 -1.50 0.68 -0.38 0.80 0.10 0.85 1.05 0.10z m-38.03 -0.88 c0.05 -0.35 0.05 -0.95 -0.05 -1.33 l-0.17 -0.65 -0.28 0.77 c-0.28 0.80 -0.15 2.17 0.17 1.98 0.10 -0.08 0.25 -0.43 0.32 -0.77z m191 0.25 c0.45 -0.22 0.85 -0.45 0.90 -0.50 0.05 -0.05 -0.28 -0.50 -0.70 -1.02 -0.43 -0.52 -0.77 -1.10 -0.77 -1.30 0 -0.65 -0.35 -0.03 -0.68 1.17 -0.57 2.17 -0.35 2.45 1.25 1.65z m-46 -0.60 c0.08 -0.28 0.03 -0.57 -0.13 -0.65 -0.28 -0.17 -0.35 -0.13 -0.55 0.60 -0.13 0.40 -0.08 0.55 0.17 0.55 0.20 0 0.43 -0.22 0.50 -0.50z m-85.10 0 l1.40 0 -0.75 -0.47 c-0.40 -0.25 -0.98 -0.70 -1.23 -1 -0.65 -0.73 -0.82 -0.68 -1.25 0.32 -0.20 0.47 -0.55 0.98 -0.82 1.15 -0.38 0.22 -0.32 0.25 0.40 0.15 0.45 -0.08 1.48 -0.15 2.25 -0.15z m39.95 -0.13 c0.05 -0.15 -0.68 -0.25 -1.88 -0.25 -1.35 -0.03 -2.17 -0.15 -2.75 -0.45 -0.75 -0.40 -2.75 -0.77 -5.55 -1.05 l-1.13 -0.13 0.88 0.28 c0.47 0.15 1.48 0.47 2.20 0.75 0.75 0.25 1.70 0.47 2.13 0.50 0.45 0 1.25 0.17 1.80 0.35 1.13 0.38 4.18 0.38 4.30 0z m-57.85 -0.17 c0.15 -0.52 -0.10 -1.20 -0.47 -1.20 -0.22 0 -0.35 0.28 -0.35 0.75 0 0.75 0.60 1.08 0.82 0.45z m69.03 -1.02 c0.32 -0.93 -0.10 -2.40 -0.82 -2.90 -0.57 -0.38 -0.60 -0.38 -0.32 0.15 0.45 0.82 0.35 2.35 -0.20 3.25 l-0.50 0.82 0.82 -0.32 c0.47 -0.20 0.90 -0.60 1.02 -1z m-115.82 -0.47 c-0.77 -0.70 -1.52 -0.93 -1.52 -0.47 0 0.13 0.20 0.30 0.45 0.38 0.28 0.10 0.75 0.45 1.08 0.80 0.38 0.40 0.63 0.52 0.70 0.32 0.05 -0.17 -0.25 -0.63 -0.70 -1.02z m51.65 1.10 c0.15 -0.10 0.35 -0.60 0.45 -1.13 0.15 -0.73 0.10 -0.90 -0.15 -0.80 -0.45 0.17 -1.50 1.77 -1.30 1.98 0.20 0.20 0.63 0.17 1 -0.05z m150.43 0.05 c0.45 -0.17 0.52 -1.13 0.13 -1.52 -0.45 -0.45 -0.32 -2.70 0.20 -3.78 l0.47 -0.95 -1.17 0.22 -1.20 0.22 0.15 2.30 c0.08 1.25 0.30 2.58 0.50 2.97 0.38 0.75 0.38 0.75 0.93 0.52z m8.90 -0.32 c0 -0.60 -1.48 -1.90 -1.80 -1.58 -0.32 0.32 0.82 2.03 1.38 2.05 0.25 0 0.43 -0.17 0.43 -0.47z m-30.13 -1.35 c0.10 -0.57 0.30 -1.17 0.43 -1.35 0.15 -0.20 -0.08 -0.68 -0.75 -1.55 l-1 -1.25 -0.15 0.77 c-0.08 0.43 -0.15 1 -0.15 1.27 0 0.65 1.08 3.40 1.30 3.28 0.08 -0.05 0.22 -0.57 0.32 -1.17z m33.45 -0.63 c0.40 -0.73 0.65 -1.50 0.57 -1.70 -0.22 -0.60 -0.57 -0.20 -0.75 0.90 -0.13 0.85 -0.30 1.08 -0.90 1.30 -0.75 0.25 -0.90 0.47 -0.57 0.80 0.40 0.40 1 -0.05 1.65 -1.30z m-69.13 -0.28 c0.98 -1.50 2.40 -4.60 1.98 -4.35 -0.15 0.10 -0.98 0.63 -1.80 1.17 -0.82 0.52 -1.77 1.13 -2.10 1.35 l-0.60 0.38 0.65 0.35 c0.50 0.25 0.73 0.60 0.82 1.33 0.10 0.55 0.17 1 0.22 1 0.03 0 0.40 -0.55 0.82 -1.23z m29.13 0 c0.40 -0.38 0.90 -0.98 1.10 -1.40 0.30 -0.60 0.05 -0.43 -1.15 0.75 -2.10 2.05 -2.05 2.55 0.05 0.65z m12.88 0.73 l0.57 -0.47 -1.20 -1.55 c-1.35 -1.73 -1.73 -1.50 -0.85 0.52 0.30 0.68 0.52 1.40 0.52 1.60 0 0.52 0.25 0.50 0.95 -0.10z m39.65 -1.10 c0.08 -0.35 0.03 -0.93 -0.13 -1.33 l-0.30 -0.70 -0.22 0.85 c-0.25 0.93 -0.08 2.13 0.28 1.92 0.13 -0.08 0.30 -0.43 0.38 -0.75z m-196.10 0.20 c0 -0.08 -0.30 -0.65 -0.65 -1.25 -0.50 -0.85 -0.73 -1.05 -0.95 -0.85 -0.20 0.22 -0.13 0.40 0.30 0.68 0.30 0.22 0.55 0.57 0.55 0.82 0 0.22 0.08 0.50 0.17 0.57 0.20 0.20 0.57 0.22 0.57 0.03z m37.75 -0.47 c0.25 -0.30 0.25 -0.70 0.08 -1.70 -0.20 -1.05 -0.28 -1.20 -0.45 -0.80 -0.13 0.28 -0.40 0.77 -0.65 1.13 -0.25 0.35 -0.50 0.88 -0.60 1.20 -0.15 0.47 -0.08 0.55 0.57 0.55 0.40 0 0.88 -0.17 1.05 -0.38z m154.25 0 c0.17 -0.22 0.25 -0.45 0.17 -0.55 -0.20 -0.17 -0.93 0.38 -0.93 0.70 0 0.35 0.40 0.28 0.75 -0.15z m-173.50 -0.65 c0.22 -0.43 0.17 -0.77 -0.22 -1.70 -0.28 -0.68 -0.63 -1.75 -0.77 -2.42 -0.25 -1.10 -1.05 -2.35 -1.52 -2.35 -0.10 0 -0.05 0.38 0.08 0.85 0.40 1.25 0.08 2.10 -0.93 2.58 -0.47 0.22 -0.88 0.47 -0.88 0.55 0 0.08 0.65 0.52 1.40 1 0.77 0.47 1.58 1.13 1.77 1.45 0.47 0.70 0.73 0.73 1.08 0.05z m-40.88 -0.40 c-0.10 -0.25 -0.28 -1.35 -0.40 -2.45 -0.13 -1.08 -0.38 -2.08 -0.55 -2.17 -0.47 -0.32 -1.48 -0.13 -1.77 0.35 -0.20 0.35 -0.05 0.63 0.93 1.52 1.05 0.95 1.17 1.20 1.17 2.13 0 0.80 0.10 1.05 0.40 1.05 0.28 0 0.35 -0.13 0.22 -0.43z m105.32 0 c-0.08 -0.47 -1.20 -0.80 -1.20 -0.35 0 0.25 0.70 0.75 1.08 0.77 0.13 0 0.17 -0.20 0.13 -0.43z m-100.75 -1 c-0.10 -0.57 -1.20 -0.77 -1.20 -0.22 0 0.32 0.35 0.52 1.08 0.63 0.13 0 0.17 -0.17 0.13 -0.40z m140.95 -1.25 c-0.25 -0.65 -0.73 0.03 -0.52 0.70 0.17 0.50 0.20 0.52 0.43 0.13 0.13 -0.22 0.17 -0.60 0.10 -0.82z m41.33 -0.20 c-0.43 -0.17 -0.63 -0.13 -1 0.35 -0.73 0.90 -0.57 1.02 0.52 0.45 0.93 -0.52 0.95 -0.57 0.47 -0.80z m28.88 -0.35 c0.50 -0.43 0.30 -0.77 -0.50 -0.77 -0.65 0 -0.68 0.05 -0.43 1.27 0.13 0.68 0.17 0.75 0.32 0.32 0.10 -0.28 0.38 -0.65 0.60 -0.82z m-106.13 -1.73 c0.35 -0.50 0.85 -1.33 1.13 -1.80 l0.52 -0.88 -0.63 0.40 c-0.63 0.38 -2.25 2.58 -2.25 3 0 0.52 0.68 0.15 1.23 -0.73z m96.75 0.73 c0.30 -0.20 0.32 -0.38 0.08 -0.88 -0.30 -0.68 -0.63 -0.80 -2.70 -1 l-1.27 -0.13 1.08 1.13 c1.10 1.13 2 1.40 2.83 0.88z m6.90 -0.28 c-0.08 -0.13 -0.32 -0.25 -0.52 -0.25 -0.20 0 -0.30 0.13 -0.22 0.25 0.08 0.15 0.32 0.25 0.52 0.25 0.20 0 0.30 -0.10 0.22 -0.25z m4.47 -0.15 c0.10 -0.28 0.03 -0.35 -0.28 -0.30 -0.22 0.05 -0.45 0.22 -0.52 0.40 -0.15 0.45 0.63 0.38 0.80 -0.10z m-205.30 -2.15 c-0.08 -1.23 -0.25 -1.98 -0.50 -2.28 -0.47 -0.52 -1.30 -1.02 -1.45 -0.85 -0.05 0.05 0.13 0.75 0.40 1.55 0.28 0.80 0.50 1.80 0.50 2.25 0 0.90 0.15 1.13 0.73 1.13 0.35 0 0.40 -0.28 0.32 -1.80z m19.60 -0.55 c-0.22 -0.55 -0.75 -1.42 -1.15 -1.90 l-0.75 -0.88 0.38 1.13 c0.20 0.63 0.68 1.73 1.05 2.45 0.55 1.02 0.73 1.20 0.77 0.77 0.05 -0.30 -0.10 -1 -0.30 -1.58z m88.50 0.75 c1.42 -1.30 1.67 -1.85 0.65 -1.55 -0.73 0.25 -2.55 2.03 -2.55 2.47 0 0.68 0.32 0.50 1.90 -0.93z m22.83 0.80 c0.13 -0.32 0.50 -1.25 0.80 -2.08 0.32 -0.82 0.68 -1.60 0.77 -1.73 0.28 -0.32 0.25 -1.15 -0.03 -1.15 -0.32 0 -0.90 1 -1.25 2.25 -0.17 0.63 -0.47 1.35 -0.68 1.63 -0.40 0.57 -0.47 1.63 -0.10 1.63 0.15 0 0.35 -0.25 0.47 -0.55z m-97.97 0.08 c0 -0.15 -0.10 -0.30 -0.22 -0.38 -0.13 -0.08 -0.35 -0.70 -0.52 -1.40 -0.38 -1.60 -0.65 -1.75 -0.98 -0.57 -0.40 1.38 -0.35 1.83 0.20 1.83 0.25 0 0.60 0.17 0.77 0.38 0.35 0.43 0.75 0.50 0.75 0.15z m145.30 -0.50 c0.10 -0.08 0.08 -0.60 -0.05 -1.15 -0.13 -0.55 -0.25 -1.40 -0.25 -1.88 0 -0.47 -0.15 -1.17 -0.35 -1.55 -0.20 -0.35 -0.43 -1.23 -0.52 -1.92 -0.10 -0.70 -0.28 -1.27 -0.40 -1.27 -0.30 0 -0.28 1.23 0.08 2.72 0.32 1.50 0.03 2.92 -0.95 4.20 -0.32 0.43 -0.60 0.85 -0.60 0.93 0 0.38 2.63 0.32 3.05 -0.08z m-196.70 -0.32 c0.30 -1.13 0.17 -1.38 -0.85 -1.67 -0.82 -0.25 -1.13 -0.22 -1.77 0.13 -0.52 0.25 -1.08 0.35 -1.63 0.22 -0.47 -0.08 -0.85 -0.05 -0.85 0.08 0 0.28 0.60 0.55 1.20 0.55 0.22 0 1 0.28 1.67 0.60 1.58 0.77 2.03 0.80 2.22 0.10z m187.50 0.35 c0.05 -0.10 0 -0.65 -0.15 -1.20 -0.40 -1.42 -0.10 -2.20 1.38 -3.80 0.73 -0.75 1.10 -1.30 0.85 -1.23 -0.28 0.10 -0.77 0.25 -1.13 0.32 -1.02 0.25 -2.80 1.42 -2.80 1.85 0.03 0.20 0.17 0.65 0.38 1 0.20 0.35 0.35 1.15 0.38 1.77 0 0.63 0.08 1.23 0.17 1.30 0.22 0.22 0.77 0.22 0.93 -0.03z m29.98 -0.90 c0.60 -0.15 0.68 -0.28 0.68 -1.23 0 -0.65 0.25 -1.58 0.60 -2.25 l0.57 -1.17 -0.73 0 c-1.23 0 -2.72 -1.85 -3.08 -3.83 -0.10 -0.50 -0.28 -0.93 -0.38 -0.93 -0.28 0 -1 1.17 -1 1.65 0 0.73 1 1.85 1.65 1.85 0.82 0 1.60 1.30 1.60 2.65 0 0.82 -0.20 1.30 -0.95 2.25 -0.52 0.68 -1.05 1.42 -1.13 1.67 -0.17 0.45 -0.13 0.45 0.65 -0.03 0.43 -0.28 1.10 -0.55 1.50 -0.65z m-96.07 -0.52 c0 -1.05 -0.63 -0.60 -0.70 0.50 -0.08 0.85 -0.05 0.90 0.30 0.55 0.22 -0.22 0.40 -0.70 0.40 -1.05z m31.05 -0.47 c0.22 -0.32 -0.05 -0.90 -0.43 -0.90 -0.38 0 -0.63 0.55 -0.63 1.30 0 0.45 0.05 0.47 0.45 0.17 0.22 -0.20 0.50 -0.45 0.60 -0.57z m69.10 0.22 c0.10 -0.20 0.08 -0.57 -0.03 -0.80 -0.17 -0.43 -0.20 -0.40 -0.38 0.05 -0.13 0.28 -0.22 0.65 -0.22 0.82 -0.03 0.43 0.45 0.38 0.63 -0.08z m-59.20 -0.55 c-0.05 -0.25 -0.25 -0.45 -0.45 -0.45 -0.20 0 -0.40 0.20 -0.45 0.45 -0.05 0.30 0.08 0.43 0.45 0.43 0.38 0 0.50 -0.13 0.45 -0.43z m-89.47 -0.93 c-0.55 -0.95 -1.02 -1.08 -1.17 -0.32 -0.05 0.28 0.15 0.52 0.52 0.65 0.35 0.15 0.70 0.38 0.80 0.52 0.10 0.15 0.22 0.22 0.28 0.17 0.08 -0.05 -0.13 -0.52 -0.43 -1.02z m-80.32 0.05 c-0.08 -0.32 -0.15 -0.82 -0.15 -1.13 0 -0.88 -0.45 -0.68 -0.88 0.35 -0.43 0.98 -0.25 1.33 0.73 1.33 0.35 0 0.43 -0.13 0.30 -0.55z m11.10 -0.30 c0 -0.35 -0.13 -0.70 -0.25 -0.77 -0.32 -0.20 -0.60 0.50 -0.40 1 0.22 0.60 0.65 0.43 0.65 -0.22z m8.98 0.20 c0.05 -0.05 -0.08 -0.30 -0.30 -0.55 -0.25 -0.25 -0.43 -0.55 -0.43 -0.65 0 -0.28 -1.55 -2.15 -1.80 -2.15 -0.13 0 -0.10 0.22 0.08 0.52 0.15 0.28 0.22 1.13 0.17 1.85 l-0.08 1.35 1.13 -0.15 c0.63 -0.08 1.17 -0.17 1.23 -0.22z m-31.23 -1.10 c0 -1.15 -0.08 -1.27 -0.68 -1.52 -0.38 -0.13 -0.95 -0.22 -1.30 -0.17 -0.55 0.08 -0.68 0.22 -0.80 1.08 -0.08 0.55 -0.22 1.20 -0.35 1.45 -0.15 0.38 0 0.43 1.48 0.43 l1.65 0 0 -1.25z m6.13 -0.35 c-0.20 -1.20 -0.47 -1.38 -1.40 -0.90 -0.35 0.20 -0.47 0.52 -0.47 1.25 0 0.90 0.05 0.98 0.82 1.05 1.10 0.13 1.25 -0.08 1.05 -1.40z m-13.88 0.35 c0 -0.43 0.17 -1.17 0.38 -1.67 0.43 -1.02 0.38 -1.20 -0.35 -0.95 -0.30 0.08 -0.80 0.75 -1.23 1.63 l-0.70 1.48 0.63 0.10 c0.38 0.05 0.80 0.13 0.98 0.15 0.17 0 0.30 -0.28 0.30 -0.73z m229.68 -0.17 c-0.38 -0.38 -0.43 -0.38 -0.57 0.03 -0.20 0.52 0.40 1 0.75 0.65 0.17 -0.17 0.10 -0.40 -0.17 -0.68z m-157.30 -1.60 l-0.65 -1 -0.63 0.90 c-0.70 1.05 -0.73 1.13 -0.25 1.13 0.20 0 0.70 0.28 1.08 0.60 l0.70 0.63 0.20 -0.63 c0.17 -0.50 0.08 -0.85 -0.45 -1.63z m21.58 0.35 c-0.30 -1.45 -0.70 -1.55 -0.70 -0.15 0 0.57 0.15 1.02 0.43 1.23 0.25 0.17 0.47 0.30 0.50 0.28 0 -0.03 -0.08 -0.65 -0.22 -1.35z m-61.10 0.52 c0.20 -0.50 -0.03 -0.85 -0.52 -0.85 -0.25 0 -0.32 0.15 -0.22 0.40 0.08 0.22 0.15 0.50 0.15 0.63 0 0.38 0.43 0.25 0.60 -0.17z m72.10 0.22 c-0.05 -0.13 -0.38 -0.75 -0.70 -1.45 -0.32 -0.68 -0.63 -1.10 -0.70 -0.93 -0.15 0.47 0.77 2.55 1.15 2.55 0.20 0 0.30 -0.08 0.25 -0.17z m-43.70 -0.75 c-0.13 -0.25 -0.35 -0.75 -0.50 -1.13 -0.17 -0.50 -0.40 -0.70 -0.85 -0.70 -0.32 0 -0.82 -0.08 -1.08 -0.15 -0.25 -0.08 -0.10 0.08 0.30 0.35 0.43 0.28 1.08 0.85 1.48 1.27 0.85 0.88 1.02 0.98 0.65 0.35z m-66 -1.08 c-0.32 -1.02 -1 -1.38 -1 -0.52 0 0.50 0.98 1.88 1.20 1.67 0.08 -0.08 -0.03 -0.60 -0.20 -1.15z m71.40 -0.32 c-0.03 -1.02 0.10 -1.75 0.32 -2 0.30 -0.38 0.28 -0.43 -0.30 -0.43 -0.57 0 -1.55 0.95 -2.25 2.17 -0.25 0.40 1.08 1.83 1.70 1.83 0.50 0 0.52 -0.13 0.52 -1.58z m79.78 0.68 c0.35 -0.35 0.55 -0.70 0.47 -0.77 -0.20 -0.20 -1.45 0.70 -1.60 1.13 -0.17 0.52 0.45 0.32 1.13 -0.35z m101.22 0.45 c0.20 -0.10 0.22 -0.52 0.13 -1.17 -0.17 -1.10 -0.38 -0.98 -0.63 0.45 -0.17 0.93 -0.05 1.10 0.50 0.73z m-170.40 -0.57 c0 -0.35 -2 -2.30 -2.17 -2.13 -0.25 0.25 0.47 1.65 1.13 2.15 0.60 0.47 1.05 0.47 1.05 -0.03z m80.03 -0.28 c0 -0.17 0.15 -1.83 0.30 -3.65 0.17 -1.85 0.25 -3.38 0.17 -3.42 -0.08 -0.03 -0.65 0.40 -1.30 0.98 l-1.17 1.02 0.47 1.38 c0.28 0.75 0.47 1.90 0.50 2.53 0 0.63 0.08 1.23 0.17 1.30 0.28 0.30 0.82 0.20 0.85 -0.13z m26.08 -0.85 c0.73 -1.17 1.20 -3.35 0.70 -3.35 -0.15 0 -0.80 0.45 -1.42 1 -0.63 0.55 -1.38 1.13 -1.65 1.25 -0.57 0.32 -0.40 0.75 0.30 0.75 0.35 0 0.63 0.25 0.80 0.75 0.15 0.43 0.35 0.75 0.43 0.75 0.08 -0.03 0.45 -0.52 0.85 -1.15z m12.52 -1.30 c0.32 -0.57 0.45 -0.98 0.30 -0.88 -0.17 0.10 -0.63 0.17 -1.05 0.20 -0.82 0 -1.08 0.50 -1.10 2.25 l0 1 0.63 -0.75 c0.32 -0.40 0.88 -1.23 1.23 -1.83z m37.80 0.65 l1.15 -1.08 -0.85 -0.25 c-0.47 -0.15 -1.08 -0.38 -1.35 -0.55 -0.47 -0.25 -0.50 -0.20 -0.55 1.33 -0.05 0.95 0.03 1.60 0.17 1.60 0.15 0 0.77 -0.47 1.42 -1.05z m-176.77 -0.75 c-0.70 -0.73 -1.48 -1.70 -1.70 -2.13 -0.45 -0.85 -0.95 -1.10 -0.95 -0.45 0 0.38 3.35 3.88 3.72 3.88 0.10 0 -0.38 -0.60 -1.08 -1.30z m-40.75 -1.40 c0 -0.80 0.05 -1.60 0.13 -1.80 0.08 -0.28 -0.13 -0.40 -0.65 -0.45 -0.40 -0.05 -1.23 -0.25 -1.83 -0.45 -0.57 -0.20 -1.77 -0.35 -2.63 -0.35 l-1.58 0 -0.03 1.75 c-0.03 0.95 0.08 1.83 0.20 1.90 0.40 0.22 0.90 -0.35 1.08 -1.25 0.20 -1.02 1 -1.90 1.73 -1.90 1.58 0.03 1.95 0.50 2.33 2.92 0.10 0.68 0.30 1.08 0.57 1.15 0.60 0.13 0.65 0 0.68 -1.52z m79.03 -1.17 c0.05 -3.30 -0.20 -4.40 -1.25 -5.53 -0.73 -0.80 -0.88 -0.85 -1.50 -0.63 -1.75 0.68 -3.08 -0.08 -2.78 -1.60 0.10 -0.57 0.05 -0.88 -0.13 -0.88 -0.15 0 -0.22 0.45 -0.17 1.20 0.05 0.65 -0.05 1.55 -0.25 2.03 -0.47 1.13 -0.45 1.15 0.30 0.55 0.90 -0.73 2.65 -0.73 3.33 0 1.27 1.38 0.77 3.58 -1.08 4.45 -0.63 0.32 -1.15 0.60 -1.15 0.65 0 0.05 0.45 0.03 1.02 -0.05 0.85 -0.13 1.10 -0.05 1.73 0.55 0.40 0.38 0.80 1.02 0.88 1.42 0.13 0.50 0.30 0.70 0.57 0.65 0.38 -0.08 0.43 -0.50 0.47 -2.83z m3.70 2.40 c-0.20 -0.32 -0.88 -0.38 -0.88 -0.05 0 0.13 0.20 0.28 0.45 0.32 0.52 0.13 0.65 0.05 0.43 -0.28z m-76.03 -0.17 c0.43 -1.13 0.22 -1.35 -1.35 -1.35 -1.30 0 -1.50 0.05 -1.30 0.40 0.28 0.47 1.55 1.30 2.08 1.33 0.22 0.03 0.50 -0.15 0.57 -0.38z m11.65 -0.60 c-0.75 -0.57 -1.50 -0.65 -1.50 -0.15 0 0.25 0.32 0.40 0.95 0.47 0.50 0.05 0.98 0.10 1.05 0.13 0.08 0.03 -0.15 -0.17 -0.50 -0.45z m201.85 0.10 c0.40 -0.15 0.57 -1.10 0.20 -1.10 -0.30 0 -0.80 0.57 -0.80 0.93 0 0.38 0.05 0.38 0.60 0.17z m-208.23 -1.67 c-0.85 -0.30 -1.20 0.05 -0.98 0.93 l0.17 0.68 0.73 -0.70 0.73 -0.70 -0.65 -0.20z m43.38 0.15 c-0.85 -0.77 -1.65 -1.70 -1.77 -2.03 -0.13 -0.32 -0.32 -0.52 -0.47 -0.43 -0.57 0.38 0.73 2.03 2.50 3.15 0.63 0.40 1.15 0.73 1.20 0.73 0.05 0 -0.63 -0.65 -1.45 -1.42z m-75.68 0.17 c-0.15 -0.60 -0.65 -0.52 -0.77 0.08 -0.05 0.28 0.08 0.43 0.40 0.43 0.38 0 0.47 -0.13 0.38 -0.50z m67.45 -0.20 c1.25 -0.80 2.72 -2.38 2.72 -2.92 0 -0.20 -0.43 -0.47 -1 -0.63 -1.38 -0.38 -1.58 -0.88 -1.38 -3.53 0.13 -1.58 0.10 -2.22 -0.10 -2.22 -0.17 0 -0.28 0.63 -0.28 1.75 0 0.95 -0.17 2.25 -0.38 2.88 -0.30 0.82 -0.35 1.55 -0.22 2.65 0.15 1.35 0.10 1.55 -0.40 2.10 -0.77 0.82 -0.35 0.80 1.02 -0.08z m-63.67 -1.13 c-0.08 -0.22 -0.25 -0.43 -0.35 -0.43 -0.25 0 -0.52 1.02 -0.32 1.33 0.22 0.38 0.85 -0.45 0.68 -0.90z m5.88 0.22 c0.13 -0.15 0.30 -0.55 0.40 -0.90 l0.15 -0.63 -1.98 0 -1.98 0 0.63 0.85 c0.93 1.20 2.10 1.50 2.78 0.68z m193.30 -2.40 c0.75 -1.08 1.30 -1.58 3.92 -3.42 0.60 -0.43 2.08 -1.10 3.28 -1.48 2.03 -0.68 2.10 -0.73 1.20 -0.80 -0.63 -0.05 -1.13 0.05 -1.40 0.30 -0.25 0.22 -1.13 0.47 -1.98 0.55 -1.38 0.15 -1.55 0.22 -1.83 0.90 -0.47 1.15 -1.23 1.95 -1.83 1.95 -0.30 0 -0.80 0.17 -1.10 0.40 -0.73 0.50 -1.80 2.90 -1.77 3.95 l0 0.77 0.38 -1 c0.20 -0.55 0.70 -1.50 1.13 -2.13z m26.23 2.63 c0.20 -0.22 0.20 -0.38 0.05 -0.38 -0.45 0 -1.05 0.30 -1.05 0.52 0 0.35 0.65 0.25 1 -0.15z m-32.97 -0.52 c0.32 -0.35 0.95 -0.85 1.38 -1.13 0.45 -0.28 0.88 -0.68 0.95 -0.88 0.13 -0.35 0.05 -0.35 -0.52 0.05 -0.40 0.25 -1.10 0.65 -1.60 0.90 -0.82 0.40 -1.23 0.88 -1.23 1.48 0 0.40 0.40 0.25 1.02 -0.43z m-41.15 -0.22 c0.43 -0.17 1.25 -0.85 1.88 -1.50 1.02 -1.05 1.10 -1.17 0.70 -1.48 -0.57 -0.43 -0.60 -2.35 -0.08 -3.05 0.20 -0.25 0.38 -0.55 0.38 -0.65 0 -0.30 -1.95 -0.22 -2.13 0.05 -0.10 0.15 0.03 0.77 0.28 1.38 0.45 1.23 0.38 3.38 -0.17 4.03 -0.20 0.22 -0.82 0.35 -1.88 0.35 -1.42 0 -1.60 0.05 -1.60 0.50 0 0.98 0.88 1.10 2.63 0.38z m76.03 -0.40 c0.47 -0.52 0.47 -0.52 -0.15 -0.45 -0.35 0.05 -0.65 0.30 -0.70 0.55 -0.13 0.57 0.28 0.55 0.85 -0.10z m8.98 -0.73 c0 -0.32 -0.13 -0.63 -0.28 -0.68 -0.32 -0.10 -0.65 0.88 -0.45 1.23 0.25 0.40 0.73 0.05 0.73 -0.55z m-48.22 0.05 c0.38 -0.25 1.15 -1.80 0.90 -1.80 -0.30 0 -1.55 1.35 -1.55 1.70 0 0.35 0.25 0.38 0.65 0.10z m57.60 -0.73 c0 -0.20 -1.98 -2.08 -2.17 -2.08 -0.05 0 0.32 0.50 0.85 1.13 0.88 1.05 1.33 1.38 1.33 0.95z m-187.50 -0.57 c0.57 -0.57 0.68 -1.50 0.15 -1.50 -0.50 0 -1.90 1.23 -1.90 1.65 0 0.52 1.17 0.43 1.75 -0.15z m174.90 -0.77 c0.08 -0.15 0.03 -0.40 -0.10 -0.52 -0.32 -0.32 -1.13 0.20 -0.90 0.57 0.17 0.30 0.77 0.28 1 -0.05z m-39.33 -2.85 c0.40 -0.63 0.93 -1.70 1.17 -2.42 0.52 -1.50 1.25 -2.20 2.25 -2.20 0.88 0 1.88 -0.80 2.22 -1.77 l0.25 -0.75 -0.73 0.57 c-0.40 0.32 -1.50 1.08 -2.42 1.67 -0.93 0.63 -2.47 1.95 -3.42 2.95 l-1.75 1.83 0.60 0.63 c0.32 0.35 0.70 0.63 0.85 0.63 0.15 -0.03 0.60 -0.52 0.98 -1.13z m-109.50 -1.55 c0.10 -0.52 0.22 -1.25 0.32 -1.60 0.10 -0.47 0.03 -0.70 -0.30 -0.82 -0.22 -0.08 -0.45 -0.13 -0.50 -0.10 -0.13 0.13 -0.17 1.27 -0.15 2.53 0.05 1.38 0.40 1.38 0.63 0z m-16.27 -0.63 c-0.73 -1.27 -0.98 -1.25 -0.57 0.05 0.30 0.95 0.45 1.17 0.70 0.95 0.25 -0.20 0.22 -0.40 -0.13 -1z m28.70 0.90 c0 -0.08 -1.58 -1.73 -3.50 -3.67 -3.08 -3.10 -3.50 -3.45 -3.50 -2.88 0 0.47 0.30 0.90 1.02 1.50 0.55 0.45 1.38 1.40 1.85 2.10 0.63 0.98 1.17 1.45 2.22 1.98 0.77 0.38 1.40 0.77 1.40 0.90 0 0.13 0.13 0.22 0.25 0.22 0.15 0 0.25 -0.08 0.25 -0.15z m-42.40 -0.32 c0.22 -0.32 -0.15 -3.53 -0.38 -3.38 -0.13 0.08 -0.22 0.40 -0.22 0.73 0 0.32 -0.20 0.93 -0.43 1.33 -0.35 0.63 -0.38 0.80 -0.10 1.15 0.38 0.43 0.93 0.52 1.13 0.17z m160.77 -5.90 c0.98 -0.77 2.35 -1.75 3.05 -2.17 1.65 -0.93 1.83 -1.20 0.68 -0.95 -1.10 0.25 -2.63 1.25 -3.95 2.60 -0.57 0.57 -1.67 1.52 -2.45 2.10 -0.90 0.65 -1.65 1.48 -1.98 2.13 l-0.55 1.05 1.73 -1.67 c0.95 -0.93 2.53 -2.30 3.47 -3.08z m-7.85 2.10 c0.28 -0.28 0.47 -0.57 0.40 -0.63 -0.17 -0.17 -1.30 0.32 -1.65 0.75 -0.30 0.35 -0.28 0.40 0.20 0.40 0.28 0 0.75 -0.22 1.05 -0.52z m-158.57 -0.65 c-0.40 -0.82 -0.45 -1.25 -0.32 -3 0.17 -2.05 0 -3.58 -0.35 -3.58 -0.10 0 -0.32 0.60 -0.50 1.33 -0.25 1.10 -0.22 1.50 0.10 2.40 0.20 0.60 0.38 1.40 0.38 1.80 0 0.98 0.43 1.98 0.85 1.98 0.28 0 0.25 -0.20 -0.15 -0.93z m13.75 0.45 c-0.52 -0.25 -1.17 -0.65 -1.45 -0.90 -0.68 -0.60 -0.65 -0.25 0.08 0.63 0.43 0.55 0.75 0.73 1.42 0.73 l0.88 -0.03 -0.93 -0.43z m-19.35 -1.42 c0.50 -0.20 0.52 -1.10 0.03 -1.75 -0.30 -0.40 -0.35 -0.40 -0.38 -0.08 0 0.22 -0.08 0.77 -0.15 1.20 -0.17 0.82 -0.13 0.88 0.50 0.63z m161.05 -1.63 c0.45 -0.90 0.30 -1.23 -0.32 -0.70 -0.25 0.22 -0.77 0.52 -1.17 0.68 -0.68 0.30 -0.70 0.32 -0.28 0.80 0.55 0.60 1.20 0.32 1.77 -0.77z m-119.95 0.20 c0.05 -0.47 -0.03 -0.68 -0.30 -0.68 -0.43 0 -0.77 0.85 -0.52 1.25 0.28 0.45 0.75 0.13 0.82 -0.57z m72.68 -0.63 l0.75 -0.90 -1.05 0.73 c-0.60 0.38 -1.08 0.85 -1.08 1.02 0 0.50 0.52 0.17 1.38 -0.85z m-98.93 0.38 c-0.38 -0.30 -1.20 -1.65 -1.85 -2.97 -0.63 -1.35 -1.25 -2.45 -1.40 -2.45 -0.15 0 -0.20 0.15 -0.13 0.32 0.08 0.15 0.38 0.93 0.70 1.67 0.30 0.75 0.82 1.98 1.17 2.70 0.55 1.15 0.70 1.30 1.40 1.30 l0.77 0 -0.68 -0.57z m-19.75 -1.33 c0.10 -1.17 -0.35 -0.90 -0.60 0.38 -0.15 0.65 -0.10 0.82 0.17 0.73 0.20 -0.08 0.38 -0.52 0.43 -1.10z m172.50 -1.85 c0.60 -0.73 1.02 -1.35 0.98 -1.42 -0.08 -0.05 -1.05 0.40 -2.15 1 l-2.03 1.10 0.52 0.68 c0.47 0.63 0.57 0.65 1.08 0.32 0.28 -0.20 1 -0.95 1.60 -1.67z m-125.25 0.85 c0.68 -0.45 0.50 -0.85 -0.35 -0.85 -0.47 0 -0.60 0.13 -0.60 0.63 0 0.73 0.17 0.77 0.95 0.22z m82.97 -5.20 c-0.05 -0.13 -0.28 0.32 -0.52 1 -0.25 0.68 -0.63 1.40 -0.80 1.60 -0.32 0.38 -0.47 1.23 -0.38 2.13 0.03 0.28 0.45 -0.63 0.93 -2 0.47 -1.38 0.82 -2.60 0.77 -2.72z m-129.20 3.40 c-0.50 -0.20 -0.98 0.20 -0.98 0.82 l0 0.65 0.60 -0.70 c0.35 -0.38 0.50 -0.75 0.38 -0.77z m4.28 -0.25 c0 -0.65 -0.63 -0.13 -0.70 0.60 -0.05 0.70 -0.05 0.70 0.32 0.25 0.20 -0.28 0.38 -0.65 0.38 -0.85z m182 0.47 c1.70 -0.73 3.85 -2.03 3.35 -2.03 -1 0 -3.38 0.90 -4.40 1.67 -0.65 0.52 -1.20 0.95 -1.20 1 0 0.20 0.70 0 2.25 -0.65z m-144.75 0.22 c0 -0.13 -0.15 -0.25 -0.35 -0.25 -0.20 0 -0.45 0.13 -0.52 0.25 -0.08 0.15 0.08 0.25 0.35 0.25 0.30 0 0.52 -0.10 0.52 -0.25z m2.65 -2.13 c0.10 -1.70 -0.10 -3.38 -0.40 -3.38 -0.10 0 -0.25 0.88 -0.32 1.95 -0.05 1.05 -0.20 2.20 -0.30 2.50 -0.17 0.52 -0.13 0.57 0.38 0.50 0.50 -0.08 0.57 -0.22 0.65 -1.58z m133.32 -1.58 c0.25 -0.50 0.55 -1.30 0.65 -1.73 0.20 -0.95 0.95 -1.58 1.88 -1.58 0.40 0 0.95 -0.35 1.55 -0.98 0.50 -0.52 1.33 -1.10 1.85 -1.27 0.90 -0.30 0.98 -0.28 1.52 0.35 0.32 0.38 0.57 0.95 0.57 1.30 0 0.32 0.13 0.60 0.25 0.60 0.15 0 0.25 -0.38 0.25 -0.80 0 -1.08 0.47 -1.98 1.25 -2.40 0.57 -0.30 0.50 -0.32 -0.73 -0.17 -1.77 0.20 -5.10 1.50 -6.10 2.38 -0.45 0.38 -1.02 0.75 -1.33 0.85 -0.28 0.08 -0.90 0.65 -1.35 1.27 -0.47 0.63 -0.93 1.13 -1.05 1.13 -0.43 0 -0.70 0.98 -0.45 1.63 0.30 0.80 0.60 0.65 1.23 -0.57z m-164.73 -0.35 c0.03 -0.43 -3.25 -0.30 -4.80 0.17 l-1.08 0.35 1.52 0 c1 0.03 1.65 0.15 1.83 0.38 0.28 0.32 0.47 0.28 1.40 -0.17 0.60 -0.30 1.10 -0.63 1.13 -0.73z m26.40 -0.20 c0.52 -1.13 0.65 -2.05 0.30 -1.95 -0.38 0.13 -1.95 2.13 -1.95 2.47 0 0.55 1.38 0.10 1.65 -0.52z m152.75 -0.38 c0.45 -1.08 0.45 -1.27 0 -0.90 -0.30 0.25 -0.70 1.77 -0.47 1.77 0.05 0 0.28 -0.40 0.47 -0.88z m0.47 -3.50 c-0.70 -1.17 -1.80 -2.13 -2.47 -2.13 -0.60 0 0.55 1.65 1.42 2.03 0.85 0.35 1.20 0.95 1 1.75 l-0.13 0.60 0.40 -0.55 c0.40 -0.55 0.40 -0.63 -0.22 -1.70z m-65 -0.68 c0.35 -0.70 0.57 -1.33 0.52 -1.38 -0.13 -0.13 -1.90 2.10 -1.90 2.40 0 0.75 0.82 0.13 1.38 -1.02z"/>
  <path d="M116.60 358.65 c-1.38 -0.17 -2.63 -0.40 -2.78 -0.47 -0.17 -0.10 -0.95 -0.30 -1.75 -0.45 -1.55 -0.28 -5.82 -1.67 -7.70 -2.50 -0.90 -0.40 -1.13 -0.63 -1.13 -1.10 0 -0.73 0.17 -0.75 0.85 -0.25 0.28 0.20 0.73 0.38 1.02 0.38 0.30 0 0.63 0.10 0.77 0.25 0.60 0.60 6.65 2.40 9.60 2.88 2.80 0.43 4.53 0.90 4.57 1.25 0.08 0.35 -0.63 0.38 -3.47 0.03z"/>
  <path d="M115.50 351.10 c-4.03 -0.63 -7.40 -1.33 -9.38 -1.98 -2.25 -0.77 -5.72 -2.20 -6.80 -2.80 -2.03 -1.17 -1.40 -2.05 0.77 -1.08 3.78 1.65 6.15 2.60 7.28 2.90 5.57 1.50 7.70 1.90 10.98 2.10 3.45 0.20 11.13 -0.10 12.57 -0.47 0.52 -0.13 2.13 -0.38 3.58 -0.52 1.42 -0.15 2.70 -0.35 2.83 -0.43 0.13 -0.08 0.98 -0.32 1.90 -0.57 2.05 -0.55 3.70 -1.15 4.57 -1.63 0.35 -0.20 0.82 -0.38 1.05 -0.38 0.20 0 0.90 -0.25 1.52 -0.55 1.15 -0.55 1.55 -0.50 1.30 0.15 -0.15 0.40 -1.98 1.38 -3.80 2.05 -2.13 0.80 -5.47 1.85 -5.88 1.85 -0.20 0 -1.08 0.17 -1.88 0.40 -3.90 1.02 -16.27 1.60 -20.63 0.95z"/>
  <path d="M121.25 336.38 c0 -0.40 2.55 -2.75 3.58 -3.28 1.90 -1 -0.47 1.73 -2.67 3.08 -0.65 0.40 -0.90 0.45 -0.90 0.20z"/>
  <path d="M111.75 334.52 c0 -0.40 1.63 -1.08 2.88 -1.20 1.42 -0.15 1.98 0.25 0.70 0.50 -0.40 0.08 -1.35 0.30 -2.13 0.50 -0.80 0.20 -1.45 0.28 -1.45 0.20z"/>
  <path d="M111.63 329.35 c-1.08 -1.60 -2.40 -3.92 -2.28 -4.03 0.15 -0.15 1.48 1.70 2.45 3.38 0.90 1.58 0.77 2.03 -0.17 0.65z"/>
  <path d="M121.38 327.60 c0.30 -2.08 0.90 -4.57 1.15 -4.75 0.28 -0.17 0.10 1.27 -0.45 3.85 -0.47 2.10 -0.95 2.72 -0.70 0.90z"/>
  <path d="M145.25 327.75 c0 -0.43 1.77 -2.67 3.72 -4.75 3 -3.15 1.95 -1.27 -1.58 2.88 -1.52 1.83 -2.15 2.35 -2.15 1.88z"/>
  <path d="M91.47 324.25 c-1.27 -1.80 -2.33 -3.72 -2.13 -3.92 0.13 -0.13 1.63 1.48 2 2.15 0.10 0.22 0.47 0.82 0.82 1.33 0.35 0.50 0.57 1.17 0.52 1.50 -0.08 0.50 -0.22 0.35 -1.23 -1.05z"/>
  <path d="M154.25 325.63 c0 -0.28 1.48 -2.15 2.95 -3.75 1.65 -1.83 1.98 -1.90 0.85 -0.20 -1.33 2 -3.80 4.57 -3.80 3.95z"/>
  <path d="M164.25 323.55 c0 -0.82 1.45 -4.35 1.92 -4.63 0.28 -0.17 -1.13 4.10 -1.63 4.95 -0.25 0.45 -0.28 0.43 -0.30 -0.32z"/>
  <path d="M130.25 323.50 c0 -0.50 1.25 -5.10 1.42 -5.25 0.25 -0.22 -0.15 2.33 -0.60 3.75 -0.43 1.42 -0.82 2.15 -0.82 1.50z"/>
  <path d="M79.68 320.08 c-0.22 -0.40 -0.45 -1.17 -0.55 -1.70 -0.10 -0.55 -0.32 -1.55 -0.52 -2.25 -0.17 -0.68 -0.45 -2.20 -0.60 -3.38 -0.13 -1.17 -0.30 -2.38 -0.40 -2.67 -0.13 -0.43 -0.05 -0.57 0.22 -0.57 0.52 0 0.82 0.60 1.05 2 0.08 0.63 0.32 1.63 0.50 2.25 0.32 1.05 0.95 6.78 0.75 6.95 -0.05 0.05 -0.25 -0.22 -0.45 -0.63z"/>
  <path d="M100.13 320.17 c-0.47 -0.73 -1.30 -3.10 -1.77 -5.10 -0.20 -0.85 -0.43 -1.75 -0.52 -2 -0.15 -0.38 -0.10 -0.40 0.22 -0.15 0.20 0.17 0.68 1.35 1.05 2.63 0.38 1.27 0.88 2.97 1.13 3.78 0.25 0.77 0.40 1.42 0.38 1.42 -0.05 0 -0.25 -0.25 -0.47 -0.57z"/>
  <path d="M143.60 315.60 c0.73 -1.33 1.60 -2.47 1.75 -2.33 0.15 0.15 -1.83 3.35 -2.15 3.45 -0.15 0.05 0.03 -0.45 0.40 -1.13z"/>
  <path d="M157.25 315.08 c0 -0.68 3.88 -5.03 4.18 -4.72 0.17 0.17 -1.17 2.08 -2.55 3.60 -1.08 1.20 -1.63 1.58 -1.63 1.13z"/>
  <path d="M173.25 311.55 c0 -0.17 0.43 -0.90 0.98 -1.63 1.35 -1.83 3.53 -4.13 3.53 -3.72 0 0.73 -4.47 6.05 -4.50 5.35z"/>
  <path d="M150.85 311.13 c0.08 -0.20 0.20 -1.13 0.30 -2 0.25 -2.53 0.80 -2.30 0.63 0.25 -0.05 0.98 -0.52 2.13 -0.82 2.13 -0.15 0 -0.20 -0.17 -0.10 -0.38z"/>
  <path d="M72.47 308.83 c-0.52 -0.65 -1.23 -2.25 -1.23 -2.83 0 -1.20 1.13 -0.05 1.65 1.65 0.38 1.27 0.17 1.88 -0.43 1.17z"/>
  <path d="M169.13 306.77 c-0.40 -0.68 2.50 -6.97 3 -6.47 0.08 0.05 -0.05 0.93 -0.28 1.90 -0.30 1.30 -0.55 1.88 -0.98 2.15 -0.32 0.20 -0.73 0.80 -0.88 1.33 -0.38 1.13 -0.63 1.48 -0.88 1.10z"/>
  <path d="M111.70 306.13 c-2.38 -0.40 -4.20 -1.15 -4.20 -1.75 0 -0.52 0.98 -0.47 2.35 0.10 2.17 0.95 6.97 0.90 12.60 -0.08 1.55 -0.28 2.45 -0.32 2.75 -0.17 0.85 0.47 -1.73 1.30 -5.30 1.67 -5.32 0.57 -5.93 0.60 -8.20 0.22z"/>
  <path d="M182 306.15 c0 -0.35 2.42 -2.65 2.83 -2.65 0.40 0 -0.57 1.42 -1.38 2.05 -1.27 0.95 -1.45 1.02 -1.45 0.60z"/>
  <path d="M162 300.50 c0 -0.60 2.95 -5.40 3.17 -5.15 0.13 0.13 -1.20 2.83 -2.15 4.32 -0.63 1.05 -1.02 1.35 -1.02 0.82z"/>
  <path d="M108.50 300.10 c-4.90 -0.38 -11.23 -1.88 -15.63 -3.72 -4.43 -1.88 -8.55 -5.80 -11.20 -10.63 -0.28 -0.47 -0.68 -1.15 -0.93 -1.50 -0.88 -1.25 -2.70 -5.18 -3.50 -7.50 -1 -3 -2.25 -8.93 -2.25 -10.82 0 -0.80 0.17 -1.77 0.35 -2.15 0.63 -1.15 5.20 -5.30 7.43 -6.72 1.15 -0.73 3.22 -2.05 4.60 -2.92 7.60 -4.88 9.20 -5.60 12.88 -5.80 2.08 -0.13 2.83 -0.03 5.88 0.68 4.07 0.95 6.35 1.02 9.75 0.38 1.30 -0.25 3.50 -0.45 5.25 -0.47 3.17 0 2.67 -0.10 14.63 2.75 8.38 2 17.08 4.93 19.65 6.63 1.40 0.90 1.55 1.10 1.70 2.05 0.45 3.03 -0.98 7.95 -3.55 12.30 -5.22 8.80 -11.85 16.02 -19.40 21.10 -5.55 3.75 -13.38 6.13 -21.02 6.35 -1.77 0.08 -3.88 0.08 -4.63 0.03z m8.57 -3.85 c9.68 -1.50 15.57 -4.68 23.58 -12.63 3.65 -3.65 6.03 -6.63 8.75 -10.95 2.20 -3.47 5.47 -9.90 3.97 -7.75 -1.45 2.08 -9.48 6.45 -17.75 9.70 -2.33 0.90 -4.50 1.75 -4.80 1.88 -5.45 2.25 -17.08 4.50 -23.17 4.50 -6.72 0 -15.27 -2.45 -21.48 -6.15 -1.95 -1.17 -4.70 -3.35 -6.22 -4.95 l-1.17 -1.23 0.47 2.20 c0.43 1.85 1.33 4.68 2.60 8 0.55 1.50 3.05 5.68 4.63 7.78 3.95 5.30 9.65 8.10 19.45 9.60 4 0.60 7.20 0.60 11.15 0z m-3.25 -19 c1.38 -0.32 1.33 -0.13 0.57 -2.88 -0.47 -1.73 -0.57 -8.35 -0.15 -9.15 0.32 -0.60 1.15 -0.63 1.45 -0.03 0.13 0.22 0.30 1.33 0.40 2.42 0.08 1.10 0.25 2.63 0.38 3.38 0.13 0.75 0.25 2.40 0.25 3.65 l0.03 2.28 0.95 -0.17 c0.50 -0.10 1.88 -0.38 3.05 -0.60 2.63 -0.50 5 -1.17 5 -1.40 0 -0.08 -0.15 -0.30 -0.30 -0.45 -0.50 -0.50 -0.40 -6.82 0.10 -8.38 0.22 -0.65 0.30 -1.23 0.17 -1.30 -0.10 -0.08 -3.40 -0.20 -7.28 -0.28 -5.72 -0.13 -7.53 -0.08 -9.45 0.22 -1.30 0.22 -2.97 0.47 -3.67 0.55 l-1.33 0.17 0 5.28 c0 2.92 0.08 5.72 0.17 6.28 l0.15 0.95 4.15 -0.13 c2.28 -0.08 4.70 -0.28 5.35 -0.43z m-11.77 -5.80 c0.05 -3.08 0.08 -5.60 0.08 -5.60 0 -0.03 -1.65 0.20 -3.67 0.50 l-3.70 0.52 0 1.80 c0 0.98 -0.17 2.67 -0.38 3.75 -0.20 1.08 -0.38 2.03 -0.38 2.13 0 0.30 1.27 0.88 2.88 1.33 0.82 0.22 2 0.55 2.63 0.75 0.63 0.17 1.42 0.35 1.80 0.35 l0.68 0.03 0.08 -5.55z m25.52 3 c0.30 -0.15 1.58 -0.65 2.80 -1.10 3.75 -1.35 6.95 -2.60 7.22 -2.83 0.15 -0.10 1.23 -0.63 2.40 -1.15 5.15 -2.30 10.35 -5.15 11.20 -6.20 0.28 -0.32 0.17 -0.35 -0.75 -0.15 -4.10 0.77 -5.80 0.98 -9.45 1.13 l-4.15 0.15 -0.05 2.88 c-0.05 2.70 -0.28 3.83 -0.80 3.83 -0.43 0 -0.80 -1.88 -0.85 -4.28 l-0.03 -2.47 -1.38 0 c-0.75 0 -2.47 0.08 -3.80 0.17 l-2.45 0.15 0 2.60 c0 2.25 -0.17 4.15 -0.63 6.90 -0.13 0.75 -0.08 0.80 0.70 0.38z m-35.50 -3.38 c0.10 -1.63 0.22 -3.22 0.32 -3.60 l0.15 -0.63 -5.18 -0.08 c-2.85 -0.03 -5.45 -0.17 -5.78 -0.30 -0.77 -0.28 2.03 2.35 4.30 4.07 1.40 1.05 5.40 3.40 5.88 3.45 0.08 0 0.22 -1.33 0.30 -2.92z m6.18 -7.82 c1.73 -0.28 3.85 -0.65 4.75 -0.88 0.90 -0.20 2.58 -0.47 3.75 -0.60 1.17 -0.15 3.08 -0.38 4.25 -0.55 2.47 -0.32 7.47 -0.13 11 0.43 2.55 0.40 9.50 0.30 12.75 -0.17 0.90 -0.15 3.88 -0.35 6.63 -0.47 3.47 -0.15 5.80 -0.38 7.63 -0.75 1.45 -0.30 2.65 -0.57 2.70 -0.63 0.05 -0.05 -0.52 -0.20 -1.25 -0.35 -0.73 -0.17 -2.78 -0.75 -4.57 -1.30 -7.45 -2.33 -7.88 -2.45 -12.88 -3.58 -2.13 -0.50 -5.10 -1.17 -6.63 -1.52 -3.22 -0.75 -6.38 -0.82 -9.63 -0.25 -1.17 0.20 -3.53 0.38 -5.22 0.38 -2.65 0 -3.60 -0.13 -6.93 -0.90 l-3.83 -0.88 -1.77 0.50 c-1.77 0.50 -4.38 1.83 -7.63 3.92 -0.95 0.60 -2.53 1.58 -3.50 2.15 -2.88 1.67 -5.15 3.20 -6.22 4.18 -0.57 0.52 -1.35 1.17 -1.75 1.50 l-0.75 0.55 8 -0.15 c6.07 -0.10 8.73 -0.25 11.10 -0.63z"/>
  <path d="M178.02 297.98 c0.38 -0.70 4.40 -4.72 4.72 -4.72 0.55 0 -0.55 1.48 -2.47 3.33 -2.03 1.95 -2.80 2.42 -2.25 1.40z"/>
  <path d="M192.20 296.88 c0.45 -0.82 1.20 -1.95 1.67 -2.50 0.75 -0.88 0.85 -0.93 0.88 -0.45 0 0.68 -1.92 3.53 -2.72 4.05 -0.60 0.40 -0.60 0.35 0.17 -1.10z"/>
  <path d="M170.13 295.20 c0.28 -0.90 1.92 -3.88 2.55 -4.63 l0.57 -0.70 -0.43 1.13 c-0.93 2.47 -3.28 6.13 -2.70 4.20z"/>
  <path d="M64.82 288.27 c-1.40 -1.75 -2.05 -3.10 -1.30 -2.63 0.38 0.22 3.22 4.10 3.22 4.38 0 0.52 -0.47 0.10 -1.92 -1.75z"/>
  <path d="M192.25 287.67 c0 -0.68 2.38 -5.72 2.47 -5.28 0.10 0.57 -0.43 2.17 -1.30 3.85 -0.88 1.63 -1.17 2.03 -1.17 1.42z"/>
  <path d="M59.80 286.60 c-0.32 -0.65 -0.50 -1.23 -0.43 -1.33 0.20 -0.20 1.05 0.90 1.35 1.80 0.43 1.17 -0.32 0.80 -0.93 -0.47z"/>
  <path d="M178.25 284.45 c0 -0.82 3.03 -8.20 3.35 -8.20 0.25 0 -2.85 8.02 -3.25 8.48 -0.05 0.05 -0.10 -0.05 -0.10 -0.28z"/>
  <path d="M202.25 282.20 c0.03 -1.17 2 -5.28 2.38 -4.90 0.20 0.20 -0.82 3.38 -1.48 4.50 -0.60 1.08 -0.90 1.20 -0.90 0.40z"/>
  <path d="M60.42 279.35 c-0.08 -1.08 -0.10 -2.03 -0.03 -2.08 0.57 -0.57 1.10 2.83 0.52 3.58 -0.30 0.43 -0.35 0.28 -0.50 -1.50z"/>
  <path d="M187.32 280.83 c0.08 -0.25 0.40 -1.48 0.75 -2.72 0.57 -2.13 1.27 -3.85 1.58 -3.85 0.05 0 0 0.22 -0.15 0.47 -0.13 0.28 -0.47 1.42 -0.73 2.58 -0.50 2.13 -1.17 3.95 -1.42 3.95 -0.10 0 -0.10 -0.20 -0.03 -0.43z"/>
  <path d="M206.25 277.20 c0 -0.32 0.22 -1.52 0.50 -2.70 0.28 -1.17 0.55 -2.38 0.63 -2.67 0.08 -0.32 0.30 -0.57 0.50 -0.57 0.45 0 0.45 -0.08 0.10 1.98 -0.45 2.85 -1.73 5.78 -1.73 3.97z"/>
  <path d="M62.90 275.42 c-0.28 -0.60 -0.03 -9.38 0.30 -10.30 0.20 -0.57 0.25 0.30 0.25 3.63 0 4.75 -0.22 7.43 -0.55 6.68z"/>
  <path d="M195.25 271.52 c0 -0.47 1.45 -3.05 3.58 -6.40 2.10 -3.28 1.90 -2.97 2.05 -2.85 0.15 0.15 -2.08 4.07 -3.75 6.60 -0.73 1.10 -1.45 2.22 -1.60 2.50 -0.15 0.30 -0.28 0.38 -0.28 0.15z"/>
  <path d="M66.25 268.85 c-0.43 -1.08 -0.70 -2.70 -0.88 -5.22 -0.25 -3.20 0.22 -2.42 0.60 1 0.17 1.52 0.43 3.20 0.52 3.75 0.28 1.20 0.13 1.48 -0.25 0.47z"/>
  <path d="M168.18 267.15 c-0.40 -1.02 -0.08 -6.28 0.35 -6 0.28 0.15 0.28 5.28 0 5.95 -0.17 0.45 -0.20 0.45 -0.35 0.05z"/>
  <path d="M69.20 265.38 c-0.20 -0.35 -0.13 -5.35 0.10 -5.22 0.30 0.20 0.47 2.70 0.28 4.10 -0.13 0.75 -0.28 1.27 -0.38 1.13z"/>
  <path d="M176.02 263.83 c-0.15 -0.52 -0.45 -2.25 -0.65 -3.83 -0.50 -3.88 -1.85 -8.20 -3.22 -10.50 -0.30 -0.47 -0.70 -1.20 -0.90 -1.60 -0.57 -1.13 -4.28 -4.70 -6.82 -6.65 -1.27 -0.95 -3.88 -3.05 -5.78 -4.68 -3.95 -3.33 -5.18 -4.93 -6.93 -8.82 -0.57 -1.30 -1.65 -3.60 -2.38 -5.13 -1.40 -2.85 -1.60 -3.63 -1 -3.63 0.75 0 1.85 1.88 4.28 7.30 2.38 5.25 4.05 7.13 11.50 12.88 2.67 2.08 7.82 7.22 8.38 8.40 0.20 0.45 0.57 1.02 0.82 1.27 0.22 0.28 0.43 0.65 0.43 0.82 0 0.20 0.15 0.60 0.35 0.90 0.45 0.70 1.45 3.75 2 6.05 0.47 1.92 1 7.25 0.80 7.78 -0.25 0.63 -0.63 0.38 -0.88 -0.57z"/>
  <path d="M73.38 256.90 c0 -3.42 0.03 -3.75 0.32 -3.05 0.52 1.17 0.65 3.70 0.30 5.40 -0.17 0.82 -0.38 1.50 -0.47 1.50 -0.08 0 -0.15 -1.73 -0.15 -3.85z"/>
  <path d="M67.85 258.20 c0.25 -3.30 0.43 -4.45 0.70 -4.45 0.22 0 0.17 1.45 -0.20 5.32 -0.08 0.77 -0.28 1.42 -0.40 1.42 -0.17 0 -0.22 -0.75 -0.10 -2.30z"/>
  <path d="M60.47 258.58 c-0.20 -1.30 0.50 -6.70 1.17 -9.07 1.88 -6.63 3.72 -9.98 7.68 -14.05 1.92 -2 2.38 -2.25 2.92 -1.58 0.28 0.32 0.15 0.55 -0.77 1.45 -1.35 1.33 -4.15 4.50 -4.97 5.68 -0.98 1.38 -2.75 5.20 -2.75 5.90 0 0.28 -0.17 0.73 -0.38 1 -0.20 0.30 -0.47 1.20 -0.60 2 -0.15 0.80 -0.45 2.10 -0.65 2.85 -0.20 0.75 -0.38 1.92 -0.40 2.63 -0.03 2.03 -0.30 3.22 -0.80 3.33 -0.22 0.05 -0.45 0 -0.45 -0.13z"/>
  <path d="M207.10 256.83 c0.80 -1.98 1.65 -3.63 2.17 -4.32 0.22 -0.30 0.25 -0.28 0.10 0.13 -0.10 0.28 -0.43 1.17 -0.73 2 -0.55 1.55 -1.90 4.13 -2.17 4.13 -0.08 0 0.20 -0.88 0.63 -1.92z"/>
  <path d="M159.43 258.25 c-0.28 -0.88 -0.93 -4.22 -1.08 -5.55 -0.40 -3.40 0.88 -0.17 1.35 3.45 0.20 1.48 0 2.95 -0.28 2.10z"/>
  <path d="M167.02 255.45 c-0.40 -2 -0.70 -5.20 -0.50 -5.35 0.30 -0.17 0.75 1.50 0.98 3.83 0.30 2.75 0.30 2.83 0.03 2.83 -0.13 0 -0.35 -0.60 -0.50 -1.30z"/>
  <path d="M71.65 255.23 c0.40 -4.20 0.68 -6.22 0.88 -6.22 0.30 0 0.28 0.50 -0.13 4.07 -0.17 1.63 -0.45 3.08 -0.60 3.22 -0.20 0.20 -0.25 -0.08 -0.15 -1.08z"/>
  <path d="M79.50 252.25 c0 -1.58 0.08 -2.03 0.28 -1.83 0.50 0.50 0.57 2.70 0.13 3.35 -0.38 0.55 -0.40 0.50 -0.40 -1.52z"/>
  <path d="M162.45 253.50 c-0.10 -0.20 -0.35 -2.05 -0.57 -4.13 -0.22 -2.05 -0.47 -3.83 -0.55 -3.92 -0.05 -0.13 0.03 -0.20 0.17 -0.20 0.40 0 0.70 0.98 1 3.30 0.30 2.15 0.25 5.60 -0.05 4.95z"/>
  <path d="M195.30 253.57 c0.05 -0.13 0.38 -0.82 0.70 -1.58 0.88 -2.05 3.30 -6.78 3.40 -6.68 0.28 0.28 -3.58 8.43 -3.97 8.43 -0.13 0 -0.17 -0.08 -0.13 -0.17z"/>
  <path d="M77.10 249.57 c-0.25 -2.88 -0.15 -4.72 0.25 -4.30 0.25 0.25 0.45 6.47 0.20 6.47 -0.15 0 -0.35 -0.98 -0.45 -2.17z"/>
  <path d="M155.43 250.38 c-1.08 -2.17 -1.70 -5.25 -0.90 -4.45 0.25 0.25 1.80 5.57 1.65 5.72 -0.05 0.05 -0.40 -0.52 -0.75 -1.27z"/>
  <path d="M82.25 249.77 c0 -0.82 -0.10 -1.75 -0.22 -2.08 -0.20 -0.57 0.45 -5.25 0.80 -5.63 0.35 -0.35 0.35 0.10 0.03 2.30 -0.22 1.45 -0.28 3.08 -0.17 4.57 0.10 1.65 0.08 2.30 -0.15 2.30 -0.17 0 -0.28 -0.52 -0.28 -1.48z"/>
  <path d="M149.27 246.80 c-1.25 -2.47 -2.15 -5.05 -1.80 -5.05 0.45 0 1.10 1.08 2.15 3.45 0.57 1.38 1.15 2.85 1.25 3.28 0.32 1.50 -0.38 0.77 -1.60 -1.67z"/>
  <path d="M86.88 248.50 c-0.22 -0.68 0.13 -2.92 0.38 -2.47 0.38 0.68 0.40 2.97 0.03 2.97 -0.13 0 -0.30 -0.22 -0.40 -0.50z"/>
  <path d="M85.70 246.60 c-0.13 -0.10 -0.20 -0.50 -0.20 -0.90 0 -0.80 0.85 -4.78 1.23 -5.80 0.35 -0.90 0.82 -0.88 0.52 0.05 -0.22 0.60 -0.75 3.17 -1.20 5.88 -0.10 0.55 -0.25 0.88 -0.35 0.77z"/>
  <path d="M135.38 245.88 c-1.15 -1.48 -3.13 -4.95 -3.13 -5.45 0 -0.75 0.85 -0.08 1.55 1.25 0.35 0.65 1.08 1.95 1.58 2.90 1.05 1.95 1.05 2.70 0 1.30z"/>
  <path d="M142.23 244.93 c-1.73 -2.67 -2.78 -4.63 -2.67 -4.93 0.13 -0.40 1.73 1.85 3.03 4.30 0.65 1.20 1.17 2.25 1.17 2.33 0 0.45 -0.52 -0.13 -1.52 -1.70z"/>
  <path d="M130.40 245.73 c-0.38 -0.43 -0.82 -1.13 -1.05 -1.58 -0.20 -0.43 -0.52 -1.05 -0.73 -1.40 -0.60 -1.10 -1.17 -2.53 -1.02 -2.67 0.38 -0.38 0.95 0.38 2.10 2.72 1.77 3.65 1.98 4.45 0.70 2.92z"/>
  <path d="M92.45 242.57 c0.05 -1.77 0.17 -3.30 0.30 -3.45 0.10 -0.13 0.38 -0.95 0.60 -1.83 0.22 -0.88 0.57 -1.88 0.77 -2.25 l0.38 -0.68 -0.15 1 c-0.08 0.55 -0.43 2.22 -0.75 3.75 -0.32 1.50 -0.60 3.45 -0.60 4.30 0 1.52 -0.15 2.33 -0.47 2.33 -0.08 0 -0.10 -1.42 -0.08 -3.17z"/>
  <path d="M96.25 242.93 c0 -1.02 0.22 -2.90 0.50 -4.20 0.28 -1.30 0.50 -2.60 0.50 -2.90 0 -0.35 0.15 -0.57 0.40 -0.57 0.30 0 0.38 0.13 0.22 0.57 -0.10 0.30 -0.28 1.73 -0.40 3.17 -0.10 1.45 -0.32 3.03 -0.47 3.50 -0.13 0.47 -0.25 1.17 -0.25 1.55 0 0.40 -0.10 0.70 -0.25 0.70 -0.15 0 -0.25 -0.77 -0.25 -1.83z"/>
  <path d="M156.63 243.95 c-1.88 -2.08 -2.38 -2.78 -2.38 -3.28 0.03 -0.50 0.10 -0.45 0.77 0.32 1.48 1.67 2.72 3.30 2.72 3.53 0 0.43 -0.40 0.22 -1.13 -0.57z"/>
  <path d="M90.25 241.40 c0 -1.83 0.10 -3.17 0.25 -3.28 0.15 -0.10 0.25 1 0.25 3.10 0 2.03 -0.10 3.28 -0.25 3.28 -0.15 0 -0.25 -1.20 -0.25 -3.10z"/>
  <path d="M101.88 241.60 c-1.80 -3.70 -2.22 -4.85 -1.77 -4.85 0.43 0 3.65 6.68 3.65 7.57 0 0.70 -0.63 -0.22 -1.88 -2.72z"/>
  <path d="M212.13 243.73 c0.17 -0.80 1.35 -3.78 1.55 -3.97 0.35 -0.30 -0.22 2.05 -0.80 3.33 -0.68 1.58 -1 1.85 -0.75 0.65z"/>
  <path d="M107.32 241.45 c0.22 -3.53 0.85 -6.35 1.30 -5.90 0.15 0.15 -0.25 4.35 -0.65 6.78 -0.43 2.65 -0.82 2.10 -0.65 -0.88z"/>
  <path d="M127.05 243.32 c-0.95 -1.38 -2.78 -5.07 -2.55 -5.20 0.25 -0.15 3.50 5.18 3.50 5.75 0 0.35 -0.52 0.05 -0.95 -0.55z"/>
  <path d="M120.03 242.88 c-0.17 -0.40 -0.43 -1.70 -0.55 -2.88 -0.28 -2.75 -0.28 -3.15 0 -2.85 0.32 0.30 1.08 4.88 0.98 5.75 l-0.10 0.73 -0.32 -0.75z"/>
  <path d="M111.63 241.82 c-1.08 -3.42 -1.70 -6.78 -1.15 -6.18 0.43 0.45 2.03 6.28 2.03 7.32 0 0.75 -0.45 0.13 -0.88 -1.15z"/>
  <path d="M117.40 242.30 c-0.25 -0.40 -0.88 -3.28 -1.02 -4.80 -0.22 -2.13 0.17 -1.70 0.70 0.75 0.70 3.17 0.82 4.88 0.32 4.05z"/>
  <path d="M113.43 239.95 c-0.40 -5.13 0.05 -6.75 0.60 -2.13 0.28 2.35 0.17 4.18 -0.25 4.18 -0.10 0 -0.28 -0.93 -0.35 -2.05z"/>
  <path d="M207.38 240.38 c0.08 -0.82 0.32 -2.20 0.52 -3.08 0.20 -0.88 0.35 -1.85 0.35 -2.17 0 -0.32 0.13 -0.68 0.30 -0.77 0.35 -0.22 0.13 2.50 -0.47 5.15 -0.52 2.40 -0.95 2.90 -0.70 0.88z"/>
  <path d="M98.40 240.88 c-0.22 -0.63 -0.17 -4.63 0.08 -4.63 0.10 0 0.28 0.88 0.38 1.95 0.10 1.05 0.20 2.15 0.22 2.40 0.08 0.60 -0.45 0.80 -0.68 0.28z"/>
  <path d="M105.63 241.02 c-0.73 -1.20 -1.75 -5.03 -1.15 -4.38 0.20 0.22 1.30 2.92 1.65 4.05 0.15 0.55 -0.20 0.77 -0.50 0.32z"/>
  <path d="M77.32 232.40 c-1.85 -0.88 -4.38 -3.58 -5.53 -5.90 l-0.93 -1.85 0 -3.28 c0.03 -3.08 0.08 -3.40 0.90 -5.75 1.55 -4.45 4.20 -7.72 11.10 -13.75 9.57 -8.38 13.32 -14.13 15.48 -23.77 0.30 -1.38 0.35 -2.08 0.15 -3 -0.90 -4.38 -0.80 -5.85 0.38 -5.85 1.17 0 1.92 1.30 2.53 4.38 0.40 1.92 0.40 2.47 0.13 4.85 -0.40 3.17 -1.40 6.47 -3.05 10 -2.80 5.95 -6.97 10.90 -14.35 17.02 -1.83 1.52 -5.15 4.85 -6.35 6.38 -1.60 2.03 -2.08 2.92 -2.90 5.40 -0.90 2.67 -1 5.78 -0.25 7.35 0.65 1.33 2.83 4.07 3.35 4.25 0.22 0.08 0.95 0.63 1.60 1.23 1.05 0.95 1.20 1.23 1.13 1.95 -0.08 0.77 -0.15 0.82 -1.08 0.90 -0.65 0.03 -1.45 -0.15 -2.30 -0.55z"/>
  <path d="M97 231.40 c-0.90 -0.32 -1.98 -0.75 -2.40 -0.98 -0.40 -0.20 -1.35 -0.50 -2.10 -0.63 -1.42 -0.28 -2.15 -0.10 -4.13 0.93 -1.17 0.63 -3.78 0.73 -4.85 0.17 -0.95 -0.50 -1.58 -1.55 -1.63 -2.67 -0.08 -2.88 3.97 -4.20 7.60 -2.50 1.02 0.47 2.13 0.77 3.33 0.88 1.25 0.13 2.53 0.47 4.18 1.15 1.30 0.55 2.85 1.10 3.40 1.25 1.98 0.47 2.88 1.70 1.95 2.60 -0.60 0.63 -3.38 0.50 -5.35 -0.20z"/>
  <path d="M130.40 231.60 c-1.02 -1.02 -0.05 -2.05 3.35 -3.58 3.33 -1.45 4.57 -2.60 5.82 -5.25 1.33 -2.83 1.40 -3.58 0.55 -5.78 -1.25 -3.28 -4.63 -6.72 -8 -8.18 -4.40 -1.90 -4.88 -2.15 -5.03 -2.75 -0.10 -0.35 -0.05 -0.88 0.10 -1.17 0.25 -0.55 0.35 -0.55 1.75 -0.38 2.35 0.32 5.47 1.52 7.55 2.90 1.38 0.93 4.20 3.80 5.28 5.43 1.63 2.42 2.28 5.38 1.73 7.85 -0.65 3 -1.02 4.03 -1.88 5.28 -1.88 2.72 -4.13 4.28 -7.82 5.43 -2.28 0.70 -2.88 0.73 -3.40 0.20z"/>
  <path d="M111.10 229.63 c-0.30 -0.73 0.17 -1.75 1.23 -2.70 2.63 -2.40 8.27 -5.47 11.18 -6.07 2.20 -0.45 5.85 -0.32 6.97 0.25 1.92 1 2.05 3.90 0.22 5.57 -1.17 1.08 -2.38 1.38 -5.32 1.33 -6.72 -0.10 -7.32 -0.15 -7.70 -0.47 -0.35 -0.28 -0.68 -0.17 -2.22 0.77 -2.95 1.77 -4.05 2.10 -4.35 1.33z"/>
  <path d="M236.18 228.57 c-0.10 -0.08 -0.17 -0.60 -0.17 -1.15 0 -0.75 0.30 -1.48 1.25 -3.03 0.68 -1.10 1.52 -2.88 1.88 -3.90 l0.65 -1.88 -0.43 -1.88 c-0.25 -1.02 -0.82 -2.78 -1.30 -3.88 -1.30 -3.03 -2.05 -5.78 -2.05 -7.55 0 -2.22 0.88 -5.55 2.13 -8.20 3.60 -7.53 12.52 -9.95 18.33 -4.97 1.80 1.55 3.15 4.43 3.45 7.47 0.25 2.53 -1 6.13 -2.15 6.13 -0.57 0 -0.68 -0.57 -0.82 -4.40 -0.10 -2.55 -0.17 -2.90 -0.93 -4.32 -0.85 -1.60 -2.38 -3.05 -3.85 -3.65 -0.50 -0.22 -1.67 -0.38 -2.72 -0.38 -1.63 0 -2.08 0.10 -3.60 0.88 -3.50 1.75 -5.18 4.43 -6.65 10.57 -0.15 0.65 0.10 0.70 1.60 0.17 0.57 -0.22 1.83 -0.40 2.75 -0.43 1.50 -0.03 1.83 0.08 2.92 0.77 2 1.27 3.45 3 3.95 4.65 0.38 1.33 0.38 1.63 0 3.85 -0.22 1.33 -0.40 2.70 -0.40 3.05 0 0.35 -0.22 1.38 -0.47 2.25 -1 3.40 -1.48 6.13 -1.25 7.28 0.10 0.57 0.20 1.23 0.22 1.40 0 0.45 -1.17 0.38 -1.35 -0.10 -0.30 -0.75 -0.15 -4.75 0.22 -6.10 0.20 -0.75 0.43 -1.65 0.52 -2 0.08 -0.35 -0.45 0.50 -1.15 1.88 -0.73 1.38 -1.48 2.80 -1.67 3.20 -0.20 0.38 -0.52 0.68 -0.73 0.68 -0.68 0 -0.38 -1.58 0.77 -3.88 1.60 -3.28 2.60 -5.88 3.13 -8.30 l0.47 -2.15 -0.63 -1.40 c-0.80 -1.80 -2.17 -3.20 -3.47 -3.55 -1.35 -0.38 -4.25 0.15 -4.75 0.85 -0.40 0.57 -0.08 1.85 1.13 4.50 1.77 3.92 2.17 7.30 1.25 10.65 -0.63 2.22 -1 3 -2.30 4.70 -1.38 1.83 -3.13 2.80 -3.78 2.15z"/>
  <path d="M214.38 226.82 c0.30 -1.67 0.90 -3.58 1.15 -3.58 0.13 0 0.22 0.10 0.22 0.22 0 0.52 -0.52 2.97 -0.77 3.60 -0.43 1 -0.80 0.85 -0.60 -0.25z"/>
  <path d="M171.13 220.85 c-0.95 -0.35 -2.22 -0.77 -2.80 -0.98 -2.95 -0.98 -11.05 -5.35 -12.80 -6.93 -0.43 -0.40 -0.88 -0.70 -1 -0.70 -0.15 0 -0.93 -0.63 -1.75 -1.40 -1.05 -0.98 -1.52 -1.60 -1.52 -2 0 -0.32 0.08 -0.60 0.15 -0.60 0.08 0 1.45 1 3.05 2.22 4.32 3.28 6.07 4.38 9.68 6.13 2.95 1.45 7.20 3.13 8.95 3.55 0.50 0.10 0.68 0.30 0.68 0.75 0 0.75 -0.35 0.75 -2.63 -0.05z"/>
  <path d="M93 215.32 c0.38 -0.80 1 -1.73 1.38 -2.08 l0.68 -0.63 -0.17 0.63 c-0.28 0.88 -1.02 2.28 -1.60 2.95 -0.88 1 -1 0.57 -0.28 -0.88z"/>
  <path d="M170.90 216.35 c-0.28 -0.20 -0.73 -0.35 -0.98 -0.35 -0.45 0 -3.13 -1.02 -3.92 -1.52 -0.20 -0.13 -0.55 -0.30 -0.75 -0.38 -0.20 -0.08 -2.55 -1.17 -5.18 -2.40 -3.78 -1.77 -4.82 -2.38 -4.82 -2.75 0 -0.25 0.15 -0.52 0.35 -0.60 0.20 -0.08 2.53 0.93 5.20 2.22 6.63 3.22 6.85 3.33 9.10 4.15 1.95 0.70 2.45 1.17 1.80 1.73 -0.22 0.17 -0.45 0.15 -0.80 -0.10z"/>
  <path d="M88.50 213.07 c0.05 -0.82 3.03 -3.97 6 -6.40 1.02 -0.82 2.38 -1.92 3 -2.45 1.60 -1.30 2.15 -1.55 2.75 -1.23 0.63 0.32 0.45 0.77 -0.57 1.38 -0.90 0.50 -4.97 3.95 -7.30 6.15 -2.08 1.98 -3.90 3.15 -3.88 2.55z"/>
  <path d="M99.25 211.68 c0 -0.50 2.45 -2.35 3.38 -2.55 l0.75 -0.15 -1.02 0.95 c-1.38 1.27 -3.10 2.25 -3.10 1.75z"/>
  <path d="M94 211.18 c0 -0.38 2.90 -3.25 3.70 -3.65 0.47 -0.25 0.55 -0.22 0.55 0.20 0 0.28 -0.15 0.60 -0.35 0.70 -0.17 0.10 -1.05 0.85 -1.90 1.65 -1.60 1.45 -2 1.67 -2 1.10z"/>
  <path d="M49.95 209.82 c-1.95 -0.08 -2.20 -0.15 -2.20 -0.57 0 -0.25 0.15 -0.50 0.32 -0.57 0.15 -0.08 1.88 -0.05 3.80 0.03 4.15 0.15 9.65 -0.43 12.82 -1.35 2.22 -0.63 5.28 -2 6.90 -3.13 1.42 -0.95 2 -1 2.10 -0.22 0.08 0.57 -0.20 0.77 -2.63 2.05 -2.75 1.42 -5.63 2.53 -7.45 2.85 -0.55 0.08 -1.58 0.30 -2.28 0.47 -1.40 0.35 -7.90 0.63 -11.40 0.45z"/>
  <path d="M168.88 209.10 c-1.70 -0.35 -2.55 -0.52 -5.38 -1.20 -5.22 -1.25 -13 -5.18 -13.40 -6.78 -0.30 -1.20 0.22 -1.13 2.42 0.35 4.30 2.85 8.82 4.65 15.85 6.32 2.28 0.52 3.03 0.57 8.45 0.55 3.25 -0.03 5.93 0.05 5.93 0.15 0 0.10 -0.45 0.38 -1 0.60 -1.30 0.52 -10.20 0.52 -12.88 0z"/>
  <path d="M107.75 208.57 c0 -0.32 2.92 -3.33 3.25 -3.33 0.57 0 0.15 0.65 -1.30 1.98 -1.60 1.48 -1.95 1.70 -1.95 1.35z"/>
  <path d="M101.25 206.35 c1.50 -1.52 5.35 -4.10 6.40 -4.28 0.73 -0.13 0.85 -0.08 0.85 0.35 0 0.30 -0.38 0.70 -1.05 1.08 -0.60 0.32 -1.92 1.17 -2.95 1.88 -1.90 1.27 -3.53 2.13 -4.05 2.13 -0.17 0 0.20 -0.52 0.80 -1.15z"/>
  <path d="M200.88 204.82 c-2.33 -0.55 -5.78 -2.45 -7.07 -3.95 -1.42 -1.60 -0.68 -2.35 0.82 -0.80 0.90 0.93 3.78 2.47 6.57 3.55 1.90 0.75 2.40 1.40 1 1.35 -0.45 -0.03 -1.05 -0.08 -1.33 -0.15z"/>
  <path d="M202.52 201.05 c-2 -1.20 -5.03 -3.95 -5.03 -4.55 0 -1 0.60 -0.77 2 0.70 0.80 0.82 1.90 1.75 2.42 2 1.50 0.80 3.08 2.03 3.08 2.42 0 0.63 -0.82 0.43 -2.47 -0.57z"/>
  <path d="M50.38 199.75 c-3 -0.13 -3 -0.13 -3 -0.75 l0 -0.63 3.25 0 c1.80 0 3.88 -0.05 4.63 -0.08 l1.38 -0.08 -1.15 -0.60 c-1.65 -0.85 -2.60 -1.90 -3.25 -3.60 l-0.57 -1.48 -0.57 0.45 c-0.32 0.25 -1.45 0.82 -2.53 1.25 -1.48 0.63 -2.33 0.82 -3.67 0.85 l-1.75 0.03 0.05 -0.85 c0.05 -1.13 0.57 -1.58 2.85 -2.47 1.05 -0.43 3.83 -1.77 6.13 -3.05 2.63 -1.40 5.13 -2.55 6.60 -3 2.13 -0.68 2.70 -0.75 5.68 -0.75 2.90 0 3.65 0.10 6 0.73 3.40 0.93 8.20 2.45 8.82 2.78 1.02 0.55 0.90 2.15 -0.17 2.40 -0.52 0.15 -3.35 -0.47 -9.60 -2.08 -0.35 -0.10 -0.43 0.25 -0.55 2.35 -0.15 2.80 -0.68 4.72 -1.55 5.78 -0.35 0.43 -0.63 0.82 -0.63 0.90 0 0.08 0.77 0.15 1.73 0.15 1.85 0 2.45 0.32 1.65 0.93 -0.30 0.20 -1.17 0.32 -2.35 0.32 -1.05 0 -2.85 0.17 -4.03 0.38 -2.15 0.38 -7 0.43 -13.38 0.13z"/>
  <path d="M165.63 198.55 c-2.70 -0.63 -4.15 -1.30 -5.90 -2.83 -1.77 -1.52 -2.58 -2.83 -2.97 -4.80 -0.60 -2.92 0.30 -5.03 2.63 -6.25 0.95 -0.50 0.77 -0.52 -0.50 -0.05 -0.55 0.20 -1.38 0.35 -1.83 0.38 -0.90 0 -4.47 0.77 -7.18 1.55 -3.47 1 -5.38 0.85 -5.38 -0.40 0 -1.25 2.25 -2.35 7.13 -3.53 10.02 -2.38 17.02 -1.02 28.63 5.55 3.92 2.25 5.90 3.95 5.63 4.88 -0.28 0.82 -0.57 0.95 -1.60 0.57 -1.10 -0.38 -7.43 -3.55 -9.20 -4.60 l-1.30 -0.75 0.13 0.68 c0.17 0.82 -0.80 5.18 -1.33 6.05 -0.22 0.35 -0.68 0.93 -1.02 1.33 l-0.65 0.68 2.38 0.03 c1.30 0.03 2.53 0.05 2.72 0.08 0.20 0.05 0.90 0.08 1.58 0.10 1.33 0.05 1.52 0.43 0.65 1.20 -0.47 0.43 -1 0.47 -5.57 0.52 -4.07 0.05 -5.40 -0.03 -7.03 -0.38z"/>
  <path d="M206 198.80 c-0.68 -0.30 -4.60 -3 -5.18 -3.55 -0.60 -0.55 -0.77 -1.25 -0.30 -1.25 0.30 0 4.28 2.55 5.35 3.45 0.43 0.35 0.90 0.82 1.08 1.08 0.28 0.43 0.28 0.47 -0.13 0.45 -0.25 0 -0.63 -0.08 -0.82 -0.17z"/>
  <path d="M46.88 186.02 c0.43 -0.82 4.65 -3.78 7.03 -4.90 2.95 -1.40 5 -1.90 8.48 -2.05 1.80 -0.08 4.38 -0.03 5.78 0.15 2.55 0.28 4.85 1 4.85 1.55 0 0.38 -3 0.15 -5.50 -0.43 -1.13 -0.25 -2.50 -0.35 -3.92 -0.30 -2.13 0.10 -5.93 0.80 -6.45 1.20 -0.13 0.10 -0.70 0.32 -1.25 0.50 -1.25 0.40 -3.92 1.92 -6.38 3.67 -1.02 0.73 -2.13 1.33 -2.45 1.33 -0.55 0 -0.55 -0.03 -0.17 -0.73z"/>
  <path d="M182.75 184.82 c-0.20 -0.10 -0.93 -0.63 -1.63 -1.20 -4.38 -3.65 -8.13 -5.22 -16.13 -6.68 -1.75 -0.32 -8.07 -0.05 -10.25 0.43 -3.03 0.68 -3.95 0.43 -2.47 -0.68 0.98 -0.73 8.85 -1.17 13.02 -0.73 7.28 0.77 12.82 3 16.45 6.63 1.95 1.92 2.30 2.72 1 2.22z"/>
  <path d="M195.88 170.65 c-0.82 -0.38 -5.43 -3.38 -8.25 -5.38 -3.55 -2.50 -6.38 -3.53 -12.63 -4.55 -4.57 -0.75 -13.93 -0.82 -19 -0.13 -5.63 0.77 -11.45 0.22 -13.45 -1.27 -1.40 -1.02 -1.67 -1.70 -1.67 -3.90 0 -1.80 0.10 -2.22 0.75 -3.42 0.95 -1.73 3.13 -3.92 4.75 -4.80 3.58 -1.90 7.93 -2.70 14.75 -2.67 11.77 0.03 20.48 1.92 27 5.95 6.30 3.88 11.05 8.48 12.40 12 1 2.70 0.82 6.57 -0.40 7.88 -0.52 0.55 -0.80 0.65 -2.05 0.65 -0.80 -0.03 -1.77 -0.17 -2.20 -0.35z m1.15 -4.40 c-0.15 -0.55 -0.32 -1 -0.38 -1 -0.30 0 -1.90 0.80 -1.90 0.95 0 0.32 2.13 1.50 2.35 1.27 0.15 -0.13 0.13 -0.60 -0.08 -1.23z m0.13 -4.03 c0.15 -0.28 -0.77 -1.42 -0.98 -1.20 -0.05 0.05 -0.17 0.40 -0.28 0.80 -0.15 0.60 -0.10 0.68 0.45 0.68 0.35 0 0.70 -0.13 0.80 -0.28z m-43.03 -4.72 c-0.08 -0.13 -0.38 -0.25 -0.65 -0.25 -0.25 0 -0.47 0.13 -0.47 0.25 0 0.15 0.30 0.25 0.65 0.25 0.35 0 0.57 -0.10 0.47 -0.25z m20 -0.28 c0.13 -0.15 0.08 -0.22 -0.17 -0.22 -0.60 0 -1.20 0.28 -1.20 0.55 0 0.25 0.98 0.03 1.38 -0.32z m6.32 -0.13 c0.55 -0.38 0.77 -1.35 0.28 -1.35 -0.45 0 -2.72 1.05 -2.72 1.25 0 0.52 1.75 0.60 2.45 0.10z m-13.73 -1.40 c-0.03 -1.35 -0.10 -1.25 -0.57 0.63 -0.13 0.50 -0.08 0.68 0.22 0.68 0.30 0 0.38 -0.30 0.35 -1.30z m-16.92 0.68 c-0.10 -0.30 -1.83 -0.17 -2.17 0.15 -0.17 0.17 0.17 0.22 1 0.17 0.70 -0.05 1.23 -0.17 1.17 -0.32z m7.53 -2.58 c0.22 -0.20 0.43 -0.65 0.43 -0.98 0 -0.52 -0.10 -0.60 -0.68 -0.52 -0.63 0.08 -0.70 0.17 -0.77 1.15 -0.08 1.15 0.03 1.20 1.02 0.35z m18.13 0.05 c0.30 -0.20 0.55 -0.47 0.55 -0.63 0 -0.43 -0.65 -0.22 -1.20 0.40 -0.63 0.70 -0.22 0.85 0.65 0.22z m12 0.10 c-0.05 -0.15 -0.47 -0.57 -0.95 -0.93 -0.47 -0.35 -0.77 -0.52 -0.68 -0.38 0.08 0.15 0.28 0.57 0.40 0.95 0.17 0.43 0.45 0.65 0.80 0.65 0.28 0 0.47 -0.13 0.43 -0.30z m-34.70 -0.32 c0 -0.20 -0.22 -0.38 -0.50 -0.38 -0.28 0 -0.50 0.17 -0.50 0.38 0 0.20 0.22 0.38 0.50 0.38 0.28 0 0.50 -0.17 0.50 -0.38z m21.50 -2.63 c0.57 -0.57 0.47 -1 -0.25 -1 -0.45 0 -0.75 0.45 -0.75 1.15 0 0.50 0.43 0.43 1 -0.15z m-13.52 -0.65 c-0.32 -0.35 -0.80 -0.75 -1.05 -0.90 -0.40 -0.20 -0.43 -0.17 -0.20 0.28 0.30 0.52 1.23 1.27 1.63 1.27 0.13 0 -0.03 -0.30 -0.38 -0.65z m21.17 0.17 c-0.08 -0.13 -0.45 -0.28 -0.82 -0.32 -0.40 -0.08 -0.93 -0.22 -1.20 -0.32 -0.40 -0.17 -0.38 -0.10 0.13 0.32 0.60 0.50 2.17 0.77 1.90 0.32z m-32.10 -1.33 c-0.20 -0.20 -0.38 -0.20 -0.68 0.05 -0.35 0.30 -0.35 0.38 0.05 0.80 0.43 0.47 0.45 0.47 0.68 -0.05 0.15 -0.35 0.15 -0.60 -0.05 -0.80z m21.55 -0.52 c0.40 -0.30 0.32 -0.35 -0.70 -0.60 -0.63 -0.13 -1.10 -0.17 -1.05 -0.10 0.05 0.08 0.15 0.35 0.22 0.60 0.20 0.50 0.90 0.55 1.52 0.10z m-3.22 -1.17 c-0.20 -0.32 -2.13 -0.32 -2.63 0 -0.28 0.17 0.10 0.25 1.20 0.25 1 0 1.52 -0.10 1.42 -0.25z"/>
  <path d="M110.88 134.70 c-11.15 -0.40 -19.23 -1.30 -23.88 -2.65 -1.52 -0.45 -7.35 -0.50 -10.73 -0.10 -2.10 0.25 -3.03 0.15 -3.03 -0.35 0 -0.20 0.45 -0.38 1.20 -0.47 0.65 -0.08 1.92 -0.25 2.85 -0.38 3 -0.45 6.80 -0.30 10.07 0.38 8.60 1.80 9.50 1.90 25.15 2.65 5.22 0.28 6.43 0.25 10.13 -0.13 2.33 -0.25 5.20 -0.60 6.40 -0.80 2.65 -0.43 10.25 -1.10 14.32 -1.27 3.03 -0.13 4.38 0.10 4.38 0.73 0 0.25 -0.88 0.35 -3.58 0.38 -5 0.10 -14.18 0.93 -17.30 1.55 -1.70 0.35 -6.90 0.77 -8.88 0.73 -0.90 -0.03 -4.10 -0.13 -7.13 -0.25z"/>
  <path d="M164.15 402.55 c-0.35 -0.57 0.43 -0.88 2.78 -1.08 1.35 -0.13 2.85 -0.32 3.33 -0.45 2.78 -0.77 3.47 -1 4.30 -1.42 0.52 -0.25 1.02 -0.38 1.10 -0.28 1.02 1.02 -5.57 3.42 -9.43 3.42 -1.08 0 -2 -0.10 -2.08 -0.20z"/>
 </g>
</svg>