<?xml version="1.0" encoding="utf-8"?>
<!DOCTYPE svg PUBLIC "-//W3C//DTD SVG 1.0//EN" "http://www.w3.org/TR/2001/REC-SVG-20010904/DTD/svg10.dtd">
<svg version="1.0" xmlns="http://www.w3.org/2000/svg" width="777px" height="516px" viewBox="0 0 777 516" preserveAspectRatio="xMidYMid meet">
 <g fill="#000000">
  <path d="M630 500.8 c0 -1.7 7.9 -16.3 12.7 -23.5 7.2 -11.1 25.5 -27.3 39.3 -35.1 8.1 -4.6 17.5 -6.5 29 -5.9 12.7 0.6 17 2.7 28.3 13.7 4.8 4.7 8.7 8.4 8.7 8.3 0 -0.1 -1.1 -3.3 -2.5 -6.9 -2.6 -6.9 -6.9 -11.8 -13.9 -15.6 -1.7 -0.9 -2.7 -1.7 -2.3 -1.8 1.5 0 5.2 2.2 8.6 5.4 l3.3 3.1 -2.5 -5 c-2.6 -5.3 -9.7 -15.2 -14.6 -20.4 -2.7 -2.9 -3.4 -3.1 -10.8 -3.3 l-7.8 -0.2 7.3 -0.5 7.3 -0.6 -5 -4.9 -5 -4.9 -7.8 0.6 c-4.3 0.3 -8.9 0.9 -10.3 1.2 l-2.5 0.6 2.5 -1.1 c1.4 -0.6 5.8 -1.4 9.8 -1.8 l7.3 -0.7 -11 -10.3 -11 -10.3 -4.6 1.2 c-2.5 0.6 -5 2 -5.5 2.9 -3.8 7.1 -46.3 32.8 -69.5 42.1 -11.4 4.5 -29.6 8.9 -37.1 8.9 -5.1 0 -6.8 -0.4 -8.9 -2.2 -5.5 -4.8 -3.9 -15.2 3.7 -23.4 3.2 -3.5 3.7 -4.6 3.2 -7.3 -0.8 -4.1 -2.6 -4 -9.4 0.5 -20 13 -32.6 34.2 -46 77.6 -2.7 8.9 -5.2 16.3 -5.5 16.6 -3.1 3.2 3.8 -22.1 11.2 -40.8 13.7 -34.4 27.2 -51.3 48 -59.6 0.2 0 -0.8 -3.6 -2 -7.9 l-2.4 -7.8 -13.4 -0.1 c-12.3 -0.1 -13.9 -0.3 -19.1 -2.8 -8.3 -3.9 -13.9 -9.6 -19.9 -20.4 -7 -12.5 -7.7 -12.4 -5.2 1.1 0.3 1.7 1.7 5.1 3.1 7.8 1.4 2.6 2.3 4.9 2.1 5.2 -1 0.9 -12.7 -7.4 -15.7 -11.2 -1.7 -2.2 -4.5 -6.9 -6.2 -10.4 -3.5 -7.4 -3.9 -6.7 -1 1.6 2.1 6.1 6.3 13.6 11.3 19.8 1.6 2.1 2.7 4 2.4 4.3 -0.9 0.9 -10.6 -4.5 -14.9 -8.4 -2.2 -2 -5.4 -6.1 -7.2 -9.2 l-3.1 -5.5 -0.3 4.7 c-0.2 2.6 0.1 6.3 0.7 8.3 1.3 4.7 -0.2 4.5 -4 -0.7 -7.2 -10 -11.2 -21.9 -12.9 -38.4 -1.8 -16.9 1.2 -36.6 13.1 -87.4 5.7 -24.1 9.3 -42.9 8.4 -43.8 -0.7 -0.7 -4.3 7.3 -6.8 15.3 -1.4 4.4 -3.7 14.1 -5.2 21.5 -1.4 7.4 -4.8 20.3 -7.5 28.5 -5.3 16.5 -8.5 34 -7.7 42.2 0.6 5.8 -0.7 8.2 -1.7 3.2 -1.9 -9.5 0.6 -25.5 7 -44.9 2.4 -7.5 5.5 -19 6.8 -25.6 5.7 -27.9 10.3 -39.9 20.5 -53.4 9.9 -13.2 33.8 -33.8 52.8 -45.6 13.2 -8.3 33 -18.7 34.5 -18.2 0.6 0.2 -1.3 1.8 -4.3 3.5 -36.7 20.5 -47.7 28.1 -67.6 46.7 -11.8 11 -15.9 16.9 -17.7 25.7 -1.8 9.2 -2.2 15 -1.1 16.8 0.5 1 0.4 1.2 -0.4 0.7 -1.9 -1.2 -0.5 14.8 2.2 23.9 1.7 6.1 2.7 8.1 4.2 8.4 1.1 0.2 6.3 -0.2 11.6 -0.9 7 -0.9 10.8 -1 13.8 -0.3 l4.1 1.1 0 -3.4 c0 -3.6 -1.2 -7 -4.8 -12.7 -1.2 -2.1 -2 -4.2 -1.7 -4.8 0.4 -0.5 0.3 -0.8 -0.2 -0.7 -0.4 0.2 -2.8 -1.8 -5.2 -4.5 -2.4 -2.6 -4 -4.7 -3.6 -4.7 0.5 0 2.6 1.9 4.8 4.3 2.3 2.4 3.5 3.2 2.8 1.9 -2.2 -4.1 -0.3 -3.6 2.3 0.7 10.9 17.3 10.2 33.9 -2.4 53.8 -4.3 6.7 -6.2 13.5 -4.9 17.2 1.4 4 8.8 8.6 17.2 10.8 7.4 2 9.1 3.9 2.5 2.8 -6.1 -1 -14.7 -5.1 -18.5 -8.8 -5.5 -5.3 -4.4 -12.5 4.1 -26.6 3.5 -5.8 7.4 -16.6 6.4 -17.7 -0.3 -0.3 -2.9 0.2 -5.8 1 -6.4 1.9 -13.5 0.7 -17.5 -3 -3.9 -3.6 -6.3 -3.2 -7 1.4 -0.7 3.7 -2.9 10.8 -6.8 21.2 -2.7 7.1 -2.8 23.5 -0.3 32.8 3.8 14.1 9.5 23.6 22.4 37.2 3.7 3.9 8.1 10.1 10.8 15.3 7 13.1 14.6 18.9 27.4 20.7 17.2 2.5 41 -2.7 74 -16 26.4 -10.7 38.2 -20.5 48.1 -40.3 4 -7.9 6.9 -17.6 6.9 -23.4 0 -1.8 0.5 -3.3 1 -3.3 0.6 0 1 1.5 1 3.4 0 5.5 1.7 8.6 5.5 10.1 10.7 4.6 21.9 -1.8 31.7 -18.2 8 -13.1 11.5 -26.6 10.4 -39.8 -0.9 -11 -5 -16.5 -13.3 -18.1 -2.7 -0.5 -4.4 0.2 -10.8 4.5 -4.1 2.7 -9.1 5.3 -11.1 5.7 -5.1 0.9 -11.4 -0.3 -15.7 -3.2 -4.9 -3.2 -4 -4.5 1.1 -1.7 7.9 4.5 14.4 4 23.3 -1.8 6 -3.8 5.9 -4.7 -0.2 -1.9 -14.5 6.5 -32.6 -2.4 -44 -21.8 -2.7 -4.5 -4.9 -8.5 -4.9 -8.9 0 -1.8 -8.1 -10 -14.3 -14.7 -21.4 -15.7 -36.6 -36.4 -41.1 -55.6 -1.5 -6.1 -2.2 -21 -1.1 -19.8 0.3 0.3 1 4.4 1.5 9.2 2.3 20.1 14.8 41.8 32.6 56.9 11.2 9.5 57.3 38.8 61.3 39.1 0.9 0.1 3 1.1 4.8 2.4 3.3 2.3 16.2 8.6 20 9.7 4.5 1.3 1.5 -2.7 -10.3 -13.6 -14.5 -13.6 -41.9 -37.1 -53.4 -46.1 -4.7 -3.6 -10.1 -8.3 -12 -10.4 l-3.5 -3.9 4 3.7 c2.2 2 8.8 7.4 14.6 12 12.4 9.6 35.4 29.3 45.2 38.7 3.7 3.5 6.7 6 6.7 5.5 0 -0.6 -1.4 -2.3 -3.1 -4 -1.7 -1.6 -10.3 -10.8 -19.2 -20.4 -8.8 -9.6 -21.5 -23.1 -28.1 -30 -10.8 -11.2 -10.5 -11 2.4 2 8 8 25.1 25.9 38 39.8 12.8 13.8 23.5 25.2 23.7 25.2 0.5 0 0.2 -0.4 -5.5 -9.5 -5 -7.8 -18.9 -26.1 -28.3 -37.3 -3.3 -3.9 -5.8 -7.2 -5.5 -7.2 0.7 0 18.8 21.8 24 28.8 2.1 2.9 4.1 5.1 4.3 4.8 1.6 -1.6 -18.5 -30.5 -32.2 -46.2 l-7.7 -8.9 7.2 7.5 c9.6 9.9 23.2 28.2 31.6 42.5 3.7 6.3 6.9 11.4 7.1 11.2 0.4 -0.5 -4.2 -11.8 -7.9 -19.2 -1.7 -3.3 -5.4 -9.4 -8.2 -13.5 -6.1 -8.7 -6.9 -10 -6.3 -10 1 0 12.7 18 15.9 24.5 5.3 10.6 8.1 18.3 7.2 19.6 -0.5 0.8 -0.3 0.9 0.6 0.4 1 -0.6 1.2 -0.4 0.7 0.9 -0.4 0.9 -0.3 1.5 0.2 1.1 0.5 -0.3 1.2 0.1 1.4 0.7 0.4 0.9 0.6 1 0.6 0.1 0.2 -2.4 -5.3 -16.1 -10.6 -26.5 -8.7 -17.2 -18 -29.4 -47.3 -62.5 -4.5 -5.1 -7.8 -9.3 -7.3 -9.3 1 0 28 29.8 35.3 39 14 17.5 25 37 30.5 54.2 9.3 28.8 12.6 47.9 12.8 73.8 0.1 20.3 -1.2 33 -4.9 45.7 -2.7 9.2 -10.5 26.5 -11.2 24.5 -0.2 -0.7 -1.5 0.3 -3.1 2.5 -1.5 2.1 -6.3 6.5 -10.7 9.8 -10.6 7.9 -10.4 7.8 -5.8 6.1 17.3 -6.1 26.2 -15.7 33.4 -36.1 1.7 -4.9 3.5 -9.4 4 -9.9 3.5 -3.5 0.2 12.6 -4.8 23.5 -1.6 3.5 -5.4 9.9 -8.5 14.2 -3.1 4.2 -5.4 7.7 -5.2 7.7 1.2 0 12.8 -10.1 18.2 -15.8 11.7 -12.6 5.6 0.1 -7.5 15.6 -4.4 5.2 -5 6.3 -3.1 5.7 4.3 -1.3 6.8 -3.4 11.9 -10.2 6.6 -8.7 10.5 -17 13.7 -29.1 2.4 -8.8 2.6 -11.6 2.7 -29.2 0.1 -10.7 -0.2 -21.7 -0.6 -24.5 -0.6 -4.4 -0.6 -4.7 0.4 -2 0.8 1.9 1.2 10.7 1.2 24.5 0 20 -0.2 22.2 -2.6 31.1 -3.5 12.9 -6.2 18.8 -12.5 27.6 -4.5 6.3 -4.9 7.1 -2.4 5.4 7 -5 15.9 -21.2 19.3 -34.9 1.8 -7.2 2.2 -11.6 2.1 -25.2 0 -19.4 -1.5 -30.8 -8.3 -65 -2.7 -13.5 -5.6 -31.2 -6.5 -39.5 -2 -19.5 -4.7 -34.5 -9.5 -53.1 -4.4 -17.2 -7.6 -26.1 -12.6 -35.4 -1.9 -3.6 -2.7 -5.6 -1.8 -4.5 3.5 4.2 9.5 18.8 13.3 32.1 6.1 21.4 9.9 40.9 11.7 61.4 0.8 8.4 0.8 8.4 1.5 3.5 0.8 -6 -0.7 -42.8 -2 -50.5 -2.6 -15.1 -5.8 -25.2 -11.3 -36.4 -5.2 -10.3 -14 -24.5 -17.7 -28.5 -1.6 -1.7 -2.6 -3.1 -2.2 -3.1 2.3 0 13.5 16.8 20.3 30.5 10.7 21.4 13.9 39.2 14.1 78.5 0.1 12.4 0.2 21.8 0.4 21 0.1 -0.8 0.7 -9.8 1.3 -20 0.6 -10.2 1.6 -21.7 2.2 -25.7 3.5 -23.8 -8.8 -64.3 -24.4 -80.5 -5 -5.2 -13.5 -9.8 -18 -9.8 -1.6 0 -2.8 -0.4 -2.8 -1 0 -1.3 -8.5 -13.8 -11.8 -17.3 -1.5 -1.5 -4.8 -4.2 -7.4 -5.8 -2.7 -1.7 -4.8 -3.5 -4.8 -4 0 -1.5 1 -1.1 6.2 2.2 5.8 3.8 11.7 10.3 15.9 17.6 2.4 4.1 3.5 5.3 4.8 4.8 3.4 -1.5 10 -1.7 13.7 -0.5 5.4 1.7 14.4 7.1 14.4 8.7 0 0.8 -1.8 0.2 -4.9 -1.7 -6.2 -3.8 -13.1 -6.2 -16.8 -5.8 -2.6 0.3 -2.5 0.4 2.2 2.8 8.7 4.2 17.2 13.6 23.3 25.6 3.6 7.1 10.2 27.4 11.7 36.2 1.9 11 1.9 26.3 -0.1 44.8 -2.4 22.7 -1.5 46.4 2.5 66.2 8.7 42.6 7.9 73.8 -2.5 94.5 -7.7 15.4 -16.5 23.9 -27.7 26.8 -3.9 1.1 -7.4 1.9 -7.9 1.9 -2 0 -0.3 -2.5 6 -8.6 7.5 -7.3 7.2 -7.3 -2.9 -0.4 -7.5 5.2 -12.6 7.6 -13.6 6.6 -0.4 -0.4 2.5 -3.9 6.5 -7.9 7.4 -7.5 9.8 -11.2 3.8 -5.9 -1.9 1.6 -6.4 4.5 -10.1 6.3 l-6.6 3.2 18 17.4 c19 18.4 28 29.2 34.9 42.1 4.8 9.1 9.5 22.7 11.6 34.2 1.8 9.3 2.2 26.5 0.6 25.5 -0.5 -0.3 -1 -2.1 -1 -3.9 0 -1.9 -1.4 -5.7 -3.5 -9.2 -3.2 -5.5 -2.4 -5.2 1.8 0.7 l1.7 2.4 -0.6 -4 c-0.4 -2.2 -1.1 -4.8 -1.6 -5.9 -0.7 -1.3 -0.7 -1.6 0.1 -1.2 1.4 0.9 0.3 -4.9 -1.7 -8.8 -0.8 -1.6 -3.7 -5.2 -6.6 -8 -3.2 -3.2 -3.9 -4.2 -1.9 -2.8 1.7 1.2 4.3 3.6 5.7 5.3 4.2 4.9 3 2.1 -1.5 -3.8 -5.4 -7 -15 -15.8 -20 -18.3 -7.3 -3.8 -23 -4.3 -34.4 -1.2 -11.2 3.1 -33.7 20.7 -44 34.4 -2.5 3.3 -7.1 10.7 -10.2 16.4 -5.2 9.6 -7.3 12.3 -7.3 9.2z m-41 -70.3 c13.2 -3.5 21.4 -6.8 35.9 -14.3 20.9 -10.7 41.5 -23.7 47 -29.6 l2.4 -2.6 -4.4 -0.1 c-10.6 -0.2 -12.7 -3.2 -4.7 -6.7 2.9 -1.2 6.8 -3.5 8.6 -5 2.8 -2.4 3.1 -2.9 2 -4.5 -1.2 -1.6 -1.6 -1.6 -6.6 0.3 -3.2 1.2 -7.6 2 -11.6 2 -10.9 0 -12.3 -1.6 -4.8 -5.4 2.6 -1.3 5.6 -3.1 6.6 -3.9 1.8 -1.3 1.5 -1.4 -3.9 -1.3 -3.6 0.1 -5.9 -0.3 -6.2 -1.1 -0.2 -0.6 2.4 -3.1 5.9 -5.4 11.2 -7.6 16.8 -12.8 16.8 -15.9 0 -1.4 0.9 -7.6 2 -13.6 l1.9 -10.9 -2.7 -2.1 -2.7 -2.2 -2.2 6.4 c-2.8 8.6 -9.5 20.1 -15.6 26.9 -5.9 6.7 -20.1 16.3 -30.5 20.6 -4.3 1.7 -8.4 3.7 -9.3 4.5 -0.9 0.8 -1.8 1.1 -2.1 0.8 -0.4 -0.3 -2 0.2 -3.8 1.1 -1.8 0.9 -3.9 1.8 -4.8 2 -1 0.2 -5.7 1.7 -10.7 3.3 -4.9 1.6 -12.6 3.7 -17 4.7 -4.4 0.9 -8.5 1.8 -9.2 2 -0.9 0.3 -0.5 2.4 1.2 7.6 4.8 13.9 7.2 32.7 4.5 34.4 -0.5 0.3 -1 -0.4 -1 -1.6 0 -1.9 -0.2 -2 -1.7 -0.8 -1.6 1.2 -1.5 1.1 0.1 -0.8 1 -1.2 1.6 -2.7 1.4 -3.4 -0.2 -0.7 -1.4 0.4 -2.7 2.4 -1.2 2 -2.5 3.7 -2.8 3.7 -0.3 0 0.2 -1.1 1.1 -2.5 4 -6.2 4.4 -7.1 3.7 -8.9 -0.6 -1.5 -1.3 -0.9 -4.3 3.5 -5.8 8.5 -6 16.6 -0.6 18.9 3.4 1.5 14 0.4 24.8 -2.5z m93.5 -52 c6.7 -3.6 15.1 -10.3 21.4 -17.1 8.3 -8.9 14.4 -25.3 17.2 -45.9 1.4 -10.3 1.4 -43.3 0 -48.5 -0.6 -2.5 -1 2 -1.1 16 -0.1 10.7 -0.5 22 -0.9 25 -0.4 3.2 -0.6 -2.5 -0.5 -13.5 l0.2 -19 -0.8 17.5 c-0.5 9.6 -0.7 19.1 -0.4 21.1 0.8 5.5 -2.3 22.4 -5.7 30.8 -3.4 8.5 -4.3 10 -3.5 5.6 0.6 -2.6 0.4 -2.5 -1.3 1 -2.9 5.9 -2.5 3.7 0.8 -5 5.9 -15.2 9.2 -36.2 9 -57.5 -0.1 -13.3 -1.7 -8.6 -2 6 l-0.3 11.5 -0.5 -10 c-0.5 -7.4 -0.8 -9.4 -1.5 -7.6 -0.5 1.4 -1.7 3.4 -2.7 4.5 -1.5 1.5 -1.9 3.7 -2.1 9.5 l-0.1 7.6 -0.7 -6.5 c-0.6 -7.3 -0.7 -7.2 -3.9 9 -2.6 13.6 -9.5 27.8 -17.6 36.5 l-5.6 6 5.6 -7 c7.6 -9.4 14 -22.8 16.5 -34 1.1 -4.9 2 -9.9 2 -10.9 0 -2 0 -2 -1.5 0 -0.8 1 -1.5 2.8 -1.5 3.9 -0.1 1.2 -0.4 1.5 -0.7 0.7 -0.7 -1.7 -3.3 0.4 -3.3 2.7 0 1.4 -0.2 1.4 -1 0.1 -0.8 -1.2 -1 -1.2 -1.1 0.5 0 1.1 -0.3 1.4 -0.6 0.7 -0.2 -0.6 -0.9 -1 -1.4 -0.6 -1.5 0.9 -5.1 1.4 -10.2 1.5 -5.4 0.1 -5 -0.7 -7 13.6 -0.8 5.1 -1 9 -0.5 8.7 0.4 -0.3 0.8 -1.5 0.8 -2.7 0 -1.8 0.2 -1.9 1.1 -0.7 0.8 1.2 0.9 1.1 0.5 -0.5 -0.3 -1.1 0.1 -5.6 0.8 -10 1.1 -6.5 1.4 -7.3 1.6 -4 0.2 3.9 0.3 3.9 1 1 1.3 -4.9 1.1 -0.1 -0.2 5.4 -0.7 3.3 -1.4 4.7 -2 3.9 -0.5 -0.9 -0.8 -1 -0.8 -0.1 0 0.6 0.4 1.4 0.9 1.8 1.2 0.7 2.9 -2.3 5.3 -9.5 2 -6.2 1.5 -2.3 -0.8 5.6 -1.8 6.4 -10.3 16.8 -19 23.3 -3.3 2.5 -7.4 5.6 -9 6.8 l-2.9 2.2 4.5 -0.6 c2.5 -0.3 5.6 -1 6.8 -1.5 1.3 -0.4 2.8 -0.5 3.3 -0.2 1.5 0.9 -1.8 4.1 -8.5 8.2 l-6 3.7 4.3 0.3 c9.1 0.7 25.3 -7.3 32.3 -15.9 4.5 -5.6 7.3 -11.1 11.3 -22.4 1.8 -4.9 3.8 -9.1 4.4 -9.3 1.7 -0.6 1.3 1.7 -1.9 11.2 -7.9 23.5 -18.6 38 -34.2 46.7 l-5.3 2.9 7.1 0 c5.7 0 8 -0.5 11.9 -2.5z m-191.1 -12.1 c-2 -3 -4.2 -7 -4.9 -8.7 -0.9 -2 -1.4 -2.5 -1.5 -1.4 0 1 0.7 3.4 1.5 5.4 0.8 2 1.3 3.8 1.1 4 -0.8 0.8 -3.6 -8.3 -4.1 -13.2 -0.3 -2.7 -0.9 -6.6 -1.3 -8.5 l-0.9 -3.5 -0.8 3.8 c-0.4 2.1 -0.4 5.5 0 7.5 0.4 2 0.8 4.7 0.9 5.9 0 1.2 0.5 2.1 1 2 0.5 -0.1 1.1 0.4 1.4 1.2 0.3 0.9 0 1.1 -0.9 0.6 -0.8 -0.5 -1.1 -0.5 -0.7 -0.1 0.3 0.4 1 0.7 1.3 0.6 0.4 -0.1 1.3 0.9 1.9 2.2 0.6 1.3 1.6 2.3 2.1 2.3 0.6 0 2.2 1.3 3.7 2.8 4.1 4.1 4.2 3.3 0.2 -2.9z m191.4 -2.7 c2.3 -2.3 4.2 -4.6 4.2 -5 0 -0.4 -2.2 0.9 -5 2.9 -2.7 2 -5 4.2 -5 5 0 2.3 1.4 1.6 5.8 -2.9z m-179.4 -0.7 c-0.8 -2.3 -1.8 -7.1 -2.4 -10.8 l-0.9 -6.7 0.3 8 c0.3 8 1.7 13.5 3.5 13.5 0.5 0 0.2 -1.8 -0.5 -4z m-29.1 -13.7 c-0.3 -1.3 -0.9 -2 -1.4 -1.7 -1.1 0.6 -1.2 10.8 -0.2 14.4 0.6 1.9 0.9 1 1.4 -4 0.4 -3.6 0.5 -7.5 0.2 -8.7z m25 4.5 c-0.6 -11.5 -1.8 -14.5 -2.8 -7.3 -1 6.6 0.8 17.5 2.9 17.5 0.2 0 0.2 -4.6 -0.1 -10.2z m-3.8 -4.6 c0 -7.2 -0.3 -9.6 -1.2 -9.4 -0.7 0.1 -1.3 -0.7 -1.3 -1.7 0 -3.3 -1.7 -3.3 -2.4 0 -0.8 4.2 -0.7 9.8 0.2 12.9 0.5 1.9 0.8 1 1.3 -4 l0.6 -6.5 0.1 6.7 c0.2 5.6 1.4 11.8 2.4 11.8 0.2 0 0.3 -4.4 0.3 -9.8z m-15.6 4.8 c-0.9 -2.5 -0.9 -5.6 0.1 -13 1.6 -12.1 1 -14.2 -1.9 -6.5 -2.6 6.7 -2.5 13.3 0.3 20 1.9 4.6 3.1 4.2 1.5 -0.5z m-8 -10.8 c0.1 -2 -0.3 -3.1 -0.9 -2.7 -0.6 0.3 -0.9 4.3 -0.9 8.8 0.2 8.1 0.2 8.2 0.9 2.7 0.5 -3 0.8 -7 0.9 -8.8z m-1.4 -7.4 c1.1 -6.9 -1 -6.1 -2.4 0.9 -1.3 6.4 -1.4 12.7 -0.3 16.3 0.5 1.8 0.9 0.5 1.3 -5 0.3 -4.1 0.9 -9.6 1.4 -12.2z m-2 -4.6 c0.8 -3.3 1.5 -7.9 1.4 -10.3 l0 -4.4 -2 5.5 c-1.1 3 -2.4 7.8 -2.8 10.5 -0.7 3.7 -0.9 4.2 -1 1.9 0 -1.7 1.3 -7.7 2.9 -13.2 1.7 -5.6 3 -12.1 3 -14.4 l-0.1 -4.3 -1.5 3.5 c-0.8 1.9 -2.3 6.6 -3.3 10.5 -1.4 5.2 -2 6.4 -2.3 4.5 -0.3 -1.4 -0.3 1.3 0 6 0.2 4.7 0.8 9.8 1.3 11.4 0.5 1.6 1 4.5 1 6.5 0.1 2.8 0.3 2.4 1 -2.1 0.4 -3.1 1.5 -8.4 2.4 -11.6z m246.1 1.8 c0.7 -3.6 1.3 -7.4 1.3 -8.5 -0.1 -1.1 -0.7 0.7 -1.4 4.1 -0.8 3.4 -2.3 8.8 -3.4 12 -1.2 3.2 -2.1 6.3 -2 6.9 0.1 2.2 4.2 -8.4 5.5 -14.5z m-225.4 -0.3 c-0.9 -1.8 -1.1 -0.8 -1 4.8 l0 7 1 -4.8 c0.7 -3.3 0.7 -5.5 0 -7z m-8.2 -11.7 l0 -2.5 -2 2.5 c-1.1 1.4 -2.6 4.3 -3.4 6.5 -0.8 2.2 -1.5 3.3 -1.5 2.4 -0.1 -1 1.3 -4.3 2.9 -7.5 2.4 -4.4 2.9 -6.5 2.4 -8.8 -0.6 -2.8 -0.7 -2.9 -2.1 -1.1 -3 4.3 -4.3 11.6 -3.7 21.1 l0.7 9.2 3.3 -9.6 c1.9 -5.3 3.4 -10.8 3.4 -12.2z m4.5 6.1 c-1.9 -1.8 -1.9 -2.3 0.2 8.4 l0.8 4 0.3 -5.4 c0.2 -4 -0.1 -5.8 -1.3 -7z m-8.8 -21.6 c-0.5 -1.6 -1.3 -5.5 -1.6 -8.5 l-0.7 -5.5 -0.7 5.5 c-0.3 3 -0.6 7.1 -0.5 9 0 1.9 -0.3 6.4 -0.6 10 l-0.7 6.5 2.9 -7 c2.3 -5.7 2.7 -7.6 1.9 -10z m-4.2 -16 c0.8 -3.2 1.3 -6.1 1.1 -6.2 -0.8 -0.9 -10.6 28.2 -10.6 31.5 0.1 3 0.8 1.7 4.1 -7.8 2.2 -6.3 4.6 -14.2 5.4 -17.5z m-4.6 5.1 c2.8 -7.3 6.2 -17.5 7.7 -22.7 3.2 -11.8 3.5 -12.4 2.8 -6.9 -0.6 5.6 0.6 3.9 3.5 -4.7 2.2 -6.7 2.7 -12.8 1.1 -13.8 -0.5 -0.3 -1 0.2 -1.1 1.2 0 1.4 -0.2 1.4 -0.6 0.3 -0.2 -0.8 -0.9 -2.5 -1.5 -3.7 -0.7 -1.5 -0.7 -3.3 0 -6 l1.1 -3.8 -0.5 4.3 c-0.3 2.4 -0.2 4.2 0.4 4.2 1.9 0 2 -4.3 0.1 -9.8 -1 -3.1 -1.9 -7 -1.9 -8.7 -0.2 -4.3 -11.1 42.1 -11.2 47.7 -0.1 2.7 -0.6 4.4 -1.1 4.1 -0.6 -0.3 -0.7 -0.1 -0.3 0.5 0.4 0.6 -0.1 3.6 -0.9 6.7 -0.9 3 -1.5 6 -1.3 6.6 0.7 2 7.9 -17.1 10.8 -28.5 1.6 -6.1 2.9 -10.2 2.9 -9 0.2 5.7 -12.8 43.2 -14.1 40.8 -0.3 -0.5 -0.3 -0.4 -0.2 0.3 0.2 0.7 -0.3 4.3 -1.1 8 -0.8 3.7 -1.4 8.6 -1.4 10.8 l0.1 4 0.9 -4.3 c0.4 -2.4 3.1 -10.3 5.8 -17.6z m40 -45.3 c-1.3 -1.6 -2.5 -3 -2.6 -3.2 -0.4 -0.8 -10.3 1.2 -10.3 2 0 1.6 6.2 3.8 10.9 3.9 l4.4 0 -2.4 -2.7z m177.6 -15.3 c-1.1 -0.4 -4.7 -1.5 -8 -2.5 -7.2 -2 -12.7 -5.1 -20.2 -11.2 -4.6 -3.8 -5.3 -4.1 -3.6 -1.7 4.4 6.1 12.6 12.5 19 14.9 4.1 1.5 16.4 2 12.8 0.5z m13.9 -1.7 c0.3 -0.4 -3 -1.9 -7.4 -3.4 -9.1 -3.1 -29.2 -12.8 -33 -16 -1.9 -1.5 -1.3 -1.4 2.5 0.7 2.8 1.5 5.9 3.2 7 3.9 2.8 1.7 20.3 9.5 21.3 9.5 0.4 0 -3.3 -2.2 -8.3 -4.8 -4.9 -2.7 -15.5 -8.8 -23.5 -13.7 -8 -4.8 -14.9 -9 -15.4 -9.3 -1.2 -0.7 7.8 11 12.2 16 4.2 4.7 13 10.5 19.5 13 2.8 1.1 9.2 2.5 14.1 3.3 5 0.7 9.4 1.3 9.7 1.4 0.3 0.1 0.9 -0.2 1.3 -0.6z m4.1 -19.4 c-0.9 -1.7 -1.9 -2.9 -2.2 -2.6 -0.5 0.5 2.5 5.7 3.3 5.7 0.3 0 -0.3 -1.4 -1.1 -3.1z"/>
  <path d="M691.6 366.1 c0.5 -0.9 2.5 -3.4 4.4 -5.6 6.7 -8 14 -27.6 16.4 -44.5 0.8 -5.2 1.4 -8.1 1.5 -6.4 0.2 5.5 -2.8 19.9 -6 29 -4.1 11.6 -8 19 -13.2 24.6 -2.3 2.4 -3.7 3.7 -3.1 2.9z"/>
  <path d="M672 353.7 c0 -0.3 2.5 -3.9 5.5 -7.9 6.5 -8.6 11.6 -18 14.1 -26 1 -3.2 1.9 -5.6 2.2 -5.4 1.3 1.4 -6.6 19.5 -11.8 27.1 -3.2 4.7 -10 12.9 -10 12.2z"/>
  <path d="M670.6 347.8 c8.4 -8.7 14.9 -18.9 18.1 -28.3 1.3 -3.8 1.3 -3.8 0.8 -0.6 -0.3 1.9 -2 6.2 -3.8 9.7 -3.6 7.2 -14.9 21.9 -17.5 22.9 -0.9 0.3 0.2 -1.3 2.4 -3.7z"/>
  <path d="M681.8 347.8 c4.2 -6.1 7.1 -12.1 10.4 -21.3 1.5 -4.4 2.5 -6.4 2.2 -4.5 -0.9 5.4 -6.1 17.3 -10.5 24 -2.1 3.3 -4.1 6 -4.4 6 -0.3 0 0.7 -1.9 2.3 -4.2z"/>
  <path d="M694 329.6 c0 -0.3 0.5 -1.7 1.1 -3.3 0.6 -1.5 1.9 -5.9 2.9 -9.8 1.1 -3.8 1.9 -6 1.9 -4.8 0.1 2.3 -4.7 18.3 -5.4 18.3 -0.3 0 -0.5 -0.2 -0.5 -0.4z"/>
  <path d="M711.3 300 c0 -4.1 0.2 -5.8 0.4 -3.7 0.2 2 0.2 5.4 0 7.5 -0.2 2 -0.4 0.3 -0.4 -3.8z"/>
  <path d="M468.3 272.5 c0.3 -1.1 1.7 -6 3.1 -11 1.5 -4.9 3.8 -13.9 5.1 -20 1.4 -6 2.2 -8.7 1.9 -6 -0.7 6.4 -8 35 -9.4 37.3 -1 1.5 -1.1 1.5 -0.7 -0.3z"/>
  <path d="M479.2 258 c0 -1.4 0.4 -3.8 0.8 -5.5 0.7 -2.7 0.8 -2.7 0.8 -0.5 0 1.4 -0.4 3.9 -0.8 5.5 -0.7 2.7 -0.8 2.7 -0.8 0.5z"/>
  <path d="M747.8 492.6 c-1.5 -3 -4.1 -7 -5.8 -9 -1.8 -2 -2.8 -3.6 -2.4 -3.6 2 0 12.4 16.4 11.2 17.6 -0.2 0.2 -1.6 -2.1 -3 -5z"/>
  <path d="M593 496.4 c0 -1.7 7.3 -12.2 12.1 -17.4 4.8 -5.2 3.3 -2.7 -2.8 4.5 -2.3 2.8 -5.3 7.1 -6.7 9.5 -1.4 2.5 -2.6 4 -2.6 3.4z"/>
  <path d="M617 496.7 c0 -2 6.9 -19.6 10.5 -26.9 4.9 -9.7 13.2 -22.6 16.1 -24.8 1.5 -1.1 1.4 -0.9 -0.2 1 -6.9 7.9 -17.4 27.4 -22.3 41.5 -2.9 8.1 -4.1 10.8 -4.1 9.2z"/>
  <path d="M626 496.4 c0 -2.1 5.8 -15.2 9.9 -22.3 2.3 -3.9 6.8 -10.3 10 -14.3 5.7 -7.2 17.3 -18.8 18.7 -18.8 0.4 0 -2.3 2.7 -6 6.1 -11.6 10.7 -23 27.6 -30.2 44.8 -1.3 3.1 -2.3 5.1 -2.4 4.5z"/>
  <path d="M743.1 493.6 l-2.4 -3.1 2.8 2.7 c1.6 1.5 2.7 2.9 2.4 3.1 -0.2 0.3 -1.5 -1 -2.8 -2.7z"/>
  <path d="M648.5 491 c2.1 -2.2 4.1 -4 4.4 -4 0.3 0 -1.3 1.8 -3.4 4 -2.1 2.2 -4.1 4 -4.4 4 -0.3 0 1.3 -1.8 3.4 -4z"/>
  <path d="M607 490.5 c4.1 -7 10.9 -17.5 11.4 -17.5 0.6 0 -11.3 19.1 -12.7 20.5 -0.6 0.6 0 -0.8 1.3 -3z"/>
  <path d="M659 487 c2.3 -2.7 4.7 -5.3 5.3 -5.7 0.7 -0.4 -1 1.9 -3.7 5 -2.7 3.1 -5.1 5.7 -5.3 5.7 -0.3 0 1.4 -2.2 3.7 -5z"/>
  <path d="M664 474.5 c6.3 -6.3 11.7 -11.5 12 -11.5 0.2 0 -4.7 5.2 -11 11.5 -6.3 6.3 -11.7 11.5 -12 11.5 -0.2 0 4.7 -5.2 11 -11.5z"/>
  <path d="M443.3 458.3 c0.9 -0.2 2.5 -0.2 3.5 0 0.9 0.3 0.1 0.5 -1.8 0.5 -1.9 0 -2.7 -0.2 -1.7 -0.5z"/>
  <path d="M423.8 457.3 c2.9 -0.2 7.4 -0.2 10 0 2.6 0.2 0.2 0.3 -5.3 0.3 -5.5 0 -7.6 -0.1 -4.7 -0.3z"/>
  <path d="M375.8 454.3 c1.2 -0.2 3.2 -0.2 4.5 0 1.2 0.2 0.2 0.4 -2.3 0.4 -2.5 0 -3.5 -0.2 -2.2 -0.4z"/>
  <path d="M387.3 453.3 c2 -0.2 5.4 -0.2 7.5 0 2 0.2 0.3 0.4 -3.8 0.4 -4.1 0 -5.8 -0.2 -3.7 -0.4z"/>
  <path d="M404.3 452.3 c3.1 -0.2 8.3 -0.2 11.5 0 3.1 0.2 0.5 0.3 -5.8 0.3 -6.3 0 -8.9 -0.1 -5.7 -0.3z"/>
  <path d="M554.3 448.9 c-6 -2.9 -8.8 -8.9 -8 -17 0.4 -3.2 1.6 -7.9 2.9 -10.5 2.2 -4.7 12.2 -16.4 14 -16.4 0.6 0 -1.3 2.1 -4.1 4.6 -9.6 8.6 -14.7 24.3 -10.4 32.3 2.4 4.5 5.8 6.9 11.3 8 3.6 0.7 3.9 0.9 1.5 1 -1.6 0 -4.9 -0.8 -7.2 -2z"/>
  <path d="M354.8 449.3 c1.2 -0.2 3.2 -0.2 4.5 0 1.2 0.2 0.2 0.4 -2.3 0.4 -2.5 0 -3.5 -0.2 -2.2 -0.4z"/>
  <path d="M592.8 447.9 c9.6 -2.1 21.1 -7.5 45.5 -21.3 12.8 -7.2 19.8 -10.4 29.4 -13.5 6.9 -2.3 12.8 -4 13 -3.7 0.2 0.2 -4.2 1.8 -9.8 3.6 -10.5 3.3 -27.3 11.1 -41.2 19.4 -18.1 10.7 -35.6 17.8 -43.1 17.5 -1.2 0 1.7 -0.9 6.2 -2z"/>
  <path d="M370 448 c8 -0.8 28.6 -1.2 27.9 -0.6 -0.2 0.2 -8.3 0.6 -17.9 0.8 -10.2 0.3 -14.4 0.2 -10 -0.2z"/>
  <path d="M326.3 444.3 c1.5 -0.2 3.9 -0.2 5.5 0 1.5 0.2 0.2 0.4 -2.8 0.4 -3 0 -4.3 -0.2 -2.7 -0.4z"/>
  <path d="M343.8 443.3 c2.9 -0.2 7.4 -0.2 10 0 2.6 0.2 0.2 0.3 -5.3 0.3 -5.5 0 -7.6 -0.1 -4.7 -0.3z"/>
  <path d="M302.3 441.3 c1.5 -0.2 3.7 -0.2 5 0 1.2 0.2 0 0.4 -2.8 0.4 -2.7 0 -3.8 -0.2 -2.2 -0.4z"/>
  <path d="M667 431.7 c0 -1 9.9 -6.8 15.6 -9.1 3.3 -1.3 7.7 -2.7 9.9 -3 3 -0.5 2.5 -0.2 -2 1.2 -6.7 2 -15.4 6 -20.2 9.2 -1.8 1.2 -3.3 2 -3.3 1.7z"/>
  <path d="M726 429 c-2.5 -1 -6.1 -2.3 -8 -2.9 l-3.5 -1.1 4 0.6 c2.2 0.3 6.3 1.6 9 2.9 5.9 2.8 4.9 3.1 -1.5 0.5z"/>
  <path d="M245 423.9 c-28.6 -3.7 -54.8 -14.4 -84.9 -34.7 -7.9 -5.3 -15 -10.1 -15.8 -10.7 -0.9 -0.5 -4.3 -3.6 -7.7 -6.7 -4.4 -4.1 -7 -5.8 -9.1 -5.9 -2.5 -0.1 -2.6 -0.3 -0.7 -0.6 2 -0.4 0.4 -2.4 -13.1 -16.2 -17.6 -18.1 -35.3 -39.7 -48.2 -58.8 -4.9 -7.3 -9.4 -13.3 -10.1 -13.3 -2.8 0 -3 16.4 -0.3 20.8 1.9 3 0.5 4.9 -4.1 5.7 -5.3 0.9 -14.2 -0.2 -16.6 -2 -1.6 -1.1 -1.7 -1.7 -0.7 -3.3 0.6 -1.1 1.3 -5.7 1.4 -10.3 l0.2 -8.4 -4.7 -0.7 c-2.7 -0.4 -5 -0.8 -5.2 -1.1 -0.2 -0.2 -0.5 -2.6 -0.6 -5.3 l-0.3 -4.9 5.5 -0.1 5.5 -0.1 -5 0.6 c-3.9 0.5 -5 1 -4.9 2.4 0.2 5.5 0.5 6.7 1.3 6.7 0.6 0 1.2 -1.5 1.4 -3.2 l0.4 -3.3 0.1 3.2 c0.2 2.9 0.5 3.2 4 3.5 l3.7 0.3 0.3 9.3 0.3 9.2 7.4 0 7.4 0 0.3 -16.5 0.3 -16.5 -3.1 0 c-1.7 0 -5.2 -0.3 -7.7 -0.6 -4.4 -0.6 -4.6 -0.6 -5 2.2 l-0.4 2.9 -0.2 -3.1 c0 -1.8 -0.8 -3.4 -1.6 -3.8 -0.8 -0.3 -1.5 -1.2 -1.5 -2 0 -0.7 0.7 -1.6 1.5 -2 0.8 -0.3 1.5 -1.6 1.5 -3 0 -1.3 1.1 -3.7 2.4 -5.3 1.3 -1.6 2.6 -4 2.8 -5.3 0.2 -1.7 1 -2.6 2.6 -2.8 1.8 -0.3 2.3 0.2 2.8 2.7 0.4 1.7 1.1 3.1 1.5 3.1 1.4 0 4.9 6.2 4.9 8.7 0 1.2 0.6 2.3 1.2 2.5 1 0.4 1 1.1 0.2 2.9 -1.4 3.3 -0.7 6.6 1.6 7.2 1 0.3 4.9 5.1 8.6 10.8 22.2 34.3 67.1 78.7 104.6 103.3 23 15.1 45.5 24.7 68.3 29.2 12.1 2.4 36.9 2.4 52 0 13.2 -2.1 41.7 -11.2 52 -16.5 7.9 -4.1 16.1 -10.1 19 -13.9 2.5 -3.4 1.3 -10.3 -2.6 -14.7 -3.7 -4.2 -13.9 -11 -24.6 -16.3 -8.8 -4.5 -12.6 -8.2 -14.4 -14.2 -2.9 -9.5 6.2 -19.9 22.5 -25.7 10.4 -3.6 39 -7.3 42.4 -5.4 1.4 0.8 1.3 1 -0.8 1.5 -1.4 0.2 -7 0.7 -12.5 1.1 -25.8 1.4 -46.5 10.5 -49.5 21.6 -0.9 3.3 -0.8 4.7 0.8 8.2 2.4 5.3 3.6 6.3 14.6 12.1 22.6 11.8 31.6 23.5 25.8 33.1 -2.3 3.7 -15 12.6 -23.7 16.6 -6.8 3.1 -29.8 10.7 -40 13.3 -9.7 2.5 -28.9 3.9 -43.5 3.3 -43 -1.8 -90.4 -26.7 -136.9 -72.1 -26 -25.5 -46.9 -49.9 -56.8 -66.7 -2.9 -4.8 -3.2 -5.1 -3.3 -2.7 0 5 23.9 37.8 43.6 59.9 32.5 36.4 57.8 56.4 91.9 73 29.2 14.2 60.7 19.4 97.5 16 13.4 -1.3 31 -6.8 35.8 -11.2 2.8 -2.6 3.1 -2.7 1.2 -0.6 l-2.5 2.9 5.5 -2.2 c9.3 -3.6 16.5 -7.2 17.3 -8.7 0.5 -0.7 1.2 -1.1 1.7 -0.8 1.5 0.9 9.1 -4.5 15.2 -10.7 17.1 -17.7 12.3 -27.9 -21.3 -45.8 -12.6 -6.6 -15.9 -9.8 -15.9 -14.9 0 -5.4 10.2 -11.2 27.5 -15.6 7.6 -1.9 27.5 -3.6 29.5 -2.5 2.3 1.3 0.2 1.7 -11.5 2.4 -20.4 1.2 -43.5 9.8 -43.5 16.2 0 2.9 5.9 7.7 16.1 13.1 25.7 13.5 35.1 25.2 29.3 36.6 -8.1 15.8 -24.6 26.8 -56 37.3 -20.3 6.8 -24 7.4 -47.4 7.3 -11.3 -0.1 -23.4 -0.5 -27 -1z m-192.5 -122.9 c4.8 -1.8 1.5 -3 -8.1 -3 -7.4 0 -9.4 0.3 -9.4 1.4 0 0.8 0.6 1.7 1.3 1.9 2.2 1 13.5 0.7 16.2 -0.3z m3.5 -29.5 c0 -1.9 -0.4 -3.5 -1 -3.5 -0.5 0 -1 1.6 -1 3.5 0 1.9 0.5 3.5 1 3.5 0.6 0 1 -1.6 1 -3.5z m-3.5 -10.8 c3.3 -2.5 0.8 -3.7 -7.8 -3.7 -11.5 0 -14.8 2.5 -5.4 4.1 7 1.1 11.2 1 13.2 -0.4z m-1.5 -6.4 c0 -1 -0.9 -3.3 -2 -5 -3.6 -6 -9.6 -3.8 -11.6 4.1 l-0.6 2.6 7.1 0 c6.1 0 7.1 -0.2 7.1 -1.7z m-6 -11.8 c-1.2 -1.5 -3 -1.2 -3 0.6 0 0.5 1 0.9 2.1 0.9 1.8 0 1.9 -0.2 0.9 -1.5z"/>
  <path d="M711 419 l-4.5 -0.7 4 -0.1 c2.2 0 5.8 0.3 8 0.7 l4 0.9 -3.5 -0.1 c-1.9 0 -5.5 -0.3 -8 -0.7z"/>
  <path d="M698.3 409.3 c0.9 -0.2 2.5 -0.2 3.5 0 0.9 0.3 0.1 0.5 -1.8 0.5 -1.9 0 -2.7 -0.2 -1.7 -0.5z"/>
  <path d="M107.3 402.3 c0.9 -0.2 2.5 -0.2 3.5 0 0.9 0.3 0.1 0.5 -1.8 0.5 -1.9 0 -2.7 -0.2 -1.7 -0.5z"/>
  <path d="M470.8 396.3 c1.8 -0.2 4.5 -0.2 6 0 1.5 0.2 0 0.4 -3.3 0.4 -3.3 0 -4.5 -0.2 -2.7 -0.4z"/>
  <path d="M417.3 388.3 c0.9 -0.2 2.5 -0.2 3.5 0 0.9 0.3 0.1 0.5 -1.8 0.5 -1.9 0 -2.7 -0.2 -1.7 -0.5z"/>
  <path d="M428.8 387.3 c1.7 -0.2 4.7 -0.2 6.5 0 1.7 0.2 0.3 0.4 -3.3 0.4 -3.6 0 -5 -0.2 -3.2 -0.4z"/>
  <path d="M307.8 382.3 c1.2 -0.2 3 -0.2 4 0 0.9 0.3 -0.1 0.5 -2.3 0.4 -2.2 0 -3 -0.2 -1.7 -0.4z"/>
  <path d="M268.3 379.3 c1.5 -0.2 3.7 -0.2 5 0 1.2 0.2 0 0.4 -2.8 0.4 -2.7 0 -3.8 -0.2 -2.2 -0.4z"/>
  <path d="M281.8 378.3 c1.7 -0.2 4.7 -0.2 6.5 0 1.7 0.2 0.3 0.4 -3.3 0.4 -3.6 0 -5 -0.2 -3.2 -0.4z"/>
  <path d="M297.8 377.3 c1.8 -0.2 4.5 -0.2 6 0 1.5 0.2 0 0.4 -3.3 0.4 -3.3 0 -4.5 -0.2 -2.7 -0.4z"/>
  <path d="M472.1 375 c-2.3 -1.7 -6.1 -5.8 -8.4 -9.1 -2.3 -3.3 -6.1 -8.2 -8.4 -10.8 -14.7 -16.5 -15.9 -42.2 -4.3 -92.1 1.6 -6.9 3.8 -17.9 5 -24.5 1.8 -10.3 3.2 -16.4 5.6 -24.7 0.4 -1.4 -0.1 -1.8 -2.3 -1.8 -1.6 0 -3.8 -0.6 -4.8 -1.4 -1.7 -1.2 -1.8 -2.4 -1.2 -14.2 1.1 -22.2 3.3 -30.6 8.8 -34.7 1.5 -1 3.5 -1.7 4.5 -1.5 1.6 0.4 1.5 0.6 -0.7 1.6 -2.7 1.1 -6.9 5.7 -6.9 7.4 0 0.5 1.9 -0.5 4.3 -2.2 l4.2 -3.2 -4.7 4.5 c-2.6 2.4 -5 5.7 -5.4 7.3 l-0.7 2.9 2.4 -2.1 c4.1 -3.6 5.6 -3.8 1.7 -0.2 -3.4 3.1 -5.9 7.8 -4.2 7.8 0.4 0 1.9 -1 3.3 -2.2 1.6 -1.4 1.3 -0.8 -0.6 1.3 -1.8 1.9 -3.3 4.3 -3.3 5.4 0 1.7 0.3 1.6 2.8 -0.6 2 -1.8 1.9 -1.5 -0.5 1.2 -4.1 4.4 -4.5 7.3 -0.5 3.8 l2.7 -2.4 -2.7 3.1 c-2.4 2.6 -2.8 3.9 -2.8 9.2 l0 6.1 3.7 1 c2 0.6 3.7 0.9 3.8 0.8 1.8 -3.9 2.5 -6.5 2.5 -9.3 0 -10.5 6.5 -31.6 14.7 -47.7 9.7 -19.1 23.8 -35.7 41.9 -49.4 39.5 -30 70.2 -42.1 97.7 -38.4 9.7 1.3 25.3 6 30.7 9.2 5.3 3.3 2.6 3.3 -5.2 0.1 -26.3 -10.9 -46.9 -10.4 -74.8 1.8 -8.5 3.6 -28.5 14.8 -27.8 15.5 0.1 0.2 3.6 -0.8 7.7 -2.1 4 -1.3 8.1 -2.4 9 -2.4 0.9 0.1 -2.9 1.6 -8.4 3.4 -12.9 4.2 -16.2 6 -27.1 14.4 -25.3 19.6 -42.6 44.2 -51.2 72.7 -5.2 17 -4.6 17.6 2.5 2.5 18.6 -39.1 35.5 -57.6 62.7 -68.5 4.7 -1.9 9.1 -3.5 9.8 -3.5 0.7 0 -3 1.8 -8.2 3.9 -16.2 6.6 -26.7 13.9 -37.3 26.1 -5.2 5.9 -13.6 18.2 -18.1 26.5 l-2.7 5 2.8 -3.5 c5.9 -7.4 20.1 -21.4 27.3 -26.8 10.5 -7.9 23.6 -14.4 38.7 -19.1 7 -2.2 16.4 -5.1 20.8 -6.5 l8 -2.5 -12.5 0.3 c-6.9 0.2 -13.4 0.6 -14.5 1 -2 0.7 -2 0.7 0 -0.5 2.2 -1.4 21.8 -2.5 25.9 -1.5 1.4 0.3 2.6 1.1 2.6 1.6 0 0.5 -4.6 2.3 -10.2 4.1 -40.9 12.5 -51.4 17.9 -70.4 36.1 -20.5 19.7 -34.4 48.6 -40.9 85.3 -1.5 8.3 -4 20.4 -5.6 27 -4.1 17.5 -7.9 40.6 -7.9 48.4 0 10.3 2.7 23.8 6.1 30.6 3.1 6.3 3.1 5.6 -0.2 -6.5 -2 -7.4 -3.8 -22 -2.6 -20.9 0.4 0.3 1.6 5.4 2.7 11.4 4 20.5 9.7 32.3 21.1 43.4 6.8 6.6 6.8 8 0 3.1z"/>
  <path d="M731.5 352 c5.3 -22.8 5.9 -28.4 5.9 -51 0 -23.5 -1 -32.5 -5.5 -48.8 -1.1 -4.1 -1.8 -7.6 -1.6 -7.8 0.7 -0.7 4.3 13.4 6.4 24.6 1.3 7.2 1.7 14.9 1.8 31.5 0 19 -0.3 23.7 -2.4 34.4 -1.3 6.9 -3 14.1 -3.7 16 -0.8 2 -1.2 2.5 -0.9 1.1z"/>
  <path d="M83.3 350.3 c2.6 -0.2 6.7 -0.2 9 0 2.3 0.2 0.2 0.3 -4.8 0.3 -4.9 0 -6.8 -0.1 -4.2 -0.3z"/>
  <path d="M729.1 348 c-0.1 -0.8 0.7 -4.9 1.6 -9 1.3 -5.9 1.7 -12.4 1.7 -30.5 0 -20.8 -0.3 -24.5 -2.8 -38.5 -3.2 -17.5 -5.9 -28.5 -11.8 -48 -5.3 -17.5 -11.4 -31.8 -25.3 -59.5 -6.3 -12.4 -11.2 -22.5 -11 -22.5 0.8 0 15.8 29.3 22.6 44.1 9.1 19.8 11 24.7 17.4 46.9 10.7 37.1 14.6 70.8 11.5 98.1 -1 8.5 -3.8 21.9 -3.9 18.9z"/>
  <path d="M60.3 343.3 c5.4 -0.2 13.9 -0.2 19 0 5.1 0.1 0.7 0.3 -9.8 0.3 -10.4 0 -14.6 -0.2 -9.2 -0.3z"/>
  <path d="M520.5 338.7 c-5.2 -2.5 -9.8 -7 -11 -10.8 -1.2 -3.5 -0.1 -3 3.5 1.9 4.6 6 8.7 8.3 16.3 8.9 5 0.4 7.8 0 14 -2.1 4.3 -1.5 9.5 -3.7 11.5 -5.1 4.4 -3 5.8 -2.2 1.7 1.1 -4.5 3.6 -16.1 7.5 -24 8 -6 0.4 -7.8 0.2 -12 -1.9z"/>
  <path d="M47.8 336.3 c3.4 -0.2 9 -0.2 12.5 0 3.4 0.2 0.6 0.3 -6.3 0.3 -6.9 0 -9.7 -0.1 -6.2 -0.3z"/>
  <path d="M81.3 336.3 c1.5 -0.2 3.9 -0.2 5.5 0 1.5 0.2 0.2 0.4 -2.8 0.4 -3 0 -4.3 -0.2 -2.7 -0.4z"/>
  <path d="M738.6 334.5 c0.3 -1.6 1.4 -7.5 2.4 -13 1 -5.5 1.8 -9 1.9 -7.9 0.1 3.1 -2.7 18.7 -3.9 21.5 -1 2.2 -1 2.1 -0.4 -0.6z"/>
  <path d="M147.8 335.3 c3.9 -0.2 10.5 -0.2 14.5 0 3.9 0.1 0.7 0.3 -7.3 0.3 -8 0 -11.2 -0.2 -7.2 -0.3z"/>
  <path d="M416.2 326.9 c-11.5 -1.1 -13.9 -1.8 -17.2 -4.6 -4.5 -3.7 -9 -13.8 -9 -20 0 -1.9 -0.6 -2.3 -3.2 -2.4 -1.8 -0.1 -8.5 -0.4 -14.8 -0.8 l-11.5 -0.6 -0.3 -9.7 c-0.2 -9 -0.1 -9.8 1.8 -10.8 1.2 -0.6 3.4 -0.9 4.9 -0.5 l2.8 0.6 0.7 -8.6 c1.2 -16.5 7.7 -74.1 10.2 -90.4 3.4 -23.2 6.2 -27.9 17 -29.6 l4.4 -0.6 0 -11.3 c0 -6.2 0.3 -13.4 0.6 -16 l0.7 -4.6 -5.8 0 -5.8 0 0.7 -4.6 c0.3 -2.6 0.6 -6.2 0.6 -8 0 -3.9 -0.9 -3.7 25.8 -5.5 10.8 -0.8 17.5 -1.6 17.7 -2.3 0.2 -0.6 0.6 -2.3 0.9 -3.9 0.4 -1.5 1.6 -3.7 2.7 -4.8 2.2 -2.2 25.9 -33.4 25.9 -34.1 0 -0.6 -16.6 3 -34 7.3 -17.7 4.4 -17.5 4.4 -19.9 2 -1.2 -1.2 -2.1 -3.3 -2.1 -4.7 0 -2 0.9 -2.9 4.4 -4.4 5.1 -2.3 28.2 -5.8 42.8 -6.5 12.1 -0.5 8.3 0.7 -7.8 2.5 -10.1 1.2 -10.1 1.2 -9.8 3.8 0.2 1.7 0.1 2 -0.2 0.7 -1.1 -3.6 -2.4 -4 -2.4 -0.7 0 1.9 0.5 3.2 1.3 3.2 4.4 0 28.4 -5.5 29.4 -6.8 0.7 -0.8 1 -2.7 0.7 -4.2 -0.7 -3.4 -0.2 -3.6 11.1 -3.5 l9 0 0.3 4.3 c0.4 5 -0.8 6.8 -4.9 7.7 l-2.9 0.7 0 7.9 0 7.9 13.3 0.1 13.2 0.2 -13 0.9 c-7.1 0.5 -13 1 -13.1 1.1 -0.1 0.1 -0.4 4.6 -0.6 10.1 l-0.3 9.9 11 -0.7 c6.1 -0.4 12.4 -0.9 14.1 -1.2 l3.1 -0.6 0.7 -16.1 c0.4 -8.9 1.1 -16.6 1.7 -17.2 0.7 -0.7 0.8 4.5 0.3 16.3 -0.5 12.7 -0.4 17.2 0.5 17.2 0.8 0 1.1 -4.4 1.2 -14.7 0.1 -14.9 1.6 -26.2 1.8 -13.7 l0.1 6.1 4.6 0.7 c2.6 0.3 6.1 0.6 7.8 0.6 1.7 0 3.8 0.5 4.6 1.1 1.1 0.8 -1.1 0.9 -7.7 0.5 l-9.3 -0.5 0 9.7 0 9.7 8.3 -0.2 c5.7 -0.2 7.6 0 6.2 0.6 -1.1 0.6 -14.8 1.9 -30.5 3.1 -15.7 1.1 -39.5 3.2 -53 4.5 -13.5 1.3 -28.5 2.6 -33.5 3 -4.9 0.3 -10.9 0.8 -13.2 1.1 l-4.3 0.5 0 6 c0 5.5 0.2 5.9 2.3 5.9 1.2 0 16.8 -0.9 34.7 -2 44 -2.6 77.5 -3.6 76.7 -2.3 -0.4 0.6 -9.5 1.3 -22.9 1.8 -31.3 1 -79.6 4 -80.5 4.9 -0.5 0.4 -1 7.8 -1.2 16.3 l-0.3 15.6 2.3 -0.6 c4.4 -1.2 67.4 -2.1 69.3 -1 1.2 0.7 -8.5 1.2 -31.4 1.7 -44.3 0.9 -53.1 2.1 -56 7.6 -1.5 2.8 -4.5 17.1 -6.5 30.5 -1.8 12.2 -6.5 55.4 -6.5 59.8 l0 2.7 11.3 0.1 c6.1 0.1 12.6 0.4 14.2 0.8 2.9 0.6 3 0.8 3.3 7.1 0.1 3.6 -0.2 7.1 -0.7 7.9 -0.8 1.2 -3.8 1.5 -15.3 1.4 -10 -0.1 -14.5 0.2 -15 1 -0.4 0.7 -0.8 3.1 -0.8 5.3 l0 4.1 20.8 0.8 c40.5 1.4 48.6 2.4 16.2 1.9 -16.8 -0.2 -34.2 -0.7 -38.7 -1.1 l-8.3 -0.6 0 9.2 c0 8 0.2 9.1 1.8 9.1 18.9 0.1 72.7 2.3 74.4 2.9 1.8 0.8 0.5 1 -5.2 1.2 -4.1 0.1 -7.9 0.1 -8.3 0 -0.4 -0.1 -3.1 -0.4 -6 -0.7 l-5.2 -0.6 -7.4 7.8 c-4.1 4.4 -6.6 6.8 -5.6 5.4 1.1 -1.4 4.1 -4.8 6.8 -7.6 l4.9 -5.2 -10.6 -0.1 c-8.4 -0.1 -10.6 0.1 -10.6 1.2 0 0.7 0.3 1.7 0.8 2.1 0.7 0.8 0.9 1.4 1.1 4.7 0.1 1.9 0.3 2 1.9 0.8 1.5 -1.2 1.6 -1.2 0.5 0.2 -1.3 1.6 -0.6 6.2 0.8 5.3 0.5 -0.3 0.6 0.1 0.4 0.8 -0.3 0.8 1 2.8 2.9 4.7 2.8 2.7 4.4 3.4 10.2 4.1 3.8 0.5 8.2 0.9 9.8 1 l2.9 0 -2.1 -2.3 c-1.1 -1.2 -3.3 -4.8 -4.8 -8.1 l-2.6 -5.8 -6.2 5.8 -6.1 5.9 6.5 -6.8 c7.9 -8.2 6.9 -8.9 -1.4 -0.9 -3.4 3.1 -4.9 4.4 -3.6 2.8 2.7 -3.2 9.8 -9.9 10.9 -10.4 0.4 -0.1 1.8 2.4 3.1 5.5 2.6 6.5 6.5 12.3 8.3 12.3 0.6 0 3.4 -2.1 6.2 -4.7 l5 -4.8 -4.8 5.1 c-4.5 4.8 -4.7 5.2 -2.7 5.7 1.2 0.3 3.7 0.3 5.6 0 2 -0.3 3.4 -0.1 3.4 0.5 0 0.5 -2.4 1.3 -5.2 1.7 -2.9 0.3 -6 0.8 -6.8 0.9 -0.8 0.2 -4.8 0 -8.8 -0.5z m-16.9 -61.9 c2.6 0 2.7 -0.1 2.7 -5.9 0 -5.8 0 -5.9 -3.2 -6.4 -1.8 -0.4 -8 -0.7 -13.8 -0.9 l-10.5 -0.2 -0.7 4 c-1.7 9.5 -1.8 9.3 7.5 9.7 4.5 0.2 9.8 0.2 11.7 0 1.9 -0.1 4.7 -0.3 6.3 -0.3z m48.1 -168.6 c3.2 -1.2 1.6 -8.4 -1.8 -8.4 -3.3 0 -5.5 2.1 -6.2 5.8 -0.6 3.1 -0.6 3.2 2.9 3.2 1.9 0 4.2 -0.3 5.1 -0.6z m22.2 -2 l8.1 -0.7 0.7 -9 c0.3 -4.9 0.6 -13.7 0.6 -19.4 l0 -10.3 -2.8 0 c-2.4 0 -4.3 2 -14.4 15.4 l-11.7 15.4 0.6 5.2 0.6 5.2 5.1 -0.5 c2.8 -0.4 8.7 -0.9 13.2 -1.3z m-9.2 -25.6 c6.8 -9.2 12.7 -17.6 13.1 -18.7 0.8 -2.5 -1 -6.1 -3 -6.1 -1.3 0 -1.3 0.3 -0.3 1.9 1.8 2.9 -0.4 6.8 -13 23.4 -12.8 16.7 -13 17 -10.9 16.5 0.9 -0.1 7.2 -7.8 14.1 -17z m-41.1 -6.7 c1.1 -0.1 0.9 -6.9 -0.3 -7.6 -0.6 -0.4 -1.1 1.1 -1.2 3.7 l-0.1 4.3 -0.4 -3.7 c-0.5 -4.2 -0.6 -4.3 -3.4 -2.8 -3.6 2 -1.6 7.3 2.5 6.5 1.2 -0.2 2.4 -0.4 2.9 -0.4z m3.5 -4.7 c-0.5 -4.5 -2.4 -3.9 -2 0.7 0.3 2.6 0.8 3.7 1.4 3.1 0.5 -0.5 0.8 -2.2 0.6 -3.8z m3.1 1.4 c0.1 0.6 0.8 1.2 1.6 1.2 1 0 1.5 -1.1 1.5 -3.5 0 -2.4 -0.5 -3.5 -1.5 -3.5 -0.8 0 -1.6 0.8 -1.6 1.8 -0.1 1.6 -0.2 1.6 -0.6 0 -0.2 -1 -0.9 -1.8 -1.5 -1.8 -0.5 0 -0.7 0.7 -0.4 1.6 0.3 0.9 0.6 2.8 0.7 4.2 0 2.4 0.1 2.5 0.9 0.7 0.5 -1.1 0.9 -1.4 0.9 -0.7z m7.9 -0.4 c1.6 -0.5 2.2 -1.4 2.2 -3.5 0 -1.9 -0.5 -2.9 -1.5 -2.9 -1.1 0 -1.4 0.7 -1 2.8 l0.5 2.7 -1.1 -2.7 c-1.5 -3.9 -2.9 -3.5 -2.9 0.7 0 3.7 0.2 3.8 3.8 2.9z m50.6 -6.4 c2.1 -0.8 2.6 -1.6 2.6 -4.5 l0 -3.5 -5.8 0 -5.9 0 0 4.5 c0 4.4 0.1 4.5 3.3 4.5 1.8 0 4.4 -0.4 5.8 -1z"/>
  <path d="M587.8 322.3 c0.5 -7.4 -1.6 -10.3 -10.2 -14.2 -5.6 -2.5 -17.6 -12.2 -17.6 -14.1 0 -0.5 2.5 1.6 5.5 4.5 3.4 3.4 8.3 6.7 13 9 5.3 2.5 7.9 4.4 9 6.5 1.6 3.1 2 10.7 0.7 12.8 -0.5 0.7 -0.6 -1.4 -0.4 -4.5z"/>
  <path d="M518.1 325.4 c-5.6 -1.5 -6.7 -2.1 -11.2 -6.1 -1.4 -1.3 -3 -2.3 -3.5 -2.1 -1 0.3 -1.4 -0.5 -1.4 -2.4 0 -1 0.3 -0.9 0.9 0.1 0.7 1.1 2 1.2 7.2 0.2 5.2 -0.9 6.8 -0.8 9.2 0.4 3.5 1.8 7.7 1.9 12.9 0.5 2.8 -0.8 6.2 -0.7 13.2 0.5 12.3 1.9 21.5 1.9 26.6 -0.1 4.1 -1.7 5 -2.8 2.8 -3.7 -1 -0.4 -1 -0.6 -0.1 -0.6 0.7 -0.1 2.2 0.9 3.5 2.2 1.3 1.2 2 1.9 1.4 1.5 -0.5 -0.4 -1.8 -0.1 -3 0.7 -4.3 2.7 -17.4 6.5 -26.1 7.5 -5 0.5 -11.5 1.4 -14.4 2 -7.1 1.3 -11.4 1.2 -18 -0.6z m21.8 -1.9 c4.7 -0.8 10.9 -1.7 13.6 -2.1 l5 -0.7 -7.5 -1.3 c-9.3 -1.7 -15.8 -1.9 -23.1 -0.9 -4.2 0.6 -6.2 0.4 -8.5 -0.8 -3.1 -1.6 -11.4 -1.3 -11.4 0.4 0 1.2 7.2 4.7 11.7 5.8 5.7 1.3 10.6 1.3 20.2 -0.4z"/>
  <path d="M431 321.7 c0 -0.2 1.5 -1.6 3.3 -3.3 l3.2 -2.9 -2.9 3.3 c-2.8 3 -3.6 3.7 -3.6 2.9z"/>
  <path d="M407.5 317 c2.1 -2.2 4.1 -4 4.4 -4 0.3 0 -1.3 1.8 -3.4 4 -2.1 2.2 -4.1 4 -4.4 4 -0.3 0 1.3 -1.8 3.4 -4z"/>
  <path d="M426 318.7 c0 -0.2 1.5 -1.6 3.3 -3.3 l3.2 -2.9 -2.9 3.3 c-2.8 3 -3.6 3.7 -3.6 2.9z"/>
  <path d="M23.1 316.9 c2 -1.2 57.2 -1.2 56.4 0.1 -0.4 0.6 -11.1 1 -29.3 0.9 -17.7 0 -28 -0.4 -27.1 -1z"/>
  <path d="M110 317 c-6.3 -0.3 -11.3 -0.7 -11 -0.9 0.3 -0.1 29.8 -0.6 65.5 -1.1 35.8 -0.5 79.2 -1.6 96.5 -2.4 42.1 -2 75.8 -2.8 70 -1.6 -4.2 0.8 -43.3 2.8 -99 4.9 -32.3 1.3 -107.5 2 -122 1.1z"/>
  <path d="M426.5 314 c2.1 -2.2 4.1 -4 4.4 -4 0.3 0 -1.3 1.8 -3.4 4 -2.1 2.2 -4.1 4 -4.4 4 -0.3 0 1.3 -1.8 3.4 -4z"/>
  <path d="M496.1 314.9 c-0.1 -3.4 1.8 -8.9 3.1 -8.9 0.7 0 0.6 0.5 -0.1 1.4 -0.6 0.8 -1.6 3.3 -2 5.7 -0.6 2.9 -0.9 3.5 -1 1.8z"/>
  <path d="M403 306.5 c3 -3 5.7 -5.5 5.9 -5.5 0.3 0 -1.9 2.5 -4.9 5.5 -3 3 -5.7 5.5 -5.9 5.5 -0.3 0 1.9 -2.5 4.9 -5.5z"/>
  <path d="M425 307.8 c4.1 -4.5 5 -5.3 5 -4.5 0 0.2 -2.1 2.3 -4.7 4.7 l-4.8 4.5 4.5 -4.7z"/>
  <path d="M426.5 310 c0.7 -1.4 8.5 -8.7 8.5 -7.8 0 0.2 -2.1 2.4 -4.6 4.8 -2.5 2.5 -4.2 3.8 -3.9 3z"/>
  <path d="M421.4 307.1 c1.5 -1.6 2.9 -3.3 2.9 -3.7 0.1 -0.5 0.8 -0.9 1.6 -1.1 0.7 -0.1 -0.4 1.6 -2.5 3.8 -2.1 2.1 -4 3.9 -4.3 3.9 -0.3 0 0.8 -1.3 2.3 -2.9z"/>
  <path d="M401 304.5 c1.9 -1.9 3.6 -3.5 3.9 -3.5 0.3 0 -1 1.6 -2.9 3.5 -1.9 1.9 -3.6 3.5 -3.9 3.5 -0.3 0 1 -1.6 2.9 -3.5z"/>
  <path d="M55.5 305 c-0.7 -1.2 8.8 -1.2 12.5 0 1.8 0.6 0.4 0.8 -4.7 0.9 -3.9 0.1 -7.5 -0.3 -7.8 -0.9z"/>
  <path d="M96.6 304.2 c-0.4 -0.7 7.3 -1.2 22.6 -1.4 12.8 -0.3 52.6 -1.2 88.3 -2.1 104.2 -2.7 142 -3.5 142.4 -3.1 1.4 1.3 -4.8 1.7 -40.6 2.5 -21.9 0.5 -68.4 1.6 -103.3 2.6 -94.2 2.4 -108.7 2.6 -109.4 1.5z"/>
  <path d="M545.3 298.2 c1.5 -1.5 3.2 -4.2 3.8 -6 0.9 -2.7 0.8 -3.7 -1 -6.7 -2.2 -3.8 -1.2 -4.9 1.3 -1.3 3.1 4.4 1.1 13.4 -3.3 15.8 -3.3 1.7 -3.6 1.1 -0.8 -1.8z"/>
  <path d="M456.2 292 c0.4 -3.8 1.3 -7.9 1.8 -9.2 1 -2.3 1.1 -2.3 0.5 0.2 -0.3 1.4 -0.8 5.3 -1.2 8.8 -0.3 3.4 -0.9 6.4 -1.3 6.7 -0.3 0.2 -0.3 -2.7 0.2 -6.5z"/>
  <path d="M527 298.2 c0 -1.5 2.7 -2.2 8.3 -2.2 3 0 4.7 0.4 4.2 0.9 -1.5 1.3 -12.5 2.4 -12.5 1.3z"/>
  <path d="M78 289 c-2.1 -2.1 -2.2 -2.9 -1.8 -12.7 0.3 -5.7 0.1 -10.6 -0.4 -10.9 -0.5 -0.3 -2.3 -3.6 -4 -7.2 -2.8 -5.9 -3.2 -7.7 -3.1 -14.7 0.1 -8.6 1.6 -13.6 5.9 -19.2 2 -2.6 2.3 -3.7 1.4 -5.2 -0.5 -1.1 -1 -2.9 -1 -4 0 -1.7 -0.6 -2.1 -3.5 -2.1 -2.2 0 -3.5 -0.5 -3.5 -1.3 0 -1.8 2.1 -3.7 4.1 -3.7 1 0 2 -1.1 2.3 -2.6 0.9 -3.6 5 -7.4 7.9 -7.4 3.4 0 7.4 3.5 8.2 7 0.5 2.2 1.3 3 3.3 3.2 3.5 0.4 3.8 4.1 0.5 4.6 -1.8 0.3 -2.3 1 -2.3 3.1 0 1.5 -0.9 3.6 -2 4.6 -1.9 1.7 -1.9 1.8 0.4 6.4 3.2 6.4 4.6 13.6 4.6 24.5 0 6.6 -0.4 9.8 -1.5 11.2 -1 1.4 -1.4 4.7 -1.5 12 0 9.8 0.1 10.1 2.5 11.2 2.5 1.1 3.2 2.6 1.8 3.5 -0.5 0.3 -4.2 0.8 -8.4 1.2 -7.1 0.7 -7.9 0.5 -9.9 -1.5z m8.2 -1.2 c-0.8 -0.8 -1.2 -4.8 -1.2 -11.5 l0 -10.3 -3.4 0 c-3.3 0 -3.3 0.1 -4 5.3 -1.6 13.4 -0.1 17.7 6.2 17.7 2.8 0 3.3 -0.3 2.4 -1.2z m5.7 -1.9 c-1.8 -1.8 -2 -3 -1.7 -11 0.3 -8.7 0.2 -8.9 -1.9 -8.9 -2.2 0 -2.3 0.3 -2.3 9.1 0 10.6 0.9 12.9 5 12.9 l3 0 -2.1 -2.1z m-1.1 -23.5 c2 -1.4 2.2 -2.3 2.2 -10.9 0 -10.7 -1.3 -17.7 -4.5 -25.2 -2.3 -5 -2.3 -5.2 -0.5 -6.5 1.1 -0.7 2.2 -2.5 2.5 -3.9 0.8 -3.3 -1.6 -4.1 -9.2 -3.2 -4.1 0.4 -5.3 1 -5.3 2.3 0 2 2.7 4.6 5.5 5.2 1.8 0.4 1.8 0.6 -0.5 1.5 -3.1 1.3 -6.2 4.7 -8.6 9.3 -2.6 4.8 -2.6 20.1 -0.1 24.8 3.3 6.1 4.6 3.4 4.8 -9.8 0 -4.7 0.5 -9.4 1 -10.5 0.6 -1.3 0.8 2.1 0.6 10.3 -0.3 9.5 -0.8 12.6 -2 14 -1.3 1.4 -1.4 2.1 -0.5 3 1.8 1.8 11.9 1.5 14.6 -0.4z m4.9 -51.8 c0.4 -0.3 -0.5 -0.6 -1.8 -0.6 -2.9 0 -4.9 -1.7 -4.9 -4.2 0 -2.5 -3.6 -5.8 -6.3 -5.8 -2.6 0 -6.1 3.3 -7.2 6.7 -0.3 1.3 -1.7 2.6 -3.1 2.9 -1.3 0.3 -2.4 0.9 -2.4 1.3 0 0.8 24.9 0.5 25.7 -0.3z"/>
  <path d="M193.6 287.5 c-2 -1.1 -3.3 -1.2 -4 -0.5 -0.5 0.5 -3.3 1 -6.2 1 -5.7 0 -7.3 -1.5 -4.9 -4.7 1.8 -2.2 2.1 -27.3 0.4 -27.3 -0.5 0 -1.9 -2.1 -3.1 -4.6 -1.7 -3.9 -2 -6.2 -1.6 -13.9 0.3 -7.9 0.8 -10.1 3.7 -15.9 1.8 -3.6 4.2 -7.4 5.5 -8.3 2.2 -1.7 2.2 -1.7 0.4 -5.2 -4 -7.9 -1 -17.1 5.6 -17.1 5.3 0 8.1 3.8 8.1 11 0 4.1 -0.5 6.3 -1.7 7.7 -1.7 1.9 -1.7 2.1 0.6 4.2 1.3 1.2 3.7 5 5.2 8.4 2.6 5.6 2.9 7.2 2.9 17.4 0 10 -0.2 11.4 -2.2 14.2 -1.9 2.5 -2.4 4.8 -2.9 14.4 l-0.7 11.3 3.3 3.1 c2.9 2.7 3.2 3.4 2.1 4.7 -1.7 2 -6.7 2 -10.5 0.1z m-6.2 -1.4 c1.7 -0.6 1.8 -1.8 1.7 -12.8 -0.1 -7.6 0.2 -12.4 0.8 -12.8 0.8 -0.4 1.1 3.3 1.1 11.4 0 11.3 0.1 12.1 2.2 13.5 2.4 1.7 9.8 2.2 9.8 0.7 0 -0.5 -1.1 -1.6 -2.5 -2.5 l-2.5 -1.6 0.1 -24.8 c0.1 -13.6 0.5 -23.3 0.9 -21.7 0.4 1.7 0.8 6.6 0.9 11 l0.2 8 1.7 -3 c2.2 -4 2.2 -18 -0.1 -25.7 -1 -3.1 -3.2 -7.7 -5.1 -10.1 -3 -4 -3.2 -4.6 -2 -6.8 2.1 -3.8 1.8 -11.5 -0.6 -13.9 -2.4 -2.4 -5.7 -2.6 -8.2 -0.3 -2.3 2 -2.4 9.2 -0.3 13.4 1.6 2.9 1.5 3.1 -1.9 7.1 -5.4 6.3 -7.9 13.7 -7.9 23.8 -0.1 6.3 0.4 9.5 1.8 12.5 l1.9 4 1.1 -11.5 1.2 -11.5 0 24.3 c0 18.3 -0.4 24.7 -1.3 26 -2.2 2.9 -1.6 4.2 1.9 4.1 1.7 0 4 -0.4 5.1 -0.8z"/>
  <path d="M228.1 286.6 c-0.8 -1 -0.8 -2.1 -0.1 -4 0.5 -1.5 1 -6.8 1 -11.8 0 -7.2 -0.4 -9.5 -1.7 -11 -2.4 -2.7 -2.9 -13.1 -0.9 -19.9 0.8 -3 2.9 -7 4.5 -8.9 l3 -3.5 -3.5 7 c-3.1 6.2 -3.5 8 -3.5 14.3 0 8.3 1.9 13.8 2.2 6.2 0 -2.5 0.4 -5.6 0.9 -7 0.4 -1.4 0.6 5.6 0.4 15.5 -0.1 9.9 -0.6 19.1 -1 20.4 -0.7 2.3 -0.6 2.4 3.7 1.8 4 -0.5 4.2 -0.4 2.5 0.9 -2.5 1.8 -6 1.8 -7.5 0z"/>
  <path d="M239 286 c-1.7 -1.7 -2 -3.2 -1.8 -10.7 l0.1 -8.8 0.6 8.7 c0.4 4.8 1.1 9.2 1.6 9.7 0.6 0.5 2.7 1.3 4.8 1.6 3.9 0.8 5.1 -0.7 2.5 -3.3 -0.9 -0.9 -1.4 -6.6 -1.6 -19.5 -0.2 -12.6 0 -17.7 0.8 -16.7 0.5 0.8 1 3.8 1 6.5 0.1 4.4 0.2 4.7 1.2 2.5 2.3 -5.6 -1.5 -23.5 -5.7 -27 -1.1 -0.9 -1.1 -1.6 0.1 -3.8 1.8 -3.4 1.8 -6.4 0 -10.7 -1.1 -2.6 -2.1 -3.5 -3.9 -3.5 -5 0 -7.7 7.1 -5.3 14 0.8 2.4 0.7 2.4 -1 0.8 -2.3 -2.2 -2.3 -9.7 -0.1 -13.2 2.2 -3.3 6 -4.3 9 -2.3 4 2.6 5.5 11.5 2.6 15.3 -0.5 0.6 0.3 3.3 2 6.5 4.1 7.6 5.5 15.5 4.1 22.4 -0.6 3 -1.6 5.7 -2.1 6 -0.5 0.4 -0.9 5.2 -0.9 10.7 0 8 0.4 10.5 1.6 11.9 2.6 2.9 1.1 4.9 -3.6 4.9 -2.7 0 -4.7 -0.7 -6 -2z"/>
  <path d="M680.1 286.7 c-1.8 -1.8 -1.3 -4.2 1.5 -6.8 4.2 -3.9 4.7 -5.5 3.4 -11 -0.8 -3.1 -0.9 -6.4 -0.4 -8.7 0.8 -3.6 0.8 -3.5 1.6 2.8 0.4 3.6 1 8.1 1.3 10 0.6 3 0.2 3.9 -2.4 6.4 -3 2.9 -4.2 6.6 -2.1 6.6 2.1 0 8.8 -4 12.3 -7.2 2.8 -2.7 3.5 -4.1 3.5 -7.1 0 -2 -0.3 -3.5 -0.7 -3.3 -0.4 0.3 -0.7 -0.8 -0.6 -2.2 0 -2.1 -0.7 -3 -3.2 -4.2 -3.7 -1.7 -4.1 -4 -1.7 -9.8 2.8 -6.8 9.5 -12.2 15 -12.2 1.9 0 3.9 1.3 6.6 4.2 2.1 2.3 3.8 4.6 3.8 5.1 0 0.6 -1.6 -0.8 -3.6 -3.1 -6 -7 -8.2 -5.3 -5.2 4.1 2.8 9 2.5 22.7 -0.7 29.5 -1.3 2.8 -2.6 5.2 -2.9 5.2 -0.3 0 0.6 -2.4 1.9 -5.2 2.1 -4.4 2.5 -6.9 2.5 -14.2 0 -8.8 -2.4 -20.6 -4.1 -20.6 -0.5 0 -3.3 1.1 -6.3 2.5 -4.1 1.9 -5.7 3.2 -6.4 5.5 -1 2.7 -0.8 3.4 0.9 3.2 0.3 -0.1 1.9 1.2 3.4 2.8 2.3 2.4 3 4.1 3.3 8.8 0.4 5.5 0.2 6.1 -2.8 9.6 -5.3 6 -15.8 11.4 -17.9 9.3z"/>
  <path d="M270.5 285.4 c-0.7 -0.3 -0.9 -5 -0.7 -13.3 0.4 -10.9 0.2 -13.2 -1.3 -15.5 -1.4 -2.1 -1.7 -4.2 -1.3 -11.1 0.4 -7.4 0.9 -9.5 4.1 -15.7 3.2 -6.1 3.5 -7.4 2.3 -8.7 -2.3 -2.8 -2.6 -5.1 -1.2 -8.6 2.5 -5.8 8 -7.2 12.1 -3 2.8 2.7 3.2 6.3 1 10.4 -1.4 2.7 -1.2 3.3 2.1 9.8 4.5 8.8 5.5 17.4 2.9 25.2 -0.9 2.8 -2.1 5.1 -2.7 5.1 -0.7 0 -0.9 3 -0.6 9.1 0.5 7.5 0.9 9.4 2.8 11.4 1.3 1.4 2 3.1 1.7 3.9 -0.8 2 -6.2 2.1 -9.8 0.2 -2.2 -1.1 -2.9 -1.1 -4.4 0 -1.8 1.4 -4.9 1.7 -7 0.8z m6.8 -2 c1.3 -0.4 1.5 -2.3 1.2 -10.2 -0.3 -6.4 -0.1 -8.7 0.4 -6.7 0.5 1.7 0.9 5.7 1 9 0 3.4 0.6 6.6 1.3 7.3 1.4 1.4 8.8 1.7 8.8 0.4 0 -0.5 -0.9 -1.7 -2 -2.7 -1.9 -1.7 -2 -3 -1.8 -18.4 0.1 -10.5 0.4 -14.6 0.8 -11.1 0.6 5.4 0.6 5.4 1.8 2.7 1.6 -3.7 1.5 -15.2 -0.2 -20 -0.8 -2 -2.5 -5.2 -3.9 -7 -2.2 -3 -2.4 -3.5 -1.1 -5.7 1.8 -3.4 1.7 -8.5 -0.2 -10.4 -2.1 -2.2 -6 -2 -8.4 0.4 -2.5 2.5 -2.5 5.4 0 9.4 l1.9 3.2 -2.3 3.5 c-5.6 8.3 -8.2 21.2 -5.5 27.4 1.3 2.9 1.4 2.8 1.7 -3.7 0.2 -3.8 0.7 -6.8 1.1 -6.8 0.7 0 0.7 10.2 -0.3 32.3 -0.3 7.4 -0.2 7.7 2 7.7 1.2 0 2.9 -0.3 3.7 -0.6z"/>
  <path d="M116 282.5 c-2 -2.1 -2.3 -3.5 -2.4 -12.5 -0.1 -6.8 -0.6 -10.4 -1.4 -10.9 -4.9 -3 -3.7 -22.4 1.8 -29.4 1.7 -2.1 1.8 -2.6 0.5 -3.7 -2.3 -1.9 -2.9 -7.4 -1.1 -10.9 2.9 -5.4 10.3 -5.4 13.2 0 2.4 4.7 -0.3 11.9 -4.5 11.9 -1.2 0 -1.1 -0.4 0.6 -1.8 4.8 -3.8 3.3 -12.2 -2.2 -12.2 -5.5 0 -8.3 6.6 -4.7 11.1 1.9 2.2 1.8 2.3 -1.5 8.6 -2.9 5.7 -3.3 7.4 -3.3 14.2 0 5.2 0.5 8.3 1.5 9.7 1.3 1.8 1.4 1.6 1.6 -2.1 0.1 -2.2 0.5 -5.3 0.9 -7 0.5 -1.6 0.6 4.4 0.3 13.5 -0.5 17.9 0.2 21.2 4.6 21.8 2 0.3 2.1 0.1 1.2 -1.7 -1.4 -2.5 -1.4 -13.1 -0.1 -15.1 0.7 -1 1 0.8 1 6.1 0 7.7 0.5 8.9 4.3 10.2 1.5 0.6 1.6 0.3 0.7 -1.2 -1.9 -3.7 -2.3 -12.8 -0.7 -17.8 0.8 -2.6 1.8 -6.2 2.1 -7.8 1 -4.8 -1.2 -17.5 -3.9 -22.9 -1.7 -3.3 -2 -4.5 -1 -3.6 2.1 1.7 5.1 7.6 6 11.7 1.2 5.7 0.8 15.7 -0.9 20.6 -2.1 6.3 -2.1 15.1 0.1 18.8 0.9 1.5 1.5 3 1.2 3.2 -0.2 0.2 -2.9 0.7 -6 1.1 -5 0.5 -5.8 0.3 -7.9 -1.9z"/>
  <path d="M219.3 282.3 c0.9 -0.2 2.5 -0.2 3.5 0 0.9 0.3 0.1 0.5 -1.8 0.5 -1.9 0 -2.7 -0.2 -1.7 -0.5z"/>
  <path d="M694 276.5 c1.9 -1.9 3.6 -3.5 3.9 -3.5 0.3 0 -1 1.6 -2.9 3.5 -1.9 1.9 -3.6 3.5 -3.9 3.5 -0.3 0 1 -1.6 2.9 -3.5z"/>
  <path d="M670.3 276.3 c2.4 -4.6 3.1 -7.7 1.6 -6.8 -0.9 0.6 -1.1 -0.4 -0.6 -4.6 0.4 -3 0.7 -8.8 0.7 -12.9 0 -10.3 1.9 -7.2 2.1 3.5 l0.2 8 1 -7.2 c1.1 -8 2.7 -9.8 2.7 -3 -0.1 9.2 -5.2 25.7 -8 25.7 -0.6 0 -0.5 -1.2 0.3 -2.7z"/>
  <path d="M42 275.5 c-1.5 -1.8 -0.6 -6.1 1.5 -6.9 2.2 -0.8 6.5 1.1 6.5 2.9 0 4.8 -5.2 7.4 -8 4z m5.8 -2.8 c0.3 -2.3 0 -2.7 -2.2 -2.7 -2.1 0 -2.6 0.5 -2.6 2.3 0 1.3 0.3 2.7 0.7 3.1 1.5 1.4 3.8 0 4.1 -2.7z"/>
  <path d="M667 266 c0 -6.3 -0.3 -14 -0.6 -17 -0.7 -6.1 0.3 -6.3 1.7 -0.3 1.3 5.4 1.2 26.4 -0.1 27.7 -0.7 0.7 -1 -2.5 -1 -10.4z"/>
  <path d="M31 273.4 c0 -1.4 0.4 -2.3 1 -1.9 0.6 0.3 1 1.5 1 2.6 0 1 -0.4 1.9 -1 1.9 -0.5 0 -1 -1.2 -1 -2.6z"/>
  <path d="M411 269 c0 -7.1 2.1 -30.7 2.9 -33.5 l0.9 -3 0.1 3.5 0.1 3.5 15.1 -0.3 c8.4 -0.2 16.3 0 17.8 0.5 1.7 0.5 -3.8 1 -15.4 1.3 l-18 0.5 -0.3 3.1 -0.3 3.2 15.8 -0.4 c10.3 -0.3 15.1 -0.1 13.8 0.5 -1.1 0.5 -7.5 1 -14.2 1 -6.7 0.1 -12.8 0.4 -13.7 0.7 -1 0.4 -1.6 1.8 -1.6 3.5 l0 2.9 15.7 0 c8.6 0 15.3 0.3 14.9 0.8 -0.4 0.4 -7.6 0.7 -15.9 0.7 l-15.2 0 -0.3 3.5 -0.3 3.5 14.8 -0.1 14.8 -0.1 -12 0.7 c-6.6 0.4 -13.2 0.8 -14.7 0.9 -2.3 0.1 -2.8 0.6 -2.8 2.6 l0 2.4 15.3 0.3 15.2 0.3 -16.3 0.5 -16.2 0.5 0 -3.5z"/>
  <path d="M663 264.8 c0 -5.2 -2.3 -18.8 -4.6 -26.9 -2 -7.1 -1.4 -8.7 1.1 -2.7 3.8 9.5 7.1 33.8 4.5 33.8 -0.5 0 -1 -1.9 -1 -4.2z"/>
  <path d="M136.5 263 c-1.7 -0.4 5.7 -0.8 17.3 -0.9 12.9 -0.1 20.2 0.3 20.2 0.9 0 1.2 -32.9 1.2 -37.5 0z"/>
  <path d="M499.9 263 c2.4 -0.5 6.2 -1.8 8.5 -2.9 5.2 -2.6 5.7 -2.1 0.7 0.7 -2.1 1.2 -6.1 2.4 -8.7 2.7 l-4.9 0.4 4.4 -0.9z"/>
  <path d="M297.5 261.9 c1.1 -0.4 5.6 -0.8 10 -0.8 10.1 0.1 8.7 0.6 -3 1.2 -5.1 0.3 -8.1 0.1 -7 -0.4z"/>
  <path d="M322.8 262.3 l7.2 -0.4 0 -38.3 0 -38.3 -11.7 -0.6 c-6.5 -0.4 -32 -1.2 -56.8 -1.8 l-45 -1.1 -4.5 -2.6 c-8.5 -4.8 -39.1 -25.4 -38.6 -25.9 0.3 -0.3 9.7 5.6 20.9 13.1 l20.5 13.6 8.3 0 c4.6 0 17.8 0.4 29.4 1 11.5 0.5 33.5 1.1 48.8 1.4 l27.8 0.5 -11.1 -5.4 -11.1 -5.5 -17.3 0 c-27.7 0 -74.9 -1.3 -73.4 -2 0.7 -0.3 21.8 -0.3 46.8 0 l45.5 0.7 12 5.5 c6.6 3.1 12.8 5.8 13.8 6.2 2.1 0.7 1.3 2.6 -1.1 2.6 -1.6 0 -1.7 2.9 -1.4 39 l0.3 39 -8.3 -0.2 -8.3 -0.2 7.3 -0.3z"/>
  <path d="M572.5 262 c-1.3 -0.6 -0.5 -0.7 2.5 -0.3 2.5 0.3 4.7 0.7 4.9 0.9 0.9 0.8 -5.5 0.2 -7.4 -0.6z"/>
  <path d="M208.1 261.3 c2.2 -0.3 2.8 -1.2 3.6 -4.6 l1.1 -4.2 0.1 4.2 0.1 4.2 4.8 0.4 c2.6 0.2 0.9 0.4 -3.8 0.4 -4.7 0 -7.3 -0.2 -5.9 -0.4z"/>
  <path d="M347.3 261.3 c2.6 -0.2 6.7 -0.2 9 0 2.3 0.2 0.2 0.3 -4.8 0.3 -4.9 0 -6.8 -0.1 -4.2 -0.3z"/>
  <path d="M255.7 260.3 c1.8 -0.2 5 -0.2 7 0 2.1 0.2 0.7 0.4 -3.2 0.4 -3.8 0 -5.5 -0.2 -3.8 -0.4z"/>
  <path d="M61.3 259.3 c1.5 -0.2 3.7 -0.2 5 0 1.2 0.2 0 0.4 -2.8 0.4 -2.7 0 -3.8 -0.2 -2.2 -0.4z"/>
  <path d="M100.3 259.3 c1.5 -0.2 3.7 -0.2 5 0 1.2 0.2 0 0.4 -2.8 0.4 -2.7 0 -3.8 -0.2 -2.2 -0.4z"/>
  <path d="M493.5 259 c-1.2 -0.4 -2.7 -1.5 -3.5 -2.5 -1 -1.2 -0.4 -1.1 2.4 0.5 2.9 1.8 4.7 2.1 8.9 1.8 2.9 -0.3 6.1 -0.8 7.2 -1.2 1.1 -0.3 0.7 0 -1 0.8 -3.3 1.6 -10.8 2 -14 0.6z"/>
  <path d="M134.5 258 c-0.4 -0.7 6 -1 18.4 -1 12.1 0 19.1 0.4 19.1 1 0 0.6 -6.8 1 -18.4 1 -11.3 0 -18.7 -0.4 -19.1 -1z"/>
  <path d="M344.3 258.3 c3.7 -0.2 9.6 -0.2 13 0 3.4 0.2 0.4 0.3 -6.8 0.3 -7.1 0 -9.9 -0.1 -6.2 -0.3z"/>
  <path d="M22.8 257.3 c1.2 -0.2 3.2 -0.2 4.5 0 1.2 0.2 0.2 0.4 -2.3 0.4 -2.5 0 -3.5 -0.2 -2.2 -0.4z"/>
  <path d="M150 253.1 l-11.5 -0.6 -0.3 -31.4 c-0.2 -22.3 0.1 -31.8 0.9 -32.7 1.2 -1.5 7.9 -1.8 16.7 -0.8 l5.2 0.7 0 31.4 c0 30.6 0.1 31.5 2 32 2.1 0.5 1.8 2.5 -0.3 2.1 -0.7 -0.1 -6.4 -0.4 -12.7 -0.7z m9.2 -10.3 c0.2 -4.6 0.2 -18.5 0 -31 l-0.5 -22.8 -9.7 0 -9.8 0 0.3 21.8 c0.1 11.9 0.3 25.9 0.4 31 l0.1 9.2 9.4 0 9.4 0 0.4 -8.2z"/>
  <path d="M348.1 253.6 c1.3 -1.1 9.9 -5.7 9.9 -5.3 0 0.6 -8.6 5.7 -9.6 5.7 -0.4 0 -0.5 -0.2 -0.3 -0.4z"/>
  <path d="M569.2 252.6 c-4.8 -1.2 -9.2 -3.9 -9.2 -5.6 0 -1.5 13.7 -5 22.5 -5.9 9.6 -0.9 11 -0.9 25.3 1.5 10.1 1.7 13.1 4.1 3.6 2.9 -5.2 -0.6 -6.1 -0.4 -13.9 3.6 -7.1 3.6 -9.4 4.2 -15.7 4.5 -4 0.2 -9.7 -0.3 -12.6 -1z m16.7 -1.2 l3.2 -0.7 -2.9 -2.6 c-1.6 -1.5 -3.1 -3.2 -3.3 -3.8 -0.4 -1.3 -14.3 0.7 -17.5 2.5 -1.6 0.9 -1.5 1.1 0.5 2.1 4.5 2.4 14.3 3.6 20 2.5z"/>
  <path d="M733.8 246.7 c-2.5 -9.1 -3.6 -17.2 -5.3 -37.6 -2 -24 -7.1 -50.2 -12.5 -64.4 -1.1 -2.8 -1.8 -5.3 -1.6 -5.5 0.7 -0.6 4.5 10.5 7.2 21 4.1 16.3 6.2 29.4 7.9 49 1.8 21 2.9 28.9 5.2 37.1 0.9 3.2 1.4 6 1.1 6.2 -0.2 0.2 -1.1 -2.4 -2 -5.8z"/>
  <path d="M346 249.3 c1.9 -1.5 6.8 -5.6 11 -9.1 l7.5 -6.3 -6.4 6 c-3.6 3.3 -8.5 7.4 -11 9.1 -4.1 2.8 -4.2 2.8 -1.1 0.3z"/>
  <path d="M338 250.7 c0 -0.2 2.1 -1.8 4.8 -3.6 3.5 -2.5 4 -2.6 1.7 -0.6 -3 2.6 -6.5 4.9 -6.5 4.2z"/>
  <path d="M337 248.6 c0 -0.2 1.4 -1.4 3 -2.6 1.7 -1.2 3 -1.9 3 -1.6 0 0.2 -1.3 1.4 -3 2.6 -1.6 1.2 -3 1.9 -3 1.6z"/>
  <path d="M384.2 243.8 c-1.9 -1.9 -1.5 -8.2 0.6 -10.1 1.4 -1.3 3.9 -1.7 11 -1.7 5.6 0 9.3 0.4 9.8 1.1 1.1 1.9 0.8 8.8 -0.6 10.4 -1.6 1.9 -18.9 2.2 -20.8 0.3z m19.7 -2.2 c0.7 -0.8 1.1 -2.7 0.9 -4.3 -0.3 -2.8 -0.3 -2.8 -8.6 -3.1 -5.3 -0.2 -8.9 0.1 -9.8 0.9 -1.4 1.2 -1.9 6 -0.7 7.2 0.3 0.4 4.3 0.7 8.8 0.7 6 0 8.6 -0.4 9.4 -1.4z"/>
  <path d="M211.2 212.3 c0.1 -19.5 0.4 -28 0.8 -23.3 1.2 12 1.1 52.8 0 53.5 -0.7 0.4 -0.9 -9.9 -0.8 -30.2z"/>
  <path d="M489.5 237.3 c3.8 -9.2 10.5 -11.1 18.8 -5.4 2.5 1.7 4.9 3.7 5.3 4.4 0.5 0.6 -0.9 -0.1 -2.9 -1.6 -9.5 -7.2 -15.6 -6.7 -19.6 1.7 -2.7 5.5 -3.8 6.1 -1.6 0.9z"/>
  <path d="M562.4 236.6 c1.5 -1.3 4.7 -3.3 7 -4.5 2.2 -1.2 3.2 -1.6 2.2 -0.9 -1 0.7 -3.9 2.8 -6.3 4.6 -4.9 3.7 -7.2 4.3 -2.9 0.8z"/>
  <path d="M601.3 234.4 c-8.2 -6.3 -20.3 -9 -29.2 -6.4 -1.9 0.5 -5.3 2.4 -7.5 4.1 l-4.1 3.1 3.7 -3.5 c7 -6.8 19.3 -7.6 30.8 -2 3.6 1.8 7.6 4.1 8.9 5.3 3.9 3.4 1.9 3 -2.6 -0.6z"/>
  <path d="M347 233.7 c0 -3 6 -10.5 10.9 -13.6 4.7 -3.1 8.1 -7.3 8.1 -10.1 0 -0.6 -1.2 -0.3 -2.7 0.8 -1.6 1.1 -4.8 2.9 -7.1 4.1 -2.4 1.3 -6.4 4.1 -8.8 6.3 -2.4 2.2 -4.4 3.6 -4.4 2.9 0 -2.2 5.7 -7.3 13 -11.4 5.4 -3 7.9 -5.1 9 -7.4 2.1 -4.6 3 -4.1 3 1.7 0 6.9 -2 10.2 -8.8 14.9 -3.1 2.1 -6.5 5.2 -7.4 6.9 l-1.8 3 5.2 -2 c2.9 -1.1 5.6 -2.5 6 -3.1 0.9 -1.5 2.2 -0.2 1.5 1.5 -0.4 1.1 -13.1 6.8 -15.1 6.8 -0.3 0 -0.6 -0.6 -0.6 -1.3z"/>
  <path d="M511.8 230.3 c-1.6 -2.4 -3.2 -4.2 -3.7 -3.8 -0.5 0.3 -1.3 0 -1.7 -0.6 -0.5 -0.8 -0.3 -0.9 0.6 -0.4 0.8 0.5 1.1 0.3 0.8 -0.6 -0.3 -0.8 -1.4 -1.4 -2.6 -1.4 -1.2 0 -2.9 -0.9 -3.9 -1.9 -1.2 -1.3 -1.3 -1.6 -0.3 -1.1 0.8 0.5 0.2 -0.6 -1.4 -2.3 -1.6 -1.7 -3.4 -2.9 -3.9 -2.5 -0.6 0.3 -0.7 0.2 -0.4 -0.4 0.3 -0.5 0 -1 -0.8 -1 -0.8 0 -1.3 0.5 -1.2 1.1 0.1 0.6 -0.5 1.1 -1.3 1.1 -0.9 0 -1.5 -0.9 -1.5 -2.2 0 -1.3 -0.3 -2.3 -0.7 -2.3 -0.5 0 -1.3 0 -2 0 -0.6 0 -0.3 0.7 0.8 1.6 1.9 1.5 1.9 1.5 -0.1 0.5 -1.1 -0.5 -2.8 -1.6 -3.9 -2.4 -3.2 -2.4 6.6 -1.4 10.1 1.1 1.5 1.1 3.2 2 3.7 1.9 2 -0.1 7.6 5.6 12.1 12.2 2.7 3.9 4.7 7.3 4.4 7.5 -0.2 0.2 -1.6 -1.6 -3.1 -4.1z m-6.9 -9 c-0.6 -0.7 -1.5 -1 -2 -0.7 -1.3 0.8 -0.3 2.1 1.5 2.1 1.2 0 1.3 -0.4 0.5 -1.4z"/>
  <path d="M724.1 228.8 c-1.1 -3.5 -4.1 -15.1 -6.5 -25.9 -5.6 -24.8 -11.3 -42.1 -19.2 -57.9 -3.5 -6.9 -5.6 -11.6 -4.7 -10.5 3.4 4.4 12.5 24.9 16.7 37.5 2.4 7.4 6.3 22 8.6 32.4 2.3 10.4 5.1 21.4 6.1 24.4 1 3 1.7 5.7 1.5 5.9 -0.2 0.2 -1.3 -2.4 -2.5 -5.9z"/>
  <path d="M419 230.9 c5.7 -1 19 -1 25.5 0.1 3.4 0.5 -0.5 0.7 -12.5 0.7 -11.8 0 -16 -0.2 -13 -0.8z"/>
  <path d="M304 211.5 l0 -19.5 8 0 8 0 0 19.5 0 19.5 -8 0 -8 0 0 -19.5z m9.4 17.9 l4.6 -0.7 0 -17.3 0 -17.4 -6.2 0 -6.3 0 -0.2 18 c-0.2 20.2 -0.9 18.6 8.1 17.4z"/>
  <path d="M702 226.4 c-13.6 -11 -30.5 -23.7 -37.5 -28.4 -13.2 -8.8 -32.5 -23.9 -40.9 -32 -9 -8.6 -14.8 -16.4 -20 -26.7 -3.5 -7 -9.1 -24.1 -8.2 -25.1 0.3 -0.2 1 1.6 1.6 3.9 4.9 19.2 12.5 32.6 25.9 45.9 8.5 8.4 29.6 25.1 41.1 32.5 4.1 2.6 11.3 7.8 16 11.4 17.7 13.7 28.1 22.1 27.3 22.1 -0.4 0 -2.8 -1.6 -5.3 -3.6z"/>
  <path d="M254.5 211 l0.7 -18 -8 0 -8.1 0 -0.4 5.8 -0.3 5.7 -0.2 -6.7 -0.2 -6.8 9 0 9 0 0 19 c0 13.4 -0.3 19 -1.1 19 -0.8 0 -1 -4.9 -0.4 -18z"/>
  <path d="M394 224 c5.8 -0.4 20.9 -0.7 33.5 -0.7 19.7 0 21.3 0.1 11 0.7 -6.6 0.4 -21.7 0.7 -33.5 0.7 -17.9 0 -19.7 -0.2 -11 -0.7z"/>
  <path d="M496.5 220.5 c-2.2 -1.9 -3.7 -3.5 -3.2 -3.6 2.6 -0.5 3.4 -0.4 4.9 0.9 1 0.8 1.5 1.9 1.2 2.4 -0.3 0.5 0 1.5 0.6 2.3 2 2.4 0.8 1.7 -3.5 -2z"/>
  <path d="M543 220.1 c-0.6 -1.6 -1 -3.8 -0.7 -4.8 0.4 -1.4 0.5 -1.3 0.6 0.5 0 1.3 0.6 3.2 1.2 4.4 0.6 1.1 0.9 2.2 0.6 2.4 -0.2 0.3 -1 -0.9 -1.7 -2.5z"/>
  <path d="M38.8 221.2 l-4.7 -0.3 -0.3 -10.7 c-0.2 -5.9 -0.2 -13.5 0 -16.9 l0.3 -6.3 8.4 0 c10.3 0 9.7 -1.2 9.3 19.5 l-0.3 15 -4 0 c-2.2 0 -6.1 -0.1 -8.7 -0.3z m11.2 -14.7 c0 -7.1 0.3 -14 0.6 -15.2 0.6 -2.3 0.5 -2.3 -7.6 -2.3 l-8.2 0 0.6 3.1 c0.3 1.7 0.6 8.5 0.6 15 l0 11.8 2.8 0.3 c1.5 0.2 4.6 0.4 6.9 0.4 l4.3 -0.1 0 -13z"/>
  <path d="M547.1 217.4 c0 -3.3 0.4 -5.7 1.5 -7 0.8 -1 1.2 -1.2 0.7 -0.4 -0.4 0.8 -1.1 4 -1.4 7 l-0.6 5.5 -0.2 -5.1z"/>
  <path d="M550.1 218.4 c-0.1 -2.2 4.8 -12.8 5.6 -12 0.3 0.2 -0.3 1.6 -1.2 3 -0.9 1.4 -2.3 4.5 -3 6.8 -0.8 2.4 -1.4 3.4 -1.4 2.2z"/>
  <path d="M552.7 218.2 c1.9 -5.1 8.6 -13.2 9.9 -11.9 0.3 0.3 -0.4 1 -1.5 1.6 -1.9 1 -7.1 8.8 -7.1 10.5 0 0.5 2 -1.4 4.4 -4.1 5 -5.5 13.7 -10.8 16.7 -10 1.1 0.3 4 -0.1 6.5 -1 2.5 -0.8 4.7 -1.3 5 -1.1 0.2 0.3 -1.5 1 -3.8 1.7 -4.6 1.4 -10.2 4.7 -16.8 9.9 -3.5 2.8 -3.9 3 -2.1 0.9 1.4 -1.5 1.9 -2.7 1.2 -2.7 -0.7 0 -0.9 -0.5 -0.5 -1.2 0.4 -0.7 0.3 -0.8 -0.5 -0.4 -0.6 0.4 -0.9 1.1 -0.6 1.5 0.2 0.5 -0.7 1.9 -2 3.1 -1.4 1.3 -2.5 2 -2.5 1.5 0 -0.4 -0.9 0 -2 1 -2.7 2.5 -5.1 2.8 -4.3 0.7z m9.8 -6 c-0.6 -0.7 -3.5 1.8 -3.5 3.1 0 0.5 0.9 0.2 2 -0.8 1.1 -1 1.8 -2 1.5 -2.3z m9.8 -4.1 c4.2 -2.6 4.5 -3 1.8 -2.8 -1.1 0 -1.7 0.5 -1.4 1.1 0.4 0.5 -0.1 0.7 -1 0.3 -1 -0.4 -1.6 -0.2 -1.4 0.5 0.1 0.6 -0.4 1.3 -1.2 1.6 -0.9 0.3 -1.1 0 -0.6 -0.8 0.6 -0.9 0.2 -0.9 -1.6 0.1 -1.5 0.7 -1.9 1.4 -1.1 1.7 0.6 0.2 0.9 0.8 0.6 1.4 -0.4 0.7 -0.2 0.7 0.7 0.2 0.8 -0.5 3.1 -2 5.2 -3.3z"/>
  <path d="M673.9 213.7 c-16.5 -11.8 -26.9 -20 -37.1 -29.2 -6 -5.3 -10.8 -9.8 -10.8 -10.1 0 -0.3 4.7 3.6 10.6 8.8 11.3 10 21.4 18 36.2 28.4 8.3 6 10 7.4 8.8 7.4 -0.2 0 -3.7 -2.4 -7.7 -5.3z"/>
  <path d="M569.1 213.4 c1.8 -2.2 14.7 -7.4 19.5 -7.9 l4.9 -0.4 -5.1 1 c-2.7 0.5 -8.4 2.7 -12.6 4.7 -4.2 2.1 -7.2 3.2 -6.7 2.6z"/>
  <path d="M579.2 212 c4.2 -2.2 14.2 -5.1 17.3 -4.9 1.1 0.1 -0.8 0.7 -4.3 1.5 -3.5 0.7 -8.4 2.3 -10.9 3.4 -5.8 2.5 -6.9 2.5 -2.1 0z"/>
  <path d="M584 213.1 c2.4 -1.6 14.5 -4.3 17.6 -3.8 2.7 0.4 2.6 0.4 -0.6 0.6 -3.1 0.1 -7.6 1.1 -16 3.5 -1.8 0.5 -2.1 0.5 -1 -0.3z"/>
  <path d="M391.3 212 c-4.1 -1.7 -4.1 -4.8 -0.2 -28.5 2.7 -16.4 3.3 -18.2 7.2 -19.4 4.9 -1.5 43.6 -2.5 47 -1.2 2.2 0.8 2.7 1.7 2.7 4.3 0 5.3 -5.7 39.3 -6.9 41.7 -0.6 1.1 -2.2 2.3 -3.4 2.5 -4.5 0.9 -44.3 1.4 -46.4 0.6z m47.5 -3.4 c1.3 -1.3 7.2 -34 7.2 -40.1 0 -2 -0.6 -3.5 -1.5 -3.9 -2.1 -0.8 -43.5 0.5 -46.1 1.5 -2.3 0.8 -3.2 4.1 -6.4 24.3 -2.6 15.7 -2.4 18.8 1 19.7 4.5 1.1 44.4 -0.2 45.8 -1.5z"/>
  <path d="M413 197.7 c0 -0.2 1.5 -1.6 3.3 -3.3 l3.2 -2.9 -2.9 3.3 c-2.8 3 -3.6 3.7 -3.6 2.9z"/>
  <path d="M407.7 194.7 c1 -1.3 3.6 -3.8 5.8 -5.7 3 -2.5 2.6 -1.9 -1.5 2.3 -5.7 6 -7.4 7.3 -4.3 3.4z"/>
  <path d="M406.7 187.5 c1.7 -2.2 4.1 -4.9 5.4 -6 1.7 -1.5 1.5 -0.9 -0.8 2 -1.7 2.2 -4.1 4.9 -5.4 6 -1.7 1.5 -1.5 0.9 0.8 -2z"/>
  <path d="M598.5 212 c3.1 -0.8 11.2 -1.3 10.4 -0.6 -0.2 0.2 -3.3 0.6 -6.9 0.9 -4.1 0.3 -5.4 0.2 -3.5 -0.3z"/>
  <path d="M347 208 c0 -3.9 3.8 -9.5 11.4 -16.7 4.2 -4 8.3 -8.8 9.1 -10.7 0.9 -2.1 1.5 -6.7 1.5 -11.1 0 -5 0.6 -9.2 1.9 -12.6 l2 -5.1 -2.1 1.8 c-3.4 3.2 -5.8 9 -6.9 17.1 -1.3 9.5 -3.3 13.1 -11.3 20.5 -4.5 4.1 -7.1 7.5 -9.2 12 -2.1 4.7 -2.9 5.7 -3.2 4.1 -0.5 -3.6 4.3 -11.5 11.3 -18.3 8.1 -7.9 9.1 -9.7 10 -18 1.2 -11.4 5.2 -17.9 15.6 -25.6 6.6 -4.8 7.8 -4.2 2.8 1.4 -6.4 7.2 -8.2 12.1 -8.4 22.8 -0.2 11.3 -2.3 15.4 -12 23.9 -4.4 3.9 -7.3 7.4 -9 11.1 -2.8 5.8 -3.5 6.5 -3.5 3.4z"/>
  <path d="M113.2 195.9 c0.5 -11.5 0.4 -12.7 -1.3 -13.8 -2.9 -1.8 -2.3 -3.8 2.1 -6.3 l4 -2.3 0.2 -20 0.3 -20 8.3 -0.3 8.2 -0.3 0 15.1 c0 10.1 0.4 15 1.1 15 0.6 0 3.8 -1.5 7.2 -3.4 8.4 -4.7 30.7 -15 28.2 -13.1 -1.1 0.9 -9.9 5.6 -19.5 10.5 -22 11.1 -40 21.2 -40.3 22.5 -0.6 3 5.6 1 19.8 -6.6 16 -8.5 41.8 -20.7 40 -19.1 -0.5 0.6 -10.4 5.8 -22 11.6 -30.2 15.2 -27.5 12.9 -27.6 22.8 0 4.6 -0.4 10.3 -0.9 12.8 -0.8 4.1 -0.9 4 -0.5 -1.7 0.3 -3.5 0.2 -9 -0.1 -12.2 -0.7 -5.8 -0.7 -5.9 -3 -4.9 -2.3 1.1 -2.4 1.6 -2.6 11.2 -0.2 13.1 -0.2 13.4 -1.2 14.3 -0.5 0.4 -0.6 -4.9 -0.4 -11.8z m10.9 -39.2 c0.1 -7.3 0.3 -14.5 0.4 -16.2 0.2 -4.1 -0.4 -5.5 -2.6 -5.5 -1.8 0 -1.9 0.9 -1.9 18.5 0.1 18 0.2 18.5 2.1 17.5 1.7 -1 1.9 -2.3 2 -14.3z m5.9 9.8 l3 -1.6 0 -14.9 0 -15 -3.2 0 -3.3 0 -0.3 16.5 c-0.2 9.1 -0.1 16.5 0.3 16.5 0.3 0 1.9 -0.7 3.5 -1.5z"/>
  <path d="M273.2 199.4 c-0.2 -4.8 0.1 -6.3 1.4 -6.8 2 -0.8 8.3 -0.8 12.3 0 3.1 0.6 3.1 0.7 3.1 6.6 0 4.1 -0.3 5.7 -1.1 5.2 -0.7 -0.4 -0.9 -2.4 -0.6 -5.5 l0.6 -4.9 -7.4 0 -7.4 0 -0.4 5.8 -0.3 5.7 -0.2 -6.1z"/>
  <path d="M723.1 193.4 c-1.4 -12.6 -4.2 -26.1 -7.2 -35.4 -4.5 -13.4 -14.5 -32.8 -21.6 -41.7 -1.9 -2.4 -3 -4.3 -2.4 -4.3 1.5 0 11.2 15.2 16.4 25.5 5.7 11.4 10 23.5 12.5 35.6 2.3 10.7 4.6 28.1 4 30 -0.2 0.7 -1 -3.7 -1.7 -9.7z"/>
  <path d="M73 193.2 c-0.3 -3 -0.3 -5.6 -0.1 -5.8 0.2 -0.2 4.9 -0.4 10.3 -0.4 l9.8 0 0 4.9 c0 2.8 -0.4 5.3 -1 5.6 -0.6 0.4 -1 -1.2 -1 -3.9 l0 -4.6 -8.4 0 -8.5 0 -0.3 4.8 -0.3 4.7 -0.5 -5.3z"/>
  <path d="M342 182.5 c0 -4.5 0.5 -6 2.9 -8.7 3 -3.6 6.5 -9.7 5.8 -10.4 -0.8 -0.8 -8.9 8.7 -10.3 12.3 -1.8 4.2 -2.9 3.8 -1.9 -0.7 0.7 -3 11.7 -16 13.6 -16 1.4 0 1.1 4.7 -0.6 8.6 -0.8 2 -2.8 5.2 -4.5 7 -2.5 2.9 -3 4.3 -3 8.4 0 2.8 -0.4 5 -1 5 -0.5 0 -1 -2.5 -1 -5.5z"/>
  <path d="M478.4 184.5 c1.3 -3.8 12.2 -17.9 19.2 -24.9 3.9 -3.9 10.7 -9.7 15.1 -12.8 8.4 -6.1 27.7 -16.2 32.8 -17.3 1.7 -0.3 0.7 0.4 -2.5 1.8 -10 4.4 -20.4 9.9 -28 15 -9.6 6.4 -23.9 20.8 -31.4 31.7 -3.2 4.7 -5.6 7.6 -5.2 6.5z"/>
  <path d="M738.7 174.7 c-1.2 -21.1 -5.4 -37.9 -13.8 -55 -2.1 -4.4 -3.7 -8.2 -3.4 -8.5 0.7 -0.8 8.3 16.1 11.5 25.8 1.6 4.7 3.6 12.5 4.5 17.4 1.5 9.1 3.2 31.6 2.3 31.6 -0.3 0 -0.8 -5.1 -1.1 -11.3z"/>
  <path d="M78.5 179.9 c-7.7 -0.5 -23.9 -0.8 -36 -0.8 -12.1 0.1 -22.4 0 -23 -0.1 -3.4 -0.8 10.5 -1.9 25 -1.9 19.4 0 60 2.1 61.1 3.2 0.9 0.8 -7.8 0.7 -27.1 -0.4z"/>
  <path d="M208 170.8 c-15 -10.4 -34 -24 -34 -24.4 0 -0.9 4.2 1.9 19.8 12.9 8.6 6.1 16.9 12 18.2 12.9 1.4 0.9 2.1 1.7 1.5 1.7 -0.5 0 -3 -1.4 -5.5 -3.1z"/>
  <path d="M590.7 163.8 c-6.4 -6.4 -14.7 -18.4 -14.7 -21.4 0 -0.5 1.4 1.5 3 4.5 4.4 8 7.5 12 14.3 18.3 3.4 3.2 5.9 5.8 5.5 5.8 -0.4 0 -4 -3.3 -8.1 -7.2z"/>
  <path d="M81 167.9 c-7.4 -0.3 -24 -0.7 -36.7 -0.8 -12.8 0 -23.3 -0.5 -23.3 -1 0 -1.5 11.3 -1.9 33.5 -1 12.1 0.4 30.2 1.1 40.3 1.5 10 0.4 18.5 1.1 18.8 1.6 0.6 0.9 -12.3 0.8 -32.6 -0.3z"/>
  <path d="M594.1 160.5 c-1.7 -2 -3.9 -5.2 -5 -7.3 -2.2 -4.5 -5.5 -14.2 -4.9 -14.8 0.3 -0.2 1.3 2.2 2.2 5.4 2.4 7.5 4.9 12.4 8.7 16.7 1.7 1.9 2.9 3.5 2.6 3.5 -0.3 0 -1.9 -1.6 -3.6 -3.5z"/>
  <path d="M315 159.5 c0 -2.5 1 -5.9 2.7 -9 2.4 -4.4 2.7 -5.9 2.5 -13.3 -0.2 -9.2 0.3 -10.7 5.9 -16.9 2.6 -2.8 4.1 -5.5 4.5 -8.3 0.8 -4.8 2.3 -5.3 2.5 -0.7 0.3 6.5 -0.2 10.3 -2.3 15.5 -1.9 4.9 -2 5.9 -0.8 12.2 0.7 3.7 1 8.1 0.6 9.6 -1.1 4.4 -5.8 14.4 -6.7 14.4 -1.3 0 -1.2 -0.4 1.7 -7.3 2.8 -6.6 3.2 -10.9 1.9 -19.4 -0.6 -4.3 -0.4 -6.2 1.5 -10.8 1.2 -3.1 2.1 -5.8 1.8 -6 -0.2 -0.3 -2.2 1.4 -4.4 3.6 l-3.9 4 -0.1 9.7 c0 8.6 -0.3 10.3 -2.7 14.7 -1.5 2.7 -2.7 5.9 -2.7 7 0 1.1 -0.5 2.7 -1 3.5 -0.7 1.1 -1 0.4 -1 -2.5z"/>
  <path d="M642 146.2 c-10.2 -10.5 -19.3 -22 -24.7 -31.2 -3.7 -6.4 -1.5 -3.8 4.5 5.2 7 10.4 14 18.7 23.9 28.6 4.6 4.5 8 8.2 7.6 8.2 -0.4 0 -5.5 -4.8 -11.3 -10.8z"/>
  <path d="M99.6 149 c-2.3 -2.8 -5.6 -11.4 -5.6 -14.7 0 -0.7 0.9 -4 2.1 -7.3 1.1 -3.3 1.9 -6.5 1.7 -7.1 -0.2 -0.6 -2.2 1.5 -4.3 4.7 -3.8 5.5 -4 6.4 -4 13.2 0 7.9 -0.9 9.2 -2.4 3.5 -1.5 -5.2 0.1 -11 5 -18.5 3.9 -5.9 4.1 -6.6 3.6 -12 -0.3 -3.2 -0.1 -5.8 0.4 -5.8 1.2 0 3.9 9.7 3.9 14.2 0 2.1 -0.7 5.5 -1.5 7.5 -2.4 5.8 -1.9 12.3 1.5 18.8 1.7 3.2 2.9 6 2.6 6.2 -0.2 0.2 -1.5 -1 -3 -2.7z"/>
  <path d="M242 151.3 c0 -0.6 0.9 -2.8 2.1 -4.7 3.5 -5.9 2.8 -12.7 -2.1 -22.2 -4.9 -9.3 -4.9 -12.1 0 -22.5 1.9 -4 3 -8 3 -10.7 0 -4.8 -1.4 -4.9 -2.4 -0.2 -0.3 1.7 -2.5 6.3 -4.8 10.2 -5 8.4 -6 14.9 -3.4 22.4 0.9 2.6 1.6 6.2 1.6 7.9 0 3.5 -6.4 17.5 -8 17.5 -1 0 -0.6 -1.2 4.1 -11.5 l2.2 -5 -2.2 -8.7 c-2.2 -8.2 -2.2 -8.9 -0.7 -14 0.8 -2.9 3 -7.5 4.7 -10.3 4.5 -6.9 5.9 -12.2 5.2 -19.1 -0.8 -7.1 0.7 -6.6 3.6 1.2 3 7.9 2.7 13.6 -1 21.4 -4.2 8.9 -4.1 13.1 0.4 21.2 4.3 7.6 5.3 12.8 3.8 18.6 -1.1 4 -6 10.9 -6.1 8.5z"/>
  <path d="M286 148 c-2.2 -5.3 -0.8 -12.8 3.4 -19.2 l3.8 -5.7 -1.6 -4.7 c-0.9 -2.6 -1.6 -7.3 -1.6 -10.3 -0.1 -4.6 -0.3 -5.3 -1.2 -3.7 -0.6 1.1 -1.1 5.6 -1.2 10.1 -0.1 7.9 -0.3 8.4 -4.3 14.5 -5.1 7.5 -5.9 11.1 -3.9 16.8 1.8 5.1 0.2 5.8 -2 0.7 -2.7 -6.6 -2 -9.8 4.4 -19.3 3.2 -4.7 3.5 -5.8 3.4 -11.4 -0.1 -3.4 0.3 -7.8 0.8 -9.8 1 -3.6 4.5 -9 5.8 -9 0.4 0 0.7 3.9 0.7 8.7 0 4.9 0.6 10.9 1.4 13.5 l1.5 4.7 -4 5.8 c-3.7 5.6 -3.9 6.1 -3.8 13.6 0.1 4.2 0 7.7 -0.1 7.7 -0.2 0 -0.8 -1.4 -1.5 -3z"/>
  <path d="M207 144.9 c0 -3.8 1 -7.3 3.7 -13.3 3.1 -6.8 3.8 -9.5 4.3 -17.1 0.3 -5 0.9 -9 1.5 -9 0.6 0.1 2.1 2.1 3.5 4.5 2.7 5 3.1 12 1.1 18.1 -1.5 4.5 -1.7 10.2 -0.8 16.4 0.7 4.5 0.6 4.8 -0.7 3.2 -2.4 -3.1 -2.9 -10.6 -1.2 -18.1 1.9 -8.2 2 -14.3 0.2 -17.5 -1.3 -2.3 -1.4 -1.9 -1.8 5 -0.3 5.9 -1.2 9.1 -4.1 15.5 -2.6 5.7 -3.7 9.6 -3.7 12.8 0 2.5 -0.4 4.6 -1 4.6 -0.5 0 -1 -2.3 -1 -5.1z"/>
  <path d="M346.8 148.7 c-1.4 -3.3 -0.8 -9.7 1.1 -13.6 1.1 -2.1 4.8 -6.2 8.2 -9.2 6.4 -5.6 8.9 -9.7 8.9 -14.9 0 -4.7 1.7 -3.5 2.3 1.6 0.6 6 -0.5 10.7 -4 15.5 -4.6 6.6 -7.3 12.1 -7.3 15.1 0 1.5 -0.4 2.8 -1 2.8 -1.5 0 -1.2 -5.6 0.5 -9.6 0.8 -2 2.8 -5.2 4.3 -7.2 6 -7.7 5.6 -8.6 -1.3 -2.6 -8.1 7.1 -9.8 10 -10.5 17.9 -0.3 4 -0.7 5.4 -1.2 4.2z"/>
  <path d="M299 145.7 c0 -0.2 0.9 -3 2 -6.3 3.5 -9.9 4.4 -19.4 2.6 -26.5 -2.1 -8.2 -2 -14.7 0.3 -18.5 1.9 -3 3.4 -4.4 12.4 -11 5.6 -4.2 8.4 -9.2 9.3 -16.8 0.4 -3.1 1.1 -5.6 1.5 -5.6 1.3 0 2.4 5 2.4 11 -0.1 6.3 -2.1 10.3 -10.2 20.3 -5 6.2 -5.9 10.2 -3.9 17 1.3 4.2 -1 3.3 -2.4 -0.9 -1.9 -5.8 -0.7 -10.8 4.2 -17 6.8 -8.8 9.8 -13.6 9.8 -15.9 -0.1 -1.6 -0.4 -1.5 -1.7 1 -2.3 4.4 -5.1 7.3 -11.6 11.7 -6.5 4.4 -9.7 8.8 -9.7 13.3 0 1.7 0.7 6.3 1.7 10.3 1.4 6.2 1.5 8.5 0.6 15 -1.2 8.3 -4.8 19.2 -6.4 19.2 -0.5 0 -0.9 -0.2 -0.9 -0.3z"/>
  <path d="M617.7 141.8 c-6.3 -7.8 -12.9 -23.5 -12.6 -30.3 0 -1.1 0.9 1.5 1.9 5.7 2.2 8.8 6.2 17.3 11.4 24.1 4.5 5.9 3.9 6.2 -0.7 0.5z"/>
  <path d="M69.3 138.8 c0.3 -2.9 1.7 -7.9 3.1 -11.2 3 -6.8 3.2 -11.7 1 -21.3 -1.8 -7.9 -1.4 -11 2.7 -19.7 3.8 -8.2 4.6 -15.2 2.5 -23.2 -2.3 -9 -2.1 -14.6 1 -20.6 2.2 -4.3 2.5 -6.1 2.1 -10.7 -0.2 -3.1 -0.8 -6.4 -1.2 -7.3 -0.4 -1 -0.3 -1.8 0.3 -1.8 1.5 0 6.9 11 7.6 15.5 0.4 2.4 0.1 6.3 -0.9 9.8 -1.9 7.2 -1.9 10.7 0 17.7 2.1 8 1.9 14.6 -1 22.8 -2.2 6.2 -2.5 8.9 -2.5 19.9 0 9.6 -0.5 14.7 -2.1 20.3 -1.2 4.8 -1.8 9 -1.4 11.5 0.6 3.7 0.5 3.9 -1 2.1 -2 -2.6 -1.9 -6.7 0.5 -15 1.6 -5.6 1.9 -9.6 1.8 -20 -0.2 -12.1 0 -13.6 2.5 -19.9 3.1 -7.8 3.3 -12.4 1.1 -21.1 -1.1 -4.2 -1.4 -8 -1 -12.1 1.7 -15.6 1.8 -19.5 0.7 -19.5 -0.6 0 -1.1 0.9 -1.1 2 0 1.2 -1.1 4.3 -2.5 7 -2.9 5.7 -3.1 9.9 -0.9 18.4 2.2 8.5 1.4 16.8 -2.5 25.2 -3.3 7.1 -4.1 14.7 -2 20.1 2.1 5.4 1.5 14.3 -1.5 20.7 -1.5 3.3 -3 8.1 -3.3 10.8 -0.3 2.6 -1 4.8 -1.6 4.8 -0.6 0 -0.8 -2.1 -0.4 -5.2z"/>
  <path d="M426 142.1 c-2.4 -0.7 -2.5 -1 -2.8 -9.8 l-0.3 -9.1 10.1 -0.7 c5.6 -0.4 10.4 -0.4 10.8 0 0.4 0.4 0.7 5 0.7 10.3 l0 9.7 -8 0.2 c-4.4 0.1 -9.1 -0.2 -10.5 -0.6z m17 -9.7 l0 -8.7 -9.2 0.7 c-5.1 0.4 -9.4 0.9 -9.6 1.1 -0.2 0.2 -0.1 3.8 0.3 7.9 l0.7 7.6 8.9 0 8.9 0 0 -8.6z"/>
  <path d="M467.6 138.4 c-0.3 -0.9 -0.6 -4.6 -0.6 -8.4 0 -8.9 0.5 -10 4.4 -10 7.8 0 13.6 1.3 13.5 2.9 0 1 -0.2 1.2 -0.6 0.4 -0.3 -0.9 -2.9 -1.3 -8.1 -1.3 l-7.7 0 0.3 8 0.4 8 5.4 0 c3 0 5.4 0.5 5.4 1 0 0.6 -2.6 1 -5.9 1 -4.4 0 -6 -0.4 -6.5 -1.6z"/>
  <path d="M52 133.3 c0 -3.2 -0.8 -8.9 -1.7 -12.6 -1.7 -6.5 -1.7 -7 0.1 -11.5 3 -7.8 3.1 -11.3 0.2 -17.4 -3.4 -7.2 -3.3 -11.8 0.4 -19.7 4.2 -8.9 4.7 -13.3 2.1 -19.9 -2.7 -6.7 -2.7 -14.1 -0.1 -19.1 1.6 -3.3 4.6 -5.8 5.6 -4.8 0.2 0.1 -0.1 2 -0.6 4.2 -1.1 4.8 -0.6 7.2 3.2 15.1 4.4 9.3 4.6 14.3 0.9 24.2 -3.6 9.8 -3.8 11.9 -1.1 19.5 2.5 7.1 2.5 11 0 16.6 -2.5 5.4 -2.5 10 0 17.1 2 5.8 2.6 12.5 1.1 13.4 -0.5 0.3 -1.2 -1.8 -1.5 -4.7 -0.4 -2.8 -1.6 -8 -2.8 -11.4 l-2.1 -6.3 2.8 -8.3 2.8 -8.4 -2.2 -6.3 c-2.8 -8.5 -2.7 -11.9 1 -22.4 3.5 -10.2 3.4 -12.7 -1.1 -22.2 -1.6 -3.4 -3.2 -8.1 -3.6 -10.5 -0.6 -3.4 -0.9 -3.9 -1.5 -2.4 -1.4 3.6 -0.9 10.4 1.1 15.5 2.9 7.3 2.6 12 -1.5 21 -4 8.9 -4.3 12 -1.5 17.5 4.2 8.2 4.3 9.6 1.5 17.8 l-2.6 7.6 2.1 7.6 c1.5 5.3 1.9 8.9 1.5 11.6 -1 6.1 -2.5 5.7 -2.5 -0.8z"/>
  <path d="M186.6 135.4 c-1.2 -3.3 -0.5 -13 1.3 -16.9 1 -2.2 3.9 -6.7 6.5 -9.9 7 -8.5 7.8 -10.9 7 -21.9 -0.6 -8.2 -0.4 -9.7 1.6 -13.9 1.2 -2.7 2.6 -4.8 3.1 -4.8 0.5 0 0.9 2.8 0.9 6.3 0 3.5 0.7 8.8 1.6 11.8 2.2 7.4 1.4 15.4 -2.1 21.6 -5.9 10.2 -6.5 12 -6.5 19.3 0 7.5 -1.4 9.4 -2.3 3.2 -1.2 -7.1 0.3 -12.2 6.7 -23.4 3.5 -6.1 4.3 -12.8 2.2 -19.7 -0.9 -3 -1.6 -7.3 -1.7 -9.5 0 -3.8 -0.1 -3.9 -1 -1.6 -0.7 1.5 -0.8 6.1 -0.4 11.6 0.8 10.8 -0.1 13.6 -7.1 22.2 -6.9 8.4 -8.8 13.2 -8.1 20.9 0.4 5.9 -0.4 8.2 -1.7 4.7z"/>
  <path d="M162.8 129.3 c-1.9 -4.4 -1.4 -12.3 0.9 -16.8 3 -5.8 3.7 -10.7 2.2 -15.2 l-1.3 -3.8 -0.8 5.9 c-0.5 4.3 -1.9 7.9 -4.9 12.8 -3 4.9 -4.3 8.4 -4.7 11.9 -0.7 7.3 -2.6 7.5 -2 0.2 0.3 -4.9 1.2 -7.4 4.9 -13.4 4.1 -6.8 4.4 -7.9 4.6 -14.9 0.1 -4.1 0.2 -7.7 0.2 -7.9 0.3 -1.2 3.7 3 5.2 6.4 2.5 5.4 2.3 11 -0.5 17.1 -3.9 8.4 -4.1 11.3 -1.1 18.7 0.4 1 0.3 1.7 -0.4 1.7 -0.6 0 -1.7 -1.2 -2.3 -2.7z"/>
  <path d="M255.6 130.5 c-1.7 -4.4 -0.5 -11.9 3 -19.8 3.1 -6.8 3.5 -8.6 3 -12.6 -2.4 -17.9 -2 -20 5.9 -32 3 -4.6 5.5 -8.9 5.5 -9.7 0 -0.7 0.5 -1.6 1.2 -2 1.7 -1 0.2 9.4 -2.3 16.4 -2.2 6.4 -2.6 14.3 -0.9 21.7 1.3 6 0.7 10.2 -3.1 20.6 -1.6 4.4 -2.9 10 -2.9 12.4 0 2.5 -0.4 4.5 -1 4.5 -2.1 0 -1 -10 2 -18.2 3.3 -8.9 3.7 -14.3 1.9 -24.2 -0.9 -5 -0.9 -7.1 0.4 -11.6 0.8 -3 1.8 -6.6 2.2 -8 l0.7 -2.5 -2.1 2.5 c-6.3 7.4 -7.4 12.7 -5.7 29 0.8 7.3 0.7 7.7 -2.8 15 -3.1 6.3 -3.6 8.4 -3.5 13.2 0.3 5.9 -0.4 8.1 -1.5 5.3z"/>
  <path d="M24.1 127.1 c-3.9 -7.6 -2.5 -14.7 4.8 -24.3 2.2 -3 4.8 -7.1 5.6 -9.2 1.9 -4.5 2.1 -13.2 0.5 -18.1 -2.3 -6.9 -0.7 -7.3 3.5 -1.1 3.7 5.4 4 6.5 3.9 12.5 0 5.5 -0.7 8.2 -4.2 16.2 -4.7 10.8 -5 13.5 -2.2 19.8 2.4 5.3 2.5 5.7 0.3 4 -2.3 -2 -4.3 -7.2 -4.3 -11.4 0 -1.9 1.9 -7.9 4.2 -13.3 4.2 -10 5.5 -18.5 3.3 -22.4 -0.7 -1.2 -1 0.2 -1.1 5 -0.1 7.4 -1.7 11.6 -8 19.7 -6.6 8.7 -7.8 14 -4.8 21.5 2.2 5.4 1.1 6.2 -1.5 1.1z"/>
  <path d="M342.3 109.7 c-0.3 -17.4 0.3 -18.6 10.7 -24.1 6.2 -3.3 8.6 -6.2 10.5 -12.8 1.1 -3.9 3 -7.3 6.1 -10.7 5.2 -5.8 6.4 -9.1 6.4 -17.8 0 -3.5 0.4 -6.3 0.8 -6.3 1.1 0 3.2 11.4 3.2 16.9 0 4.4 -2.1 9.2 -6.4 15 -1.6 2.1 -2.6 4.8 -2.6 6.7 0 6.8 -2.7 10.8 -11.8 17.6 -6.5 4.8 -8.4 8.8 -7.6 15.5 0.5 3.6 0.4 4.5 -0.5 3.7 -0.6 -0.6 -1.4 -3.3 -1.7 -6 -0.7 -6.2 1.4 -9.7 8.9 -15.3 7.3 -5.3 9.5 -8.3 10.2 -13.9 0.7 -5.3 1.2 -6.6 6 -14.2 1.9 -3 3.5 -6.6 3.4 -8 l0 -2.5 -1 2.4 c-0.5 1.4 -3 4.8 -5.5 7.7 -2.8 3.3 -5.1 7.3 -6 10.6 -1.9 6.2 -5.2 10.1 -11.4 13.3 -2.5 1.3 -5.6 3.5 -7 5 -2.4 2.6 -2.5 3.2 -2.5 16 0 7.6 -0.4 13.8 -1 14.4 -0.7 0.7 -1.1 -3.7 -1.2 -13.2z"/>
  <path d="M672.1 116.1 c-6 -7.2 -17.1 -15.8 -25.9 -20.2 -8.3 -4.1 -9.2 -5.1 -1.8 -1.9 9.8 4.2 22.6 14.1 29.7 23.1 4.4 5.6 2.9 4.8 -2 -1z"/>
  <path d="M138.4 118 c0.2 -1.4 1 -4.5 1.6 -6.9 1.2 -4.9 0.7 -8.3 -2.1 -14.5 -2.5 -5.6 -2.4 -11.3 0.6 -19.3 1.4 -3.7 2.4 -6.5 2.1 -6.2 -2.7 2.8 -9.8 12.9 -10.2 14.6 -0.8 2.9 -0.1 9.6 1.6 15.3 1.7 6.1 0.6 11.5 -3.1 15.3 -3.8 3.8 -4.9 2.8 -1.6 -1.5 3.9 -5.1 4.2 -7.9 1.7 -16.6 -2.7 -9.4 -2 -13.5 3.9 -20.8 5.5 -7 7.2 -10.9 7.6 -17 0.4 -6.8 1.8 -7.2 2.7 -0.8 1 6.1 0.2 11 -2.8 19.1 -3 8 -3 10.5 0.1 18.1 3.4 8.5 3 16.7 -1.1 21.7 -1.5 1.9 -1.5 1.9 -1 -0.5z"/>
  <path d="M116 113.8 c2.9 -6.5 2.5 -10.4 -1.6 -17.2 -4.5 -7.1 -4.5 -10.2 -0.4 -15.9 4.5 -6.3 4.8 -10.1 1.4 -19.6 -2.7 -7.8 -2.8 -8 -1.2 -13.5 1.9 -6.9 0.2 -6.1 -3.7 1.7 -3.2 6.4 -3.2 10 0 15.9 3.5 6.6 3.2 9.6 -1.5 15.9 -3.8 5 -5.3 8.7 -6.3 14.9 l-0.3 2.5 -0.9 -2.8 c-1.1 -4 0.7 -9.3 5.5 -15.7 2.2 -2.9 4 -6.2 4 -7.1 0 -1 -1.1 -3.9 -2.5 -6.5 -3.1 -5.9 -3.2 -11.4 -0.1 -17.9 2.1 -4.7 10.2 -13.3 11.3 -12.1 0.3 0.2 -0.5 3.1 -1.7 6.2 -2.8 7.5 -2.8 12.1 0 18.9 3 7.4 2.4 13.6 -1.8 20.3 -1.8 2.7 -3.2 5.8 -3.2 6.8 0 1.1 1.4 4 3.2 6.4 4.2 5.7 5.1 14.7 1.9 19.8 -3 4.6 -4.3 4 -2.1 -1z"/>
  <path d="M653 111.4 c-2.5 -2.5 -7.6 -6.1 -11.4 -8 -3.8 -1.8 -6.3 -3.4 -5.7 -3.4 3.6 0 17.9 9.5 20.7 13.7 2.1 3.3 1.4 2.8 -3.6 -2.3z"/>
  <path d="M523.5 111.7 c8.3 -7.4 25.7 -15.5 37 -17.1 2.2 -0.3 0.2 0.5 -4.5 1.8 -10.9 3.1 -16.9 5.8 -25 11.2 -3.6 2.4 -7.6 5.1 -9 6 -1.4 0.9 -0.7 0.1 1.5 -1.9z"/>
  <path d="M596.6 105.2 c4.7 -4.1 23.4 -14.5 33.6 -18.5 7.9 -3.2 19.4 -5.7 25.1 -5.6 l4.2 0.1 -3.5 0.8 c-1.9 0.5 -7.9 1.8 -13.4 3 -7.6 1.7 -12.9 3.8 -23.3 9 -7.4 3.8 -16.1 8.7 -19.3 11 -7.4 5 -8.8 5.1 -3.4 0.2z"/>
  <path d="M631.6 104.9 c-3.3 -2.1 -6.7 -3.9 -7.7 -3.9 -1 0 -2.1 -0.5 -2.5 -1.1 -1.6 -2.6 9.2 2.4 14.1 6.5 4.2 3.6 3 3.1 -3.9 -1.5z"/>
  <path d="M557 105.1 c1.4 -0.4 5.7 -1 9.5 -1.4 4.5 -0.3 5.8 -0.3 3.5 0.3 -4.8 1.1 -16.1 2.1 -13 1.1z"/>
  <path d="M576.3 104.3 c1.5 -0.2 3.7 -0.2 5 0 1.2 0.2 0 0.4 -2.8 0.4 -2.7 0 -3.8 -0.2 -2.2 -0.4z"/>
  <path d="M696.2 99.3 c-2.9 -2.6 -9.4 -6.8 -14.5 -9.4 -9.7 -5.1 -11 -6.2 -3.2 -2.9 6.2 2.7 17.3 10 20.9 13.9 4.2 4.4 3 3.8 -3.2 -1.6z"/>
  <path d="M181.7 97.2 c0.4 -3.9 0 -7.7 -1.1 -11.4 -2 -6.8 -2 -12.8 -0.2 -17.1 0.7 -1.8 4.1 -6.5 7.5 -10.6 7.7 -9.2 8.9 -11.5 9.7 -18.5 0.4 -3.1 1 -5.9 1.4 -6.1 1.3 -0.8 3 5.5 3 11.1 0 6.7 -1 9.3 -6.6 17.6 -4.3 6.2 -4.6 7 -4.2 12 0.2 2.9 0.8 6.1 1.3 7.2 0.6 1.4 0.5 1.8 -0.6 1.4 -2.1 -0.7 -4.1 -7.7 -3.4 -12 0.4 -2 2.4 -6.2 4.6 -9.2 5 -7 6.9 -11.5 6.8 -16.3 l0 -3.8 -1.4 4.5 c-0.8 2.5 -3.6 7.1 -6.2 10.4 -11.9 14.6 -12.9 17.4 -9.9 27.6 1.6 5.5 2.1 12.7 1 16.8 -1.2 4.3 -2.2 2.1 -1.7 -3.6z"/>
  <path d="M665.9 98.3 c-0.8 -0.9 -4.1 -3.4 -7.3 -5.5 -3.3 -2.1 -5.5 -3.8 -5 -3.8 1.6 0 9.7 5.5 12.3 8.4 1.4 1.4 2.2 2.6 1.9 2.6 -0.3 0 -1.2 -0.8 -1.9 -1.7z"/>
  <path d="M679.5 97 c-1 -1.6 -9.5 -6.3 -14.9 -8.2 -3.9 -1.4 -4.2 -1.6 -1.6 -1.2 1.9 0.4 5.8 1.7 8.5 3.1 5.5 2.7 11.7 7.3 9.8 7.3 -0.6 0 -1.5 -0.4 -1.8 -1z"/>
  <path d="M585.7 95.3 c1.8 -0.2 5 -0.2 7 0 2.1 0.2 0.7 0.4 -3.2 0.4 -3.8 0 -5.5 -0.2 -3.8 -0.4z"/>
  <path d="M604.5 91 l-7 -0.6 6.5 -0.2 c3.6 -0.1 7.2 0.3 8 0.8 0.8 0.5 1.1 0.9 0.5 0.8 -0.5 -0.1 -4.1 -0.4 -8 -0.8z"/>
  <path d="M688 86.2 c-10.5 -8.6 -29.4 -17.2 -43 -19.6 -4.5 -0.8 -8.4 -1.7 -8.8 -2.1 -1.2 -1.3 11.2 0.5 19 2.6 12.9 3.6 33 14.7 35.8 19.9 1.4 2.6 1.1 2.5 -3 -0.8z"/>
  <path d="M567 86.5 c3.6 -0.8 9.2 -1.6 12.5 -1.9 3.9 -0.3 2.3 0.2 -4.5 1.4 -11.8 2.1 -18 2.5 -8 0.5z"/>
  <path d="M148.6 86.2 c-1.3 -2.1 0.4 -7.3 5.1 -16.1 4.5 -8.2 4.5 -8.5 3.7 -14.5 -1.7 -12.7 0.3 -21.2 5.8 -25 3.4 -2.4 3.8 -2 2.2 2.7 -2.2 6.1 -2 12.4 0.4 19 2.9 7.5 2.8 9.4 -0.8 18.4 -1.6 4.1 -3 8.8 -3 10.4 0 1.6 -0.4 2.9 -1 2.9 -1.7 0 -1.1 -7.2 1 -11.8 4.1 -9 4.3 -11.3 1.5 -19.9 -1.9 -5.8 -2.5 -9 -2 -12.3 l0.5 -4.5 -1.6 2.9 c-1.4 2.4 -1.5 4.8 -1 14 0.6 10.1 0.5 11.4 -1.3 14.6 -4.8 8.1 -6.5 11.7 -7.6 16 -0.7 2.8 -1.4 4 -1.9 3.2z"/>
  <path d="M612.5 85 l-6 -0.7 5.5 0 c3 -0.1 6.6 0.3 8 0.7 3 1 1.3 1 -7.5 0z"/>
  <path d="M543 56.5 c0 -17.7 0.4 -27.5 1 -27.5 0.6 0 1 9.8 1 27.5 0 17.7 -0.4 27.5 -1 27.5 -0.6 0 -1 -9.8 -1 -27.5z"/>
  <path d="M223.6 81.7 c-0.5 -1 -0.6 -4.4 -0.4 -7.7 0.4 -5.2 1.1 -6.9 6.1 -14.2 6.8 -9.9 8.1 -14.7 6.1 -22.1 -0.8 -2.9 -1.4 -6.8 -1.5 -8.7 0 -3.3 -0.1 -3.4 -1 -1.1 -0.6 1.4 -0.7 5.4 -0.3 9.2 0.9 9 0.2 11 -5.6 17.4 -6.4 7.1 -8.9 12.1 -9.7 19.5 -0.6 6.4 -2.3 7.3 -2.3 1.1 0 -7.3 2.7 -13.4 9 -20.6 3.3 -3.7 6.1 -7.5 6.2 -8.4 0.1 -0.9 0.2 -5.7 0.2 -10.8 0.1 -7.7 0.4 -9.6 2.2 -12 1.2 -1.5 2.8 -2.9 3.7 -3.1 1.3 -0.3 1.4 0.3 0.5 4 -0.7 3.3 -0.6 6.1 0.8 12.1 1.6 7.3 1.6 8.1 0 13.2 -0.9 2.9 -3.6 8 -5.9 11.2 -6.1 8.3 -6 8.1 -6.7 15.8 -0.4 4.7 -0.9 6.4 -1.4 5.2z"/>
  <path d="M569.5 81.6 c2.8 -0.8 7 -1.4 9.5 -1.4 4.5 0.1 4.5 0.1 -1 0.8 -3 0.4 -7.3 1 -9.5 1.3 -3.5 0.5 -3.3 0.4 1 -0.7z"/>
  <path d="M696.5 79.8 c-0.4 -1.8 -1.6 -5 -2.7 -7.1 -2.9 -5.8 -3.9 -8.7 -2.8 -8.7 1.1 0 6.7 11.5 7.5 15.8 0.4 1.9 0.3 3.2 -0.3 3.2 -0.6 0 -1.4 -1.5 -1.7 -3.2z"/>
  <path d="M630 77.9 c-4.1 -2.1 -10 -4.5 -13 -5.4 -5.3 -1.5 -5.3 -1.5 -1.1 -1 4.4 0.6 16.9 5.9 20.6 8.8 2.8 2.3 2 2 -6.5 -2.4z"/>
  <path d="M586.3 79.3 c1.5 -0.2 3.9 -0.2 5.5 0 1.5 0.2 0.2 0.4 -2.8 0.4 -3 0 -4.3 -0.2 -2.7 -0.4z"/>
  <path d="M573.2 78.5 c1.5 -1.6 12.7 -3.5 23.3 -3.9 l11 -0.5 -10 0.9 c-9.6 0.8 -19.9 2.5 -23.4 3.7 -0.9 0.4 -1.3 0.3 -0.9 -0.2z"/>
  <path d="M557.8 69.5 c-1 -1 0.3 -37.8 1.3 -39 1 -1 1 33.8 0 37.3 -0.3 1.3 -0.9 2 -1.3 1.7z"/>
  <path d="M489.9 56.8 c7.7 -3.8 12.2 -13.8 9 -20.1 -0.6 -1.2 -2.7 -3.7 -4.7 -5.6 l-3.7 -3.3 3.3 2.2 c7.8 5.2 9.3 14.2 3.7 21.5 -2.9 3.9 -8 7.5 -10.5 7.5 -0.8 0 0.5 -1 2.9 -2.2z"/>
  <path d="M500.8 53.7 c2.7 -3 4.2 -5.6 4.3 -7.4 0 -1.6 0.5 -3.7 1 -4.8 0.6 -1.4 0.7 -0.6 0.3 2.5 -0.8 6 -2.7 9.4 -6.6 12.1 -3.1 2.1 -3 2 1 -2.4z"/>
  <path d="M519.8 53.3 c4.9 -6.3 6.5 -10.9 5.9 -16.8 -0.4 -3.4 -0.3 -4.2 0.3 -2.5 2.1 6.4 -0.9 15.8 -6.7 21.1 -2.4 2.1 -2.3 2 0.5 -1.8z"/>
  <path d="M510.2 51 c2.4 -4.7 2.9 -11 1.5 -16.5 -0.5 -2.1 -0.5 -2.5 0.2 -1.5 3.1 4.6 2 14.9 -2 20 -1.7 2.1 -1.6 1.8 0.3 -2z"/>
  <path d="M435.9 42.3 c1.6 -3.3 1.3 -5.4 -1.1 -8 -1.2 -1.3 -1.9 -2.3 -1.5 -2.3 0.3 0 1.5 1 2.7 2.2 2.4 2.6 2.6 5.7 0.4 8.4 -1.5 1.8 -1.5 1.8 -0.5 -0.3z"/>
 </g>
</svg>