<?xml version="1.0" encoding="utf-8"?>
<!DOCTYPE svg PUBLIC "-//W3C//DTD SVG 1.0//EN" "http://www.w3.org/TR/2001/REC-SVG-20010904/DTD/svg10.dtd">
<svg version="1.0" xmlns="http://www.w3.org/2000/svg" width="777px" height="516px" viewBox="0 0 777 516" preserveAspectRatio="xMidYMid meet">
 <g fill="#000000">
  <path d="M630 500.8 c0 -1.7 7.9 -16.3 12.7 -23.5 7.4 -11.3 25.2 -27.1 39.3 -35.1 8.1 -4.6 17.5 -6.5 29 -5.9 12.7 0.6 17 2.7 28.3 13.7 4.8 4.7 8.7 8.4 8.7 8.3 0 -0.1 -1.1 -3.3 -2.5 -6.9 -2.6 -6.9 -6.9 -11.8 -13.9 -15.6 -1.7 -0.9 -2.7 -1.7 -2.3 -1.8 1.5 0 5.2 2.2 8.6 5.4 l3.3 3.1 -2.5 -5 c-2.6 -5.3 -9.7 -15.2 -14.6 -20.4 -2.7 -2.9 -3.4 -3.1 -10.8 -3.3 l-7.8 -0.2 7.3 -0.5 7.3 -0.6 -5 -4.9 -5 -4.9 -7.8 0.6 c-4.3 0.3 -8.9 0.9 -10.3 1.2 l-2.5 0.6 2.5 -1.1 c1.4 -0.6 5.8 -1.4 9.8 -1.8 l7.3 -0.7 -11 -10.3 -11 -10.3 -4.6 1.2 c-2.5 0.6 -5 2 -5.5 2.9 -3.8 7.1 -46.3 32.8 -69.5 42.1 -11.4 4.5 -29.6 8.9 -37.1 8.9 -5.1 0 -6.8 -0.4 -8.9 -2.3 -5.6 -4.7 -3.9 -14.8 3.9 -23.4 3 -3.4 3.5 -4.5 3 -7.2 -0.9 -4.1 -2.6 -4 -10.1 0.9 -8.3 5.5 -19.8 18 -25.2 27.4 -6.3 11.1 -14.2 30.5 -20 49.5 -2.8 9 -5.3 16.6 -5.6 16.9 -1.9 1.9 -1.2 -2.6 2.5 -15 10.9 -37.2 24.3 -62.6 39.4 -74.9 4.6 -3.7 14.1 -9.4 17.3 -10.5 0.2 0 -0.8 -3.6 -2 -7.9 l-2.4 -7.8 -13.4 -0.1 c-12.3 -0.1 -13.9 -0.3 -19.1 -2.8 -8.3 -3.9 -13.9 -9.6 -19.9 -20.4 -7 -12.5 -7.7 -12.4 -5.2 1.1 0.3 1.7 1.7 5.1 3.1 7.8 1.4 2.6 2.3 4.9 2 5.2 -1 1 -12.5 -7.3 -15.6 -11.2 -1.7 -2.2 -4.5 -6.9 -6.2 -10.4 -3.5 -7.4 -3.9 -6.7 -1 1.5 2.2 6.6 4.6 10.9 10.3 18.4 2.2 2.9 3.7 5.5 3.4 5.8 -0.9 0.9 -10.6 -4.5 -14.9 -8.4 -2.2 -2 -5.4 -6.1 -7.2 -9.2 l-3.1 -5.5 -0.3 4.7 c-0.2 2.6 0.1 6.4 0.7 8.3 1.4 5.1 -0.5 4.2 -5.1 -2.6 -11.5 -16.7 -14.9 -41.9 -9.8 -71.4 2.4 -14.4 7.9 -40 13.5 -63 3.6 -14.7 6.8 -32.5 6 -33.3 -0.7 -0.7 -4.3 7.3 -6.8 15.3 -1.4 4.4 -3.7 14.1 -5.2 21.5 -1.4 7.4 -4.8 20.3 -7.5 28.5 -5.3 16.5 -8.5 34 -7.7 42.2 0.6 5.8 -0.7 8.2 -1.7 3.2 -1.9 -9.5 0.6 -25.5 7 -44.9 2.4 -7.5 5.5 -19 6.8 -25.6 6.8 -33.5 12.5 -45.8 28.8 -63 17.5 -18.4 38.5 -33.8 66.5 -48.6 11.6 -6.2 18.3 -7.8 7.7 -1.8 -33.6 18.7 -44.7 26.3 -62.9 42.6 -13.4 12 -19.9 20.3 -21.4 26.8 -2 9.1 -2.8 18.5 -1.7 19.7 0.8 0.9 0.8 1 -0.1 0.5 -2 -1.1 -1 12.6 1.6 22.6 l2.4 8.6 7.6 3.3 c8.1 3.4 16 4.2 21.4 2 2.4 -0.9 2.7 -1.5 2.7 -6 0 -5.3 -1 -8.2 -4.8 -14.4 -1.2 -2.1 -2 -4.2 -1.7 -4.8 0.4 -0.5 0.1 -0.8 -0.6 -0.7 -0.6 0.2 -1.4 -0.3 -1.7 -1.1 -0.3 -1 0 -1.1 0.9 -0.5 1.2 0.7 1.2 0.5 0.1 -0.9 -0.8 -0.9 -1.2 -2.2 -1 -2.9 0.7 -1.9 5.8 6.7 8.5 14 4.1 11.1 2.6 24.5 -3.9 36.2 -12.1 21.5 -12 25.9 0.6 31.9 2.2 1.1 6.5 2.6 9.4 3.2 6.2 1.5 7 3.4 1 2.4 -6.1 -1 -14.7 -5.1 -18.5 -8.8 -2.8 -2.6 -3.3 -3.8 -3.3 -7.8 0 -5.5 0.9 -7.8 6.4 -16.9 3.5 -5.8 9 -19.9 8.1 -20.8 -0.2 -0.2 -2 0.2 -4.1 0.8 -5 1.7 -12.7 0.7 -19.8 -2.4 -3.3 -1.5 -6 -2.5 -6.2 -2.4 -0.1 0.2 -0.7 2.9 -1.3 6 -0.6 3.2 -2.4 9.1 -4 13.2 -7.1 17.6 -6.3 34.1 2.3 52.9 3.6 7.8 7.9 13.6 17.4 23.7 3.7 3.9 8.1 10.1 10.9 15.3 7.1 13.4 14.9 19.1 28.6 20.8 16.8 2.2 40.3 -3 72.7 -16.1 26.4 -10.7 38.2 -20.5 48.1 -40.3 4 -7.9 6.9 -17.6 6.9 -23.4 0 -5.2 1.7 -3.8 2.2 1.9 0.6 6.1 2.8 8.4 9.2 9.3 10 1.5 19.1 -4.7 27.8 -19.2 8 -13.1 11.5 -26.6 10.4 -39.9 -0.7 -8.9 -3.1 -13.3 -8.6 -16.1 -6.1 -3.1 -7.8 -2.9 -14 1.7 -10.5 7.8 -19.8 9 -28.1 3.6 -5 -3.3 -4.3 -4.8 0.9 -1.9 7.9 4.5 14.4 4 23.3 -1.8 6 -3.8 5.9 -4.7 -0.2 -1.9 -7.2 3.2 -15.2 2.7 -23.5 -1.4 -8.8 -4.4 -14.3 -10 -20.5 -20.4 -2.7 -4.5 -4.9 -8.5 -4.9 -8.9 0 -1.8 -8.1 -10 -14.3 -14.7 -21.4 -15.7 -36.6 -36.4 -41.1 -55.6 -1.5 -6.1 -2.2 -21 -1.1 -19.8 0.3 0.3 1 4.1 1.5 8.6 2.3 20.6 14.6 42.3 32.6 57.5 11.2 9.5 57.3 38.8 61.3 39.1 0.9 0.1 3 1.1 4.8 2.4 3.3 2.3 16.2 8.6 20 9.7 4.4 1.2 1.6 -2.6 -9.8 -13.3 -13.7 -12.8 -42 -37.2 -53.9 -46.4 -4.7 -3.6 -10.1 -8.3 -12 -10.4 -3.2 -3.5 -3 -3.4 1.5 0.7 2.8 2.4 7.9 6.7 11.5 9.4 8 6 45.4 38.1 49.4 42.4 1.7 1.7 3.4 3.1 4 3.1 0.5 0 -2.8 -3.9 -7.5 -8.8 -4.6 -4.8 -13.4 -14.1 -19.4 -20.7 -6 -6.6 -16.3 -17.6 -22.9 -24.5 -10.9 -11.3 -10.7 -11.1 2.4 2 8 8 25.1 25.9 38 39.8 12.8 13.8 23.5 25.2 23.7 25.2 0.5 0 0.2 -0.4 -5.5 -9.5 -5 -7.8 -18.9 -26.1 -28.3 -37.3 -3.3 -3.9 -5.8 -7.2 -5.5 -7.2 0.7 0 13.8 15.7 21.6 25.8 3.5 4.5 6.5 8 6.8 7.8 1.5 -1.6 -19.4 -31.5 -32.5 -46.4 -4.2 -4.8 -5.9 -7.1 -3.9 -5.2 9.5 8.8 25.5 30 35.6 47.3 3.5 5.9 6.5 10.6 6.7 10.4 0.4 -0.5 -4.3 -11.9 -7.9 -19.2 -1.7 -3.3 -5.4 -9.4 -8.2 -13.5 -6.1 -8.7 -6.9 -10 -6.3 -10 1 0 12.7 18 15.9 24.5 5.3 10.6 8.1 18.3 7.2 19.6 -0.5 0.8 -0.3 0.9 0.6 0.4 1 -0.6 1.2 -0.4 0.7 0.9 -0.4 0.9 -0.3 1.5 0.2 1.1 0.5 -0.3 1.2 0.1 1.4 0.7 0.4 0.9 0.6 1 0.6 0.1 0.2 -2.4 -5.3 -16.1 -10.6 -26.5 -8.7 -17.2 -18 -29.4 -47.3 -62.5 -4.5 -5.1 -7.8 -9.3 -7.3 -9.3 1 0 28 29.8 35.3 39 14 17.5 25 37 30.5 54.2 9.4 29.1 12.6 47.5 12.8 73.8 0.1 20.3 -1.2 33 -4.9 45.7 -2.7 9.2 -10.5 26.5 -11.2 24.5 -0.2 -0.7 -1.5 0.3 -3.1 2.5 -1.5 2.1 -6.3 6.5 -10.7 9.8 -10.6 7.9 -10.4 7.8 -5.8 6.1 17.5 -6.1 26.4 -15.8 33.5 -36.6 3.7 -11 3.6 -10.7 5 -9.3 0.8 0.8 0.5 3.3 -0.9 9 -2.7 10.6 -6.8 19.2 -13.6 28.6 -3.1 4.3 -5 7.5 -4.3 7.1 4 -2.3 14.9 -12 18.2 -16.3 2.2 -2.8 4.3 -5 4.8 -5.1 3 -0.1 -3.2 10.1 -13.1 21.8 -3.1 3.6 -4.8 6.2 -3.8 5.9 1 -0.4 2.1 -0.7 2.6 -0.7 0.5 0 2.3 -1.2 4.1 -2.7 1.7 -1.5 3.9 -2.8 4.8 -2.9 2.7 -0.4 8.9 -8.4 13.6 -17.5 6.8 -13.2 8.8 -22.9 8.8 -42.9 0 -19.4 -1.4 -30.7 -8.3 -65 -2.7 -13.5 -5.6 -31.2 -6.5 -39.5 -2 -19.5 -4.7 -34.5 -9.5 -53.1 -4.4 -17.2 -7.6 -26.1 -12.6 -35.4 -1.9 -3.6 -2.7 -5.6 -1.8 -4.5 3.3 4 9.5 18.5 13 30.6 6.3 21.9 10 41.3 12.1 63.4 l0.7 8 0.7 -5 c0.7 -6 -0.7 -42.8 -2 -50.5 -1.4 -8.4 -3.8 -17.9 -6.1 -24.4 -4.1 -12 -20.5 -40 -24.7 -42.5 -1 -0.6 -1.3 -1.1 -0.7 -1.1 4.1 -0.1 22.2 30.4 27.2 46 4.6 14.2 7.1 30.6 7.3 48.5 0.1 5.5 0.4 12.9 0.8 16.5 0.6 6.2 0.7 5.8 1.3 -6 0.4 -6.9 1.2 -16 1.9 -20.2 3.6 -24.3 -8.5 -64.7 -24.3 -81 -5 -5.2 -13.5 -9.8 -18 -9.8 -1.6 0 -2.8 -0.4 -2.8 -1 0 -1.3 -8.5 -13.8 -11.8 -17.3 -1.5 -1.5 -4.8 -4.2 -7.4 -5.8 -2.7 -1.7 -4.8 -3.5 -4.8 -4 0 -1.5 1 -1.1 6.2 2.2 5.8 3.8 11.7 10.3 15.9 17.6 2.4 4.1 3.5 5.3 4.8 4.8 3.4 -1.5 10 -1.7 13.7 -0.5 5.4 1.7 14.4 7.1 14.4 8.7 0 0.8 -1.8 0.2 -4.9 -1.7 -6.2 -3.8 -13.1 -6.2 -16.8 -5.8 -2.6 0.3 -2.4 0.5 2.9 3.1 10.6 5.2 20.1 17.8 26.9 35.8 8.8 23.3 10.5 39.1 7.4 69.9 -2.5 24.8 -1.7 46.2 2.4 66.6 8.8 43.3 8 73.9 -2.5 94.7 -7.7 15.5 -16.4 23.9 -27.6 26.8 -3.9 1.1 -7.5 1.9 -8 1.9 -2 0 -0.3 -2.5 6 -8.6 7.5 -7.3 7.2 -7.3 -2.9 -0.4 -7.5 5.2 -12.6 7.6 -13.6 6.6 -0.4 -0.4 2.5 -3.9 6.5 -7.9 7.6 -7.6 9.8 -11.2 3.5 -5.7 -2 1.8 -6.6 4.6 -10.1 6.3 l-6.4 3 17.6 17 c9.7 9.3 20.5 20.6 24 25.1 11.6 14.9 19.4 32.3 23 51.6 1.8 9.3 2.2 26.5 0.6 25.5 -0.5 -0.3 -1 -2.1 -1 -3.9 0 -1.9 -1.4 -5.7 -3.5 -9.2 -3.2 -5.5 -2.4 -5.2 1.8 0.7 l1.7 2.4 -0.6 -4 c-0.4 -2.2 -1.1 -4.8 -1.6 -5.9 -0.7 -1.3 -0.7 -1.6 0.1 -1.2 0.7 0.5 0.9 -0.4 0.4 -2.6 -0.8 -4.3 -1.8 -6.3 -6 -11.8 l-3.5 -4.5 3.6 3.7 c4.8 5 4.6 3.7 -0.5 -2.9 -5.4 -7 -15 -15.8 -20 -18.3 -7.3 -3.8 -23 -4.3 -34.4 -1.2 -11.2 3.1 -33.7 20.7 -44 34.4 -2.5 3.3 -7.1 10.7 -10.2 16.4 -5.2 9.6 -7.3 12.3 -7.3 9.2z m-39.2 -70.8 c6.2 -1.7 15.7 -5 21 -7.4 19.7 -8.8 53 -28.6 59.6 -35.5 l3 -3.1 -4.5 -0.1 c-10.9 -0.2 -12.6 -3.1 -4.1 -7.1 3.1 -1.5 7 -3.8 8.5 -5 2.4 -2 2.6 -2.5 1.5 -4.1 -1.2 -1.6 -1.6 -1.6 -6.6 0.3 -3.2 1.2 -7.6 2 -11.6 2 -10.9 0 -12.3 -1.6 -4.8 -5.4 2.6 -1.3 5.6 -3.1 6.6 -3.9 1.8 -1.3 1.5 -1.4 -3.9 -1.3 -3.6 0.1 -5.9 -0.3 -6.2 -1.1 -0.2 -0.6 2.4 -3.1 5.9 -5.4 11.2 -7.6 16.8 -12.8 16.8 -15.9 0 -1.4 0.9 -7.6 2 -13.6 l1.9 -10.9 -2.7 -2.1 -2.7 -2.2 -2.2 6.4 c-2.8 8.6 -9.5 20.1 -15.6 26.9 -5.9 6.7 -20.1 16.3 -30.5 20.6 -4.3 1.7 -8.4 3.7 -9.3 4.5 -0.9 0.8 -1.8 1.1 -2.1 0.8 -0.3 -0.3 -2.3 0.3 -4.5 1.4 -2.1 1.1 -4.2 2 -4.6 2 -0.4 0 -2 0.4 -3.5 1 -5.1 1.9 -20.7 6.2 -26.2 7.3 -3 0.5 -6 1.2 -6.7 1.4 -0.9 0.3 -0.5 2.4 1.2 7.6 4.8 13.9 7.2 32.7 4.5 34.4 -0.5 0.3 -1 -0.4 -1 -1.6 0 -1.9 -0.2 -2 -1.7 -0.8 -1.6 1.2 -1.5 1.1 0.1 -0.8 1 -1.2 1.6 -2.7 1.4 -3.4 -0.2 -0.7 -1.4 0.4 -2.7 2.4 -1.2 2 -2.5 3.7 -2.7 3.7 -0.6 0 0.2 -1.4 2.8 -5.2 1.1 -1.6 1.8 -4 1.6 -5.5 -0.3 -2.6 -0.5 -2.4 -4 2.7 -5.8 8.6 -6 16.7 -0.6 19 3.5 1.5 14.2 0.3 26.6 -3z m96.9 -54.8 c4.5 -2.9 11.2 -8.5 14.9 -12.4 5.5 -5.9 7.3 -8.6 10.4 -16.2 7.1 -17.5 9.3 -31.7 9.2 -58.1 -0.1 -9.9 -0.6 -19.6 -1.1 -21.5 -0.6 -2.5 -1 2 -1.1 16 -0.1 10.7 -0.5 22 -0.9 25 -0.4 3.2 -0.6 -2.5 -0.5 -13.5 l0.2 -19 -0.8 17.5 c-0.5 9.6 -0.7 19.1 -0.4 21.1 0.8 5.5 -2.3 22.4 -5.7 30.8 -3.4 8.5 -4.3 10 -3.5 5.6 0.6 -2.7 0.4 -2.6 -1.4 1 -2.4 4.7 -2.1 3.4 1 -5.3 1.3 -3.4 2.4 -6.1 2.6 -5.9 0.2 0.2 -0.1 1.8 -0.7 3.6 -0.6 1.8 -0.9 3.4 -0.7 3.7 0.9 0.8 4.9 -10.9 5.3 -15.6 0.4 -3.7 0.3 -4 -0.5 -2 -1 2.7 -1 2.7 1.1 -11.5 1.5 -9.8 2.2 -38.3 1 -36.5 -0.6 0.8 -1.2 6.7 -1.3 13 l-0.2 11.5 -0.6 -10 c-0.4 -7.6 -0.7 -9.3 -1.4 -7.2 -0.4 1.5 -1.1 2.7 -1.5 2.7 -1.6 0 -3.1 5.4 -3.3 11.8 l-0.1 6.7 -0.7 -6.5 c-0.6 -7.3 -0.7 -7.2 -3.9 9 -2.6 13.6 -9.5 27.8 -17.6 36.5 l-5.6 6 5.6 -7 c7.6 -9.4 14 -22.8 16.5 -34 1.1 -4.9 2 -9.9 2 -10.9 0 -2 0 -2 -1.5 0 -0.8 1 -1.5 2.8 -1.5 3.9 -0.1 1.2 -0.4 1.5 -0.7 0.7 -0.7 -1.7 -3.3 0.4 -3.3 2.7 0 1.4 -0.2 1.4 -1 0.1 -0.8 -1.2 -1 -1.2 -1 0.5 0 1.3 -0.3 1.6 -0.8 0.8 -0.9 -1.4 -2.6 -0.5 -3.5 1.7 -0.4 1.2 -0.6 1.1 -0.6 -0.3 -0.1 -1.1 -0.5 -1.5 -1.3 -1.1 -0.6 0.4 -3.3 0.6 -6 0.5 -2.6 -0.1 -4.8 -0.1 -4.9 0.1 -1.5 7.9 -3.3 22.6 -2.7 22.2 0.4 -0.3 0.8 -1.5 0.8 -2.7 0 -1.8 0.2 -1.9 1.1 -0.7 0.8 1.2 0.9 1.1 0.5 -0.5 -0.3 -1.1 0.1 -5.6 0.8 -10 1.1 -6.5 1.4 -7.3 1.6 -4 0.2 3.9 0.3 3.9 1 1 1.3 -4.9 1.1 -0.1 -0.2 5.4 -0.7 3.3 -1.4 4.7 -2 3.9 -0.5 -0.9 -0.8 -1 -0.8 -0.1 0 0.6 0.4 1.4 1 1.8 1.2 0.7 3.6 -3.9 5.1 -9.9 0.6 -2.6 1.4 -4.5 1.6 -4.2 0.3 0.2 -0.4 3.7 -1.6 7.6 -3 10.8 -11.9 21.3 -25.9 30.6 -2.9 2 -5.1 3.8 -4.9 4 0.3 0.3 3.5 -0.2 7.2 -1.1 3.7 -0.8 7 -1.3 7.3 -1 0.9 0.9 -3.1 4.6 -9.2 8.3 l-6 3.7 4.3 0.3 c9.1 0.7 25.3 -7.3 32.3 -15.9 4.5 -5.6 7.3 -11.1 11.3 -22.4 1.8 -4.9 3.8 -9.1 4.4 -9.3 1.7 -0.6 1.3 1.7 -1.9 11.2 -7.9 23.5 -18.4 37.8 -34.2 46.7 l-5.3 3 8.1 -0.3 c7.8 -0.3 8.2 -0.4 16.1 -5.6z m-196.3 -8.8 c-2 -3 -4.2 -7 -4.9 -8.7 -0.9 -2 -1.4 -2.5 -1.5 -1.4 0 1 0.7 3.4 1.5 5.4 0.8 2 1.3 3.8 1.1 4 -0.8 0.8 -3.6 -8.3 -4.1 -13.2 -0.3 -2.7 -0.9 -6.6 -1.3 -8.5 l-0.9 -3.5 -0.8 3.8 c-0.4 2.1 -0.4 5.5 0 7.5 0.4 2 0.8 4.7 0.9 5.9 0 1.2 0.5 2.1 1 2 0.5 -0.1 1.1 0.4 1.4 1.2 0.3 0.9 0 1.1 -0.9 0.6 -0.8 -0.5 -1.1 -0.5 -0.7 -0.1 0.3 0.4 1 0.7 1.3 0.6 0.4 -0.1 1.3 0.9 1.9 2.2 0.6 1.3 1.6 2.3 2.1 2.3 0.6 0 2.2 1.3 3.7 2.8 4.1 4.1 4.2 3.3 0.2 -2.9z m191.4 -2.7 c2.3 -2.3 4.2 -4.6 4.2 -5 0 -0.4 -2.2 0.9 -5 2.9 -2.7 2 -5 4.2 -5 5 0 2.3 1.4 1.6 5.8 -2.9z m-179.4 -0.7 c-0.8 -2.3 -1.8 -7.1 -2.4 -10.8 l-0.9 -6.7 0.3 8 c0.3 8 1.7 13.5 3.5 13.5 0.5 0 0.2 -1.8 -0.5 -4z m-29.1 -13.7 c-0.3 -1.3 -0.9 -2 -1.4 -1.7 -1.1 0.6 -1.2 10.8 -0.2 14.4 0.6 1.9 0.9 1 1.4 -4 0.4 -3.6 0.5 -7.5 0.2 -8.7z m25 4.5 c-0.6 -11.5 -1.8 -14.5 -2.8 -7.3 -1 6.6 0.8 17.5 2.9 17.5 0.2 0 0.2 -4.6 -0.1 -10.2z m-3.8 -4.6 c0 -7.2 -0.3 -9.6 -1.2 -9.4 -0.7 0.1 -1.3 -0.7 -1.3 -1.7 0 -3.3 -1.7 -3.3 -2.4 0 -0.8 4.2 -0.7 9.8 0.2 12.9 0.5 1.9 0.8 1 1.3 -4 l0.6 -6.5 0.1 6.7 c0.2 5.6 1.4 11.8 2.4 11.8 0.2 0 0.3 -4.4 0.3 -9.8z m-15.6 4.8 c-0.9 -2.5 -0.9 -5.6 0.1 -13 1.6 -12.1 1 -14.2 -1.9 -6.5 -2.6 6.7 -2.4 13.2 0.4 19.9 1.9 4.6 3 4.3 1.4 -0.4z m-8 -10.8 c0.1 -2 -0.3 -3.1 -0.9 -2.7 -0.6 0.3 -0.9 4.3 -0.9 8.8 0.2 8.1 0.2 8.2 0.9 2.7 0.5 -3 0.8 -7 0.9 -8.8z m-1.4 -8.2 c1 -7 -0.8 -5.7 -2.4 1.8 -1.3 6.1 -1.4 12.6 -0.3 16.2 0.5 1.8 0.9 0.5 1.3 -5 0.3 -4.1 1 -10 1.4 -13z m-2 -3.8 c0.8 -3.3 1.5 -7.9 1.4 -10.3 l0 -4.4 -2 5.5 c-1.1 3 -2.4 7.8 -2.8 10.5 -0.6 3.7 -0.9 4.2 -1 1.9 0 -1.7 1.2 -7.5 2.9 -13 1.6 -5.4 3 -11.9 2.9 -14.4 l0 -4.5 -1.5 3.5 c-0.8 1.9 -2.3 6.6 -3.3 10.5 -1.4 5.2 -2 6.4 -2.3 4.5 -0.3 -1.4 -0.3 1.3 0 6 0.2 4.7 0.8 9.8 1.3 11.4 0.5 1.6 1 4.5 1 6.5 0.1 2.8 0.3 2.4 1 -2.1 0.4 -3.1 1.5 -8.4 2.4 -11.6z m20.7 1.5 c-0.9 -1.8 -1.1 -0.8 -1 4.8 l0 7 1 -4.8 c0.7 -3.3 0.7 -5.5 0 -7z m-8.2 -11.7 l0 -2.5 -2 2.5 c-1.1 1.4 -2.6 4.3 -3.4 6.5 -0.8 2.2 -1.5 3.3 -1.5 2.4 -0.1 -1 1.3 -4.3 2.9 -7.5 2.4 -4.4 2.9 -6.5 2.4 -8.8 -0.6 -2.8 -0.7 -2.9 -2.1 -1.1 -3 4.3 -4.3 11.6 -3.7 21.1 l0.7 9.2 3.3 -9.6 c1.9 -5.3 3.4 -10.8 3.4 -12.2z m4.5 6.1 c-1.9 -1.8 -1.9 -2.3 0.2 8.4 l0.8 4 0.3 -5.4 c0.2 -4 -0.1 -5.8 -1.3 -7z m-8.8 -21.6 c-0.5 -1.6 -1.3 -5.5 -1.6 -8.5 l-0.7 -5.5 -0.7 5.5 c-0.3 3 -0.6 7.1 -0.5 9 0 1.9 -0.3 6.4 -0.6 10 l-0.7 6.5 2.9 -7 c2.3 -5.7 2.7 -7.6 1.9 -10z m-4.2 -16 c0.8 -3.2 1.3 -6.1 1.1 -6.2 -0.8 -0.9 -10.6 28.2 -10.6 31.5 0.1 3 0.8 1.7 4.1 -7.8 2.2 -6.3 4.6 -14.2 5.4 -17.5z m-4.3 4.6 c6.2 -17.1 10.2 -30.9 11.4 -39.6 0.4 -2.7 0.9 -4.5 1.1 -3.8 0.3 0.7 -0.3 4.9 -1.1 9.4 -0.9 4.6 -1.4 8.4 -1.2 8.6 0.7 0.7 4.7 -11.4 5.5 -16.7 0.6 -3.9 0.6 -5.7 -0.3 -6.2 -0.6 -0.5 -1.4 0.1 -1.8 1.5 -0.4 1.6 -0.6 1.8 -0.7 0.4 -0.1 -0.9 -0.6 -2.5 -1.2 -3.5 -0.9 -1.4 -0.9 -2.9 -0.1 -5.8 l1.1 -3.9 -0.5 4.3 c-0.3 2.4 -0.2 4.2 0.4 4.2 1.9 0 2 -4.3 0.1 -9.8 -1 -3.1 -1.9 -7 -1.9 -8.7 -0.1 -2.8 -9.9 37.2 -11.3 46 -1.8 11 4.8 -11.7 10.2 -35.5 l1 -4.5 -0.5 4.7 c-1.3 11.8 -10 42.2 -11.7 41.1 -0.6 -0.3 -0.7 -0.1 -0.3 0.5 0.4 0.6 -0.1 3.6 -0.9 6.7 -0.9 3 -1.5 6 -1.3 6.6 0.5 1.6 6.9 -14.3 9.9 -25 1.5 -5.3 2.8 -8.9 2.8 -8.1 0.2 4.8 -12 38.5 -13.1 36.4 -0.3 -0.5 -0.3 -0.4 -0.2 0.3 0.2 0.7 -0.3 4.3 -1.1 8 -0.8 3.7 -1.4 8.6 -1.3 10.8 0.1 3.2 0.2 3.4 0.5 1.1 0.3 -1.6 3.2 -10.4 6.5 -19.5z m217.3 -60.1 c-1.1 -0.4 -4.7 -1.5 -8 -2.5 -7.2 -2 -12.7 -5.1 -20.2 -11.2 -4.6 -3.8 -5.3 -4.1 -3.6 -1.7 4.4 6.1 12.6 12.5 19 14.9 4.1 1.5 16.4 2 12.8 0.5z m13.9 -1.7 c0.3 -0.4 -2.9 -1.9 -7.2 -3.3 -8.9 -3.1 -29.4 -13 -33.2 -16.1 -2.3 -1.9 2.7 0.5 9.5 4.6 2.8 1.7 20.3 9.5 21.3 9.5 0.4 0 -3.3 -2.2 -8.3 -4.8 -4.9 -2.7 -15.5 -8.8 -23.5 -13.7 -8 -4.8 -14.9 -9 -15.4 -9.3 -1.2 -0.7 7.8 11 12.2 16 4.2 4.7 13 10.5 19.5 13 2.8 1.1 9.2 2.5 14.1 3.3 5 0.7 9.4 1.3 9.7 1.4 0.3 0.1 0.9 -0.2 1.3 -0.6z m38.3 -14 c-0.2 -2.1 -0.4 -0.6 -0.4 3.2 0 3.9 0.2 5.5 0.4 3.8 0.2 -1.8 0.2 -5 0 -7z m-34.2 -5.4 c-0.9 -1.7 -1.9 -2.9 -2.2 -2.6 -0.5 0.5 2.5 5.7 3.3 5.7 0.3 0 -0.3 -1.4 -1.1 -3.1z"/>
  <path d="M691.6 366.1 c0.5 -0.9 2.5 -3.4 4.4 -5.6 6.7 -8 14 -27.6 16.4 -44.5 0.8 -5.2 1.4 -8.1 1.5 -6.4 0.2 5.5 -2.8 19.9 -6 29 -4.1 11.6 -8 19 -13.2 24.6 -2.3 2.4 -3.7 3.7 -3.1 2.9z"/>
  <path d="M672 353.2 c0 -0.5 0.7 -1.6 1.6 -2.3 2.2 -1.8 10.6 -14.3 13.6 -20.4 1.4 -2.7 3.4 -7.6 4.4 -10.7 0.9 -3.2 1.9 -5.6 2.2 -5.4 1.3 1.4 -6.6 19.5 -11.8 27.1 -4 5.8 -10 12.9 -10 11.7z"/>
  <path d="M670.6 347.9 c8.7 -9.2 15.1 -19.4 18 -28.4 0.7 -2.3 1.3 -3.1 1.3 -1.9 0.2 5.6 -15.8 30.6 -21.5 33.7 -1.1 0.5 0 -1 2.2 -3.4z"/>
  <path d="M681.8 347.8 c4.2 -6.1 7.1 -12.1 10.4 -21.3 1.5 -4.4 2.5 -6.4 2.2 -4.5 -0.9 5.4 -6.1 17.3 -10.5 24 -2.1 3.3 -4.1 6 -4.4 6 -0.3 0 0.7 -1.9 2.3 -4.2z"/>
  <path d="M711.1 338 c0 -0.8 0.4 -2.4 0.9 -3.5 0.5 -1.3 0.9 -1.4 0.9 -0.5 0 0.8 -0.4 2.4 -0.9 3.5 -0.5 1.3 -0.9 1.4 -0.9 0.5z"/>
  <path d="M694 329.6 c0 -0.3 0.5 -1.7 1.1 -3.3 0.6 -1.5 1.9 -5.9 2.9 -9.8 1.1 -3.8 1.9 -6 1.9 -4.8 0.1 2.3 -4.7 18.3 -5.4 18.3 -0.3 0 -0.5 -0.2 -0.5 -0.4z"/>
  <path d="M711.3 300 c0 -4.1 0.2 -5.8 0.4 -3.7 0.2 2 0.2 5.4 0 7.5 -0.2 2 -0.4 0.3 -0.4 -3.8z"/>
  <path d="M747.8 492.6 c-1.5 -3 -4.1 -7 -5.8 -9 -1.8 -2 -2.8 -3.6 -2.4 -3.6 2 0 12.4 16.4 11.2 17.6 -0.2 0.2 -1.6 -2.1 -3 -5z"/>
  <path d="M617 496.7 c0 -2 7 -19.7 10.7 -27.2 5 -9.9 13 -22.3 15.9 -24.5 1.5 -1.1 1.4 -0.9 -0.2 1 -6.9 7.9 -17.4 27.4 -22.3 41.5 -2.9 8.1 -4.1 10.8 -4.1 9.2z"/>
  <path d="M626 496.4 c0 -2.1 5.8 -15.2 9.9 -22.3 5.2 -8.9 14.1 -20 21.9 -27.3 9 -8.6 8.3 -7 -1.2 2.5 -12.1 12.2 -20.7 24.9 -27.1 40.1 -1.9 4.5 -3.4 7.6 -3.5 7z"/>
  <path d="M743.1 493.6 l-2.4 -3.1 2.8 2.7 c1.6 1.5 2.7 2.9 2.4 3.1 -0.2 0.3 -1.5 -1 -2.8 -2.7z"/>
  <path d="M594.5 493.3 c1.6 -3.3 13.1 -18.3 14.1 -18.3 0.4 0 -0.5 1.5 -2 3.3 -3 3.6 -10.4 13.5 -12.4 16.3 -0.7 1.1 -0.6 0.5 0.3 -1.3z"/>
  <path d="M607 490.5 c4.1 -7 10.9 -17.5 11.4 -17.5 0.6 0 -11.3 19.1 -12.7 20.5 -0.6 0.6 0 -0.8 1.3 -3z"/>
  <path d="M649 490.5 c1.9 -1.9 3.6 -3.5 3.9 -3.5 0.3 0 -1 1.6 -2.9 3.5 -1.9 1.9 -3.6 3.5 -3.9 3.5 -0.3 0 1 -1.6 2.9 -3.5z"/>
  <path d="M659 487 c2.3 -2.7 4.7 -5.3 5.3 -5.7 0.7 -0.4 -1 1.9 -3.7 5 -2.7 3.1 -5.1 5.7 -5.3 5.7 -0.3 0 1.4 -2.2 3.7 -5z"/>
  <path d="M664 474.5 c6.3 -6.3 11.7 -11.5 12 -11.5 0.2 0 -4.7 5.2 -11 11.5 -6.3 6.3 -11.7 11.5 -12 11.5 -0.2 0 4.7 -5.2 11 -11.5z"/>
  <path d="M443.3 458.3 c0.9 -0.2 2.5 -0.2 3.5 0 0.9 0.3 0.1 0.5 -1.8 0.5 -1.9 0 -2.7 -0.2 -1.7 -0.5z"/>
  <path d="M423.8 457.3 c2.9 -0.2 7.4 -0.2 10 0 2.6 0.2 0.2 0.3 -5.3 0.3 -5.5 0 -7.6 -0.1 -4.7 -0.3z"/>
  <path d="M375.8 454.3 c1.2 -0.2 3.2 -0.2 4.5 0 1.2 0.2 0.2 0.4 -2.3 0.4 -2.5 0 -3.5 -0.2 -2.2 -0.4z"/>
  <path d="M387.3 453.3 c2 -0.2 5.4 -0.2 7.5 0 2 0.2 0.3 0.4 -3.8 0.4 -4.1 0 -5.8 -0.2 -3.7 -0.4z"/>
  <path d="M404.3 452.3 c3.1 -0.2 8.3 -0.2 11.5 0 3.1 0.2 0.5 0.3 -5.8 0.3 -6.3 0 -8.9 -0.1 -5.7 -0.3z"/>
  <path d="M554.3 448.9 c-6 -2.9 -8.8 -8.9 -8 -17 0.4 -3.2 1.6 -7.9 2.9 -10.5 2.2 -4.7 12.2 -16.4 14 -16.4 0.6 0 -1.3 2.1 -4.1 4.6 -9.6 8.6 -14.7 24.3 -10.4 32.3 2.4 4.5 5.8 6.9 11.3 8 3.6 0.7 3.9 0.9 1.5 1 -1.6 0 -4.9 -0.8 -7.2 -2z"/>
  <path d="M354.8 449.3 c1.2 -0.2 3.2 -0.2 4.5 0 1.2 0.2 0.2 0.4 -2.3 0.4 -2.5 0 -3.5 -0.2 -2.2 -0.4z"/>
  <path d="M592.8 447.9 c9.6 -2.1 21.1 -7.5 45.5 -21.3 12.8 -7.2 19.8 -10.4 29.4 -13.5 6.9 -2.3 12.8 -4 13 -3.7 0.2 0.2 -4.2 1.8 -9.9 3.6 -10.7 3.3 -26 10.5 -40.5 19.1 -18.8 11.1 -36.1 18.1 -43.7 17.8 -1.2 0 1.7 -0.9 6.2 -2z"/>
  <path d="M370 448 c8 -0.8 28.6 -1.2 27.9 -0.6 -0.2 0.2 -8.3 0.6 -17.9 0.8 -10.2 0.3 -14.4 0.2 -10 -0.2z"/>
  <path d="M326.3 444.3 c1.5 -0.2 3.9 -0.2 5.5 0 1.5 0.2 0.2 0.4 -2.8 0.4 -3 0 -4.3 -0.2 -2.7 -0.4z"/>
  <path d="M343.8 443.3 c2.9 -0.2 7.4 -0.2 10 0 2.6 0.2 0.2 0.3 -5.3 0.3 -5.5 0 -7.6 -0.1 -4.7 -0.3z"/>
  <path d="M302.3 441.3 c1.5 -0.2 3.7 -0.2 5 0 1.2 0.2 0 0.4 -2.8 0.4 -2.7 0 -3.8 -0.2 -2.2 -0.4z"/>
  <path d="M667 431.7 c0 -1 9.9 -6.8 15.6 -9.1 3.3 -1.3 7.7 -2.7 9.9 -3 3 -0.5 2.5 -0.2 -2 1.2 -6.7 2 -15.4 6 -20.2 9.2 -1.8 1.2 -3.3 2 -3.3 1.7z"/>
  <path d="M728.5 429.8 c-1.1 -0.7 -4.7 -2 -8 -3 -4.6 -1.4 -5 -1.7 -2 -1.2 3.8 0.5 15.2 5.2 13 5.3 -0.5 0 -1.9 -0.5 -3 -1.1z"/>
  <path d="M241.8 423.5 c-26.8 -3.7 -51.8 -14.2 -81.7 -34.3 -7.9 -5.3 -15 -10.1 -15.8 -10.7 -0.9 -0.5 -4.3 -3.6 -7.7 -6.7 -4.4 -4.1 -7 -5.8 -9.1 -5.9 -2.5 -0.1 -2.6 -0.3 -0.7 -0.6 2 -0.4 0.5 -2.3 -13 -16.2 -20.4 -20.9 -38.7 -43.6 -52.7 -65.3 -2.4 -3.8 -4.9 -6.8 -5.7 -6.8 -2.8 0 -3 16.5 -0.2 21 2.7 4.3 -3.4 6.8 -13.7 5.5 -6.9 -0.8 -9.5 -2.6 -7.8 -5.4 0.8 -1.2 1.3 -5.5 1.3 -10.5 l0 -8.3 -4.5 -0.6 c-2.6 -0.2 -4.8 -0.7 -5 -0.9 -0.3 -0.2 -0.6 -2.7 -0.7 -5.4 l-0.3 -4.9 5.5 -0.1 5.5 -0.1 -5 0.6 c-3.9 0.5 -5 1 -4.9 2.4 0.2 5.5 0.5 6.7 1.3 6.7 0.6 0 1.2 -1.5 1.4 -3.2 l0.4 -3.3 0.1 3.2 c0.2 2.9 0.5 3.2 4 3.5 l3.7 0.3 0.3 9.3 0.3 9.2 7.4 0 7.4 0 0.3 -16.5 0.3 -16.5 -3.1 0 c-1.7 0 -5.2 -0.3 -7.7 -0.6 -4.4 -0.6 -4.6 -0.6 -5 2.2 l-0.4 2.9 -0.2 -3.1 c0 -1.8 -0.8 -3.4 -1.6 -3.8 -0.8 -0.3 -1.5 -1.2 -1.5 -2 0 -0.7 0.7 -1.6 1.5 -2 0.8 -0.3 1.5 -1.6 1.5 -3 0 -1.3 1.1 -3.7 2.4 -5.3 1.3 -1.6 2.6 -4 2.8 -5.3 0.2 -1.7 1 -2.6 2.6 -2.8 1.8 -0.3 2.3 0.2 2.8 2.7 0.4 1.7 1.1 3.1 1.5 3.1 1.4 0 4.9 6.2 4.9 8.7 0 1.2 0.6 2.3 1.2 2.5 1 0.4 1 1.1 0.2 2.9 -1.4 3.3 -0.7 6.6 1.6 7.2 1 0.3 4.9 5.1 8.6 10.8 13.5 20.9 35.9 46.2 60.9 68.8 41 37 75.1 56.4 112.3 63.8 11.8 2.3 36.8 2.3 51.7 -0.1 13.2 -2.1 41.7 -11.2 52 -16.5 7.9 -4.1 16.1 -10.1 19 -13.9 2.5 -3.4 1.3 -10.3 -2.6 -14.7 -3.7 -4.2 -13.9 -11 -24.6 -16.3 -8.8 -4.5 -12.6 -8.2 -14.4 -14.2 -3 -10 7 -20.7 24.6 -26.3 10.5 -3.4 39.7 -6.8 41 -4.8 0.8 1.4 -1.9 1.9 -14 2.6 -25.8 1.4 -46.5 10.5 -49.5 21.6 -0.9 3.3 -0.8 4.7 0.8 8.2 2.4 5.3 3.6 6.3 14.6 12.1 22.6 11.8 31.6 23.5 25.8 33.1 -2.3 3.7 -15 12.6 -23.7 16.6 -6.8 3.1 -29.8 10.7 -40 13.3 -9.7 2.5 -28.9 3.9 -43.5 3.3 -34.2 -1.4 -69.3 -16.6 -109 -47.3 -13.7 -10.5 -52.8 -49.2 -65.2 -64.4 -7.4 -9.1 -18.1 -24.2 -21.6 -30.5 -1.1 -1.9 -1.1 -1.8 -1.2 0.7 0 5.4 26.4 41.1 47.3 63.8 32.9 35.8 54.5 52.8 88.2 69.1 29.2 14.2 60.7 19.4 97.5 16 13.4 -1.3 31 -6.8 35.8 -11.2 2.8 -2.6 3.1 -2.7 1.2 -0.6 l-2.5 2.9 5.5 -2.2 c9.3 -3.6 16.5 -7.2 17.3 -8.7 0.5 -0.7 1.2 -1.1 1.7 -0.8 1.5 0.9 9.1 -4.5 15.2 -10.7 17.1 -17.7 12.4 -27.7 -21.4 -45.9 -9.9 -5.2 -12.7 -7.2 -14.2 -10 -4 -7.4 1.1 -12.7 17.2 -17.8 11.3 -3.6 18.7 -4.9 29.7 -5.3 12.5 -0.5 10.9 1.6 -1.8 2.4 -21.8 1.5 -44.7 9.9 -44.7 16.4 0 2.9 5.9 7.7 16.1 13.1 20.4 10.7 30.9 20.7 30.9 29.5 0 11.4 -13.6 25.5 -33.6 34.9 -11.7 5.6 -33.6 13.2 -44.2 15.4 -8.6 1.9 -43.8 1.8 -57.4 0z m-189.3 -122.5 c4.8 -1.8 1.5 -3 -8.1 -3 -7.4 0 -9.4 0.3 -9.4 1.4 0 0.8 0.6 1.7 1.3 1.9 2.2 1 13.5 0.7 16.2 -0.3z m3.5 -29.5 c0 -1.9 -0.4 -3.5 -1 -3.5 -0.5 0 -1 1.6 -1 3.5 0 1.9 0.5 3.5 1 3.5 0.6 0 1 -1.6 1 -3.5z m-3.5 -10.8 c3.3 -2.5 0.8 -3.7 -7.8 -3.7 -11.5 0 -14.8 2.5 -5.4 4.1 7 1.1 11.2 1 13.2 -0.4z m-1.5 -6.4 c0 -1 -0.9 -3.3 -2 -5 -3.6 -6 -9.6 -3.8 -11.6 4.1 l-0.6 2.6 7.1 0 c6.1 0 7.1 -0.2 7.1 -1.7z m-6 -11.8 c-1.2 -1.5 -3 -1.2 -3 0.6 0 0.5 1 0.9 2.1 0.9 1.8 0 1.9 -0.2 0.9 -1.5z"/>
  <path d="M710.5 419 l-5 -0.7 4.5 -0.1 c2.5 0 6.3 0.3 8.5 0.7 l4 0.9 -3.5 -0.1 c-1.9 0 -5.7 -0.3 -8.5 -0.7z"/>
  <path d="M698.3 409.3 c0.9 -0.2 2.5 -0.2 3.5 0 0.9 0.3 0.1 0.5 -1.8 0.5 -1.9 0 -2.7 -0.2 -1.7 -0.5z"/>
  <path d="M107.3 402.3 c0.9 -0.2 2.5 -0.2 3.5 0 0.9 0.3 0.1 0.5 -1.8 0.5 -1.9 0 -2.7 -0.2 -1.7 -0.5z"/>
  <path d="M470.8 396.3 c1.8 -0.2 4.5 -0.2 6 0 1.5 0.2 0 0.4 -3.3 0.4 -3.3 0 -4.5 -0.2 -2.7 -0.4z"/>
  <path d="M417.3 388.3 c0.9 -0.2 2.5 -0.2 3.5 0 0.9 0.3 0.1 0.5 -1.8 0.5 -1.9 0 -2.7 -0.2 -1.7 -0.5z"/>
  <path d="M428.8 387.3 c1.7 -0.2 4.7 -0.2 6.5 0 1.7 0.2 0.3 0.4 -3.3 0.4 -3.6 0 -5 -0.2 -3.2 -0.4z"/>
  <path d="M307.8 382.3 c1.2 -0.2 3 -0.2 4 0 0.9 0.3 -0.1 0.5 -2.3 0.4 -2.2 0 -3 -0.2 -1.7 -0.4z"/>
  <path d="M267.8 379.3 c1.8 -0.2 4.5 -0.2 6 0 1.5 0.2 0 0.4 -3.3 0.4 -3.3 0 -4.5 -0.2 -2.7 -0.4z"/>
  <path d="M281.8 378.3 c1.7 -0.2 4.7 -0.2 6.5 0 1.7 0.2 0.3 0.4 -3.3 0.4 -3.6 0 -5 -0.2 -3.2 -0.4z"/>
  <path d="M297.8 377.3 c1.8 -0.2 4.5 -0.2 6 0 1.5 0.2 0 0.4 -3.3 0.4 -3.3 0 -4.5 -0.2 -2.7 -0.4z"/>
  <path d="M470.8 374 c-2.6 -2.2 -6.7 -7.1 -9.2 -10.8 -2.4 -3.7 -5.8 -8 -7.4 -9.5 -6.7 -6.4 -11.2 -22.4 -11.2 -39.6 0 -10.4 3 -29.9 8 -51.1 1.6 -6.9 3.8 -17.9 5 -24.5 1.8 -10.3 3 -15.9 5.6 -24.7 0.4 -1.4 -0.1 -1.8 -2.3 -1.8 -1.6 0 -3.8 -0.6 -4.8 -1.4 -1.7 -1.2 -1.8 -2.4 -1.2 -14.2 1.1 -22.2 3.3 -30.6 8.8 -34.7 1.5 -1 3.5 -1.7 4.5 -1.5 1.6 0.4 1.5 0.6 -0.7 1.6 -2.7 1.1 -6.9 5.7 -6.9 7.5 0 0.6 1 0.2 2.3 -0.9 5 -4.4 5.9 -4.4 1.5 0 -2.7 2.6 -5.1 5.9 -5.4 7.4 l-0.7 2.7 2.4 -2.1 c4.1 -3.6 5.6 -3.8 1.7 -0.2 -3.7 3.3 -5.9 7.8 -3.9 7.8 0.6 0 1.1 -0.3 1.1 -0.8 0 -0.4 1 -1.3 2.3 -2.1 1.5 -0.9 1.3 -0.3 -1 2.1 -1.8 1.9 -3.3 4.2 -3.3 5.3 0 1.7 0.3 1.6 2.7 -0.6 2.3 -2 2.2 -1.8 -0.5 1.4 -3.9 4.6 -4.2 6.9 -0.4 3.6 l2.7 -2.4 -2.7 3.1 c-2.4 2.6 -2.8 3.9 -2.8 9.2 l0 6.1 3.7 1 c2 0.6 3.7 0.9 3.8 0.8 1.8 -3.9 2.5 -6.5 2.5 -9.3 0 -10.5 6.5 -31.6 14.7 -47.7 12.7 -24.9 28.2 -40.9 61.3 -63.2 28.5 -19.1 55.5 -27.7 78.3 -24.6 9.7 1.3 25.3 6 30.7 9.2 5.3 3.3 2.6 3.3 -5.2 0.1 -26.3 -10.9 -46.8 -10.4 -74.9 1.8 -8.3 3.6 -28.4 14.9 -27.7 15.6 0.2 0.1 3.7 -0.8 7.8 -2.2 4.1 -1.3 8.1 -2.4 9 -2.4 0.8 0.1 -3 1.6 -8.5 3.4 -12.9 4.2 -16.2 6 -27 14.4 -26.3 20.3 -43.3 44.7 -51.8 74.2 -4.5 15.5 -3.9 15.6 3 1 18.6 -39.1 35.5 -57.6 62.7 -68.5 4.7 -1.9 9.1 -3.5 9.8 -3.5 0.7 0 -3 1.8 -8.2 3.9 -20.3 8.2 -32.1 17.7 -45.3 36.4 -4.3 6 -13 20.7 -12.2 20.7 0.2 0 1.7 -1.9 3.4 -4.3 4.9 -6.7 17.9 -19.4 26.3 -25.7 10.3 -7.8 23.3 -14.2 38.7 -18.9 6.9 -2.2 16.2 -5.1 20.6 -6.5 l8 -2.5 -12.5 0.3 c-6.9 0.2 -13.4 0.6 -14.5 1 l-2 0.8 2 -1.3 c1.2 -0.8 6.7 -1.5 14 -1.7 10 -0.4 12.3 -0.2 13.4 1.1 1.1 1.4 0 2 -9.1 4.7 -40.9 12.6 -51.4 18 -70.4 36.2 -20.5 19.7 -34.4 48.6 -40.9 85.3 -1.5 8.3 -4 20.4 -5.6 27 -4.1 17.5 -7.9 40.6 -7.9 48.4 0 10.3 2.7 23.8 6.1 30.6 3.1 6.3 3.1 5.6 -0.2 -6.5 -2 -7.4 -3.8 -22 -2.6 -20.9 0.4 0.3 1.6 5.4 2.7 11.4 4 20.5 9.7 32.3 21.1 43.4 7 6.8 6 8.4 -1.3 2.1z"/>
  <path d="M725 375.7 c0 -0.5 1.6 -2.9 3.5 -5.5 5.1 -6.6 9.2 -15.8 12.2 -27 2.4 -8.8 2.6 -11.6 2.7 -29.2 0.1 -10.7 -0.2 -21.5 -0.6 -24 -0.6 -3.8 -0.5 -4.1 0.4 -2 2 4.4 2.2 35.2 0.4 46 -2.8 16.2 -8.4 29.9 -16.2 39.5 -1.3 1.7 -2.4 2.6 -2.4 2.2z"/>
  <path d="M731.5 352 c5.3 -22.8 5.9 -28.4 5.9 -51 0 -23.5 -1 -32.5 -5.5 -48.8 -1.1 -4.1 -1.8 -7.6 -1.6 -7.8 0.7 -0.7 4.3 13.4 6.4 24.6 1.3 7.2 1.7 14.9 1.8 31.5 0 19 -0.3 23.7 -2.4 34.4 -1.3 6.9 -3 14.1 -3.7 16 -0.8 2 -1.2 2.5 -0.9 1.1z"/>
  <path d="M83.3 350.3 c2.6 -0.2 6.7 -0.2 9 0 2.3 0.2 0.2 0.3 -4.8 0.3 -4.9 0 -6.8 -0.1 -4.2 -0.3z"/>
  <path d="M729.1 348 c0 -0.8 0.7 -4.9 1.6 -9 1.3 -5.9 1.7 -12.4 1.7 -30.5 0 -20.8 -0.3 -24.5 -2.8 -38.5 -3.2 -17.5 -5.9 -28.5 -11.8 -48 -5.3 -17.5 -11.4 -31.8 -25.4 -59.7 -6.4 -12.6 -11 -22.3 -10.5 -21.8 1.9 1.9 22.5 43.5 27.8 56.1 5.1 12 12.1 33.9 16.2 50.4 6.7 27.4 9.6 59.5 7.2 81 -1.1 9.9 -3.8 23.2 -4 20z"/>
  <path d="M60.3 343.3 c5.4 -0.2 13.9 -0.2 19 0 5.1 0.1 0.7 0.3 -9.8 0.3 -10.4 0 -14.6 -0.2 -9.2 -0.3z"/>
  <path d="M520 338.3 c-5.5 -2.8 -11.7 -9.8 -10.8 -12.3 0.2 -0.6 1.8 0.9 3.6 3.4 1.7 2.6 4.6 5.5 6.4 6.6 7.6 4.6 19.5 3.5 32.1 -2.9 7.8 -3.9 10.2 -4 4.8 -0.1 -5 3.5 -16.2 7.2 -23.6 7.7 -6.3 0.4 -7.6 0.2 -12.5 -2.4z"/>
  <path d="M47.8 336.3 c3.4 -0.2 9 -0.2 12.5 0 3.4 0.2 0.6 0.3 -6.3 0.3 -6.9 0 -9.7 -0.1 -6.2 -0.3z"/>
  <path d="M81.3 336.3 c1.5 -0.2 3.9 -0.2 5.5 0 1.5 0.2 0.2 0.4 -2.8 0.4 -3 0 -4.3 -0.2 -2.7 -0.4z"/>
  <path d="M738.6 334.5 c0.3 -1.6 1.4 -7.5 2.4 -13 1 -5.5 1.8 -9 1.9 -7.9 0.1 3.1 -2.7 18.7 -3.9 21.5 -1 2.2 -1 2.1 -0.4 -0.6z"/>
  <path d="M147.3 335.3 c4.3 -0.2 11 -0.2 15 0 4 0.1 0.5 0.3 -7.8 0.3 -8.2 0 -11.5 -0.2 -7.2 -0.3z"/>
  <path d="M416.2 326.9 c-11.5 -1.1 -13.9 -1.8 -17.2 -4.6 -4.5 -3.7 -9 -13.8 -9 -20 0 -1.9 -0.6 -2.3 -3.2 -2.4 -1.8 -0.1 -8.5 -0.4 -14.8 -0.8 l-11.5 -0.6 -0.3 -9.7 c-0.2 -9 -0.1 -9.8 1.8 -10.8 1.2 -0.6 3.4 -0.9 4.9 -0.5 l2.8 0.6 0.7 -8.7 c0.8 -10.6 6.2 -61 7.6 -71.4 5.1 -37.7 6.4 -42.4 12.2 -46 1.7 -1 5 -2.1 7.4 -2.5 l4.4 -0.6 0 -11.3 c0 -6.2 0.3 -13.4 0.6 -16 l0.7 -4.6 -5.8 0 -5.8 0 0.7 -4.6 c0.3 -2.6 0.6 -6.2 0.6 -8 0 -3.9 -0.9 -3.7 25.8 -5.5 10.8 -0.8 17.5 -1.6 17.7 -2.3 0.2 -0.6 0.6 -2.3 0.9 -3.9 0.4 -1.5 1.6 -3.7 2.7 -4.8 2.2 -2.2 25.9 -33.4 25.9 -34.1 0 -0.6 -16.6 3 -34 7.3 -17.7 4.4 -17.5 4.4 -19.9 2 -1.2 -1.2 -2.1 -3.3 -2.1 -4.7 0 -2 0.9 -2.9 4.4 -4.4 5.1 -2.3 28.2 -5.8 42.8 -6.5 12.1 -0.5 8.3 0.7 -7.8 2.5 -10.1 1.2 -10.1 1.2 -9.8 3.8 0.2 1.7 0.1 2 -0.2 0.7 -1.1 -3.6 -2.4 -4 -2.4 -0.7 0 1.9 0.5 3.2 1.3 3.2 4.4 0 28.4 -5.5 29.4 -6.8 0.7 -0.8 1 -2.7 0.7 -4.2 -0.7 -3.4 -0.2 -3.6 11.1 -3.5 l9 0 0.3 4.3 c0.4 5 -0.8 6.8 -4.9 7.7 l-2.9 0.7 0 7.9 0 7.9 13.3 0.1 13.2 0.2 -13 0.9 c-7.1 0.5 -13 1 -13.1 1.1 -0.1 0.1 -0.4 4.6 -0.6 10.1 l-0.3 9.9 11 -0.7 c6.1 -0.4 12.4 -0.9 14.1 -1.2 l3.1 -0.6 0.7 -16.1 c0.4 -8.9 1.1 -16.6 1.7 -17.2 0.7 -0.7 0.8 4.5 0.3 16.3 -0.5 12.7 -0.4 17.2 0.5 17.2 0.8 0 1.1 -4.5 1.2 -15.2 0 -8.4 0.4 -16.2 0.9 -17.3 0.6 -1.4 0.9 -0.2 0.9 4.1 l0.1 6.1 4.6 0.7 c2.6 0.3 6.1 0.6 7.8 0.6 1.7 0 3.8 0.5 4.6 1.1 1.1 0.8 -1.1 0.9 -7.7 0.5 l-9.3 -0.5 0 9.7 0 9.7 8.3 -0.2 c5.7 -0.2 7.6 0 6.2 0.6 -1.1 0.6 -15 1.9 -31 3.1 -15.9 1.2 -37.3 3 -47.5 4 -10.2 1.1 -25 2.4 -33 3 -8 0.6 -16.4 1.3 -18.7 1.6 l-4.3 0.5 0 6 c0 5 0.3 5.9 1.8 5.9 0.9 0 16.6 -0.9 34.7 -2 44.7 -2.6 78 -3.6 77.2 -2.3 -0.4 0.6 -9.5 1.3 -22.9 1.8 -30.7 1 -79.6 4 -80.5 4.8 -0.4 0.4 -0.9 7.8 -1.1 16.4 l-0.5 15.6 2.4 -0.6 c4.3 -1.2 67.4 -2.1 69.3 -1 1.2 0.7 -8.5 1.2 -31.4 1.7 -44.3 0.9 -53.1 2.1 -56 7.6 -1.5 2.8 -4.5 17.1 -6.5 30.5 -1.8 12.2 -6.5 55.4 -6.5 59.8 l0 2.7 11.3 0.1 c6.1 0.1 12.6 0.4 14.2 0.8 2.9 0.6 3 0.8 3.3 7.1 0.1 3.6 -0.2 7.1 -0.7 7.9 -0.8 1.2 -3.8 1.5 -15.3 1.4 -10 -0.1 -14.5 0.2 -15 1 -0.4 0.7 -0.8 3 -0.8 5.3 l0 4.1 33.3 1.2 c18.2 0.7 33.4 1.6 33.7 1.8 0.6 0.7 -57.3 -0.5 -68.7 -1.4 l-8.3 -0.6 0 9.2 c0 8.8 0.1 9.1 2.3 9.1 17.5 0.1 72.2 2.3 73.9 3 1.7 0.6 0.5 0.9 -5 0.9 -4 0.1 -7.1 0.5 -6.8 0.9 0.3 0.5 -1.4 2.6 -3.7 4.8 -2.5 2.4 -3.1 2.7 -1.4 0.8 1.5 -1.7 2.4 -3.4 2 -3.9 -0.5 -0.4 -0.3 -0.5 0.4 -0.1 1.4 0.8 2.8 -1 1.4 -1.8 -0.5 -0.3 -3.3 -0.9 -6.3 -1.2 l-5.3 -0.6 -7.5 7.9 c-4.1 4.3 -6.6 6.7 -5.5 5.3 1.1 -1.4 4.1 -4.8 6.8 -7.6 l4.9 -5.2 -10.6 -0.1 c-8.4 -0.1 -10.6 0.1 -10.6 1.2 0 0.7 0.3 1.7 0.8 2.1 0.7 0.8 0.9 1.4 1.1 4.7 0.1 1.9 0.3 2 1.9 0.8 1.5 -1.2 1.6 -1.2 0.5 0.2 -1.3 1.6 -0.6 6.2 0.8 5.3 0.5 -0.3 0.6 0.1 0.4 0.8 -0.3 0.8 1 2.8 2.9 4.7 2.8 2.7 4.4 3.4 10.2 4.1 3.8 0.5 8.2 0.9 9.8 1 l2.9 0 -2.1 -2.3 c-1.1 -1.2 -3.3 -4.8 -4.8 -8.1 l-2.6 -5.8 -6.2 5.8 -6.1 5.9 6.5 -6.8 c7.9 -8.2 6.9 -8.9 -1.5 -1 l-6 5.8 6.5 -6.8 c3.5 -3.7 6.8 -6.7 7.2 -6.7 0.4 0 1.1 1.2 1.4 2.6 l0.7 2.5 3.6 -3.3 3.6 -3.3 -3.3 3.6 c-3.2 3.4 -3.2 3.6 -1.8 7 1.8 4.2 5.4 8.9 6.9 8.9 0.6 0 3.4 -2.1 6.2 -4.7 l5 -4.8 -4.8 5.1 c-4.5 4.8 -4.7 5.2 -2.7 5.7 1.2 0.3 3.7 0.3 5.6 0 2 -0.3 3.4 -0.1 3.4 0.5 0 0.5 -2.4 1.3 -5.2 1.7 -2.9 0.3 -6 0.8 -6.8 0.9 -0.8 0.2 -4.8 0 -8.8 -0.5z m-17.1 -61.9 c2.9 0 2.9 -0.1 2.9 -5.9 0 -5.8 0 -5.9 -3.2 -6.5 -1.8 -0.3 -8 -0.6 -13.8 -0.7 l-10.5 -0.2 -0.7 3.9 c-0.4 2.2 -0.7 5.1 -0.7 6.6 l-0.1 2.7 8.8 0.4 c4.8 0.2 10 0.2 11.6 0 1.6 -0.2 4.1 -0.3 5.7 -0.3z m48.3 -168.6 c3.2 -1.2 1.6 -8.4 -1.8 -8.4 -3.3 0 -5.5 2.1 -6.2 5.8 -0.6 3.1 -0.6 3.2 2.9 3.2 1.9 0 4.2 -0.3 5.1 -0.6z m21.7 -2 l8.6 -0.7 0.7 -9 c0.3 -4.9 0.6 -13.7 0.6 -19.4 l0 -10.3 -2.8 0 c-2.5 0 -4.3 2 -14.6 15.6 -9 12 -11.6 16.2 -11.2 17.8 0.3 1.1 0.6 3.4 0.6 5 0 2.8 0 2.9 4.8 2.3 2.6 -0.4 8.6 -0.9 13.3 -1.3z m-8.8 -25.6 c6.9 -9.1 12.8 -17.6 13.2 -18.7 0.8 -2.5 -1 -6.1 -3 -6.1 -1.3 0 -1.3 0.3 -0.3 1.9 1.8 2.9 -0.4 6.8 -13 23.4 -12.7 16.6 -13 17 -10.9 16.5 0.8 -0.1 7.1 -7.8 14 -17z m-41 -6.7 c1.1 -0.1 0.9 -6.9 -0.3 -7.6 -0.6 -0.4 -1.1 1.1 -1.2 3.7 l-0.1 4.3 -0.4 -3.7 c-0.5 -4.2 -0.6 -4.3 -3.4 -2.8 -3.6 2 -1.6 7.3 2.5 6.5 1.2 -0.2 2.4 -0.4 2.9 -0.4z m3.5 -4.7 c-0.5 -4.5 -2.4 -3.9 -2 0.7 0.3 2.6 0.8 3.7 1.4 3.1 0.5 -0.5 0.8 -2.2 0.6 -3.8z m3.1 1.4 c0.1 0.6 0.8 1.2 1.6 1.2 1 0 1.5 -1.1 1.5 -3.5 0 -2.4 -0.5 -3.5 -1.5 -3.5 -0.8 0 -1.6 0.8 -1.6 1.8 -0.1 1.6 -0.2 1.6 -0.6 0 -0.2 -1 -0.9 -1.8 -1.5 -1.8 -0.5 0 -0.7 0.7 -0.4 1.6 0.3 0.9 0.6 2.8 0.7 4.2 0 2.4 0.1 2.5 0.9 0.7 0.5 -1.1 0.9 -1.4 0.9 -0.7z m7.9 -0.4 c1.6 -0.5 2.2 -1.4 2.2 -3.5 0 -1.9 -0.5 -2.9 -1.5 -2.9 -1.1 0 -1.4 0.7 -1 2.8 l0.5 2.7 -1.1 -2.7 c-1.5 -3.9 -2.9 -3.5 -2.9 0.7 0 3.7 0.2 3.8 3.8 2.9z m50.6 -6.4 c2.1 -0.8 2.6 -1.6 2.6 -4.5 l0 -3.5 -5.8 0 -5.9 0 0 4.5 c0 4.4 0.1 4.5 3.3 4.5 1.8 0 4.4 -0.4 5.8 -1z"/>
  <path d="M587.8 322.3 c0.5 -7.4 -1.6 -10.3 -10.2 -14.2 -5.4 -2.4 -17.6 -12.1 -17.6 -14 0 -0.4 2.5 1.7 5.6 4.6 3.3 3.1 8.6 6.7 13 8.8 5.2 2.5 7.8 4.4 8.9 6.5 1.6 3.1 2 10.7 0.7 12.8 -0.5 0.7 -0.6 -1.4 -0.4 -4.5z"/>
  <path d="M517.2 325.2 c-2.9 -0.9 -6.9 -3 -9 -4.7 -2 -1.6 -4.1 -3 -4.7 -3 -1.1 0 -1.5 -0.8 -1.5 -2.7 0 -1 0.3 -0.9 0.9 0.1 0.7 1.1 2 1.2 7.1 0.3 5.3 -1 6.8 -0.9 9.7 0.5 2.6 1.2 4.6 1.4 8.6 0.8 6.4 -1 15.4 -0.8 21 0.5 6.6 1.5 18.2 1.2 22.7 -0.6 4.1 -1.7 5 -2.8 2.8 -3.7 -1 -0.4 -1 -0.6 -0.1 -0.6 0.7 -0.1 2.2 0.9 3.5 2.2 1.3 1.2 2 1.9 1.4 1.5 -0.5 -0.4 -1.8 -0.1 -3 0.7 -4.3 2.7 -17.4 6.5 -26.1 7.5 -5 0.5 -11.5 1.4 -14.4 2 -7.4 1.4 -12.7 1.2 -18.9 -0.8z m22.7 -1.7 c4.7 -0.8 10.9 -1.7 13.6 -2.1 l5 -0.7 -7.5 -1.3 c-9.3 -1.7 -15.8 -1.9 -23.1 -0.9 -4.2 0.6 -6.2 0.4 -8.5 -0.8 -3.1 -1.6 -11.4 -1.3 -11.4 0.4 0 1.2 7.2 4.7 11.7 5.8 5.7 1.3 10.6 1.3 20.2 -0.4z"/>
  <path d="M431 321.7 c0 -0.2 1.5 -1.6 3.3 -3.3 l3.2 -2.9 -2.9 3.3 c-2.8 3 -3.6 3.7 -3.6 2.9z"/>
  <path d="M407.5 317 c2.1 -2.2 4.1 -4 4.4 -4 0.3 0 -1.3 1.8 -3.4 4 -2.1 2.2 -4.1 4 -4.4 4 -0.3 0 1.3 -1.8 3.4 -4z"/>
  <path d="M426 318.7 c0 -0.2 1.5 -1.6 3.3 -3.3 l3.2 -2.9 -2.9 3.3 c-2.8 3 -3.6 3.7 -3.6 2.9z"/>
  <path d="M23 317 c2.1 -1.3 57 -1.3 57 0 0 0.6 -10.4 1 -29.2 1 -19.3 0 -28.8 -0.4 -27.8 -1z"/>
  <path d="M108.5 317.1 c-5.5 -0.4 -9.8 -0.8 -9.5 -1 0.3 -0.2 29.8 -0.7 65.5 -1.1 35.8 -0.5 79.2 -1.6 96.5 -2.4 41.6 -2 74.4 -2.8 70.2 -1.7 -1.9 0.5 -10.2 1.2 -18.5 1.5 -8.4 0.4 -23.7 1.1 -34.2 1.6 -57 2.8 -149.1 4.5 -170 3.1z"/>
  <path d="M426.5 314 c2.1 -2.2 4.1 -4 4.4 -4 0.3 0 -1.3 1.8 -3.4 4 -2.1 2.2 -4.1 4 -4.4 4 -0.3 0 1.3 -1.8 3.4 -4z"/>
  <path d="M496.5 313.1 c0.2 -2.5 1.1 -5.1 2.1 -6 1.7 -1.5 1.7 -1.5 0.6 0 -0.7 0.9 -1.7 3.6 -2.2 6 l-0.9 4.4 0.4 -4.4z"/>
  <path d="M403 306.5 c3 -3 5.7 -5.5 5.9 -5.5 0.3 0 -1.9 2.5 -4.9 5.5 -3 3 -5.7 5.5 -5.9 5.5 -0.3 0 1.9 -2.5 4.9 -5.5z"/>
  <path d="M425.5 307 c2.1 -2.2 4.1 -4 4.4 -4 0.3 0 -1.3 1.8 -3.4 4 -2.1 2.2 -4.1 4 -4.4 4 -0.3 0 1.3 -1.8 3.4 -4z"/>
  <path d="M430 306.8 c4.1 -4.5 5 -5.3 5 -4.5 0 0.2 -2.1 2.3 -4.7 4.7 l-4.8 4.5 4.5 -4.7z"/>
  <path d="M401 304.5 c1.9 -1.9 3.6 -3.5 3.9 -3.5 0.3 0 -1 1.6 -2.9 3.5 -1.9 1.9 -3.6 3.5 -3.9 3.5 -0.3 0 1 -1.6 2.9 -3.5z"/>
  <path d="M55.5 305 c-0.7 -1.2 8.8 -1.2 12.5 0 1.8 0.6 0.4 0.8 -4.7 0.9 -3.9 0.1 -7.5 -0.3 -7.8 -0.9z"/>
  <path d="M96.7 304.3 c-0.4 -0.6 9.3 -1.2 28.1 -1.6 15.8 -0.4 41.8 -1.1 57.7 -1.7 16 -0.5 56 -1.4 89 -2 33 -0.5 64.2 -1.3 69.3 -1.6 5.9 -0.4 9.2 -0.3 9.2 0.3 0 1.7 -15.2 2.3 -79 3.3 -33.3 0.6 -73.3 1.5 -89 2 -54.4 1.9 -84.7 2.4 -85.3 1.3z"/>
  <path d="M545.3 298.2 c4.2 -4.3 5.1 -8.8 2.7 -12.9 -2.2 -3.7 -1 -4.6 1.4 -1.1 3.1 4.4 1.1 13.4 -3.3 15.8 -3.3 1.7 -3.6 1.1 -0.8 -1.8z"/>
  <path d="M456.2 292 c0.4 -3.8 1.3 -7.9 1.8 -9.2 1 -2.3 1.1 -2.3 0.5 0.2 -0.3 1.4 -0.8 5.3 -1.2 8.8 -0.3 3.4 -0.9 6.4 -1.3 6.7 -0.3 0.2 -0.3 -2.7 0.2 -6.5z"/>
  <path d="M527 298.2 c0 -1.5 2.7 -2.2 8.3 -2.2 3 0 4.7 0.4 4.2 0.9 -1.5 1.3 -12.5 2.4 -12.5 1.3z"/>
  <path d="M78 289 c-2.1 -2.1 -2.2 -2.9 -1.8 -12.7 0.3 -5.7 0.1 -10.6 -0.4 -10.9 -0.5 -0.3 -2.3 -3.6 -4 -7.2 -2.8 -5.9 -3.2 -7.7 -3.1 -14.7 0.1 -8.6 1.6 -13.6 5.9 -19.2 2 -2.6 2.3 -3.7 1.4 -5.2 -0.5 -1.1 -1 -2.9 -1 -4 0 -1.7 -0.6 -2.1 -3.5 -2.1 -2.2 0 -3.5 -0.5 -3.5 -1.3 0 -1.8 2.1 -3.7 4.1 -3.7 1 0 2 -1.1 2.3 -2.6 0.9 -3.6 5 -7.4 7.9 -7.4 3.4 0 7.4 3.5 8.2 7 0.5 2.2 1.3 3 3.3 3.2 3.5 0.4 3.8 4.1 0.5 4.6 -1.8 0.3 -2.3 1 -2.3 3.1 0 1.5 -0.9 3.6 -1.9 4.5 -1.9 1.7 -1.9 1.8 0.4 6.4 3.2 6.6 4.5 13.7 4.5 25.1 0 7.5 -0.4 10.1 -1.5 11.1 -1.2 1 -1.5 3.6 -1.5 11.5 0 9.9 0.1 10.2 2.5 11.3 2.5 1.1 3.2 2.6 1.8 3.5 -0.5 0.3 -4.2 0.8 -8.4 1.2 -7.1 0.7 -7.9 0.5 -9.9 -1.5z m8.2 -1.2 c-0.8 -0.8 -1.2 -4.8 -1.2 -11.5 l0 -10.3 -3.4 0 c-3.3 0 -3.3 0.1 -4 5.3 -1.6 13.4 -0.1 17.7 6.2 17.7 2.8 0 3.3 -0.3 2.4 -1.2z m5.7 -1.9 c-1.8 -1.8 -2 -3 -1.7 -11 0.3 -8.7 0.2 -8.9 -1.9 -8.9 -2.2 0 -2.3 0.3 -2.3 9.1 0 10.6 0.9 12.9 5 12.9 l3 0 -2.1 -2.1z m-1.1 -23.5 c2 -1.4 2.2 -2.3 2.2 -10.9 0 -10.7 -1.3 -17.7 -4.5 -25.2 -2.3 -5 -2.3 -5.2 -0.5 -6.5 1.1 -0.7 2.2 -2.5 2.5 -3.9 0.8 -3.3 -1.6 -4.1 -9.2 -3.2 -4.1 0.4 -5.3 1 -5.3 2.3 0 2 2.8 4.6 5.5 5.2 1.7 0.3 1.6 0.6 -1 1.9 -4.5 2.2 -9.2 9.9 -10 16.4 -0.8 6.3 0.1 13.8 2.1 17.7 3 5.7 4.3 2.6 4.5 -10.2 0 -4.7 0.5 -9.4 1 -10.5 0.6 -1.3 0.8 2.1 0.6 10.3 -0.3 9.5 -0.8 12.6 -2 14 -1.3 1.4 -1.4 2.1 -0.5 3 1.8 1.8 11.9 1.5 14.6 -0.4z m5.2 -51.4 c0.3 -0.1 -1 -0.6 -2.9 -1.3 -2.6 -0.9 -3.7 -2 -4.3 -4.2 -2 -7.7 -10.8 -6.9 -13.3 1.2 -0.3 1.3 -1.7 2.6 -3.1 2.9 -5.2 1.3 -1.8 1.9 10.3 1.7 7.1 -0.1 13 -0.3 13.3 -0.3z"/>
  <path d="M193.6 287.5 c-2 -1.1 -3.3 -1.2 -4 -0.5 -0.5 0.5 -3.3 1 -6.2 1 -5.7 0 -7.3 -1.5 -4.9 -4.7 1.8 -2.2 2.1 -27.3 0.4 -27.3 -0.5 0 -1.9 -2.1 -3.1 -4.6 -1.7 -3.9 -2 -6.2 -1.6 -13.9 0.3 -7.9 0.8 -10.1 3.7 -15.9 1.8 -3.6 4.2 -7.4 5.5 -8.3 2.2 -1.7 2.2 -1.7 0.4 -5.2 -4 -7.9 -1 -17.1 5.6 -17.1 5.3 0 8.1 3.8 8.1 11 0 4.1 -0.5 6.3 -1.7 7.7 -1.7 1.9 -1.7 2.1 0.6 4.2 1.3 1.2 3.7 5 5.2 8.4 2.6 5.6 2.9 7.2 2.9 17.4 0 10 -0.2 11.4 -2.2 14.2 -1.9 2.5 -2.4 4.8 -2.9 14.4 l-0.7 11.3 3.3 3.1 c2.9 2.7 3.2 3.4 2.1 4.7 -1.7 2 -6.7 2 -10.5 0.1z m-6.2 -1.4 c1.7 -0.6 1.8 -1.8 1.7 -12.8 -0.1 -7.6 0.2 -12.4 0.8 -12.8 0.8 -0.4 1.1 3.3 1.1 11.4 0 11.3 0.1 12.1 2.2 13.5 2.1 1.5 9.8 2.3 9.8 1 0 -0.3 -1.1 -1.5 -2.5 -2.6 l-2.5 -1.9 0.1 -24.7 c0.1 -13.6 0.5 -23.3 0.9 -21.7 0.4 1.7 0.8 6.6 0.9 11 l0.2 8 1.7 -3 c2.2 -4 2.2 -18 -0.1 -25.7 -1 -3.1 -3.2 -7.7 -5.1 -10.1 -3 -4 -3.2 -4.6 -2 -6.8 0.7 -1.3 1.3 -4.5 1.4 -7 0 -7.4 -5.6 -11.4 -10.2 -7.2 -2.3 2 -2.4 9.2 -0.3 13.4 1.6 2.9 1.5 3.1 -1.9 7.1 -5.4 6.3 -7.9 13.7 -7.9 23.8 -0.1 6.3 0.4 9.5 1.8 12.5 l1.9 4 1.1 -11.5 1.2 -11.5 0 24.3 c0 18.3 -0.4 24.7 -1.3 26 -2.2 2.9 -1.6 4.2 1.9 4.1 1.7 0 4 -0.4 5.1 -0.8z"/>
  <path d="M228 286.5 c-1 -1.2 -1 -2.1 -0.1 -4.1 0.6 -1.4 1.1 -6.6 1.1 -11.6 0 -7.2 -0.4 -9.5 -1.7 -11 -2.4 -2.7 -2.9 -13.1 -0.9 -19.9 0.8 -3 2.9 -7 4.5 -8.9 l3 -3.5 -3.5 7 c-3.1 6.2 -3.5 8 -3.5 14.3 0 8.3 1.9 13.8 2.2 6.2 0 -2.5 0.4 -5.6 0.9 -7 0.4 -1.4 0.6 5.6 0.4 15.5 -0.1 9.9 -0.6 19.1 -1 20.4 -0.7 2.3 -0.6 2.4 3.7 1.8 4 -0.5 4.2 -0.4 2.5 0.9 -2.6 1.8 -6 1.8 -7.6 -0.1z"/>
  <path d="M239 286 c-1.7 -1.7 -2 -3.2 -1.8 -10.7 l0.1 -8.8 0.6 8.7 c0.4 4.8 1.1 9.2 1.6 9.7 0.6 0.5 2.7 1.3 4.8 1.6 3.9 0.8 5.1 -0.7 2.5 -3.3 -0.9 -0.9 -1.4 -6.6 -1.6 -19.5 -0.2 -12.6 0 -17.7 0.8 -16.7 0.5 0.8 1 3.8 1.1 6.5 0.1 4.7 0.1 4.8 1 2 2.1 -6.4 -1.4 -23 -5.6 -26.5 -1.1 -0.9 -1.1 -1.6 0.1 -3.8 1.8 -3.4 1.8 -6.4 0 -10.7 -1.1 -2.6 -2.1 -3.5 -3.9 -3.5 -5 0 -7.7 7.1 -5.3 14 0.8 2.4 0.7 2.4 -1 0.8 -2.3 -2.2 -2.3 -9.7 -0.1 -13.2 2.2 -3.3 6 -4.3 9 -2.3 4 2.6 5.5 11.5 2.5 15.4 -0.6 0.7 0.1 3 2.1 6.5 4.1 7.4 5.7 16.1 4.1 22.7 -0.7 2.8 -1.6 5.4 -2.1 5.7 -0.5 0.3 -0.9 5.1 -0.9 10.6 0 8 0.4 10.5 1.6 11.9 2.6 2.9 1.1 4.9 -3.6 4.9 -2.7 0 -4.7 -0.7 -6 -2z"/>
  <path d="M680.1 286.7 c-1.8 -1.8 -1.3 -4.2 1.5 -6.8 4.2 -3.9 4.7 -5.5 3.4 -11 -0.8 -3.1 -0.9 -6.4 -0.4 -8.7 0.8 -3.6 0.8 -3.5 1.6 2.8 0.4 3.6 1 8.1 1.3 10 0.6 3 0.2 3.9 -2.4 6.4 -3 2.9 -4.2 6.6 -2.1 6.6 2.1 0 8.8 -4 12.3 -7.2 2.8 -2.7 3.5 -4.1 3.5 -7.1 0 -2 -0.3 -3.5 -0.8 -3.2 -0.4 0.2 -0.5 -0.7 -0.2 -2 0.3 -2 -0.3 -2.8 -3.2 -4.6 -4 -2.3 -4.4 -4.1 -2 -9.7 2.8 -6.8 9.5 -12.2 15 -12.2 1.9 0 3.9 1.3 6.6 4.2 2.1 2.3 3.8 4.6 3.8 5.1 0 0.6 -1.6 -0.8 -3.6 -3.1 -6 -7 -8.2 -5.3 -5.2 4.1 2.8 9 2.5 22.7 -0.7 29.5 -1.3 2.8 -2.6 5.2 -2.9 5.2 -0.3 0 0.6 -2.4 1.9 -5.2 2.1 -4.4 2.5 -6.9 2.5 -14.2 0 -8.8 -2.4 -20.6 -4.1 -20.6 -0.5 0 -3.3 1.1 -6.3 2.5 -4.1 1.9 -5.7 3.2 -6.4 5.5 -1 2.7 -0.8 3.4 0.9 3.2 0.3 -0.1 1.9 1.2 3.4 2.8 2.3 2.4 3 4.1 3.3 8.8 0.4 5.5 0.2 6.1 -2.8 9.6 -5.3 6 -15.8 11.4 -17.9 9.3z"/>
  <path d="M270.5 285.4 c-0.7 -0.3 -0.9 -5 -0.7 -13.3 0.4 -10.9 0.2 -13.2 -1.3 -15.5 -1.4 -2.1 -1.7 -4.2 -1.3 -11.1 0.4 -7.4 0.9 -9.5 4.1 -15.7 3.5 -6.7 3.6 -7.3 2 -9 -3.5 -3.9 -0.9 -12.1 4.4 -13.4 6.4 -1.6 11.1 5.6 8 12.1 -1.6 3.3 -1.5 3.5 2 10.3 4.4 8.7 5.4 17.3 2.8 25.1 -0.9 2.8 -2.1 5.1 -2.7 5.1 -0.7 0 -0.9 3 -0.6 9.1 0.5 7.5 0.9 9.4 2.8 11.4 3.6 3.8 2.1 5.9 -3.7 5.1 -2.5 -0.3 -5.1 -1 -5.7 -1.5 -0.7 -0.6 -1.8 -0.4 -3 0.5 -1.9 1.4 -5 1.7 -7.1 0.8z m19.5 -2.4 c0 -0.4 -0.9 -1.5 -2 -2.5 -1.9 -1.7 -2 -3 -1.8 -18.4 0.1 -10.5 0.4 -14.6 0.8 -11.1 0.6 5.4 0.6 5.4 1.8 2.7 1.6 -3.7 1.5 -15.2 -0.2 -20 -0.8 -2 -2.5 -5.2 -3.9 -7 -2.2 -3 -2.4 -3.5 -1.1 -5.7 1.8 -3.4 1.7 -8.5 -0.2 -10.4 -2.2 -2.3 -6 -2 -8.4 0.6 -2.5 2.7 -2.5 4.8 0 9 l2 3.4 -2.4 3.5 c-4 5.9 -5.7 11.1 -6.3 18.9 -0.4 5.9 -0.1 7.9 1.1 9.5 1.4 1.9 1.5 1.6 1.6 -4.7 0 -3.8 0.4 -6.8 0.9 -6.8 0.7 0 0.7 9.9 -0.3 32.3 -0.3 7.4 -0.2 7.7 2 7.7 5 0 5.3 -0.5 4.9 -10.8 -0.3 -6.4 -0.1 -8.7 0.4 -6.7 0.5 1.7 0.9 5.8 1 9.1 0.1 3.6 0.6 6.6 1.4 7.2 2.3 1.9 8.7 2.1 8.7 0.2z"/>
  <path d="M116.2 283 c-2.2 -2.4 -3.7 -13 -2.6 -18.7 0.6 -3 0.3 -3.9 -1.5 -5.2 -1.8 -1.4 -2.3 -3 -2.8 -9.2 -0.6 -8.3 1.1 -15.6 4.7 -20.2 1.7 -2.2 1.8 -2.6 0.5 -3.7 -2.3 -1.9 -2.9 -7.4 -1.1 -10.9 2.9 -5.4 10.3 -5.4 13.2 0 2.4 4.7 -0.3 11.9 -4.5 11.9 -1.2 0 -1.1 -0.4 0.6 -1.8 4.8 -3.8 3.3 -12.2 -2.2 -12.2 -5.5 0 -8.3 6.6 -4.7 11.1 1.9 2.2 1.8 2.3 -1.5 8.6 -2.8 5.5 -3.3 7.5 -3.3 13.3 0 3.8 0.5 8.1 1.2 9.7 1.1 2.7 1.2 2.6 2 -3.2 1.4 -10.5 1.7 -8.4 1.2 8.5 -0.6 18.1 0.1 21.2 4.6 21.8 2 0.3 2.3 0.1 1.3 -0.9 -1.5 -1.5 -1.7 -13.7 -0.3 -15.9 0.7 -1 1 0.8 1 6.1 0 7.6 0.5 8.9 4.1 10.2 1.4 0.5 1.5 0.1 0.3 -3.1 -1.9 -5.3 -1.7 -10.5 0.7 -18.9 1.8 -6.4 1.9 -8.2 0.9 -15.1 -0.6 -4.5 -2.1 -9.8 -3.6 -12.7 l-2.6 -5 2.5 2.3 c5.3 5 7.6 21.8 4.3 31.5 -2.1 6.3 -2.1 15.1 0.1 18.8 0.9 1.5 1.5 3 1.2 3.2 -0.2 0.2 -3 0.7 -6.1 1.1 -5 0.5 -6 0.3 -7.6 -1.4z"/>
  <path d="M218.8 282.3 c1.2 -0.2 3 -0.2 4 0 0.9 0.3 -0.1 0.5 -2.3 0.4 -2.2 0 -3 -0.2 -1.7 -0.4z"/>
  <path d="M670.3 276.3 c2.4 -4.6 3.1 -7.7 1.6 -6.8 -0.9 0.6 -1.1 -0.4 -0.6 -4.6 0.4 -3 0.7 -8.8 0.7 -12.9 0 -10.3 1.9 -7.2 2.1 3.5 l0.2 8 1 -7.2 c1.1 -8 2.7 -9.8 2.7 -3 -0.1 9.2 -5.2 25.7 -8 25.7 -0.6 0 -0.5 -1.2 0.3 -2.7z"/>
  <path d="M692 278.7 c0 -0.2 1.5 -1.6 3.3 -3.3 l3.2 -2.9 -2.9 3.3 c-2.8 3 -3.6 3.7 -3.6 2.9z"/>
  <path d="M42 275.5 c-1.5 -1.8 -0.6 -6.1 1.5 -6.9 2.2 -0.8 6.5 1.1 6.5 2.9 0 4.8 -5.2 7.4 -8 4z m5.8 -2.8 c0.3 -2.3 0 -2.7 -2.2 -2.7 -2.1 0 -2.6 0.5 -2.6 2.4 0 4.3 4.3 4.6 4.8 0.3z"/>
  <path d="M666.8 260.3 c-0.3 -9.2 -0.4 -16.9 -0.3 -17.1 1 -1.1 2.6 11.9 2.6 21.2 0 17.7 -1.8 14.6 -2.3 -4.1z"/>
  <path d="M31 273.4 c0 -1.4 0.4 -2.3 1 -1.9 0.6 0.3 1 1.5 1 2.6 0 1 -0.4 1.9 -1 1.9 -0.5 0 -1 -1.2 -1 -2.6z"/>
  <path d="M411 269 c0 -7.1 2.1 -30.7 2.9 -33.5 l0.9 -3 0.1 3.5 0.1 3.5 15.1 -0.3 c8.4 -0.2 16.3 0 17.8 0.5 1.7 0.5 -3.8 1 -15.4 1.3 l-18 0.5 -0.3 3.1 -0.3 3.2 15.8 -0.4 c10.3 -0.3 15.1 -0.1 13.8 0.5 -1.1 0.5 -7.2 1 -13.5 1 -14.6 0.2 -16 0.5 -16 4.2 l0 2.9 15.8 0.1 c11.3 0 14.9 0.3 12.7 1 -1.7 0.5 -7.7 0.7 -13.7 0.3 -13.8 -0.8 -15.8 -0.4 -15.8 3.9 l0 3.2 14.7 -0.1 14.8 -0.1 -12 0.7 c-6.6 0.4 -13.2 0.8 -14.7 0.9 -2.3 0.1 -2.8 0.6 -2.8 2.6 l0 2.4 14.8 0.3 14.7 0.3 -15.8 0.5 -15.7 0.5 0 -3.5z"/>
  <path d="M663 264.8 c0 -5.2 -2.3 -18.8 -4.6 -26.9 -2 -7.1 -1.4 -8.7 1.1 -2.7 3.8 9.5 7.1 33.8 4.5 33.8 -0.5 0 -1 -1.9 -1 -4.2z"/>
  <path d="M136 263 c-1.4 -0.5 6 -0.8 17.8 -0.9 12.8 -0.1 20.2 0.3 20.2 0.9 0 1.2 -34.2 1.2 -38 0z"/>
  <path d="M501.1 262.7 c3.1 -0.7 6.8 -2.1 8.3 -3.1 1.5 -1 3 -1.6 3.2 -1.4 1 1 -7.9 4.9 -12.2 5.3 l-4.9 0.5 5.6 -1.3z"/>
  <path d="M297.5 261.9 c1.1 -0.4 5.6 -0.8 10 -0.8 10.1 0.1 8.7 0.6 -3 1.2 -5.1 0.3 -8.1 0.1 -7 -0.4z"/>
  <path d="M322.8 262.3 l7.2 -0.4 0 -38.3 0 -38.3 -11.2 -0.6 c-6.2 -0.4 -31.8 -1.2 -56.8 -1.8 l-45.5 -1.1 -4.5 -2.6 c-8.5 -4.8 -39.1 -25.4 -38.6 -25.9 0.3 -0.3 9.6 5.5 20.8 12.9 l20.3 13.5 35 1.1 c19.3 0.7 45.1 1.4 57.5 1.7 l22.4 0.6 -11.3 -5.6 -11.2 -5.5 -17.3 0 c-25.4 0 -74.7 -1.2 -74.1 -1.9 0.7 -0.7 73.6 -0.2 84.9 0.6 9.1 0.6 10 0.9 31.4 11 3.5 1.7 4.2 3.3 1.5 3.3 -1.7 0 -1.8 2.4 -1.5 39 l0.3 39 -8.3 -0.2 -8.3 -0.2 7.3 -0.3z"/>
  <path d="M572.5 262 c-1.3 -0.6 -0.5 -0.7 2.5 -0.3 2.5 0.3 4.7 0.7 4.9 0.9 0.9 0.8 -5.5 0.2 -7.4 -0.6z"/>
  <path d="M208.1 261.3 c2.2 -0.3 2.8 -1.2 3.6 -4.6 l1.1 -4.2 0.1 4.2 0.1 4.2 4.8 0.4 c2.6 0.2 0.9 0.4 -3.8 0.4 -4.7 0 -7.3 -0.2 -5.9 -0.4z"/>
  <path d="M347.3 261.3 c2.6 -0.2 6.7 -0.2 9 0 2.3 0.2 0.2 0.3 -4.8 0.3 -4.9 0 -6.8 -0.1 -4.2 -0.3z"/>
  <path d="M255.7 260.3 c1.8 -0.2 5 -0.2 7 0 2.1 0.2 0.7 0.4 -3.2 0.4 -3.8 0 -5.5 -0.2 -3.8 -0.4z"/>
  <path d="M61.3 259.3 c1.5 -0.2 3.7 -0.2 5 0 1.2 0.2 0 0.4 -2.8 0.4 -2.7 0 -3.8 -0.2 -2.2 -0.4z"/>
  <path d="M100.3 259.3 c1.5 -0.2 3.7 -0.2 5 0 1.2 0.2 0 0.4 -2.8 0.4 -2.7 0 -3.8 -0.2 -2.2 -0.4z"/>
  <path d="M493.5 259 c-1.2 -0.4 -2.7 -1.5 -3.5 -2.5 -1 -1.2 -0.4 -1.1 2.4 0.6 3.1 1.8 4.7 2.1 9.9 1.6 3.7 -0.3 5.4 -0.1 4.2 0.3 -2.6 1.1 -10.4 1.1 -13 0z"/>
  <path d="M134.5 258 c-0.4 -0.7 6 -1 18.4 -1 12.1 0 19.1 0.4 19.1 1 0 0.6 -6.8 1 -18.4 1 -11.3 0 -18.7 -0.4 -19.1 -1z"/>
  <path d="M344.3 258.3 c3.7 -0.2 9.6 -0.2 13 0 3.4 0.2 0.4 0.3 -6.8 0.3 -7.1 0 -9.9 -0.1 -6.2 -0.3z"/>
  <path d="M22.8 257.3 c1.2 -0.2 3.2 -0.2 4.5 0 1.2 0.2 0.2 0.4 -2.3 0.4 -2.5 0 -3.5 -0.2 -2.2 -0.4z"/>
  <path d="M150 253.1 l-11.5 -0.6 -0.3 -31.4 c-0.2 -22.3 0.1 -31.8 0.9 -32.7 1.2 -1.5 7.9 -1.8 16.7 -0.8 l5.2 0.7 0 31.4 c0 30.6 0.1 31.5 2 32 2.1 0.5 1.8 2.5 -0.3 2.1 -0.7 -0.1 -6.4 -0.4 -12.7 -0.7z m9.2 -12.3 c0.2 -5.7 0.2 -19.5 -0.1 -30.8 l-0.6 -20.5 -9.8 -0.3 -9.8 -0.3 0.5 23.3 c0.3 12.8 0.5 26.8 0.5 31.1 l0.1 7.7 9.3 0 9.4 0 0.5 -10.2z"/>
  <path d="M348.1 253.6 c1.3 -1.1 9.9 -5.7 9.9 -5.3 0 0.6 -8.6 5.7 -9.6 5.7 -0.4 0 -0.5 -0.2 -0.3 -0.4z"/>
  <path d="M733.8 246.8 c-2.5 -9.2 -3.6 -17.2 -5.3 -37.7 -2 -24 -7.1 -50.2 -12.5 -64.4 -1.1 -2.8 -1.8 -5.3 -1.6 -5.5 0.7 -0.6 4.5 10.5 7.2 21 4.1 16.3 6.2 29.4 7.9 49 1.6 18.8 3.7 33.2 5.6 38.7 0.6 1.7 0.9 3.5 0.7 4.1 -0.2 0.6 -1.1 -1.7 -2 -5.2z"/>
  <path d="M346 249.3 c1.9 -1.5 6.6 -5.4 10.5 -8.6 l7 -5.8 -6 5.5 c-3.3 3.1 -8 7 -10.5 8.7 -4.1 2.8 -4.2 2.8 -1 0.2z"/>
  <path d="M338 250.7 c0 -0.2 2.1 -1.8 4.8 -3.6 3.5 -2.5 4 -2.6 1.7 -0.6 -3 2.6 -6.5 4.9 -6.5 4.2z"/>
  <path d="M565.3 249.3 c-1.8 -0.2 -3.3 -0.8 -3.3 -1.4 0 -0.5 5.3 -0.9 12.3 -0.9 6.7 -0.1 15.8 -0.7 20.2 -1.5 9.3 -1.7 21.1 -2 22 -0.5 0.4 0.6 -1.5 1 -4.9 1 -3 0 -9 0.7 -13.3 1.5 -8 1.6 -27.3 2.7 -33 1.8z"/>
  <path d="M337 248.6 c0 -0.2 1.4 -1.4 3 -2.6 1.7 -1.2 3 -1.9 3 -1.6 0 0.2 -1.3 1.4 -3 2.6 -1.6 1.2 -3 1.9 -3 1.6z"/>
  <path d="M384 243.5 c-1.8 -2.2 -1.4 -7.5 0.7 -9.6 1.4 -1.5 3.6 -1.9 10.6 -2 5.3 -0.2 9.2 0.2 9.9 0.9 1.5 1.5 1.5 8.7 -0.1 10.6 -1.9 2.3 -19.2 2.3 -21.1 0.1z m19.9 -1.9 c0.7 -0.8 1.1 -2.7 0.9 -4.3 -0.3 -2.8 -0.3 -2.8 -8.6 -3.1 -5.3 -0.2 -8.9 0.1 -9.8 0.9 -1.4 1.2 -1.9 6 -0.7 7.2 0.3 0.4 4.3 0.7 8.8 0.7 6 0 8.6 -0.4 9.4 -1.4z"/>
  <path d="M211.2 211.8 c0.1 -21.3 0.3 -27.9 0.9 -22.3 1.1 11.5 1 52.5 -0.2 52.5 -0.5 0 -0.8 -12 -0.7 -30.2z"/>
  <path d="M489.5 237.3 c3.8 -9.2 10.5 -11.1 18.8 -5.4 2.5 1.7 4.9 3.7 5.3 4.4 0.5 0.6 -0.9 -0.1 -2.9 -1.6 -9.9 -7.5 -16 -6.9 -19.9 2.1 -2.3 5.2 -3.4 5.6 -1.3 0.5z"/>
  <path d="M562.4 236.6 c1.5 -1.3 4.7 -3.3 7 -4.5 2.2 -1.2 3.2 -1.6 2.2 -0.9 -1 0.7 -3.9 2.8 -6.3 4.6 -4.9 3.7 -7.2 4.3 -2.9 0.8z"/>
  <path d="M601.3 234.4 c-8.2 -6.3 -20.3 -9 -29.2 -6.4 -1.9 0.5 -5.3 2.4 -7.5 4.1 l-4.1 3.1 3.7 -3.5 c7 -6.8 19.6 -7.6 30.9 -1.9 6.2 3.1 11.6 6.9 10.8 7.6 -0.2 0.2 -2.3 -1.2 -4.6 -3z"/>
  <path d="M510.8 228.9 c-2.8 -4.4 -4.2 -5.7 -5.7 -5.4 -1.1 0.2 -2.7 -0.5 -3.8 -1.7 -1.2 -1.5 -1.3 -1.9 -0.3 -1.3 0.8 0.4 0.2 -0.6 -1.4 -2.3 -1.6 -1.7 -3.4 -2.9 -3.9 -2.5 -0.6 0.3 -0.7 0.2 -0.4 -0.4 0.3 -0.5 0 -1 -0.8 -1 -0.8 0 -1.3 0.5 -1.2 1.1 0.1 0.6 -0.5 1.1 -1.2 1.1 -0.9 0 -1.6 -1.1 -1.6 -2.7 -0.2 -3.3 -0.3 -3.3 3.8 -1.1 1.8 0.9 3.4 1.7 3.7 1.8 1.2 0.1 3.9 2.1 4.2 3 0.2 0.6 0.6 0.9 1 0.8 1.1 -0.4 12.5 15.3 11.7 16.1 -0.2 0.2 -2.1 -2.3 -4.1 -5.5z m-5.9 -7.6 c-0.6 -0.7 -1.5 -1 -2 -0.7 -1.3 0.8 -0.3 2.1 1.5 2.1 1.2 0 1.3 -0.4 0.5 -1.4z"/>
  <path d="M724.1 228.8 c-1.1 -3.5 -4.1 -15.1 -6.5 -25.9 -5.5 -24.2 -11.2 -41.6 -18.7 -56.8 -3.1 -6.4 -5.6 -11.8 -5.4 -12 0.2 -0.1 3.1 5.3 6.4 12 7.7 15.6 13.7 34.1 19.1 58.3 2.3 10.4 5.1 21.4 6.1 24.4 1 3 1.7 5.7 1.5 5.9 -0.2 0.2 -1.3 -2.4 -2.5 -5.9z"/>
  <path d="M345 231.8 c0 -2.4 3.8 -7.6 7.6 -10.4 4.7 -3.6 11.2 -9.7 9.9 -9.2 -6.4 2.4 -15.5 7.6 -18.2 10.4 -2 2.2 -3.3 3 -3.3 2 0 -2.5 6 -7.6 12.4 -10.5 3.4 -1.5 7.8 -4.3 9.9 -6.1 2.1 -1.8 4.1 -3 4.4 -2.6 1.4 1.4 -3.8 9.6 -8.4 13.2 -5.9 4.8 -11.5 10.5 -10.9 11.1 0.5 0.6 8.6 -3.5 10.9 -5.5 1.5 -1.4 1.7 -1.4 1.7 0.1 0 1.7 -3.5 4.3 -9.3 7 -4.5 2 -6.7 2.2 -6.7 0.5z"/>
  <path d="M419 230.9 c5.7 -1 19 -1 25.5 0.1 3.4 0.5 -0.5 0.7 -12.5 0.7 -11.8 0 -16 -0.2 -13 -0.8z"/>
  <path d="M304 211.5 l0 -19.5 8 0 8 0 0 19.5 0 19.5 -8 0 -8 0 0 -19.5z m9.4 17.9 l4.6 -0.7 0 -17.3 0 -17.4 -6.2 0 -6.3 0 -0.1 18 c-0.2 20.2 -1 18.6 8 17.4z"/>
  <path d="M702 226.4 c-13.7 -11 -30.5 -23.7 -37.5 -28.4 -14.7 -9.8 -36.3 -27.1 -44 -35.1 -7.9 -8.3 -12.2 -14.4 -17.4 -24.6 -3.1 -6.2 -8.5 -23.2 -7.7 -24.1 0.3 -0.2 1 1.6 1.6 3.9 4.9 19.2 12.5 32.6 25.9 45.9 8.4 8.3 25.3 21.8 39.8 31.6 14.3 9.7 46.3 34.4 44.6 34.4 -0.4 0 -2.8 -1.6 -5.3 -3.6z"/>
  <path d="M254.5 211 l0.7 -18 -8 0 -8.1 0 -0.4 5.8 -0.3 5.7 -0.2 -6.7 -0.2 -6.8 9 0 9 0 0 19 c0 13.4 -0.3 19 -1.1 19 -0.8 0 -1 -4.9 -0.4 -18z"/>
  <path d="M393.5 224 c5.5 -0.4 20.6 -0.7 33.5 -0.7 20 0 21.7 0.2 11.5 0.7 -6.6 0.4 -21.7 0.7 -33.5 0.7 -17.5 0 -19.6 -0.2 -11.5 -0.7z"/>
  <path d="M496 220 c-1.9 -1.6 -3.3 -3 -3 -3 3.2 -0.7 4.1 -0.6 5.1 0.7 1 1.1 2.2 5.5 1.5 5.3 -0.1 0 -1.7 -1.4 -3.6 -3z"/>
  <path d="M543 220.1 c-0.6 -1.6 -1 -3.8 -0.7 -4.8 0.4 -1.4 0.5 -1.3 0.6 0.5 0 1.3 0.6 3.2 1.2 4.4 0.6 1.1 0.9 2.2 0.6 2.4 -0.2 0.3 -1 -0.9 -1.7 -2.5z"/>
  <path d="M38.8 221.2 l-4.7 -0.3 -0.3 -10.5 c-0.2 -5.7 -0.1 -13.3 0 -16.9 l0.4 -6.5 8.4 0 c10.2 0 9.6 -1.2 9.2 19.5 l-0.3 15 -4 0 c-2.2 0 -6.1 -0.1 -8.7 -0.3z m11.2 -14.4 c0 -7.3 0.3 -14.3 0.6 -15.5 0.6 -2.3 0.5 -2.3 -7.6 -2.3 l-8.2 0 0.6 3.1 c0.3 1.7 0.6 8.5 0.6 15 l0 11.8 6.3 0.4 c3.4 0.2 6.5 0.4 7 0.5 0.4 0.1 0.7 -5.8 0.7 -13z"/>
  <path d="M547.1 217.4 c0 -3.3 0.4 -5.7 1.5 -7 0.8 -1 1.2 -1.2 0.7 -0.4 -0.4 0.8 -1.1 4 -1.4 7 l-0.6 5.5 -0.2 -5.1z"/>
  <path d="M504.9 217.3 c-2.6 -2.8 -2.8 -3.3 -1 -2.2 2.2 1.4 6 5.9 4.9 5.9 -0.2 0 -2 -1.7 -3.9 -3.7z"/>
  <path d="M550.1 218.9 c-0.1 -2.6 4.7 -13.4 5.6 -12.5 0.3 0.2 -0.3 1.6 -1.3 3.1 -1 1.5 -2.3 4.8 -3 7.3 -0.9 3.2 -1.3 3.9 -1.3 2.1z"/>
  <path d="M554.4 215.2 c2.4 -4.8 7.1 -10 8.1 -9 0.3 0.3 -0.6 1.3 -2 2.2 -2.1 1.4 -6.5 8.2 -6.5 10.2 0 0.4 1.9 -1.4 4.1 -4 2.3 -2.6 6.5 -6 9.3 -7.6 5.1 -3 8.2 -3.9 7.1 -2 -0.4 0.6 -1.2 0.7 -1.8 0.4 -0.8 -0.5 -0.9 -0.4 -0.2 0.4 0.8 0.9 2.1 0.7 5 -0.8 2.2 -1 5.4 -2.1 7 -2.5 1.7 -0.3 0.5 0.4 -2.5 1.5 -3 1.1 -8.9 4.5 -13 7.5 -5.7 4.2 -6.4 4.6 -3 1.5 2.5 -2.2 4 -4 3.4 -4 -0.6 0 -3.2 1.8 -5.8 4.1 -2.5 2.2 -4.6 3.7 -4.6 3.3 0 -0.4 -0.9 0.1 -2 1.1 -4.1 3.7 -5.1 2.7 -2.6 -2.3z m15.4 -6.7 c2 0.7 3.7 -0.5 2.1 -1.6 -0.7 -0.4 -2.2 -0.3 -3.3 0.3 -3.3 1.8 -9.6 7 -9.6 8.1 0 0.5 2.1 -1 4.7 -3.3 2.6 -2.3 5.3 -3.8 6.1 -3.5z"/>
  <path d="M673.9 213.7 c-16.5 -11.8 -26.9 -20 -37.1 -29.2 -6 -5.3 -10.8 -9.8 -10.8 -10.1 0 -0.3 4.7 3.6 10.6 8.8 11.7 10.4 22.3 18.7 36.2 28.4 8.2 5.9 10.1 7.4 8.8 7.4 -0.2 0 -3.7 -2.4 -7.7 -5.3z"/>
  <path d="M486.3 212.9 c-1.8 -1.2 -3.3 -2.2 -3.3 -2.3 0 -0.4 6 -0.1 6.1 0.4 0 0.3 0.2 1.3 0.4 2.3 0.2 0.9 0.3 1.7 0.2 1.7 -0.1 0 -1.7 -1 -3.4 -2.1z"/>
  <path d="M568.6 213.8 c1 -1.6 14.6 -7.8 16.9 -7.7 1.1 0 0.1 0.6 -2.1 1.3 -2.3 0.7 -6.7 2.7 -9.8 4.4 -3.1 1.6 -5.3 2.6 -5 2z"/>
  <path d="M579.2 212 c4.2 -2.2 14.2 -5.1 17.3 -4.9 1.1 0.1 -0.8 0.7 -4.3 1.5 -3.5 0.7 -8.4 2.3 -10.9 3.4 -5.8 2.5 -6.9 2.5 -2.1 0z"/>
  <path d="M584 213.1 c2.3 -1.6 14.5 -4.3 17.1 -3.8 2 0.4 1.9 0.5 -0.6 0.6 -2.7 0.1 -7.4 1.2 -15.5 3.5 -1.8 0.5 -2.1 0.5 -1 -0.3z"/>
  <path d="M391.3 212 c-4.1 -1.7 -4.1 -4.8 -0.2 -28.5 2.7 -16.4 3.3 -18.2 7.2 -19.4 4.9 -1.5 43.6 -2.5 47 -1.2 2.2 0.8 2.7 1.7 2.7 4.3 0 5.3 -5.7 39.3 -6.9 41.7 -0.6 1.1 -2.2 2.3 -3.4 2.5 -4.5 0.9 -44.3 1.4 -46.4 0.6z m47.5 -3.4 c1.3 -1.3 7.2 -34 7.2 -40.1 0 -2 -0.6 -3.5 -1.5 -3.9 -2.1 -0.8 -43.5 0.5 -46.1 1.5 -2.3 0.8 -3.2 4.1 -6.4 24.3 -2.6 15.7 -2.4 18.8 1 19.7 4.5 1.1 44.4 -0.2 45.8 -1.5z"/>
  <path d="M413 197.7 c0 -0.2 1.5 -1.6 3.3 -3.3 l3.2 -2.9 -2.9 3.3 c-2.8 3 -3.6 3.7 -3.6 2.9z"/>
  <path d="M407.7 194.7 c1 -1.3 3.6 -3.8 5.8 -5.7 3 -2.5 2.6 -1.9 -1.5 2.3 -5.7 6 -7.4 7.3 -4.3 3.4z"/>
  <path d="M407.9 186.3 c2.3 -2.9 4.8 -5.6 5.4 -6 1.7 -1 -4.6 6.8 -7.4 9.2 -1.3 1.1 -0.4 -0.4 2 -3.2z"/>
  <path d="M598.5 212 c3.1 -0.8 11.2 -1.3 10.4 -0.6 -0.2 0.2 -3.3 0.6 -6.9 0.9 -4.1 0.3 -5.4 0.2 -3.5 -0.3z"/>
  <path d="M341.7 209.3 c-0.4 -0.6 -0.3 -3.1 0.2 -5.4 1 -4.4 6.1 -10.5 11.9 -14.1 5.4 -3.4 8.2 -9.3 8.2 -17.6 0 -11.6 4.4 -20.7 12.8 -26.6 4.9 -3.4 7.5 -2.6 3.3 1 -1.7 1.4 -4.2 4.9 -5.7 7.9 -2.5 5.3 -2.6 5.9 -1.9 16.4 0.6 10 0.5 11.4 -1.4 15.3 -1.2 2.5 -5.1 7.1 -9 10.6 -4.4 4 -7.4 7.4 -8.1 9.7 -1.4 4.2 -3.5 4.8 -2.5 0.8 0.9 -3.9 4.9 -9.2 9.9 -13.3 2.4 -1.9 5.4 -5 6.7 -6.9 2.3 -3.3 2.4 -4.2 2.1 -15.6 -0.2 -6.8 0.2 -13.4 0.8 -15.1 0.9 -2.7 0.9 -2.8 -0.5 -0.9 -2.5 3.2 -4.5 11.4 -4.5 18.3 0 8.6 -2 12.3 -10.1 18.8 -7.3 5.8 -8.4 7.3 -10.3 13.8 -0.7 2.4 -1.5 3.6 -1.9 2.9z"/>
  <path d="M113.2 195.9 c0.5 -11.5 0.4 -12.7 -1.3 -13.8 -2.9 -1.8 -2.3 -3.8 2.1 -6.3 l4 -2.3 0.2 -20 0.3 -20 8.3 -0.3 8.2 -0.3 0 15.1 c0 10.5 0.3 15 1.1 15 0.6 0 3.5 -1.3 6.3 -2.9 6.8 -3.9 31.4 -15.5 30.1 -14.2 -0.5 0.5 -10.9 6.1 -23 12.4 -38.4 20 -41.2 21.7 -35.7 22.5 1.3 0.2 6.8 -2.1 13.5 -5.6 19 -10.2 44.7 -22.6 44.7 -21.7 0 0.2 -9.8 5.4 -21.7 11.4 -31.1 15.8 -28.3 13.4 -28.4 23.3 0 4.6 -0.4 10.3 -0.9 12.8 -0.9 4.3 -0.9 4.3 -0.5 -1.4 0.2 -3.3 0.1 -8.8 -0.2 -12.2 -0.6 -6.1 -0.6 -6.2 -2.9 -5.2 -2.3 1.1 -2.4 1.7 -2.6 11.2 -0.2 13.1 -0.2 13.4 -1.2 14.3 -0.5 0.4 -0.6 -4.9 -0.4 -11.8z m10.9 -39.2 c0.1 -7.3 0.3 -14.5 0.4 -16.2 0.2 -4.1 -0.4 -5.5 -2.6 -5.5 -1.8 0 -1.9 0.9 -1.9 18.5 0.1 18 0.2 18.5 2.1 17.5 1.7 -1 1.9 -2.3 2 -14.3z m5.9 9.8 l3 -1.6 0 -14.9 0 -15 -3.2 0 -3.3 0 -0.3 16.5 c-0.2 9.1 -0.1 16.5 0.3 16.5 0.3 0 1.9 -0.7 3.5 -1.5z"/>
  <path d="M273.2 199.4 c-0.2 -4.8 0.1 -6.3 1.4 -6.8 2 -0.8 8.3 -0.8 12.3 0 3.1 0.6 3.1 0.7 3.1 6.6 0 4.1 -0.3 5.7 -1.1 5.2 -0.7 -0.4 -0.9 -2.4 -0.6 -5.5 l0.6 -4.9 -7.4 0 -7.4 0 -0.4 5.8 -0.3 5.7 -0.2 -6.1z"/>
  <path d="M723.1 193.4 c-1.4 -12.4 -4.1 -25.9 -7.2 -35.4 -3.2 -10 -14.5 -32.3 -19.9 -39.6 -2.7 -3.5 -4.5 -6.4 -4 -6.4 1.4 0 11.3 15.5 16.3 25.5 5.7 11.4 10 23.5 12.5 35.6 2.3 10.7 4.6 28.1 4 30 -0.2 0.7 -1 -3.7 -1.7 -9.7z"/>
  <path d="M73.1 198 c-0.2 -0.8 -0.3 -3.5 -0.3 -6 l-0.1 -4.5 10.2 -0.3 10.1 -0.3 0 5.6 c0 3 -0.4 5.5 -1 5.5 -0.5 0 -1 -2 -1 -4.5 l0 -4.5 -8.4 0 -8.5 0 -0.4 5.3 c-0.2 2.8 -0.5 4.5 -0.6 3.7z"/>
  <path d="M338 189.6 c0 -0.4 0.9 -3.6 2.1 -7.2 1.6 -4.8 3 -7.2 5.6 -9.2 3.3 -2.6 6.3 -6.9 6.3 -9.2 0 -0.6 -2.6 0.9 -5.9 3.4 -4 3.1 -6.4 5.9 -7.7 8.8 -1.5 3.7 -1.8 4 -2.2 2 -0.5 -3.4 2.7 -8.1 8.7 -12.7 2.9 -2.3 6 -5.3 6.7 -6.8 2.2 -4.1 3.5 -3.3 2.8 1.6 -1 7.9 -1.5 9 -6.3 13.8 -3.4 3.4 -5.2 6.2 -6 9.2 -0.6 2.5 -1.7 5 -2.6 5.7 -0.8 0.7 -1.5 0.9 -1.5 0.6z"/>
  <path d="M478 185.4 c0 -1.3 6.8 -11.2 12.7 -18.4 11.5 -14 28.6 -26.4 47.6 -34.6 11.9 -5.1 10.6 -4 -2.9 2.5 -6.6 3.2 -15.6 8.2 -20 11.1 -10.2 6.8 -24.4 21.2 -31.7 31.9 -3.1 4.7 -5.7 8 -5.7 7.5z"/>
  <path d="M738.7 174.6 c-0.4 -6.6 -0.5 -12.1 -0.3 -12.3 0.6 -0.6 1.8 17.7 1.4 21.2 -0.2 1.7 -0.7 -2.4 -1.1 -8.9z"/>
  <path d="M78.5 179.9 c-7.1 -0.5 -23.1 -0.8 -35.5 -0.7 -12.4 0 -22.9 -0.1 -23.5 -0.2 -3.7 -0.8 9.8 -1.9 24.5 -1.9 19.9 0 60.5 2.1 61.6 3.2 0.9 0.8 -9.2 0.7 -27.1 -0.4z"/>
  <path d="M208 170.8 c-16.1 -11.1 -34 -24.1 -34 -24.5 0 -0.7 3.5 1.6 18.5 12.2 7.2 5.1 14.9 10.5 17.3 12 2.3 1.5 4.2 2.9 4.2 3.1 0 0.9 -1.8 0.1 -6 -2.8z"/>
  <path d="M590.7 163.8 c-6.4 -6.4 -14.7 -18.4 -14.7 -21.4 0 -0.5 1.4 1.5 3 4.5 4.4 8 7.5 12 14.3 18.3 3.4 3.2 5.9 5.8 5.5 5.8 -0.4 0 -4 -3.3 -8.1 -7.2z"/>
  <path d="M80.5 167.9 c-7.1 -0.3 -23.5 -0.7 -36.2 -0.8 -22.2 -0.1 -30.2 -1.2 -17.3 -2.4 5.5 -0.5 14.6 -0.2 67 1.9 9.6 0.4 18.2 1 19 1.5 1.7 1 -13.4 0.9 -32.5 -0.2z"/>
  <path d="M594.1 160.5 c-1.7 -2 -3.9 -5.2 -5 -7.3 -2.2 -4.5 -5.5 -14.2 -4.9 -14.8 0.3 -0.2 1.3 2.2 2.2 5.4 2.4 7.5 4.9 12.4 8.7 16.7 1.7 1.9 2.9 3.5 2.6 3.5 -0.3 0 -1.9 -1.6 -3.6 -3.5z"/>
  <path d="M315 161.5 c0 -0.3 1.6 -2.5 3.5 -5.1 3.9 -5.1 4.2 -7.2 1.9 -14.9 -1.9 -6.7 -0.9 -11.2 4.7 -20.5 2.2 -3.6 4.5 -8.4 5.1 -10.7 0.6 -2.4 1.4 -4.3 1.9 -4.3 1.5 0 0.9 13.2 -0.7 17.5 -3.8 9.8 -3.9 11.1 -1.6 16.7 2.9 7.1 2.8 12.1 -0.3 17.5 -1.4 2.3 -3 4.3 -3.5 4.3 -1.4 0 -1.3 -0.3 1.5 -5.6 3 -5.7 3.1 -7.8 0.5 -14.4 -2.5 -6.3 -2.5 -10.3 -0.1 -15.6 1 -2.3 2.2 -5.7 2.6 -7.5 0.5 -2.8 -0.1 -2.2 -3.6 3.6 -4.9 8.2 -5.9 13.9 -3.6 20.7 2 5.7 0.9 10.3 -3.5 15.3 -2.7 3.1 -4.8 4.4 -4.8 3z"/>
  <path d="M737.1 158.4 c-0.3 -7.9 -5.8 -24.8 -13.5 -41.6 -1.4 -3.2 -2.3 -5.8 -2 -5.8 0.7 0 7 13.9 10.4 23 3.4 9.2 6.3 22 5.7 25.2 -0.3 1.8 -0.5 1.7 -0.6 -0.8z"/>
  <path d="M642 146.2 c-10.7 -11 -19.9 -22.7 -25.3 -32.4 -4.2 -7.4 -2.9 -5.9 4 4.7 7.6 11.5 14.6 20 25 30.3 4.6 4.5 8 8.2 7.6 8.2 -0.4 0 -5.5 -4.8 -11.3 -10.8z"/>
  <path d="M288.1 151.9 c-4.6 -5 -4.1 -15.4 1.4 -26.4 3.3 -6.6 3.6 -8.2 3 -11.8 -0.4 -2.3 -1 -7.1 -1.4 -10.7 -0.6 -6.4 -0.6 -6.5 -1.9 -3.4 -0.8 1.9 -1.2 6.2 -1 11.6 0.3 7.6 0 9 -1.9 11.5 -6.8 8.8 -7.7 10.5 -8.1 16.3 -0.4 4.8 0 6.6 1.7 9.5 2.4 4.1 2.5 4.5 1.1 4.5 -1.6 0 -4.2 -4.8 -5 -9.2 -1.1 -6 0.9 -12.4 5.9 -19.1 4 -5.3 4.3 -6.1 4.1 -11 -0.5 -9.1 -0.3 -12.3 1.3 -15.3 1.7 -3.3 6.6 -8.8 7.2 -8.2 0.3 0.2 0 2.2 -0.6 4.3 -1 3.7 -1 6.2 0.7 19.2 0.6 4.7 0.3 6 -3.1 13 -4.9 10 -5.6 16.5 -2.6 22.4 2.5 4.8 2.2 6 -0.8 2.8z"/>
  <path d="M352 145.5 c0 -7.3 1.7 -11.2 8.5 -19.1 6.8 -8 7.2 -10 0.7 -3.6 -2.7 2.6 -6.7 6.4 -9 8.4 -4.3 3.9 -6.2 8.4 -6.2 15.1 0 2.3 -0.4 3.6 -1 3.2 -1.7 -1 -1.1 -9.7 0.9 -14.1 1.3 -2.7 4.3 -6 8.9 -9.7 7 -5.7 10.4 -10.7 11.8 -17.5 1.1 -5.2 2.4 -3.7 2.4 2.8 0 7.6 -1.5 11.1 -7.4 17.7 -5.7 6.3 -7.6 10.7 -7.6 17.3 0 2.7 -0.4 5 -1 5 -0.5 0 -1 -2.5 -1 -5.5z"/>
  <path d="M98.2 146.8 c-2.9 -4.8 -3.5 -9.5 -1.8 -15.8 0.8 -3 1.4 -5.6 1.3 -5.7 -0.1 0 -2.2 2.7 -4.6 6.2 -3 4.5 -4.5 7.7 -4.8 11 -0.7 5.4 -2.3 7.1 -2.3 2.2 0 -4.8 1.7 -9.4 5.6 -14.8 5.1 -7.3 6.5 -10.6 7.2 -17.2 0.4 -3.4 1.2 -6.2 1.7 -6.2 2 0 1.7 12.5 -0.4 19.6 -2.6 8.5 -2.7 14.4 -0.1 19.2 2.3 4.2 2.4 4.7 1.1 4.7 -0.5 0 -1.8 -1.5 -2.9 -3.2z"/>
  <path d="M207.2 146.1 c-1.7 -5.6 -0.9 -10.2 3.4 -19.2 3.6 -7.6 4.4 -11.9 3.1 -18.1 -1.1 -5.4 0.7 -4.8 4.3 1.5 3.6 6.2 3.7 8.4 0.8 18.3 -2.2 7.4 -2.2 7.6 -0.4 12.5 2 5.7 1.6 7.3 -0.9 3.5 -2.9 -4.3 -3 -10.1 -0.5 -18.1 1.6 -5 2 -8.1 1.5 -10.1 -0.8 -2.9 -0.8 -2.8 -2 1.6 -0.6 2.5 -2.5 7 -4.1 10 -2.3 4.4 -3 7.2 -3.4 14 l-0.5 8.5 -1.3 -4.4z"/>
  <path d="M299 149.1 c0 -0.8 1.4 -5.7 3.1 -11 2.4 -7.5 2.9 -10.7 2.5 -14.6 -2 -18.4 -2 -21 0.7 -26.9 1.5 -3.1 4.8 -8.2 7.5 -11.4 7.1 -8.2 8.2 -10.8 8.2 -19.7 0 -4.1 0.4 -7.5 0.9 -7.5 1.4 0 4.4 9.9 4.4 14.5 0 2.6 -1.4 7.1 -3.9 12.5 -3.6 7.8 -3.9 9.2 -3.9 17.3 0 4.8 -0.3 8.7 -0.7 8.7 -0.4 0 -1.2 -1.9 -1.9 -4.2 -1.5 -5.6 0.1 -13.7 4.7 -23.1 2.3 -4.8 3.4 -8.5 3.3 -11.2 l-0.1 -4 -0.7 3.5 c-1 4.9 -3.2 8.6 -8.7 15 -2.6 3 -5.8 7.9 -7.2 10.9 -2.3 4.9 -2.4 6 -1.7 13 1.5 13.9 1.2 21.1 -1.4 28.8 -2.3 7.3 -5 12.2 -5.1 9.4z"/>
  <path d="M240 147.3 c0 -0.7 0.9 -2.7 2 -4.5 3.1 -5.1 2.6 -10.6 -1.5 -18.1 -4.4 -8 -4.5 -12.1 -0.5 -22 2.1 -5.4 3 -9.1 2.9 -12.9 l-0.1 -5.3 -0.9 4.9 c-0.5 3 -2.6 7.8 -5.5 12.5 -6.2 10.1 -6.7 14.3 -2.5 23.1 4.4 9.1 3.9 16.6 -1.4 21 -2.5 2.1 -2.9 0.4 -0.5 -2.9 3.6 -5.2 3.6 -9.1 0.1 -16.7 -4.6 -9.9 -4.3 -13.7 2.1 -24.9 5.1 -8.8 5.3 -9.3 5.8 -18.4 0.4 -7.8 0.7 -9.2 1.8 -7.9 0.7 0.9 1.9 4.6 2.7 8.4 1.6 7.7 1 11.8 -3 21.5 -3.3 7.8 -3.2 11 0.9 18.3 4.2 7.7 4.9 10.7 3.6 15.6 -1.1 3.9 -5.9 10.6 -6 8.3z"/>
  <path d="M617.7 141.8 c-6.3 -7.8 -12.9 -23.6 -12.6 -30.3 0.1 -1.1 0.7 0.9 1.5 4.5 1.7 7.9 6.8 18.8 11.7 25.3 4.6 5.8 4.1 6.2 -0.6 0.5z"/>
  <path d="M67.9 140.3 c-2.3 -5.8 -1.5 -13.3 2.5 -22.1 4.7 -10.4 5.3 -13.8 3.2 -19.8 -2.7 -7.9 -2.1 -13.1 2.4 -22 4.4 -8.8 4.7 -11.2 2.4 -21 -1 -4.3 -1.3 -8.5 -0.9 -11.5 1 -7 5.7 -16 11.4 -22 5.3 -5.5 7.8 -6.1 4.2 -1 -8.1 11.3 -9.1 20.9 -3.6 33.1 4.4 9.8 4.4 13.2 -0.1 23.3 -4.5 9.8 -5.1 14.7 -3 22 2.6 8.9 2.1 12 -3 21.5 -4.4 8 -4.6 8.8 -4.1 14.3 0.5 5.8 -0.5 8 -1.7 3.7 -1.6 -6 -0.6 -10.8 3.9 -19.4 5 -9.4 5.2 -11.1 2.9 -19.1 -2.3 -7.8 -1.5 -14.2 2.9 -23.9 2 -4.5 3.7 -9.4 3.7 -10.9 0 -1.5 -1.6 -6.3 -3.6 -10.7 -3.3 -7.4 -3.6 -8.6 -3.2 -16 l0.3 -8 -2.3 4.8 c-2.4 5.1 -2.5 8.4 -0.6 27.8 0.5 5.3 0.3 6.4 -3 12.6 -4.6 8.9 -5.2 13.1 -3.1 20.8 2.2 7.8 1.7 11.8 -3 22.2 -3.3 7.3 -3.7 8.9 -3.3 14.4 0.3 3.3 0.8 6.9 1.3 7.9 0.4 1 0.3 1.7 -0.4 1.7 -0.6 0 -1.6 -1.2 -2.2 -2.7z"/>
  <path d="M426 142.1 c-2.4 -0.7 -2.5 -1 -2.8 -9.8 l-0.3 -9.1 10.1 -0.7 c5.6 -0.4 10.4 -0.4 10.8 0 0.4 0.4 0.7 5 0.7 10.3 l0 9.7 -8 0.2 c-4.4 0.1 -9.1 -0.2 -10.5 -0.6z m17 -9.7 l0 -8.7 -9.2 0.7 c-5.1 0.4 -9.4 0.9 -9.6 1.1 -0.2 0.2 -0.1 3.8 0.3 7.9 l0.7 7.6 8.9 0 8.9 0 0 -8.6z"/>
  <path d="M467.6 138.4 c-0.3 -0.9 -0.6 -4.6 -0.6 -8.4 0 -8.9 0.5 -10 4.4 -10 7.8 0 13.6 1.3 13.5 2.9 0 1 -0.2 1.2 -0.6 0.4 -0.3 -0.9 -2.9 -1.3 -8.1 -1.3 l-7.7 0 0.3 8 0.4 8 5.4 0 c3 0 5.4 0.5 5.4 1 0 0.6 -2.6 1 -5.9 1 -4.4 0 -6 -0.4 -6.5 -1.6z"/>
  <path d="M152.2 129.7 c0.4 -4.9 1.5 -8 5.2 -14.8 4.4 -8.2 4.6 -8.9 4.6 -16.8 0 -4.5 0.4 -8 0.9 -7.7 0.4 0.3 1.9 3.8 3.1 7.8 l2.4 7.2 -2.3 8.8 c-2.2 8.4 -2.3 10.8 -0.4 18.6 0.9 3.8 -1.3 2.4 -2.5 -1.7 -1.6 -5.2 -1.5 -11 0.3 -16.1 0.8 -2.3 1.4 -6.8 1.4 -9.9 l-0.2 -5.6 -0.6 4.5 c-0.4 2.5 -2.5 8 -4.9 12.2 -3.1 5.7 -4.4 9.4 -4.9 13.8 -0.8 8.1 -2.7 7.9 -2.1 -0.3z"/>
  <path d="M187 131.8 c-2 -7.1 -0.3 -12 7.9 -24.2 l4.6 -6.8 0 -12.7 c0.1 -12.7 1.4 -20 4.2 -22.2 1.1 -0.9 1.3 -0.1 1.3 4.5 0 3.6 0.9 8 2.6 12.3 1.6 4.3 2.6 8.8 2.6 12.1 0 5.5 -0.4 6.3 -8.5 21.5 -3 5.5 -3.7 7.9 -3.7 12.3 0 3.4 -0.4 5.3 -1 4.9 -0.5 -0.3 -1 -3 -1 -5.9 0 -5.4 0.3 -6.2 9.4 -23 3.4 -6.5 3.4 -11.9 -0.4 -22.6 -3.4 -9.6 -3.6 -9.1 -3.1 7.5 0.3 10 -0.8 14.1 -5.8 20.3 -5.8 7.5 -7.4 11.9 -6.9 19.4 0.6 7.6 -0.5 8.9 -2.2 2.6z"/>
  <path d="M255.1 130.7 c-3.4 -4.2 -2.2 -11.1 3.5 -20.6 4.6 -7.7 4.9 -10 2.2 -16.3 -4.7 -10.8 -1.9 -24.6 6.6 -33.1 3.7 -3.7 13.3 -9.3 14.3 -8.3 0.3 0.3 -1.8 3.1 -4.6 6.3 -10.5 11.8 -12.8 21.5 -7.7 32.3 3.5 7.5 3.4 13.2 -0.5 22.8 -1.8 4.6 -3.1 9.7 -3.2 12.5 -0.1 4.9 -1.1 6.1 -2.2 2.6 -1 -2.9 0.1 -7.8 3.6 -16.4 3.5 -8.9 3.6 -13.4 0.4 -20.4 -1.4 -2.9 -2.8 -7 -3.1 -9.1 -0.8 -4.8 1.7 -13.5 5.4 -18.6 4.7 -6.5 4.7 -7.1 0.2 -2.9 -8.8 8.2 -11.6 21.4 -6.9 32 2.8 6.3 2.1 10.7 -2.7 18.1 -3.6 5.5 -3.9 6.4 -3.9 13.2 0 3.9 -0.1 7.2 -0.1 7.2 -0.1 0 -0.7 -0.6 -1.3 -1.3z"/>
  <path d="M52.7 128.2 c-4.1 -4.5 -4.9 -14 -1.7 -21.1 2.4 -5.2 2.5 -10.4 0.4 -16.2 -1.9 -5.3 -1.4 -11.5 1.5 -18.2 2.5 -5.7 2.6 -10.2 0.6 -17.7 -0.8 -3 -1.5 -7.3 -1.5 -9.4 0 -5.3 2.8 -15.1 4.9 -17 1.6 -1.5 1.7 -1 1.7 6.7 0 6.9 0.5 9.4 3.2 16 3.7 9.2 4 14.5 1.2 21.9 -2.5 6.7 -2.5 9.6 0.2 17.6 l2.2 6.5 -1.9 6.6 c-2 6.9 -2.6 17 -1.2 20.9 0.5 1.3 0.4 2.2 -0.1 2.2 -1 0 -2.6 -3.7 -3.7 -8.4 -0.4 -1.7 0.4 -6.1 2 -11.7 l2.7 -8.9 -2.7 -8.3 -2.6 -8.3 2.7 -7.8 c2.9 -8.5 2.9 -13.9 -0.1 -19.7 -0.9 -1.7 -2.4 -6.3 -3.4 -10.2 l-1.9 -7.1 -0.7 5.1 c-0.4 3.5 -0.1 7.1 1.1 11.9 2.2 8.7 2.1 13.7 -0.4 19.4 -3.4 7.9 -3.5 10.4 -1.1 18.5 l2.2 7.5 -2.8 8.1 c-3.1 9.2 -3 14.4 0.4 19 1.2 1.6 2.1 3.1 2.1 3.4 0 1.1 -1.7 0.4 -3.3 -1.3z"/>
  <path d="M38.3 126.3 c-5 -7.1 -5.4 -13.1 -1.7 -24.8 2.9 -9.3 2.4 -13.4 -1.8 -17.1 -2.1 -1.9 -2.1 -1.9 -0.9 0.3 2.4 4.6 1.3 11.5 -2.9 19.6 -4.4 8.2 -5.1 14.1 -2.5 18.7 0.8 1.4 1.4 3.1 1.5 3.9 0 2.6 -2.8 -0.9 -4.6 -5.6 -2.1 -5.5 -1.1 -10.5 3.7 -18.3 5.2 -8.4 4.9 -16.3 -0.8 -23 -3.2 -3.8 -1.2 -4 4.4 -0.3 4.7 3 8.3 8.7 8.3 12.9 0 1.6 -1.2 6.5 -2.6 10.9 -2.9 9.1 -2.8 13 0.7 19.9 2.6 5.3 2.1 7.1 -0.8 2.9z"/>
  <path d="M339.8 113.9 c-0.5 -17.5 1 -21 11.3 -26.9 7.1 -4 10.4 -8.1 11.4 -14 0.4 -2.3 3 -7.4 6.2 -12.2 l5.5 -8.3 -0.6 -7.5 c-0.5 -7.5 -0.5 -7.5 1.4 -5.2 2.4 2.9 4.4 12.4 3.6 17.4 -0.4 2.2 -2.2 7 -4 10.7 -1.9 3.7 -3.9 9.3 -4.5 12.6 -1.4 7.5 -2.8 9.5 -10 14.5 -6.8 4.5 -9.1 7.3 -9.1 11 0 1.4 -0.5 3.2 -1 4 -0.7 1.1 -1 0.2 -1 -3.2 0 -5.5 2.5 -9 9.9 -13.7 6.2 -4 8 -6.7 9.1 -13.9 0.6 -3.1 2.5 -8.6 4.4 -12.2 1.9 -3.6 3.7 -8.8 4 -11.5 0.7 -4.9 0.7 -4.9 -0.7 -2 -0.8 1.7 -3.5 6 -5.9 9.7 -2.5 3.6 -4.9 8.3 -5.2 10.4 -1.3 6.6 -4.4 11 -10 14 -11.2 5.9 -12.7 8.7 -12.3 23.3 0.1 7.4 -0.2 11.4 -1 12.2 -0.9 0.9 -1.2 -1.2 -1.5 -9.2z"/>
  <path d="M672.1 116.1 c-6 -7.2 -17.1 -15.8 -25.9 -20.2 -8.3 -4.1 -9.2 -5.1 -1.8 -1.9 9.8 4.2 22.6 14.1 29.7 23.1 4.4 5.6 2.9 4.8 -2 -1z"/>
  <path d="M128.5 115.5 c1.8 -4.3 1.6 -8.5 -0.4 -14 -1.2 -3 -2.1 -6.8 -2.1 -8.4 0 -4.9 2.6 -11.6 7.3 -18.8 2.6 -3.9 5.2 -9.3 5.9 -12 1.5 -6.2 2.8 -7.7 2.8 -3.2 0 1.8 -1.6 7.9 -3.5 13.4 -4.2 11.9 -4.4 16.9 -1 25.9 2.5 6.5 3.1 11.9 1.9 16.4 -1.2 4.3 -2.4 2.2 -1.8 -3.1 0.5 -4.4 0.2 -6.5 -2.2 -12.2 -2.8 -7.1 -3.5 -13.5 -2.1 -19 l0.8 -3 -2 3 c-1.2 1.7 -2.6 5.3 -3.2 8 -0.9 4.4 -0.8 5.9 1.4 12.6 2.7 8.2 2.6 11.8 -0.6 14.6 -2 1.7 -2 1.7 -1.2 -0.2z"/>
  <path d="M653 111.5 c-2.4 -2.4 -6.7 -5.7 -9.6 -7.2 -2.9 -1.5 -5.1 -2.9 -4.9 -3.1 1.2 -1.2 15.6 8.7 18.1 12.5 2.1 3.3 1.4 2.9 -3.6 -2.2z"/>
  <path d="M113.6 109.5 c0.5 -5.1 0.2 -6.8 -2 -11.5 -3.4 -7.2 -3.3 -9.7 0.9 -18 4.1 -8.1 4.4 -12.6 1.5 -20 -2.3 -5.9 -2.6 -14.7 -0.5 -20.3 1.3 -3.8 1.3 -3.8 -0.7 -2 -5.5 5 -7.3 14.8 -4.3 23.3 2.2 6.2 1.9 8.3 -2.1 17.2 -3.7 8.2 -3.8 9.7 -1.7 18.8 0.5 2.4 0.5 2.4 -1.3 0.7 -1.5 -1.4 -1.9 -3.2 -1.9 -8.5 0 -5.6 0.5 -7.8 3.4 -13.5 l3.3 -6.7 -2.1 -8.3 c-2.9 -11.5 -1.1 -19.2 5.9 -25.1 3.7 -3 6.6 -3.5 5.5 -0.8 -4.2 9.9 -4.4 15.3 -1 25.7 3 9.1 2.8 10.9 -2.1 20.7 -1.9 3.7 -3.4 7.5 -3.4 8.5 0 1 1.1 4.2 2.5 7.1 2.8 6.1 3.3 13.8 1 16.8 -1.3 1.7 -1.4 1.3 -0.9 -4.1z"/>
  <path d="M522.5 112.6 c4.8 -4.3 13.1 -9.5 19.1 -12.2 5.9 -2.6 18.9 -6.4 21.4 -6.3 0.8 0 -2.3 1.1 -7 2.4 -11.1 3.1 -16.7 5.5 -24.8 11 -11.8 7.8 -12 8 -8.7 5.1z"/>
  <path d="M596.6 105.2 c4.7 -4.1 23.4 -14.5 33.6 -18.5 7.9 -3.2 19.4 -5.7 25.1 -5.6 l4.2 0.1 -3.5 0.8 c-1.9 0.5 -7.9 1.8 -13.4 3 -7.6 1.7 -12.9 3.8 -23.3 9 -7.4 3.8 -16.1 8.7 -19.3 11 -7.4 5 -8.8 5.1 -3.4 0.2z"/>
  <path d="M634 106.4 c-1.9 -1.5 -5.7 -3.7 -8.5 -5 -2.7 -1.3 -3.9 -2.1 -2.5 -1.8 3.6 0.9 9 3.9 12.5 6.8 3.9 3.3 3 3.2 -1.5 0z"/>
  <path d="M178 105.8 c0.1 -0.7 0.7 -4 1.5 -7.3 1 -4 1.3 -8.5 0.9 -13.5 -0.8 -9.7 0.4 -13.9 6.8 -23.5 6.8 -10.4 8.1 -14.8 7.2 -25.2 -0.9 -11.4 0.9 -10.8 3.1 0.9 1.9 10.6 1.6 13.7 -2.6 26.6 -2.5 7.6 -3 10.6 -2.7 15.8 0.4 6.1 -0.3 8.2 -1.6 4.8 -1.5 -3.9 -0.5 -13.4 2.4 -21.9 3.1 -9.2 4 -14.5 1.5 -8.6 -0.8 1.8 -3 5.4 -4.9 8 -6.6 9.1 -7.1 10.6 -6.9 22.1 0.2 7.1 -0.3 12.4 -1.4 16.3 -1.5 5.3 -3.3 8.5 -3.3 5.5z"/>
  <path d="M556.2 105.5 c1.3 -1.3 14.6 -2.4 20.9 -1.6 6 0.7 5.7 0.8 -4.1 0.8 -5.8 0 -12.1 0.3 -14 0.7 -1.9 0.5 -3.2 0.5 -2.8 0.1z"/>
  <path d="M696.2 99.3 c-2.9 -2.6 -9.4 -6.8 -14.5 -9.4 -9.7 -5.1 -11 -6.2 -3.2 -2.9 6.2 2.7 17.3 10 20.9 13.9 4.2 4.4 3 3.8 -3.2 -1.6z"/>
  <path d="M665.9 98.3 c-0.8 -0.9 -4.1 -3.4 -7.3 -5.5 -3.3 -2.1 -5.5 -3.8 -5 -3.8 1.6 0 9.7 5.5 12.3 8.4 1.4 1.4 2.2 2.6 1.9 2.6 -0.3 0 -1.2 -0.8 -1.9 -1.7z"/>
  <path d="M678.9 96.1 c-3.2 -2.4 -10.3 -6 -15.3 -7.7 -3.9 -1.3 -4 -1.3 -0.6 -0.8 4.3 0.8 12.4 4.7 16.5 8 3.5 2.8 2.9 3.3 -0.6 0.5z"/>
  <path d="M585.7 95.3 c1.8 -0.2 5 -0.2 7 0 2.1 0.2 0.7 0.4 -3.2 0.4 -3.8 0 -5.5 -0.2 -3.8 -0.4z"/>
  <path d="M604.5 91 l-7 -0.6 6.5 -0.2 c3.6 -0.1 7.2 0.3 8 0.8 0.8 0.5 1.1 0.9 0.5 0.8 -0.5 -0.1 -4.1 -0.4 -8 -0.8z"/>
  <path d="M688 86.2 c-10.5 -8.6 -29.4 -17.2 -43 -19.6 -9.7 -1.7 -12 -3.1 -3.5 -2.2 17.5 2 45.2 14.7 49.5 22.6 1.4 2.6 1.1 2.5 -3 -0.8z"/>
  <path d="M567 86.5 c3.6 -0.8 9.2 -1.6 12.5 -1.9 3.9 -0.3 2.3 0.2 -4.5 1.4 -11.8 2.1 -18 2.5 -8 0.5z"/>
  <path d="M149.7 83.2 c-0.8 -3.8 0.6 -9.4 3.4 -13.9 2.2 -3.5 2.4 -4.8 2.4 -17.8 0 -12.9 0.2 -14.4 2.5 -19 3.8 -7.4 4.7 -6.8 4.7 3.2 0 5 0.7 11.4 1.6 14.9 2.2 7.9 2.1 10.5 -0.3 18.4 -1.1 3.6 -2 8.4 -2 10.8 0 2.3 -0.4 4.2 -1 4.2 -1.7 0 -1.1 -9 1.1 -16.8 l2.1 -7.4 -2.1 -9.4 c-1.2 -5.2 -2.1 -11.1 -2.2 -13.2 l-0.1 -3.7 -1.3 3.5 c-1.7 4.4 -1.8 12 -0.4 19.4 1.2 5.5 1.1 5.8 -2.5 12.6 -2.6 5 -3.6 8.2 -3.6 11.4 0 5.1 -1.5 6.9 -2.3 2.8z"/>
  <path d="M612.5 85 l-6 -0.7 5.5 0 c3 -0.1 6.6 0.3 8 0.7 3 1 1.3 1 -7.5 0z"/>
  <path d="M224 79.7 c0 -7 2.4 -13 8.4 -21.2 6.4 -8.8 7.2 -12 5.7 -21 -0.6 -3.5 -0.9 -7.7 -0.6 -9.2 1.7 -8.1 1.7 -7.8 0 -6.3 -3.8 3.2 -4.7 6.9 -4 16.6 0.8 10.6 0.7 10.9 -7.1 20 -5.4 6.5 -7.4 11.1 -7.4 17.7 0 2.3 -0.4 3.6 -1 3.2 -1.3 -0.8 -1.3 -7 0 -11.7 0.6 -2 3 -6 5.3 -8.8 9.2 -11.2 8.8 -10.2 8.1 -21.4 -0.6 -9.5 -0.5 -10.3 1.8 -13.6 2.2 -3.3 8.1 -8 10 -8 0.5 0 0 1.2 -0.9 2.7 -1.5 2.3 -1.8 5 -1.8 17.3 0 15.9 0 16 -6.7 24.5 -5 6.3 -6.7 10.4 -7.5 17.7 -0.7 6.8 -2.3 7.8 -2.3 1.5z"/>
  <path d="M543 56.5 c0 -17.7 0.4 -27.5 1 -27.5 0.6 0 1 9.8 1 27.5 0 17.7 -0.4 27.5 -1 27.5 -0.6 0 -1 -9.8 -1 -27.5z"/>
  <path d="M569.5 81.6 c2.8 -0.8 7 -1.4 9.5 -1.4 4.5 0.1 4.5 0.1 -1 0.8 -3 0.4 -7.3 1 -9.5 1.3 -3.5 0.5 -3.3 0.4 1 -0.7z"/>
  <path d="M697.7 82.3 c-0.3 -0.5 -1.4 -3.1 -2.5 -5.8 -1.1 -2.8 -2.7 -6.7 -3.6 -8.7 -0.9 -2.1 -1.2 -3.8 -0.8 -3.8 1.3 0 5.8 8.8 7.2 13.9 1 4 0.9 6.4 -0.3 4.4z"/>
  <path d="M630 77.9 c-4.1 -2.1 -10 -4.5 -13 -5.4 -5.3 -1.5 -5.3 -1.5 -1.1 -1 4.4 0.6 16.9 5.9 20.6 8.8 2.8 2.3 2 2 -6.5 -2.4z"/>
  <path d="M586.3 79.3 c1.5 -0.2 3.7 -0.2 5 0 1.2 0.2 0 0.4 -2.8 0.4 -2.7 0 -3.8 -0.2 -2.2 -0.4z"/>
  <path d="M577.8 77 c3.3 -1.4 19.8 -3.2 25.2 -2.8 4.1 0.4 4 0.5 -1.5 0.7 -5.9 0.2 -17.7 1.5 -23.2 2.6 -2.6 0.5 -2.6 0.5 -0.5 -0.5z"/>
  <path d="M557.8 69.5 c-1 -1 0.3 -37.8 1.3 -39 1 -1 1 33.8 0 37.3 -0.3 1.3 -0.9 2 -1.3 1.7z"/>
  <path d="M489.9 56.8 c7.7 -3.8 12.2 -13.8 9 -20.1 -0.6 -1.2 -2.7 -3.7 -4.7 -5.6 l-3.7 -3.3 3.3 2.2 c7.8 5.2 9.3 14.2 3.7 21.5 -2.9 3.9 -8 7.5 -10.5 7.5 -0.8 0 0.5 -1 2.9 -2.2z"/>
  <path d="M500.8 53.7 c2.7 -3 4.2 -5.6 4.3 -7.4 0 -1.6 0.5 -3.7 1 -4.8 0.6 -1.4 0.7 -0.6 0.3 2.5 -0.8 6 -2.7 9.4 -6.6 12.1 -3.1 2.1 -3 2 1 -2.4z"/>
  <path d="M519.8 53.3 c4.9 -6.3 6.5 -10.9 5.9 -16.8 -0.4 -3.4 -0.3 -4.2 0.3 -2.5 2.1 6.4 -0.9 15.8 -6.7 21.1 -2.4 2.1 -2.3 2 0.5 -1.8z"/>
  <path d="M510.2 51 c2.4 -4.7 2.9 -11 1.5 -16.5 -0.5 -2.1 -0.5 -2.5 0.2 -1.5 3.1 4.6 2 14.9 -2 20 -1.7 2.1 -1.6 1.8 0.3 -2z"/>
  <path d="M435.9 42.3 c1.6 -3.3 1.3 -5.4 -1.1 -8 -1.2 -1.3 -1.9 -2.3 -1.5 -2.3 0.3 0 1.5 1 2.7 2.2 2.4 2.6 2.6 5.7 0.4 8.4 -1.5 1.8 -1.5 1.8 -0.5 -0.3z"/>
 </g>
</svg>